# GalakasMidCity_DOOR_WoodDouble_Shopfront_01
mtllib GalakasMidCity_DOOR_WoodDouble_Shopfront_01.mtl
v -1.10000 0.00000 -0.08000
v 1.10000 0.00000 -0.08000
v 1.10000 3.45000 -0.08000
v -1.10000 3.45000 -0.08000
v -1.10000 0.00000 0.08000
v 1.10000 0.00000 0.08000
v 1.10000 3.45000 0.08000
v -1.10000 3.45000 0.08000
v -1.05600 0.10350 -0.11000
v -0.82971 0.10350 -0.11000
v -0.82971 3.34650 -0.11000
v -1.05600 3.34650 -0.11000
v -1.05600 0.10350 -0.07000
v -0.82971 0.10350 -0.07000
v -0.82971 3.34650 -0.07000
v -1.05600 3.34650 -0.07000
v -0.74171 0.10350 -0.11000
v -0.51543 0.10350 -0.11000
v -0.51543 3.34650 -0.11000
v -0.74171 3.34650 -0.11000
v -0.74171 0.10350 -0.07000
v -0.51543 0.10350 -0.07000
v -0.51543 3.34650 -0.07000
v -0.74171 3.34650 -0.07000
v -0.42743 0.10350 -0.11000
v -0.20114 0.10350 -0.11000
v -0.20114 3.34650 -0.11000
v -0.42743 3.34650 -0.11000
v -0.42743 0.10350 -0.07000
v -0.20114 0.10350 -0.07000
v -0.20114 3.34650 -0.07000
v -0.42743 3.34650 -0.07000
v -0.11314 0.10350 -0.11000
v 0.11314 0.10350 -0.11000
v 0.11314 3.34650 -0.11000
v -0.11314 3.34650 -0.11000
v -0.11314 0.10350 -0.07000
v 0.11314 0.10350 -0.07000
v 0.11314 3.34650 -0.07000
v -0.11314 3.34650 -0.07000
v 0.20114 0.10350 -0.11000
v 0.42743 0.10350 -0.11000
v 0.42743 3.34650 -0.11000
v 0.20114 3.34650 -0.11000
v 0.20114 0.10350 -0.07000
v 0.42743 0.10350 -0.07000
v 0.42743 3.34650 -0.07000
v 0.20114 3.34650 -0.07000
v 0.51543 0.10350 -0.11000
v 0.74171 0.10350 -0.11000
v 0.74171 3.34650 -0.11000
v 0.51543 3.34650 -0.11000
v 0.51543 0.10350 -0.07000
v 0.74171 0.10350 -0.07000
v 0.74171 3.34650 -0.07000
v 0.51543 3.34650 -0.07000
v 0.82971 0.10350 -0.11000
v 1.05600 0.10350 -0.11000
v 1.05600 3.34650 -0.11000
v 0.82971 3.34650 -0.11000
v 0.82971 0.10350 -0.07000
v 1.05600 0.10350 -0.07000
v 1.05600 3.34650 -0.07000
v 0.82971 3.34650 -0.07000
v -1.30000 -0.16000 -0.16000
v -1.12000 -0.16000 -0.16000
v -1.12000 3.61000 -0.16000
v -1.30000 3.61000 -0.16000
v -1.30000 -0.16000 0.12000
v -1.12000 -0.16000 0.12000
v -1.12000 3.61000 0.12000
v -1.30000 3.61000 0.12000
v 1.12000 -0.16000 -0.16000
v 1.30000 -0.16000 -0.16000
v 1.30000 3.61000 -0.16000
v 1.12000 3.61000 -0.16000
v 1.12000 -0.16000 0.12000
v 1.30000 -0.16000 0.12000
v 1.30000 3.61000 0.12000
v 1.12000 3.61000 0.12000
v -1.37500 3.45000 -0.16000
v 1.37500 3.45000 -0.16000
v 1.37500 3.67000 -0.16000
v -1.37500 3.67000 -0.16000
v -1.37500 3.45000 0.12000
v 1.37500 3.45000 0.12000
v 1.37500 3.67000 0.12000
v -1.37500 3.67000 0.12000
v -0.94600 0.75000 -0.19000
v 0.94600 0.75000 -0.19000
v 0.94600 0.85000 -0.19000
v -0.94600 0.85000 -0.19000
v -0.94600 0.75000 -0.11000
v 0.94600 0.75000 -0.11000
v 0.94600 0.85000 -0.11000
v -0.94600 0.85000 -0.11000
v -0.94600 1.74400 -0.19000
v 0.94600 1.74400 -0.19000
v 0.94600 1.84400 -0.19000
v -0.94600 1.84400 -0.19000
v -0.94600 1.74400 -0.11000
v 0.94600 1.74400 -0.11000
v 0.94600 1.84400 -0.11000
v -0.94600 1.84400 -0.11000
v -0.94600 2.85000 -0.19000
v 0.94600 2.85000 -0.19000
v 0.94600 2.95000 -0.19000
v -0.94600 2.95000 -0.19000
v -0.94600 2.85000 -0.11000
v 0.94600 2.85000 -0.11000
v 0.94600 2.95000 -0.11000
v -0.94600 2.95000 -0.11000
v -1.34000 0.67000 -0.24500
v -1.34000 1.23000 -0.24500
v -1.37250 0.67000 -0.23629
v -1.37250 1.23000 -0.23629
v -1.39629 0.67000 -0.21250
v -1.39629 1.23000 -0.21250
v -1.40500 0.67000 -0.18000
v -1.40500 1.23000 -0.18000
v -1.39629 0.67000 -0.14750
v -1.39629 1.23000 -0.14750
v -1.37250 0.67000 -0.12371
v -1.37250 1.23000 -0.12371
v -1.34000 0.67000 -0.11500
v -1.34000 1.23000 -0.11500
v -1.30750 0.67000 -0.12371
v -1.30750 1.23000 -0.12371
v -1.28371 0.67000 -0.14750
v -1.28371 1.23000 -0.14750
v -1.27500 0.67000 -0.18000
v -1.27500 1.23000 -0.18000
v -1.28371 0.67000 -0.21250
v -1.28371 1.23000 -0.21250
v -1.30750 0.67000 -0.23629
v -1.30750 1.23000 -0.23629
v -1.34000 2.37000 -0.24500
v -1.34000 2.93000 -0.24500
v -1.37250 2.37000 -0.23629
v -1.37250 2.93000 -0.23629
v -1.39629 2.37000 -0.21250
v -1.39629 2.93000 -0.21250
v -1.40500 2.37000 -0.18000
v -1.40500 2.93000 -0.18000
v -1.39629 2.37000 -0.14750
v -1.39629 2.93000 -0.14750
v -1.37250 2.37000 -0.12371
v -1.37250 2.93000 -0.12371
v -1.34000 2.37000 -0.11500
v -1.34000 2.93000 -0.11500
v -1.30750 2.37000 -0.12371
v -1.30750 2.93000 -0.12371
v -1.28371 2.37000 -0.14750
v -1.28371 2.93000 -0.14750
v -1.27500 2.37000 -0.18000
v -1.27500 2.93000 -0.18000
v -1.28371 2.37000 -0.21250
v -1.28371 2.93000 -0.21250
v -1.30750 2.37000 -0.23629
v -1.30750 2.93000 -0.23629
v 0.66000 1.87400 -0.22000
v 0.66000 1.87400 -0.22000
v 0.66000 1.87400 -0.22000
v 0.66000 1.87400 -0.22000
v 0.66000 1.87400 -0.22000
v 0.66000 1.87400 -0.22000
v 0.66000 1.87400 -0.22000
v 0.66000 1.87400 -0.22000
v 0.66000 1.87400 -0.22000
v 0.66000 1.87400 -0.22000
v 0.66000 1.87400 -0.22000
v 0.66000 1.87400 -0.22000
v 0.70702 1.85872 -0.22000
v 0.70072 1.85872 -0.19649
v 0.68351 1.85872 -0.17928
v 0.66000 1.85872 -0.17298
v 0.63649 1.85872 -0.17928
v 0.61928 1.85872 -0.19649
v 0.61298 1.85872 -0.22000
v 0.61928 1.85872 -0.24351
v 0.63649 1.85872 -0.26072
v 0.66000 1.85872 -0.26702
v 0.68351 1.85872 -0.26072
v 0.70072 1.85872 -0.24351
v 0.73608 1.81872 -0.22000
v 0.72589 1.81872 -0.18196
v 0.69804 1.81872 -0.15411
v 0.66000 1.81872 -0.14392
v 0.62196 1.81872 -0.15411
v 0.59411 1.81872 -0.18196
v 0.58392 1.81872 -0.22000
v 0.59411 1.81872 -0.25804
v 0.62196 1.81872 -0.28589
v 0.66000 1.81872 -0.29608
v 0.69804 1.81872 -0.28589
v 0.72589 1.81872 -0.25804
v 0.73608 1.76928 -0.22000
v 0.72589 1.76928 -0.18196
v 0.69804 1.76928 -0.15411
v 0.66000 1.76928 -0.14392
v 0.62196 1.76928 -0.15411
v 0.59411 1.76928 -0.18196
v 0.58392 1.76928 -0.22000
v 0.59411 1.76928 -0.25804
v 0.62196 1.76928 -0.28589
v 0.66000 1.76928 -0.29608
v 0.69804 1.76928 -0.28589
v 0.72589 1.76928 -0.25804
v 0.70702 1.72928 -0.22000
v 0.70072 1.72928 -0.19649
v 0.68351 1.72928 -0.17928
v 0.66000 1.72928 -0.17298
v 0.63649 1.72928 -0.17928
v 0.61928 1.72928 -0.19649
v 0.61298 1.72928 -0.22000
v 0.61928 1.72928 -0.24351
v 0.63649 1.72928 -0.26072
v 0.66000 1.72928 -0.26702
v 0.68351 1.72928 -0.26072
v 0.70072 1.72928 -0.24351
v 0.66000 1.71400 -0.22000
v 0.66000 1.71400 -0.22000
v 0.66000 1.71400 -0.22000
v 0.66000 1.71400 -0.22000
v 0.66000 1.71400 -0.22000
v 0.66000 1.71400 -0.22000
v 0.66000 1.71400 -0.22000
v 0.66000 1.71400 -0.22000
v 0.66000 1.71400 -0.22000
v 0.66000 1.71400 -0.22000
v 0.66000 1.71400 -0.22000
v 0.66000 1.71400 -0.22000
g detailed_door_slab
usemtl Mat_WoodDark
f 1 2 3 4
f 5 8 7 6
f 1 5 6 2
f 2 6 7 3
f 3 7 8 4
f 4 8 5 1
g detailed_door_plank_0
usemtl Mat_WoodWeathered
f 9 10 11 12
f 13 16 15 14
f 9 13 14 10
f 10 14 15 11
f 11 15 16 12
f 12 16 13 9
g detailed_door_plank_1
f 17 18 19 20
f 21 24 23 22
f 17 21 22 18
f 18 22 23 19
f 19 23 24 20
f 20 24 21 17
g detailed_door_plank_2
f 25 26 27 28
f 29 32 31 30
f 25 29 30 26
f 26 30 31 27
f 27 31 32 28
f 28 32 29 25
g detailed_door_plank_3
f 33 34 35 36
f 37 40 39 38
f 33 37 38 34
f 34 38 39 35
f 35 39 40 36
f 36 40 37 33
g detailed_door_plank_4
f 41 42 43 44
f 45 48 47 46
f 41 45 46 42
f 42 46 47 43
f 43 47 48 44
f 44 48 45 41
g detailed_door_plank_5
f 49 50 51 52
f 53 56 55 54
f 49 53 54 50
f 50 54 55 51
f 51 55 56 52
f 52 56 53 49
g detailed_door_plank_6
f 57 58 59 60
f 61 64 63 62
f 57 61 62 58
f 58 62 63 59
f 59 63 64 60
f 60 64 61 57
g detailed_door_frame_l
usemtl Mat_WoodDark
f 65 66 67 68
f 69 72 71 70
f 65 69 70 66
f 66 70 71 67
f 67 71 72 68
f 68 72 69 65
g detailed_door_frame_r
f 73 74 75 76
f 77 80 79 78
f 73 77 78 74
f 74 78 79 75
f 75 79 80 76
f 76 80 77 73
g detailed_door_lintel
f 81 82 83 84
f 85 88 87 86
f 81 85 86 82
f 82 86 87 83
f 83 87 88 84
f 84 88 85 81
g detailed_door_band_0
usemtl Mat_MetalDark
f 89 90 91 92
f 93 96 95 94
f 89 93 94 90
f 90 94 95 91
f 91 95 96 92
f 92 96 93 89
g detailed_door_band_1
f 97 98 99 100
f 101 104 103 102
f 97 101 102 98
f 98 102 103 99
f 99 103 104 100
f 100 104 101 97
g detailed_door_band_2
f 105 106 107 108
f 109 112 111 110
f 105 109 110 106
f 106 110 111 107
f 107 111 112 108
f 108 112 109 105
g detailed_door_hinge_pin_0
f 113 115 116 114
f 115 117 118 116
f 117 119 120 118
f 119 121 122 120
f 121 123 124 122
f 123 125 126 124
f 125 127 128 126
f 127 129 130 128
f 129 131 132 130
f 131 133 134 132
f 133 135 136 134
f 135 113 114 136
g detailed_door_hinge_pin_0_capA
f 135 133 131 129 127 125 123 121 119 117 115 113
g detailed_door_hinge_pin_0_capB
f 114 116 118 120 122 124 126 128 130 132 134 136
g detailed_door_hinge_pin_1
f 137 139 140 138
f 139 141 142 140
f 141 143 144 142
f 143 145 146 144
f 145 147 148 146
f 147 149 150 148
f 149 151 152 150
f 151 153 154 152
f 153 155 156 154
f 155 157 158 156
f 157 159 160 158
f 159 137 138 160
g detailed_door_hinge_pin_1_capA
f 159 157 155 153 151 149 147 145 143 141 139 137
g detailed_door_hinge_pin_1_capB
f 138 140 142 144 146 148 150 152 154 156 158 160
g detailed_door_knob
f 161 162 174 173
f 162 163 175 174
f 163 164 176 175
f 164 165 177 176
f 165 166 178 177
f 166 167 179 178
f 167 168 180 179
f 168 169 181 180
f 169 170 182 181
f 170 171 183 182
f 171 172 184 183
f 172 161 173 184
f 173 174 186 185
f 174 175 187 186
f 175 176 188 187
f 176 177 189 188
f 177 178 190 189
f 178 179 191 190
f 179 180 192 191
f 180 181 193 192
f 181 182 194 193
f 182 183 195 194
f 183 184 196 195
f 184 173 185 196
f 185 186 198 197
f 186 187 199 198
f 187 188 200 199
f 188 189 201 200
f 189 190 202 201
f 190 191 203 202
f 191 192 204 203
f 192 193 205 204
f 193 194 206 205
f 194 195 207 206
f 195 196 208 207
f 196 185 197 208
f 197 198 210 209
f 198 199 211 210
f 199 200 212 211
f 200 201 213 212
f 201 202 214 213
f 202 203 215 214
f 203 204 216 215
f 204 205 217 216
f 205 206 218 217
f 206 207 219 218
f 207 208 220 219
f 208 197 209 220
f 209 210 222 221
f 210 211 223 222
f 211 212 224 223
f 212 213 225 224
f 213 214 226 225
f 214 215 227 226
f 215 216 228 227
f 216 217 229 228
f 217 218 230 229
f 218 219 231 230
f 219 220 232 231
f 220 209 221 232
