# GalakasMidCity_DOOR_ServiceMetalBound_01
mtllib GalakasMidCity_DOOR_ServiceMetalBound_01.mtl
v -0.87500 0.00000 -0.08000
v 0.87500 0.00000 -0.08000
v 0.87500 3.45000 -0.08000
v -0.87500 3.45000 -0.08000
v -0.87500 0.00000 0.08000
v 0.87500 0.00000 0.08000
v 0.87500 3.45000 0.08000
v -0.87500 3.45000 0.08000
v -0.82600 0.10350 -0.11000
v -0.57400 0.10350 -0.11000
v -0.57400 3.34650 -0.11000
v -0.82600 3.34650 -0.11000
v -0.82600 0.10350 -0.07000
v -0.57400 0.10350 -0.07000
v -0.57400 3.34650 -0.07000
v -0.82600 3.34650 -0.07000
v -0.47600 0.10350 -0.11000
v -0.22400 0.10350 -0.11000
v -0.22400 3.34650 -0.11000
v -0.47600 3.34650 -0.11000
v -0.47600 0.10350 -0.07000
v -0.22400 0.10350 -0.07000
v -0.22400 3.34650 -0.07000
v -0.47600 3.34650 -0.07000
v -0.12600 0.10350 -0.11000
v 0.12600 0.10350 -0.11000
v 0.12600 3.34650 -0.11000
v -0.12600 3.34650 -0.11000
v -0.12600 0.10350 -0.07000
v 0.12600 0.10350 -0.07000
v 0.12600 3.34650 -0.07000
v -0.12600 3.34650 -0.07000
v 0.22400 0.10350 -0.11000
v 0.47600 0.10350 -0.11000
v 0.47600 3.34650 -0.11000
v 0.22400 3.34650 -0.11000
v 0.22400 0.10350 -0.07000
v 0.47600 0.10350 -0.07000
v 0.47600 3.34650 -0.07000
v 0.22400 3.34650 -0.07000
v 0.57400 0.10350 -0.11000
v 0.82600 0.10350 -0.11000
v 0.82600 3.34650 -0.11000
v 0.57400 3.34650 -0.11000
v 0.57400 0.10350 -0.07000
v 0.82600 0.10350 -0.07000
v 0.82600 3.34650 -0.07000
v 0.57400 3.34650 -0.07000
v -1.07500 -0.16000 -0.16000
v -0.89500 -0.16000 -0.16000
v -0.89500 3.61000 -0.16000
v -1.07500 3.61000 -0.16000
v -1.07500 -0.16000 0.12000
v -0.89500 -0.16000 0.12000
v -0.89500 3.61000 0.12000
v -1.07500 3.61000 0.12000
v 0.89500 -0.16000 -0.16000
v 1.07500 -0.16000 -0.16000
v 1.07500 3.61000 -0.16000
v 0.89500 3.61000 -0.16000
v 0.89500 -0.16000 0.12000
v 1.07500 -0.16000 0.12000
v 1.07500 3.61000 0.12000
v 0.89500 3.61000 0.12000
v -1.15000 3.45000 -0.16000
v 1.15000 3.45000 -0.16000
v 1.15000 3.67000 -0.16000
v -1.15000 3.67000 -0.16000
v -1.15000 3.45000 0.12000
v 1.15000 3.45000 0.12000
v 1.15000 3.67000 0.12000
v -1.15000 3.67000 0.12000
v -0.75250 0.75000 -0.19000
v 0.75250 0.75000 -0.19000
v 0.75250 0.85000 -0.19000
v -0.75250 0.85000 -0.19000
v -0.75250 0.75000 -0.11000
v 0.75250 0.75000 -0.11000
v 0.75250 0.85000 -0.11000
v -0.75250 0.85000 -0.11000
v -0.75250 1.74400 -0.19000
v 0.75250 1.74400 -0.19000
v 0.75250 1.84400 -0.19000
v -0.75250 1.84400 -0.19000
v -0.75250 1.74400 -0.11000
v 0.75250 1.74400 -0.11000
v 0.75250 1.84400 -0.11000
v -0.75250 1.84400 -0.11000
v -0.75250 2.85000 -0.19000
v 0.75250 2.85000 -0.19000
v 0.75250 2.95000 -0.19000
v -0.75250 2.95000 -0.19000
v -0.75250 2.85000 -0.11000
v 0.75250 2.85000 -0.11000
v 0.75250 2.95000 -0.11000
v -0.75250 2.95000 -0.11000
v -1.11500 0.67000 -0.24500
v -1.11500 1.23000 -0.24500
v -1.14750 0.67000 -0.23629
v -1.14750 1.23000 -0.23629
v -1.17129 0.67000 -0.21250
v -1.17129 1.23000 -0.21250
v -1.18000 0.67000 -0.18000
v -1.18000 1.23000 -0.18000
v -1.17129 0.67000 -0.14750
v -1.17129 1.23000 -0.14750
v -1.14750 0.67000 -0.12371
v -1.14750 1.23000 -0.12371
v -1.11500 0.67000 -0.11500
v -1.11500 1.23000 -0.11500
v -1.08250 0.67000 -0.12371
v -1.08250 1.23000 -0.12371
v -1.05871 0.67000 -0.14750
v -1.05871 1.23000 -0.14750
v -1.05000 0.67000 -0.18000
v -1.05000 1.23000 -0.18000
v -1.05871 0.67000 -0.21250
v -1.05871 1.23000 -0.21250
v -1.08250 0.67000 -0.23629
v -1.08250 1.23000 -0.23629
v -1.11500 2.37000 -0.24500
v -1.11500 2.93000 -0.24500
v -1.14750 2.37000 -0.23629
v -1.14750 2.93000 -0.23629
v -1.17129 2.37000 -0.21250
v -1.17129 2.93000 -0.21250
v -1.18000 2.37000 -0.18000
v -1.18000 2.93000 -0.18000
v -1.17129 2.37000 -0.14750
v -1.17129 2.93000 -0.14750
v -1.14750 2.37000 -0.12371
v -1.14750 2.93000 -0.12371
v -1.11500 2.37000 -0.11500
v -1.11500 2.93000 -0.11500
v -1.08250 2.37000 -0.12371
v -1.08250 2.93000 -0.12371
v -1.05871 2.37000 -0.14750
v -1.05871 2.93000 -0.14750
v -1.05000 2.37000 -0.18000
v -1.05000 2.93000 -0.18000
v -1.05871 2.37000 -0.21250
v -1.05871 2.93000 -0.21250
v -1.08250 2.37000 -0.23629
v -1.08250 2.93000 -0.23629
v 0.52500 1.87400 -0.22000
v 0.52500 1.87400 -0.22000
v 0.52500 1.87400 -0.22000
v 0.52500 1.87400 -0.22000
v 0.52500 1.87400 -0.22000
v 0.52500 1.87400 -0.22000
v 0.52500 1.87400 -0.22000
v 0.52500 1.87400 -0.22000
v 0.52500 1.87400 -0.22000
v 0.52500 1.87400 -0.22000
v 0.52500 1.87400 -0.22000
v 0.52500 1.87400 -0.22000
v 0.57202 1.85872 -0.22000
v 0.56572 1.85872 -0.19649
v 0.54851 1.85872 -0.17928
v 0.52500 1.85872 -0.17298
v 0.50149 1.85872 -0.17928
v 0.48428 1.85872 -0.19649
v 0.47798 1.85872 -0.22000
v 0.48428 1.85872 -0.24351
v 0.50149 1.85872 -0.26072
v 0.52500 1.85872 -0.26702
v 0.54851 1.85872 -0.26072
v 0.56572 1.85872 -0.24351
v 0.60108 1.81872 -0.22000
v 0.59089 1.81872 -0.18196
v 0.56304 1.81872 -0.15411
v 0.52500 1.81872 -0.14392
v 0.48696 1.81872 -0.15411
v 0.45911 1.81872 -0.18196
v 0.44892 1.81872 -0.22000
v 0.45911 1.81872 -0.25804
v 0.48696 1.81872 -0.28589
v 0.52500 1.81872 -0.29608
v 0.56304 1.81872 -0.28589
v 0.59089 1.81872 -0.25804
v 0.60108 1.76928 -0.22000
v 0.59089 1.76928 -0.18196
v 0.56304 1.76928 -0.15411
v 0.52500 1.76928 -0.14392
v 0.48696 1.76928 -0.15411
v 0.45911 1.76928 -0.18196
v 0.44892 1.76928 -0.22000
v 0.45911 1.76928 -0.25804
v 0.48696 1.76928 -0.28589
v 0.52500 1.76928 -0.29608
v 0.56304 1.76928 -0.28589
v 0.59089 1.76928 -0.25804
v 0.57202 1.72928 -0.22000
v 0.56572 1.72928 -0.19649
v 0.54851 1.72928 -0.17928
v 0.52500 1.72928 -0.17298
v 0.50149 1.72928 -0.17928
v 0.48428 1.72928 -0.19649
v 0.47798 1.72928 -0.22000
v 0.48428 1.72928 -0.24351
v 0.50149 1.72928 -0.26072
v 0.52500 1.72928 -0.26702
v 0.54851 1.72928 -0.26072
v 0.56572 1.72928 -0.24351
v 0.52500 1.71400 -0.22000
v 0.52500 1.71400 -0.22000
v 0.52500 1.71400 -0.22000
v 0.52500 1.71400 -0.22000
v 0.52500 1.71400 -0.22000
v 0.52500 1.71400 -0.22000
v 0.52500 1.71400 -0.22000
v 0.52500 1.71400 -0.22000
v 0.52500 1.71400 -0.22000
v 0.52500 1.71400 -0.22000
v 0.52500 1.71400 -0.22000
v 0.52500 1.71400 -0.22000
g detailed_door_slab
usemtl Mat_WoodDark
f 1 2 3 4
f 5 8 7 6
f 1 5 6 2
f 2 6 7 3
f 3 7 8 4
f 4 8 5 1
g detailed_door_plank_0
usemtl Mat_WoodWeathered
f 9 10 11 12
f 13 16 15 14
f 9 13 14 10
f 10 14 15 11
f 11 15 16 12
f 12 16 13 9
g detailed_door_plank_1
f 17 18 19 20
f 21 24 23 22
f 17 21 22 18
f 18 22 23 19
f 19 23 24 20
f 20 24 21 17
g detailed_door_plank_2
f 25 26 27 28
f 29 32 31 30
f 25 29 30 26
f 26 30 31 27
f 27 31 32 28
f 28 32 29 25
g detailed_door_plank_3
f 33 34 35 36
f 37 40 39 38
f 33 37 38 34
f 34 38 39 35
f 35 39 40 36
f 36 40 37 33
g detailed_door_plank_4
f 41 42 43 44
f 45 48 47 46
f 41 45 46 42
f 42 46 47 43
f 43 47 48 44
f 44 48 45 41
g detailed_door_frame_l
usemtl Mat_WoodDark
f 49 50 51 52
f 53 56 55 54
f 49 53 54 50
f 50 54 55 51
f 51 55 56 52
f 52 56 53 49
g detailed_door_frame_r
f 57 58 59 60
f 61 64 63 62
f 57 61 62 58
f 58 62 63 59
f 59 63 64 60
f 60 64 61 57
g detailed_door_lintel
f 65 66 67 68
f 69 72 71 70
f 65 69 70 66
f 66 70 71 67
f 67 71 72 68
f 68 72 69 65
g detailed_door_band_0
usemtl Mat_MetalDark
f 73 74 75 76
f 77 80 79 78
f 73 77 78 74
f 74 78 79 75
f 75 79 80 76
f 76 80 77 73
g detailed_door_band_1
f 81 82 83 84
f 85 88 87 86
f 81 85 86 82
f 82 86 87 83
f 83 87 88 84
f 84 88 85 81
g detailed_door_band_2
f 89 90 91 92
f 93 96 95 94
f 89 93 94 90
f 90 94 95 91
f 91 95 96 92
f 92 96 93 89
g detailed_door_hinge_pin_0
f 97 99 100 98
f 99 101 102 100
f 101 103 104 102
f 103 105 106 104
f 105 107 108 106
f 107 109 110 108
f 109 111 112 110
f 111 113 114 112
f 113 115 116 114
f 115 117 118 116
f 117 119 120 118
f 119 97 98 120
g detailed_door_hinge_pin_0_capA
f 119 117 115 113 111 109 107 105 103 101 99 97
g detailed_door_hinge_pin_0_capB
f 98 100 102 104 106 108 110 112 114 116 118 120
g detailed_door_hinge_pin_1
f 121 123 124 122
f 123 125 126 124
f 125 127 128 126
f 127 129 130 128
f 129 131 132 130
f 131 133 134 132
f 133 135 136 134
f 135 137 138 136
f 137 139 140 138
f 139 141 142 140
f 141 143 144 142
f 143 121 122 144
g detailed_door_hinge_pin_1_capA
f 143 141 139 137 135 133 131 129 127 125 123 121
g detailed_door_hinge_pin_1_capB
f 122 124 126 128 130 132 134 136 138 140 142 144
g detailed_door_knob
f 145 146 158 157
f 146 147 159 158
f 147 148 160 159
f 148 149 161 160
f 149 150 162 161
f 150 151 163 162
f 151 152 164 163
f 152 153 165 164
f 153 154 166 165
f 154 155 167 166
f 155 156 168 167
f 156 145 157 168
f 157 158 170 169
f 158 159 171 170
f 159 160 172 171
f 160 161 173 172
f 161 162 174 173
f 162 163 175 174
f 163 164 176 175
f 164 165 177 176
f 165 166 178 177
f 166 167 179 178
f 167 168 180 179
f 168 157 169 180
f 169 170 182 181
f 170 171 183 182
f 171 172 184 183
f 172 173 185 184
f 173 174 186 185
f 174 175 187 186
f 175 176 188 187
f 176 177 189 188
f 177 178 190 189
f 178 179 191 190
f 179 180 192 191
f 180 169 181 192
f 181 182 194 193
f 182 183 195 194
f 183 184 196 195
f 184 185 197 196
f 185 186 198 197
f 186 187 199 198
f 187 188 200 199
f 188 189 201 200
f 189 190 202 201
f 190 191 203 202
f 191 192 204 203
f 192 181 193 204
f 193 194 206 205
f 194 195 207 206
f 195 196 208 207
f 196 197 209 208
f 197 198 210 209
f 198 199 211 210
f 199 200 212 211
f 200 201 213 212
f 201 202 214 213
f 202 203 215 214
f 203 204 216 215
f 204 193 205 216
