# GalakasMidCity_LAMP_CandleCluster_01
mtllib GalakasMidCity_LAMP_CandleCluster_01.mtl
v -0.25000 0.00000 -0.06000
v -0.25000 0.55000 -0.06000
v -0.28000 0.00000 -0.05196
v -0.28000 0.55000 -0.05196
v -0.30196 0.00000 -0.03000
v -0.30196 0.55000 -0.03000
v -0.31000 0.00000 -0.00000
v -0.31000 0.55000 -0.00000
v -0.30196 0.00000 0.03000
v -0.30196 0.55000 0.03000
v -0.28000 0.00000 0.05196
v -0.28000 0.55000 0.05196
v -0.25000 0.00000 0.06000
v -0.25000 0.55000 0.06000
v -0.22000 0.00000 0.05196
v -0.22000 0.55000 0.05196
v -0.19804 0.00000 0.03000
v -0.19804 0.55000 0.03000
v -0.19000 0.00000 0.00000
v -0.19000 0.55000 0.00000
v -0.19804 0.00000 -0.03000
v -0.19804 0.55000 -0.03000
v -0.22000 0.00000 -0.05196
v -0.22000 0.55000 -0.05196
v -0.25000 0.67000 0.00000
v -0.25000 0.67000 0.00000
v -0.25000 0.67000 0.00000
v -0.25000 0.67000 0.00000
v -0.25000 0.67000 0.00000
v -0.25000 0.67000 0.00000
v -0.25000 0.67000 0.00000
v -0.25000 0.67000 0.00000
v -0.21464 0.65536 0.00000
v -0.22500 0.65536 0.02500
v -0.25000 0.65536 0.03536
v -0.27500 0.65536 0.02500
v -0.28536 0.65536 0.00000
v -0.27500 0.65536 -0.02500
v -0.25000 0.65536 -0.03536
v -0.22500 0.65536 -0.02500
v -0.20000 0.62000 0.00000
v -0.21464 0.62000 0.03536
v -0.25000 0.62000 0.05000
v -0.28536 0.62000 0.03536
v -0.30000 0.62000 0.00000
v -0.28536 0.62000 -0.03536
v -0.25000 0.62000 -0.05000
v -0.21464 0.62000 -0.03536
v -0.21464 0.58464 0.00000
v -0.22500 0.58464 0.02500
v -0.25000 0.58464 0.03536
v -0.27500 0.58464 0.02500
v -0.28536 0.58464 0.00000
v -0.27500 0.58464 -0.02500
v -0.25000 0.58464 -0.03536
v -0.22500 0.58464 -0.02500
v -0.25000 0.57000 0.00000
v -0.25000 0.57000 0.00000
v -0.25000 0.57000 0.00000
v -0.25000 0.57000 0.00000
v -0.25000 0.57000 0.00000
v -0.25000 0.57000 -0.00000
v -0.25000 0.57000 -0.00000
v -0.25000 0.57000 -0.00000
v 0.00000 0.00000 -0.06000
v 0.00000 0.55000 -0.06000
v -0.03000 0.00000 -0.05196
v -0.03000 0.55000 -0.05196
v -0.05196 0.00000 -0.03000
v -0.05196 0.55000 -0.03000
v -0.06000 0.00000 -0.00000
v -0.06000 0.55000 -0.00000
v -0.05196 0.00000 0.03000
v -0.05196 0.55000 0.03000
v -0.03000 0.00000 0.05196
v -0.03000 0.55000 0.05196
v -0.00000 0.00000 0.06000
v -0.00000 0.55000 0.06000
v 0.03000 0.00000 0.05196
v 0.03000 0.55000 0.05196
v 0.05196 0.00000 0.03000
v 0.05196 0.55000 0.03000
v 0.06000 0.00000 0.00000
v 0.06000 0.55000 0.00000
v 0.05196 0.00000 -0.03000
v 0.05196 0.55000 -0.03000
v 0.03000 0.00000 -0.05196
v 0.03000 0.55000 -0.05196
v 0.00000 0.67000 0.00000
v 0.00000 0.67000 0.00000
v 0.00000 0.67000 0.00000
v 0.00000 0.67000 0.00000
v 0.00000 0.67000 0.00000
v 0.00000 0.67000 0.00000
v 0.00000 0.67000 0.00000
v 0.00000 0.67000 0.00000
v 0.03536 0.65536 0.00000
v 0.02500 0.65536 0.02500
v 0.00000 0.65536 0.03536
v -0.02500 0.65536 0.02500
v -0.03536 0.65536 0.00000
v -0.02500 0.65536 -0.02500
v -0.00000 0.65536 -0.03536
v 0.02500 0.65536 -0.02500
v 0.05000 0.62000 0.00000
v 0.03536 0.62000 0.03536
v 0.00000 0.62000 0.05000
v -0.03536 0.62000 0.03536
v -0.05000 0.62000 0.00000
v -0.03536 0.62000 -0.03536
v -0.00000 0.62000 -0.05000
v 0.03536 0.62000 -0.03536
v 0.03536 0.58464 0.00000
v 0.02500 0.58464 0.02500
v 0.00000 0.58464 0.03536
v -0.02500 0.58464 0.02500
v -0.03536 0.58464 0.00000
v -0.02500 0.58464 -0.02500
v -0.00000 0.58464 -0.03536
v 0.02500 0.58464 -0.02500
v 0.00000 0.57000 0.00000
v 0.00000 0.57000 0.00000
v 0.00000 0.57000 0.00000
v -0.00000 0.57000 0.00000
v -0.00000 0.57000 0.00000
v -0.00000 0.57000 -0.00000
v -0.00000 0.57000 -0.00000
v 0.00000 0.57000 -0.00000
v 0.25000 0.00000 -0.06000
v 0.25000 0.55000 -0.06000
v 0.22000 0.00000 -0.05196
v 0.22000 0.55000 -0.05196
v 0.19804 0.00000 -0.03000
v 0.19804 0.55000 -0.03000
v 0.19000 0.00000 -0.00000
v 0.19000 0.55000 -0.00000
v 0.19804 0.00000 0.03000
v 0.19804 0.55000 0.03000
v 0.22000 0.00000 0.05196
v 0.22000 0.55000 0.05196
v 0.25000 0.00000 0.06000
v 0.25000 0.55000 0.06000
v 0.28000 0.00000 0.05196
v 0.28000 0.55000 0.05196
v 0.30196 0.00000 0.03000
v 0.30196 0.55000 0.03000
v 0.31000 0.00000 0.00000
v 0.31000 0.55000 0.00000
v 0.30196 0.00000 -0.03000
v 0.30196 0.55000 -0.03000
v 0.28000 0.00000 -0.05196
v 0.28000 0.55000 -0.05196
v 0.25000 0.67000 0.00000
v 0.25000 0.67000 0.00000
v 0.25000 0.67000 0.00000
v 0.25000 0.67000 0.00000
v 0.25000 0.67000 0.00000
v 0.25000 0.67000 0.00000
v 0.25000 0.67000 0.00000
v 0.25000 0.67000 0.00000
v 0.28536 0.65536 0.00000
v 0.27500 0.65536 0.02500
v 0.25000 0.65536 0.03536
v 0.22500 0.65536 0.02500
v 0.21464 0.65536 0.00000
v 0.22500 0.65536 -0.02500
v 0.25000 0.65536 -0.03536
v 0.27500 0.65536 -0.02500
v 0.30000 0.62000 0.00000
v 0.28536 0.62000 0.03536
v 0.25000 0.62000 0.05000
v 0.21464 0.62000 0.03536
v 0.20000 0.62000 0.00000
v 0.21464 0.62000 -0.03536
v 0.25000 0.62000 -0.05000
v 0.28536 0.62000 -0.03536
v 0.28536 0.58464 0.00000
v 0.27500 0.58464 0.02500
v 0.25000 0.58464 0.03536
v 0.22500 0.58464 0.02500
v 0.21464 0.58464 0.00000
v 0.22500 0.58464 -0.02500
v 0.25000 0.58464 -0.03536
v 0.27500 0.58464 -0.02500
v 0.25000 0.57000 0.00000
v 0.25000 0.57000 0.00000
v 0.25000 0.57000 0.00000
v 0.25000 0.57000 0.00000
v 0.25000 0.57000 0.00000
v 0.25000 0.57000 -0.00000
v 0.25000 0.57000 -0.00000
v 0.25000 0.57000 -0.00000
g candle_0
usemtl Mat_Ceramic
f 1 3 4 2
f 3 5 6 4
f 5 7 8 6
f 7 9 10 8
f 9 11 12 10
f 11 13 14 12
f 13 15 16 14
f 15 17 18 16
f 17 19 20 18
f 19 21 22 20
f 21 23 24 22
f 23 1 2 24
g candle_0_capA
f 23 21 19 17 15 13 11 9 7 5 3 1
g candle_0_capB
f 2 4 6 8 10 12 14 16 18 20 22 24
g flame_proxy_0
usemtl Mat_Produce
f 25 26 34 33
f 26 27 35 34
f 27 28 36 35
f 28 29 37 36
f 29 30 38 37
f 30 31 39 38
f 31 32 40 39
f 32 25 33 40
f 33 34 42 41
f 34 35 43 42
f 35 36 44 43
f 36 37 45 44
f 37 38 46 45
f 38 39 47 46
f 39 40 48 47
f 40 33 41 48
f 41 42 50 49
f 42 43 51 50
f 43 44 52 51
f 44 45 53 52
f 45 46 54 53
f 46 47 55 54
f 47 48 56 55
f 48 41 49 56
f 49 50 58 57
f 50 51 59 58
f 51 52 60 59
f 52 53 61 60
f 53 54 62 61
f 54 55 63 62
f 55 56 64 63
f 56 49 57 64
g candle_1
usemtl Mat_Ceramic
f 65 67 68 66
f 67 69 70 68
f 69 71 72 70
f 71 73 74 72
f 73 75 76 74
f 75 77 78 76
f 77 79 80 78
f 79 81 82 80
f 81 83 84 82
f 83 85 86 84
f 85 87 88 86
f 87 65 66 88
g candle_1_capA
f 87 85 83 81 79 77 75 73 71 69 67 65
g candle_1_capB
f 66 68 70 72 74 76 78 80 82 84 86 88
g flame_proxy_1
usemtl Mat_Produce
f 89 90 98 97
f 90 91 99 98
f 91 92 100 99
f 92 93 101 100
f 93 94 102 101
f 94 95 103 102
f 95 96 104 103
f 96 89 97 104
f 97 98 106 105
f 98 99 107 106
f 99 100 108 107
f 100 101 109 108
f 101 102 110 109
f 102 103 111 110
f 103 104 112 111
f 104 97 105 112
f 105 106 114 113
f 106 107 115 114
f 107 108 116 115
f 108 109 117 116
f 109 110 118 117
f 110 111 119 118
f 111 112 120 119
f 112 105 113 120
f 113 114 122 121
f 114 115 123 122
f 115 116 124 123
f 116 117 125 124
f 117 118 126 125
f 118 119 127 126
f 119 120 128 127
f 120 113 121 128
g candle_2
usemtl Mat_Ceramic
f 129 131 132 130
f 131 133 134 132
f 133 135 136 134
f 135 137 138 136
f 137 139 140 138
f 139 141 142 140
f 141 143 144 142
f 143 145 146 144
f 145 147 148 146
f 147 149 150 148
f 149 151 152 150
f 151 129 130 152
g candle_2_capA
f 151 149 147 145 143 141 139 137 135 133 131 129
g candle_2_capB
f 130 132 134 136 138 140 142 144 146 148 150 152
g flame_proxy_2
usemtl Mat_Produce
f 153 154 162 161
f 154 155 163 162
f 155 156 164 163
f 156 157 165 164
f 157 158 166 165
f 158 159 167 166
f 159 160 168 167
f 160 153 161 168
f 161 162 170 169
f 162 163 171 170
f 163 164 172 171
f 164 165 173 172
f 165 166 174 173
f 166 167 175 174
f 167 168 176 175
f 168 161 169 176
f 169 170 178 177
f 170 171 179 178
f 171 172 180 179
f 172 173 181 180
f 173 174 182 181
f 174 175 183 182
f 175 176 184 183
f 176 169 177 184
f 177 178 186 185
f 178 179 187 186
f 179 180 188 187
f 180 181 189 188
f 181 182 190 189
f 182 183 191 190
f 183 184 192 191
f 184 177 185 192
