# GalakasMidCity_LAMP_HangingChain_01
mtllib GalakasMidCity_LAMP_HangingChain_01.mtl
v 0.00000 1.80000 -0.02500
v 0.00000 2.80000 -0.02500
v -0.01768 1.80000 -0.01768
v -0.01768 2.80000 -0.01768
v -0.02500 1.80000 -0.00000
v -0.02500 2.80000 -0.00000
v -0.01768 1.80000 0.01768
v -0.01768 2.80000 0.01768
v -0.00000 1.80000 0.02500
v -0.00000 2.80000 0.02500
v 0.01768 1.80000 0.01768
v 0.01768 2.80000 0.01768
v 0.02500 1.80000 0.00000
v 0.02500 2.80000 0.00000
v 0.01768 1.80000 -0.01768
v 0.01768 2.80000 -0.01768
v 0.00000 1.81000 0.00000
v 0.00000 1.81000 0.00000
v 0.00000 1.81000 0.00000
v 0.00000 1.81000 0.00000
v 0.00000 1.81000 0.00000
v 0.00000 1.81000 0.00000
v 0.00000 1.81000 0.00000
v 0.00000 1.81000 0.00000
v 0.00000 1.81000 0.00000
v 0.00000 1.81000 0.00000
v 0.00000 1.81000 0.00000
v 0.00000 1.81000 0.00000
v 0.15282 1.76034 0.00000
v 0.13235 1.76034 0.07641
v 0.07641 1.76034 0.13235
v 0.00000 1.76034 0.15282
v -0.07641 1.76034 0.13235
v -0.13235 1.76034 0.07641
v -0.15282 1.76034 0.00000
v -0.13235 1.76034 -0.07641
v -0.07641 1.76034 -0.13235
v -0.00000 1.76034 -0.15282
v 0.07641 1.76034 -0.13235
v 0.13235 1.76034 -0.07641
v 0.24727 1.63034 0.00000
v 0.21415 1.63034 0.12364
v 0.12364 1.63034 0.21415
v 0.00000 1.63034 0.24727
v -0.12364 1.63034 0.21415
v -0.21415 1.63034 0.12364
v -0.24727 1.63034 0.00000
v -0.21415 1.63034 -0.12364
v -0.12364 1.63034 -0.21415
v -0.00000 1.63034 -0.24727
v 0.12364 1.63034 -0.21415
v 0.21415 1.63034 -0.12364
v 0.24727 1.46966 0.00000
v 0.21415 1.46966 0.12364
v 0.12364 1.46966 0.21415
v 0.00000 1.46966 0.24727
v -0.12364 1.46966 0.21415
v -0.21415 1.46966 0.12364
v -0.24727 1.46966 0.00000
v -0.21415 1.46966 -0.12364
v -0.12364 1.46966 -0.21415
v -0.00000 1.46966 -0.24727
v 0.12364 1.46966 -0.21415
v 0.21415 1.46966 -0.12364
v 0.15282 1.33966 0.00000
v 0.13235 1.33966 0.07641
v 0.07641 1.33966 0.13235
v 0.00000 1.33966 0.15282
v -0.07641 1.33966 0.13235
v -0.13235 1.33966 0.07641
v -0.15282 1.33966 0.00000
v -0.13235 1.33966 -0.07641
v -0.07641 1.33966 -0.13235
v -0.00000 1.33966 -0.15282
v 0.07641 1.33966 -0.13235
v 0.13235 1.33966 -0.07641
v 0.00000 1.29000 0.00000
v 0.00000 1.29000 0.00000
v 0.00000 1.29000 0.00000
v 0.00000 1.29000 0.00000
v -0.00000 1.29000 0.00000
v -0.00000 1.29000 0.00000
v -0.00000 1.29000 0.00000
v -0.00000 1.29000 -0.00000
v -0.00000 1.29000 -0.00000
v -0.00000 1.29000 -0.00000
v 0.00000 1.29000 -0.00000
v 0.00000 1.29000 -0.00000
v -0.12500 1.37500 -0.12500
v 0.12500 1.37500 -0.12500
v 0.12500 1.72500 -0.12500
v -0.12500 1.72500 -0.12500
v -0.12500 1.37500 0.12500
v 0.12500 1.37500 0.12500
v 0.12500 1.72500 0.12500
v -0.12500 1.72500 0.12500
g chain
usemtl Mat_MetalDark
f 1 3 4 2
f 3 5 6 4
f 5 7 8 6
f 7 9 10 8
f 9 11 12 10
f 11 13 14 12
f 13 15 16 14
f 15 1 2 16
g chain_capA
f 15 13 11 9 7 5 3 1
g chain_capB
f 2 4 6 8 10 12 14 16
g hanging_lantern
f 17 18 30 29
f 18 19 31 30
f 19 20 32 31
f 20 21 33 32
f 21 22 34 33
f 22 23 35 34
f 23 24 36 35
f 24 25 37 36
f 25 26 38 37
f 26 27 39 38
f 27 28 40 39
f 28 17 29 40
f 29 30 42 41
f 30 31 43 42
f 31 32 44 43
f 32 33 45 44
f 33 34 46 45
f 34 35 47 46
f 35 36 48 47
f 36 37 49 48
f 37 38 50 49
f 38 39 51 50
f 39 40 52 51
f 40 29 41 52
f 41 42 54 53
f 42 43 55 54
f 43 44 56 55
f 44 45 57 56
f 45 46 58 57
f 46 47 59 58
f 47 48 60 59
f 48 49 61 60
f 49 50 62 61
f 50 51 63 62
f 51 52 64 63
f 52 41 53 64
f 53 54 66 65
f 54 55 67 66
f 55 56 68 67
f 56 57 69 68
f 57 58 70 69
f 58 59 71 70
f 59 60 72 71
f 60 61 73 72
f 61 62 74 73
f 62 63 75 74
f 63 64 76 75
f 64 53 65 76
f 65 66 78 77
f 66 67 79 78
f 67 68 80 79
f 68 69 81 80
f 69 70 82 81
f 70 71 83 82
f 71 72 84 83
f 72 73 85 84
f 73 74 86 85
f 74 75 87 86
f 75 76 88 87
f 76 65 77 88
g lantern_glass
usemtl Mat_GlassDirty
f 89 90 91 92
f 93 96 95 94
f 89 93 94 90
f 90 94 95 91
f 91 95 96 92
f 92 96 93 89
