# GalakasMidCity_LAMP_WallSconce_Caged_01
mtllib GalakasMidCity_LAMP_WallSconce_Caged_01.mtl
v 0.00000 0.10000 -0.04500
v 0.00000 0.65000 -0.04500
v -0.02250 0.10000 -0.03897
v -0.02250 0.65000 -0.03897
v -0.03897 0.10000 -0.02250
v -0.03897 0.65000 -0.02250
v -0.04500 0.10000 -0.00000
v -0.04500 0.65000 -0.00000
v -0.03897 0.10000 0.02250
v -0.03897 0.65000 0.02250
v -0.02250 0.10000 0.03897
v -0.02250 0.65000 0.03897
v -0.00000 0.10000 0.04500
v -0.00000 0.65000 0.04500
v 0.02250 0.10000 0.03897
v 0.02250 0.65000 0.03897
v 0.03897 0.10000 0.02250
v 0.03897 0.65000 0.02250
v 0.04500 0.10000 0.00000
v 0.04500 0.65000 0.00000
v 0.03897 0.10000 -0.02250
v 0.03897 0.65000 -0.02250
v 0.02250 0.10000 -0.03897
v 0.02250 0.65000 -0.03897
v 0.00000 0.65000 0.04500
v 0.28000 0.85000 0.04500
v 0.01308 0.63169 0.03897
v 0.29308 0.83169 0.03897
v 0.02265 0.61829 0.02250
v 0.30265 0.81829 0.02250
v 0.02616 0.61338 0.00000
v 0.30616 0.81338 0.00000
v 0.02265 0.61829 -0.02250
v 0.30265 0.81829 -0.02250
v 0.01308 0.63169 -0.03897
v 0.29308 0.83169 -0.03897
v 0.00000 0.65000 -0.04500
v 0.28000 0.85000 -0.04500
v -0.01308 0.66831 -0.03897
v 0.26692 0.86831 -0.03897
v -0.02265 0.68171 -0.02250
v 0.25735 0.88171 -0.02250
v -0.02616 0.68662 -0.00000
v 0.25384 0.88662 -0.00000
v -0.02265 0.68171 0.02250
v 0.25735 0.88171 0.02250
v -0.01308 0.66831 0.03897
v 0.26692 0.86831 0.03897
v 0.28000 0.85000 0.04500
v 0.48000 0.65000 0.04500
v 0.26409 0.83409 0.03897
v 0.46409 0.63409 0.03897
v 0.25244 0.82244 0.02250
v 0.45244 0.62244 0.02250
v 0.24818 0.81818 0.00000
v 0.44818 0.61818 0.00000
v 0.25244 0.82244 -0.02250
v 0.45244 0.62244 -0.02250
v 0.26409 0.83409 -0.03897
v 0.46409 0.63409 -0.03897
v 0.28000 0.85000 -0.04500
v 0.48000 0.65000 -0.04500
v 0.29591 0.86591 -0.03897
v 0.49591 0.66591 -0.03897
v 0.30756 0.87756 -0.02250
v 0.50756 0.67756 -0.02250
v 0.31182 0.88182 -0.00000
v 0.51182 0.68182 -0.00000
v 0.30756 0.87756 0.02250
v 0.50756 0.67756 0.02250
v 0.29591 0.86591 0.03897
v 0.49591 0.66591 0.03897
v 0.00000 0.69725 0.00000
v 0.00000 0.69725 0.00000
v 0.00000 0.69725 0.00000
v 0.00000 0.69725 0.00000
v 0.00000 0.69725 0.00000
v 0.00000 0.69725 0.00000
v 0.00000 0.69725 0.00000
v 0.00000 0.69725 0.00000
v 0.00000 0.69725 0.00000
v 0.00000 0.69725 0.00000
v 0.00000 0.69725 0.00000
v 0.00000 0.69725 0.00000
v 0.02777 0.68823 0.00000
v 0.02405 0.68823 0.01389
v 0.01389 0.68823 0.02405
v 0.00000 0.68823 0.02777
v -0.01389 0.68823 0.02405
v -0.02405 0.68823 0.01389
v -0.02777 0.68823 0.00000
v -0.02405 0.68823 -0.01389
v -0.01389 0.68823 -0.02405
v -0.00000 0.68823 -0.02777
v 0.01389 0.68823 -0.02405
v 0.02405 0.68823 -0.01389
v 0.04494 0.66460 0.00000
v 0.03892 0.66460 0.02247
v 0.02247 0.66460 0.03892
v 0.00000 0.66460 0.04494
v -0.02247 0.66460 0.03892
v -0.03892 0.66460 0.02247
v -0.04494 0.66460 0.00000
v -0.03892 0.66460 -0.02247
v -0.02247 0.66460 -0.03892
v -0.00000 0.66460 -0.04494
v 0.02247 0.66460 -0.03892
v 0.03892 0.66460 -0.02247
v 0.04494 0.63540 0.00000
v 0.03892 0.63540 0.02247
v 0.02247 0.63540 0.03892
v 0.00000 0.63540 0.04494
v -0.02247 0.63540 0.03892
v -0.03892 0.63540 0.02247
v -0.04494 0.63540 0.00000
v -0.03892 0.63540 -0.02247
v -0.02247 0.63540 -0.03892
v -0.00000 0.63540 -0.04494
v 0.02247 0.63540 -0.03892
v 0.03892 0.63540 -0.02247
v 0.02777 0.61177 0.00000
v 0.02405 0.61177 0.01389
v 0.01389 0.61177 0.02405
v 0.00000 0.61177 0.02777
v -0.01389 0.61177 0.02405
v -0.02405 0.61177 0.01389
v -0.02777 0.61177 0.00000
v -0.02405 0.61177 -0.01389
v -0.01389 0.61177 -0.02405
v -0.00000 0.61177 -0.02777
v 0.01389 0.61177 -0.02405
v 0.02405 0.61177 -0.01389
v 0.00000 0.60275 0.00000
v 0.00000 0.60275 0.00000
v 0.00000 0.60275 0.00000
v 0.00000 0.60275 0.00000
v -0.00000 0.60275 0.00000
v -0.00000 0.60275 0.00000
v -0.00000 0.60275 0.00000
v -0.00000 0.60275 -0.00000
v -0.00000 0.60275 -0.00000
v -0.00000 0.60275 -0.00000
v 0.00000 0.60275 -0.00000
v 0.00000 0.60275 -0.00000
v 0.28000 0.89725 0.00000
v 0.28000 0.89725 0.00000
v 0.28000 0.89725 0.00000
v 0.28000 0.89725 0.00000
v 0.28000 0.89725 0.00000
v 0.28000 0.89725 0.00000
v 0.28000 0.89725 0.00000
v 0.28000 0.89725 0.00000
v 0.28000 0.89725 0.00000
v 0.28000 0.89725 0.00000
v 0.28000 0.89725 0.00000
v 0.28000 0.89725 0.00000
v 0.30777 0.88823 0.00000
v 0.30405 0.88823 0.01389
v 0.29389 0.88823 0.02405
v 0.28000 0.88823 0.02777
v 0.26611 0.88823 0.02405
v 0.25595 0.88823 0.01389
v 0.25223 0.88823 0.00000
v 0.25595 0.88823 -0.01389
v 0.26611 0.88823 -0.02405
v 0.28000 0.88823 -0.02777
v 0.29389 0.88823 -0.02405
v 0.30405 0.88823 -0.01389
v 0.32494 0.86460 0.00000
v 0.31892 0.86460 0.02247
v 0.30247 0.86460 0.03892
v 0.28000 0.86460 0.04494
v 0.25753 0.86460 0.03892
v 0.24108 0.86460 0.02247
v 0.23506 0.86460 0.00000
v 0.24108 0.86460 -0.02247
v 0.25753 0.86460 -0.03892
v 0.28000 0.86460 -0.04494
v 0.30247 0.86460 -0.03892
v 0.31892 0.86460 -0.02247
v 0.32494 0.83540 0.00000
v 0.31892 0.83540 0.02247
v 0.30247 0.83540 0.03892
v 0.28000 0.83540 0.04494
v 0.25753 0.83540 0.03892
v 0.24108 0.83540 0.02247
v 0.23506 0.83540 0.00000
v 0.24108 0.83540 -0.02247
v 0.25753 0.83540 -0.03892
v 0.28000 0.83540 -0.04494
v 0.30247 0.83540 -0.03892
v 0.31892 0.83540 -0.02247
v 0.30777 0.81177 0.00000
v 0.30405 0.81177 0.01389
v 0.29389 0.81177 0.02405
v 0.28000 0.81177 0.02777
v 0.26611 0.81177 0.02405
v 0.25595 0.81177 0.01389
v 0.25223 0.81177 0.00000
v 0.25595 0.81177 -0.01389
v 0.26611 0.81177 -0.02405
v 0.28000 0.81177 -0.02777
v 0.29389 0.81177 -0.02405
v 0.30405 0.81177 -0.01389
v 0.28000 0.80275 0.00000
v 0.28000 0.80275 0.00000
v 0.28000 0.80275 0.00000
v 0.28000 0.80275 0.00000
v 0.28000 0.80275 0.00000
v 0.28000 0.80275 0.00000
v 0.28000 0.80275 0.00000
v 0.28000 0.80275 -0.00000
v 0.28000 0.80275 -0.00000
v 0.28000 0.80275 -0.00000
v 0.28000 0.80275 -0.00000
v 0.28000 0.80275 -0.00000
v 0.58000 0.70000 0.00000
v 0.58000 0.70000 0.00000
v 0.58000 0.70000 0.00000
v 0.58000 0.70000 0.00000
v 0.58000 0.70000 0.00000
v 0.58000 0.70000 0.00000
v 0.58000 0.70000 0.00000
v 0.58000 0.70000 0.00000
v 0.58000 0.70000 0.00000
v 0.58000 0.70000 0.00000
v 0.58000 0.70000 0.00000
v 0.58000 0.70000 0.00000
v 0.68580 0.66562 0.00000
v 0.67163 0.66562 0.05290
v 0.63290 0.66562 0.09163
v 0.58000 0.66562 0.10580
v 0.52710 0.66562 0.09163
v 0.48837 0.66562 0.05290
v 0.47420 0.66562 0.00000
v 0.48837 0.66562 -0.05290
v 0.52710 0.66562 -0.09163
v 0.58000 0.66562 -0.10580
v 0.63290 0.66562 -0.09163
v 0.67163 0.66562 -0.05290
v 0.75119 0.57562 0.00000
v 0.72826 0.57562 0.08560
v 0.66560 0.57562 0.14826
v 0.58000 0.57562 0.17119
v 0.49440 0.57562 0.14826
v 0.43174 0.57562 0.08560
v 0.40881 0.57562 0.00000
v 0.43174 0.57562 -0.08560
v 0.49440 0.57562 -0.14826
v 0.58000 0.57562 -0.17119
v 0.66560 0.57562 -0.14826
v 0.72826 0.57562 -0.08560
v 0.75119 0.46438 0.00000
v 0.72826 0.46438 0.08560
v 0.66560 0.46438 0.14826
v 0.58000 0.46438 0.17119
v 0.49440 0.46438 0.14826
v 0.43174 0.46438 0.08560
v 0.40881 0.46438 0.00000
v 0.43174 0.46438 -0.08560
v 0.49440 0.46438 -0.14826
v 0.58000 0.46438 -0.17119
v 0.66560 0.46438 -0.14826
v 0.72826 0.46438 -0.08560
v 0.68580 0.37438 0.00000
v 0.67163 0.37438 0.05290
v 0.63290 0.37438 0.09163
v 0.58000 0.37438 0.10580
v 0.52710 0.37438 0.09163
v 0.48837 0.37438 0.05290
v 0.47420 0.37438 0.00000
v 0.48837 0.37438 -0.05290
v 0.52710 0.37438 -0.09163
v 0.58000 0.37438 -0.10580
v 0.63290 0.37438 -0.09163
v 0.67163 0.37438 -0.05290
v 0.58000 0.34000 0.00000
v 0.58000 0.34000 0.00000
v 0.58000 0.34000 0.00000
v 0.58000 0.34000 0.00000
v 0.58000 0.34000 0.00000
v 0.58000 0.34000 0.00000
v 0.58000 0.34000 0.00000
v 0.58000 0.34000 -0.00000
v 0.58000 0.34000 -0.00000
v 0.58000 0.34000 -0.00000
v 0.58000 0.34000 -0.00000
v 0.58000 0.34000 -0.00000
v 0.49000 0.40000 -0.09000
v 0.67000 0.40000 -0.09000
v 0.67000 0.64000 -0.09000
v 0.49000 0.64000 -0.09000
v 0.49000 0.40000 0.09000
v 0.67000 0.40000 0.09000
v 0.67000 0.64000 0.09000
v 0.49000 0.64000 0.09000
g wall_gooseneck_seg0
usemtl Mat_MetalDark
f 1 3 4 2
f 3 5 6 4
f 5 7 8 6
f 7 9 10 8
f 9 11 12 10
f 11 13 14 12
f 13 15 16 14
f 15 17 18 16
f 17 19 20 18
f 19 21 22 20
f 21 23 24 22
f 23 1 2 24
g wall_gooseneck_seg0_capA
f 23 21 19 17 15 13 11 9 7 5 3 1
g wall_gooseneck_seg0_capB
f 2 4 6 8 10 12 14 16 18 20 22 24
g wall_gooseneck_seg1
f 25 27 28 26
f 27 29 30 28
f 29 31 32 30
f 31 33 34 32
f 33 35 36 34
f 35 37 38 36
f 37 39 40 38
f 39 41 42 40
f 41 43 44 42
f 43 45 46 44
f 45 47 48 46
f 47 25 26 48
g wall_gooseneck_seg1_capA
f 47 45 43 41 39 37 35 33 31 29 27 25
g wall_gooseneck_seg1_capB
f 26 28 30 32 34 36 38 40 42 44 46 48
g wall_gooseneck_seg2
f 49 51 52 50
f 51 53 54 52
f 53 55 56 54
f 55 57 58 56
f 57 59 60 58
f 59 61 62 60
f 61 63 64 62
f 63 65 66 64
f 65 67 68 66
f 67 69 70 68
f 69 71 72 70
f 71 49 50 72
g wall_gooseneck_seg2_capA
f 71 69 67 65 63 61 59 57 55 53 51 49
g wall_gooseneck_seg2_capB
f 50 52 54 56 58 60 62 64 66 68 70 72
g wall_gooseneck_joint1
f 73 74 86 85
f 74 75 87 86
f 75 76 88 87
f 76 77 89 88
f 77 78 90 89
f 78 79 91 90
f 79 80 92 91
f 80 81 93 92
f 81 82 94 93
f 82 83 95 94
f 83 84 96 95
f 84 73 85 96
f 85 86 98 97
f 86 87 99 98
f 87 88 100 99
f 88 89 101 100
f 89 90 102 101
f 90 91 103 102
f 91 92 104 103
f 92 93 105 104
f 93 94 106 105
f 94 95 107 106
f 95 96 108 107
f 96 85 97 108
f 97 98 110 109
f 98 99 111 110
f 99 100 112 111
f 100 101 113 112
f 101 102 114 113
f 102 103 115 114
f 103 104 116 115
f 104 105 117 116
f 105 106 118 117
f 106 107 119 118
f 107 108 120 119
f 108 97 109 120
f 109 110 122 121
f 110 111 123 122
f 111 112 124 123
f 112 113 125 124
f 113 114 126 125
f 114 115 127 126
f 115 116 128 127
f 116 117 129 128
f 117 118 130 129
f 118 119 131 130
f 119 120 132 131
f 120 109 121 132
f 121 122 134 133
f 122 123 135 134
f 123 124 136 135
f 124 125 137 136
f 125 126 138 137
f 126 127 139 138
f 127 128 140 139
f 128 129 141 140
f 129 130 142 141
f 130 131 143 142
f 131 132 144 143
f 132 121 133 144
g wall_gooseneck_joint2
f 145 146 158 157
f 146 147 159 158
f 147 148 160 159
f 148 149 161 160
f 149 150 162 161
f 150 151 163 162
f 151 152 164 163
f 152 153 165 164
f 153 154 166 165
f 154 155 167 166
f 155 156 168 167
f 156 145 157 168
f 157 158 170 169
f 158 159 171 170
f 159 160 172 171
f 160 161 173 172
f 161 162 174 173
f 162 163 175 174
f 163 164 176 175
f 164 165 177 176
f 165 166 178 177
f 166 167 179 178
f 167 168 180 179
f 168 157 169 180
f 169 170 182 181
f 170 171 183 182
f 171 172 184 183
f 172 173 185 184
f 173 174 186 185
f 174 175 187 186
f 175 176 188 187
f 176 177 189 188
f 177 178 190 189
f 178 179 191 190
f 179 180 192 191
f 180 169 181 192
f 181 182 194 193
f 182 183 195 194
f 183 184 196 195
f 184 185 197 196
f 185 186 198 197
f 186 187 199 198
f 187 188 200 199
f 188 189 201 200
f 189 190 202 201
f 190 191 203 202
f 191 192 204 203
f 192 181 193 204
f 193 194 206 205
f 194 195 207 206
f 195 196 208 207
f 196 197 209 208
f 197 198 210 209
f 198 199 211 210
f 199 200 212 211
f 200 201 213 212
f 201 202 214 213
f 202 203 215 214
f 203 204 216 215
f 204 193 205 216
g wall_lamp_cage
f 217 218 230 229
f 218 219 231 230
f 219 220 232 231
f 220 221 233 232
f 221 222 234 233
f 222 223 235 234
f 223 224 236 235
f 224 225 237 236
f 225 226 238 237
f 226 227 239 238
f 227 228 240 239
f 228 217 229 240
f 229 230 242 241
f 230 231 243 242
f 231 232 244 243
f 232 233 245 244
f 233 234 246 245
f 234 235 247 246
f 235 236 248 247
f 236 237 249 248
f 237 238 250 249
f 238 239 251 250
f 239 240 252 251
f 240 229 241 252
f 241 242 254 253
f 242 243 255 254
f 243 244 256 255
f 244 245 257 256
f 245 246 258 257
f 246 247 259 258
f 247 248 260 259
f 248 249 261 260
f 249 250 262 261
f 250 251 263 262
f 251 252 264 263
f 252 241 253 264
f 253 254 266 265
f 254 255 267 266
f 255 256 268 267
f 256 257 269 268
f 257 258 270 269
f 258 259 271 270
f 259 260 272 271
f 260 261 273 272
f 261 262 274 273
f 262 263 275 274
f 263 264 276 275
f 264 253 265 276
f 265 266 278 277
f 266 267 279 278
f 267 268 280 279
f 268 269 281 280
f 269 270 282 281
f 270 271 283 282
f 271 272 284 283
f 272 273 285 284
f 273 274 286 285
f 274 275 287 286
f 275 276 288 287
f 276 265 277 288
g lamp_glass
usemtl Mat_GlassDirty
f 289 290 291 292
f 293 296 295 294
f 289 293 294 290
f 290 294 295 291
f 291 295 296 292
f 292 296 293 289
