# GalakasMidCity_LAMP_StreetPost_Single_01
mtllib GalakasMidCity_LAMP_StreetPost_Single_01.mtl
v 0.00000 0.00000 -0.08000
v 0.00000 3.20000 -0.08000
v -0.03061 0.00000 -0.07391
v -0.03061 3.20000 -0.07391
v -0.05657 0.00000 -0.05657
v -0.05657 3.20000 -0.05657
v -0.07391 0.00000 -0.03061
v -0.07391 3.20000 -0.03061
v -0.08000 0.00000 -0.00000
v -0.08000 3.20000 -0.00000
v -0.07391 0.00000 0.03061
v -0.07391 3.20000 0.03061
v -0.05657 0.00000 0.05657
v -0.05657 3.20000 0.05657
v -0.03061 0.00000 0.07391
v -0.03061 3.20000 0.07391
v -0.00000 0.00000 0.08000
v -0.00000 3.20000 0.08000
v 0.03061 0.00000 0.07391
v 0.03061 3.20000 0.07391
v 0.05657 0.00000 0.05657
v 0.05657 3.20000 0.05657
v 0.07391 0.00000 0.03061
v 0.07391 3.20000 0.03061
v 0.08000 0.00000 0.00000
v 0.08000 3.20000 0.00000
v 0.07391 0.00000 -0.03061
v 0.07391 3.20000 -0.03061
v 0.05657 0.00000 -0.05657
v 0.05657 3.20000 -0.05657
v 0.03061 0.00000 -0.07391
v 0.03061 3.20000 -0.07391
v 0.00000 2.90000 0.04500
v 0.35000 3.10000 0.04500
v 0.01116 2.88046 0.03897
v 0.36116 3.08046 0.03897
v 0.01934 2.86616 0.02250
v 0.36934 3.06616 0.02250
v 0.02233 2.86093 0.00000
v 0.37233 3.06093 0.00000
v 0.01934 2.86616 -0.02250
v 0.36934 3.06616 -0.02250
v 0.01116 2.88046 -0.03897
v 0.36116 3.08046 -0.03897
v 0.00000 2.90000 -0.04500
v 0.35000 3.10000 -0.04500
v -0.01116 2.91954 -0.03897
v 0.33884 3.11954 -0.03897
v -0.01934 2.93384 -0.02250
v 0.33066 3.13384 -0.02250
v -0.02233 2.93907 -0.00000
v 0.32767 3.13907 -0.00000
v -0.01934 2.93384 0.02250
v 0.33066 3.13384 0.02250
v -0.01116 2.91954 0.03897
v 0.33884 3.11954 0.03897
v 0.35000 3.10000 0.04500
v 0.65000 2.85000 0.04500
v 0.33560 3.08272 0.03897
v 0.63560 2.83272 0.03897
v 0.32505 3.07006 0.02250
v 0.62505 2.82006 0.02250
v 0.32119 3.06543 0.00000
v 0.62119 2.81543 0.00000
v 0.32505 3.07006 -0.02250
v 0.62505 2.82006 -0.02250
v 0.33560 3.08272 -0.03897
v 0.63560 2.83272 -0.03897
v 0.35000 3.10000 -0.04500
v 0.65000 2.85000 -0.04500
v 0.36440 3.11728 -0.03897
v 0.66440 2.86728 -0.03897
v 0.37495 3.12994 -0.02250
v 0.67495 2.87994 -0.02250
v 0.37881 3.13457 -0.00000
v 0.67881 2.88457 -0.00000
v 0.37495 3.12994 0.02250
v 0.67495 2.87994 0.02250
v 0.36440 3.11728 0.03897
v 0.66440 2.86728 0.03897
v 0.35000 3.14725 0.00000
v 0.35000 3.14725 0.00000
v 0.35000 3.14725 0.00000
v 0.35000 3.14725 0.00000
v 0.35000 3.14725 0.00000
v 0.35000 3.14725 0.00000
v 0.35000 3.14725 0.00000
v 0.35000 3.14725 0.00000
v 0.35000 3.14725 0.00000
v 0.35000 3.14725 0.00000
v 0.35000 3.14725 0.00000
v 0.35000 3.14725 0.00000
v 0.37777 3.13823 0.00000
v 0.37405 3.13823 0.01389
v 0.36389 3.13823 0.02405
v 0.35000 3.13823 0.02777
v 0.33611 3.13823 0.02405
v 0.32595 3.13823 0.01389
v 0.32223 3.13823 0.00000
v 0.32595 3.13823 -0.01389
v 0.33611 3.13823 -0.02405
v 0.35000 3.13823 -0.02777
v 0.36389 3.13823 -0.02405
v 0.37405 3.13823 -0.01389
v 0.39494 3.11460 0.00000
v 0.38892 3.11460 0.02247
v 0.37247 3.11460 0.03892
v 0.35000 3.11460 0.04494
v 0.32753 3.11460 0.03892
v 0.31108 3.11460 0.02247
v 0.30506 3.11460 0.00000
v 0.31108 3.11460 -0.02247
v 0.32753 3.11460 -0.03892
v 0.35000 3.11460 -0.04494
v 0.37247 3.11460 -0.03892
v 0.38892 3.11460 -0.02247
v 0.39494 3.08540 0.00000
v 0.38892 3.08540 0.02247
v 0.37247 3.08540 0.03892
v 0.35000 3.08540 0.04494
v 0.32753 3.08540 0.03892
v 0.31108 3.08540 0.02247
v 0.30506 3.08540 0.00000
v 0.31108 3.08540 -0.02247
v 0.32753 3.08540 -0.03892
v 0.35000 3.08540 -0.04494
v 0.37247 3.08540 -0.03892
v 0.38892 3.08540 -0.02247
v 0.37777 3.06177 0.00000
v 0.37405 3.06177 0.01389
v 0.36389 3.06177 0.02405
v 0.35000 3.06177 0.02777
v 0.33611 3.06177 0.02405
v 0.32595 3.06177 0.01389
v 0.32223 3.06177 0.00000
v 0.32595 3.06177 -0.01389
v 0.33611 3.06177 -0.02405
v 0.35000 3.06177 -0.02777
v 0.36389 3.06177 -0.02405
v 0.37405 3.06177 -0.01389
v 0.35000 3.05275 0.00000
v 0.35000 3.05275 0.00000
v 0.35000 3.05275 0.00000
v 0.35000 3.05275 0.00000
v 0.35000 3.05275 0.00000
v 0.35000 3.05275 0.00000
v 0.35000 3.05275 0.00000
v 0.35000 3.05275 -0.00000
v 0.35000 3.05275 -0.00000
v 0.35000 3.05275 -0.00000
v 0.35000 3.05275 -0.00000
v 0.35000 3.05275 -0.00000
v 0.78000 2.92000 0.00000
v 0.78000 2.92000 0.00000
v 0.78000 2.92000 0.00000
v 0.78000 2.92000 0.00000
v 0.78000 2.92000 0.00000
v 0.78000 2.92000 0.00000
v 0.78000 2.92000 0.00000
v 0.78000 2.92000 0.00000
v 0.78000 2.92000 0.00000
v 0.78000 2.92000 0.00000
v 0.78000 2.92000 0.00000
v 0.78000 2.92000 0.00000
v 0.90931 2.87798 0.00000
v 0.89199 2.87798 0.06466
v 0.84466 2.87798 0.11199
v 0.78000 2.87798 0.12931
v 0.71534 2.87798 0.11199
v 0.66801 2.87798 0.06466
v 0.65069 2.87798 0.00000
v 0.66801 2.87798 -0.06466
v 0.71534 2.87798 -0.11199
v 0.78000 2.87798 -0.12931
v 0.84466 2.87798 -0.11199
v 0.89199 2.87798 -0.06466
v 0.98923 2.76798 0.00000
v 0.96120 2.76798 0.10462
v 0.88462 2.76798 0.18120
v 0.78000 2.76798 0.20923
v 0.67538 2.76798 0.18120
v 0.59880 2.76798 0.10462
v 0.57077 2.76798 0.00000
v 0.59880 2.76798 -0.10462
v 0.67538 2.76798 -0.18120
v 0.78000 2.76798 -0.20923
v 0.88462 2.76798 -0.18120
v 0.96120 2.76798 -0.10462
v 0.98923 2.63202 0.00000
v 0.96120 2.63202 0.10462
v 0.88462 2.63202 0.18120
v 0.78000 2.63202 0.20923
v 0.67538 2.63202 0.18120
v 0.59880 2.63202 0.10462
v 0.57077 2.63202 0.00000
v 0.59880 2.63202 -0.10462
v 0.67538 2.63202 -0.18120
v 0.78000 2.63202 -0.20923
v 0.88462 2.63202 -0.18120
v 0.96120 2.63202 -0.10462
v 0.90931 2.52202 0.00000
v 0.89199 2.52202 0.06466
v 0.84466 2.52202 0.11199
v 0.78000 2.52202 0.12931
v 0.71534 2.52202 0.11199
v 0.66801 2.52202 0.06466
v 0.65069 2.52202 0.00000
v 0.66801 2.52202 -0.06466
v 0.71534 2.52202 -0.11199
v 0.78000 2.52202 -0.12931
v 0.84466 2.52202 -0.11199
v 0.89199 2.52202 -0.06466
v 0.78000 2.48000 0.00000
v 0.78000 2.48000 0.00000
v 0.78000 2.48000 0.00000
v 0.78000 2.48000 0.00000
v 0.78000 2.48000 0.00000
v 0.78000 2.48000 0.00000
v 0.78000 2.48000 0.00000
v 0.78000 2.48000 -0.00000
v 0.78000 2.48000 -0.00000
v 0.78000 2.48000 -0.00000
v 0.78000 2.48000 -0.00000
v 0.78000 2.48000 -0.00000
g street_post
usemtl Mat_MetalDark
f 1 3 4 2
f 3 5 6 4
f 5 7 8 6
f 7 9 10 8
f 9 11 12 10
f 11 13 14 12
f 13 15 16 14
f 15 17 18 16
f 17 19 20 18
f 19 21 22 20
f 21 23 24 22
f 23 25 26 24
f 25 27 28 26
f 27 29 30 28
f 29 31 32 30
f 31 1 2 32
g street_post_capA
f 31 29 27 25 23 21 19 17 15 13 11 9 7 5 3 1
g street_post_capB
f 2 4 6 8 10 12 14 16 18 20 22 24 26 28 30 32
g curved_lamp_arm_seg0
f 33 35 36 34
f 35 37 38 36
f 37 39 40 38
f 39 41 42 40
f 41 43 44 42
f 43 45 46 44
f 45 47 48 46
f 47 49 50 48
f 49 51 52 50
f 51 53 54 52
f 53 55 56 54
f 55 33 34 56
g curved_lamp_arm_seg0_capA
f 55 53 51 49 47 45 43 41 39 37 35 33
g curved_lamp_arm_seg0_capB
f 34 36 38 40 42 44 46 48 50 52 54 56
g curved_lamp_arm_seg1
f 57 59 60 58
f 59 61 62 60
f 61 63 64 62
f 63 65 66 64
f 65 67 68 66
f 67 69 70 68
f 69 71 72 70
f 71 73 74 72
f 73 75 76 74
f 75 77 78 76
f 77 79 80 78
f 79 57 58 80
g curved_lamp_arm_seg1_capA
f 79 77 75 73 71 69 67 65 63 61 59 57
g curved_lamp_arm_seg1_capB
f 58 60 62 64 66 68 70 72 74 76 78 80
g curved_lamp_arm_joint1
f 81 82 94 93
f 82 83 95 94
f 83 84 96 95
f 84 85 97 96
f 85 86 98 97
f 86 87 99 98
f 87 88 100 99
f 88 89 101 100
f 89 90 102 101
f 90 91 103 102
f 91 92 104 103
f 92 81 93 104
f 93 94 106 105
f 94 95 107 106
f 95 96 108 107
f 96 97 109 108
f 97 98 110 109
f 98 99 111 110
f 99 100 112 111
f 100 101 113 112
f 101 102 114 113
f 102 103 115 114
f 103 104 116 115
f 104 93 105 116
f 105 106 118 117
f 106 107 119 118
f 107 108 120 119
f 108 109 121 120
f 109 110 122 121
f 110 111 123 122
f 111 112 124 123
f 112 113 125 124
f 113 114 126 125
f 114 115 127 126
f 115 116 128 127
f 116 105 117 128
f 117 118 130 129
f 118 119 131 130
f 119 120 132 131
f 120 121 133 132
f 121 122 134 133
f 122 123 135 134
f 123 124 136 135
f 124 125 137 136
f 125 126 138 137
f 126 127 139 138
f 127 128 140 139
f 128 117 129 140
f 129 130 142 141
f 130 131 143 142
f 131 132 144 143
f 132 133 145 144
f 133 134 146 145
f 134 135 147 146
f 135 136 148 147
f 136 137 149 148
f 137 138 150 149
f 138 139 151 150
f 139 140 152 151
f 140 129 141 152
g lamp_cage
f 153 154 166 165
f 154 155 167 166
f 155 156 168 167
f 156 157 169 168
f 157 158 170 169
f 158 159 171 170
f 159 160 172 171
f 160 161 173 172
f 161 162 174 173
f 162 163 175 174
f 163 164 176 175
f 164 153 165 176
f 165 166 178 177
f 166 167 179 178
f 167 168 180 179
f 168 169 181 180
f 169 170 182 181
f 170 171 183 182
f 171 172 184 183
f 172 173 185 184
f 173 174 186 185
f 174 175 187 186
f 175 176 188 187
f 176 165 177 188
f 177 178 190 189
f 178 179 191 190
f 179 180 192 191
f 180 181 193 192
f 181 182 194 193
f 182 183 195 194
f 183 184 196 195
f 184 185 197 196
f 185 186 198 197
f 186 187 199 198
f 187 188 200 199
f 188 177 189 200
f 189 190 202 201
f 190 191 203 202
f 191 192 204 203
f 192 193 205 204
f 193 194 206 205
f 194 195 207 206
f 195 196 208 207
f 196 197 209 208
f 197 198 210 209
f 198 199 211 210
f 199 200 212 211
f 200 189 201 212
f 201 202 214 213
f 202 203 215 214
f 203 204 216 215
f 204 205 217 216
f 205 206 218 217
f 206 207 219 218
f 207 208 220 219
f 208 209 221 220
f 209 210 222 221
f 210 211 223 222
f 211 212 224 223
f 212 201 213 224
