# GalakasMidCity_VENDOR_WaterSeller_BarrelStand_01
mtllib GalakasMidCity_VENDOR_WaterSeller_BarrelStand_01.mtl
v -0.70000 0.25000 -0.35000
v -0.70000 1.25000 -0.35000
v -0.81971 0.25000 -0.32889
v -0.81971 1.25000 -0.32889
v -0.92498 0.25000 -0.26812
v -0.92498 1.25000 -0.26812
v -1.00311 0.25000 -0.17500
v -1.00311 1.25000 -0.17500
v -1.04468 0.25000 -0.06078
v -1.04468 1.25000 -0.06078
v -1.04468 0.25000 0.06078
v -1.04468 1.25000 0.06078
v -1.00311 0.25000 0.17500
v -1.00311 1.25000 0.17500
v -0.92498 0.25000 0.26812
v -0.92498 1.25000 0.26812
v -0.81971 0.25000 0.32889
v -0.81971 1.25000 0.32889
v -0.70000 0.25000 0.35000
v -0.70000 1.25000 0.35000
v -0.58029 0.25000 0.32889
v -0.58029 1.25000 0.32889
v -0.47502 0.25000 0.26812
v -0.47502 1.25000 0.26812
v -0.39689 0.25000 0.17500
v -0.39689 1.25000 0.17500
v -0.35532 0.25000 0.06078
v -0.35532 1.25000 0.06078
v -0.35532 0.25000 -0.06078
v -0.35532 1.25000 -0.06078
v -0.39689 0.25000 -0.17500
v -0.39689 1.25000 -0.17500
v -0.47502 0.25000 -0.26812
v -0.47502 1.25000 -0.26812
v -0.58029 0.25000 -0.32889
v -0.58029 1.25000 -0.32889
v -0.70000 0.45000 -0.37000
v -0.70000 1.05000 -0.37000
v -0.82655 0.45000 -0.34769
v -0.82655 1.05000 -0.34769
v -0.93783 0.45000 -0.28344
v -0.93783 1.05000 -0.28344
v -1.02043 0.45000 -0.18500
v -1.02043 1.05000 -0.18500
v -1.06438 0.45000 -0.06425
v -1.06438 1.05000 -0.06425
v -1.06438 0.45000 0.06425
v -1.06438 1.05000 0.06425
v -1.02043 0.45000 0.18500
v -1.02043 1.05000 0.18500
v -0.93783 0.45000 0.28344
v -0.93783 1.05000 0.28344
v -0.82655 0.45000 0.34769
v -0.82655 1.05000 0.34769
v -0.70000 0.45000 0.37000
v -0.70000 1.05000 0.37000
v -0.57345 0.45000 0.34769
v -0.57345 1.05000 0.34769
v -0.46217 0.45000 0.28344
v -0.46217 1.05000 0.28344
v -0.37957 0.45000 0.18500
v -0.37957 1.05000 0.18500
v -0.33562 0.45000 0.06425
v -0.33562 1.05000 0.06425
v -0.33562 0.45000 -0.06425
v -0.33562 1.05000 -0.06425
v -0.37957 0.45000 -0.18500
v -0.37957 1.05000 -0.18500
v -0.46217 0.45000 -0.28344
v -0.46217 1.05000 -0.28344
v -0.57345 0.45000 -0.34769
v -0.57345 1.05000 -0.34769
v 0.00000 0.25000 -0.35000
v 0.00000 1.25000 -0.35000
v -0.11971 0.25000 -0.32889
v -0.11971 1.25000 -0.32889
v -0.22498 0.25000 -0.26812
v -0.22498 1.25000 -0.26812
v -0.30311 0.25000 -0.17500
v -0.30311 1.25000 -0.17500
v -0.34468 0.25000 -0.06078
v -0.34468 1.25000 -0.06078
v -0.34468 0.25000 0.06078
v -0.34468 1.25000 0.06078
v -0.30311 0.25000 0.17500
v -0.30311 1.25000 0.17500
v -0.22498 0.25000 0.26812
v -0.22498 1.25000 0.26812
v -0.11971 0.25000 0.32889
v -0.11971 1.25000 0.32889
v -0.00000 0.25000 0.35000
v -0.00000 1.25000 0.35000
v 0.11971 0.25000 0.32889
v 0.11971 1.25000 0.32889
v 0.22498 0.25000 0.26812
v 0.22498 1.25000 0.26812
v 0.30311 0.25000 0.17500
v 0.30311 1.25000 0.17500
v 0.34468 0.25000 0.06078
v 0.34468 1.25000 0.06078
v 0.34468 0.25000 -0.06078
v 0.34468 1.25000 -0.06078
v 0.30311 0.25000 -0.17500
v 0.30311 1.25000 -0.17500
v 0.22498 0.25000 -0.26812
v 0.22498 1.25000 -0.26812
v 0.11971 0.25000 -0.32889
v 0.11971 1.25000 -0.32889
v 0.00000 0.45000 -0.37000
v 0.00000 1.05000 -0.37000
v -0.12655 0.45000 -0.34769
v -0.12655 1.05000 -0.34769
v -0.23783 0.45000 -0.28344
v -0.23783 1.05000 -0.28344
v -0.32043 0.45000 -0.18500
v -0.32043 1.05000 -0.18500
v -0.36438 0.45000 -0.06425
v -0.36438 1.05000 -0.06425
v -0.36438 0.45000 0.06425
v -0.36438 1.05000 0.06425
v -0.32043 0.45000 0.18500
v -0.32043 1.05000 0.18500
v -0.23783 0.45000 0.28344
v -0.23783 1.05000 0.28344
v -0.12655 0.45000 0.34769
v -0.12655 1.05000 0.34769
v -0.00000 0.45000 0.37000
v -0.00000 1.05000 0.37000
v 0.12655 0.45000 0.34769
v 0.12655 1.05000 0.34769
v 0.23783 0.45000 0.28344
v 0.23783 1.05000 0.28344
v 0.32043 0.45000 0.18500
v 0.32043 1.05000 0.18500
v 0.36438 0.45000 0.06425
v 0.36438 1.05000 0.06425
v 0.36438 0.45000 -0.06425
v 0.36438 1.05000 -0.06425
v 0.32043 0.45000 -0.18500
v 0.32043 1.05000 -0.18500
v 0.23783 0.45000 -0.28344
v 0.23783 1.05000 -0.28344
v 0.12655 0.45000 -0.34769
v 0.12655 1.05000 -0.34769
v 0.70000 0.25000 -0.35000
v 0.70000 1.25000 -0.35000
v 0.58029 0.25000 -0.32889
v 0.58029 1.25000 -0.32889
v 0.47502 0.25000 -0.26812
v 0.47502 1.25000 -0.26812
v 0.39689 0.25000 -0.17500
v 0.39689 1.25000 -0.17500
v 0.35532 0.25000 -0.06078
v 0.35532 1.25000 -0.06078
v 0.35532 0.25000 0.06078
v 0.35532 1.25000 0.06078
v 0.39689 0.25000 0.17500
v 0.39689 1.25000 0.17500
v 0.47502 0.25000 0.26812
v 0.47502 1.25000 0.26812
v 0.58029 0.25000 0.32889
v 0.58029 1.25000 0.32889
v 0.70000 0.25000 0.35000
v 0.70000 1.25000 0.35000
v 0.81971 0.25000 0.32889
v 0.81971 1.25000 0.32889
v 0.92498 0.25000 0.26812
v 0.92498 1.25000 0.26812
v 1.00311 0.25000 0.17500
v 1.00311 1.25000 0.17500
v 1.04468 0.25000 0.06078
v 1.04468 1.25000 0.06078
v 1.04468 0.25000 -0.06078
v 1.04468 1.25000 -0.06078
v 1.00311 0.25000 -0.17500
v 1.00311 1.25000 -0.17500
v 0.92498 0.25000 -0.26812
v 0.92498 1.25000 -0.26812
v 0.81971 0.25000 -0.32889
v 0.81971 1.25000 -0.32889
v 0.70000 0.45000 -0.37000
v 0.70000 1.05000 -0.37000
v 0.57345 0.45000 -0.34769
v 0.57345 1.05000 -0.34769
v 0.46217 0.45000 -0.28344
v 0.46217 1.05000 -0.28344
v 0.37957 0.45000 -0.18500
v 0.37957 1.05000 -0.18500
v 0.33562 0.45000 -0.06425
v 0.33562 1.05000 -0.06425
v 0.33562 0.45000 0.06425
v 0.33562 1.05000 0.06425
v 0.37957 0.45000 0.18500
v 0.37957 1.05000 0.18500
v 0.46217 0.45000 0.28344
v 0.46217 1.05000 0.28344
v 0.57345 0.45000 0.34769
v 0.57345 1.05000 0.34769
v 0.70000 0.45000 0.37000
v 0.70000 1.05000 0.37000
v 0.82655 0.45000 0.34769
v 0.82655 1.05000 0.34769
v 0.93783 0.45000 0.28344
v 0.93783 1.05000 0.28344
v 1.02043 0.45000 0.18500
v 1.02043 1.05000 0.18500
v 1.06438 0.45000 0.06425
v 1.06438 1.05000 0.06425
v 1.06438 0.45000 -0.06425
v 1.06438 1.05000 -0.06425
v 1.02043 0.45000 -0.18500
v 1.02043 1.05000 -0.18500
v 0.93783 0.45000 -0.28344
v 0.93783 1.05000 -0.28344
v 0.82655 0.45000 -0.34769
v 0.82655 1.05000 -0.34769
v -1.20000 1.35000 -0.45000
v 1.20000 1.35000 -0.45000
v 1.20000 1.55000 -0.45000
v -1.20000 1.55000 -0.45000
v -1.20000 1.35000 0.45000
v 1.20000 1.35000 0.45000
v 1.20000 1.55000 0.45000
v -1.20000 1.55000 0.45000
g barrel_0
usemtl Mat_WoodWeathered
f 1 3 4 2
f 3 5 6 4
f 5 7 8 6
f 7 9 10 8
f 9 11 12 10
f 11 13 14 12
f 13 15 16 14
f 15 17 18 16
f 17 19 20 18
f 19 21 22 20
f 21 23 24 22
f 23 25 26 24
f 25 27 28 26
f 27 29 30 28
f 29 31 32 30
f 31 33 34 32
f 33 35 36 34
f 35 1 2 36
g barrel_0_capA
f 35 33 31 29 27 25 23 21 19 17 15 13 11 9 7 5 3 1
g barrel_0_capB
f 2 4 6 8 10 12 14 16 18 20 22 24 26 28 30 32 34 36
g barrel_bands_0
usemtl Mat_MetalDark
f 37 39 40 38
f 39 41 42 40
f 41 43 44 42
f 43 45 46 44
f 45 47 48 46
f 47 49 50 48
f 49 51 52 50
f 51 53 54 52
f 53 55 56 54
f 55 57 58 56
f 57 59 60 58
f 59 61 62 60
f 61 63 64 62
f 63 65 66 64
f 65 67 68 66
f 67 69 70 68
f 69 71 72 70
f 71 37 38 72
g barrel_bands_0_capA
f 71 69 67 65 63 61 59 57 55 53 51 49 47 45 43 41 39 37
g barrel_bands_0_capB
f 38 40 42 44 46 48 50 52 54 56 58 60 62 64 66 68 70 72
g barrel_1
usemtl Mat_WoodWeathered
f 73 75 76 74
f 75 77 78 76
f 77 79 80 78
f 79 81 82 80
f 81 83 84 82
f 83 85 86 84
f 85 87 88 86
f 87 89 90 88
f 89 91 92 90
f 91 93 94 92
f 93 95 96 94
f 95 97 98 96
f 97 99 100 98
f 99 101 102 100
f 101 103 104 102
f 103 105 106 104
f 105 107 108 106
f 107 73 74 108
g barrel_1_capA
f 107 105 103 101 99 97 95 93 91 89 87 85 83 81 79 77 75 73
g barrel_1_capB
f 74 76 78 80 82 84 86 88 90 92 94 96 98 100 102 104 106 108
g barrel_bands_1
usemtl Mat_MetalDark
f 109 111 112 110
f 111 113 114 112
f 113 115 116 114
f 115 117 118 116
f 117 119 120 118
f 119 121 122 120
f 121 123 124 122
f 123 125 126 124
f 125 127 128 126
f 127 129 130 128
f 129 131 132 130
f 131 133 134 132
f 133 135 136 134
f 135 137 138 136
f 137 139 140 138
f 139 141 142 140
f 141 143 144 142
f 143 109 110 144
g barrel_bands_1_capA
f 143 141 139 137 135 133 131 129 127 125 123 121 119 117 115 113 111 109
g barrel_bands_1_capB
f 110 112 114 116 118 120 122 124 126 128 130 132 134 136 138 140 142 144
g barrel_2
usemtl Mat_WoodWeathered
f 145 147 148 146
f 147 149 150 148
f 149 151 152 150
f 151 153 154 152
f 153 155 156 154
f 155 157 158 156
f 157 159 160 158
f 159 161 162 160
f 161 163 164 162
f 163 165 166 164
f 165 167 168 166
f 167 169 170 168
f 169 171 172 170
f 171 173 174 172
f 173 175 176 174
f 175 177 178 176
f 177 179 180 178
f 179 145 146 180
g barrel_2_capA
f 179 177 175 173 171 169 167 165 163 161 159 157 155 153 151 149 147 145
g barrel_2_capB
f 146 148 150 152 154 156 158 160 162 164 166 168 170 172 174 176 178 180
g barrel_bands_2
usemtl Mat_MetalDark
f 181 183 184 182
f 183 185 186 184
f 185 187 188 186
f 187 189 190 188
f 189 191 192 190
f 191 193 194 192
f 193 195 196 194
f 195 197 198 196
f 197 199 200 198
f 199 201 202 200
f 201 203 204 202
f 203 205 206 204
f 205 207 208 206
f 207 209 210 208
f 209 211 212 210
f 211 213 214 212
f 213 215 216 214
f 215 181 182 216
g barrel_bands_2_capA
f 215 213 211 209 207 205 203 201 199 197 195 193 191 189 187 185 183 181
g barrel_bands_2_capB
f 182 184 186 188 190 192 194 196 198 200 202 204 206 208 210 212 214 216
g barrel_stand_top
usemtl Mat_WoodDark
f 217 218 219 220
f 221 224 223 222
f 217 221 222 218
f 218 222 223 219
f 219 223 224 220
f 220 224 221 217
