# GalakasMidCity_VENDOR_ButcherFishTable_01
mtllib GalakasMidCity_VENDOR_ButcherFishTable_01.mtl
v -1.25000 0.56000 -0.57500
v 1.25000 0.56000 -0.57500
v 1.25000 0.84000 -0.57500
v -1.25000 0.84000 -0.57500
v -1.25000 0.56000 0.57500
v 1.25000 0.56000 0.57500
v 1.25000 0.84000 0.57500
v -1.25000 0.84000 0.57500
v -0.90000 0.95000 0.12000
v -0.75000 0.95000 0.12000
v -0.90000 0.89000 0.10392
v -0.75000 0.89000 0.10392
v -0.90000 0.84608 0.06000
v -0.75000 0.84608 0.06000
v -0.90000 0.83000 0.00000
v -0.75000 0.83000 0.00000
v -0.90000 0.84608 -0.06000
v -0.75000 0.84608 -0.06000
v -0.90000 0.89000 -0.10392
v -0.75000 0.89000 -0.10392
v -0.90000 0.95000 -0.12000
v -0.75000 0.95000 -0.12000
v -0.90000 1.01000 -0.10392
v -0.75000 1.01000 -0.10392
v -0.90000 1.05392 -0.06000
v -0.75000 1.05392 -0.06000
v -0.90000 1.07000 -0.00000
v -0.75000 1.07000 -0.00000
v -0.90000 1.05392 0.06000
v -0.75000 1.05392 0.06000
v -0.90000 1.01000 0.10392
v -0.75000 1.01000 0.10392
v -0.55000 0.95000 0.12000
v -0.40000 0.95000 0.12000
v -0.55000 0.89000 0.10392
v -0.40000 0.89000 0.10392
v -0.55000 0.84608 0.06000
v -0.40000 0.84608 0.06000
v -0.55000 0.83000 0.00000
v -0.40000 0.83000 0.00000
v -0.55000 0.84608 -0.06000
v -0.40000 0.84608 -0.06000
v -0.55000 0.89000 -0.10392
v -0.40000 0.89000 -0.10392
v -0.55000 0.95000 -0.12000
v -0.40000 0.95000 -0.12000
v -0.55000 1.01000 -0.10392
v -0.40000 1.01000 -0.10392
v -0.55000 1.05392 -0.06000
v -0.40000 1.05392 -0.06000
v -0.55000 1.07000 -0.00000
v -0.40000 1.07000 -0.00000
v -0.55000 1.05392 0.06000
v -0.40000 1.05392 0.06000
v -0.55000 1.01000 0.10392
v -0.40000 1.01000 0.10392
v -0.20000 0.95000 0.12000
v -0.05000 0.95000 0.12000
v -0.20000 0.89000 0.10392
v -0.05000 0.89000 0.10392
v -0.20000 0.84608 0.06000
v -0.05000 0.84608 0.06000
v -0.20000 0.83000 0.00000
v -0.05000 0.83000 0.00000
v -0.20000 0.84608 -0.06000
v -0.05000 0.84608 -0.06000
v -0.20000 0.89000 -0.10392
v -0.05000 0.89000 -0.10392
v -0.20000 0.95000 -0.12000
v -0.05000 0.95000 -0.12000
v -0.20000 1.01000 -0.10392
v -0.05000 1.01000 -0.10392
v -0.20000 1.05392 -0.06000
v -0.05000 1.05392 -0.06000
v -0.20000 1.07000 -0.00000
v -0.05000 1.07000 -0.00000
v -0.20000 1.05392 0.06000
v -0.05000 1.05392 0.06000
v -0.20000 1.01000 0.10392
v -0.05000 1.01000 0.10392
v 0.15000 0.95000 0.12000
v 0.30000 0.95000 0.12000
v 0.15000 0.89000 0.10392
v 0.30000 0.89000 0.10392
v 0.15000 0.84608 0.06000
v 0.30000 0.84608 0.06000
v 0.15000 0.83000 0.00000
v 0.30000 0.83000 0.00000
v 0.15000 0.84608 -0.06000
v 0.30000 0.84608 -0.06000
v 0.15000 0.89000 -0.10392
v 0.30000 0.89000 -0.10392
v 0.15000 0.95000 -0.12000
v 0.30000 0.95000 -0.12000
v 0.15000 1.01000 -0.10392
v 0.30000 1.01000 -0.10392
v 0.15000 1.05392 -0.06000
v 0.30000 1.05392 -0.06000
v 0.15000 1.07000 -0.00000
v 0.30000 1.07000 -0.00000
v 0.15000 1.05392 0.06000
v 0.30000 1.05392 0.06000
v 0.15000 1.01000 0.10392
v 0.30000 1.01000 0.10392
v 0.50000 0.95000 0.12000
v 0.65000 0.95000 0.12000
v 0.50000 0.89000 0.10392
v 0.65000 0.89000 0.10392
v 0.50000 0.84608 0.06000
v 0.65000 0.84608 0.06000
v 0.50000 0.83000 0.00000
v 0.65000 0.83000 0.00000
v 0.50000 0.84608 -0.06000
v 0.65000 0.84608 -0.06000
v 0.50000 0.89000 -0.10392
v 0.65000 0.89000 -0.10392
v 0.50000 0.95000 -0.12000
v 0.65000 0.95000 -0.12000
v 0.50000 1.01000 -0.10392
v 0.65000 1.01000 -0.10392
v 0.50000 1.05392 -0.06000
v 0.65000 1.05392 -0.06000
v 0.50000 1.07000 -0.00000
v 0.65000 1.07000 -0.00000
v 0.50000 1.05392 0.06000
v 0.65000 1.05392 0.06000
v 0.50000 1.01000 0.10392
v 0.65000 1.01000 0.10392
v 0.85000 0.95000 0.12000
v 1.00000 0.95000 0.12000
v 0.85000 0.89000 0.10392
v 1.00000 0.89000 0.10392
v 0.85000 0.84608 0.06000
v 1.00000 0.84608 0.06000
v 0.85000 0.83000 0.00000
v 1.00000 0.83000 0.00000
v 0.85000 0.84608 -0.06000
v 1.00000 0.84608 -0.06000
v 0.85000 0.89000 -0.10392
v 1.00000 0.89000 -0.10392
v 0.85000 0.95000 -0.12000
v 1.00000 0.95000 -0.12000
v 0.85000 1.01000 -0.10392
v 1.00000 1.01000 -0.10392
v 0.85000 1.05392 -0.06000
v 1.00000 1.05392 -0.06000
v 0.85000 1.07000 -0.00000
v 1.00000 1.07000 -0.00000
v 0.85000 1.05392 0.06000
v 1.00000 1.05392 0.06000
v 0.85000 1.01000 0.10392
v 1.00000 1.01000 0.10392
v -0.85000 0.99500 0.34000
v 0.85000 0.99500 0.34000
v 0.85000 1.04500 0.34000
v -0.85000 1.04500 0.34000
v -0.85000 0.99500 0.56000
v 0.85000 0.99500 0.56000
v 0.85000 1.04500 0.56000
v -0.85000 1.04500 0.56000
g butcher_table
usemtl Mat_WoodDark
f 1 2 3 4
f 5 8 7 6
f 1 5 6 2
f 2 6 7 3
f 3 7 8 4
f 4 8 5 1
g fish_body_0
usemtl Mat_Ceramic
f 9 11 12 10
f 11 13 14 12
f 13 15 16 14
f 15 17 18 16
f 17 19 20 18
f 19 21 22 20
f 21 23 24 22
f 23 25 26 24
f 25 27 28 26
f 27 29 30 28
f 29 31 32 30
f 31 9 10 32
g fish_body_0_capA
f 31 29 27 25 23 21 19 17 15 13 11 9
g fish_body_0_capB
f 10 12 14 16 18 20 22 24 26 28 30 32
g fish_body_1
f 33 35 36 34
f 35 37 38 36
f 37 39 40 38
f 39 41 42 40
f 41 43 44 42
f 43 45 46 44
f 45 47 48 46
f 47 49 50 48
f 49 51 52 50
f 51 53 54 52
f 53 55 56 54
f 55 33 34 56
g fish_body_1_capA
f 55 53 51 49 47 45 43 41 39 37 35 33
g fish_body_1_capB
f 34 36 38 40 42 44 46 48 50 52 54 56
g fish_body_2
f 57 59 60 58
f 59 61 62 60
f 61 63 64 62
f 63 65 66 64
f 65 67 68 66
f 67 69 70 68
f 69 71 72 70
f 71 73 74 72
f 73 75 76 74
f 75 77 78 76
f 77 79 80 78
f 79 57 58 80
g fish_body_2_capA
f 79 77 75 73 71 69 67 65 63 61 59 57
g fish_body_2_capB
f 58 60 62 64 66 68 70 72 74 76 78 80
g fish_body_3
f 81 83 84 82
f 83 85 86 84
f 85 87 88 86
f 87 89 90 88
f 89 91 92 90
f 91 93 94 92
f 93 95 96 94
f 95 97 98 96
f 97 99 100 98
f 99 101 102 100
f 101 103 104 102
f 103 81 82 104
g fish_body_3_capA
f 103 101 99 97 95 93 91 89 87 85 83 81
g fish_body_3_capB
f 82 84 86 88 90 92 94 96 98 100 102 104
g fish_body_4
f 105 107 108 106
f 107 109 110 108
f 109 111 112 110
f 111 113 114 112
f 113 115 116 114
f 115 117 118 116
f 117 119 120 118
f 119 121 122 120
f 121 123 124 122
f 123 125 126 124
f 125 127 128 126
f 127 105 106 128
g fish_body_4_capA
f 127 125 123 121 119 117 115 113 111 109 107 105
g fish_body_4_capB
f 106 108 110 112 114 116 118 120 122 124 126 128
g fish_body_5
f 129 131 132 130
f 131 133 134 132
f 133 135 136 134
f 135 137 138 136
f 137 139 140 138
f 139 141 142 140
f 141 143 144 142
f 143 145 146 144
f 145 147 148 146
f 147 149 150 148
f 149 151 152 150
f 151 129 130 152
g fish_body_5_capA
f 151 149 147 145 143 141 139 137 135 133 131 129
g fish_body_5_capB
f 130 132 134 136 138 140 142 144 146 148 150 152
g knife_bar
usemtl Mat_MetalDark
f 153 154 155 156
f 157 160 159 158
f 153 157 158 154
f 154 158 159 155
f 155 159 160 156
f 156 160 157 153
