# GalakasMidCity_VENDOR_CanvasAwning_LeanTo_01
mtllib GalakasMidCity_VENDOR_CanvasAwning_LeanTo_01.mtl
v -1.40000 0.39000 -0.70000
v 1.40000 0.39000 -0.70000
v 1.40000 0.61000 -0.70000
v -1.40000 0.61000 -0.70000
v -1.40000 0.39000 0.70000
v 1.40000 0.39000 0.70000
v 1.40000 0.61000 0.70000
v -1.40000 0.61000 0.70000
v -1.25000 0.20000 -0.61000
v -1.25000 2.20000 -0.61000
v -1.28527 0.20000 -0.59854
v -1.28527 2.20000 -0.59854
v -1.30706 0.20000 -0.56854
v -1.30706 2.20000 -0.56854
v -1.30706 0.20000 -0.53146
v -1.30706 2.20000 -0.53146
v -1.28527 0.20000 -0.50146
v -1.28527 2.20000 -0.50146
v -1.25000 0.20000 -0.49000
v -1.25000 2.20000 -0.49000
v -1.21473 0.20000 -0.50146
v -1.21473 2.20000 -0.50146
v -1.19294 0.20000 -0.53146
v -1.19294 2.20000 -0.53146
v -1.19294 0.20000 -0.56854
v -1.19294 2.20000 -0.56854
v -1.21473 0.20000 -0.59854
v -1.21473 2.20000 -0.59854
v -1.25000 0.20000 0.49000
v -1.25000 2.20000 0.49000
v -1.28527 0.20000 0.50146
v -1.28527 2.20000 0.50146
v -1.30706 0.20000 0.53146
v -1.30706 2.20000 0.53146
v -1.30706 0.20000 0.56854
v -1.30706 2.20000 0.56854
v -1.28527 0.20000 0.59854
v -1.28527 2.20000 0.59854
v -1.25000 0.20000 0.61000
v -1.25000 2.20000 0.61000
v -1.21473 0.20000 0.59854
v -1.21473 2.20000 0.59854
v -1.19294 0.20000 0.56854
v -1.19294 2.20000 0.56854
v -1.19294 0.20000 0.53146
v -1.19294 2.20000 0.53146
v -1.21473 0.20000 0.50146
v -1.21473 2.20000 0.50146
v 1.25000 0.20000 -0.61000
v 1.25000 2.20000 -0.61000
v 1.21473 0.20000 -0.59854
v 1.21473 2.20000 -0.59854
v 1.19294 0.20000 -0.56854
v 1.19294 2.20000 -0.56854
v 1.19294 0.20000 -0.53146
v 1.19294 2.20000 -0.53146
v 1.21473 0.20000 -0.50146
v 1.21473 2.20000 -0.50146
v 1.25000 0.20000 -0.49000
v 1.25000 2.20000 -0.49000
v 1.28527 0.20000 -0.50146
v 1.28527 2.20000 -0.50146
v 1.30706 0.20000 -0.53146
v 1.30706 2.20000 -0.53146
v 1.30706 0.20000 -0.56854
v 1.30706 2.20000 -0.56854
v 1.28527 0.20000 -0.59854
v 1.28527 2.20000 -0.59854
v 1.25000 0.20000 0.49000
v 1.25000 2.20000 0.49000
v 1.21473 0.20000 0.50146
v 1.21473 2.20000 0.50146
v 1.19294 0.20000 0.53146
v 1.19294 2.20000 0.53146
v 1.19294 0.20000 0.56854
v 1.19294 2.20000 0.56854
v 1.21473 0.20000 0.59854
v 1.21473 2.20000 0.59854
v 1.25000 0.20000 0.61000
v 1.25000 2.20000 0.61000
v 1.28527 0.20000 0.59854
v 1.28527 2.20000 0.59854
v 1.30706 0.20000 0.56854
v 1.30706 2.20000 0.56854
v 1.30706 0.20000 0.53146
v 1.30706 2.20000 0.53146
v 1.28527 0.20000 0.50146
v 1.28527 2.20000 0.50146
v -1.60000 2.14056 -1.03576
v 1.60000 2.14056 -1.03576
v 1.60000 2.24056 -1.03576
v -1.60000 2.24056 -1.03576
v -1.60000 2.45944 0.73576
v 1.60000 2.45944 0.73576
v 1.60000 2.55944 0.73576
v -1.60000 2.55944 0.73576
v -1.22500 0.77500 -0.47500
v -0.77500 0.77500 -0.47500
v -0.77500 1.22500 -0.47500
v -1.22500 1.22500 -0.47500
v -1.22500 0.77500 0.07500
v -0.77500 0.77500 0.07500
v -0.77500 1.22500 0.07500
v -1.22500 1.22500 0.07500
v -0.22500 0.77500 -0.47500
v 0.22500 0.77500 -0.47500
v 0.22500 1.22500 -0.47500
v -0.22500 1.22500 -0.47500
v -0.22500 0.77500 0.07500
v 0.22500 0.77500 0.07500
v 0.22500 1.22500 0.07500
v -0.22500 1.22500 0.07500
v 0.77500 0.77500 -0.47500
v 1.22500 0.77500 -0.47500
v 1.22500 1.22500 -0.47500
v 0.77500 1.22500 -0.47500
v 0.77500 0.77500 0.07500
v 1.22500 0.77500 0.07500
v 1.22500 1.22500 0.07500
v 0.77500 1.22500 0.07500
g stall_counter
usemtl Mat_WoodWeathered
f 1 2 3 4
f 5 8 7 6
f 1 5 6 2
f 2 6 7 3
f 3 7 8 4
f 4 8 5 1
g post_-1_25_-0_55
usemtl Mat_WoodDark
f 9 11 12 10
f 11 13 14 12
f 13 15 16 14
f 15 17 18 16
f 17 19 20 18
f 19 21 22 20
f 21 23 24 22
f 23 25 26 24
f 25 27 28 26
f 27 9 10 28
g post_-1_25_-0_55_capA
f 27 25 23 21 19 17 15 13 11 9
g post_-1_25_-0_55_capB
f 10 12 14 16 18 20 22 24 26 28
g post_-1_25_0_55
f 29 31 32 30
f 31 33 34 32
f 33 35 36 34
f 35 37 38 36
f 37 39 40 38
f 39 41 42 40
f 41 43 44 42
f 43 45 46 44
f 45 47 48 46
f 47 29 30 48
g post_-1_25_0_55_capA
f 47 45 43 41 39 37 35 33 31 29
g post_-1_25_0_55_capB
f 30 32 34 36 38 40 42 44 46 48
g post_1_25_-0_55
f 49 51 52 50
f 51 53 54 52
f 53 55 56 54
f 55 57 58 56
f 57 59 60 58
f 59 61 62 60
f 61 63 64 62
f 63 65 66 64
f 65 67 68 66
f 67 49 50 68
g post_1_25_-0_55_capA
f 67 65 63 61 59 57 55 53 51 49
g post_1_25_-0_55_capB
f 50 52 54 56 58 60 62 64 66 68
g post_1_25_0_55
f 69 71 72 70
f 71 73 74 72
f 73 75 76 74
f 75 77 78 76
f 77 79 80 78
f 79 81 82 80
f 81 83 84 82
f 83 85 86 84
f 85 87 88 86
f 87 69 70 88
g post_1_25_0_55_capA
f 87 85 83 81 79 77 75 73 71 69
g post_1_25_0_55_capB
f 70 72 74 76 78 80 82 84 86 88
g sloped_canvas_front
usemtl Mat_ClothCanvas
f 89 90 91 92
f 93 96 95 94
f 89 93 94 90
f 90 94 95 91
f 91 95 96 92
f 92 96 93 89
g crate_0
usemtl Mat_WoodWeathered
f 97 98 99 100
f 101 104 103 102
f 97 101 102 98
f 98 102 103 99
f 99 103 104 100
f 100 104 101 97
g crate_1
f 105 106 107 108
f 109 112 111 110
f 105 109 110 106
f 106 110 111 107
f 107 111 112 108
f 108 112 109 105
g crate_2
f 113 114 115 116
f 117 120 119 118
f 113 117 118 114
f 114 118 119 115
f 115 119 120 116
f 116 120 117 113
