# GalakasMidCity_VENDOR_BookPaperStand_01
mtllib GalakasMidCity_VENDOR_BookPaperStand_01.mtl
v -1.20000 0.52500 -0.60000
v 1.20000 0.52500 -0.60000
v 1.20000 0.77500 -0.60000
v -1.20000 0.77500 -0.60000
v -1.20000 0.52500 0.60000
v 1.20000 0.52500 0.60000
v 1.20000 0.77500 0.60000
v -1.20000 0.77500 0.60000
v -1.22500 0.85500 -0.54000
v -0.77500 0.85500 -0.54000
v -0.77500 0.90500 -0.54000
v -1.22500 0.90500 -0.54000
v -1.22500 0.85500 -0.26000
v -0.77500 0.85500 -0.26000
v -0.77500 0.90500 -0.26000
v -1.22500 0.90500 -0.26000
v -0.57500 0.85500 -0.54000
v -0.12500 0.85500 -0.54000
v -0.12500 0.90500 -0.54000
v -0.57500 0.90500 -0.54000
v -0.57500 0.85500 -0.26000
v -0.12500 0.85500 -0.26000
v -0.12500 0.90500 -0.26000
v -0.57500 0.90500 -0.26000
v 0.07500 0.85500 -0.54000
v 0.52500 0.85500 -0.54000
v 0.52500 0.90500 -0.54000
v 0.07500 0.90500 -0.54000
v 0.07500 0.85500 -0.26000
v 0.52500 0.85500 -0.26000
v 0.52500 0.90500 -0.26000
v 0.07500 0.90500 -0.26000
v 0.72500 0.85500 -0.54000
v 1.17500 0.85500 -0.54000
v 1.17500 0.90500 -0.54000
v 0.72500 0.90500 -0.54000
v 0.72500 0.85500 -0.26000
v 1.17500 0.85500 -0.26000
v 1.17500 0.90500 -0.26000
v 0.72500 0.90500 -0.26000
v -1.22500 0.85500 -0.19000
v -0.77500 0.85500 -0.19000
v -0.77500 0.90500 -0.19000
v -1.22500 0.90500 -0.19000
v -1.22500 0.85500 0.09000
v -0.77500 0.85500 0.09000
v -0.77500 0.90500 0.09000
v -1.22500 0.90500 0.09000
v -0.57500 0.85500 -0.19000
v -0.12500 0.85500 -0.19000
v -0.12500 0.90500 -0.19000
v -0.57500 0.90500 -0.19000
v -0.57500 0.85500 0.09000
v -0.12500 0.85500 0.09000
v -0.12500 0.90500 0.09000
v -0.57500 0.90500 0.09000
v 0.07500 0.85500 -0.19000
v 0.52500 0.85500 -0.19000
v 0.52500 0.90500 -0.19000
v 0.07500 0.90500 -0.19000
v 0.07500 0.85500 0.09000
v 0.52500 0.85500 0.09000
v 0.52500 0.90500 0.09000
v 0.07500 0.90500 0.09000
v 0.72500 0.85500 -0.19000
v 1.17500 0.85500 -0.19000
v 1.17500 0.90500 -0.19000
v 0.72500 0.90500 -0.19000
v 0.72500 0.85500 0.09000
v 1.17500 0.85500 0.09000
v 1.17500 0.90500 0.09000
v 0.72500 0.90500 0.09000
v -1.22500 0.85500 0.16000
v -0.77500 0.85500 0.16000
v -0.77500 0.90500 0.16000
v -1.22500 0.90500 0.16000
v -1.22500 0.85500 0.44000
v -0.77500 0.85500 0.44000
v -0.77500 0.90500 0.44000
v -1.22500 0.90500 0.44000
v -0.57500 0.85500 0.16000
v -0.12500 0.85500 0.16000
v -0.12500 0.90500 0.16000
v -0.57500 0.90500 0.16000
v -0.57500 0.85500 0.44000
v -0.12500 0.85500 0.44000
v -0.12500 0.90500 0.44000
v -0.57500 0.90500 0.44000
v 0.07500 0.85500 0.16000
v 0.52500 0.85500 0.16000
v 0.52500 0.90500 0.16000
v 0.07500 0.90500 0.16000
v 0.07500 0.85500 0.44000
v 0.52500 0.85500 0.44000
v 0.52500 0.90500 0.44000
v 0.07500 0.90500 0.44000
v 0.72500 0.85500 0.16000
v 1.17500 0.85500 0.16000
v 1.17500 0.90500 0.16000
v 0.72500 0.90500 0.16000
v 0.72500 0.85500 0.44000
v 1.17500 0.85500 0.44000
v 1.17500 0.90500 0.44000
v 0.72500 0.90500 0.44000
g book_table
usemtl Mat_WoodWeathered
f 1 2 3 4
f 5 8 7 6
f 1 5 6 2
f 2 6 7 3
f 3 7 8 4
f 4 8 5 1
g paper_stack_0
usemtl Mat_Paper
f 9 10 11 12
f 13 16 15 14
f 9 13 14 10
f 10 14 15 11
f 11 15 16 12
f 12 16 13 9
g paper_stack_1
f 17 18 19 20
f 21 24 23 22
f 17 21 22 18
f 18 22 23 19
f 19 23 24 20
f 20 24 21 17
g paper_stack_2
f 25 26 27 28
f 29 32 31 30
f 25 29 30 26
f 26 30 31 27
f 27 31 32 28
f 28 32 29 25
g paper_stack_3
f 33 34 35 36
f 37 40 39 38
f 33 37 38 34
f 34 38 39 35
f 35 39 40 36
f 36 40 37 33
g paper_stack_4
f 41 42 43 44
f 45 48 47 46
f 41 45 46 42
f 42 46 47 43
f 43 47 48 44
f 44 48 45 41
g paper_stack_5
f 49 50 51 52
f 53 56 55 54
f 49 53 54 50
f 50 54 55 51
f 51 55 56 52
f 52 56 53 49
g paper_stack_6
f 57 58 59 60
f 61 64 63 62
f 57 61 62 58
f 58 62 63 59
f 59 63 64 60
f 60 64 61 57
g paper_stack_7
f 65 66 67 68
f 69 72 71 70
f 65 69 70 66
f 66 70 71 67
f 67 71 72 68
f 68 72 69 65
g paper_stack_8
f 73 74 75 76
f 77 80 79 78
f 73 77 78 74
f 74 78 79 75
f 75 79 80 76
f 76 80 77 73
g paper_stack_9
f 81 82 83 84
f 85 88 87 86
f 81 85 86 82
f 82 86 87 83
f 83 87 88 84
f 84 88 85 81
g paper_stack_10
f 89 90 91 92
f 93 96 95 94
f 89 93 94 90
f 90 94 95 91
f 91 95 96 92
f 92 96 93 89
g paper_stack_11
f 97 98 99 100
f 101 104 103 102
f 97 101 102 98
f 98 102 103 99
f 99 103 104 100
f 100 104 101 97
