# GalakasMidCity_VENDOR_FoodCart_HandPulled_01
mtllib GalakasMidCity_VENDOR_FoodCart_HandPulled_01.mtl
v -1.10000 0.37500 -0.60000
v 1.10000 0.37500 -0.60000
v 1.10000 0.92500 -0.60000
v -1.10000 0.92500 -0.60000
v -1.10000 0.37500 0.60000
v 1.10000 0.37500 0.60000
v 1.10000 0.92500 0.60000
v -1.10000 0.92500 0.60000
v -1.17500 0.94000 -0.67500
v 1.17500 0.94000 -0.67500
v 1.17500 1.06000 -0.67500
v -1.17500 1.06000 -0.67500
v -1.17500 0.94000 0.67500
v 1.17500 0.94000 0.67500
v 1.17500 1.06000 0.67500
v -1.17500 1.06000 0.67500
v -1.28000 0.35000 -0.72000
v -1.28000 0.35000 -0.62000
v -1.26311 0.25423 -0.72000
v -1.26311 0.25423 -0.62000
v -1.21449 0.17002 -0.72000
v -1.21449 0.17002 -0.62000
v -1.14000 0.10751 -0.72000
v -1.14000 0.10751 -0.62000
v -1.04862 0.07425 -0.72000
v -1.04862 0.07425 -0.62000
v -0.95138 0.07425 -0.72000
v -0.95138 0.07425 -0.62000
v -0.86000 0.10751 -0.72000
v -0.86000 0.10751 -0.62000
v -0.78551 0.17002 -0.72000
v -0.78551 0.17002 -0.62000
v -0.73689 0.25423 -0.72000
v -0.73689 0.25423 -0.62000
v -0.72000 0.35000 -0.72000
v -0.72000 0.35000 -0.62000
v -0.73689 0.44577 -0.72000
v -0.73689 0.44577 -0.62000
v -0.78551 0.52998 -0.72000
v -0.78551 0.52998 -0.62000
v -0.86000 0.59249 -0.72000
v -0.86000 0.59249 -0.62000
v -0.95138 0.62575 -0.72000
v -0.95138 0.62575 -0.62000
v -1.04862 0.62575 -0.72000
v -1.04862 0.62575 -0.62000
v -1.14000 0.59249 -0.72000
v -1.14000 0.59249 -0.62000
v -1.21449 0.52998 -0.72000
v -1.21449 0.52998 -0.62000
v -1.26311 0.44577 -0.72000
v -1.26311 0.44577 -0.62000
v -1.28000 0.35000 0.72000
v -1.28000 0.35000 0.82000
v -1.26311 0.25423 0.72000
v -1.26311 0.25423 0.82000
v -1.21449 0.17002 0.72000
v -1.21449 0.17002 0.82000
v -1.14000 0.10751 0.72000
v -1.14000 0.10751 0.82000
v -1.04862 0.07425 0.72000
v -1.04862 0.07425 0.82000
v -0.95138 0.07425 0.72000
v -0.95138 0.07425 0.82000
v -0.86000 0.10751 0.72000
v -0.86000 0.10751 0.82000
v -0.78551 0.17002 0.72000
v -0.78551 0.17002 0.82000
v -0.73689 0.25423 0.72000
v -0.73689 0.25423 0.82000
v -0.72000 0.35000 0.72000
v -0.72000 0.35000 0.82000
v -0.73689 0.44577 0.72000
v -0.73689 0.44577 0.82000
v -0.78551 0.52998 0.72000
v -0.78551 0.52998 0.82000
v -0.86000 0.59249 0.72000
v -0.86000 0.59249 0.82000
v -0.95138 0.62575 0.72000
v -0.95138 0.62575 0.82000
v -1.04862 0.62575 0.72000
v -1.04862 0.62575 0.82000
v -1.14000 0.59249 0.72000
v -1.14000 0.59249 0.82000
v -1.21449 0.52998 0.72000
v -1.21449 0.52998 0.82000
v -1.26311 0.44577 0.72000
v -1.26311 0.44577 0.82000
v 0.72000 0.35000 -0.72000
v 0.72000 0.35000 -0.62000
v 0.73689 0.25423 -0.72000
v 0.73689 0.25423 -0.62000
v 0.78551 0.17002 -0.72000
v 0.78551 0.17002 -0.62000
v 0.86000 0.10751 -0.72000
v 0.86000 0.10751 -0.62000
v 0.95138 0.07425 -0.72000
v 0.95138 0.07425 -0.62000
v 1.04862 0.07425 -0.72000
v 1.04862 0.07425 -0.62000
v 1.14000 0.10751 -0.72000
v 1.14000 0.10751 -0.62000
v 1.21449 0.17002 -0.72000
v 1.21449 0.17002 -0.62000
v 1.26311 0.25423 -0.72000
v 1.26311 0.25423 -0.62000
v 1.28000 0.35000 -0.72000
v 1.28000 0.35000 -0.62000
v 1.26311 0.44577 -0.72000
v 1.26311 0.44577 -0.62000
v 1.21449 0.52998 -0.72000
v 1.21449 0.52998 -0.62000
v 1.14000 0.59249 -0.72000
v 1.14000 0.59249 -0.62000
v 1.04862 0.62575 -0.72000
v 1.04862 0.62575 -0.62000
v 0.95138 0.62575 -0.72000
v 0.95138 0.62575 -0.62000
v 0.86000 0.59249 -0.72000
v 0.86000 0.59249 -0.62000
v 0.78551 0.52998 -0.72000
v 0.78551 0.52998 -0.62000
v 0.73689 0.44577 -0.72000
v 0.73689 0.44577 -0.62000
v 0.72000 0.35000 0.72000
v 0.72000 0.35000 0.82000
v 0.73689 0.25423 0.72000
v 0.73689 0.25423 0.82000
v 0.78551 0.17002 0.72000
v 0.78551 0.17002 0.82000
v 0.86000 0.10751 0.72000
v 0.86000 0.10751 0.82000
v 0.95138 0.07425 0.72000
v 0.95138 0.07425 0.82000
v 1.04862 0.07425 0.72000
v 1.04862 0.07425 0.82000
v 1.14000 0.10751 0.72000
v 1.14000 0.10751 0.82000
v 1.21449 0.17002 0.72000
v 1.21449 0.17002 0.82000
v 1.26311 0.25423 0.72000
v 1.26311 0.25423 0.82000
v 1.28000 0.35000 0.72000
v 1.28000 0.35000 0.82000
v 1.26311 0.44577 0.72000
v 1.26311 0.44577 0.82000
v 1.21449 0.52998 0.72000
v 1.21449 0.52998 0.82000
v 1.14000 0.59249 0.72000
v 1.14000 0.59249 0.82000
v 1.04862 0.62575 0.72000
v 1.04862 0.62575 0.82000
v 0.95138 0.62575 0.72000
v 0.95138 0.62575 0.82000
v 0.86000 0.59249 0.72000
v 0.86000 0.59249 0.82000
v 0.78551 0.52998 0.72000
v 0.78551 0.52998 0.82000
v 0.73689 0.44577 0.72000
v 0.73689 0.44577 0.82000
v 1.03000 0.45000 -0.70000
v 1.03000 0.45000 0.70000
v 1.03938 0.41500 -0.70000
v 1.03938 0.41500 0.70000
v 1.06500 0.38938 -0.70000
v 1.06500 0.38938 0.70000
v 1.10000 0.38000 -0.70000
v 1.10000 0.38000 0.70000
v 1.13500 0.38938 -0.70000
v 1.13500 0.38938 0.70000
v 1.16062 0.41500 -0.70000
v 1.16062 0.41500 0.70000
v 1.17000 0.45000 -0.70000
v 1.17000 0.45000 0.70000
v 1.16062 0.48500 -0.70000
v 1.16062 0.48500 0.70000
v 1.13500 0.51062 -0.70000
v 1.13500 0.51062 0.70000
v 1.10000 0.52000 -0.70000
v 1.10000 0.52000 0.70000
v 1.06500 0.51062 -0.70000
v 1.06500 0.51062 0.70000
v 1.03938 0.48500 -0.70000
v 1.03938 0.48500 0.70000
v -1.17000 0.45000 -0.70000
v -1.17000 0.45000 0.70000
v -1.16062 0.41500 -0.70000
v -1.16062 0.41500 0.70000
v -1.13500 0.38938 -0.70000
v -1.13500 0.38938 0.70000
v -1.10000 0.38000 -0.70000
v -1.10000 0.38000 0.70000
v -1.06500 0.38938 -0.70000
v -1.06500 0.38938 0.70000
v -1.03938 0.41500 -0.70000
v -1.03938 0.41500 0.70000
v -1.03000 0.45000 -0.70000
v -1.03000 0.45000 0.70000
v -1.03938 0.48500 -0.70000
v -1.03938 0.48500 0.70000
v -1.06500 0.51062 -0.70000
v -1.06500 0.51062 0.70000
v -1.10000 0.52000 -0.70000
v -1.10000 0.52000 0.70000
v -1.13500 0.51062 -0.70000
v -1.13500 0.51062 0.70000
v -1.16062 0.48500 -0.70000
v -1.16062 0.48500 0.70000
v -0.70000 1.38000 -0.25000
v -0.70000 1.38000 -0.25000
v -0.70000 1.38000 -0.25000
v -0.70000 1.38000 -0.25000
v -0.70000 1.38000 -0.25000
v -0.70000 1.38000 -0.25000
v -0.70000 1.38000 -0.25000
v -0.70000 1.38000 -0.25000
v -0.70000 1.38000 -0.25000
v -0.70000 1.38000 -0.25000
v -0.62359 1.35517 -0.25000
v -0.63818 1.35517 -0.20509
v -0.67639 1.35517 -0.17733
v -0.72361 1.35517 -0.17733
v -0.76182 1.35517 -0.20509
v -0.77641 1.35517 -0.25000
v -0.76182 1.35517 -0.29491
v -0.72361 1.35517 -0.32267
v -0.67639 1.35517 -0.32267
v -0.63818 1.35517 -0.29491
v -0.57636 1.29017 -0.25000
v -0.59998 1.29017 -0.17733
v -0.66179 1.29017 -0.13241
v -0.73821 1.29017 -0.13241
v -0.80002 1.29017 -0.17733
v -0.82364 1.29017 -0.25000
v -0.80002 1.29017 -0.32267
v -0.73821 1.29017 -0.36759
v -0.66179 1.29017 -0.36759
v -0.59998 1.29017 -0.32267
v -0.57636 1.20983 -0.25000
v -0.59998 1.20983 -0.17733
v -0.66179 1.20983 -0.13241
v -0.73821 1.20983 -0.13241
v -0.80002 1.20983 -0.17733
v -0.82364 1.20983 -0.25000
v -0.80002 1.20983 -0.32267
v -0.73821 1.20983 -0.36759
v -0.66179 1.20983 -0.36759
v -0.59998 1.20983 -0.32267
v -0.62359 1.14483 -0.25000
v -0.63818 1.14483 -0.20509
v -0.67639 1.14483 -0.17733
v -0.72361 1.14483 -0.17733
v -0.76182 1.14483 -0.20509
v -0.77641 1.14483 -0.25000
v -0.76182 1.14483 -0.29491
v -0.72361 1.14483 -0.32267
v -0.67639 1.14483 -0.32267
v -0.63818 1.14483 -0.29491
v -0.70000 1.12000 -0.25000
v -0.70000 1.12000 -0.25000
v -0.70000 1.12000 -0.25000
v -0.70000 1.12000 -0.25000
v -0.70000 1.12000 -0.25000
v -0.70000 1.12000 -0.25000
v -0.70000 1.12000 -0.25000
v -0.70000 1.12000 -0.25000
v -0.70000 1.12000 -0.25000
v -0.70000 1.12000 -0.25000
v -0.50000 1.38000 0.25000
v -0.50000 1.38000 0.25000
v -0.50000 1.38000 0.25000
v -0.50000 1.38000 0.25000
v -0.50000 1.38000 0.25000
v -0.50000 1.38000 0.25000
v -0.50000 1.38000 0.25000
v -0.50000 1.38000 0.25000
v -0.50000 1.38000 0.25000
v -0.50000 1.38000 0.25000
v -0.42359 1.35517 0.25000
v -0.43818 1.35517 0.29491
v -0.47639 1.35517 0.32267
v -0.52361 1.35517 0.32267
v -0.56182 1.35517 0.29491
v -0.57641 1.35517 0.25000
v -0.56182 1.35517 0.20509
v -0.52361 1.35517 0.17733
v -0.47639 1.35517 0.17733
v -0.43818 1.35517 0.20509
v -0.37636 1.29017 0.25000
v -0.39998 1.29017 0.32267
v -0.46179 1.29017 0.36759
v -0.53821 1.29017 0.36759
v -0.60002 1.29017 0.32267
v -0.62364 1.29017 0.25000
v -0.60002 1.29017 0.17733
v -0.53821 1.29017 0.13241
v -0.46179 1.29017 0.13241
v -0.39998 1.29017 0.17733
v -0.37636 1.20983 0.25000
v -0.39998 1.20983 0.32267
v -0.46179 1.20983 0.36759
v -0.53821 1.20983 0.36759
v -0.60002 1.20983 0.32267
v -0.62364 1.20983 0.25000
v -0.60002 1.20983 0.17733
v -0.53821 1.20983 0.13241
v -0.46179 1.20983 0.13241
v -0.39998 1.20983 0.17733
v -0.42359 1.14483 0.25000
v -0.43818 1.14483 0.29491
v -0.47639 1.14483 0.32267
v -0.52361 1.14483 0.32267
v -0.56182 1.14483 0.29491
v -0.57641 1.14483 0.25000
v -0.56182 1.14483 0.20509
v -0.52361 1.14483 0.17733
v -0.47639 1.14483 0.17733
v -0.43818 1.14483 0.20509
v -0.50000 1.12000 0.25000
v -0.50000 1.12000 0.25000
v -0.50000 1.12000 0.25000
v -0.50000 1.12000 0.25000
v -0.50000 1.12000 0.25000
v -0.50000 1.12000 0.25000
v -0.50000 1.12000 0.25000
v -0.50000 1.12000 0.25000
v -0.50000 1.12000 0.25000
v -0.50000 1.12000 0.25000
v -0.30000 1.38000 -0.25000
v -0.30000 1.38000 -0.25000
v -0.30000 1.38000 -0.25000
v -0.30000 1.38000 -0.25000
v -0.30000 1.38000 -0.25000
v -0.30000 1.38000 -0.25000
v -0.30000 1.38000 -0.25000
v -0.30000 1.38000 -0.25000
v -0.30000 1.38000 -0.25000
v -0.30000 1.38000 -0.25000
v -0.22359 1.35517 -0.25000
v -0.23818 1.35517 -0.20509
v -0.27639 1.35517 -0.17733
v -0.32361 1.35517 -0.17733
v -0.36182 1.35517 -0.20509
v -0.37641 1.35517 -0.25000
v -0.36182 1.35517 -0.29491
v -0.32361 1.35517 -0.32267
v -0.27639 1.35517 -0.32267
v -0.23818 1.35517 -0.29491
v -0.17636 1.29017 -0.25000
v -0.19998 1.29017 -0.17733
v -0.26179 1.29017 -0.13241
v -0.33821 1.29017 -0.13241
v -0.40002 1.29017 -0.17733
v -0.42364 1.29017 -0.25000
v -0.40002 1.29017 -0.32267
v -0.33821 1.29017 -0.36759
v -0.26179 1.29017 -0.36759
v -0.19998 1.29017 -0.32267
v -0.17636 1.20983 -0.25000
v -0.19998 1.20983 -0.17733
v -0.26179 1.20983 -0.13241
v -0.33821 1.20983 -0.13241
v -0.40002 1.20983 -0.17733
v -0.42364 1.20983 -0.25000
v -0.40002 1.20983 -0.32267
v -0.33821 1.20983 -0.36759
v -0.26179 1.20983 -0.36759
v -0.19998 1.20983 -0.32267
v -0.22359 1.14483 -0.25000
v -0.23818 1.14483 -0.20509
v -0.27639 1.14483 -0.17733
v -0.32361 1.14483 -0.17733
v -0.36182 1.14483 -0.20509
v -0.37641 1.14483 -0.25000
v -0.36182 1.14483 -0.29491
v -0.32361 1.14483 -0.32267
v -0.27639 1.14483 -0.32267
v -0.23818 1.14483 -0.29491
v -0.30000 1.12000 -0.25000
v -0.30000 1.12000 -0.25000
v -0.30000 1.12000 -0.25000
v -0.30000 1.12000 -0.25000
v -0.30000 1.12000 -0.25000
v -0.30000 1.12000 -0.25000
v -0.30000 1.12000 -0.25000
v -0.30000 1.12000 -0.25000
v -0.30000 1.12000 -0.25000
v -0.30000 1.12000 -0.25000
v -0.10000 1.38000 0.25000
v -0.10000 1.38000 0.25000
v -0.10000 1.38000 0.25000
v -0.10000 1.38000 0.25000
v -0.10000 1.38000 0.25000
v -0.10000 1.38000 0.25000
v -0.10000 1.38000 0.25000
v -0.10000 1.38000 0.25000
v -0.10000 1.38000 0.25000
v -0.10000 1.38000 0.25000
v -0.02359 1.35517 0.25000
v -0.03818 1.35517 0.29491
v -0.07639 1.35517 0.32267
v -0.12361 1.35517 0.32267
v -0.16182 1.35517 0.29491
v -0.17641 1.35517 0.25000
v -0.16182 1.35517 0.20509
v -0.12361 1.35517 0.17733
v -0.07639 1.35517 0.17733
v -0.03818 1.35517 0.20509
v 0.02364 1.29017 0.25000
v 0.00002 1.29017 0.32267
v -0.06179 1.29017 0.36759
v -0.13821 1.29017 0.36759
v -0.20002 1.29017 0.32267
v -0.22364 1.29017 0.25000
v -0.20002 1.29017 0.17733
v -0.13821 1.29017 0.13241
v -0.06179 1.29017 0.13241
v 0.00002 1.29017 0.17733
v 0.02364 1.20983 0.25000
v 0.00002 1.20983 0.32267
v -0.06179 1.20983 0.36759
v -0.13821 1.20983 0.36759
v -0.20002 1.20983 0.32267
v -0.22364 1.20983 0.25000
v -0.20002 1.20983 0.17733
v -0.13821 1.20983 0.13241
v -0.06179 1.20983 0.13241
v 0.00002 1.20983 0.17733
v -0.02359 1.14483 0.25000
v -0.03818 1.14483 0.29491
v -0.07639 1.14483 0.32267
v -0.12361 1.14483 0.32267
v -0.16182 1.14483 0.29491
v -0.17641 1.14483 0.25000
v -0.16182 1.14483 0.20509
v -0.12361 1.14483 0.17733
v -0.07639 1.14483 0.17733
v -0.03818 1.14483 0.20509
v -0.10000 1.12000 0.25000
v -0.10000 1.12000 0.25000
v -0.10000 1.12000 0.25000
v -0.10000 1.12000 0.25000
v -0.10000 1.12000 0.25000
v -0.10000 1.12000 0.25000
v -0.10000 1.12000 0.25000
v -0.10000 1.12000 0.25000
v -0.10000 1.12000 0.25000
v -0.10000 1.12000 0.25000
v 0.10000 1.38000 -0.25000
v 0.10000 1.38000 -0.25000
v 0.10000 1.38000 -0.25000
v 0.10000 1.38000 -0.25000
v 0.10000 1.38000 -0.25000
v 0.10000 1.38000 -0.25000
v 0.10000 1.38000 -0.25000
v 0.10000 1.38000 -0.25000
v 0.10000 1.38000 -0.25000
v 0.10000 1.38000 -0.25000
v 0.17641 1.35517 -0.25000
v 0.16182 1.35517 -0.20509
v 0.12361 1.35517 -0.17733
v 0.07639 1.35517 -0.17733
v 0.03818 1.35517 -0.20509
v 0.02359 1.35517 -0.25000
v 0.03818 1.35517 -0.29491
v 0.07639 1.35517 -0.32267
v 0.12361 1.35517 -0.32267
v 0.16182 1.35517 -0.29491
v 0.22364 1.29017 -0.25000
v 0.20002 1.29017 -0.17733
v 0.13821 1.29017 -0.13241
v 0.06179 1.29017 -0.13241
v -0.00002 1.29017 -0.17733
v -0.02364 1.29017 -0.25000
v -0.00002 1.29017 -0.32267
v 0.06179 1.29017 -0.36759
v 0.13821 1.29017 -0.36759
v 0.20002 1.29017 -0.32267
v 0.22364 1.20983 -0.25000
v 0.20002 1.20983 -0.17733
v 0.13821 1.20983 -0.13241
v 0.06179 1.20983 -0.13241
v -0.00002 1.20983 -0.17733
v -0.02364 1.20983 -0.25000
v -0.00002 1.20983 -0.32267
v 0.06179 1.20983 -0.36759
v 0.13821 1.20983 -0.36759
v 0.20002 1.20983 -0.32267
v 0.17641 1.14483 -0.25000
v 0.16182 1.14483 -0.20509
v 0.12361 1.14483 -0.17733
v 0.07639 1.14483 -0.17733
v 0.03818 1.14483 -0.20509
v 0.02359 1.14483 -0.25000
v 0.03818 1.14483 -0.29491
v 0.07639 1.14483 -0.32267
v 0.12361 1.14483 -0.32267
v 0.16182 1.14483 -0.29491
v 0.10000 1.12000 -0.25000
v 0.10000 1.12000 -0.25000
v 0.10000 1.12000 -0.25000
v 0.10000 1.12000 -0.25000
v 0.10000 1.12000 -0.25000
v 0.10000 1.12000 -0.25000
v 0.10000 1.12000 -0.25000
v 0.10000 1.12000 -0.25000
v 0.10000 1.12000 -0.25000
v 0.10000 1.12000 -0.25000
v 0.30000 1.38000 0.25000
v 0.30000 1.38000 0.25000
v 0.30000 1.38000 0.25000
v 0.30000 1.38000 0.25000
v 0.30000 1.38000 0.25000
v 0.30000 1.38000 0.25000
v 0.30000 1.38000 0.25000
v 0.30000 1.38000 0.25000
v 0.30000 1.38000 0.25000
v 0.30000 1.38000 0.25000
v 0.37641 1.35517 0.25000
v 0.36182 1.35517 0.29491
v 0.32361 1.35517 0.32267
v 0.27639 1.35517 0.32267
v 0.23818 1.35517 0.29491
v 0.22359 1.35517 0.25000
v 0.23818 1.35517 0.20509
v 0.27639 1.35517 0.17733
v 0.32361 1.35517 0.17733
v 0.36182 1.35517 0.20509
v 0.42364 1.29017 0.25000
v 0.40002 1.29017 0.32267
v 0.33821 1.29017 0.36759
v 0.26179 1.29017 0.36759
v 0.19998 1.29017 0.32267
v 0.17636 1.29017 0.25000
v 0.19998 1.29017 0.17733
v 0.26179 1.29017 0.13241
v 0.33821 1.29017 0.13241
v 0.40002 1.29017 0.17733
v 0.42364 1.20983 0.25000
v 0.40002 1.20983 0.32267
v 0.33821 1.20983 0.36759
v 0.26179 1.20983 0.36759
v 0.19998 1.20983 0.32267
v 0.17636 1.20983 0.25000
v 0.19998 1.20983 0.17733
v 0.26179 1.20983 0.13241
v 0.33821 1.20983 0.13241
v 0.40002 1.20983 0.17733
v 0.37641 1.14483 0.25000
v 0.36182 1.14483 0.29491
v 0.32361 1.14483 0.32267
v 0.27639 1.14483 0.32267
v 0.23818 1.14483 0.29491
v 0.22359 1.14483 0.25000
v 0.23818 1.14483 0.20509
v 0.27639 1.14483 0.17733
v 0.32361 1.14483 0.17733
v 0.36182 1.14483 0.20509
v 0.30000 1.12000 0.25000
v 0.30000 1.12000 0.25000
v 0.30000 1.12000 0.25000
v 0.30000 1.12000 0.25000
v 0.30000 1.12000 0.25000
v 0.30000 1.12000 0.25000
v 0.30000 1.12000 0.25000
v 0.30000 1.12000 0.25000
v 0.30000 1.12000 0.25000
v 0.30000 1.12000 0.25000
v 0.50000 1.38000 -0.25000
v 0.50000 1.38000 -0.25000
v 0.50000 1.38000 -0.25000
v 0.50000 1.38000 -0.25000
v 0.50000 1.38000 -0.25000
v 0.50000 1.38000 -0.25000
v 0.50000 1.38000 -0.25000
v 0.50000 1.38000 -0.25000
v 0.50000 1.38000 -0.25000
v 0.50000 1.38000 -0.25000
v 0.57641 1.35517 -0.25000
v 0.56182 1.35517 -0.20509
v 0.52361 1.35517 -0.17733
v 0.47639 1.35517 -0.17733
v 0.43818 1.35517 -0.20509
v 0.42359 1.35517 -0.25000
v 0.43818 1.35517 -0.29491
v 0.47639 1.35517 -0.32267
v 0.52361 1.35517 -0.32267
v 0.56182 1.35517 -0.29491
v 0.62364 1.29017 -0.25000
v 0.60002 1.29017 -0.17733
v 0.53821 1.29017 -0.13241
v 0.46179 1.29017 -0.13241
v 0.39998 1.29017 -0.17733
v 0.37636 1.29017 -0.25000
v 0.39998 1.29017 -0.32267
v 0.46179 1.29017 -0.36759
v 0.53821 1.29017 -0.36759
v 0.60002 1.29017 -0.32267
v 0.62364 1.20983 -0.25000
v 0.60002 1.20983 -0.17733
v 0.53821 1.20983 -0.13241
v 0.46179 1.20983 -0.13241
v 0.39998 1.20983 -0.17733
v 0.37636 1.20983 -0.25000
v 0.39998 1.20983 -0.32267
v 0.46179 1.20983 -0.36759
v 0.53821 1.20983 -0.36759
v 0.60002 1.20983 -0.32267
v 0.57641 1.14483 -0.25000
v 0.56182 1.14483 -0.20509
v 0.52361 1.14483 -0.17733
v 0.47639 1.14483 -0.17733
v 0.43818 1.14483 -0.20509
v 0.42359 1.14483 -0.25000
v 0.43818 1.14483 -0.29491
v 0.47639 1.14483 -0.32267
v 0.52361 1.14483 -0.32267
v 0.56182 1.14483 -0.29491
v 0.50000 1.12000 -0.25000
v 0.50000 1.12000 -0.25000
v 0.50000 1.12000 -0.25000
v 0.50000 1.12000 -0.25000
v 0.50000 1.12000 -0.25000
v 0.50000 1.12000 -0.25000
v 0.50000 1.12000 -0.25000
v 0.50000 1.12000 -0.25000
v 0.50000 1.12000 -0.25000
v 0.50000 1.12000 -0.25000
v 0.70000 1.38000 0.25000
v 0.70000 1.38000 0.25000
v 0.70000 1.38000 0.25000
v 0.70000 1.38000 0.25000
v 0.70000 1.38000 0.25000
v 0.70000 1.38000 0.25000
v 0.70000 1.38000 0.25000
v 0.70000 1.38000 0.25000
v 0.70000 1.38000 0.25000
v 0.70000 1.38000 0.25000
v 0.77641 1.35517 0.25000
v 0.76182 1.35517 0.29491
v 0.72361 1.35517 0.32267
v 0.67639 1.35517 0.32267
v 0.63818 1.35517 0.29491
v 0.62359 1.35517 0.25000
v 0.63818 1.35517 0.20509
v 0.67639 1.35517 0.17733
v 0.72361 1.35517 0.17733
v 0.76182 1.35517 0.20509
v 0.82364 1.29017 0.25000
v 0.80002 1.29017 0.32267
v 0.73821 1.29017 0.36759
v 0.66179 1.29017 0.36759
v 0.59998 1.29017 0.32267
v 0.57636 1.29017 0.25000
v 0.59998 1.29017 0.17733
v 0.66179 1.29017 0.13241
v 0.73821 1.29017 0.13241
v 0.80002 1.29017 0.17733
v 0.82364 1.20983 0.25000
v 0.80002 1.20983 0.32267
v 0.73821 1.20983 0.36759
v 0.66179 1.20983 0.36759
v 0.59998 1.20983 0.32267
v 0.57636 1.20983 0.25000
v 0.59998 1.20983 0.17733
v 0.66179 1.20983 0.13241
v 0.73821 1.20983 0.13241
v 0.80002 1.20983 0.17733
v 0.77641 1.14483 0.25000
v 0.76182 1.14483 0.29491
v 0.72361 1.14483 0.32267
v 0.67639 1.14483 0.32267
v 0.63818 1.14483 0.29491
v 0.62359 1.14483 0.25000
v 0.63818 1.14483 0.20509
v 0.67639 1.14483 0.17733
v 0.72361 1.14483 0.17733
v 0.76182 1.14483 0.20509
v 0.70000 1.12000 0.25000
v 0.70000 1.12000 0.25000
v 0.70000 1.12000 0.25000
v 0.70000 1.12000 0.25000
v 0.70000 1.12000 0.25000
v 0.70000 1.12000 0.25000
v 0.70000 1.12000 0.25000
v 0.70000 1.12000 0.25000
v 0.70000 1.12000 0.25000
v 0.70000 1.12000 0.25000
g cart_bed
usemtl Mat_WoodWeathered
f 1 2 3 4
f 5 8 7 6
f 1 5 6 2
f 2 6 7 3
f 3 7 8 4
f 4 8 5 1
g cart_rail
usemtl Mat_WoodDark
f 9 10 11 12
f 13 16 15 14
f 9 13 14 10
f 10 14 15 11
f 11 15 16 12
f 12 16 13 9
g cart_wheel_-1_0_-0_72
f 17 19 20 18
f 19 21 22 20
f 21 23 24 22
f 23 25 26 24
f 25 27 28 26
f 27 29 30 28
f 29 31 32 30
f 31 33 34 32
f 33 35 36 34
f 35 37 38 36
f 37 39 40 38
f 39 41 42 40
f 41 43 44 42
f 43 45 46 44
f 45 47 48 46
f 47 49 50 48
f 49 51 52 50
f 51 17 18 52
g cart_wheel_-1_0_-0_72_capA
f 51 49 47 45 43 41 39 37 35 33 31 29 27 25 23 21 19 17
g cart_wheel_-1_0_-0_72_capB
f 18 20 22 24 26 28 30 32 34 36 38 40 42 44 46 48 50 52
g cart_wheel_-1_0_0_72
f 53 55 56 54
f 55 57 58 56
f 57 59 60 58
f 59 61 62 60
f 61 63 64 62
f 63 65 66 64
f 65 67 68 66
f 67 69 70 68
f 69 71 72 70
f 71 73 74 72
f 73 75 76 74
f 75 77 78 76
f 77 79 80 78
f 79 81 82 80
f 81 83 84 82
f 83 85 86 84
f 85 87 88 86
f 87 53 54 88
g cart_wheel_-1_0_0_72_capA
f 87 85 83 81 79 77 75 73 71 69 67 65 63 61 59 57 55 53
g cart_wheel_-1_0_0_72_capB
f 54 56 58 60 62 64 66 68 70 72 74 76 78 80 82 84 86 88
g cart_wheel_1_0_-0_72
f 89 91 92 90
f 91 93 94 92
f 93 95 96 94
f 95 97 98 96
f 97 99 100 98
f 99 101 102 100
f 101 103 104 102
f 103 105 106 104
f 105 107 108 106
f 107 109 110 108
f 109 111 112 110
f 111 113 114 112
f 113 115 116 114
f 115 117 118 116
f 117 119 120 118
f 119 121 122 120
f 121 123 124 122
f 123 89 90 124
g cart_wheel_1_0_-0_72_capA
f 123 121 119 117 115 113 111 109 107 105 103 101 99 97 95 93 91 89
g cart_wheel_1_0_-0_72_capB
f 90 92 94 96 98 100 102 104 106 108 110 112 114 116 118 120 122 124
g cart_wheel_1_0_0_72
f 125 127 128 126
f 127 129 130 128
f 129 131 132 130
f 131 133 134 132
f 133 135 136 134
f 135 137 138 136
f 137 139 140 138
f 139 141 142 140
f 141 143 144 142
f 143 145 146 144
f 145 147 148 146
f 147 149 150 148
f 149 151 152 150
f 151 153 154 152
f 153 155 156 154
f 155 157 158 156
f 157 159 160 158
f 159 125 126 160
g cart_wheel_1_0_0_72_capA
f 159 157 155 153 151 149 147 145 143 141 139 137 135 133 131 129 127 125
g cart_wheel_1_0_0_72_capB
f 126 128 130 132 134 136 138 140 142 144 146 148 150 152 154 156 158 160
g cart_axle_r
usemtl Mat_MetalDark
f 161 163 164 162
f 163 165 166 164
f 165 167 168 166
f 167 169 170 168
f 169 171 172 170
f 171 173 174 172
f 173 175 176 174
f 175 177 178 176
f 177 179 180 178
f 179 181 182 180
f 181 183 184 182
f 183 161 162 184
g cart_axle_r_capA
f 183 181 179 177 175 173 171 169 167 165 163 161
g cart_axle_r_capB
f 162 164 166 168 170 172 174 176 178 180 182 184
g cart_axle_l
f 185 187 188 186
f 187 189 190 188
f 189 191 192 190
f 191 193 194 192
f 193 195 196 194
f 195 197 198 196
f 197 199 200 198
f 199 201 202 200
f 201 203 204 202
f 203 205 206 204
f 205 207 208 206
f 207 185 186 208
g cart_axle_l_capA
f 207 205 203 201 199 197 195 193 191 189 187 185
g cart_axle_l_capB
f 186 188 190 192 194 196 198 200 202 204 206 208
g produce_0
usemtl Mat_Produce
f 209 210 220 219
f 210 211 221 220
f 211 212 222 221
f 212 213 223 222
f 213 214 224 223
f 214 215 225 224
f 215 216 226 225
f 216 217 227 226
f 217 218 228 227
f 218 209 219 228
f 219 220 230 229
f 220 221 231 230
f 221 222 232 231
f 222 223 233 232
f 223 224 234 233
f 224 225 235 234
f 225 226 236 235
f 226 227 237 236
f 227 228 238 237
f 228 219 229 238
f 229 230 240 239
f 230 231 241 240
f 231 232 242 241
f 232 233 243 242
f 233 234 244 243
f 234 235 245 244
f 235 236 246 245
f 236 237 247 246
f 237 238 248 247
f 238 229 239 248
f 239 240 250 249
f 240 241 251 250
f 241 242 252 251
f 242 243 253 252
f 243 244 254 253
f 244 245 255 254
f 245 246 256 255
f 246 247 257 256
f 247 248 258 257
f 248 239 249 258
f 249 250 260 259
f 250 251 261 260
f 251 252 262 261
f 252 253 263 262
f 253 254 264 263
f 254 255 265 264
f 255 256 266 265
f 256 257 267 266
f 257 258 268 267
f 258 249 259 268
g produce_1
f 269 270 280 279
f 270 271 281 280
f 271 272 282 281
f 272 273 283 282
f 273 274 284 283
f 274 275 285 284
f 275 276 286 285
f 276 277 287 286
f 277 278 288 287
f 278 269 279 288
f 279 280 290 289
f 280 281 291 290
f 281 282 292 291
f 282 283 293 292
f 283 284 294 293
f 284 285 295 294
f 285 286 296 295
f 286 287 297 296
f 287 288 298 297
f 288 279 289 298
f 289 290 300 299
f 290 291 301 300
f 291 292 302 301
f 292 293 303 302
f 293 294 304 303
f 294 295 305 304
f 295 296 306 305
f 296 297 307 306
f 297 298 308 307
f 298 289 299 308
f 299 300 310 309
f 300 301 311 310
f 301 302 312 311
f 302 303 313 312
f 303 304 314 313
f 304 305 315 314
f 305 306 316 315
f 306 307 317 316
f 307 308 318 317
f 308 299 309 318
f 309 310 320 319
f 310 311 321 320
f 311 312 322 321
f 312 313 323 322
f 313 314 324 323
f 314 315 325 324
f 315 316 326 325
f 316 317 327 326
f 317 318 328 327
f 318 309 319 328
g produce_2
f 329 330 340 339
f 330 331 341 340
f 331 332 342 341
f 332 333 343 342
f 333 334 344 343
f 334 335 345 344
f 335 336 346 345
f 336 337 347 346
f 337 338 348 347
f 338 329 339 348
f 339 340 350 349
f 340 341 351 350
f 341 342 352 351
f 342 343 353 352
f 343 344 354 353
f 344 345 355 354
f 345 346 356 355
f 346 347 357 356
f 347 348 358 357
f 348 339 349 358
f 349 350 360 359
f 350 351 361 360
f 351 352 362 361
f 352 353 363 362
f 353 354 364 363
f 354 355 365 364
f 355 356 366 365
f 356 357 367 366
f 357 358 368 367
f 358 349 359 368
f 359 360 370 369
f 360 361 371 370
f 361 362 372 371
f 362 363 373 372
f 363 364 374 373
f 364 365 375 374
f 365 366 376 375
f 366 367 377 376
f 367 368 378 377
f 368 359 369 378
f 369 370 380 379
f 370 371 381 380
f 371 372 382 381
f 372 373 383 382
f 373 374 384 383
f 374 375 385 384
f 375 376 386 385
f 376 377 387 386
f 377 378 388 387
f 378 369 379 388
g produce_3
f 389 390 400 399
f 390 391 401 400
f 391 392 402 401
f 392 393 403 402
f 393 394 404 403
f 394 395 405 404
f 395 396 406 405
f 396 397 407 406
f 397 398 408 407
f 398 389 399 408
f 399 400 410 409
f 400 401 411 410
f 401 402 412 411
f 402 403 413 412
f 403 404 414 413
f 404 405 415 414
f 405 406 416 415
f 406 407 417 416
f 407 408 418 417
f 408 399 409 418
f 409 410 420 419
f 410 411 421 420
f 411 412 422 421
f 412 413 423 422
f 413 414 424 423
f 414 415 425 424
f 415 416 426 425
f 416 417 427 426
f 417 418 428 427
f 418 409 419 428
f 419 420 430 429
f 420 421 431 430
f 421 422 432 431
f 422 423 433 432
f 423 424 434 433
f 424 425 435 434
f 425 426 436 435
f 426 427 437 436
f 427 428 438 437
f 428 419 429 438
f 429 430 440 439
f 430 431 441 440
f 431 432 442 441
f 432 433 443 442
f 433 434 444 443
f 434 435 445 444
f 435 436 446 445
f 436 437 447 446
f 437 438 448 447
f 438 429 439 448
g produce_4
f 449 450 460 459
f 450 451 461 460
f 451 452 462 461
f 452 453 463 462
f 453 454 464 463
f 454 455 465 464
f 455 456 466 465
f 456 457 467 466
f 457 458 468 467
f 458 449 459 468
f 459 460 470 469
f 460 461 471 470
f 461 462 472 471
f 462 463 473 472
f 463 464 474 473
f 464 465 475 474
f 465 466 476 475
f 466 467 477 476
f 467 468 478 477
f 468 459 469 478
f 469 470 480 479
f 470 471 481 480
f 471 472 482 481
f 472 473 483 482
f 473 474 484 483
f 474 475 485 484
f 475 476 486 485
f 476 477 487 486
f 477 478 488 487
f 478 469 479 488
f 479 480 490 489
f 480 481 491 490
f 481 482 492 491
f 482 483 493 492
f 483 484 494 493
f 484 485 495 494
f 485 486 496 495
f 486 487 497 496
f 487 488 498 497
f 488 479 489 498
f 489 490 500 499
f 490 491 501 500
f 491 492 502 501
f 492 493 503 502
f 493 494 504 503
f 494 495 505 504
f 495 496 506 505
f 496 497 507 506
f 497 498 508 507
f 498 489 499 508
g produce_5
f 509 510 520 519
f 510 511 521 520
f 511 512 522 521
f 512 513 523 522
f 513 514 524 523
f 514 515 525 524
f 515 516 526 525
f 516 517 527 526
f 517 518 528 527
f 518 509 519 528
f 519 520 530 529
f 520 521 531 530
f 521 522 532 531
f 522 523 533 532
f 523 524 534 533
f 524 525 535 534
f 525 526 536 535
f 526 527 537 536
f 527 528 538 537
f 528 519 529 538
f 529 530 540 539
f 530 531 541 540
f 531 532 542 541
f 532 533 543 542
f 533 534 544 543
f 534 535 545 544
f 535 536 546 545
f 536 537 547 546
f 537 538 548 547
f 538 529 539 548
f 539 540 550 549
f 540 541 551 550
f 541 542 552 551
f 542 543 553 552
f 543 544 554 553
f 544 545 555 554
f 545 546 556 555
f 546 547 557 556
f 547 548 558 557
f 548 539 549 558
f 549 550 560 559
f 550 551 561 560
f 551 552 562 561
f 552 553 563 562
f 553 554 564 563
f 554 555 565 564
f 555 556 566 565
f 556 557 567 566
f 557 558 568 567
f 558 549 559 568
g produce_6
f 569 570 580 579
f 570 571 581 580
f 571 572 582 581
f 572 573 583 582
f 573 574 584 583
f 574 575 585 584
f 575 576 586 585
f 576 577 587 586
f 577 578 588 587
f 578 569 579 588
f 579 580 590 589
f 580 581 591 590
f 581 582 592 591
f 582 583 593 592
f 583 584 594 593
f 584 585 595 594
f 585 586 596 595
f 586 587 597 596
f 587 588 598 597
f 588 579 589 598
f 589 590 600 599
f 590 591 601 600
f 591 592 602 601
f 592 593 603 602
f 593 594 604 603
f 594 595 605 604
f 595 596 606 605
f 596 597 607 606
f 597 598 608 607
f 598 589 599 608
f 599 600 610 609
f 600 601 611 610
f 601 602 612 611
f 602 603 613 612
f 603 604 614 613
f 604 605 615 614
f 605 606 616 615
f 606 607 617 616
f 607 608 618 617
f 608 599 609 618
f 609 610 620 619
f 610 611 621 620
f 611 612 622 621
f 612 613 623 622
f 613 614 624 623
f 614 615 625 624
f 615 616 626 625
f 616 617 627 626
f 617 618 628 627
f 618 609 619 628
g produce_7
f 629 630 640 639
f 630 631 641 640
f 631 632 642 641
f 632 633 643 642
f 633 634 644 643
f 634 635 645 644
f 635 636 646 645
f 636 637 647 646
f 637 638 648 647
f 638 629 639 648
f 639 640 650 649
f 640 641 651 650
f 641 642 652 651
f 642 643 653 652
f 643 644 654 653
f 644 645 655 654
f 645 646 656 655
f 646 647 657 656
f 647 648 658 657
f 648 639 649 658
f 649 650 660 659
f 650 651 661 660
f 651 652 662 661
f 652 653 663 662
f 653 654 664 663
f 654 655 665 664
f 655 656 666 665
f 656 657 667 666
f 657 658 668 667
f 658 649 659 668
f 659 660 670 669
f 660 661 671 670
f 661 662 672 671
f 662 663 673 672
f 663 664 674 673
f 664 665 675 674
f 665 666 676 675
f 666 667 677 676
f 667 668 678 677
f 668 659 669 678
f 669 670 680 679
f 670 671 681 680
f 671 672 682 681
f 672 673 683 682
f 673 674 684 683
f 674 675 685 684
f 675 676 686 685
f 676 677 687 686
f 677 678 688 687
f 678 669 679 688
