# GalakasMidCity_MerchantNarrow_W03D04_F01_R01U02L01_A01
mtllib GalakasMidCity_MerchantNarrow_W03D04_F01_R01U02L01_A01.mtl
v -3.27500 0.00000 -4.27500
v 3.27500 0.00000 -4.27500
v 3.27500 0.36000 -4.27500
v -3.27500 0.36000 -4.27500
v -3.27500 0.00000 4.27500
v 3.27500 0.00000 4.27500
v 3.27500 0.36000 4.27500
v -3.27500 0.36000 4.27500
v -3.17500 0.36000 -4.17500
v 3.17500 0.36000 -4.17500
v 3.17500 0.72000 -4.17500
v -3.17500 0.72000 -4.17500
v -3.17500 0.36000 4.17500
v 3.17500 0.36000 4.17500
v 3.17500 0.72000 4.17500
v -3.17500 0.72000 4.17500
v -2.89200 0.70000 -4.37000
v -1.90800 0.70000 -4.37000
v -1.90800 0.88000 -4.37000
v -2.89200 0.88000 -4.37000
v -2.89200 0.70000 -4.29000
v -1.90800 0.70000 -4.29000
v -1.90800 0.88000 -4.29000
v -2.89200 0.88000 -4.29000
v -1.69200 0.70000 -4.37000
v -0.70800 0.70000 -4.37000
v -0.70800 0.88000 -4.37000
v -1.69200 0.88000 -4.37000
v -1.69200 0.70000 -4.29000
v -0.70800 0.70000 -4.29000
v -0.70800 0.88000 -4.29000
v -1.69200 0.88000 -4.29000
v -0.49200 0.70000 -4.37000
v 0.49200 0.70000 -4.37000
v 0.49200 0.88000 -4.37000
v -0.49200 0.88000 -4.37000
v -0.49200 0.70000 -4.29000
v 0.49200 0.70000 -4.29000
v 0.49200 0.88000 -4.29000
v -0.49200 0.88000 -4.29000
v 0.70800 0.70000 -4.37000
v 1.69200 0.70000 -4.37000
v 1.69200 0.88000 -4.37000
v 0.70800 0.88000 -4.37000
v 0.70800 0.70000 -4.29000
v 1.69200 0.70000 -4.29000
v 1.69200 0.88000 -4.29000
v 0.70800 0.88000 -4.29000
v 1.90800 0.70000 -4.37000
v 2.89200 0.70000 -4.37000
v 2.89200 0.88000 -4.37000
v 1.90800 0.88000 -4.37000
v 1.90800 0.70000 -4.29000
v 2.89200 0.70000 -4.29000
v 2.89200 0.88000 -4.29000
v 1.90800 0.88000 -4.29000
v -2.89200 0.70000 4.29000
v -1.90800 0.70000 4.29000
v -1.90800 0.88000 4.29000
v -2.89200 0.88000 4.29000
v -2.89200 0.70000 4.37000
v -1.90800 0.70000 4.37000
v -1.90800 0.88000 4.37000
v -2.89200 0.88000 4.37000
v -1.69200 0.70000 4.29000
v -0.70800 0.70000 4.29000
v -0.70800 0.88000 4.29000
v -1.69200 0.88000 4.29000
v -1.69200 0.70000 4.37000
v -0.70800 0.70000 4.37000
v -0.70800 0.88000 4.37000
v -1.69200 0.88000 4.37000
v -0.49200 0.70000 4.29000
v 0.49200 0.70000 4.29000
v 0.49200 0.88000 4.29000
v -0.49200 0.88000 4.29000
v -0.49200 0.70000 4.37000
v 0.49200 0.70000 4.37000
v 0.49200 0.88000 4.37000
v -0.49200 0.88000 4.37000
v 0.70800 0.70000 4.29000
v 1.69200 0.70000 4.29000
v 1.69200 0.88000 4.29000
v 0.70800 0.88000 4.29000
v 0.70800 0.70000 4.37000
v 1.69200 0.70000 4.37000
v 1.69200 0.88000 4.37000
v 0.70800 0.88000 4.37000
v 1.90800 0.70000 4.29000
v 2.89200 0.70000 4.29000
v 2.89200 0.88000 4.29000
v 1.90800 0.88000 4.29000
v 1.90800 0.70000 4.37000
v 2.89200 0.70000 4.37000
v 2.89200 0.88000 4.37000
v 1.90800 0.88000 4.37000
v -3.37000 0.70000 -3.88000
v -3.29000 0.70000 -3.88000
v -3.29000 0.88000 -3.88000
v -3.37000 0.88000 -3.88000
v -3.37000 0.70000 -2.78667
v -3.29000 0.70000 -2.78667
v -3.29000 0.88000 -2.78667
v -3.37000 0.88000 -2.78667
v -3.37000 0.70000 -2.54667
v -3.29000 0.70000 -2.54667
v -3.29000 0.88000 -2.54667
v -3.37000 0.88000 -2.54667
v -3.37000 0.70000 -1.45333
v -3.29000 0.70000 -1.45333
v -3.29000 0.88000 -1.45333
v -3.37000 0.88000 -1.45333
v -3.37000 0.70000 -1.21333
v -3.29000 0.70000 -1.21333
v -3.29000 0.88000 -1.21333
v -3.37000 0.88000 -1.21333
v -3.37000 0.70000 -0.12000
v -3.29000 0.70000 -0.12000
v -3.29000 0.88000 -0.12000
v -3.37000 0.88000 -0.12000
v -3.37000 0.70000 0.12000
v -3.29000 0.70000 0.12000
v -3.29000 0.88000 0.12000
v -3.37000 0.88000 0.12000
v -3.37000 0.70000 1.21333
v -3.29000 0.70000 1.21333
v -3.29000 0.88000 1.21333
v -3.37000 0.88000 1.21333
v -3.37000 0.70000 1.45333
v -3.29000 0.70000 1.45333
v -3.29000 0.88000 1.45333
v -3.37000 0.88000 1.45333
v -3.37000 0.70000 2.54667
v -3.29000 0.70000 2.54667
v -3.29000 0.88000 2.54667
v -3.37000 0.88000 2.54667
v -3.37000 0.70000 2.78667
v -3.29000 0.70000 2.78667
v -3.29000 0.88000 2.78667
v -3.37000 0.88000 2.78667
v -3.37000 0.70000 3.88000
v -3.29000 0.70000 3.88000
v -3.29000 0.88000 3.88000
v -3.37000 0.88000 3.88000
v 3.29000 0.70000 -3.88000
v 3.37000 0.70000 -3.88000
v 3.37000 0.88000 -3.88000
v 3.29000 0.88000 -3.88000
v 3.29000 0.70000 -2.78667
v 3.37000 0.70000 -2.78667
v 3.37000 0.88000 -2.78667
v 3.29000 0.88000 -2.78667
v 3.29000 0.70000 -2.54667
v 3.37000 0.70000 -2.54667
v 3.37000 0.88000 -2.54667
v 3.29000 0.88000 -2.54667
v 3.29000 0.70000 -1.45333
v 3.37000 0.70000 -1.45333
v 3.37000 0.88000 -1.45333
v 3.29000 0.88000 -1.45333
v 3.29000 0.70000 -1.21333
v 3.37000 0.70000 -1.21333
v 3.37000 0.88000 -1.21333
v 3.29000 0.88000 -1.21333
v 3.29000 0.70000 -0.12000
v 3.37000 0.70000 -0.12000
v 3.37000 0.88000 -0.12000
v 3.29000 0.88000 -0.12000
v 3.29000 0.70000 0.12000
v 3.37000 0.70000 0.12000
v 3.37000 0.88000 0.12000
v 3.29000 0.88000 0.12000
v 3.29000 0.70000 1.21333
v 3.37000 0.70000 1.21333
v 3.37000 0.88000 1.21333
v 3.29000 0.88000 1.21333
v 3.29000 0.70000 1.45333
v 3.37000 0.70000 1.45333
v 3.37000 0.88000 1.45333
v 3.29000 0.88000 1.45333
v 3.29000 0.70000 2.54667
v 3.37000 0.70000 2.54667
v 3.37000 0.88000 2.54667
v 3.29000 0.88000 2.54667
v 3.29000 0.70000 2.78667
v 3.37000 0.70000 2.78667
v 3.37000 0.88000 2.78667
v 3.29000 0.88000 2.78667
v 3.29000 0.70000 3.88000
v 3.37000 0.70000 3.88000
v 3.37000 0.88000 3.88000
v 3.29000 0.88000 3.88000
v -3.00000 0.72000 -4.18000
v -1.37500 0.72000 -4.18000
v -1.37500 5.52000 -4.18000
v -3.00000 5.52000 -4.18000
v -3.00000 0.72000 -4.00000
v -1.37500 0.72000 -4.00000
v -1.37500 5.52000 -4.00000
v -3.00000 5.52000 -4.00000
v 1.37500 0.72000 -4.18000
v 3.00000 0.72000 -4.18000
v 3.00000 5.52000 -4.18000
v 1.37500 5.52000 -4.18000
v 1.37500 0.72000 -4.00000
v 3.00000 0.72000 -4.00000
v 3.00000 5.52000 -4.00000
v 1.37500 5.52000 -4.00000
v -1.37500 4.07000 -4.18000
v 1.37500 4.07000 -4.18000
v 1.37500 5.07000 -4.18000
v -1.37500 5.07000 -4.18000
v -1.37500 4.07000 -4.00000
v 1.37500 4.07000 -4.00000
v 1.37500 5.07000 -4.00000
v -1.37500 5.07000 -4.00000
v -0.92500 0.90000 -4.28000
v 0.92500 0.90000 -4.28000
v 0.92500 4.25000 -4.28000
v -0.92500 4.25000 -4.28000
v -0.92500 0.90000 -4.12000
v 0.92500 0.90000 -4.12000
v 0.92500 4.25000 -4.12000
v -0.92500 4.25000 -4.12000
v -0.87320 1.00050 -4.31000
v -0.60680 1.00050 -4.31000
v -0.60680 4.14950 -4.31000
v -0.87320 4.14950 -4.31000
v -0.87320 1.00050 -4.27000
v -0.60680 1.00050 -4.27000
v -0.60680 4.14950 -4.27000
v -0.87320 4.14950 -4.27000
v -0.50320 1.00050 -4.31000
v -0.23680 1.00050 -4.31000
v -0.23680 4.14950 -4.31000
v -0.50320 4.14950 -4.31000
v -0.50320 1.00050 -4.27000
v -0.23680 1.00050 -4.27000
v -0.23680 4.14950 -4.27000
v -0.50320 4.14950 -4.27000
v -0.13320 1.00050 -4.31000
v 0.13320 1.00050 -4.31000
v 0.13320 4.14950 -4.31000
v -0.13320 4.14950 -4.31000
v -0.13320 1.00050 -4.27000
v 0.13320 1.00050 -4.27000
v 0.13320 4.14950 -4.27000
v -0.13320 4.14950 -4.27000
v 0.23680 1.00050 -4.31000
v 0.50320 1.00050 -4.31000
v 0.50320 4.14950 -4.31000
v 0.23680 4.14950 -4.31000
v 0.23680 1.00050 -4.27000
v 0.50320 1.00050 -4.27000
v 0.50320 4.14950 -4.27000
v 0.23680 4.14950 -4.27000
v 0.60680 1.00050 -4.31000
v 0.87320 1.00050 -4.31000
v 0.87320 4.14950 -4.31000
v 0.60680 4.14950 -4.31000
v 0.60680 1.00050 -4.27000
v 0.87320 1.00050 -4.27000
v 0.87320 4.14950 -4.27000
v 0.60680 4.14950 -4.27000
v -1.12500 0.74000 -4.36000
v -0.94500 0.74000 -4.36000
v -0.94500 4.41000 -4.36000
v -1.12500 4.41000 -4.36000
v -1.12500 0.74000 -4.08000
v -0.94500 0.74000 -4.08000
v -0.94500 4.41000 -4.08000
v -1.12500 4.41000 -4.08000
v 0.94500 0.74000 -4.36000
v 1.12500 0.74000 -4.36000
v 1.12500 4.41000 -4.36000
v 0.94500 4.41000 -4.36000
v 0.94500 0.74000 -4.08000
v 1.12500 0.74000 -4.08000
v 1.12500 4.41000 -4.08000
v 0.94500 4.41000 -4.08000
v -1.20000 4.25000 -4.36000
v 1.20000 4.25000 -4.36000
v 1.20000 4.47000 -4.36000
v -1.20000 4.47000 -4.36000
v -1.20000 4.25000 -4.08000
v 1.20000 4.25000 -4.08000
v 1.20000 4.47000 -4.08000
v -1.20000 4.47000 -4.08000
v -0.79550 1.65000 -4.39000
v 0.79550 1.65000 -4.39000
v 0.79550 1.75000 -4.39000
v -0.79550 1.75000 -4.39000
v -0.79550 1.65000 -4.31000
v 0.79550 1.65000 -4.31000
v 0.79550 1.75000 -4.31000
v -0.79550 1.75000 -4.31000
v -0.79550 2.59200 -4.39000
v 0.79550 2.59200 -4.39000
v 0.79550 2.69200 -4.39000
v -0.79550 2.69200 -4.39000
v -0.79550 2.59200 -4.31000
v 0.79550 2.59200 -4.31000
v 0.79550 2.69200 -4.31000
v -0.79550 2.69200 -4.31000
v -0.79550 3.65000 -4.39000
v 0.79550 3.65000 -4.39000
v 0.79550 3.75000 -4.39000
v -0.79550 3.75000 -4.39000
v -0.79550 3.65000 -4.31000
v 0.79550 3.65000 -4.31000
v 0.79550 3.75000 -4.31000
v -0.79550 3.75000 -4.31000
v -1.16500 1.57000 -4.44500
v -1.16500 2.13000 -4.44500
v -1.19750 1.57000 -4.43629
v -1.19750 2.13000 -4.43629
v -1.22129 1.57000 -4.41250
v -1.22129 2.13000 -4.41250
v -1.23000 1.57000 -4.38000
v -1.23000 2.13000 -4.38000
v -1.22129 1.57000 -4.34750
v -1.22129 2.13000 -4.34750
v -1.19750 1.57000 -4.32371
v -1.19750 2.13000 -4.32371
v -1.16500 1.57000 -4.31500
v -1.16500 2.13000 -4.31500
v -1.13250 1.57000 -4.32371
v -1.13250 2.13000 -4.32371
v -1.10871 1.57000 -4.34750
v -1.10871 2.13000 -4.34750
v -1.10000 1.57000 -4.38000
v -1.10000 2.13000 -4.38000
v -1.10871 1.57000 -4.41250
v -1.10871 2.13000 -4.41250
v -1.13250 1.57000 -4.43629
v -1.13250 2.13000 -4.43629
v -1.16500 3.17000 -4.44500
v -1.16500 3.73000 -4.44500
v -1.19750 3.17000 -4.43629
v -1.19750 3.73000 -4.43629
v -1.22129 3.17000 -4.41250
v -1.22129 3.73000 -4.41250
v -1.23000 3.17000 -4.38000
v -1.23000 3.73000 -4.38000
v -1.22129 3.17000 -4.34750
v -1.22129 3.73000 -4.34750
v -1.19750 3.17000 -4.32371
v -1.19750 3.73000 -4.32371
v -1.16500 3.17000 -4.31500
v -1.16500 3.73000 -4.31500
v -1.13250 3.17000 -4.32371
v -1.13250 3.73000 -4.32371
v -1.10871 3.17000 -4.34750
v -1.10871 3.73000 -4.34750
v -1.10000 3.17000 -4.38000
v -1.10000 3.73000 -4.38000
v -1.10871 3.17000 -4.41250
v -1.10871 3.73000 -4.41250
v -1.13250 3.17000 -4.43629
v -1.13250 3.73000 -4.43629
v 0.55500 2.72200 -4.42000
v 0.55500 2.72200 -4.42000
v 0.55500 2.72200 -4.42000
v 0.55500 2.72200 -4.42000
v 0.55500 2.72200 -4.42000
v 0.55500 2.72200 -4.42000
v 0.55500 2.72200 -4.42000
v 0.55500 2.72200 -4.42000
v 0.55500 2.72200 -4.42000
v 0.55500 2.72200 -4.42000
v 0.55500 2.72200 -4.42000
v 0.55500 2.72200 -4.42000
v 0.60202 2.70672 -4.42000
v 0.59572 2.70672 -4.39649
v 0.57851 2.70672 -4.37928
v 0.55500 2.70672 -4.37298
v 0.53149 2.70672 -4.37928
v 0.51428 2.70672 -4.39649
v 0.50798 2.70672 -4.42000
v 0.51428 2.70672 -4.44351
v 0.53149 2.70672 -4.46072
v 0.55500 2.70672 -4.46702
v 0.57851 2.70672 -4.46072
v 0.59572 2.70672 -4.44351
v 0.63108 2.66672 -4.42000
v 0.62089 2.66672 -4.38196
v 0.59304 2.66672 -4.35411
v 0.55500 2.66672 -4.34392
v 0.51696 2.66672 -4.35411
v 0.48911 2.66672 -4.38196
v 0.47892 2.66672 -4.42000
v 0.48911 2.66672 -4.45804
v 0.51696 2.66672 -4.48589
v 0.55500 2.66672 -4.49608
v 0.59304 2.66672 -4.48589
v 0.62089 2.66672 -4.45804
v 0.63108 2.61728 -4.42000
v 0.62089 2.61728 -4.38196
v 0.59304 2.61728 -4.35411
v 0.55500 2.61728 -4.34392
v 0.51696 2.61728 -4.35411
v 0.48911 2.61728 -4.38196
v 0.47892 2.61728 -4.42000
v 0.48911 2.61728 -4.45804
v 0.51696 2.61728 -4.48589
v 0.55500 2.61728 -4.49608
v 0.59304 2.61728 -4.48589
v 0.62089 2.61728 -4.45804
v 0.60202 2.57728 -4.42000
v 0.59572 2.57728 -4.39649
v 0.57851 2.57728 -4.37928
v 0.55500 2.57728 -4.37298
v 0.53149 2.57728 -4.37928
v 0.51428 2.57728 -4.39649
v 0.50798 2.57728 -4.42000
v 0.51428 2.57728 -4.44351
v 0.53149 2.57728 -4.46072
v 0.55500 2.57728 -4.46702
v 0.57851 2.57728 -4.46072
v 0.59572 2.57728 -4.44351
v 0.55500 2.56200 -4.42000
v 0.55500 2.56200 -4.42000
v 0.55500 2.56200 -4.42000
v 0.55500 2.56200 -4.42000
v 0.55500 2.56200 -4.42000
v 0.55500 2.56200 -4.42000
v 0.55500 2.56200 -4.42000
v 0.55500 2.56200 -4.42000
v 0.55500 2.56200 -4.42000
v 0.55500 2.56200 -4.42000
v 0.55500 2.56200 -4.42000
v 0.55500 2.56200 -4.42000
v -3.00000 0.72000 4.00000
v 3.00000 0.72000 4.00000
v 3.00000 5.52000 4.00000
v -3.00000 5.52000 4.00000
v -3.00000 0.72000 4.18000
v 3.00000 0.72000 4.18000
v 3.00000 5.52000 4.18000
v -3.00000 5.52000 4.18000
v -3.18000 0.72000 -4.00000
v -3.00000 0.72000 -4.00000
v -3.00000 5.52000 -4.00000
v -3.18000 5.52000 -4.00000
v -3.18000 0.72000 4.00000
v -3.00000 0.72000 4.00000
v -3.00000 5.52000 4.00000
v -3.18000 5.52000 4.00000
v 3.00000 0.72000 -4.00000
v 3.18000 0.72000 -4.00000
v 3.18000 5.52000 -4.00000
v 3.00000 5.52000 -4.00000
v 3.00000 0.72000 4.00000
v 3.18000 0.72000 4.00000
v 3.18000 5.52000 4.00000
v 3.00000 5.52000 4.00000
v -3.00000 0.72000 -4.00000
v 3.00000 0.72000 -4.00000
v 3.00000 0.82000 -4.00000
v -3.00000 0.82000 -4.00000
v -3.00000 0.72000 4.00000
v 3.00000 0.72000 4.00000
v 3.00000 0.82000 4.00000
v -3.00000 0.82000 4.00000
v -3.00000 5.42000 -4.00000
v 3.00000 5.42000 -4.00000
v 3.00000 5.52000 -4.00000
v -3.00000 5.52000 -4.00000
v -3.00000 5.42000 4.00000
v 3.00000 5.42000 4.00000
v 3.00000 5.52000 4.00000
v -3.00000 5.52000 4.00000
v -3.11000 0.82000 -4.26000
v 3.11000 0.82000 -4.26000
v 3.11000 0.98000 -4.26000
v -3.11000 0.98000 -4.26000
v -3.11000 0.82000 -4.12000
v 3.11000 0.82000 -4.12000
v 3.11000 0.98000 -4.12000
v -3.11000 0.98000 -4.12000
v -3.11000 0.82000 4.12000
v 3.11000 0.82000 4.12000
v 3.11000 0.98000 4.12000
v -3.11000 0.98000 4.12000
v -3.11000 0.82000 4.26000
v 3.11000 0.82000 4.26000
v 3.11000 0.98000 4.26000
v -3.11000 0.98000 4.26000
v -3.11000 5.26000 -4.26000
v 3.11000 5.26000 -4.26000
v 3.11000 5.42000 -4.26000
v -3.11000 5.42000 -4.26000
v -3.11000 5.26000 -4.12000
v 3.11000 5.26000 -4.12000
v 3.11000 5.42000 -4.12000
v -3.11000 5.42000 -4.12000
v -3.11000 5.26000 4.12000
v 3.11000 5.26000 4.12000
v 3.11000 5.42000 4.12000
v -3.11000 5.42000 4.12000
v -3.11000 5.26000 4.26000
v 3.11000 5.26000 4.26000
v 3.11000 5.42000 4.26000
v -3.11000 5.42000 4.26000
v -2.96000 0.72000 -4.29000
v -2.80000 0.72000 -4.29000
v -2.80000 5.52000 -4.29000
v -2.96000 5.52000 -4.29000
v -2.96000 0.72000 -4.13000
v -2.80000 0.72000 -4.13000
v -2.80000 5.52000 -4.13000
v -2.96000 5.52000 -4.13000
v 2.80000 0.72000 -4.29000
v 2.96000 0.72000 -4.29000
v 2.96000 5.52000 -4.29000
v 2.80000 5.52000 -4.29000
v 2.80000 0.72000 -4.13000
v 2.96000 0.72000 -4.13000
v 2.96000 5.52000 -4.13000
v 2.80000 5.52000 -4.13000
v -1.58000 0.72000 -4.29000
v -1.42000 0.72000 -4.29000
v -1.42000 5.52000 -4.29000
v -1.58000 5.52000 -4.29000
v -1.58000 0.72000 -4.13000
v -1.42000 0.72000 -4.13000
v -1.42000 5.52000 -4.13000
v -1.58000 5.52000 -4.13000
v 1.42000 0.72000 -4.29000
v 1.58000 0.72000 -4.29000
v 1.58000 5.52000 -4.29000
v 1.42000 5.52000 -4.29000
v 1.42000 0.72000 -4.13000
v 1.58000 0.72000 -4.13000
v 1.58000 5.52000 -4.13000
v 1.42000 5.52000 -4.13000
v -2.96000 0.72000 4.13000
v -2.80000 0.72000 4.13000
v -2.80000 5.52000 4.13000
v -2.96000 5.52000 4.13000
v -2.96000 0.72000 4.29000
v -2.80000 0.72000 4.29000
v -2.80000 5.52000 4.29000
v -2.96000 5.52000 4.29000
v 2.80000 0.72000 4.13000
v 2.96000 0.72000 4.13000
v 2.96000 5.52000 4.13000
v 2.80000 5.52000 4.13000
v 2.80000 0.72000 4.29000
v 2.96000 0.72000 4.29000
v 2.96000 5.52000 4.29000
v 2.80000 5.52000 4.29000
v -2.50500 2.64500 -4.28000
v -1.45500 2.64500 -4.28000
v -1.45500 3.89500 -4.28000
v -2.50500 3.89500 -4.28000
v -2.50500 2.64500 -4.20000
v -1.45500 2.64500 -4.20000
v -1.45500 3.89500 -4.20000
v -2.50500 3.89500 -4.20000
v -2.60500 3.21000 -4.38000
v -1.35500 3.21000 -4.38000
v -1.35500 3.33000 -4.38000
v -2.60500 3.33000 -4.38000
v -2.60500 3.21000 -4.22000
v -1.35500 3.21000 -4.22000
v -1.35500 3.33000 -4.22000
v -2.60500 3.33000 -4.22000
v -2.04000 2.54500 -4.38000
v -1.92000 2.54500 -4.38000
v -1.92000 3.99500 -4.38000
v -2.04000 3.99500 -4.38000
v -2.04000 2.54500 -4.22000
v -1.92000 2.54500 -4.22000
v -1.92000 3.99500 -4.22000
v -2.04000 3.99500 -4.22000
v -2.66500 2.54500 -4.38000
v -2.54500 2.54500 -4.38000
v -2.54500 3.99500 -4.38000
v -2.66500 3.99500 -4.38000
v -2.66500 2.54500 -4.22000
v -2.54500 2.54500 -4.22000
v -2.54500 3.99500 -4.22000
v -2.66500 3.99500 -4.22000
v -1.41500 2.54500 -4.38000
v -1.29500 2.54500 -4.38000
v -1.29500 3.99500 -4.38000
v -1.41500 3.99500 -4.38000
v -1.41500 2.54500 -4.22000
v -1.29500 2.54500 -4.22000
v -1.29500 3.99500 -4.22000
v -1.41500 3.99500 -4.22000
v -2.64500 2.45500 -4.42000
v -1.31500 2.45500 -4.42000
v -1.31500 2.59500 -4.42000
v -2.64500 2.59500 -4.42000
v -2.64500 2.45500 -4.18000
v -1.31500 2.45500 -4.18000
v -1.31500 2.59500 -4.18000
v -2.64500 2.59500 -4.18000
v -2.91650 2.69500 -4.40000
v -2.57650 2.69500 -4.40000
v -2.57650 3.84500 -4.40000
v -2.91650 3.84500 -4.40000
v -2.91650 2.69500 -4.32000
v -2.57650 2.69500 -4.32000
v -2.57650 3.84500 -4.32000
v -2.91650 3.84500 -4.32000
v -1.38350 2.69500 -4.40000
v -1.04350 2.69500 -4.40000
v -1.04350 3.84500 -4.40000
v -1.38350 3.84500 -4.40000
v -1.38350 2.69500 -4.32000
v -1.04350 2.69500 -4.32000
v -1.04350 3.84500 -4.32000
v -1.38350 3.84500 -4.32000
v 1.45500 2.64500 -4.28000
v 2.50500 2.64500 -4.28000
v 2.50500 3.89500 -4.28000
v 1.45500 3.89500 -4.28000
v 1.45500 2.64500 -4.20000
v 2.50500 2.64500 -4.20000
v 2.50500 3.89500 -4.20000
v 1.45500 3.89500 -4.20000
v 1.35500 3.21000 -4.38000
v 2.60500 3.21000 -4.38000
v 2.60500 3.33000 -4.38000
v 1.35500 3.33000 -4.38000
v 1.35500 3.21000 -4.22000
v 2.60500 3.21000 -4.22000
v 2.60500 3.33000 -4.22000
v 1.35500 3.33000 -4.22000
v 1.92000 2.54500 -4.38000
v 2.04000 2.54500 -4.38000
v 2.04000 3.99500 -4.38000
v 1.92000 3.99500 -4.38000
v 1.92000 2.54500 -4.22000
v 2.04000 2.54500 -4.22000
v 2.04000 3.99500 -4.22000
v 1.92000 3.99500 -4.22000
v 1.29500 2.54500 -4.38000
v 1.41500 2.54500 -4.38000
v 1.41500 3.99500 -4.38000
v 1.29500 3.99500 -4.38000
v 1.29500 2.54500 -4.22000
v 1.41500 2.54500 -4.22000
v 1.41500 3.99500 -4.22000
v 1.29500 3.99500 -4.22000
v 2.54500 2.54500 -4.38000
v 2.66500 2.54500 -4.38000
v 2.66500 3.99500 -4.38000
v 2.54500 3.99500 -4.38000
v 2.54500 2.54500 -4.22000
v 2.66500 2.54500 -4.22000
v 2.66500 3.99500 -4.22000
v 2.54500 3.99500 -4.22000
v 1.31500 2.45500 -4.42000
v 2.64500 2.45500 -4.42000
v 2.64500 2.59500 -4.42000
v 1.31500 2.59500 -4.42000
v 1.31500 2.45500 -4.18000
v 2.64500 2.45500 -4.18000
v 2.64500 2.59500 -4.18000
v 1.31500 2.59500 -4.18000
v 1.04350 2.69500 -4.40000
v 1.38350 2.69500 -4.40000
v 1.38350 3.84500 -4.40000
v 1.04350 3.84500 -4.40000
v 1.04350 2.69500 -4.32000
v 1.38350 2.69500 -4.32000
v 1.38350 3.84500 -4.32000
v 1.04350 3.84500 -4.32000
v 2.57650 2.69500 -4.40000
v 2.91650 2.69500 -4.40000
v 2.91650 3.84500 -4.40000
v 2.57650 3.84500 -4.40000
v 2.57650 2.69500 -4.32000
v 2.91650 2.69500 -4.32000
v 2.91650 3.84500 -4.32000
v 2.57650 3.84500 -4.32000
v -2.76000 1.25250 -4.24750
v 2.76000 1.25250 -4.24750
v 2.76000 1.28750 -4.24750
v -2.76000 1.28750 -4.24750
v -2.76000 1.25250 -4.19250
v 2.76000 1.25250 -4.19250
v 2.76000 1.28750 -4.19250
v -2.76000 1.28750 -4.19250
v -2.76000 1.68250 -4.24750
v 2.76000 1.68250 -4.24750
v 2.76000 1.71750 -4.24750
v -2.76000 1.71750 -4.24750
v -2.76000 1.68250 -4.19250
v 2.76000 1.68250 -4.19250
v 2.76000 1.71750 -4.19250
v -2.76000 1.71750 -4.19250
v -2.76000 2.11250 -4.24750
v 2.76000 2.11250 -4.24750
v 2.76000 2.14750 -4.24750
v -2.76000 2.14750 -4.24750
v -2.76000 2.11250 -4.19250
v 2.76000 2.11250 -4.19250
v 2.76000 2.14750 -4.19250
v -2.76000 2.14750 -4.19250
v -2.76000 2.54250 -4.24750
v 2.76000 2.54250 -4.24750
v 2.76000 2.57750 -4.24750
v -2.76000 2.57750 -4.24750
v -2.76000 2.54250 -4.19250
v 2.76000 2.54250 -4.19250
v 2.76000 2.57750 -4.19250
v -2.76000 2.57750 -4.19250
v -2.76000 2.97250 -4.24750
v 2.76000 2.97250 -4.24750
v 2.76000 3.00750 -4.24750
v -2.76000 3.00750 -4.24750
v -2.76000 2.97250 -4.19250
v 2.76000 2.97250 -4.19250
v 2.76000 3.00750 -4.19250
v -2.76000 3.00750 -4.19250
v -2.76000 3.40250 -4.24750
v 2.76000 3.40250 -4.24750
v 2.76000 3.43750 -4.24750
v -2.76000 3.43750 -4.24750
v -2.76000 3.40250 -4.19250
v 2.76000 3.40250 -4.19250
v 2.76000 3.43750 -4.19250
v -2.76000 3.43750 -4.19250
v -2.76000 3.83250 -4.24750
v 2.76000 3.83250 -4.24750
v 2.76000 3.86750 -4.24750
v -2.76000 3.86750 -4.24750
v -2.76000 3.83250 -4.19250
v 2.76000 3.83250 -4.19250
v 2.76000 3.86750 -4.19250
v -2.76000 3.86750 -4.19250
v -2.76000 4.26250 -4.24750
v 2.76000 4.26250 -4.24750
v 2.76000 4.29750 -4.24750
v -2.76000 4.29750 -4.24750
v -2.76000 4.26250 -4.19250
v 2.76000 4.26250 -4.19250
v 2.76000 4.29750 -4.19250
v -2.76000 4.29750 -4.19250
v -2.76000 4.69250 -4.24750
v 2.76000 4.69250 -4.24750
v 2.76000 4.72750 -4.24750
v -2.76000 4.72750 -4.24750
v -2.76000 4.69250 -4.19250
v 2.76000 4.69250 -4.19250
v 2.76000 4.72750 -4.19250
v -2.76000 4.72750 -4.19250
v -3.00000 5.52000 -4.18000
v 3.00000 5.52000 -4.18000
v 3.00000 9.92000 -4.18000
v -3.00000 9.92000 -4.18000
v -3.00000 5.52000 -4.00000
v 3.00000 5.52000 -4.00000
v 3.00000 9.92000 -4.00000
v -3.00000 9.92000 -4.00000
v -3.00000 5.52000 4.00000
v 3.00000 5.52000 4.00000
v 3.00000 9.92000 4.00000
v -3.00000 9.92000 4.00000
v -3.00000 5.52000 4.18000
v 3.00000 5.52000 4.18000
v 3.00000 9.92000 4.18000
v -3.00000 9.92000 4.18000
v -3.18000 5.52000 -4.00000
v -3.00000 5.52000 -4.00000
v -3.00000 9.92000 -4.00000
v -3.18000 9.92000 -4.00000
v -3.18000 5.52000 4.00000
v -3.00000 5.52000 4.00000
v -3.00000 9.92000 4.00000
v -3.18000 9.92000 4.00000
v 3.00000 5.52000 -4.00000
v 3.18000 5.52000 -4.00000
v 3.18000 9.92000 -4.00000
v 3.00000 9.92000 -4.00000
v 3.00000 5.52000 4.00000
v 3.18000 5.52000 4.00000
v 3.18000 9.92000 4.00000
v 3.00000 9.92000 4.00000
v -3.00000 5.52000 -4.00000
v 3.00000 5.52000 -4.00000
v 3.00000 5.62000 -4.00000
v -3.00000 5.62000 -4.00000
v -3.00000 5.52000 4.00000
v 3.00000 5.52000 4.00000
v 3.00000 5.62000 4.00000
v -3.00000 5.62000 4.00000
v -3.00000 9.82000 -4.00000
v 3.00000 9.82000 -4.00000
v 3.00000 9.92000 -4.00000
v -3.00000 9.92000 -4.00000
v -3.00000 9.82000 4.00000
v 3.00000 9.82000 4.00000
v 3.00000 9.92000 4.00000
v -3.00000 9.92000 4.00000
v -3.11000 5.62000 -4.26000
v 3.11000 5.62000 -4.26000
v 3.11000 5.78000 -4.26000
v -3.11000 5.78000 -4.26000
v -3.11000 5.62000 -4.12000
v 3.11000 5.62000 -4.12000
v 3.11000 5.78000 -4.12000
v -3.11000 5.78000 -4.12000
v -3.11000 5.62000 4.12000
v 3.11000 5.62000 4.12000
v 3.11000 5.78000 4.12000
v -3.11000 5.78000 4.12000
v -3.11000 5.62000 4.26000
v 3.11000 5.62000 4.26000
v 3.11000 5.78000 4.26000
v -3.11000 5.78000 4.26000
v -3.11000 9.66000 -4.26000
v 3.11000 9.66000 -4.26000
v 3.11000 9.82000 -4.26000
v -3.11000 9.82000 -4.26000
v -3.11000 9.66000 -4.12000
v 3.11000 9.66000 -4.12000
v 3.11000 9.82000 -4.12000
v -3.11000 9.82000 -4.12000
v -3.11000 9.66000 4.12000
v 3.11000 9.66000 4.12000
v 3.11000 9.82000 4.12000
v -3.11000 9.82000 4.12000
v -3.11000 9.66000 4.26000
v 3.11000 9.66000 4.26000
v 3.11000 9.82000 4.26000
v -3.11000 9.82000 4.26000
v -2.96000 5.52000 -4.29000
v -2.80000 5.52000 -4.29000
v -2.80000 9.92000 -4.29000
v -2.96000 9.92000 -4.29000
v -2.96000 5.52000 -4.13000
v -2.80000 5.52000 -4.13000
v -2.80000 9.92000 -4.13000
v -2.96000 9.92000 -4.13000
v 2.80000 5.52000 -4.29000
v 2.96000 5.52000 -4.29000
v 2.96000 9.92000 -4.29000
v 2.80000 9.92000 -4.29000
v 2.80000 5.52000 -4.13000
v 2.96000 5.52000 -4.13000
v 2.96000 9.92000 -4.13000
v 2.80000 9.92000 -4.13000
v -1.58000 5.52000 -4.29000
v -1.42000 5.52000 -4.29000
v -1.42000 9.92000 -4.29000
v -1.58000 9.92000 -4.29000
v -1.58000 5.52000 -4.13000
v -1.42000 5.52000 -4.13000
v -1.42000 9.92000 -4.13000
v -1.58000 9.92000 -4.13000
v 1.42000 5.52000 -4.29000
v 1.58000 5.52000 -4.29000
v 1.58000 9.92000 -4.29000
v 1.42000 9.92000 -4.29000
v 1.42000 5.52000 -4.13000
v 1.58000 5.52000 -4.13000
v 1.58000 9.92000 -4.13000
v 1.42000 9.92000 -4.13000
v -2.96000 5.52000 4.13000
v -2.80000 5.52000 4.13000
v -2.80000 9.92000 4.13000
v -2.96000 9.92000 4.13000
v -2.96000 5.52000 4.29000
v -2.80000 5.52000 4.29000
v -2.80000 9.92000 4.29000
v -2.96000 9.92000 4.29000
v 2.80000 5.52000 4.13000
v 2.96000 5.52000 4.13000
v 2.96000 9.92000 4.13000
v 2.80000 9.92000 4.13000
v 2.80000 5.52000 4.29000
v 2.96000 5.52000 4.29000
v 2.96000 9.92000 4.29000
v 2.80000 9.92000 4.29000
v -2.17000 7.20200 -4.28000
v -1.07000 7.20200 -4.28000
v -1.07000 8.50200 -4.28000
v -2.17000 8.50200 -4.28000
v -2.17000 7.20200 -4.20000
v -1.07000 7.20200 -4.20000
v -1.07000 8.50200 -4.20000
v -2.17000 8.50200 -4.20000
v -2.27000 7.79200 -4.38000
v -0.97000 7.79200 -4.38000
v -0.97000 7.91200 -4.38000
v -2.27000 7.91200 -4.38000
v -2.27000 7.79200 -4.22000
v -0.97000 7.79200 -4.22000
v -0.97000 7.91200 -4.22000
v -2.27000 7.91200 -4.22000
v -1.68000 7.10200 -4.38000
v -1.56000 7.10200 -4.38000
v -1.56000 8.60200 -4.38000
v -1.68000 8.60200 -4.38000
v -1.68000 7.10200 -4.22000
v -1.56000 7.10200 -4.22000
v -1.56000 8.60200 -4.22000
v -1.68000 8.60200 -4.22000
v -2.33000 7.10200 -4.38000
v -2.21000 7.10200 -4.38000
v -2.21000 8.60200 -4.38000
v -2.33000 8.60200 -4.38000
v -2.33000 7.10200 -4.22000
v -2.21000 7.10200 -4.22000
v -2.21000 8.60200 -4.22000
v -2.33000 8.60200 -4.22000
v -1.03000 7.10200 -4.38000
v -0.91000 7.10200 -4.38000
v -0.91000 8.60200 -4.38000
v -1.03000 8.60200 -4.38000
v -1.03000 7.10200 -4.22000
v -0.91000 7.10200 -4.22000
v -0.91000 8.60200 -4.22000
v -1.03000 8.60200 -4.22000
v -2.31000 7.01200 -4.42000
v -0.93000 7.01200 -4.42000
v -0.93000 7.15200 -4.42000
v -2.31000 7.15200 -4.42000
v -2.31000 7.01200 -4.18000
v -0.93000 7.01200 -4.18000
v -0.93000 7.15200 -4.18000
v -2.31000 7.15200 -4.18000
v -2.59300 7.25400 -4.40000
v -2.25300 7.25400 -4.40000
v -2.25300 8.45000 -4.40000
v -2.59300 8.45000 -4.40000
v -2.59300 7.25400 -4.32000
v -2.25300 7.25400 -4.32000
v -2.25300 8.45000 -4.32000
v -2.59300 8.45000 -4.32000
v -0.98700 7.25400 -4.40000
v -0.64700 7.25400 -4.40000
v -0.64700 8.45000 -4.40000
v -0.98700 8.45000 -4.40000
v -0.98700 7.25400 -4.32000
v -0.64700 7.25400 -4.32000
v -0.64700 8.45000 -4.32000
v -0.98700 8.45000 -4.32000
v 1.07000 7.20200 -4.28000
v 2.17000 7.20200 -4.28000
v 2.17000 8.50200 -4.28000
v 1.07000 8.50200 -4.28000
v 1.07000 7.20200 -4.20000
v 2.17000 7.20200 -4.20000
v 2.17000 8.50200 -4.20000
v 1.07000 8.50200 -4.20000
v 0.97000 7.79200 -4.38000
v 2.27000 7.79200 -4.38000
v 2.27000 7.91200 -4.38000
v 0.97000 7.91200 -4.38000
v 0.97000 7.79200 -4.22000
v 2.27000 7.79200 -4.22000
v 2.27000 7.91200 -4.22000
v 0.97000 7.91200 -4.22000
v 1.56000 7.10200 -4.38000
v 1.68000 7.10200 -4.38000
v 1.68000 8.60200 -4.38000
v 1.56000 8.60200 -4.38000
v 1.56000 7.10200 -4.22000
v 1.68000 7.10200 -4.22000
v 1.68000 8.60200 -4.22000
v 1.56000 8.60200 -4.22000
v 0.91000 7.10200 -4.38000
v 1.03000 7.10200 -4.38000
v 1.03000 8.60200 -4.38000
v 0.91000 8.60200 -4.38000
v 0.91000 7.10200 -4.22000
v 1.03000 7.10200 -4.22000
v 1.03000 8.60200 -4.22000
v 0.91000 8.60200 -4.22000
v 2.21000 7.10200 -4.38000
v 2.33000 7.10200 -4.38000
v 2.33000 8.60200 -4.38000
v 2.21000 8.60200 -4.38000
v 2.21000 7.10200 -4.22000
v 2.33000 7.10200 -4.22000
v 2.33000 8.60200 -4.22000
v 2.21000 8.60200 -4.22000
v 0.93000 7.01200 -4.42000
v 2.31000 7.01200 -4.42000
v 2.31000 7.15200 -4.42000
v 0.93000 7.15200 -4.42000
v 0.93000 7.01200 -4.18000
v 2.31000 7.01200 -4.18000
v 2.31000 7.15200 -4.18000
v 0.93000 7.15200 -4.18000
v 0.64700 7.25400 -4.40000
v 0.98700 7.25400 -4.40000
v 0.98700 8.45000 -4.40000
v 0.64700 8.45000 -4.40000
v 0.64700 7.25400 -4.32000
v 0.98700 7.25400 -4.32000
v 0.98700 8.45000 -4.32000
v 0.64700 8.45000 -4.32000
v 2.25300 7.25400 -4.40000
v 2.59300 7.25400 -4.40000
v 2.59300 8.45000 -4.40000
v 2.25300 8.45000 -4.40000
v 2.25300 7.25400 -4.32000
v 2.59300 7.25400 -4.32000
v 2.59300 8.45000 -4.32000
v 2.25300 8.45000 -4.32000
v -0.56000 7.21200 -4.28000
v 0.56000 7.21200 -4.28000
v 0.56000 8.49200 -4.28000
v -0.56000 8.49200 -4.28000
v -0.56000 7.21200 -4.20000
v 0.56000 7.21200 -4.20000
v 0.56000 8.49200 -4.20000
v -0.56000 8.49200 -4.20000
v -0.66000 7.79200 -4.38000
v 0.66000 7.79200 -4.38000
v 0.66000 7.91200 -4.38000
v -0.66000 7.91200 -4.38000
v -0.66000 7.79200 -4.22000
v 0.66000 7.79200 -4.22000
v 0.66000 7.91200 -4.22000
v -0.66000 7.91200 -4.22000
v -0.06000 7.11200 -4.38000
v 0.06000 7.11200 -4.38000
v 0.06000 8.59200 -4.38000
v -0.06000 8.59200 -4.38000
v -0.06000 7.11200 -4.22000
v 0.06000 7.11200 -4.22000
v 0.06000 8.59200 -4.22000
v -0.06000 8.59200 -4.22000
v -0.72000 7.11200 -4.38000
v -0.60000 7.11200 -4.38000
v -0.60000 8.59200 -4.38000
v -0.72000 8.59200 -4.38000
v -0.72000 7.11200 -4.22000
v -0.60000 7.11200 -4.22000
v -0.60000 8.59200 -4.22000
v -0.72000 8.59200 -4.22000
v 0.60000 7.11200 -4.38000
v 0.72000 7.11200 -4.38000
v 0.72000 8.59200 -4.38000
v 0.60000 8.59200 -4.38000
v 0.60000 7.11200 -4.22000
v 0.72000 7.11200 -4.22000
v 0.72000 8.59200 -4.22000
v 0.60000 8.59200 -4.22000
v -0.70000 7.02200 -4.42000
v 0.70000 7.02200 -4.42000
v 0.70000 7.16200 -4.42000
v -0.70000 7.16200 -4.42000
v -0.70000 7.02200 -4.18000
v 0.70000 7.02200 -4.18000
v 0.70000 7.16200 -4.18000
v -0.70000 7.16200 -4.18000
v -0.98760 7.26320 -4.40000
v -0.64760 7.26320 -4.40000
v -0.64760 8.44080 -4.40000
v -0.98760 8.44080 -4.40000
v -0.98760 7.26320 -4.32000
v -0.64760 7.26320 -4.32000
v -0.64760 8.44080 -4.32000
v -0.98760 8.44080 -4.32000
v 0.64760 7.26320 -4.40000
v 0.98760 7.26320 -4.40000
v 0.98760 8.44080 -4.40000
v 0.64760 8.44080 -4.40000
v 0.64760 7.26320 -4.32000
v 0.98760 7.26320 -4.32000
v 0.98760 8.44080 -4.32000
v 0.64760 8.44080 -4.32000
v -3.24000 7.22700 -2.52500
v -3.16000 7.22700 -2.52500
v -3.16000 8.47700 -2.52500
v -3.24000 8.47700 -2.52500
v -3.24000 7.22700 -1.47500
v -3.16000 7.22700 -1.47500
v -3.16000 8.47700 -1.47500
v -3.24000 8.47700 -1.47500
v 3.16000 7.22700 -2.52500
v 3.24000 7.22700 -2.52500
v 3.24000 8.47700 -2.52500
v 3.16000 8.47700 -2.52500
v 3.16000 7.22700 -1.47500
v 3.24000 7.22700 -1.47500
v 3.24000 8.47700 -1.47500
v 3.16000 8.47700 -1.47500
v -3.24000 7.22700 1.47500
v -3.16000 7.22700 1.47500
v -3.16000 8.47700 1.47500
v -3.24000 8.47700 1.47500
v -3.24000 7.22700 2.52500
v -3.16000 7.22700 2.52500
v -3.16000 8.47700 2.52500
v -3.24000 8.47700 2.52500
v 3.16000 7.22700 1.47500
v 3.24000 7.22700 1.47500
v 3.24000 8.47700 1.47500
v 3.16000 8.47700 1.47500
v 3.16000 7.22700 2.52500
v 3.24000 7.22700 2.52500
v 3.24000 8.47700 2.52500
v 3.16000 8.47700 2.52500
v -2.01626 5.19000 -4.27309
v -1.89691 5.19000 -4.34626
v -1.89691 10.25000 -4.34626
v -2.01626 10.25000 -4.27309
v -1.94309 5.19000 -4.15374
v -1.82374 5.19000 -4.22691
v -1.82374 10.25000 -4.22691
v -1.94309 10.25000 -4.15374
v 1.89691 5.19000 -4.34626
v 2.01626 5.19000 -4.27309
v 2.01626 10.25000 -4.27309
v 1.89691 10.25000 -4.34626
v 1.82374 5.19000 -4.22691
v 1.94309 5.19000 -4.15374
v 1.94309 10.25000 -4.15374
v 1.82374 10.25000 -4.22691
v -3.45000 9.84765 -4.41586
v 3.45000 9.84765 -4.41586
v 3.45000 9.99235 -4.48414
v -3.45000 9.99235 -4.48414
v -3.45000 11.94765 0.03414
v 3.45000 11.94765 0.03414
v 3.45000 12.09235 -0.03414
v -3.45000 12.09235 -0.03414
v -3.45000 9.99235 4.48414
v 3.45000 9.99235 4.48414
v 3.45000 9.84765 4.41586
v -3.45000 9.84765 4.41586
v -3.45000 12.09235 0.03414
v 3.45000 12.09235 0.03414
v 3.45000 11.94765 -0.03414
v -3.45000 11.94765 -0.03414
v -3.47500 9.92374 -4.34836
v 3.47500 9.92374 -4.34836
v 3.47500 9.99609 -4.38250
v -3.47500 9.99609 -4.38250
v -3.47500 9.96641 -4.25792
v 3.47500 9.96641 -4.25792
v 3.47500 10.03876 -4.29206
v -3.47500 10.03876 -4.29206
v -3.47500 9.99609 4.38250
v 3.47500 9.99609 4.38250
v 3.47500 9.92374 4.34836
v -3.47500 9.92374 4.34836
v -3.47500 10.03876 4.29206
v 3.47500 10.03876 4.29206
v 3.47500 9.96641 4.25792
v -3.47500 9.96641 4.25792
v -3.47500 10.09874 -3.97752
v 3.47500 10.09874 -3.97752
v 3.47500 10.17109 -4.01166
v -3.47500 10.17109 -4.01166
v -3.47500 10.14141 -3.88709
v 3.47500 10.14141 -3.88709
v 3.47500 10.21376 -3.92123
v -3.47500 10.21376 -3.92123
v -3.47500 10.17109 4.01166
v 3.47500 10.17109 4.01166
v 3.47500 10.09874 3.97752
v -3.47500 10.09874 3.97752
v -3.47500 10.21376 3.92123
v 3.47500 10.21376 3.92123
v 3.47500 10.14141 3.88709
v -3.47500 10.14141 3.88709
v -3.47500 10.27374 -3.60669
v 3.47500 10.27374 -3.60669
v 3.47500 10.34609 -3.64083
v -3.47500 10.34609 -3.64083
v -3.47500 10.31641 -3.51625
v 3.47500 10.31641 -3.51625
v 3.47500 10.38876 -3.55039
v -3.47500 10.38876 -3.55039
v -3.47500 10.34609 3.64083
v 3.47500 10.34609 3.64083
v 3.47500 10.27374 3.60669
v -3.47500 10.27374 3.60669
v -3.47500 10.38876 3.55039
v 3.47500 10.38876 3.55039
v 3.47500 10.31641 3.51625
v -3.47500 10.31641 3.51625
v -3.47500 10.44874 -3.23586
v 3.47500 10.44874 -3.23586
v 3.47500 10.52109 -3.27000
v -3.47500 10.52109 -3.27000
v -3.47500 10.49141 -3.14542
v 3.47500 10.49141 -3.14542
v 3.47500 10.56376 -3.17956
v -3.47500 10.56376 -3.17956
v -3.47500 10.52109 3.27000
v 3.47500 10.52109 3.27000
v 3.47500 10.44874 3.23586
v -3.47500 10.44874 3.23586
v -3.47500 10.56376 3.17956
v 3.47500 10.56376 3.17956
v 3.47500 10.49141 3.14542
v -3.47500 10.49141 3.14542
v -3.47500 10.62374 -2.86502
v 3.47500 10.62374 -2.86502
v 3.47500 10.69609 -2.89916
v -3.47500 10.69609 -2.89916
v -3.47500 10.66641 -2.77459
v 3.47500 10.66641 -2.77459
v 3.47500 10.73876 -2.80873
v -3.47500 10.73876 -2.80873
v -3.47500 10.69609 2.89916
v 3.47500 10.69609 2.89916
v 3.47500 10.62374 2.86502
v -3.47500 10.62374 2.86502
v -3.47500 10.73876 2.80873
v 3.47500 10.73876 2.80873
v 3.47500 10.66641 2.77459
v -3.47500 10.66641 2.77459
v -3.47500 10.79874 -2.49419
v 3.47500 10.79874 -2.49419
v 3.47500 10.87109 -2.52833
v -3.47500 10.87109 -2.52833
v -3.47500 10.84141 -2.40375
v 3.47500 10.84141 -2.40375
v 3.47500 10.91376 -2.43789
v -3.47500 10.91376 -2.43789
v -3.47500 10.87109 2.52833
v 3.47500 10.87109 2.52833
v 3.47500 10.79874 2.49419
v -3.47500 10.79874 2.49419
v -3.47500 10.91376 2.43789
v 3.47500 10.91376 2.43789
v 3.47500 10.84141 2.40375
v -3.47500 10.84141 2.40375
v -3.47500 10.97374 -2.12336
v 3.47500 10.97374 -2.12336
v 3.47500 11.04609 -2.15750
v -3.47500 11.04609 -2.15750
v -3.47500 11.01641 -2.03292
v 3.47500 11.01641 -2.03292
v 3.47500 11.08876 -2.06706
v -3.47500 11.08876 -2.06706
v -3.47500 11.04609 2.15750
v 3.47500 11.04609 2.15750
v 3.47500 10.97374 2.12336
v -3.47500 10.97374 2.12336
v -3.47500 11.08876 2.06706
v 3.47500 11.08876 2.06706
v 3.47500 11.01641 2.03292
v -3.47500 11.01641 2.03292
v -3.47500 11.14874 -1.75252
v 3.47500 11.14874 -1.75252
v 3.47500 11.22109 -1.78666
v -3.47500 11.22109 -1.78666
v -3.47500 11.19141 -1.66209
v 3.47500 11.19141 -1.66209
v 3.47500 11.26376 -1.69623
v -3.47500 11.26376 -1.69623
v -3.47500 11.22109 1.78666
v 3.47500 11.22109 1.78666
v 3.47500 11.14874 1.75252
v -3.47500 11.14874 1.75252
v -3.47500 11.26376 1.69623
v 3.47500 11.26376 1.69623
v 3.47500 11.19141 1.66209
v -3.47500 11.19141 1.66209
v -3.47500 11.32374 -1.38169
v 3.47500 11.32374 -1.38169
v 3.47500 11.39609 -1.41583
v -3.47500 11.39609 -1.41583
v -3.47500 11.36641 -1.29125
v 3.47500 11.36641 -1.29125
v 3.47500 11.43876 -1.32539
v -3.47500 11.43876 -1.32539
v -3.47500 11.39609 1.41583
v 3.47500 11.39609 1.41583
v 3.47500 11.32374 1.38169
v -3.47500 11.32374 1.38169
v -3.47500 11.43876 1.32539
v 3.47500 11.43876 1.32539
v 3.47500 11.36641 1.29125
v -3.47500 11.36641 1.29125
v -3.47500 11.49874 -1.01086
v 3.47500 11.49874 -1.01086
v 3.47500 11.57109 -1.04500
v -3.47500 11.57109 -1.04500
v -3.47500 11.54141 -0.92042
v 3.47500 11.54141 -0.92042
v 3.47500 11.61376 -0.95456
v -3.47500 11.61376 -0.95456
v -3.47500 11.57109 1.04500
v 3.47500 11.57109 1.04500
v 3.47500 11.49874 1.01086
v -3.47500 11.49874 1.01086
v -3.47500 11.61376 0.95456
v 3.47500 11.61376 0.95456
v 3.47500 11.54141 0.92042
v -3.47500 11.54141 0.92042
v -3.47500 11.67374 -0.64002
v 3.47500 11.67374 -0.64002
v 3.47500 11.74609 -0.67416
v -3.47500 11.74609 -0.67416
v -3.47500 11.71641 -0.54959
v 3.47500 11.71641 -0.54959
v 3.47500 11.78876 -0.58373
v -3.47500 11.78876 -0.58373
v -3.47500 11.74609 0.67416
v 3.47500 11.74609 0.67416
v 3.47500 11.67374 0.64002
v -3.47500 11.67374 0.64002
v -3.47500 11.78876 0.58373
v 3.47500 11.78876 0.58373
v 3.47500 11.71641 0.54959
v -3.47500 11.71641 0.54959
v -3.47500 11.84874 -0.26919
v 3.47500 11.84874 -0.26919
v 3.47500 11.92109 -0.30333
v -3.47500 11.92109 -0.30333
v -3.47500 11.89141 -0.17875
v 3.47500 11.89141 -0.17875
v 3.47500 11.96376 -0.21289
v -3.47500 11.96376 -0.21289
v -3.47500 11.92109 0.30333
v 3.47500 11.92109 0.30333
v 3.47500 11.84874 0.26919
v -3.47500 11.84874 0.26919
v -3.47500 11.96376 0.21289
v 3.47500 11.96376 0.21289
v 3.47500 11.89141 0.17875
v -3.47500 11.89141 0.17875
v -3.22500 12.02000 0.12000
v 3.22500 12.02000 0.12000
v -3.22500 11.97408 0.11087
v 3.22500 11.97408 0.11087
v -3.22500 11.93515 0.08485
v 3.22500 11.93515 0.08485
v -3.22500 11.90913 0.04592
v 3.22500 11.90913 0.04592
v -3.22500 11.90000 0.00000
v 3.22500 11.90000 0.00000
v -3.22500 11.90913 -0.04592
v 3.22500 11.90913 -0.04592
v -3.22500 11.93515 -0.08485
v 3.22500 11.93515 -0.08485
v -3.22500 11.97408 -0.11087
v 3.22500 11.97408 -0.11087
v -3.22500 12.02000 -0.12000
v 3.22500 12.02000 -0.12000
v -3.22500 12.06592 -0.11087
v 3.22500 12.06592 -0.11087
v -3.22500 12.10485 -0.08485
v 3.22500 12.10485 -0.08485
v -3.22500 12.13087 -0.04592
v 3.22500 12.13087 -0.04592
v -3.22500 12.14000 -0.00000
v 3.22500 12.14000 -0.00000
v -3.22500 12.13087 0.04592
v 3.22500 12.13087 0.04592
v -3.22500 12.10485 0.08485
v 3.22500 12.10485 0.08485
v -3.22500 12.06592 0.11087
v 3.22500 12.06592 0.11087
v -3.45000 9.79000 -4.53000
v 3.45000 9.79000 -4.53000
v 3.45000 9.95000 -4.53000
v -3.45000 9.95000 -4.53000
v -3.45000 9.79000 -4.37000
v 3.45000 9.79000 -4.37000
v 3.45000 9.95000 -4.37000
v -3.45000 9.95000 -4.37000
v -3.45000 9.79000 4.37000
v 3.45000 9.79000 4.37000
v 3.45000 9.95000 4.37000
v -3.45000 9.95000 4.37000
v -3.45000 9.79000 4.53000
v 3.45000 9.79000 4.53000
v 3.45000 9.95000 4.53000
v -3.45000 9.95000 4.53000
v -1.95500 11.07000 0.92500
v -1.40500 11.07000 0.92500
v -1.40500 12.87000 0.92500
v -1.95500 12.87000 0.92500
v -1.95500 11.07000 1.47500
v -1.40500 11.07000 1.47500
v -1.40500 12.87000 1.47500
v -1.95500 12.87000 1.47500
v -2.04000 12.83000 0.84000
v -1.32000 12.83000 0.84000
v -1.32000 13.01000 0.84000
v -2.04000 13.01000 0.84000
v -2.04000 12.83000 1.56000
v -1.32000 12.83000 1.56000
v -1.32000 13.01000 1.56000
v -2.04000 13.01000 1.56000
v -1.86000 13.00000 1.02000
v -1.50000 13.00000 1.02000
v -1.50000 13.10000 1.02000
v -1.86000 13.10000 1.02000
v -1.86000 13.00000 1.38000
v -1.50000 13.00000 1.38000
v -1.50000 13.10000 1.38000
v -1.86000 13.10000 1.38000
v 1.80000 10.97000 0.80000
v 1.80000 12.42000 0.80000
v 1.73877 10.97000 0.81218
v 1.73877 12.42000 0.81218
v 1.68686 10.97000 0.84686
v 1.68686 12.42000 0.84686
v 1.65218 10.97000 0.89877
v 1.65218 12.42000 0.89877
v 1.64000 10.97000 0.96000
v 1.64000 12.42000 0.96000
v 1.65218 10.97000 1.02123
v 1.65218 12.42000 1.02123
v 1.68686 10.97000 1.07314
v 1.68686 12.42000 1.07314
v 1.73877 10.97000 1.10782
v 1.73877 12.42000 1.10782
v 1.80000 10.97000 1.12000
v 1.80000 12.42000 1.12000
v 1.86123 10.97000 1.10782
v 1.86123 12.42000 1.10782
v 1.91314 10.97000 1.07314
v 1.91314 12.42000 1.07314
v 1.94782 10.97000 1.02123
v 1.94782 12.42000 1.02123
v 1.96000 10.97000 0.96000
v 1.96000 12.42000 0.96000
v 1.94782 10.97000 0.89877
v 1.94782 12.42000 0.89877
v 1.91314 10.97000 0.84686
v 1.91314 12.42000 0.84686
v 1.86123 10.97000 0.81218
v 1.86123 12.42000 0.81218
v 1.55000 12.42000 1.14000
v 2.05000 12.42000 1.14000
v 1.55000 12.33000 1.11588
v 2.05000 12.33000 1.11588
v 1.55000 12.26412 1.05000
v 2.05000 12.26412 1.05000
v 1.55000 12.24000 0.96000
v 2.05000 12.24000 0.96000
v 1.55000 12.26412 0.87000
v 2.05000 12.26412 0.87000
v 1.55000 12.33000 0.80412
v 2.05000 12.33000 0.80412
v 1.55000 12.42000 0.78000
v 2.05000 12.42000 0.78000
v 1.55000 12.51000 0.80412
v 2.05000 12.51000 0.80412
v 1.55000 12.57588 0.87000
v 2.05000 12.57588 0.87000
v 1.55000 12.60000 0.96000
v 2.05000 12.60000 0.96000
v 1.55000 12.57588 1.05000
v 2.05000 12.57588 1.05000
v 1.55000 12.51000 1.11588
v 2.05000 12.51000 1.11588
v -2.55000 3.65000 -4.36500
v -1.75000 3.65000 -4.36500
v -2.55000 3.61767 -4.37550
v -1.75000 3.61767 -4.37550
v -2.55000 3.59769 -4.40300
v -1.75000 3.59769 -4.40300
v -2.55000 3.59769 -4.43700
v -1.75000 3.59769 -4.43700
v -2.55000 3.61767 -4.46450
v -1.75000 3.61767 -4.46450
v -2.55000 3.65000 -4.47500
v -1.75000 3.65000 -4.47500
v -2.55000 3.68233 -4.46450
v -1.75000 3.68233 -4.46450
v -2.55000 3.70231 -4.43700
v -1.75000 3.70231 -4.43700
v -2.55000 3.70231 -4.40300
v -1.75000 3.70231 -4.40300
v -2.55000 3.68233 -4.37550
v -1.75000 3.68233 -4.37550
v -1.97500 3.19000 -4.48000
v -1.32500 3.19000 -4.48000
v -1.32500 3.61000 -4.48000
v -1.97500 3.61000 -4.48000
v -1.97500 3.19000 -4.42000
v -1.32500 3.19000 -4.42000
v -1.32500 3.61000 -4.42000
v -1.97500 3.61000 -4.42000
v 2.35000 3.35000 -4.47500
v 2.35000 3.95000 -4.47500
v 2.32250 3.35000 -4.46763
v 2.32250 3.95000 -4.46763
v 2.30237 3.35000 -4.44750
v 2.30237 3.95000 -4.44750
v 2.29500 3.35000 -4.42000
v 2.29500 3.95000 -4.42000
v 2.30237 3.35000 -4.39250
v 2.30237 3.95000 -4.39250
v 2.32250 3.35000 -4.37237
v 2.32250 3.95000 -4.37237
v 2.35000 3.35000 -4.36500
v 2.35000 3.95000 -4.36500
v 2.37750 3.35000 -4.37237
v 2.37750 3.95000 -4.37237
v 2.39763 3.35000 -4.39250
v 2.39763 3.95000 -4.39250
v 2.40500 3.35000 -4.42000
v 2.40500 3.95000 -4.42000
v 2.39763 3.35000 -4.44750
v 2.39763 3.95000 -4.44750
v 2.37750 3.35000 -4.46763
v 2.37750 3.95000 -4.46763
v 2.35000 3.33000 -4.44000
v 2.35000 3.33000 -4.44000
v 2.35000 3.33000 -4.44000
v 2.35000 3.33000 -4.44000
v 2.35000 3.33000 -4.44000
v 2.35000 3.33000 -4.44000
v 2.35000 3.33000 -4.44000
v 2.35000 3.33000 -4.44000
v 2.35000 3.33000 -4.44000
v 2.35000 3.33000 -4.44000
v 2.35000 3.33000 -4.44000
v 2.35000 3.33000 -4.44000
v 2.45580 3.29562 -4.44000
v 2.44163 3.29562 -4.38710
v 2.40290 3.29562 -4.34837
v 2.35000 3.29562 -4.33420
v 2.29710 3.29562 -4.34837
v 2.25837 3.29562 -4.38710
v 2.24420 3.29562 -4.44000
v 2.25837 3.29562 -4.49290
v 2.29710 3.29562 -4.53163
v 2.35000 3.29562 -4.54580
v 2.40290 3.29562 -4.53163
v 2.44163 3.29562 -4.49290
v 2.52119 3.20562 -4.44000
v 2.49826 3.20562 -4.35440
v 2.43560 3.20562 -4.29174
v 2.35000 3.20562 -4.26881
v 2.26440 3.20562 -4.29174
v 2.20174 3.20562 -4.35440
v 2.17881 3.20562 -4.44000
v 2.20174 3.20562 -4.52560
v 2.26440 3.20562 -4.58826
v 2.35000 3.20562 -4.61119
v 2.43560 3.20562 -4.58826
v 2.49826 3.20562 -4.52560
v 2.52119 3.09438 -4.44000
v 2.49826 3.09438 -4.35440
v 2.43560 3.09438 -4.29174
v 2.35000 3.09438 -4.26881
v 2.26440 3.09438 -4.29174
v 2.20174 3.09438 -4.35440
v 2.17881 3.09438 -4.44000
v 2.20174 3.09438 -4.52560
v 2.26440 3.09438 -4.58826
v 2.35000 3.09438 -4.61119
v 2.43560 3.09438 -4.58826
v 2.49826 3.09438 -4.52560
v 2.45580 3.00438 -4.44000
v 2.44163 3.00438 -4.38710
v 2.40290 3.00438 -4.34837
v 2.35000 3.00438 -4.33420
v 2.29710 3.00438 -4.34837
v 2.25837 3.00438 -4.38710
v 2.24420 3.00438 -4.44000
v 2.25837 3.00438 -4.49290
v 2.29710 3.00438 -4.53163
v 2.35000 3.00438 -4.54580
v 2.40290 3.00438 -4.53163
v 2.44163 3.00438 -4.49290
v 2.35000 2.97000 -4.44000
v 2.35000 2.97000 -4.44000
v 2.35000 2.97000 -4.44000
v 2.35000 2.97000 -4.44000
v 2.35000 2.97000 -4.44000
v 2.35000 2.97000 -4.44000
v 2.35000 2.97000 -4.44000
v 2.35000 2.97000 -4.44000
v 2.35000 2.97000 -4.44000
v 2.35000 2.97000 -4.44000
v 2.35000 2.97000 -4.44000
v 2.35000 2.97000 -4.44000
g stone_plinth_base
usemtl Mat_StoneFoundation
f 1 2 3 4
f 5 8 7 6
f 1 5 6 2
f 2 6 7 3
f 3 7 8 4
f 4 8 5 1
g stone_plinth_raised
f 9 10 11 12
f 13 16 15 14
f 9 13 14 10
f 10 14 15 11
f 11 15 16 12
f 12 16 13 9
g stone_block_front_0
f 17 18 19 20
f 21 24 23 22
f 17 21 22 18
f 18 22 23 19
f 19 23 24 20
f 20 24 21 17
g stone_block_front_1
f 25 26 27 28
f 29 32 31 30
f 25 29 30 26
f 26 30 31 27
f 27 31 32 28
f 28 32 29 25
g stone_block_front_2
f 33 34 35 36
f 37 40 39 38
f 33 37 38 34
f 34 38 39 35
f 35 39 40 36
f 36 40 37 33
g stone_block_front_3
f 41 42 43 44
f 45 48 47 46
f 41 45 46 42
f 42 46 47 43
f 43 47 48 44
f 44 48 45 41
g stone_block_front_4
f 49 50 51 52
f 53 56 55 54
f 49 53 54 50
f 50 54 55 51
f 51 55 56 52
f 52 56 53 49
g stone_block_back_0
f 57 58 59 60
f 61 64 63 62
f 57 61 62 58
f 58 62 63 59
f 59 63 64 60
f 60 64 61 57
g stone_block_back_1
f 65 66 67 68
f 69 72 71 70
f 65 69 70 66
f 66 70 71 67
f 67 71 72 68
f 68 72 69 65
g stone_block_back_2
f 73 74 75 76
f 77 80 79 78
f 73 77 78 74
f 74 78 79 75
f 75 79 80 76
f 76 80 77 73
g stone_block_back_3
f 81 82 83 84
f 85 88 87 86
f 81 85 86 82
f 82 86 87 83
f 83 87 88 84
f 84 88 85 81
g stone_block_back_4
f 89 90 91 92
f 93 96 95 94
f 89 93 94 90
f 90 94 95 91
f 91 95 96 92
f 92 96 93 89
g stone_block_left_0
f 97 98 99 100
f 101 104 103 102
f 97 101 102 98
f 98 102 103 99
f 99 103 104 100
f 100 104 101 97
g stone_block_left_1
f 105 106 107 108
f 109 112 111 110
f 105 109 110 106
f 106 110 111 107
f 107 111 112 108
f 108 112 109 105
g stone_block_left_2
f 113 114 115 116
f 117 120 119 118
f 113 117 118 114
f 114 118 119 115
f 115 119 120 116
f 116 120 117 113
g stone_block_left_3
f 121 122 123 124
f 125 128 127 126
f 121 125 126 122
f 122 126 127 123
f 123 127 128 124
f 124 128 125 121
g stone_block_left_4
f 129 130 131 132
f 133 136 135 134
f 129 133 134 130
f 130 134 135 131
f 131 135 136 132
f 132 136 133 129
g stone_block_left_5
f 137 138 139 140
f 141 144 143 142
f 137 141 142 138
f 138 142 143 139
f 139 143 144 140
f 140 144 141 137
g stone_block_right_0
f 145 146 147 148
f 149 152 151 150
f 145 149 150 146
f 146 150 151 147
f 147 151 152 148
f 148 152 149 145
g stone_block_right_1
f 153 154 155 156
f 157 160 159 158
f 153 157 158 154
f 154 158 159 155
f 155 159 160 156
f 156 160 157 153
g stone_block_right_2
f 161 162 163 164
f 165 168 167 166
f 161 165 166 162
f 162 166 167 163
f 163 167 168 164
f 164 168 165 161
g stone_block_right_3
f 169 170 171 172
f 173 176 175 174
f 169 173 174 170
f 170 174 175 171
f 171 175 176 172
f 172 176 173 169
g stone_block_right_4
f 177 178 179 180
f 181 184 183 182
f 177 181 182 178
f 178 182 183 179
f 179 183 184 180
f 180 184 181 177
g stone_block_right_5
f 185 186 187 188
f 189 192 191 190
f 185 189 190 186
f 186 190 191 187
f 187 191 192 188
f 188 192 189 185
g GalakasMidCity_MerchantNarrow_W03D04_F01_R01U02L01_A01_lower_front_left_wall
usemtl Mat_BrickWall
f 193 194 195 196
f 197 200 199 198
f 193 197 198 194
f 194 198 199 195
f 195 199 200 196
f 196 200 197 193
g GalakasMidCity_MerchantNarrow_W03D04_F01_R01U02L01_A01_lower_front_right_wall
f 201 202 203 204
f 205 208 207 206
f 201 205 206 202
f 202 206 207 203
f 203 207 208 204
f 204 208 205 201
g GalakasMidCity_MerchantNarrow_W03D04_F01_R01U02L01_A01_lower_front_above_door
f 209 210 211 212
f 213 216 215 214
f 209 213 214 210
f 210 214 215 211
f 211 215 216 212
f 212 216 213 209
g GalakasMidCity_MerchantNarrow_W03D04_F01_R01U02L01_A01_lower_main_door_slab
usemtl Mat_WoodDark
f 217 218 219 220
f 221 224 223 222
f 217 221 222 218
f 218 222 223 219
f 219 223 224 220
f 220 224 221 217
g GalakasMidCity_MerchantNarrow_W03D04_F01_R01U02L01_A01_lower_main_door_plank_0
usemtl Mat_WoodWeathered
f 225 226 227 228
f 229 232 231 230
f 225 229 230 226
f 226 230 231 227
f 227 231 232 228
f 228 232 229 225
g GalakasMidCity_MerchantNarrow_W03D04_F01_R01U02L01_A01_lower_main_door_plank_1
f 233 234 235 236
f 237 240 239 238
f 233 237 238 234
f 234 238 239 235
f 235 239 240 236
f 236 240 237 233
g GalakasMidCity_MerchantNarrow_W03D04_F01_R01U02L01_A01_lower_main_door_plank_2
f 241 242 243 244
f 245 248 247 246
f 241 245 246 242
f 242 246 247 243
f 243 247 248 244
f 244 248 245 241
g GalakasMidCity_MerchantNarrow_W03D04_F01_R01U02L01_A01_lower_main_door_plank_3
f 249 250 251 252
f 253 256 255 254
f 249 253 254 250
f 250 254 255 251
f 251 255 256 252
f 252 256 253 249
g GalakasMidCity_MerchantNarrow_W03D04_F01_R01U02L01_A01_lower_main_door_plank_4
f 257 258 259 260
f 261 264 263 262
f 257 261 262 258
f 258 262 263 259
f 259 263 264 260
f 260 264 261 257
g GalakasMidCity_MerchantNarrow_W03D04_F01_R01U02L01_A01_lower_main_door_frame_l
usemtl Mat_WoodDark
f 265 266 267 268
f 269 272 271 270
f 265 269 270 266
f 266 270 271 267
f 267 271 272 268
f 268 272 269 265
g GalakasMidCity_MerchantNarrow_W03D04_F01_R01U02L01_A01_lower_main_door_frame_r
f 273 274 275 276
f 277 280 279 278
f 273 277 278 274
f 274 278 279 275
f 275 279 280 276
f 276 280 277 273
g GalakasMidCity_MerchantNarrow_W03D04_F01_R01U02L01_A01_lower_main_door_lintel
f 281 282 283 284
f 285 288 287 286
f 281 285 286 282
f 282 286 287 283
f 283 287 288 284
f 284 288 285 281
g GalakasMidCity_MerchantNarrow_W03D04_F01_R01U02L01_A01_lower_main_door_band_0
usemtl Mat_MetalDark
f 289 290 291 292
f 293 296 295 294
f 289 293 294 290
f 290 294 295 291
f 291 295 296 292
f 292 296 293 289
g GalakasMidCity_MerchantNarrow_W03D04_F01_R01U02L01_A01_lower_main_door_band_1
f 297 298 299 300
f 301 304 303 302
f 297 301 302 298
f 298 302 303 299
f 299 303 304 300
f 300 304 301 297
g GalakasMidCity_MerchantNarrow_W03D04_F01_R01U02L01_A01_lower_main_door_band_2
f 305 306 307 308
f 309 312 311 310
f 305 309 310 306
f 306 310 311 307
f 307 311 312 308
f 308 312 309 305
g GalakasMidCity_MerchantNarrow_W03D04_F01_R01U02L01_A01_lower_main_door_hinge_pin_0
f 313 315 316 314
f 315 317 318 316
f 317 319 320 318
f 319 321 322 320
f 321 323 324 322
f 323 325 326 324
f 325 327 328 326
f 327 329 330 328
f 329 331 332 330
f 331 333 334 332
f 333 335 336 334
f 335 313 314 336
g GalakasMidCity_MerchantNarrow_W03D04_F01_R01U02L01_A01_lower_main_door_hinge_pin_0_capA
f 335 333 331 329 327 325 323 321 319 317 315 313
g GalakasMidCity_MerchantNarrow_W03D04_F01_R01U02L01_A01_lower_main_door_hinge_pin_0_capB
f 314 316 318 320 322 324 326 328 330 332 334 336
g GalakasMidCity_MerchantNarrow_W03D04_F01_R01U02L01_A01_lower_main_door_hinge_pin_1
f 337 339 340 338
f 339 341 342 340
f 341 343 344 342
f 343 345 346 344
f 345 347 348 346
f 347 349 350 348
f 349 351 352 350
f 351 353 354 352
f 353 355 356 354
f 355 357 358 356
f 357 359 360 358
f 359 337 338 360
g GalakasMidCity_MerchantNarrow_W03D04_F01_R01U02L01_A01_lower_main_door_hinge_pin_1_capA
f 359 357 355 353 351 349 347 345 343 341 339 337
g GalakasMidCity_MerchantNarrow_W03D04_F01_R01U02L01_A01_lower_main_door_hinge_pin_1_capB
f 338 340 342 344 346 348 350 352 354 356 358 360
g GalakasMidCity_MerchantNarrow_W03D04_F01_R01U02L01_A01_lower_main_door_knob
f 361 362 374 373
f 362 363 375 374
f 363 364 376 375
f 364 365 377 376
f 365 366 378 377
f 366 367 379 378
f 367 368 380 379
f 368 369 381 380
f 369 370 382 381
f 370 371 383 382
f 371 372 384 383
f 372 361 373 384
f 373 374 386 385
f 374 375 387 386
f 375 376 388 387
f 376 377 389 388
f 377 378 390 389
f 378 379 391 390
f 379 380 392 391
f 380 381 393 392
f 381 382 394 393
f 382 383 395 394
f 383 384 396 395
f 384 373 385 396
f 385 386 398 397
f 386 387 399 398
f 387 388 400 399
f 388 389 401 400
f 389 390 402 401
f 390 391 403 402
f 391 392 404 403
f 392 393 405 404
f 393 394 406 405
f 394 395 407 406
f 395 396 408 407
f 396 385 397 408
f 397 398 410 409
f 398 399 411 410
f 399 400 412 411
f 400 401 413 412
f 401 402 414 413
f 402 403 415 414
f 403 404 416 415
f 404 405 417 416
f 405 406 418 417
f 406 407 419 418
f 407 408 420 419
f 408 397 409 420
f 409 410 422 421
f 410 411 423 422
f 411 412 424 423
f 412 413 425 424
f 413 414 426 425
f 414 415 427 426
f 415 416 428 427
f 416 417 429 428
f 417 418 430 429
f 418 419 431 430
f 419 420 432 431
f 420 409 421 432
g GalakasMidCity_MerchantNarrow_W03D04_F01_R01U02L01_A01_lower_back_wall
usemtl Mat_BrickWall
f 433 434 435 436
f 437 440 439 438
f 433 437 438 434
f 434 438 439 435
f 435 439 440 436
f 436 440 437 433
g GalakasMidCity_MerchantNarrow_W03D04_F01_R01U02L01_A01_lower_left_wall
f 441 442 443 444
f 445 448 447 446
f 441 445 446 442
f 442 446 447 443
f 443 447 448 444
f 444 448 445 441
g GalakasMidCity_MerchantNarrow_W03D04_F01_R01U02L01_A01_lower_right_wall
f 449 450 451 452
f 453 456 455 454
f 449 453 454 450
f 450 454 455 451
f 451 455 456 452
f 452 456 453 449
g GalakasMidCity_MerchantNarrow_W03D04_F01_R01U02L01_A01_lower_floor_cap
usemtl Mat_WoodDark
f 457 458 459 460
f 461 464 463 462
f 457 461 462 458
f 458 462 463 459
f 459 463 464 460
f 460 464 461 457
g GalakasMidCity_MerchantNarrow_W03D04_F01_R01U02L01_A01_lower_ceiling_cap
f 465 466 467 468
f 469 472 471 470
f 465 469 470 466
f 466 470 471 467
f 467 471 472 468
f 468 472 469 465
g GalakasMidCity_MerchantNarrow_W03D04_F01_R01U02L01_A01_lower_front_course_89
f 473 474 475 476
f 477 480 479 478
f 473 477 478 474
f 474 478 479 475
f 475 479 480 476
f 476 480 477 473
g GalakasMidCity_MerchantNarrow_W03D04_F01_R01U02L01_A01_lower_back_course_89
f 481 482 483 484
f 485 488 487 486
f 481 485 486 482
f 482 486 487 483
f 483 487 488 484
f 484 488 485 481
g GalakasMidCity_MerchantNarrow_W03D04_F01_R01U02L01_A01_lower_front_course_534
f 489 490 491 492
f 493 496 495 494
f 489 493 494 490
f 490 494 495 491
f 491 495 496 492
f 492 496 493 489
g GalakasMidCity_MerchantNarrow_W03D04_F01_R01U02L01_A01_lower_back_course_534
f 497 498 499 500
f 501 504 503 502
f 497 501 502 498
f 498 502 503 499
f 499 503 504 500
f 500 504 501 497
g GalakasMidCity_MerchantNarrow_W03D04_F01_R01U02L01_A01_lower_front_post_-2_9
f 505 506 507 508
f 509 512 511 510
f 505 509 510 506
f 506 510 511 507
f 507 511 512 508
f 508 512 509 505
g GalakasMidCity_MerchantNarrow_W03D04_F01_R01U02L01_A01_lower_front_post_2_9
f 513 514 515 516
f 517 520 519 518
f 513 517 518 514
f 514 518 519 515
f 515 519 520 516
f 516 520 517 513
g GalakasMidCity_MerchantNarrow_W03D04_F01_R01U02L01_A01_lower_front_post_-1_5
f 521 522 523 524
f 525 528 527 526
f 521 525 526 522
f 522 526 527 523
f 523 527 528 524
f 524 528 525 521
g GalakasMidCity_MerchantNarrow_W03D04_F01_R01U02L01_A01_lower_front_post_1_5
f 529 530 531 532
f 533 536 535 534
f 529 533 534 530
f 530 534 535 531
f 531 535 536 532
f 532 536 533 529
g GalakasMidCity_MerchantNarrow_W03D04_F01_R01U02L01_A01_lower_back_post_-2_9
f 537 538 539 540
f 541 544 543 542
f 537 541 542 538
f 538 542 543 539
f 539 543 544 540
f 540 544 541 537
g GalakasMidCity_MerchantNarrow_W03D04_F01_R01U02L01_A01_lower_back_post_2_9
f 545 546 547 548
f 549 552 551 550
f 545 549 550 546
f 546 550 551 547
f 547 551 552 548
f 548 552 549 545
g GalakasMidCity_MerchantNarrow_W03D04_F01_R01U02L01_A01_lower_front_window_0_glass
usemtl Mat_GlassDirty
f 553 554 555 556
f 557 560 559 558
f 553 557 558 554
f 554 558 559 555
f 555 559 560 556
f 556 560 557 553
g GalakasMidCity_MerchantNarrow_W03D04_F01_R01U02L01_A01_lower_front_window_0_frame_top
usemtl Mat_WoodDark
f 561 562 563 564
f 565 568 567 566
f 561 565 566 562
f 562 566 567 563
f 563 567 568 564
f 564 568 565 561
g GalakasMidCity_MerchantNarrow_W03D04_F01_R01U02L01_A01_lower_front_window_0_frame_mid_v
f 569 570 571 572
f 573 576 575 574
f 569 573 574 570
f 570 574 575 571
f 571 575 576 572
f 572 576 573 569
g GalakasMidCity_MerchantNarrow_W03D04_F01_R01U02L01_A01_lower_front_window_0_frame_l
f 577 578 579 580
f 581 584 583 582
f 577 581 582 578
f 578 582 583 579
f 579 583 584 580
f 580 584 581 577
g GalakasMidCity_MerchantNarrow_W03D04_F01_R01U02L01_A01_lower_front_window_0_frame_r
f 585 586 587 588
f 589 592 591 590
f 585 589 590 586
f 586 590 591 587
f 587 591 592 588
f 588 592 589 585
g GalakasMidCity_MerchantNarrow_W03D04_F01_R01U02L01_A01_lower_front_window_0_sill
f 593 594 595 596
f 597 600 599 598
f 593 597 598 594
f 594 598 599 595
f 595 599 600 596
f 596 600 597 593
g GalakasMidCity_MerchantNarrow_W03D04_F01_R01U02L01_A01_lower_front_window_0_shutter_l
usemtl Mat_WoodWeathered
f 601 602 603 604
f 605 608 607 606
f 601 605 606 602
f 602 606 607 603
f 603 607 608 604
f 604 608 605 601
g GalakasMidCity_MerchantNarrow_W03D04_F01_R01U02L01_A01_lower_front_window_0_shutter_r
f 609 610 611 612
f 613 616 615 614
f 609 613 614 610
f 610 614 615 611
f 611 615 616 612
f 612 616 613 609
g GalakasMidCity_MerchantNarrow_W03D04_F01_R01U02L01_A01_lower_front_window_1_glass
usemtl Mat_GlassDirty
f 617 618 619 620
f 621 624 623 622
f 617 621 622 618
f 618 622 623 619
f 619 623 624 620
f 620 624 621 617
g GalakasMidCity_MerchantNarrow_W03D04_F01_R01U02L01_A01_lower_front_window_1_frame_top
usemtl Mat_WoodDark
f 625 626 627 628
f 629 632 631 630
f 625 629 630 626
f 626 630 631 627
f 627 631 632 628
f 628 632 629 625
g GalakasMidCity_MerchantNarrow_W03D04_F01_R01U02L01_A01_lower_front_window_1_frame_mid_v
f 633 634 635 636
f 637 640 639 638
f 633 637 638 634
f 634 638 639 635
f 635 639 640 636
f 636 640 637 633
g GalakasMidCity_MerchantNarrow_W03D04_F01_R01U02L01_A01_lower_front_window_1_frame_l
f 641 642 643 644
f 645 648 647 646
f 641 645 646 642
f 642 646 647 643
f 643 647 648 644
f 644 648 645 641
g GalakasMidCity_MerchantNarrow_W03D04_F01_R01U02L01_A01_lower_front_window_1_frame_r
f 649 650 651 652
f 653 656 655 654
f 649 653 654 650
f 650 654 655 651
f 651 655 656 652
f 652 656 653 649
g GalakasMidCity_MerchantNarrow_W03D04_F01_R01U02L01_A01_lower_front_window_1_sill
f 657 658 659 660
f 661 664 663 662
f 657 661 662 658
f 658 662 663 659
f 659 663 664 660
f 660 664 661 657
g GalakasMidCity_MerchantNarrow_W03D04_F01_R01U02L01_A01_lower_front_window_1_shutter_l
usemtl Mat_WoodWeathered
f 665 666 667 668
f 669 672 671 670
f 665 669 670 666
f 666 670 671 667
f 667 671 672 668
f 668 672 669 665
g GalakasMidCity_MerchantNarrow_W03D04_F01_R01U02L01_A01_lower_front_window_1_shutter_r
f 673 674 675 676
f 677 680 679 678
f 673 677 678 674
f 674 678 679 675
f 675 679 680 676
f 676 680 677 673
g GalakasMidCity_MerchantNarrow_W03D04_F01_R01U02L01_A01_brick_front_mortar_0
usemtl Mat_SootyBrick
f 681 682 683 684
f 685 688 687 686
f 681 685 686 682
f 682 686 687 683
f 683 687 688 684
f 684 688 685 681
g GalakasMidCity_MerchantNarrow_W03D04_F01_R01U02L01_A01_brick_front_mortar_1
f 689 690 691 692
f 693 696 695 694
f 689 693 694 690
f 690 694 695 691
f 691 695 696 692
f 692 696 693 689
g GalakasMidCity_MerchantNarrow_W03D04_F01_R01U02L01_A01_brick_front_mortar_2
f 697 698 699 700
f 701 704 703 702
f 697 701 702 698
f 698 702 703 699
f 699 703 704 700
f 700 704 701 697
g GalakasMidCity_MerchantNarrow_W03D04_F01_R01U02L01_A01_brick_front_mortar_3
f 705 706 707 708
f 709 712 711 710
f 705 709 710 706
f 706 710 711 707
f 707 711 712 708
f 708 712 709 705
g GalakasMidCity_MerchantNarrow_W03D04_F01_R01U02L01_A01_brick_front_mortar_4
f 713 714 715 716
f 717 720 719 718
f 713 717 718 714
f 714 718 719 715
f 715 719 720 716
f 716 720 717 713
g GalakasMidCity_MerchantNarrow_W03D04_F01_R01U02L01_A01_brick_front_mortar_5
f 721 722 723 724
f 725 728 727 726
f 721 725 726 722
f 722 726 727 723
f 723 727 728 724
f 724 728 725 721
g GalakasMidCity_MerchantNarrow_W03D04_F01_R01U02L01_A01_brick_front_mortar_6
f 729 730 731 732
f 733 736 735 734
f 729 733 734 730
f 730 734 735 731
f 731 735 736 732
f 732 736 733 729
g GalakasMidCity_MerchantNarrow_W03D04_F01_R01U02L01_A01_brick_front_mortar_7
f 737 738 739 740
f 741 744 743 742
f 737 741 742 738
f 738 742 743 739
f 739 743 744 740
f 740 744 741 737
g GalakasMidCity_MerchantNarrow_W03D04_F01_R01U02L01_A01_brick_front_mortar_8
f 745 746 747 748
f 749 752 751 750
f 745 749 750 746
f 746 750 751 747
f 747 751 752 748
f 748 752 749 745
g GalakasMidCity_MerchantNarrow_W03D04_F01_R01U02L01_A01_upper1_front_wall
usemtl Mat_WornPlaster
f 753 754 755 756
f 757 760 759 758
f 753 757 758 754
f 754 758 759 755
f 755 759 760 756
f 756 760 757 753
g GalakasMidCity_MerchantNarrow_W03D04_F01_R01U02L01_A01_upper1_back_wall
f 761 762 763 764
f 765 768 767 766
f 761 765 766 762
f 762 766 767 763
f 763 767 768 764
f 764 768 765 761
g GalakasMidCity_MerchantNarrow_W03D04_F01_R01U02L01_A01_upper1_left_wall
f 769 770 771 772
f 773 776 775 774
f 769 773 774 770
f 770 774 775 771
f 771 775 776 772
f 772 776 773 769
g GalakasMidCity_MerchantNarrow_W03D04_F01_R01U02L01_A01_upper1_right_wall
f 777 778 779 780
f 781 784 783 782
f 777 781 782 778
f 778 782 783 779
f 779 783 784 780
f 780 784 781 777
g GalakasMidCity_MerchantNarrow_W03D04_F01_R01U02L01_A01_upper1_floor_cap
usemtl Mat_WoodDark
f 785 786 787 788
f 789 792 791 790
f 785 789 790 786
f 786 790 791 787
f 787 791 792 788
f 788 792 789 785
g GalakasMidCity_MerchantNarrow_W03D04_F01_R01U02L01_A01_upper1_ceiling_cap
f 793 794 795 796
f 797 800 799 798
f 793 797 798 794
f 794 798 799 795
f 795 799 800 796
f 796 800 797 793
g GalakasMidCity_MerchantNarrow_W03D04_F01_R01U02L01_A01_upper1_front_course_569
f 801 802 803 804
f 805 808 807 806
f 801 805 806 802
f 802 806 807 803
f 803 807 808 804
f 804 808 805 801
g GalakasMidCity_MerchantNarrow_W03D04_F01_R01U02L01_A01_upper1_back_course_569
f 809 810 811 812
f 813 816 815 814
f 809 813 814 810
f 810 814 815 811
f 811 815 816 812
f 812 816 813 809
g GalakasMidCity_MerchantNarrow_W03D04_F01_R01U02L01_A01_upper1_front_course_974
f 817 818 819 820
f 821 824 823 822
f 817 821 822 818
f 818 822 823 819
f 819 823 824 820
f 820 824 821 817
g GalakasMidCity_MerchantNarrow_W03D04_F01_R01U02L01_A01_upper1_back_course_974
f 825 826 827 828
f 829 832 831 830
f 825 829 830 826
f 826 830 831 827
f 827 831 832 828
f 828 832 829 825
g GalakasMidCity_MerchantNarrow_W03D04_F01_R01U02L01_A01_upper1_front_post_-2_9
f 833 834 835 836
f 837 840 839 838
f 833 837 838 834
f 834 838 839 835
f 835 839 840 836
f 836 840 837 833
g GalakasMidCity_MerchantNarrow_W03D04_F01_R01U02L01_A01_upper1_front_post_2_9
f 841 842 843 844
f 845 848 847 846
f 841 845 846 842
f 842 846 847 843
f 843 847 848 844
f 844 848 845 841
g GalakasMidCity_MerchantNarrow_W03D04_F01_R01U02L01_A01_upper1_front_post_-1_5
f 849 850 851 852
f 853 856 855 854
f 849 853 854 850
f 850 854 855 851
f 851 855 856 852
f 852 856 853 849
g GalakasMidCity_MerchantNarrow_W03D04_F01_R01U02L01_A01_upper1_front_post_1_5
f 857 858 859 860
f 861 864 863 862
f 857 861 862 858
f 858 862 863 859
f 859 863 864 860
f 860 864 861 857
g GalakasMidCity_MerchantNarrow_W03D04_F01_R01U02L01_A01_upper1_back_post_-2_9
f 865 866 867 868
f 869 872 871 870
f 865 869 870 866
f 866 870 871 867
f 867 871 872 868
f 868 872 869 865
g GalakasMidCity_MerchantNarrow_W03D04_F01_R01U02L01_A01_upper1_back_post_2_9
f 873 874 875 876
f 877 880 879 878
f 873 877 878 874
f 874 878 879 875
f 875 879 880 876
f 876 880 877 873
g GalakasMidCity_MerchantNarrow_W03D04_F01_R01U02L01_A01_upper1_front_window_0_glass
usemtl Mat_GlassDirty
f 881 882 883 884
f 885 888 887 886
f 881 885 886 882
f 882 886 887 883
f 883 887 888 884
f 884 888 885 881
g GalakasMidCity_MerchantNarrow_W03D04_F01_R01U02L01_A01_upper1_front_window_0_frame_top
usemtl Mat_WoodDark
f 889 890 891 892
f 893 896 895 894
f 889 893 894 890
f 890 894 895 891
f 891 895 896 892
f 892 896 893 889
g GalakasMidCity_MerchantNarrow_W03D04_F01_R01U02L01_A01_upper1_front_window_0_frame_mid_v
f 897 898 899 900
f 901 904 903 902
f 897 901 902 898
f 898 902 903 899
f 899 903 904 900
f 900 904 901 897
g GalakasMidCity_MerchantNarrow_W03D04_F01_R01U02L01_A01_upper1_front_window_0_frame_l
f 905 906 907 908
f 909 912 911 910
f 905 909 910 906
f 906 910 911 907
f 907 911 912 908
f 908 912 909 905
g GalakasMidCity_MerchantNarrow_W03D04_F01_R01U02L01_A01_upper1_front_window_0_frame_r
f 913 914 915 916
f 917 920 919 918
f 913 917 918 914
f 914 918 919 915
f 915 919 920 916
f 916 920 917 913
g GalakasMidCity_MerchantNarrow_W03D04_F01_R01U02L01_A01_upper1_front_window_0_sill
f 921 922 923 924
f 925 928 927 926
f 921 925 926 922
f 922 926 927 923
f 923 927 928 924
f 924 928 925 921
g GalakasMidCity_MerchantNarrow_W03D04_F01_R01U02L01_A01_upper1_front_window_0_shutter_l
usemtl Mat_WoodWeathered
f 929 930 931 932
f 933 936 935 934
f 929 933 934 930
f 930 934 935 931
f 931 935 936 932
f 932 936 933 929
g GalakasMidCity_MerchantNarrow_W03D04_F01_R01U02L01_A01_upper1_front_window_0_shutter_r
f 937 938 939 940
f 941 944 943 942
f 937 941 942 938
f 938 942 943 939
f 939 943 944 940
f 940 944 941 937
g GalakasMidCity_MerchantNarrow_W03D04_F01_R01U02L01_A01_upper1_front_window_1_glass
usemtl Mat_GlassDirty
f 945 946 947 948
f 949 952 951 950
f 945 949 950 946
f 946 950 951 947
f 947 951 952 948
f 948 952 949 945
g GalakasMidCity_MerchantNarrow_W03D04_F01_R01U02L01_A01_upper1_front_window_1_frame_top
usemtl Mat_WoodDark
f 953 954 955 956
f 957 960 959 958
f 953 957 958 954
f 954 958 959 955
f 955 959 960 956
f 956 960 957 953
g GalakasMidCity_MerchantNarrow_W03D04_F01_R01U02L01_A01_upper1_front_window_1_frame_mid_v
f 961 962 963 964
f 965 968 967 966
f 961 965 966 962
f 962 966 967 963
f 963 967 968 964
f 964 968 965 961
g GalakasMidCity_MerchantNarrow_W03D04_F01_R01U02L01_A01_upper1_front_window_1_frame_l
f 969 970 971 972
f 973 976 975 974
f 969 973 974 970
f 970 974 975 971
f 971 975 976 972
f 972 976 973 969
g GalakasMidCity_MerchantNarrow_W03D04_F01_R01U02L01_A01_upper1_front_window_1_frame_r
f 977 978 979 980
f 981 984 983 982
f 977 981 982 978
f 978 982 983 979
f 979 983 984 980
f 980 984 981 977
g GalakasMidCity_MerchantNarrow_W03D04_F01_R01U02L01_A01_upper1_front_window_1_sill
f 985 986 987 988
f 989 992 991 990
f 985 989 990 986
f 986 990 991 987
f 987 991 992 988
f 988 992 989 985
g GalakasMidCity_MerchantNarrow_W03D04_F01_R01U02L01_A01_upper1_front_window_1_shutter_l
usemtl Mat_WoodWeathered
f 993 994 995 996
f 997 1000 999 998
f 993 997 998 994
f 994 998 999 995
f 995 999 1000 996
f 996 1000 997 993
g GalakasMidCity_MerchantNarrow_W03D04_F01_R01U02L01_A01_upper1_front_window_1_shutter_r
f 1001 1002 1003 1004
f 1005 1008 1007 1006
f 1001 1005 1006 1002
f 1002 1006 1007 1003
f 1003 1007 1008 1004
f 1004 1008 1005 1001
g GalakasMidCity_MerchantNarrow_W03D04_F01_R01U02L01_A01_upper1_upper_front_window_0_glass
usemtl Mat_GlassDirty
f 1009 1010 1011 1012
f 1013 1016 1015 1014
f 1009 1013 1014 1010
f 1010 1014 1015 1011
f 1011 1015 1016 1012
f 1012 1016 1013 1009
g GalakasMidCity_MerchantNarrow_W03D04_F01_R01U02L01_A01_upper1_upper_front_window_0_frame_top
usemtl Mat_WoodDark
f 1017 1018 1019 1020
f 1021 1024 1023 1022
f 1017 1021 1022 1018
f 1018 1022 1023 1019
f 1019 1023 1024 1020
f 1020 1024 1021 1017
g GalakasMidCity_MerchantNarrow_W03D04_F01_R01U02L01_A01_upper1_upper_front_window_0_frame_mid_v
f 1025 1026 1027 1028
f 1029 1032 1031 1030
f 1025 1029 1030 1026
f 1026 1030 1031 1027
f 1027 1031 1032 1028
f 1028 1032 1029 1025
g GalakasMidCity_MerchantNarrow_W03D04_F01_R01U02L01_A01_upper1_upper_front_window_0_frame_l
f 1033 1034 1035 1036
f 1037 1040 1039 1038
f 1033 1037 1038 1034
f 1034 1038 1039 1035
f 1035 1039 1040 1036
f 1036 1040 1037 1033
g GalakasMidCity_MerchantNarrow_W03D04_F01_R01U02L01_A01_upper1_upper_front_window_0_frame_r
f 1041 1042 1043 1044
f 1045 1048 1047 1046
f 1041 1045 1046 1042
f 1042 1046 1047 1043
f 1043 1047 1048 1044
f 1044 1048 1045 1041
g GalakasMidCity_MerchantNarrow_W03D04_F01_R01U02L01_A01_upper1_upper_front_window_0_sill
f 1049 1050 1051 1052
f 1053 1056 1055 1054
f 1049 1053 1054 1050
f 1050 1054 1055 1051
f 1051 1055 1056 1052
f 1052 1056 1053 1049
g GalakasMidCity_MerchantNarrow_W03D04_F01_R01U02L01_A01_upper1_upper_front_window_0_shutter_l
usemtl Mat_WoodWeathered
f 1057 1058 1059 1060
f 1061 1064 1063 1062
f 1057 1061 1062 1058
f 1058 1062 1063 1059
f 1059 1063 1064 1060
f 1060 1064 1061 1057
g GalakasMidCity_MerchantNarrow_W03D04_F01_R01U02L01_A01_upper1_upper_front_window_0_shutter_r
f 1065 1066 1067 1068
f 1069 1072 1071 1070
f 1065 1069 1070 1066
f 1066 1070 1071 1067
f 1067 1071 1072 1068
f 1068 1072 1069 1065
g GalakasMidCity_MerchantNarrow_W03D04_F01_R01U02L01_A01_upper1_left_window_glass_0
usemtl Mat_GlassDirty
f 1073 1074 1075 1076
f 1077 1080 1079 1078
f 1073 1077 1078 1074
f 1074 1078 1079 1075
f 1075 1079 1080 1076
f 1076 1080 1077 1073
g GalakasMidCity_MerchantNarrow_W03D04_F01_R01U02L01_A01_upper1_right_window_glass_0
f 1081 1082 1083 1084
f 1085 1088 1087 1086
f 1081 1085 1086 1082
f 1082 1086 1087 1083
f 1083 1087 1088 1084
f 1084 1088 1085 1081
g GalakasMidCity_MerchantNarrow_W03D04_F01_R01U02L01_A01_upper1_left_window_glass_1
f 1089 1090 1091 1092
f 1093 1096 1095 1094
f 1089 1093 1094 1090
f 1090 1094 1095 1091
f 1091 1095 1096 1092
f 1092 1096 1093 1089
g GalakasMidCity_MerchantNarrow_W03D04_F01_R01U02L01_A01_upper1_right_window_glass_1
f 1097 1098 1099 1100
f 1101 1104 1103 1102
f 1097 1101 1102 1098
f 1098 1102 1103 1099
f 1099 1103 1104 1100
f 1100 1104 1101 1097
g GalakasMidCity_MerchantNarrow_W03D04_F01_R01U02L01_A01_diag_brace_a_0
usemtl Mat_WoodDark
f 1105 1106 1107 1108
f 1109 1112 1111 1110
f 1105 1109 1110 1106
f 1106 1110 1111 1107
f 1107 1111 1112 1108
f 1108 1112 1109 1105
g GalakasMidCity_MerchantNarrow_W03D04_F01_R01U02L01_A01_diag_brace_b_0
f 1113 1114 1115 1116
f 1117 1120 1119 1118
f 1113 1117 1118 1114
f 1114 1118 1119 1115
f 1115 1119 1120 1116
f 1116 1120 1117 1113
g GalakasMidCity_MerchantNarrow_W03D04_F01_R01U02L01_A01_roof_front_slope
usemtl Mat_RoofTileDirty
f 1121 1122 1123 1124
f 1125 1128 1127 1126
f 1121 1125 1126 1122
f 1122 1126 1127 1123
f 1123 1127 1128 1124
f 1124 1128 1125 1121
g GalakasMidCity_MerchantNarrow_W03D04_F01_R01U02L01_A01_roof_back_slope
f 1129 1130 1131 1132
f 1133 1136 1135 1134
f 1129 1133 1134 1130
f 1130 1134 1135 1131
f 1131 1135 1136 1132
f 1132 1136 1133 1129
g GalakasMidCity_MerchantNarrow_W03D04_F01_R01U02L01_A01_roof_front_tile_row_0
f 1137 1138 1139 1140
f 1141 1144 1143 1142
f 1137 1141 1142 1138
f 1138 1142 1143 1139
f 1139 1143 1144 1140
f 1140 1144 1141 1137
g GalakasMidCity_MerchantNarrow_W03D04_F01_R01U02L01_A01_roof_back_tile_row_0
f 1145 1146 1147 1148
f 1149 1152 1151 1150
f 1145 1149 1150 1146
f 1146 1150 1151 1147
f 1147 1151 1152 1148
f 1148 1152 1149 1145
g GalakasMidCity_MerchantNarrow_W03D04_F01_R01U02L01_A01_roof_front_tile_row_1
f 1153 1154 1155 1156
f 1157 1160 1159 1158
f 1153 1157 1158 1154
f 1154 1158 1159 1155
f 1155 1159 1160 1156
f 1156 1160 1157 1153
g GalakasMidCity_MerchantNarrow_W03D04_F01_R01U02L01_A01_roof_back_tile_row_1
f 1161 1162 1163 1164
f 1165 1168 1167 1166
f 1161 1165 1166 1162
f 1162 1166 1167 1163
f 1163 1167 1168 1164
f 1164 1168 1165 1161
g GalakasMidCity_MerchantNarrow_W03D04_F01_R01U02L01_A01_roof_front_tile_row_2
f 1169 1170 1171 1172
f 1173 1176 1175 1174
f 1169 1173 1174 1170
f 1170 1174 1175 1171
f 1171 1175 1176 1172
f 1172 1176 1173 1169
g GalakasMidCity_MerchantNarrow_W03D04_F01_R01U02L01_A01_roof_back_tile_row_2
f 1177 1178 1179 1180
f 1181 1184 1183 1182
f 1177 1181 1182 1178
f 1178 1182 1183 1179
f 1179 1183 1184 1180
f 1180 1184 1181 1177
g GalakasMidCity_MerchantNarrow_W03D04_F01_R01U02L01_A01_roof_front_tile_row_3
f 1185 1186 1187 1188
f 1189 1192 1191 1190
f 1185 1189 1190 1186
f 1186 1190 1191 1187
f 1187 1191 1192 1188
f 1188 1192 1189 1185
g GalakasMidCity_MerchantNarrow_W03D04_F01_R01U02L01_A01_roof_back_tile_row_3
f 1193 1194 1195 1196
f 1197 1200 1199 1198
f 1193 1197 1198 1194
f 1194 1198 1199 1195
f 1195 1199 1200 1196
f 1196 1200 1197 1193
g GalakasMidCity_MerchantNarrow_W03D04_F01_R01U02L01_A01_roof_front_tile_row_4
f 1201 1202 1203 1204
f 1205 1208 1207 1206
f 1201 1205 1206 1202
f 1202 1206 1207 1203
f 1203 1207 1208 1204
f 1204 1208 1205 1201
g GalakasMidCity_MerchantNarrow_W03D04_F01_R01U02L01_A01_roof_back_tile_row_4
f 1209 1210 1211 1212
f 1213 1216 1215 1214
f 1209 1213 1214 1210
f 1210 1214 1215 1211
f 1211 1215 1216 1212
f 1212 1216 1213 1209
g GalakasMidCity_MerchantNarrow_W03D04_F01_R01U02L01_A01_roof_front_tile_row_5
f 1217 1218 1219 1220
f 1221 1224 1223 1222
f 1217 1221 1222 1218
f 1218 1222 1223 1219
f 1219 1223 1224 1220
f 1220 1224 1221 1217
g GalakasMidCity_MerchantNarrow_W03D04_F01_R01U02L01_A01_roof_back_tile_row_5
f 1225 1226 1227 1228
f 1229 1232 1231 1230
f 1225 1229 1230 1226
f 1226 1230 1231 1227
f 1227 1231 1232 1228
f 1228 1232 1229 1225
g GalakasMidCity_MerchantNarrow_W03D04_F01_R01U02L01_A01_roof_front_tile_row_6
f 1233 1234 1235 1236
f 1237 1240 1239 1238
f 1233 1237 1238 1234
f 1234 1238 1239 1235
f 1235 1239 1240 1236
f 1236 1240 1237 1233
g GalakasMidCity_MerchantNarrow_W03D04_F01_R01U02L01_A01_roof_back_tile_row_6
f 1241 1242 1243 1244
f 1245 1248 1247 1246
f 1241 1245 1246 1242
f 1242 1246 1247 1243
f 1243 1247 1248 1244
f 1244 1248 1245 1241
g GalakasMidCity_MerchantNarrow_W03D04_F01_R01U02L01_A01_roof_front_tile_row_7
f 1249 1250 1251 1252
f 1253 1256 1255 1254
f 1249 1253 1254 1250
f 1250 1254 1255 1251
f 1251 1255 1256 1252
f 1252 1256 1253 1249
g GalakasMidCity_MerchantNarrow_W03D04_F01_R01U02L01_A01_roof_back_tile_row_7
f 1257 1258 1259 1260
f 1261 1264 1263 1262
f 1257 1261 1262 1258
f 1258 1262 1263 1259
f 1259 1263 1264 1260
f 1260 1264 1261 1257
g GalakasMidCity_MerchantNarrow_W03D04_F01_R01U02L01_A01_roof_front_tile_row_8
f 1265 1266 1267 1268
f 1269 1272 1271 1270
f 1265 1269 1270 1266
f 1266 1270 1271 1267
f 1267 1271 1272 1268
f 1268 1272 1269 1265
g GalakasMidCity_MerchantNarrow_W03D04_F01_R01U02L01_A01_roof_back_tile_row_8
f 1273 1274 1275 1276
f 1277 1280 1279 1278
f 1273 1277 1278 1274
f 1274 1278 1279 1275
f 1275 1279 1280 1276
f 1276 1280 1277 1273
g GalakasMidCity_MerchantNarrow_W03D04_F01_R01U02L01_A01_roof_front_tile_row_9
f 1281 1282 1283 1284
f 1285 1288 1287 1286
f 1281 1285 1286 1282
f 1282 1286 1287 1283
f 1283 1287 1288 1284
f 1284 1288 1285 1281
g GalakasMidCity_MerchantNarrow_W03D04_F01_R01U02L01_A01_roof_back_tile_row_9
f 1289 1290 1291 1292
f 1293 1296 1295 1294
f 1289 1293 1294 1290
f 1290 1294 1295 1291
f 1291 1295 1296 1292
f 1292 1296 1293 1289
g GalakasMidCity_MerchantNarrow_W03D04_F01_R01U02L01_A01_roof_front_tile_row_10
f 1297 1298 1299 1300
f 1301 1304 1303 1302
f 1297 1301 1302 1298
f 1298 1302 1303 1299
f 1299 1303 1304 1300
f 1300 1304 1301 1297
g GalakasMidCity_MerchantNarrow_W03D04_F01_R01U02L01_A01_roof_back_tile_row_10
f 1305 1306 1307 1308
f 1309 1312 1311 1310
f 1305 1309 1310 1306
f 1306 1310 1311 1307
f 1307 1311 1312 1308
f 1308 1312 1309 1305
g GalakasMidCity_MerchantNarrow_W03D04_F01_R01U02L01_A01_roof_front_tile_row_11
f 1313 1314 1315 1316
f 1317 1320 1319 1318
f 1313 1317 1318 1314
f 1314 1318 1319 1315
f 1315 1319 1320 1316
f 1316 1320 1317 1313
g GalakasMidCity_MerchantNarrow_W03D04_F01_R01U02L01_A01_roof_back_tile_row_11
f 1321 1322 1323 1324
f 1325 1328 1327 1326
f 1321 1325 1326 1322
f 1322 1326 1327 1323
f 1323 1327 1328 1324
f 1324 1328 1325 1321
g GalakasMidCity_MerchantNarrow_W03D04_F01_R01U02L01_A01_roof_ridge_cap
f 1329 1331 1332 1330
f 1331 1333 1334 1332
f 1333 1335 1336 1334
f 1335 1337 1338 1336
f 1337 1339 1340 1338
f 1339 1341 1342 1340
f 1341 1343 1344 1342
f 1343 1345 1346 1344
f 1345 1347 1348 1346
f 1347 1349 1350 1348
f 1349 1351 1352 1350
f 1351 1353 1354 1352
f 1353 1355 1356 1354
f 1355 1357 1358 1356
f 1357 1359 1360 1358
f 1359 1329 1330 1360
g GalakasMidCity_MerchantNarrow_W03D04_F01_R01U02L01_A01_roof_ridge_cap_capA
f 1359 1357 1355 1353 1351 1349 1347 1345 1343 1341 1339 1337 1335 1333 1331 1329
g GalakasMidCity_MerchantNarrow_W03D04_F01_R01U02L01_A01_roof_ridge_cap_capB
f 1330 1332 1334 1336 1338 1340 1342 1344 1346 1348 1350 1352 1354 1356 1358 1360
g GalakasMidCity_MerchantNarrow_W03D04_F01_R01U02L01_A01_roof_front_eave
usemtl Mat_WoodDark
f 1361 1362 1363 1364
f 1365 1368 1367 1366
f 1361 1365 1366 1362
f 1362 1366 1367 1363
f 1363 1367 1368 1364
f 1364 1368 1365 1361
g GalakasMidCity_MerchantNarrow_W03D04_F01_R01U02L01_A01_roof_back_eave
f 1369 1370 1371 1372
f 1373 1376 1375 1374
f 1369 1373 1374 1370
f 1370 1374 1375 1371
f 1371 1375 1376 1372
f 1372 1376 1373 1369
g GalakasMidCity_MerchantNarrow_W03D04_F01_R01U02L01_A01_chimney_brick_brick_stack
usemtl Mat_SootyBrick
f 1377 1378 1379 1380
f 1381 1384 1383 1382
f 1377 1381 1382 1378
f 1378 1382 1383 1379
f 1379 1383 1384 1380
f 1380 1384 1381 1377
g GalakasMidCity_MerchantNarrow_W03D04_F01_R01U02L01_A01_chimney_brick_cap
usemtl Mat_StoneFoundation
f 1385 1386 1387 1388
f 1389 1392 1391 1390
f 1385 1389 1390 1386
f 1386 1390 1391 1387
f 1387 1391 1392 1388
f 1388 1392 1389 1385
g GalakasMidCity_MerchantNarrow_W03D04_F01_R01U02L01_A01_chimney_brick_flue
usemtl Mat_MetalDark
f 1393 1394 1395 1396
f 1397 1400 1399 1398
f 1393 1397 1398 1394
f 1394 1398 1399 1395
f 1395 1399 1400 1396
f 1396 1400 1397 1393
g GalakasMidCity_MerchantNarrow_W03D04_F01_R01U02L01_A01_chimney_metal_pipe
usemtl Mat_MetalRust
f 1401 1403 1404 1402
f 1403 1405 1406 1404
f 1405 1407 1408 1406
f 1407 1409 1410 1408
f 1409 1411 1412 1410
f 1411 1413 1414 1412
f 1413 1415 1416 1414
f 1415 1417 1418 1416
f 1417 1419 1420 1418
f 1419 1421 1422 1420
f 1421 1423 1424 1422
f 1423 1425 1426 1424
f 1425 1427 1428 1426
f 1427 1429 1430 1428
f 1429 1431 1432 1430
f 1431 1401 1402 1432
g GalakasMidCity_MerchantNarrow_W03D04_F01_R01U02L01_A01_chimney_metal_pipe_capA
f 1431 1429 1427 1425 1423 1421 1419 1417 1415 1413 1411 1409 1407 1405 1403 1401
g GalakasMidCity_MerchantNarrow_W03D04_F01_R01U02L01_A01_chimney_metal_pipe_capB
f 1402 1404 1406 1408 1410 1412 1414 1416 1418 1420 1422 1424 1426 1428 1430 1432
g GalakasMidCity_MerchantNarrow_W03D04_F01_R01U02L01_A01_chimney_metal_cap_cross
usemtl Mat_MetalDark
f 1433 1435 1436 1434
f 1435 1437 1438 1436
f 1437 1439 1440 1438
f 1439 1441 1442 1440
f 1441 1443 1444 1442
f 1443 1445 1446 1444
f 1445 1447 1448 1446
f 1447 1449 1450 1448
f 1449 1451 1452 1450
f 1451 1453 1454 1452
f 1453 1455 1456 1454
f 1455 1433 1434 1456
g GalakasMidCity_MerchantNarrow_W03D04_F01_R01U02L01_A01_chimney_metal_cap_cross_capA
f 1455 1453 1451 1449 1447 1445 1443 1441 1439 1437 1435 1433
g GalakasMidCity_MerchantNarrow_W03D04_F01_R01U02L01_A01_chimney_metal_cap_cross_capB
f 1434 1436 1438 1440 1442 1444 1446 1448 1450 1452 1454 1456
g GalakasMidCity_MerchantNarrow_W03D04_F01_R01U02L01_A01_sign_arm
usemtl Mat_WoodDark
f 1457 1459 1460 1458
f 1459 1461 1462 1460
f 1461 1463 1464 1462
f 1463 1465 1466 1464
f 1465 1467 1468 1466
f 1467 1469 1470 1468
f 1469 1471 1472 1470
f 1471 1473 1474 1472
f 1473 1475 1476 1474
f 1475 1457 1458 1476
g GalakasMidCity_MerchantNarrow_W03D04_F01_R01U02L01_A01_sign_arm_capA
f 1475 1473 1471 1469 1467 1465 1463 1461 1459 1457
g GalakasMidCity_MerchantNarrow_W03D04_F01_R01U02L01_A01_sign_arm_capB
f 1458 1460 1462 1464 1466 1468 1470 1472 1474 1476
g GalakasMidCity_MerchantNarrow_W03D04_F01_R01U02L01_A01_sign_board
usemtl Mat_WoodWeathered
f 1477 1478 1479 1480
f 1481 1484 1483 1482
f 1477 1481 1482 1478
f 1478 1482 1483 1479
f 1479 1483 1484 1480
f 1480 1484 1481 1477
g GalakasMidCity_MerchantNarrow_W03D04_F01_R01U02L01_A01_lamp_stem
usemtl Mat_MetalDark
f 1485 1487 1488 1486
f 1487 1489 1490 1488
f 1489 1491 1492 1490
f 1491 1493 1494 1492
f 1493 1495 1496 1494
f 1495 1497 1498 1496
f 1497 1499 1500 1498
f 1499 1501 1502 1500
f 1501 1503 1504 1502
f 1503 1505 1506 1504
f 1505 1507 1508 1506
f 1507 1485 1486 1508
g GalakasMidCity_MerchantNarrow_W03D04_F01_R01U02L01_A01_lamp_stem_capA
f 1507 1505 1503 1501 1499 1497 1495 1493 1491 1489 1487 1485
g GalakasMidCity_MerchantNarrow_W03D04_F01_R01U02L01_A01_lamp_stem_capB
f 1486 1488 1490 1492 1494 1496 1498 1500 1502 1504 1506 1508
g GalakasMidCity_MerchantNarrow_W03D04_F01_R01U02L01_A01_lamp_cage
f 1509 1510 1522 1521
f 1510 1511 1523 1522
f 1511 1512 1524 1523
f 1512 1513 1525 1524
f 1513 1514 1526 1525
f 1514 1515 1527 1526
f 1515 1516 1528 1527
f 1516 1517 1529 1528
f 1517 1518 1530 1529
f 1518 1519 1531 1530
f 1519 1520 1532 1531
f 1520 1509 1521 1532
f 1521 1522 1534 1533
f 1522 1523 1535 1534
f 1523 1524 1536 1535
f 1524 1525 1537 1536
f 1525 1526 1538 1537
f 1526 1527 1539 1538
f 1527 1528 1540 1539
f 1528 1529 1541 1540
f 1529 1530 1542 1541
f 1530 1531 1543 1542
f 1531 1532 1544 1543
f 1532 1521 1533 1544
f 1533 1534 1546 1545
f 1534 1535 1547 1546
f 1535 1536 1548 1547
f 1536 1537 1549 1548
f 1537 1538 1550 1549
f 1538 1539 1551 1550
f 1539 1540 1552 1551
f 1540 1541 1553 1552
f 1541 1542 1554 1553
f 1542 1543 1555 1554
f 1543 1544 1556 1555
f 1544 1533 1545 1556
f 1545 1546 1558 1557
f 1546 1547 1559 1558
f 1547 1548 1560 1559
f 1548 1549 1561 1560
f 1549 1550 1562 1561
f 1550 1551 1563 1562
f 1551 1552 1564 1563
f 1552 1553 1565 1564
f 1553 1554 1566 1565
f 1554 1555 1567 1566
f 1555 1556 1568 1567
f 1556 1545 1557 1568
f 1557 1558 1570 1569
f 1558 1559 1571 1570
f 1559 1560 1572 1571
f 1560 1561 1573 1572
f 1561 1562 1574 1573
f 1562 1563 1575 1574
f 1563 1564 1576 1575
f 1564 1565 1577 1576
f 1565 1566 1578 1577
f 1566 1567 1579 1578
f 1567 1568 1580 1579
f 1568 1557 1569 1580
