# GalakasMidCity_Workshop_W05D05_F01_R01U01L01_A01
mtllib GalakasMidCity_Workshop_W05D05_F01_R01U01L01_A01.mtl
v -5.27500 0.00000 -5.27500
v 5.27500 0.00000 -5.27500
v 5.27500 0.36000 -5.27500
v -5.27500 0.36000 -5.27500
v -5.27500 0.00000 5.27500
v 5.27500 0.00000 5.27500
v 5.27500 0.36000 5.27500
v -5.27500 0.36000 5.27500
v -5.17500 0.36000 -5.17500
v 5.17500 0.36000 -5.17500
v 5.17500 0.72000 -5.17500
v -5.17500 0.72000 -5.17500
v -5.17500 0.36000 5.17500
v 5.17500 0.36000 5.17500
v 5.17500 0.72000 5.17500
v -5.17500 0.72000 5.17500
v -4.88750 0.70000 -5.37000
v -3.86250 0.70000 -5.37000
v -3.86250 0.88000 -5.37000
v -4.88750 0.88000 -5.37000
v -4.88750 0.70000 -5.29000
v -3.86250 0.70000 -5.29000
v -3.86250 0.88000 -5.29000
v -4.88750 0.88000 -5.29000
v -3.63750 0.70000 -5.37000
v -2.61250 0.70000 -5.37000
v -2.61250 0.88000 -5.37000
v -3.63750 0.88000 -5.37000
v -3.63750 0.70000 -5.29000
v -2.61250 0.70000 -5.29000
v -2.61250 0.88000 -5.29000
v -3.63750 0.88000 -5.29000
v -2.38750 0.70000 -5.37000
v -1.36250 0.70000 -5.37000
v -1.36250 0.88000 -5.37000
v -2.38750 0.88000 -5.37000
v -2.38750 0.70000 -5.29000
v -1.36250 0.70000 -5.29000
v -1.36250 0.88000 -5.29000
v -2.38750 0.88000 -5.29000
v -1.13750 0.70000 -5.37000
v -0.11250 0.70000 -5.37000
v -0.11250 0.88000 -5.37000
v -1.13750 0.88000 -5.37000
v -1.13750 0.70000 -5.29000
v -0.11250 0.70000 -5.29000
v -0.11250 0.88000 -5.29000
v -1.13750 0.88000 -5.29000
v 0.11250 0.70000 -5.37000
v 1.13750 0.70000 -5.37000
v 1.13750 0.88000 -5.37000
v 0.11250 0.88000 -5.37000
v 0.11250 0.70000 -5.29000
v 1.13750 0.70000 -5.29000
v 1.13750 0.88000 -5.29000
v 0.11250 0.88000 -5.29000
v 1.36250 0.70000 -5.37000
v 2.38750 0.70000 -5.37000
v 2.38750 0.88000 -5.37000
v 1.36250 0.88000 -5.37000
v 1.36250 0.70000 -5.29000
v 2.38750 0.70000 -5.29000
v 2.38750 0.88000 -5.29000
v 1.36250 0.88000 -5.29000
v 2.61250 0.70000 -5.37000
v 3.63750 0.70000 -5.37000
v 3.63750 0.88000 -5.37000
v 2.61250 0.88000 -5.37000
v 2.61250 0.70000 -5.29000
v 3.63750 0.70000 -5.29000
v 3.63750 0.88000 -5.29000
v 2.61250 0.88000 -5.29000
v 3.86250 0.70000 -5.37000
v 4.88750 0.70000 -5.37000
v 4.88750 0.88000 -5.37000
v 3.86250 0.88000 -5.37000
v 3.86250 0.70000 -5.29000
v 4.88750 0.70000 -5.29000
v 4.88750 0.88000 -5.29000
v 3.86250 0.88000 -5.29000
v -4.88750 0.70000 5.29000
v -3.86250 0.70000 5.29000
v -3.86250 0.88000 5.29000
v -4.88750 0.88000 5.29000
v -4.88750 0.70000 5.37000
v -3.86250 0.70000 5.37000
v -3.86250 0.88000 5.37000
v -4.88750 0.88000 5.37000
v -3.63750 0.70000 5.29000
v -2.61250 0.70000 5.29000
v -2.61250 0.88000 5.29000
v -3.63750 0.88000 5.29000
v -3.63750 0.70000 5.37000
v -2.61250 0.70000 5.37000
v -2.61250 0.88000 5.37000
v -3.63750 0.88000 5.37000
v -2.38750 0.70000 5.29000
v -1.36250 0.70000 5.29000
v -1.36250 0.88000 5.29000
v -2.38750 0.88000 5.29000
v -2.38750 0.70000 5.37000
v -1.36250 0.70000 5.37000
v -1.36250 0.88000 5.37000
v -2.38750 0.88000 5.37000
v -1.13750 0.70000 5.29000
v -0.11250 0.70000 5.29000
v -0.11250 0.88000 5.29000
v -1.13750 0.88000 5.29000
v -1.13750 0.70000 5.37000
v -0.11250 0.70000 5.37000
v -0.11250 0.88000 5.37000
v -1.13750 0.88000 5.37000
v 0.11250 0.70000 5.29000
v 1.13750 0.70000 5.29000
v 1.13750 0.88000 5.29000
v 0.11250 0.88000 5.29000
v 0.11250 0.70000 5.37000
v 1.13750 0.70000 5.37000
v 1.13750 0.88000 5.37000
v 0.11250 0.88000 5.37000
v 1.36250 0.70000 5.29000
v 2.38750 0.70000 5.29000
v 2.38750 0.88000 5.29000
v 1.36250 0.88000 5.29000
v 1.36250 0.70000 5.37000
v 2.38750 0.70000 5.37000
v 2.38750 0.88000 5.37000
v 1.36250 0.88000 5.37000
v 2.61250 0.70000 5.29000
v 3.63750 0.70000 5.29000
v 3.63750 0.88000 5.29000
v 2.61250 0.88000 5.29000
v 2.61250 0.70000 5.37000
v 3.63750 0.70000 5.37000
v 3.63750 0.88000 5.37000
v 2.61250 0.88000 5.37000
v 3.86250 0.70000 5.29000
v 4.88750 0.70000 5.29000
v 4.88750 0.88000 5.29000
v 3.86250 0.88000 5.29000
v 3.86250 0.70000 5.37000
v 4.88750 0.70000 5.37000
v 4.88750 0.88000 5.37000
v 3.86250 0.88000 5.37000
v -5.37000 0.70000 -4.88750
v -5.29000 0.70000 -4.88750
v -5.29000 0.88000 -4.88750
v -5.37000 0.88000 -4.88750
v -5.37000 0.70000 -3.86250
v -5.29000 0.70000 -3.86250
v -5.29000 0.88000 -3.86250
v -5.37000 0.88000 -3.86250
v -5.37000 0.70000 -3.63750
v -5.29000 0.70000 -3.63750
v -5.29000 0.88000 -3.63750
v -5.37000 0.88000 -3.63750
v -5.37000 0.70000 -2.61250
v -5.29000 0.70000 -2.61250
v -5.29000 0.88000 -2.61250
v -5.37000 0.88000 -2.61250
v -5.37000 0.70000 -2.38750
v -5.29000 0.70000 -2.38750
v -5.29000 0.88000 -2.38750
v -5.37000 0.88000 -2.38750
v -5.37000 0.70000 -1.36250
v -5.29000 0.70000 -1.36250
v -5.29000 0.88000 -1.36250
v -5.37000 0.88000 -1.36250
v -5.37000 0.70000 -1.13750
v -5.29000 0.70000 -1.13750
v -5.29000 0.88000 -1.13750
v -5.37000 0.88000 -1.13750
v -5.37000 0.70000 -0.11250
v -5.29000 0.70000 -0.11250
v -5.29000 0.88000 -0.11250
v -5.37000 0.88000 -0.11250
v -5.37000 0.70000 0.11250
v -5.29000 0.70000 0.11250
v -5.29000 0.88000 0.11250
v -5.37000 0.88000 0.11250
v -5.37000 0.70000 1.13750
v -5.29000 0.70000 1.13750
v -5.29000 0.88000 1.13750
v -5.37000 0.88000 1.13750
v -5.37000 0.70000 1.36250
v -5.29000 0.70000 1.36250
v -5.29000 0.88000 1.36250
v -5.37000 0.88000 1.36250
v -5.37000 0.70000 2.38750
v -5.29000 0.70000 2.38750
v -5.29000 0.88000 2.38750
v -5.37000 0.88000 2.38750
v -5.37000 0.70000 2.61250
v -5.29000 0.70000 2.61250
v -5.29000 0.88000 2.61250
v -5.37000 0.88000 2.61250
v -5.37000 0.70000 3.63750
v -5.29000 0.70000 3.63750
v -5.29000 0.88000 3.63750
v -5.37000 0.88000 3.63750
v -5.37000 0.70000 3.86250
v -5.29000 0.70000 3.86250
v -5.29000 0.88000 3.86250
v -5.37000 0.88000 3.86250
v -5.37000 0.70000 4.88750
v -5.29000 0.70000 4.88750
v -5.29000 0.88000 4.88750
v -5.37000 0.88000 4.88750
v 5.29000 0.70000 -4.88750
v 5.37000 0.70000 -4.88750
v 5.37000 0.88000 -4.88750
v 5.29000 0.88000 -4.88750
v 5.29000 0.70000 -3.86250
v 5.37000 0.70000 -3.86250
v 5.37000 0.88000 -3.86250
v 5.29000 0.88000 -3.86250
v 5.29000 0.70000 -3.63750
v 5.37000 0.70000 -3.63750
v 5.37000 0.88000 -3.63750
v 5.29000 0.88000 -3.63750
v 5.29000 0.70000 -2.61250
v 5.37000 0.70000 -2.61250
v 5.37000 0.88000 -2.61250
v 5.29000 0.88000 -2.61250
v 5.29000 0.70000 -2.38750
v 5.37000 0.70000 -2.38750
v 5.37000 0.88000 -2.38750
v 5.29000 0.88000 -2.38750
v 5.29000 0.70000 -1.36250
v 5.37000 0.70000 -1.36250
v 5.37000 0.88000 -1.36250
v 5.29000 0.88000 -1.36250
v 5.29000 0.70000 -1.13750
v 5.37000 0.70000 -1.13750
v 5.37000 0.88000 -1.13750
v 5.29000 0.88000 -1.13750
v 5.29000 0.70000 -0.11250
v 5.37000 0.70000 -0.11250
v 5.37000 0.88000 -0.11250
v 5.29000 0.88000 -0.11250
v 5.29000 0.70000 0.11250
v 5.37000 0.70000 0.11250
v 5.37000 0.88000 0.11250
v 5.29000 0.88000 0.11250
v 5.29000 0.70000 1.13750
v 5.37000 0.70000 1.13750
v 5.37000 0.88000 1.13750
v 5.29000 0.88000 1.13750
v 5.29000 0.70000 1.36250
v 5.37000 0.70000 1.36250
v 5.37000 0.88000 1.36250
v 5.29000 0.88000 1.36250
v 5.29000 0.70000 2.38750
v 5.37000 0.70000 2.38750
v 5.37000 0.88000 2.38750
v 5.29000 0.88000 2.38750
v 5.29000 0.70000 2.61250
v 5.37000 0.70000 2.61250
v 5.37000 0.88000 2.61250
v 5.29000 0.88000 2.61250
v 5.29000 0.70000 3.63750
v 5.37000 0.70000 3.63750
v 5.37000 0.88000 3.63750
v 5.29000 0.88000 3.63750
v 5.29000 0.70000 3.86250
v 5.37000 0.70000 3.86250
v 5.37000 0.88000 3.86250
v 5.29000 0.88000 3.86250
v 5.29000 0.70000 4.88750
v 5.37000 0.70000 4.88750
v 5.37000 0.88000 4.88750
v 5.29000 0.88000 4.88750
v -5.00000 0.72000 -5.18000
v -1.37500 0.72000 -5.18000
v -1.37500 5.52000 -5.18000
v -5.00000 5.52000 -5.18000
v -5.00000 0.72000 -5.00000
v -1.37500 0.72000 -5.00000
v -1.37500 5.52000 -5.00000
v -5.00000 5.52000 -5.00000
v 1.37500 0.72000 -5.18000
v 5.00000 0.72000 -5.18000
v 5.00000 5.52000 -5.18000
v 1.37500 5.52000 -5.18000
v 1.37500 0.72000 -5.00000
v 5.00000 0.72000 -5.00000
v 5.00000 5.52000 -5.00000
v 1.37500 5.52000 -5.00000
v -1.37500 4.07000 -5.18000
v 1.37500 4.07000 -5.18000
v 1.37500 5.07000 -5.18000
v -1.37500 5.07000 -5.18000
v -1.37500 4.07000 -5.00000
v 1.37500 4.07000 -5.00000
v 1.37500 5.07000 -5.00000
v -1.37500 5.07000 -5.00000
v -0.92500 0.90000 -5.28000
v 0.92500 0.90000 -5.28000
v 0.92500 4.25000 -5.28000
v -0.92500 4.25000 -5.28000
v -0.92500 0.90000 -5.12000
v 0.92500 0.90000 -5.12000
v 0.92500 4.25000 -5.12000
v -0.92500 4.25000 -5.12000
v -0.87320 1.00050 -5.31000
v -0.60680 1.00050 -5.31000
v -0.60680 4.14950 -5.31000
v -0.87320 4.14950 -5.31000
v -0.87320 1.00050 -5.27000
v -0.60680 1.00050 -5.27000
v -0.60680 4.14950 -5.27000
v -0.87320 4.14950 -5.27000
v -0.50320 1.00050 -5.31000
v -0.23680 1.00050 -5.31000
v -0.23680 4.14950 -5.31000
v -0.50320 4.14950 -5.31000
v -0.50320 1.00050 -5.27000
v -0.23680 1.00050 -5.27000
v -0.23680 4.14950 -5.27000
v -0.50320 4.14950 -5.27000
v -0.13320 1.00050 -5.31000
v 0.13320 1.00050 -5.31000
v 0.13320 4.14950 -5.31000
v -0.13320 4.14950 -5.31000
v -0.13320 1.00050 -5.27000
v 0.13320 1.00050 -5.27000
v 0.13320 4.14950 -5.27000
v -0.13320 4.14950 -5.27000
v 0.23680 1.00050 -5.31000
v 0.50320 1.00050 -5.31000
v 0.50320 4.14950 -5.31000
v 0.23680 4.14950 -5.31000
v 0.23680 1.00050 -5.27000
v 0.50320 1.00050 -5.27000
v 0.50320 4.14950 -5.27000
v 0.23680 4.14950 -5.27000
v 0.60680 1.00050 -5.31000
v 0.87320 1.00050 -5.31000
v 0.87320 4.14950 -5.31000
v 0.60680 4.14950 -5.31000
v 0.60680 1.00050 -5.27000
v 0.87320 1.00050 -5.27000
v 0.87320 4.14950 -5.27000
v 0.60680 4.14950 -5.27000
v -1.12500 0.74000 -5.36000
v -0.94500 0.74000 -5.36000
v -0.94500 4.41000 -5.36000
v -1.12500 4.41000 -5.36000
v -1.12500 0.74000 -5.08000
v -0.94500 0.74000 -5.08000
v -0.94500 4.41000 -5.08000
v -1.12500 4.41000 -5.08000
v 0.94500 0.74000 -5.36000
v 1.12500 0.74000 -5.36000
v 1.12500 4.41000 -5.36000
v 0.94500 4.41000 -5.36000
v 0.94500 0.74000 -5.08000
v 1.12500 0.74000 -5.08000
v 1.12500 4.41000 -5.08000
v 0.94500 4.41000 -5.08000
v -1.20000 4.25000 -5.36000
v 1.20000 4.25000 -5.36000
v 1.20000 4.47000 -5.36000
v -1.20000 4.47000 -5.36000
v -1.20000 4.25000 -5.08000
v 1.20000 4.25000 -5.08000
v 1.20000 4.47000 -5.08000
v -1.20000 4.47000 -5.08000
v -0.79550 1.65000 -5.39000
v 0.79550 1.65000 -5.39000
v 0.79550 1.75000 -5.39000
v -0.79550 1.75000 -5.39000
v -0.79550 1.65000 -5.31000
v 0.79550 1.65000 -5.31000
v 0.79550 1.75000 -5.31000
v -0.79550 1.75000 -5.31000
v -0.79550 2.59200 -5.39000
v 0.79550 2.59200 -5.39000
v 0.79550 2.69200 -5.39000
v -0.79550 2.69200 -5.39000
v -0.79550 2.59200 -5.31000
v 0.79550 2.59200 -5.31000
v 0.79550 2.69200 -5.31000
v -0.79550 2.69200 -5.31000
v -0.79550 3.65000 -5.39000
v 0.79550 3.65000 -5.39000
v 0.79550 3.75000 -5.39000
v -0.79550 3.75000 -5.39000
v -0.79550 3.65000 -5.31000
v 0.79550 3.65000 -5.31000
v 0.79550 3.75000 -5.31000
v -0.79550 3.75000 -5.31000
v -1.16500 1.57000 -5.44500
v -1.16500 2.13000 -5.44500
v -1.19750 1.57000 -5.43629
v -1.19750 2.13000 -5.43629
v -1.22129 1.57000 -5.41250
v -1.22129 2.13000 -5.41250
v -1.23000 1.57000 -5.38000
v -1.23000 2.13000 -5.38000
v -1.22129 1.57000 -5.34750
v -1.22129 2.13000 -5.34750
v -1.19750 1.57000 -5.32371
v -1.19750 2.13000 -5.32371
v -1.16500 1.57000 -5.31500
v -1.16500 2.13000 -5.31500
v -1.13250 1.57000 -5.32371
v -1.13250 2.13000 -5.32371
v -1.10871 1.57000 -5.34750
v -1.10871 2.13000 -5.34750
v -1.10000 1.57000 -5.38000
v -1.10000 2.13000 -5.38000
v -1.10871 1.57000 -5.41250
v -1.10871 2.13000 -5.41250
v -1.13250 1.57000 -5.43629
v -1.13250 2.13000 -5.43629
v -1.16500 3.17000 -5.44500
v -1.16500 3.73000 -5.44500
v -1.19750 3.17000 -5.43629
v -1.19750 3.73000 -5.43629
v -1.22129 3.17000 -5.41250
v -1.22129 3.73000 -5.41250
v -1.23000 3.17000 -5.38000
v -1.23000 3.73000 -5.38000
v -1.22129 3.17000 -5.34750
v -1.22129 3.73000 -5.34750
v -1.19750 3.17000 -5.32371
v -1.19750 3.73000 -5.32371
v -1.16500 3.17000 -5.31500
v -1.16500 3.73000 -5.31500
v -1.13250 3.17000 -5.32371
v -1.13250 3.73000 -5.32371
v -1.10871 3.17000 -5.34750
v -1.10871 3.73000 -5.34750
v -1.10000 3.17000 -5.38000
v -1.10000 3.73000 -5.38000
v -1.10871 3.17000 -5.41250
v -1.10871 3.73000 -5.41250
v -1.13250 3.17000 -5.43629
v -1.13250 3.73000 -5.43629
v 0.55500 2.72200 -5.42000
v 0.55500 2.72200 -5.42000
v 0.55500 2.72200 -5.42000
v 0.55500 2.72200 -5.42000
v 0.55500 2.72200 -5.42000
v 0.55500 2.72200 -5.42000
v 0.55500 2.72200 -5.42000
v 0.55500 2.72200 -5.42000
v 0.55500 2.72200 -5.42000
v 0.55500 2.72200 -5.42000
v 0.55500 2.72200 -5.42000
v 0.55500 2.72200 -5.42000
v 0.60202 2.70672 -5.42000
v 0.59572 2.70672 -5.39649
v 0.57851 2.70672 -5.37928
v 0.55500 2.70672 -5.37298
v 0.53149 2.70672 -5.37928
v 0.51428 2.70672 -5.39649
v 0.50798 2.70672 -5.42000
v 0.51428 2.70672 -5.44351
v 0.53149 2.70672 -5.46072
v 0.55500 2.70672 -5.46702
v 0.57851 2.70672 -5.46072
v 0.59572 2.70672 -5.44351
v 0.63108 2.66672 -5.42000
v 0.62089 2.66672 -5.38196
v 0.59304 2.66672 -5.35411
v 0.55500 2.66672 -5.34392
v 0.51696 2.66672 -5.35411
v 0.48911 2.66672 -5.38196
v 0.47892 2.66672 -5.42000
v 0.48911 2.66672 -5.45804
v 0.51696 2.66672 -5.48589
v 0.55500 2.66672 -5.49608
v 0.59304 2.66672 -5.48589
v 0.62089 2.66672 -5.45804
v 0.63108 2.61728 -5.42000
v 0.62089 2.61728 -5.38196
v 0.59304 2.61728 -5.35411
v 0.55500 2.61728 -5.34392
v 0.51696 2.61728 -5.35411
v 0.48911 2.61728 -5.38196
v 0.47892 2.61728 -5.42000
v 0.48911 2.61728 -5.45804
v 0.51696 2.61728 -5.48589
v 0.55500 2.61728 -5.49608
v 0.59304 2.61728 -5.48589
v 0.62089 2.61728 -5.45804
v 0.60202 2.57728 -5.42000
v 0.59572 2.57728 -5.39649
v 0.57851 2.57728 -5.37928
v 0.55500 2.57728 -5.37298
v 0.53149 2.57728 -5.37928
v 0.51428 2.57728 -5.39649
v 0.50798 2.57728 -5.42000
v 0.51428 2.57728 -5.44351
v 0.53149 2.57728 -5.46072
v 0.55500 2.57728 -5.46702
v 0.57851 2.57728 -5.46072
v 0.59572 2.57728 -5.44351
v 0.55500 2.56200 -5.42000
v 0.55500 2.56200 -5.42000
v 0.55500 2.56200 -5.42000
v 0.55500 2.56200 -5.42000
v 0.55500 2.56200 -5.42000
v 0.55500 2.56200 -5.42000
v 0.55500 2.56200 -5.42000
v 0.55500 2.56200 -5.42000
v 0.55500 2.56200 -5.42000
v 0.55500 2.56200 -5.42000
v 0.55500 2.56200 -5.42000
v 0.55500 2.56200 -5.42000
v -5.00000 0.72000 5.00000
v 5.00000 0.72000 5.00000
v 5.00000 5.52000 5.00000
v -5.00000 5.52000 5.00000
v -5.00000 0.72000 5.18000
v 5.00000 0.72000 5.18000
v 5.00000 5.52000 5.18000
v -5.00000 5.52000 5.18000
v -5.18000 0.72000 -5.00000
v -5.00000 0.72000 -5.00000
v -5.00000 5.52000 -5.00000
v -5.18000 5.52000 -5.00000
v -5.18000 0.72000 5.00000
v -5.00000 0.72000 5.00000
v -5.00000 5.52000 5.00000
v -5.18000 5.52000 5.00000
v 5.00000 0.72000 -5.00000
v 5.18000 0.72000 -5.00000
v 5.18000 5.52000 -5.00000
v 5.00000 5.52000 -5.00000
v 5.00000 0.72000 5.00000
v 5.18000 0.72000 5.00000
v 5.18000 5.52000 5.00000
v 5.00000 5.52000 5.00000
v -5.00000 0.72000 -5.00000
v 5.00000 0.72000 -5.00000
v 5.00000 0.82000 -5.00000
v -5.00000 0.82000 -5.00000
v -5.00000 0.72000 5.00000
v 5.00000 0.72000 5.00000
v 5.00000 0.82000 5.00000
v -5.00000 0.82000 5.00000
v -5.00000 5.42000 -5.00000
v 5.00000 5.42000 -5.00000
v 5.00000 5.52000 -5.00000
v -5.00000 5.52000 -5.00000
v -5.00000 5.42000 5.00000
v 5.00000 5.42000 5.00000
v 5.00000 5.52000 5.00000
v -5.00000 5.52000 5.00000
v -5.11000 0.82000 -5.26000
v 5.11000 0.82000 -5.26000
v 5.11000 0.98000 -5.26000
v -5.11000 0.98000 -5.26000
v -5.11000 0.82000 -5.12000
v 5.11000 0.82000 -5.12000
v 5.11000 0.98000 -5.12000
v -5.11000 0.98000 -5.12000
v -5.11000 0.82000 5.12000
v 5.11000 0.82000 5.12000
v 5.11000 0.98000 5.12000
v -5.11000 0.98000 5.12000
v -5.11000 0.82000 5.26000
v 5.11000 0.82000 5.26000
v 5.11000 0.98000 5.26000
v -5.11000 0.98000 5.26000
v -5.11000 5.26000 -5.26000
v 5.11000 5.26000 -5.26000
v 5.11000 5.42000 -5.26000
v -5.11000 5.42000 -5.26000
v -5.11000 5.26000 -5.12000
v 5.11000 5.26000 -5.12000
v 5.11000 5.42000 -5.12000
v -5.11000 5.42000 -5.12000
v -5.11000 5.26000 5.12000
v 5.11000 5.26000 5.12000
v 5.11000 5.42000 5.12000
v -5.11000 5.42000 5.12000
v -5.11000 5.26000 5.26000
v 5.11000 5.26000 5.26000
v 5.11000 5.42000 5.26000
v -5.11000 5.42000 5.26000
v -4.96000 0.72000 -5.29000
v -4.80000 0.72000 -5.29000
v -4.80000 5.52000 -5.29000
v -4.96000 5.52000 -5.29000
v -4.96000 0.72000 -5.13000
v -4.80000 0.72000 -5.13000
v -4.80000 5.52000 -5.13000
v -4.96000 5.52000 -5.13000
v 4.80000 0.72000 -5.29000
v 4.96000 0.72000 -5.29000
v 4.96000 5.52000 -5.29000
v 4.80000 5.52000 -5.29000
v 4.80000 0.72000 -5.13000
v 4.96000 0.72000 -5.13000
v 4.96000 5.52000 -5.13000
v 4.80000 5.52000 -5.13000
v -2.58000 0.72000 -5.29000
v -2.42000 0.72000 -5.29000
v -2.42000 5.52000 -5.29000
v -2.58000 5.52000 -5.29000
v -2.58000 0.72000 -5.13000
v -2.42000 0.72000 -5.13000
v -2.42000 5.52000 -5.13000
v -2.58000 5.52000 -5.13000
v 2.42000 0.72000 -5.29000
v 2.58000 0.72000 -5.29000
v 2.58000 5.52000 -5.29000
v 2.42000 5.52000 -5.29000
v 2.42000 0.72000 -5.13000
v 2.58000 0.72000 -5.13000
v 2.58000 5.52000 -5.13000
v 2.42000 5.52000 -5.13000
v -4.96000 0.72000 5.13000
v -4.80000 0.72000 5.13000
v -4.80000 5.52000 5.13000
v -4.96000 5.52000 5.13000
v -4.96000 0.72000 5.29000
v -4.80000 0.72000 5.29000
v -4.80000 5.52000 5.29000
v -4.96000 5.52000 5.29000
v 4.80000 0.72000 5.13000
v 4.96000 0.72000 5.13000
v 4.96000 5.52000 5.13000
v 4.80000 5.52000 5.13000
v 4.80000 0.72000 5.29000
v 4.96000 0.72000 5.29000
v 4.96000 5.52000 5.29000
v 4.80000 5.52000 5.29000
v -3.92500 2.64500 -5.28000
v -2.87500 2.64500 -5.28000
v -2.87500 3.89500 -5.28000
v -3.92500 3.89500 -5.28000
v -3.92500 2.64500 -5.20000
v -2.87500 2.64500 -5.20000
v -2.87500 3.89500 -5.20000
v -3.92500 3.89500 -5.20000
v -4.02500 3.21000 -5.38000
v -2.77500 3.21000 -5.38000
v -2.77500 3.33000 -5.38000
v -4.02500 3.33000 -5.38000
v -4.02500 3.21000 -5.22000
v -2.77500 3.21000 -5.22000
v -2.77500 3.33000 -5.22000
v -4.02500 3.33000 -5.22000
v -3.46000 2.54500 -5.38000
v -3.34000 2.54500 -5.38000
v -3.34000 3.99500 -5.38000
v -3.46000 3.99500 -5.38000
v -3.46000 2.54500 -5.22000
v -3.34000 2.54500 -5.22000
v -3.34000 3.99500 -5.22000
v -3.46000 3.99500 -5.22000
v -4.08500 2.54500 -5.38000
v -3.96500 2.54500 -5.38000
v -3.96500 3.99500 -5.38000
v -4.08500 3.99500 -5.38000
v -4.08500 2.54500 -5.22000
v -3.96500 2.54500 -5.22000
v -3.96500 3.99500 -5.22000
v -4.08500 3.99500 -5.22000
v -2.83500 2.54500 -5.38000
v -2.71500 2.54500 -5.38000
v -2.71500 3.99500 -5.38000
v -2.83500 3.99500 -5.38000
v -2.83500 2.54500 -5.22000
v -2.71500 2.54500 -5.22000
v -2.71500 3.99500 -5.22000
v -2.83500 3.99500 -5.22000
v -4.06500 2.45500 -5.42000
v -2.73500 2.45500 -5.42000
v -2.73500 2.59500 -5.42000
v -4.06500 2.59500 -5.42000
v -4.06500 2.45500 -5.18000
v -2.73500 2.45500 -5.18000
v -2.73500 2.59500 -5.18000
v -4.06500 2.59500 -5.18000
v -4.33650 2.69500 -5.40000
v -3.99650 2.69500 -5.40000
v -3.99650 3.84500 -5.40000
v -4.33650 3.84500 -5.40000
v -4.33650 2.69500 -5.32000
v -3.99650 2.69500 -5.32000
v -3.99650 3.84500 -5.32000
v -4.33650 3.84500 -5.32000
v -2.80350 2.69500 -5.40000
v -2.46350 2.69500 -5.40000
v -2.46350 3.84500 -5.40000
v -2.80350 3.84500 -5.40000
v -2.80350 2.69500 -5.32000
v -2.46350 2.69500 -5.32000
v -2.46350 3.84500 -5.32000
v -2.80350 3.84500 -5.32000
v 2.87500 2.64500 -5.28000
v 3.92500 2.64500 -5.28000
v 3.92500 3.89500 -5.28000
v 2.87500 3.89500 -5.28000
v 2.87500 2.64500 -5.20000
v 3.92500 2.64500 -5.20000
v 3.92500 3.89500 -5.20000
v 2.87500 3.89500 -5.20000
v 2.77500 3.21000 -5.38000
v 4.02500 3.21000 -5.38000
v 4.02500 3.33000 -5.38000
v 2.77500 3.33000 -5.38000
v 2.77500 3.21000 -5.22000
v 4.02500 3.21000 -5.22000
v 4.02500 3.33000 -5.22000
v 2.77500 3.33000 -5.22000
v 3.34000 2.54500 -5.38000
v 3.46000 2.54500 -5.38000
v 3.46000 3.99500 -5.38000
v 3.34000 3.99500 -5.38000
v 3.34000 2.54500 -5.22000
v 3.46000 2.54500 -5.22000
v 3.46000 3.99500 -5.22000
v 3.34000 3.99500 -5.22000
v 2.71500 2.54500 -5.38000
v 2.83500 2.54500 -5.38000
v 2.83500 3.99500 -5.38000
v 2.71500 3.99500 -5.38000
v 2.71500 2.54500 -5.22000
v 2.83500 2.54500 -5.22000
v 2.83500 3.99500 -5.22000
v 2.71500 3.99500 -5.22000
v 3.96500 2.54500 -5.38000
v 4.08500 2.54500 -5.38000
v 4.08500 3.99500 -5.38000
v 3.96500 3.99500 -5.38000
v 3.96500 2.54500 -5.22000
v 4.08500 2.54500 -5.22000
v 4.08500 3.99500 -5.22000
v 3.96500 3.99500 -5.22000
v 2.73500 2.45500 -5.42000
v 4.06500 2.45500 -5.42000
v 4.06500 2.59500 -5.42000
v 2.73500 2.59500 -5.42000
v 2.73500 2.45500 -5.18000
v 4.06500 2.45500 -5.18000
v 4.06500 2.59500 -5.18000
v 2.73500 2.59500 -5.18000
v 2.46350 2.69500 -5.40000
v 2.80350 2.69500 -5.40000
v 2.80350 3.84500 -5.40000
v 2.46350 3.84500 -5.40000
v 2.46350 2.69500 -5.32000
v 2.80350 2.69500 -5.32000
v 2.80350 3.84500 -5.32000
v 2.46350 3.84500 -5.32000
v 3.99650 2.69500 -5.40000
v 4.33650 2.69500 -5.40000
v 4.33650 3.84500 -5.40000
v 3.99650 3.84500 -5.40000
v 3.99650 2.69500 -5.32000
v 4.33650 2.69500 -5.32000
v 4.33650 3.84500 -5.32000
v 3.99650 3.84500 -5.32000
v -4.60000 1.25250 -5.24750
v 4.60000 1.25250 -5.24750
v 4.60000 1.28750 -5.24750
v -4.60000 1.28750 -5.24750
v -4.60000 1.25250 -5.19250
v 4.60000 1.25250 -5.19250
v 4.60000 1.28750 -5.19250
v -4.60000 1.28750 -5.19250
v -4.60000 1.68250 -5.24750
v 4.60000 1.68250 -5.24750
v 4.60000 1.71750 -5.24750
v -4.60000 1.71750 -5.24750
v -4.60000 1.68250 -5.19250
v 4.60000 1.68250 -5.19250
v 4.60000 1.71750 -5.19250
v -4.60000 1.71750 -5.19250
v -4.60000 2.11250 -5.24750
v 4.60000 2.11250 -5.24750
v 4.60000 2.14750 -5.24750
v -4.60000 2.14750 -5.24750
v -4.60000 2.11250 -5.19250
v 4.60000 2.11250 -5.19250
v 4.60000 2.14750 -5.19250
v -4.60000 2.14750 -5.19250
v -4.60000 2.54250 -5.24750
v 4.60000 2.54250 -5.24750
v 4.60000 2.57750 -5.24750
v -4.60000 2.57750 -5.24750
v -4.60000 2.54250 -5.19250
v 4.60000 2.54250 -5.19250
v 4.60000 2.57750 -5.19250
v -4.60000 2.57750 -5.19250
v -4.60000 2.97250 -5.24750
v 4.60000 2.97250 -5.24750
v 4.60000 3.00750 -5.24750
v -4.60000 3.00750 -5.24750
v -4.60000 2.97250 -5.19250
v 4.60000 2.97250 -5.19250
v 4.60000 3.00750 -5.19250
v -4.60000 3.00750 -5.19250
v -4.60000 3.40250 -5.24750
v 4.60000 3.40250 -5.24750
v 4.60000 3.43750 -5.24750
v -4.60000 3.43750 -5.24750
v -4.60000 3.40250 -5.19250
v 4.60000 3.40250 -5.19250
v 4.60000 3.43750 -5.19250
v -4.60000 3.43750 -5.19250
v -4.60000 3.83250 -5.24750
v 4.60000 3.83250 -5.24750
v 4.60000 3.86750 -5.24750
v -4.60000 3.86750 -5.24750
v -4.60000 3.83250 -5.19250
v 4.60000 3.83250 -5.19250
v 4.60000 3.86750 -5.19250
v -4.60000 3.86750 -5.19250
v -4.60000 4.26250 -5.24750
v 4.60000 4.26250 -5.24750
v 4.60000 4.29750 -5.24750
v -4.60000 4.29750 -5.24750
v -4.60000 4.26250 -5.19250
v 4.60000 4.26250 -5.19250
v 4.60000 4.29750 -5.19250
v -4.60000 4.29750 -5.19250
v -4.60000 4.69250 -5.24750
v 4.60000 4.69250 -5.24750
v 4.60000 4.72750 -5.24750
v -4.60000 4.72750 -5.24750
v -4.60000 4.69250 -5.19250
v 4.60000 4.69250 -5.19250
v 4.60000 4.72750 -5.19250
v -4.60000 4.72750 -5.19250
v -5.00000 5.52000 -5.18000
v 5.00000 5.52000 -5.18000
v 5.00000 9.92000 -5.18000
v -5.00000 9.92000 -5.18000
v -5.00000 5.52000 -5.00000
v 5.00000 5.52000 -5.00000
v 5.00000 9.92000 -5.00000
v -5.00000 9.92000 -5.00000
v -5.00000 5.52000 5.00000
v 5.00000 5.52000 5.00000
v 5.00000 9.92000 5.00000
v -5.00000 9.92000 5.00000
v -5.00000 5.52000 5.18000
v 5.00000 5.52000 5.18000
v 5.00000 9.92000 5.18000
v -5.00000 9.92000 5.18000
v -5.18000 5.52000 -5.00000
v -5.00000 5.52000 -5.00000
v -5.00000 9.92000 -5.00000
v -5.18000 9.92000 -5.00000
v -5.18000 5.52000 5.00000
v -5.00000 5.52000 5.00000
v -5.00000 9.92000 5.00000
v -5.18000 9.92000 5.00000
v 5.00000 5.52000 -5.00000
v 5.18000 5.52000 -5.00000
v 5.18000 9.92000 -5.00000
v 5.00000 9.92000 -5.00000
v 5.00000 5.52000 5.00000
v 5.18000 5.52000 5.00000
v 5.18000 9.92000 5.00000
v 5.00000 9.92000 5.00000
v -5.00000 5.52000 -5.00000
v 5.00000 5.52000 -5.00000
v 5.00000 5.62000 -5.00000
v -5.00000 5.62000 -5.00000
v -5.00000 5.52000 5.00000
v 5.00000 5.52000 5.00000
v 5.00000 5.62000 5.00000
v -5.00000 5.62000 5.00000
v -5.00000 9.82000 -5.00000
v 5.00000 9.82000 -5.00000
v 5.00000 9.92000 -5.00000
v -5.00000 9.92000 -5.00000
v -5.00000 9.82000 5.00000
v 5.00000 9.82000 5.00000
v 5.00000 9.92000 5.00000
v -5.00000 9.92000 5.00000
v -5.11000 5.62000 -5.26000
v 5.11000 5.62000 -5.26000
v 5.11000 5.78000 -5.26000
v -5.11000 5.78000 -5.26000
v -5.11000 5.62000 -5.12000
v 5.11000 5.62000 -5.12000
v 5.11000 5.78000 -5.12000
v -5.11000 5.78000 -5.12000
v -5.11000 5.62000 5.12000
v 5.11000 5.62000 5.12000
v 5.11000 5.78000 5.12000
v -5.11000 5.78000 5.12000
v -5.11000 5.62000 5.26000
v 5.11000 5.62000 5.26000
v 5.11000 5.78000 5.26000
v -5.11000 5.78000 5.26000
v -5.11000 9.66000 -5.26000
v 5.11000 9.66000 -5.26000
v 5.11000 9.82000 -5.26000
v -5.11000 9.82000 -5.26000
v -5.11000 9.66000 -5.12000
v 5.11000 9.66000 -5.12000
v 5.11000 9.82000 -5.12000
v -5.11000 9.82000 -5.12000
v -5.11000 9.66000 5.12000
v 5.11000 9.66000 5.12000
v 5.11000 9.82000 5.12000
v -5.11000 9.82000 5.12000
v -5.11000 9.66000 5.26000
v 5.11000 9.66000 5.26000
v 5.11000 9.82000 5.26000
v -5.11000 9.82000 5.26000
v -4.96000 5.52000 -5.29000
v -4.80000 5.52000 -5.29000
v -4.80000 9.92000 -5.29000
v -4.96000 9.92000 -5.29000
v -4.96000 5.52000 -5.13000
v -4.80000 5.52000 -5.13000
v -4.80000 9.92000 -5.13000
v -4.96000 9.92000 -5.13000
v 4.80000 5.52000 -5.29000
v 4.96000 5.52000 -5.29000
v 4.96000 9.92000 -5.29000
v 4.80000 9.92000 -5.29000
v 4.80000 5.52000 -5.13000
v 4.96000 5.52000 -5.13000
v 4.96000 9.92000 -5.13000
v 4.80000 9.92000 -5.13000
v -2.58000 5.52000 -5.29000
v -2.42000 5.52000 -5.29000
v -2.42000 9.92000 -5.29000
v -2.58000 9.92000 -5.29000
v -2.58000 5.52000 -5.13000
v -2.42000 5.52000 -5.13000
v -2.42000 9.92000 -5.13000
v -2.58000 9.92000 -5.13000
v 2.42000 5.52000 -5.29000
v 2.58000 5.52000 -5.29000
v 2.58000 9.92000 -5.29000
v 2.42000 9.92000 -5.29000
v 2.42000 5.52000 -5.13000
v 2.58000 5.52000 -5.13000
v 2.58000 9.92000 -5.13000
v 2.42000 9.92000 -5.13000
v -4.96000 5.52000 5.13000
v -4.80000 5.52000 5.13000
v -4.80000 9.92000 5.13000
v -4.96000 9.92000 5.13000
v -4.96000 5.52000 5.29000
v -4.80000 5.52000 5.29000
v -4.80000 9.92000 5.29000
v -4.96000 9.92000 5.29000
v 4.80000 5.52000 5.13000
v 4.96000 5.52000 5.13000
v 4.96000 9.92000 5.13000
v 4.80000 9.92000 5.13000
v 4.80000 5.52000 5.29000
v 4.96000 5.52000 5.29000
v 4.96000 9.92000 5.29000
v 4.80000 9.92000 5.29000
v -3.25000 7.20200 -5.28000
v -2.15000 7.20200 -5.28000
v -2.15000 8.50200 -5.28000
v -3.25000 8.50200 -5.28000
v -3.25000 7.20200 -5.20000
v -2.15000 7.20200 -5.20000
v -2.15000 8.50200 -5.20000
v -3.25000 8.50200 -5.20000
v -3.35000 7.79200 -5.38000
v -2.05000 7.79200 -5.38000
v -2.05000 7.91200 -5.38000
v -3.35000 7.91200 -5.38000
v -3.35000 7.79200 -5.22000
v -2.05000 7.79200 -5.22000
v -2.05000 7.91200 -5.22000
v -3.35000 7.91200 -5.22000
v -2.76000 7.10200 -5.38000
v -2.64000 7.10200 -5.38000
v -2.64000 8.60200 -5.38000
v -2.76000 8.60200 -5.38000
v -2.76000 7.10200 -5.22000
v -2.64000 7.10200 -5.22000
v -2.64000 8.60200 -5.22000
v -2.76000 8.60200 -5.22000
v -3.41000 7.10200 -5.38000
v -3.29000 7.10200 -5.38000
v -3.29000 8.60200 -5.38000
v -3.41000 8.60200 -5.38000
v -3.41000 7.10200 -5.22000
v -3.29000 7.10200 -5.22000
v -3.29000 8.60200 -5.22000
v -3.41000 8.60200 -5.22000
v -2.11000 7.10200 -5.38000
v -1.99000 7.10200 -5.38000
v -1.99000 8.60200 -5.38000
v -2.11000 8.60200 -5.38000
v -2.11000 7.10200 -5.22000
v -1.99000 7.10200 -5.22000
v -1.99000 8.60200 -5.22000
v -2.11000 8.60200 -5.22000
v -3.39000 7.01200 -5.42000
v -2.01000 7.01200 -5.42000
v -2.01000 7.15200 -5.42000
v -3.39000 7.15200 -5.42000
v -3.39000 7.01200 -5.18000
v -2.01000 7.01200 -5.18000
v -2.01000 7.15200 -5.18000
v -3.39000 7.15200 -5.18000
v -3.67300 7.25400 -5.40000
v -3.33300 7.25400 -5.40000
v -3.33300 8.45000 -5.40000
v -3.67300 8.45000 -5.40000
v -3.67300 7.25400 -5.32000
v -3.33300 7.25400 -5.32000
v -3.33300 8.45000 -5.32000
v -3.67300 8.45000 -5.32000
v -2.06700 7.25400 -5.40000
v -1.72700 7.25400 -5.40000
v -1.72700 8.45000 -5.40000
v -2.06700 8.45000 -5.40000
v -2.06700 7.25400 -5.32000
v -1.72700 7.25400 -5.32000
v -1.72700 8.45000 -5.32000
v -2.06700 8.45000 -5.32000
v 2.15000 7.20200 -5.28000
v 3.25000 7.20200 -5.28000
v 3.25000 8.50200 -5.28000
v 2.15000 8.50200 -5.28000
v 2.15000 7.20200 -5.20000
v 3.25000 7.20200 -5.20000
v 3.25000 8.50200 -5.20000
v 2.15000 8.50200 -5.20000
v 2.05000 7.79200 -5.38000
v 3.35000 7.79200 -5.38000
v 3.35000 7.91200 -5.38000
v 2.05000 7.91200 -5.38000
v 2.05000 7.79200 -5.22000
v 3.35000 7.79200 -5.22000
v 3.35000 7.91200 -5.22000
v 2.05000 7.91200 -5.22000
v 2.64000 7.10200 -5.38000
v 2.76000 7.10200 -5.38000
v 2.76000 8.60200 -5.38000
v 2.64000 8.60200 -5.38000
v 2.64000 7.10200 -5.22000
v 2.76000 7.10200 -5.22000
v 2.76000 8.60200 -5.22000
v 2.64000 8.60200 -5.22000
v 1.99000 7.10200 -5.38000
v 2.11000 7.10200 -5.38000
v 2.11000 8.60200 -5.38000
v 1.99000 8.60200 -5.38000
v 1.99000 7.10200 -5.22000
v 2.11000 7.10200 -5.22000
v 2.11000 8.60200 -5.22000
v 1.99000 8.60200 -5.22000
v 3.29000 7.10200 -5.38000
v 3.41000 7.10200 -5.38000
v 3.41000 8.60200 -5.38000
v 3.29000 8.60200 -5.38000
v 3.29000 7.10200 -5.22000
v 3.41000 7.10200 -5.22000
v 3.41000 8.60200 -5.22000
v 3.29000 8.60200 -5.22000
v 2.01000 7.01200 -5.42000
v 3.39000 7.01200 -5.42000
v 3.39000 7.15200 -5.42000
v 2.01000 7.15200 -5.42000
v 2.01000 7.01200 -5.18000
v 3.39000 7.01200 -5.18000
v 3.39000 7.15200 -5.18000
v 2.01000 7.15200 -5.18000
v 1.72700 7.25400 -5.40000
v 2.06700 7.25400 -5.40000
v 2.06700 8.45000 -5.40000
v 1.72700 8.45000 -5.40000
v 1.72700 7.25400 -5.32000
v 2.06700 7.25400 -5.32000
v 2.06700 8.45000 -5.32000
v 1.72700 8.45000 -5.32000
v 3.33300 7.25400 -5.40000
v 3.67300 7.25400 -5.40000
v 3.67300 8.45000 -5.40000
v 3.33300 8.45000 -5.40000
v 3.33300 7.25400 -5.32000
v 3.67300 7.25400 -5.32000
v 3.67300 8.45000 -5.32000
v 3.33300 8.45000 -5.32000
v -3.56000 7.21200 -5.28000
v -2.44000 7.21200 -5.28000
v -2.44000 8.49200 -5.28000
v -3.56000 8.49200 -5.28000
v -3.56000 7.21200 -5.20000
v -2.44000 7.21200 -5.20000
v -2.44000 8.49200 -5.20000
v -3.56000 8.49200 -5.20000
v -3.66000 7.79200 -5.38000
v -2.34000 7.79200 -5.38000
v -2.34000 7.91200 -5.38000
v -3.66000 7.91200 -5.38000
v -3.66000 7.79200 -5.22000
v -2.34000 7.79200 -5.22000
v -2.34000 7.91200 -5.22000
v -3.66000 7.91200 -5.22000
v -3.06000 7.11200 -5.38000
v -2.94000 7.11200 -5.38000
v -2.94000 8.59200 -5.38000
v -3.06000 8.59200 -5.38000
v -3.06000 7.11200 -5.22000
v -2.94000 7.11200 -5.22000
v -2.94000 8.59200 -5.22000
v -3.06000 8.59200 -5.22000
v -3.72000 7.11200 -5.38000
v -3.60000 7.11200 -5.38000
v -3.60000 8.59200 -5.38000
v -3.72000 8.59200 -5.38000
v -3.72000 7.11200 -5.22000
v -3.60000 7.11200 -5.22000
v -3.60000 8.59200 -5.22000
v -3.72000 8.59200 -5.22000
v -2.40000 7.11200 -5.38000
v -2.28000 7.11200 -5.38000
v -2.28000 8.59200 -5.38000
v -2.40000 8.59200 -5.38000
v -2.40000 7.11200 -5.22000
v -2.28000 7.11200 -5.22000
v -2.28000 8.59200 -5.22000
v -2.40000 8.59200 -5.22000
v -3.70000 7.02200 -5.42000
v -2.30000 7.02200 -5.42000
v -2.30000 7.16200 -5.42000
v -3.70000 7.16200 -5.42000
v -3.70000 7.02200 -5.18000
v -2.30000 7.02200 -5.18000
v -2.30000 7.16200 -5.18000
v -3.70000 7.16200 -5.18000
v -3.98760 7.26320 -5.40000
v -3.64760 7.26320 -5.40000
v -3.64760 8.44080 -5.40000
v -3.98760 8.44080 -5.40000
v -3.98760 7.26320 -5.32000
v -3.64760 7.26320 -5.32000
v -3.64760 8.44080 -5.32000
v -3.98760 8.44080 -5.32000
v -2.35240 7.26320 -5.40000
v -2.01240 7.26320 -5.40000
v -2.01240 8.44080 -5.40000
v -2.35240 8.44080 -5.40000
v -2.35240 7.26320 -5.32000
v -2.01240 7.26320 -5.32000
v -2.01240 8.44080 -5.32000
v -2.35240 8.44080 -5.32000
v 2.44000 7.21200 -5.28000
v 3.56000 7.21200 -5.28000
v 3.56000 8.49200 -5.28000
v 2.44000 8.49200 -5.28000
v 2.44000 7.21200 -5.20000
v 3.56000 7.21200 -5.20000
v 3.56000 8.49200 -5.20000
v 2.44000 8.49200 -5.20000
v 2.34000 7.79200 -5.38000
v 3.66000 7.79200 -5.38000
v 3.66000 7.91200 -5.38000
v 2.34000 7.91200 -5.38000
v 2.34000 7.79200 -5.22000
v 3.66000 7.79200 -5.22000
v 3.66000 7.91200 -5.22000
v 2.34000 7.91200 -5.22000
v 2.94000 7.11200 -5.38000
v 3.06000 7.11200 -5.38000
v 3.06000 8.59200 -5.38000
v 2.94000 8.59200 -5.38000
v 2.94000 7.11200 -5.22000
v 3.06000 7.11200 -5.22000
v 3.06000 8.59200 -5.22000
v 2.94000 8.59200 -5.22000
v 2.28000 7.11200 -5.38000
v 2.40000 7.11200 -5.38000
v 2.40000 8.59200 -5.38000
v 2.28000 8.59200 -5.38000
v 2.28000 7.11200 -5.22000
v 2.40000 7.11200 -5.22000
v 2.40000 8.59200 -5.22000
v 2.28000 8.59200 -5.22000
v 3.60000 7.11200 -5.38000
v 3.72000 7.11200 -5.38000
v 3.72000 8.59200 -5.38000
v 3.60000 8.59200 -5.38000
v 3.60000 7.11200 -5.22000
v 3.72000 7.11200 -5.22000
v 3.72000 8.59200 -5.22000
v 3.60000 8.59200 -5.22000
v 2.30000 7.02200 -5.42000
v 3.70000 7.02200 -5.42000
v 3.70000 7.16200 -5.42000
v 2.30000 7.16200 -5.42000
v 2.30000 7.02200 -5.18000
v 3.70000 7.02200 -5.18000
v 3.70000 7.16200 -5.18000
v 2.30000 7.16200 -5.18000
v 2.01240 7.26320 -5.40000
v 2.35240 7.26320 -5.40000
v 2.35240 8.44080 -5.40000
v 2.01240 8.44080 -5.40000
v 2.01240 7.26320 -5.32000
v 2.35240 7.26320 -5.32000
v 2.35240 8.44080 -5.32000
v 2.01240 8.44080 -5.32000
v 3.64760 7.26320 -5.40000
v 3.98760 7.26320 -5.40000
v 3.98760 8.44080 -5.40000
v 3.64760 8.44080 -5.40000
v 3.64760 7.26320 -5.32000
v 3.98760 7.26320 -5.32000
v 3.98760 8.44080 -5.32000
v 3.64760 8.44080 -5.32000
v -5.24000 7.22700 -3.02500
v -5.16000 7.22700 -3.02500
v -5.16000 8.47700 -3.02500
v -5.24000 8.47700 -3.02500
v -5.24000 7.22700 -1.97500
v -5.16000 7.22700 -1.97500
v -5.16000 8.47700 -1.97500
v -5.24000 8.47700 -1.97500
v 5.16000 7.22700 -3.02500
v 5.24000 7.22700 -3.02500
v 5.24000 8.47700 -3.02500
v 5.16000 8.47700 -3.02500
v 5.16000 7.22700 -1.97500
v 5.24000 7.22700 -1.97500
v 5.24000 8.47700 -1.97500
v 5.16000 8.47700 -1.97500
v -5.24000 7.22700 1.97500
v -5.16000 7.22700 1.97500
v -5.16000 8.47700 1.97500
v -5.24000 8.47700 1.97500
v -5.24000 7.22700 3.02500
v -5.16000 7.22700 3.02500
v -5.16000 8.47700 3.02500
v -5.24000 8.47700 3.02500
v 5.16000 7.22700 1.97500
v 5.24000 7.22700 1.97500
v 5.24000 8.47700 1.97500
v 5.16000 8.47700 1.97500
v 5.16000 7.22700 3.02500
v 5.24000 7.22700 3.02500
v 5.24000 8.47700 3.02500
v 5.16000 8.47700 3.02500
v -3.29626 5.19000 -5.27309
v -3.17691 5.19000 -5.34626
v -3.17691 10.25000 -5.34626
v -3.29626 10.25000 -5.27309
v -3.22309 5.19000 -5.15374
v -3.10374 5.19000 -5.22691
v -3.10374 10.25000 -5.22691
v -3.22309 10.25000 -5.15374
v 3.17691 5.19000 -5.34626
v 3.29626 5.19000 -5.27309
v 3.29626 10.25000 -5.27309
v 3.17691 10.25000 -5.34626
v 3.10374 5.19000 -5.22691
v 3.22309 5.19000 -5.15374
v 3.22309 10.25000 -5.15374
v 3.10374 10.25000 -5.22691
v -5.45000 9.84535 -5.42124
v 5.45000 9.84535 -5.42124
v 5.45000 9.99465 -5.47876
v -5.45000 9.99465 -5.47876
v -5.45000 11.94535 0.02876
v 5.45000 11.94535 0.02876
v 5.45000 12.09465 -0.02876
v -5.45000 12.09465 -0.02876
v -5.45000 9.99465 5.47876
v 5.45000 9.99465 5.47876
v 5.45000 9.84535 5.42124
v -5.45000 9.84535 5.42124
v -5.45000 12.09465 0.02876
v 5.45000 12.09465 0.02876
v 5.45000 11.94535 -0.02876
v -5.45000 11.94535 -0.02876
v -5.47500 9.91370 -5.35511
v 5.47500 9.91370 -5.35511
v 5.47500 9.98835 -5.38387
v -5.47500 9.98835 -5.38387
v -5.47500 9.94965 -5.26179
v 5.47500 9.94965 -5.26179
v 5.47500 10.02430 -5.29056
v -5.47500 10.02430 -5.29056
v -5.47500 9.98835 5.38387
v 5.47500 9.98835 5.38387
v 5.47500 9.91370 5.35511
v -5.47500 9.91370 5.35511
v -5.47500 10.02430 5.29056
v 5.47500 10.02430 5.29056
v 5.47500 9.94965 5.26179
v -5.47500 9.94965 5.26179
v -5.47500 10.05370 -4.99177
v 5.47500 10.05370 -4.99177
v 5.47500 10.12835 -5.02054
v -5.47500 10.12835 -5.02054
v -5.47500 10.08965 -4.89846
v 5.47500 10.08965 -4.89846
v 5.47500 10.16430 -4.92723
v -5.47500 10.16430 -4.92723
v -5.47500 10.12835 5.02054
v 5.47500 10.12835 5.02054
v 5.47500 10.05370 4.99177
v -5.47500 10.05370 4.99177
v -5.47500 10.16430 4.92723
v 5.47500 10.16430 4.92723
v 5.47500 10.08965 4.89846
v -5.47500 10.08965 4.89846
v -5.47500 10.19370 -4.62844
v 5.47500 10.19370 -4.62844
v 5.47500 10.26835 -4.65721
v -5.47500 10.26835 -4.65721
v -5.47500 10.22965 -4.53513
v 5.47500 10.22965 -4.53513
v 5.47500 10.30430 -4.56389
v -5.47500 10.30430 -4.56389
v -5.47500 10.26835 4.65721
v 5.47500 10.26835 4.65721
v 5.47500 10.19370 4.62844
v -5.47500 10.19370 4.62844
v -5.47500 10.30430 4.56389
v 5.47500 10.30430 4.56389
v 5.47500 10.22965 4.53513
v -5.47500 10.22965 4.53513
v -5.47500 10.33370 -4.26511
v 5.47500 10.33370 -4.26511
v 5.47500 10.40835 -4.29387
v -5.47500 10.40835 -4.29387
v -5.47500 10.36965 -4.17179
v 5.47500 10.36965 -4.17179
v 5.47500 10.44430 -4.20056
v -5.47500 10.44430 -4.20056
v -5.47500 10.40835 4.29387
v 5.47500 10.40835 4.29387
v 5.47500 10.33370 4.26511
v -5.47500 10.33370 4.26511
v -5.47500 10.44430 4.20056
v 5.47500 10.44430 4.20056
v 5.47500 10.36965 4.17179
v -5.47500 10.36965 4.17179
v -5.47500 10.47370 -3.90177
v 5.47500 10.47370 -3.90177
v 5.47500 10.54835 -3.93054
v -5.47500 10.54835 -3.93054
v -5.47500 10.50965 -3.80846
v 5.47500 10.50965 -3.80846
v 5.47500 10.58430 -3.83723
v -5.47500 10.58430 -3.83723
v -5.47500 10.54835 3.93054
v 5.47500 10.54835 3.93054
v 5.47500 10.47370 3.90177
v -5.47500 10.47370 3.90177
v -5.47500 10.58430 3.83723
v 5.47500 10.58430 3.83723
v 5.47500 10.50965 3.80846
v -5.47500 10.50965 3.80846
v -5.47500 10.61370 -3.53844
v 5.47500 10.61370 -3.53844
v 5.47500 10.68835 -3.56721
v -5.47500 10.68835 -3.56721
v -5.47500 10.64965 -3.44513
v 5.47500 10.64965 -3.44513
v 5.47500 10.72430 -3.47389
v -5.47500 10.72430 -3.47389
v -5.47500 10.68835 3.56721
v 5.47500 10.68835 3.56721
v 5.47500 10.61370 3.53844
v -5.47500 10.61370 3.53844
v -5.47500 10.72430 3.47389
v 5.47500 10.72430 3.47389
v 5.47500 10.64965 3.44513
v -5.47500 10.64965 3.44513
v -5.47500 10.75370 -3.17511
v 5.47500 10.75370 -3.17511
v 5.47500 10.82835 -3.20387
v -5.47500 10.82835 -3.20387
v -5.47500 10.78965 -3.08179
v 5.47500 10.78965 -3.08179
v 5.47500 10.86430 -3.11056
v -5.47500 10.86430 -3.11056
v -5.47500 10.82835 3.20387
v 5.47500 10.82835 3.20387
v 5.47500 10.75370 3.17511
v -5.47500 10.75370 3.17511
v -5.47500 10.86430 3.11056
v 5.47500 10.86430 3.11056
v 5.47500 10.78965 3.08179
v -5.47500 10.78965 3.08179
v -5.47500 10.89370 -2.81177
v 5.47500 10.89370 -2.81177
v 5.47500 10.96835 -2.84054
v -5.47500 10.96835 -2.84054
v -5.47500 10.92965 -2.71846
v 5.47500 10.92965 -2.71846
v 5.47500 11.00430 -2.74723
v -5.47500 11.00430 -2.74723
v -5.47500 10.96835 2.84054
v 5.47500 10.96835 2.84054
v 5.47500 10.89370 2.81177
v -5.47500 10.89370 2.81177
v -5.47500 11.00430 2.74723
v 5.47500 11.00430 2.74723
v 5.47500 10.92965 2.71846
v -5.47500 10.92965 2.71846
v -5.47500 11.03370 -2.44844
v 5.47500 11.03370 -2.44844
v 5.47500 11.10835 -2.47721
v -5.47500 11.10835 -2.47721
v -5.47500 11.06965 -2.35513
v 5.47500 11.06965 -2.35513
v 5.47500 11.14430 -2.38389
v -5.47500 11.14430 -2.38389
v -5.47500 11.10835 2.47721
v 5.47500 11.10835 2.47721
v 5.47500 11.03370 2.44844
v -5.47500 11.03370 2.44844
v -5.47500 11.14430 2.38389
v 5.47500 11.14430 2.38389
v 5.47500 11.06965 2.35513
v -5.47500 11.06965 2.35513
v -5.47500 11.17370 -2.08511
v 5.47500 11.17370 -2.08511
v 5.47500 11.24835 -2.11387
v -5.47500 11.24835 -2.11387
v -5.47500 11.20965 -1.99179
v 5.47500 11.20965 -1.99179
v 5.47500 11.28430 -2.02056
v -5.47500 11.28430 -2.02056
v -5.47500 11.24835 2.11387
v 5.47500 11.24835 2.11387
v 5.47500 11.17370 2.08511
v -5.47500 11.17370 2.08511
v -5.47500 11.28430 2.02056
v 5.47500 11.28430 2.02056
v 5.47500 11.20965 1.99179
v -5.47500 11.20965 1.99179
v -5.47500 11.31370 -1.72177
v 5.47500 11.31370 -1.72177
v 5.47500 11.38835 -1.75054
v -5.47500 11.38835 -1.75054
v -5.47500 11.34965 -1.62846
v 5.47500 11.34965 -1.62846
v 5.47500 11.42430 -1.65723
v -5.47500 11.42430 -1.65723
v -5.47500 11.38835 1.75054
v 5.47500 11.38835 1.75054
v 5.47500 11.31370 1.72177
v -5.47500 11.31370 1.72177
v -5.47500 11.42430 1.65723
v 5.47500 11.42430 1.65723
v 5.47500 11.34965 1.62846
v -5.47500 11.34965 1.62846
v -5.47500 11.45370 -1.35844
v 5.47500 11.45370 -1.35844
v 5.47500 11.52835 -1.38721
v -5.47500 11.52835 -1.38721
v -5.47500 11.48965 -1.26513
v 5.47500 11.48965 -1.26513
v 5.47500 11.56430 -1.29389
v -5.47500 11.56430 -1.29389
v -5.47500 11.52835 1.38721
v 5.47500 11.52835 1.38721
v 5.47500 11.45370 1.35844
v -5.47500 11.45370 1.35844
v -5.47500 11.56430 1.29389
v 5.47500 11.56430 1.29389
v 5.47500 11.48965 1.26513
v -5.47500 11.48965 1.26513
v -5.47500 11.59370 -0.99511
v 5.47500 11.59370 -0.99511
v 5.47500 11.66835 -1.02387
v -5.47500 11.66835 -1.02387
v -5.47500 11.62965 -0.90179
v 5.47500 11.62965 -0.90179
v 5.47500 11.70430 -0.93056
v -5.47500 11.70430 -0.93056
v -5.47500 11.66835 1.02387
v 5.47500 11.66835 1.02387
v 5.47500 11.59370 0.99511
v -5.47500 11.59370 0.99511
v -5.47500 11.70430 0.93056
v 5.47500 11.70430 0.93056
v 5.47500 11.62965 0.90179
v -5.47500 11.62965 0.90179
v -5.47500 11.73370 -0.63177
v 5.47500 11.73370 -0.63177
v 5.47500 11.80835 -0.66054
v -5.47500 11.80835 -0.66054
v -5.47500 11.76965 -0.53846
v 5.47500 11.76965 -0.53846
v 5.47500 11.84430 -0.56723
v -5.47500 11.84430 -0.56723
v -5.47500 11.80835 0.66054
v 5.47500 11.80835 0.66054
v 5.47500 11.73370 0.63177
v -5.47500 11.73370 0.63177
v -5.47500 11.84430 0.56723
v 5.47500 11.84430 0.56723
v 5.47500 11.76965 0.53846
v -5.47500 11.76965 0.53846
v -5.47500 11.87370 -0.26844
v 5.47500 11.87370 -0.26844
v 5.47500 11.94835 -0.29721
v -5.47500 11.94835 -0.29721
v -5.47500 11.90965 -0.17513
v 5.47500 11.90965 -0.17513
v 5.47500 11.98430 -0.20389
v -5.47500 11.98430 -0.20389
v -5.47500 11.94835 0.29721
v 5.47500 11.94835 0.29721
v 5.47500 11.87370 0.26844
v -5.47500 11.87370 0.26844
v -5.47500 11.98430 0.20389
v 5.47500 11.98430 0.20389
v 5.47500 11.90965 0.17513
v -5.47500 11.90965 0.17513
v -5.22500 12.02000 0.12000
v 5.22500 12.02000 0.12000
v -5.22500 11.97408 0.11087
v 5.22500 11.97408 0.11087
v -5.22500 11.93515 0.08485
v 5.22500 11.93515 0.08485
v -5.22500 11.90913 0.04592
v 5.22500 11.90913 0.04592
v -5.22500 11.90000 0.00000
v 5.22500 11.90000 0.00000
v -5.22500 11.90913 -0.04592
v 5.22500 11.90913 -0.04592
v -5.22500 11.93515 -0.08485
v 5.22500 11.93515 -0.08485
v -5.22500 11.97408 -0.11087
v 5.22500 11.97408 -0.11087
v -5.22500 12.02000 -0.12000
v 5.22500 12.02000 -0.12000
v -5.22500 12.06592 -0.11087
v 5.22500 12.06592 -0.11087
v -5.22500 12.10485 -0.08485
v 5.22500 12.10485 -0.08485
v -5.22500 12.13087 -0.04592
v 5.22500 12.13087 -0.04592
v -5.22500 12.14000 -0.00000
v 5.22500 12.14000 -0.00000
v -5.22500 12.13087 0.04592
v 5.22500 12.13087 0.04592
v -5.22500 12.10485 0.08485
v 5.22500 12.10485 0.08485
v -5.22500 12.06592 0.11087
v 5.22500 12.06592 0.11087
v -5.45000 9.79000 -5.53000
v 5.45000 9.79000 -5.53000
v 5.45000 9.95000 -5.53000
v -5.45000 9.95000 -5.53000
v -5.45000 9.79000 -5.37000
v 5.45000 9.79000 -5.37000
v 5.45000 9.95000 -5.37000
v -5.45000 9.95000 -5.37000
v -5.45000 9.79000 5.37000
v 5.45000 9.79000 5.37000
v 5.45000 9.95000 5.37000
v -5.45000 9.95000 5.37000
v -5.45000 9.79000 5.53000
v 5.45000 9.79000 5.53000
v 5.45000 9.95000 5.53000
v -5.45000 9.95000 5.53000
v -3.07500 11.07000 1.22500
v -2.52500 11.07000 1.22500
v -2.52500 12.87000 1.22500
v -3.07500 12.87000 1.22500
v -3.07500 11.07000 1.77500
v -2.52500 11.07000 1.77500
v -2.52500 12.87000 1.77500
v -3.07500 12.87000 1.77500
v -3.16000 12.83000 1.14000
v -2.44000 12.83000 1.14000
v -2.44000 13.01000 1.14000
v -3.16000 13.01000 1.14000
v -3.16000 12.83000 1.86000
v -2.44000 12.83000 1.86000
v -2.44000 13.01000 1.86000
v -3.16000 13.01000 1.86000
v -2.98000 13.00000 1.32000
v -2.62000 13.00000 1.32000
v -2.62000 13.10000 1.32000
v -2.98000 13.10000 1.32000
v -2.98000 13.00000 1.68000
v -2.62000 13.00000 1.68000
v -2.62000 13.10000 1.68000
v -2.98000 13.10000 1.68000
v 3.00000 10.97000 1.04000
v 3.00000 12.42000 1.04000
v 2.93877 10.97000 1.05218
v 2.93877 12.42000 1.05218
v 2.88686 10.97000 1.08686
v 2.88686 12.42000 1.08686
v 2.85218 10.97000 1.13877
v 2.85218 12.42000 1.13877
v 2.84000 10.97000 1.20000
v 2.84000 12.42000 1.20000
v 2.85218 10.97000 1.26123
v 2.85218 12.42000 1.26123
v 2.88686 10.97000 1.31314
v 2.88686 12.42000 1.31314
v 2.93877 10.97000 1.34782
v 2.93877 12.42000 1.34782
v 3.00000 10.97000 1.36000
v 3.00000 12.42000 1.36000
v 3.06123 10.97000 1.34782
v 3.06123 12.42000 1.34782
v 3.11314 10.97000 1.31314
v 3.11314 12.42000 1.31314
v 3.14782 10.97000 1.26123
v 3.14782 12.42000 1.26123
v 3.16000 10.97000 1.20000
v 3.16000 12.42000 1.20000
v 3.14782 10.97000 1.13877
v 3.14782 12.42000 1.13877
v 3.11314 10.97000 1.08686
v 3.11314 12.42000 1.08686
v 3.06123 10.97000 1.05218
v 3.06123 12.42000 1.05218
v 2.75000 12.42000 1.38000
v 3.25000 12.42000 1.38000
v 2.75000 12.33000 1.35588
v 3.25000 12.33000 1.35588
v 2.75000 12.26412 1.29000
v 3.25000 12.26412 1.29000
v 2.75000 12.24000 1.20000
v 3.25000 12.24000 1.20000
v 2.75000 12.26412 1.11000
v 3.25000 12.26412 1.11000
v 2.75000 12.33000 1.04412
v 3.25000 12.33000 1.04412
v 2.75000 12.42000 1.02000
v 3.25000 12.42000 1.02000
v 2.75000 12.51000 1.04412
v 3.25000 12.51000 1.04412
v 2.75000 12.57588 1.11000
v 3.25000 12.57588 1.11000
v 2.75000 12.60000 1.20000
v 3.25000 12.60000 1.20000
v 2.75000 12.57588 1.29000
v 3.25000 12.57588 1.29000
v 2.75000 12.51000 1.35588
v 3.25000 12.51000 1.35588
v -4.55000 3.65000 -5.36500
v -3.75000 3.65000 -5.36500
v -4.55000 3.61767 -5.37550
v -3.75000 3.61767 -5.37550
v -4.55000 3.59769 -5.40300
v -3.75000 3.59769 -5.40300
v -4.55000 3.59769 -5.43700
v -3.75000 3.59769 -5.43700
v -4.55000 3.61767 -5.46450
v -3.75000 3.61767 -5.46450
v -4.55000 3.65000 -5.47500
v -3.75000 3.65000 -5.47500
v -4.55000 3.68233 -5.46450
v -3.75000 3.68233 -5.46450
v -4.55000 3.70231 -5.43700
v -3.75000 3.70231 -5.43700
v -4.55000 3.70231 -5.40300
v -3.75000 3.70231 -5.40300
v -4.55000 3.68233 -5.37550
v -3.75000 3.68233 -5.37550
v -3.97500 3.19000 -5.48000
v -3.32500 3.19000 -5.48000
v -3.32500 3.61000 -5.48000
v -3.97500 3.61000 -5.48000
v -3.97500 3.19000 -5.42000
v -3.32500 3.19000 -5.42000
v -3.32500 3.61000 -5.42000
v -3.97500 3.61000 -5.42000
v 4.35000 3.35000 -5.47500
v 4.35000 3.95000 -5.47500
v 4.32250 3.35000 -5.46763
v 4.32250 3.95000 -5.46763
v 4.30237 3.35000 -5.44750
v 4.30237 3.95000 -5.44750
v 4.29500 3.35000 -5.42000
v 4.29500 3.95000 -5.42000
v 4.30237 3.35000 -5.39250
v 4.30237 3.95000 -5.39250
v 4.32250 3.35000 -5.37237
v 4.32250 3.95000 -5.37237
v 4.35000 3.35000 -5.36500
v 4.35000 3.95000 -5.36500
v 4.37750 3.35000 -5.37237
v 4.37750 3.95000 -5.37237
v 4.39763 3.35000 -5.39250
v 4.39763 3.95000 -5.39250
v 4.40500 3.35000 -5.42000
v 4.40500 3.95000 -5.42000
v 4.39763 3.35000 -5.44750
v 4.39763 3.95000 -5.44750
v 4.37750 3.35000 -5.46763
v 4.37750 3.95000 -5.46763
v 4.35000 3.33000 -5.44000
v 4.35000 3.33000 -5.44000
v 4.35000 3.33000 -5.44000
v 4.35000 3.33000 -5.44000
v 4.35000 3.33000 -5.44000
v 4.35000 3.33000 -5.44000
v 4.35000 3.33000 -5.44000
v 4.35000 3.33000 -5.44000
v 4.35000 3.33000 -5.44000
v 4.35000 3.33000 -5.44000
v 4.35000 3.33000 -5.44000
v 4.35000 3.33000 -5.44000
v 4.45580 3.29562 -5.44000
v 4.44163 3.29562 -5.38710
v 4.40290 3.29562 -5.34837
v 4.35000 3.29562 -5.33420
v 4.29710 3.29562 -5.34837
v 4.25837 3.29562 -5.38710
v 4.24420 3.29562 -5.44000
v 4.25837 3.29562 -5.49290
v 4.29710 3.29562 -5.53163
v 4.35000 3.29562 -5.54580
v 4.40290 3.29562 -5.53163
v 4.44163 3.29562 -5.49290
v 4.52119 3.20562 -5.44000
v 4.49826 3.20562 -5.35440
v 4.43560 3.20562 -5.29174
v 4.35000 3.20562 -5.26881
v 4.26440 3.20562 -5.29174
v 4.20174 3.20562 -5.35440
v 4.17881 3.20562 -5.44000
v 4.20174 3.20562 -5.52560
v 4.26440 3.20562 -5.58826
v 4.35000 3.20562 -5.61119
v 4.43560 3.20562 -5.58826
v 4.49826 3.20562 -5.52560
v 4.52119 3.09438 -5.44000
v 4.49826 3.09438 -5.35440
v 4.43560 3.09438 -5.29174
v 4.35000 3.09438 -5.26881
v 4.26440 3.09438 -5.29174
v 4.20174 3.09438 -5.35440
v 4.17881 3.09438 -5.44000
v 4.20174 3.09438 -5.52560
v 4.26440 3.09438 -5.58826
v 4.35000 3.09438 -5.61119
v 4.43560 3.09438 -5.58826
v 4.49826 3.09438 -5.52560
v 4.45580 3.00438 -5.44000
v 4.44163 3.00438 -5.38710
v 4.40290 3.00438 -5.34837
v 4.35000 3.00438 -5.33420
v 4.29710 3.00438 -5.34837
v 4.25837 3.00438 -5.38710
v 4.24420 3.00438 -5.44000
v 4.25837 3.00438 -5.49290
v 4.29710 3.00438 -5.53163
v 4.35000 3.00438 -5.54580
v 4.40290 3.00438 -5.53163
v 4.44163 3.00438 -5.49290
v 4.35000 2.97000 -5.44000
v 4.35000 2.97000 -5.44000
v 4.35000 2.97000 -5.44000
v 4.35000 2.97000 -5.44000
v 4.35000 2.97000 -5.44000
v 4.35000 2.97000 -5.44000
v 4.35000 2.97000 -5.44000
v 4.35000 2.97000 -5.44000
v 4.35000 2.97000 -5.44000
v 4.35000 2.97000 -5.44000
v 4.35000 2.97000 -5.44000
v 4.35000 2.97000 -5.44000
g stone_plinth_base
usemtl Mat_StoneFoundation
f 1 2 3 4
f 5 8 7 6
f 1 5 6 2
f 2 6 7 3
f 3 7 8 4
f 4 8 5 1
g stone_plinth_raised
f 9 10 11 12
f 13 16 15 14
f 9 13 14 10
f 10 14 15 11
f 11 15 16 12
f 12 16 13 9
g stone_block_front_0
f 17 18 19 20
f 21 24 23 22
f 17 21 22 18
f 18 22 23 19
f 19 23 24 20
f 20 24 21 17
g stone_block_front_1
f 25 26 27 28
f 29 32 31 30
f 25 29 30 26
f 26 30 31 27
f 27 31 32 28
f 28 32 29 25
g stone_block_front_2
f 33 34 35 36
f 37 40 39 38
f 33 37 38 34
f 34 38 39 35
f 35 39 40 36
f 36 40 37 33
g stone_block_front_3
f 41 42 43 44
f 45 48 47 46
f 41 45 46 42
f 42 46 47 43
f 43 47 48 44
f 44 48 45 41
g stone_block_front_4
f 49 50 51 52
f 53 56 55 54
f 49 53 54 50
f 50 54 55 51
f 51 55 56 52
f 52 56 53 49
g stone_block_front_5
f 57 58 59 60
f 61 64 63 62
f 57 61 62 58
f 58 62 63 59
f 59 63 64 60
f 60 64 61 57
g stone_block_front_6
f 65 66 67 68
f 69 72 71 70
f 65 69 70 66
f 66 70 71 67
f 67 71 72 68
f 68 72 69 65
g stone_block_front_7
f 73 74 75 76
f 77 80 79 78
f 73 77 78 74
f 74 78 79 75
f 75 79 80 76
f 76 80 77 73
g stone_block_back_0
f 81 82 83 84
f 85 88 87 86
f 81 85 86 82
f 82 86 87 83
f 83 87 88 84
f 84 88 85 81
g stone_block_back_1
f 89 90 91 92
f 93 96 95 94
f 89 93 94 90
f 90 94 95 91
f 91 95 96 92
f 92 96 93 89
g stone_block_back_2
f 97 98 99 100
f 101 104 103 102
f 97 101 102 98
f 98 102 103 99
f 99 103 104 100
f 100 104 101 97
g stone_block_back_3
f 105 106 107 108
f 109 112 111 110
f 105 109 110 106
f 106 110 111 107
f 107 111 112 108
f 108 112 109 105
g stone_block_back_4
f 113 114 115 116
f 117 120 119 118
f 113 117 118 114
f 114 118 119 115
f 115 119 120 116
f 116 120 117 113
g stone_block_back_5
f 121 122 123 124
f 125 128 127 126
f 121 125 126 122
f 122 126 127 123
f 123 127 128 124
f 124 128 125 121
g stone_block_back_6
f 129 130 131 132
f 133 136 135 134
f 129 133 134 130
f 130 134 135 131
f 131 135 136 132
f 132 136 133 129
g stone_block_back_7
f 137 138 139 140
f 141 144 143 142
f 137 141 142 138
f 138 142 143 139
f 139 143 144 140
f 140 144 141 137
g stone_block_left_0
f 145 146 147 148
f 149 152 151 150
f 145 149 150 146
f 146 150 151 147
f 147 151 152 148
f 148 152 149 145
g stone_block_left_1
f 153 154 155 156
f 157 160 159 158
f 153 157 158 154
f 154 158 159 155
f 155 159 160 156
f 156 160 157 153
g stone_block_left_2
f 161 162 163 164
f 165 168 167 166
f 161 165 166 162
f 162 166 167 163
f 163 167 168 164
f 164 168 165 161
g stone_block_left_3
f 169 170 171 172
f 173 176 175 174
f 169 173 174 170
f 170 174 175 171
f 171 175 176 172
f 172 176 173 169
g stone_block_left_4
f 177 178 179 180
f 181 184 183 182
f 177 181 182 178
f 178 182 183 179
f 179 183 184 180
f 180 184 181 177
g stone_block_left_5
f 185 186 187 188
f 189 192 191 190
f 185 189 190 186
f 186 190 191 187
f 187 191 192 188
f 188 192 189 185
g stone_block_left_6
f 193 194 195 196
f 197 200 199 198
f 193 197 198 194
f 194 198 199 195
f 195 199 200 196
f 196 200 197 193
g stone_block_left_7
f 201 202 203 204
f 205 208 207 206
f 201 205 206 202
f 202 206 207 203
f 203 207 208 204
f 204 208 205 201
g stone_block_right_0
f 209 210 211 212
f 213 216 215 214
f 209 213 214 210
f 210 214 215 211
f 211 215 216 212
f 212 216 213 209
g stone_block_right_1
f 217 218 219 220
f 221 224 223 222
f 217 221 222 218
f 218 222 223 219
f 219 223 224 220
f 220 224 221 217
g stone_block_right_2
f 225 226 227 228
f 229 232 231 230
f 225 229 230 226
f 226 230 231 227
f 227 231 232 228
f 228 232 229 225
g stone_block_right_3
f 233 234 235 236
f 237 240 239 238
f 233 237 238 234
f 234 238 239 235
f 235 239 240 236
f 236 240 237 233
g stone_block_right_4
f 241 242 243 244
f 245 248 247 246
f 241 245 246 242
f 242 246 247 243
f 243 247 248 244
f 244 248 245 241
g stone_block_right_5
f 249 250 251 252
f 253 256 255 254
f 249 253 254 250
f 250 254 255 251
f 251 255 256 252
f 252 256 253 249
g stone_block_right_6
f 257 258 259 260
f 261 264 263 262
f 257 261 262 258
f 258 262 263 259
f 259 263 264 260
f 260 264 261 257
g stone_block_right_7
f 265 266 267 268
f 269 272 271 270
f 265 269 270 266
f 266 270 271 267
f 267 271 272 268
f 268 272 269 265
g GalakasMidCity_Workshop_W05D05_F01_R01U01L01_A01_lower_front_left_wall
usemtl Mat_BrickWall
f 273 274 275 276
f 277 280 279 278
f 273 277 278 274
f 274 278 279 275
f 275 279 280 276
f 276 280 277 273
g GalakasMidCity_Workshop_W05D05_F01_R01U01L01_A01_lower_front_right_wall
f 281 282 283 284
f 285 288 287 286
f 281 285 286 282
f 282 286 287 283
f 283 287 288 284
f 284 288 285 281
g GalakasMidCity_Workshop_W05D05_F01_R01U01L01_A01_lower_front_above_door
f 289 290 291 292
f 293 296 295 294
f 289 293 294 290
f 290 294 295 291
f 291 295 296 292
f 292 296 293 289
g GalakasMidCity_Workshop_W05D05_F01_R01U01L01_A01_lower_main_door_slab
usemtl Mat_WoodDark
f 297 298 299 300
f 301 304 303 302
f 297 301 302 298
f 298 302 303 299
f 299 303 304 300
f 300 304 301 297
g GalakasMidCity_Workshop_W05D05_F01_R01U01L01_A01_lower_main_door_plank_0
usemtl Mat_WoodWeathered
f 305 306 307 308
f 309 312 311 310
f 305 309 310 306
f 306 310 311 307
f 307 311 312 308
f 308 312 309 305
g GalakasMidCity_Workshop_W05D05_F01_R01U01L01_A01_lower_main_door_plank_1
f 313 314 315 316
f 317 320 319 318
f 313 317 318 314
f 314 318 319 315
f 315 319 320 316
f 316 320 317 313
g GalakasMidCity_Workshop_W05D05_F01_R01U01L01_A01_lower_main_door_plank_2
f 321 322 323 324
f 325 328 327 326
f 321 325 326 322
f 322 326 327 323
f 323 327 328 324
f 324 328 325 321
g GalakasMidCity_Workshop_W05D05_F01_R01U01L01_A01_lower_main_door_plank_3
f 329 330 331 332
f 333 336 335 334
f 329 333 334 330
f 330 334 335 331
f 331 335 336 332
f 332 336 333 329
g GalakasMidCity_Workshop_W05D05_F01_R01U01L01_A01_lower_main_door_plank_4
f 337 338 339 340
f 341 344 343 342
f 337 341 342 338
f 338 342 343 339
f 339 343 344 340
f 340 344 341 337
g GalakasMidCity_Workshop_W05D05_F01_R01U01L01_A01_lower_main_door_frame_l
usemtl Mat_WoodDark
f 345 346 347 348
f 349 352 351 350
f 345 349 350 346
f 346 350 351 347
f 347 351 352 348
f 348 352 349 345
g GalakasMidCity_Workshop_W05D05_F01_R01U01L01_A01_lower_main_door_frame_r
f 353 354 355 356
f 357 360 359 358
f 353 357 358 354
f 354 358 359 355
f 355 359 360 356
f 356 360 357 353
g GalakasMidCity_Workshop_W05D05_F01_R01U01L01_A01_lower_main_door_lintel
f 361 362 363 364
f 365 368 367 366
f 361 365 366 362
f 362 366 367 363
f 363 367 368 364
f 364 368 365 361
g GalakasMidCity_Workshop_W05D05_F01_R01U01L01_A01_lower_main_door_band_0
usemtl Mat_MetalDark
f 369 370 371 372
f 373 376 375 374
f 369 373 374 370
f 370 374 375 371
f 371 375 376 372
f 372 376 373 369
g GalakasMidCity_Workshop_W05D05_F01_R01U01L01_A01_lower_main_door_band_1
f 377 378 379 380
f 381 384 383 382
f 377 381 382 378
f 378 382 383 379
f 379 383 384 380
f 380 384 381 377
g GalakasMidCity_Workshop_W05D05_F01_R01U01L01_A01_lower_main_door_band_2
f 385 386 387 388
f 389 392 391 390
f 385 389 390 386
f 386 390 391 387
f 387 391 392 388
f 388 392 389 385
g GalakasMidCity_Workshop_W05D05_F01_R01U01L01_A01_lower_main_door_hinge_pin_0
f 393 395 396 394
f 395 397 398 396
f 397 399 400 398
f 399 401 402 400
f 401 403 404 402
f 403 405 406 404
f 405 407 408 406
f 407 409 410 408
f 409 411 412 410
f 411 413 414 412
f 413 415 416 414
f 415 393 394 416
g GalakasMidCity_Workshop_W05D05_F01_R01U01L01_A01_lower_main_door_hinge_pin_0_capA
f 415 413 411 409 407 405 403 401 399 397 395 393
g GalakasMidCity_Workshop_W05D05_F01_R01U01L01_A01_lower_main_door_hinge_pin_0_capB
f 394 396 398 400 402 404 406 408 410 412 414 416
g GalakasMidCity_Workshop_W05D05_F01_R01U01L01_A01_lower_main_door_hinge_pin_1
f 417 419 420 418
f 419 421 422 420
f 421 423 424 422
f 423 425 426 424
f 425 427 428 426
f 427 429 430 428
f 429 431 432 430
f 431 433 434 432
f 433 435 436 434
f 435 437 438 436
f 437 439 440 438
f 439 417 418 440
g GalakasMidCity_Workshop_W05D05_F01_R01U01L01_A01_lower_main_door_hinge_pin_1_capA
f 439 437 435 433 431 429 427 425 423 421 419 417
g GalakasMidCity_Workshop_W05D05_F01_R01U01L01_A01_lower_main_door_hinge_pin_1_capB
f 418 420 422 424 426 428 430 432 434 436 438 440
g GalakasMidCity_Workshop_W05D05_F01_R01U01L01_A01_lower_main_door_knob
f 441 442 454 453
f 442 443 455 454
f 443 444 456 455
f 444 445 457 456
f 445 446 458 457
f 446 447 459 458
f 447 448 460 459
f 448 449 461 460
f 449 450 462 461
f 450 451 463 462
f 451 452 464 463
f 452 441 453 464
f 453 454 466 465
f 454 455 467 466
f 455 456 468 467
f 456 457 469 468
f 457 458 470 469
f 458 459 471 470
f 459 460 472 471
f 460 461 473 472
f 461 462 474 473
f 462 463 475 474
f 463 464 476 475
f 464 453 465 476
f 465 466 478 477
f 466 467 479 478
f 467 468 480 479
f 468 469 481 480
f 469 470 482 481
f 470 471 483 482
f 471 472 484 483
f 472 473 485 484
f 473 474 486 485
f 474 475 487 486
f 475 476 488 487
f 476 465 477 488
f 477 478 490 489
f 478 479 491 490
f 479 480 492 491
f 480 481 493 492
f 481 482 494 493
f 482 483 495 494
f 483 484 496 495
f 484 485 497 496
f 485 486 498 497
f 486 487 499 498
f 487 488 500 499
f 488 477 489 500
f 489 490 502 501
f 490 491 503 502
f 491 492 504 503
f 492 493 505 504
f 493 494 506 505
f 494 495 507 506
f 495 496 508 507
f 496 497 509 508
f 497 498 510 509
f 498 499 511 510
f 499 500 512 511
f 500 489 501 512
g GalakasMidCity_Workshop_W05D05_F01_R01U01L01_A01_lower_back_wall
usemtl Mat_BrickWall
f 513 514 515 516
f 517 520 519 518
f 513 517 518 514
f 514 518 519 515
f 515 519 520 516
f 516 520 517 513
g GalakasMidCity_Workshop_W05D05_F01_R01U01L01_A01_lower_left_wall
f 521 522 523 524
f 525 528 527 526
f 521 525 526 522
f 522 526 527 523
f 523 527 528 524
f 524 528 525 521
g GalakasMidCity_Workshop_W05D05_F01_R01U01L01_A01_lower_right_wall
f 529 530 531 532
f 533 536 535 534
f 529 533 534 530
f 530 534 535 531
f 531 535 536 532
f 532 536 533 529
g GalakasMidCity_Workshop_W05D05_F01_R01U01L01_A01_lower_floor_cap
usemtl Mat_WoodDark
f 537 538 539 540
f 541 544 543 542
f 537 541 542 538
f 538 542 543 539
f 539 543 544 540
f 540 544 541 537
g GalakasMidCity_Workshop_W05D05_F01_R01U01L01_A01_lower_ceiling_cap
f 545 546 547 548
f 549 552 551 550
f 545 549 550 546
f 546 550 551 547
f 547 551 552 548
f 548 552 549 545
g GalakasMidCity_Workshop_W05D05_F01_R01U01L01_A01_lower_front_course_89
f 553 554 555 556
f 557 560 559 558
f 553 557 558 554
f 554 558 559 555
f 555 559 560 556
f 556 560 557 553
g GalakasMidCity_Workshop_W05D05_F01_R01U01L01_A01_lower_back_course_89
f 561 562 563 564
f 565 568 567 566
f 561 565 566 562
f 562 566 567 563
f 563 567 568 564
f 564 568 565 561
g GalakasMidCity_Workshop_W05D05_F01_R01U01L01_A01_lower_front_course_534
f 569 570 571 572
f 573 576 575 574
f 569 573 574 570
f 570 574 575 571
f 571 575 576 572
f 572 576 573 569
g GalakasMidCity_Workshop_W05D05_F01_R01U01L01_A01_lower_back_course_534
f 577 578 579 580
f 581 584 583 582
f 577 581 582 578
f 578 582 583 579
f 579 583 584 580
f 580 584 581 577
g GalakasMidCity_Workshop_W05D05_F01_R01U01L01_A01_lower_front_post_-4_9
f 585 586 587 588
f 589 592 591 590
f 585 589 590 586
f 586 590 591 587
f 587 591 592 588
f 588 592 589 585
g GalakasMidCity_Workshop_W05D05_F01_R01U01L01_A01_lower_front_post_4_9
f 593 594 595 596
f 597 600 599 598
f 593 597 598 594
f 594 598 599 595
f 595 599 600 596
f 596 600 597 593
g GalakasMidCity_Workshop_W05D05_F01_R01U01L01_A01_lower_front_post_-2_5
f 601 602 603 604
f 605 608 607 606
f 601 605 606 602
f 602 606 607 603
f 603 607 608 604
f 604 608 605 601
g GalakasMidCity_Workshop_W05D05_F01_R01U01L01_A01_lower_front_post_2_5
f 609 610 611 612
f 613 616 615 614
f 609 613 614 610
f 610 614 615 611
f 611 615 616 612
f 612 616 613 609
g GalakasMidCity_Workshop_W05D05_F01_R01U01L01_A01_lower_back_post_-4_9
f 617 618 619 620
f 621 624 623 622
f 617 621 622 618
f 618 622 623 619
f 619 623 624 620
f 620 624 621 617
g GalakasMidCity_Workshop_W05D05_F01_R01U01L01_A01_lower_back_post_4_9
f 625 626 627 628
f 629 632 631 630
f 625 629 630 626
f 626 630 631 627
f 627 631 632 628
f 628 632 629 625
g GalakasMidCity_Workshop_W05D05_F01_R01U01L01_A01_lower_front_window_0_glass
usemtl Mat_GlassDirty
f 633 634 635 636
f 637 640 639 638
f 633 637 638 634
f 634 638 639 635
f 635 639 640 636
f 636 640 637 633
g GalakasMidCity_Workshop_W05D05_F01_R01U01L01_A01_lower_front_window_0_frame_top
usemtl Mat_WoodDark
f 641 642 643 644
f 645 648 647 646
f 641 645 646 642
f 642 646 647 643
f 643 647 648 644
f 644 648 645 641
g GalakasMidCity_Workshop_W05D05_F01_R01U01L01_A01_lower_front_window_0_frame_mid_v
f 649 650 651 652
f 653 656 655 654
f 649 653 654 650
f 650 654 655 651
f 651 655 656 652
f 652 656 653 649
g GalakasMidCity_Workshop_W05D05_F01_R01U01L01_A01_lower_front_window_0_frame_l
f 657 658 659 660
f 661 664 663 662
f 657 661 662 658
f 658 662 663 659
f 659 663 664 660
f 660 664 661 657
g GalakasMidCity_Workshop_W05D05_F01_R01U01L01_A01_lower_front_window_0_frame_r
f 665 666 667 668
f 669 672 671 670
f 665 669 670 666
f 666 670 671 667
f 667 671 672 668
f 668 672 669 665
g GalakasMidCity_Workshop_W05D05_F01_R01U01L01_A01_lower_front_window_0_sill
f 673 674 675 676
f 677 680 679 678
f 673 677 678 674
f 674 678 679 675
f 675 679 680 676
f 676 680 677 673
g GalakasMidCity_Workshop_W05D05_F01_R01U01L01_A01_lower_front_window_0_shutter_l
usemtl Mat_WoodWeathered
f 681 682 683 684
f 685 688 687 686
f 681 685 686 682
f 682 686 687 683
f 683 687 688 684
f 684 688 685 681
g GalakasMidCity_Workshop_W05D05_F01_R01U01L01_A01_lower_front_window_0_shutter_r
f 689 690 691 692
f 693 696 695 694
f 689 693 694 690
f 690 694 695 691
f 691 695 696 692
f 692 696 693 689
g GalakasMidCity_Workshop_W05D05_F01_R01U01L01_A01_lower_front_window_1_glass
usemtl Mat_GlassDirty
f 697 698 699 700
f 701 704 703 702
f 697 701 702 698
f 698 702 703 699
f 699 703 704 700
f 700 704 701 697
g GalakasMidCity_Workshop_W05D05_F01_R01U01L01_A01_lower_front_window_1_frame_top
usemtl Mat_WoodDark
f 705 706 707 708
f 709 712 711 710
f 705 709 710 706
f 706 710 711 707
f 707 711 712 708
f 708 712 709 705
g GalakasMidCity_Workshop_W05D05_F01_R01U01L01_A01_lower_front_window_1_frame_mid_v
f 713 714 715 716
f 717 720 719 718
f 713 717 718 714
f 714 718 719 715
f 715 719 720 716
f 716 720 717 713
g GalakasMidCity_Workshop_W05D05_F01_R01U01L01_A01_lower_front_window_1_frame_l
f 721 722 723 724
f 725 728 727 726
f 721 725 726 722
f 722 726 727 723
f 723 727 728 724
f 724 728 725 721
g GalakasMidCity_Workshop_W05D05_F01_R01U01L01_A01_lower_front_window_1_frame_r
f 729 730 731 732
f 733 736 735 734
f 729 733 734 730
f 730 734 735 731
f 731 735 736 732
f 732 736 733 729
g GalakasMidCity_Workshop_W05D05_F01_R01U01L01_A01_lower_front_window_1_sill
f 737 738 739 740
f 741 744 743 742
f 737 741 742 738
f 738 742 743 739
f 739 743 744 740
f 740 744 741 737
g GalakasMidCity_Workshop_W05D05_F01_R01U01L01_A01_lower_front_window_1_shutter_l
usemtl Mat_WoodWeathered
f 745 746 747 748
f 749 752 751 750
f 745 749 750 746
f 746 750 751 747
f 747 751 752 748
f 748 752 749 745
g GalakasMidCity_Workshop_W05D05_F01_R01U01L01_A01_lower_front_window_1_shutter_r
f 753 754 755 756
f 757 760 759 758
f 753 757 758 754
f 754 758 759 755
f 755 759 760 756
f 756 760 757 753
g GalakasMidCity_Workshop_W05D05_F01_R01U01L01_A01_brick_front_mortar_0
usemtl Mat_SootyBrick
f 761 762 763 764
f 765 768 767 766
f 761 765 766 762
f 762 766 767 763
f 763 767 768 764
f 764 768 765 761
g GalakasMidCity_Workshop_W05D05_F01_R01U01L01_A01_brick_front_mortar_1
f 769 770 771 772
f 773 776 775 774
f 769 773 774 770
f 770 774 775 771
f 771 775 776 772
f 772 776 773 769
g GalakasMidCity_Workshop_W05D05_F01_R01U01L01_A01_brick_front_mortar_2
f 777 778 779 780
f 781 784 783 782
f 777 781 782 778
f 778 782 783 779
f 779 783 784 780
f 780 784 781 777
g GalakasMidCity_Workshop_W05D05_F01_R01U01L01_A01_brick_front_mortar_3
f 785 786 787 788
f 789 792 791 790
f 785 789 790 786
f 786 790 791 787
f 787 791 792 788
f 788 792 789 785
g GalakasMidCity_Workshop_W05D05_F01_R01U01L01_A01_brick_front_mortar_4
f 793 794 795 796
f 797 800 799 798
f 793 797 798 794
f 794 798 799 795
f 795 799 800 796
f 796 800 797 793
g GalakasMidCity_Workshop_W05D05_F01_R01U01L01_A01_brick_front_mortar_5
f 801 802 803 804
f 805 808 807 806
f 801 805 806 802
f 802 806 807 803
f 803 807 808 804
f 804 808 805 801
g GalakasMidCity_Workshop_W05D05_F01_R01U01L01_A01_brick_front_mortar_6
f 809 810 811 812
f 813 816 815 814
f 809 813 814 810
f 810 814 815 811
f 811 815 816 812
f 812 816 813 809
g GalakasMidCity_Workshop_W05D05_F01_R01U01L01_A01_brick_front_mortar_7
f 817 818 819 820
f 821 824 823 822
f 817 821 822 818
f 818 822 823 819
f 819 823 824 820
f 820 824 821 817
g GalakasMidCity_Workshop_W05D05_F01_R01U01L01_A01_brick_front_mortar_8
f 825 826 827 828
f 829 832 831 830
f 825 829 830 826
f 826 830 831 827
f 827 831 832 828
f 828 832 829 825
g GalakasMidCity_Workshop_W05D05_F01_R01U01L01_A01_upper1_front_wall
usemtl Mat_WornPlaster
f 833 834 835 836
f 837 840 839 838
f 833 837 838 834
f 834 838 839 835
f 835 839 840 836
f 836 840 837 833
g GalakasMidCity_Workshop_W05D05_F01_R01U01L01_A01_upper1_back_wall
f 841 842 843 844
f 845 848 847 846
f 841 845 846 842
f 842 846 847 843
f 843 847 848 844
f 844 848 845 841
g GalakasMidCity_Workshop_W05D05_F01_R01U01L01_A01_upper1_left_wall
f 849 850 851 852
f 853 856 855 854
f 849 853 854 850
f 850 854 855 851
f 851 855 856 852
f 852 856 853 849
g GalakasMidCity_Workshop_W05D05_F01_R01U01L01_A01_upper1_right_wall
f 857 858 859 860
f 861 864 863 862
f 857 861 862 858
f 858 862 863 859
f 859 863 864 860
f 860 864 861 857
g GalakasMidCity_Workshop_W05D05_F01_R01U01L01_A01_upper1_floor_cap
usemtl Mat_WoodDark
f 865 866 867 868
f 869 872 871 870
f 865 869 870 866
f 866 870 871 867
f 867 871 872 868
f 868 872 869 865
g GalakasMidCity_Workshop_W05D05_F01_R01U01L01_A01_upper1_ceiling_cap
f 873 874 875 876
f 877 880 879 878
f 873 877 878 874
f 874 878 879 875
f 875 879 880 876
f 876 880 877 873
g GalakasMidCity_Workshop_W05D05_F01_R01U01L01_A01_upper1_front_course_569
f 881 882 883 884
f 885 888 887 886
f 881 885 886 882
f 882 886 887 883
f 883 887 888 884
f 884 888 885 881
g GalakasMidCity_Workshop_W05D05_F01_R01U01L01_A01_upper1_back_course_569
f 889 890 891 892
f 893 896 895 894
f 889 893 894 890
f 890 894 895 891
f 891 895 896 892
f 892 896 893 889
g GalakasMidCity_Workshop_W05D05_F01_R01U01L01_A01_upper1_front_course_974
f 897 898 899 900
f 901 904 903 902
f 897 901 902 898
f 898 902 903 899
f 899 903 904 900
f 900 904 901 897
g GalakasMidCity_Workshop_W05D05_F01_R01U01L01_A01_upper1_back_course_974
f 905 906 907 908
f 909 912 911 910
f 905 909 910 906
f 906 910 911 907
f 907 911 912 908
f 908 912 909 905
g GalakasMidCity_Workshop_W05D05_F01_R01U01L01_A01_upper1_front_post_-4_9
f 913 914 915 916
f 917 920 919 918
f 913 917 918 914
f 914 918 919 915
f 915 919 920 916
f 916 920 917 913
g GalakasMidCity_Workshop_W05D05_F01_R01U01L01_A01_upper1_front_post_4_9
f 921 922 923 924
f 925 928 927 926
f 921 925 926 922
f 922 926 927 923
f 923 927 928 924
f 924 928 925 921
g GalakasMidCity_Workshop_W05D05_F01_R01U01L01_A01_upper1_front_post_-2_5
f 929 930 931 932
f 933 936 935 934
f 929 933 934 930
f 930 934 935 931
f 931 935 936 932
f 932 936 933 929
g GalakasMidCity_Workshop_W05D05_F01_R01U01L01_A01_upper1_front_post_2_5
f 937 938 939 940
f 941 944 943 942
f 937 941 942 938
f 938 942 943 939
f 939 943 944 940
f 940 944 941 937
g GalakasMidCity_Workshop_W05D05_F01_R01U01L01_A01_upper1_back_post_-4_9
f 945 946 947 948
f 949 952 951 950
f 945 949 950 946
f 946 950 951 947
f 947 951 952 948
f 948 952 949 945
g GalakasMidCity_Workshop_W05D05_F01_R01U01L01_A01_upper1_back_post_4_9
f 953 954 955 956
f 957 960 959 958
f 953 957 958 954
f 954 958 959 955
f 955 959 960 956
f 956 960 957 953
g GalakasMidCity_Workshop_W05D05_F01_R01U01L01_A01_upper1_front_window_0_glass
usemtl Mat_GlassDirty
f 961 962 963 964
f 965 968 967 966
f 961 965 966 962
f 962 966 967 963
f 963 967 968 964
f 964 968 965 961
g GalakasMidCity_Workshop_W05D05_F01_R01U01L01_A01_upper1_front_window_0_frame_top
usemtl Mat_WoodDark
f 969 970 971 972
f 973 976 975 974
f 969 973 974 970
f 970 974 975 971
f 971 975 976 972
f 972 976 973 969
g GalakasMidCity_Workshop_W05D05_F01_R01U01L01_A01_upper1_front_window_0_frame_mid_v
f 977 978 979 980
f 981 984 983 982
f 977 981 982 978
f 978 982 983 979
f 979 983 984 980
f 980 984 981 977
g GalakasMidCity_Workshop_W05D05_F01_R01U01L01_A01_upper1_front_window_0_frame_l
f 985 986 987 988
f 989 992 991 990
f 985 989 990 986
f 986 990 991 987
f 987 991 992 988
f 988 992 989 985
g GalakasMidCity_Workshop_W05D05_F01_R01U01L01_A01_upper1_front_window_0_frame_r
f 993 994 995 996
f 997 1000 999 998
f 993 997 998 994
f 994 998 999 995
f 995 999 1000 996
f 996 1000 997 993
g GalakasMidCity_Workshop_W05D05_F01_R01U01L01_A01_upper1_front_window_0_sill
f 1001 1002 1003 1004
f 1005 1008 1007 1006
f 1001 1005 1006 1002
f 1002 1006 1007 1003
f 1003 1007 1008 1004
f 1004 1008 1005 1001
g GalakasMidCity_Workshop_W05D05_F01_R01U01L01_A01_upper1_front_window_0_shutter_l
usemtl Mat_WoodWeathered
f 1009 1010 1011 1012
f 1013 1016 1015 1014
f 1009 1013 1014 1010
f 1010 1014 1015 1011
f 1011 1015 1016 1012
f 1012 1016 1013 1009
g GalakasMidCity_Workshop_W05D05_F01_R01U01L01_A01_upper1_front_window_0_shutter_r
f 1017 1018 1019 1020
f 1021 1024 1023 1022
f 1017 1021 1022 1018
f 1018 1022 1023 1019
f 1019 1023 1024 1020
f 1020 1024 1021 1017
g GalakasMidCity_Workshop_W05D05_F01_R01U01L01_A01_upper1_front_window_1_glass
usemtl Mat_GlassDirty
f 1025 1026 1027 1028
f 1029 1032 1031 1030
f 1025 1029 1030 1026
f 1026 1030 1031 1027
f 1027 1031 1032 1028
f 1028 1032 1029 1025
g GalakasMidCity_Workshop_W05D05_F01_R01U01L01_A01_upper1_front_window_1_frame_top
usemtl Mat_WoodDark
f 1033 1034 1035 1036
f 1037 1040 1039 1038
f 1033 1037 1038 1034
f 1034 1038 1039 1035
f 1035 1039 1040 1036
f 1036 1040 1037 1033
g GalakasMidCity_Workshop_W05D05_F01_R01U01L01_A01_upper1_front_window_1_frame_mid_v
f 1041 1042 1043 1044
f 1045 1048 1047 1046
f 1041 1045 1046 1042
f 1042 1046 1047 1043
f 1043 1047 1048 1044
f 1044 1048 1045 1041
g GalakasMidCity_Workshop_W05D05_F01_R01U01L01_A01_upper1_front_window_1_frame_l
f 1049 1050 1051 1052
f 1053 1056 1055 1054
f 1049 1053 1054 1050
f 1050 1054 1055 1051
f 1051 1055 1056 1052
f 1052 1056 1053 1049
g GalakasMidCity_Workshop_W05D05_F01_R01U01L01_A01_upper1_front_window_1_frame_r
f 1057 1058 1059 1060
f 1061 1064 1063 1062
f 1057 1061 1062 1058
f 1058 1062 1063 1059
f 1059 1063 1064 1060
f 1060 1064 1061 1057
g GalakasMidCity_Workshop_W05D05_F01_R01U01L01_A01_upper1_front_window_1_sill
f 1065 1066 1067 1068
f 1069 1072 1071 1070
f 1065 1069 1070 1066
f 1066 1070 1071 1067
f 1067 1071 1072 1068
f 1068 1072 1069 1065
g GalakasMidCity_Workshop_W05D05_F01_R01U01L01_A01_upper1_front_window_1_shutter_l
usemtl Mat_WoodWeathered
f 1073 1074 1075 1076
f 1077 1080 1079 1078
f 1073 1077 1078 1074
f 1074 1078 1079 1075
f 1075 1079 1080 1076
f 1076 1080 1077 1073
g GalakasMidCity_Workshop_W05D05_F01_R01U01L01_A01_upper1_front_window_1_shutter_r
f 1081 1082 1083 1084
f 1085 1088 1087 1086
f 1081 1085 1086 1082
f 1082 1086 1087 1083
f 1083 1087 1088 1084
f 1084 1088 1085 1081
g GalakasMidCity_Workshop_W05D05_F01_R01U01L01_A01_upper1_upper_front_window_0_glass
usemtl Mat_GlassDirty
f 1089 1090 1091 1092
f 1093 1096 1095 1094
f 1089 1093 1094 1090
f 1090 1094 1095 1091
f 1091 1095 1096 1092
f 1092 1096 1093 1089
g GalakasMidCity_Workshop_W05D05_F01_R01U01L01_A01_upper1_upper_front_window_0_frame_top
usemtl Mat_WoodDark
f 1097 1098 1099 1100
f 1101 1104 1103 1102
f 1097 1101 1102 1098
f 1098 1102 1103 1099
f 1099 1103 1104 1100
f 1100 1104 1101 1097
g GalakasMidCity_Workshop_W05D05_F01_R01U01L01_A01_upper1_upper_front_window_0_frame_mid_v
f 1105 1106 1107 1108
f 1109 1112 1111 1110
f 1105 1109 1110 1106
f 1106 1110 1111 1107
f 1107 1111 1112 1108
f 1108 1112 1109 1105
g GalakasMidCity_Workshop_W05D05_F01_R01U01L01_A01_upper1_upper_front_window_0_frame_l
f 1113 1114 1115 1116
f 1117 1120 1119 1118
f 1113 1117 1118 1114
f 1114 1118 1119 1115
f 1115 1119 1120 1116
f 1116 1120 1117 1113
g GalakasMidCity_Workshop_W05D05_F01_R01U01L01_A01_upper1_upper_front_window_0_frame_r
f 1121 1122 1123 1124
f 1125 1128 1127 1126
f 1121 1125 1126 1122
f 1122 1126 1127 1123
f 1123 1127 1128 1124
f 1124 1128 1125 1121
g GalakasMidCity_Workshop_W05D05_F01_R01U01L01_A01_upper1_upper_front_window_0_sill
f 1129 1130 1131 1132
f 1133 1136 1135 1134
f 1129 1133 1134 1130
f 1130 1134 1135 1131
f 1131 1135 1136 1132
f 1132 1136 1133 1129
g GalakasMidCity_Workshop_W05D05_F01_R01U01L01_A01_upper1_upper_front_window_0_shutter_l
usemtl Mat_WoodWeathered
f 1137 1138 1139 1140
f 1141 1144 1143 1142
f 1137 1141 1142 1138
f 1138 1142 1143 1139
f 1139 1143 1144 1140
f 1140 1144 1141 1137
g GalakasMidCity_Workshop_W05D05_F01_R01U01L01_A01_upper1_upper_front_window_0_shutter_r
f 1145 1146 1147 1148
f 1149 1152 1151 1150
f 1145 1149 1150 1146
f 1146 1150 1151 1147
f 1147 1151 1152 1148
f 1148 1152 1149 1145
g GalakasMidCity_Workshop_W05D05_F01_R01U01L01_A01_upper1_upper_front_window_1_glass
usemtl Mat_GlassDirty
f 1153 1154 1155 1156
f 1157 1160 1159 1158
f 1153 1157 1158 1154
f 1154 1158 1159 1155
f 1155 1159 1160 1156
f 1156 1160 1157 1153
g GalakasMidCity_Workshop_W05D05_F01_R01U01L01_A01_upper1_upper_front_window_1_frame_top
usemtl Mat_WoodDark
f 1161 1162 1163 1164
f 1165 1168 1167 1166
f 1161 1165 1166 1162
f 1162 1166 1167 1163
f 1163 1167 1168 1164
f 1164 1168 1165 1161
g GalakasMidCity_Workshop_W05D05_F01_R01U01L01_A01_upper1_upper_front_window_1_frame_mid_v
f 1169 1170 1171 1172
f 1173 1176 1175 1174
f 1169 1173 1174 1170
f 1170 1174 1175 1171
f 1171 1175 1176 1172
f 1172 1176 1173 1169
g GalakasMidCity_Workshop_W05D05_F01_R01U01L01_A01_upper1_upper_front_window_1_frame_l
f 1177 1178 1179 1180
f 1181 1184 1183 1182
f 1177 1181 1182 1178
f 1178 1182 1183 1179
f 1179 1183 1184 1180
f 1180 1184 1181 1177
g GalakasMidCity_Workshop_W05D05_F01_R01U01L01_A01_upper1_upper_front_window_1_frame_r
f 1185 1186 1187 1188
f 1189 1192 1191 1190
f 1185 1189 1190 1186
f 1186 1190 1191 1187
f 1187 1191 1192 1188
f 1188 1192 1189 1185
g GalakasMidCity_Workshop_W05D05_F01_R01U01L01_A01_upper1_upper_front_window_1_sill
f 1193 1194 1195 1196
f 1197 1200 1199 1198
f 1193 1197 1198 1194
f 1194 1198 1199 1195
f 1195 1199 1200 1196
f 1196 1200 1197 1193
g GalakasMidCity_Workshop_W05D05_F01_R01U01L01_A01_upper1_upper_front_window_1_shutter_l
usemtl Mat_WoodWeathered
f 1201 1202 1203 1204
f 1205 1208 1207 1206
f 1201 1205 1206 1202
f 1202 1206 1207 1203
f 1203 1207 1208 1204
f 1204 1208 1205 1201
g GalakasMidCity_Workshop_W05D05_F01_R01U01L01_A01_upper1_upper_front_window_1_shutter_r
f 1209 1210 1211 1212
f 1213 1216 1215 1214
f 1209 1213 1214 1210
f 1210 1214 1215 1211
f 1211 1215 1216 1212
f 1212 1216 1213 1209
g GalakasMidCity_Workshop_W05D05_F01_R01U01L01_A01_upper1_left_window_glass_0
usemtl Mat_GlassDirty
f 1217 1218 1219 1220
f 1221 1224 1223 1222
f 1217 1221 1222 1218
f 1218 1222 1223 1219
f 1219 1223 1224 1220
f 1220 1224 1221 1217
g GalakasMidCity_Workshop_W05D05_F01_R01U01L01_A01_upper1_right_window_glass_0
f 1225 1226 1227 1228
f 1229 1232 1231 1230
f 1225 1229 1230 1226
f 1226 1230 1231 1227
f 1227 1231 1232 1228
f 1228 1232 1229 1225
g GalakasMidCity_Workshop_W05D05_F01_R01U01L01_A01_upper1_left_window_glass_1
f 1233 1234 1235 1236
f 1237 1240 1239 1238
f 1233 1237 1238 1234
f 1234 1238 1239 1235
f 1235 1239 1240 1236
f 1236 1240 1237 1233
g GalakasMidCity_Workshop_W05D05_F01_R01U01L01_A01_upper1_right_window_glass_1
f 1241 1242 1243 1244
f 1245 1248 1247 1246
f 1241 1245 1246 1242
f 1242 1246 1247 1243
f 1243 1247 1248 1244
f 1244 1248 1245 1241
g GalakasMidCity_Workshop_W05D05_F01_R01U01L01_A01_diag_brace_a_0
usemtl Mat_WoodDark
f 1249 1250 1251 1252
f 1253 1256 1255 1254
f 1249 1253 1254 1250
f 1250 1254 1255 1251
f 1251 1255 1256 1252
f 1252 1256 1253 1249
g GalakasMidCity_Workshop_W05D05_F01_R01U01L01_A01_diag_brace_b_0
f 1257 1258 1259 1260
f 1261 1264 1263 1262
f 1257 1261 1262 1258
f 1258 1262 1263 1259
f 1259 1263 1264 1260
f 1260 1264 1261 1257
g GalakasMidCity_Workshop_W05D05_F01_R01U01L01_A01_roof_front_slope
usemtl Mat_RoofTileDirty
f 1265 1266 1267 1268
f 1269 1272 1271 1270
f 1265 1269 1270 1266
f 1266 1270 1271 1267
f 1267 1271 1272 1268
f 1268 1272 1269 1265
g GalakasMidCity_Workshop_W05D05_F01_R01U01L01_A01_roof_back_slope
f 1273 1274 1275 1276
f 1277 1280 1279 1278
f 1273 1277 1278 1274
f 1274 1278 1279 1275
f 1275 1279 1280 1276
f 1276 1280 1277 1273
g GalakasMidCity_Workshop_W05D05_F01_R01U01L01_A01_roof_front_tile_row_0
f 1281 1282 1283 1284
f 1285 1288 1287 1286
f 1281 1285 1286 1282
f 1282 1286 1287 1283
f 1283 1287 1288 1284
f 1284 1288 1285 1281
g GalakasMidCity_Workshop_W05D05_F01_R01U01L01_A01_roof_back_tile_row_0
f 1289 1290 1291 1292
f 1293 1296 1295 1294
f 1289 1293 1294 1290
f 1290 1294 1295 1291
f 1291 1295 1296 1292
f 1292 1296 1293 1289
g GalakasMidCity_Workshop_W05D05_F01_R01U01L01_A01_roof_front_tile_row_1
f 1297 1298 1299 1300
f 1301 1304 1303 1302
f 1297 1301 1302 1298
f 1298 1302 1303 1299
f 1299 1303 1304 1300
f 1300 1304 1301 1297
g GalakasMidCity_Workshop_W05D05_F01_R01U01L01_A01_roof_back_tile_row_1
f 1305 1306 1307 1308
f 1309 1312 1311 1310
f 1305 1309 1310 1306
f 1306 1310 1311 1307
f 1307 1311 1312 1308
f 1308 1312 1309 1305
g GalakasMidCity_Workshop_W05D05_F01_R01U01L01_A01_roof_front_tile_row_2
f 1313 1314 1315 1316
f 1317 1320 1319 1318
f 1313 1317 1318 1314
f 1314 1318 1319 1315
f 1315 1319 1320 1316
f 1316 1320 1317 1313
g GalakasMidCity_Workshop_W05D05_F01_R01U01L01_A01_roof_back_tile_row_2
f 1321 1322 1323 1324
f 1325 1328 1327 1326
f 1321 1325 1326 1322
f 1322 1326 1327 1323
f 1323 1327 1328 1324
f 1324 1328 1325 1321
g GalakasMidCity_Workshop_W05D05_F01_R01U01L01_A01_roof_front_tile_row_3
f 1329 1330 1331 1332
f 1333 1336 1335 1334
f 1329 1333 1334 1330
f 1330 1334 1335 1331
f 1331 1335 1336 1332
f 1332 1336 1333 1329
g GalakasMidCity_Workshop_W05D05_F01_R01U01L01_A01_roof_back_tile_row_3
f 1337 1338 1339 1340
f 1341 1344 1343 1342
f 1337 1341 1342 1338
f 1338 1342 1343 1339
f 1339 1343 1344 1340
f 1340 1344 1341 1337
g GalakasMidCity_Workshop_W05D05_F01_R01U01L01_A01_roof_front_tile_row_4
f 1345 1346 1347 1348
f 1349 1352 1351 1350
f 1345 1349 1350 1346
f 1346 1350 1351 1347
f 1347 1351 1352 1348
f 1348 1352 1349 1345
g GalakasMidCity_Workshop_W05D05_F01_R01U01L01_A01_roof_back_tile_row_4
f 1353 1354 1355 1356
f 1357 1360 1359 1358
f 1353 1357 1358 1354
f 1354 1358 1359 1355
f 1355 1359 1360 1356
f 1356 1360 1357 1353
g GalakasMidCity_Workshop_W05D05_F01_R01U01L01_A01_roof_front_tile_row_5
f 1361 1362 1363 1364
f 1365 1368 1367 1366
f 1361 1365 1366 1362
f 1362 1366 1367 1363
f 1363 1367 1368 1364
f 1364 1368 1365 1361
g GalakasMidCity_Workshop_W05D05_F01_R01U01L01_A01_roof_back_tile_row_5
f 1369 1370 1371 1372
f 1373 1376 1375 1374
f 1369 1373 1374 1370
f 1370 1374 1375 1371
f 1371 1375 1376 1372
f 1372 1376 1373 1369
g GalakasMidCity_Workshop_W05D05_F01_R01U01L01_A01_roof_front_tile_row_6
f 1377 1378 1379 1380
f 1381 1384 1383 1382
f 1377 1381 1382 1378
f 1378 1382 1383 1379
f 1379 1383 1384 1380
f 1380 1384 1381 1377
g GalakasMidCity_Workshop_W05D05_F01_R01U01L01_A01_roof_back_tile_row_6
f 1385 1386 1387 1388
f 1389 1392 1391 1390
f 1385 1389 1390 1386
f 1386 1390 1391 1387
f 1387 1391 1392 1388
f 1388 1392 1389 1385
g GalakasMidCity_Workshop_W05D05_F01_R01U01L01_A01_roof_front_tile_row_7
f 1393 1394 1395 1396
f 1397 1400 1399 1398
f 1393 1397 1398 1394
f 1394 1398 1399 1395
f 1395 1399 1400 1396
f 1396 1400 1397 1393
g GalakasMidCity_Workshop_W05D05_F01_R01U01L01_A01_roof_back_tile_row_7
f 1401 1402 1403 1404
f 1405 1408 1407 1406
f 1401 1405 1406 1402
f 1402 1406 1407 1403
f 1403 1407 1408 1404
f 1404 1408 1405 1401
g GalakasMidCity_Workshop_W05D05_F01_R01U01L01_A01_roof_front_tile_row_8
f 1409 1410 1411 1412
f 1413 1416 1415 1414
f 1409 1413 1414 1410
f 1410 1414 1415 1411
f 1411 1415 1416 1412
f 1412 1416 1413 1409
g GalakasMidCity_Workshop_W05D05_F01_R01U01L01_A01_roof_back_tile_row_8
f 1417 1418 1419 1420
f 1421 1424 1423 1422
f 1417 1421 1422 1418
f 1418 1422 1423 1419
f 1419 1423 1424 1420
f 1420 1424 1421 1417
g GalakasMidCity_Workshop_W05D05_F01_R01U01L01_A01_roof_front_tile_row_9
f 1425 1426 1427 1428
f 1429 1432 1431 1430
f 1425 1429 1430 1426
f 1426 1430 1431 1427
f 1427 1431 1432 1428
f 1428 1432 1429 1425
g GalakasMidCity_Workshop_W05D05_F01_R01U01L01_A01_roof_back_tile_row_9
f 1433 1434 1435 1436
f 1437 1440 1439 1438
f 1433 1437 1438 1434
f 1434 1438 1439 1435
f 1435 1439 1440 1436
f 1436 1440 1437 1433
g GalakasMidCity_Workshop_W05D05_F01_R01U01L01_A01_roof_front_tile_row_10
f 1441 1442 1443 1444
f 1445 1448 1447 1446
f 1441 1445 1446 1442
f 1442 1446 1447 1443
f 1443 1447 1448 1444
f 1444 1448 1445 1441
g GalakasMidCity_Workshop_W05D05_F01_R01U01L01_A01_roof_back_tile_row_10
f 1449 1450 1451 1452
f 1453 1456 1455 1454
f 1449 1453 1454 1450
f 1450 1454 1455 1451
f 1451 1455 1456 1452
f 1452 1456 1453 1449
g GalakasMidCity_Workshop_W05D05_F01_R01U01L01_A01_roof_front_tile_row_11
f 1457 1458 1459 1460
f 1461 1464 1463 1462
f 1457 1461 1462 1458
f 1458 1462 1463 1459
f 1459 1463 1464 1460
f 1460 1464 1461 1457
g GalakasMidCity_Workshop_W05D05_F01_R01U01L01_A01_roof_back_tile_row_11
f 1465 1466 1467 1468
f 1469 1472 1471 1470
f 1465 1469 1470 1466
f 1466 1470 1471 1467
f 1467 1471 1472 1468
f 1468 1472 1469 1465
g GalakasMidCity_Workshop_W05D05_F01_R01U01L01_A01_roof_front_tile_row_12
f 1473 1474 1475 1476
f 1477 1480 1479 1478
f 1473 1477 1478 1474
f 1474 1478 1479 1475
f 1475 1479 1480 1476
f 1476 1480 1477 1473
g GalakasMidCity_Workshop_W05D05_F01_R01U01L01_A01_roof_back_tile_row_12
f 1481 1482 1483 1484
f 1485 1488 1487 1486
f 1481 1485 1486 1482
f 1482 1486 1487 1483
f 1483 1487 1488 1484
f 1484 1488 1485 1481
g GalakasMidCity_Workshop_W05D05_F01_R01U01L01_A01_roof_front_tile_row_13
f 1489 1490 1491 1492
f 1493 1496 1495 1494
f 1489 1493 1494 1490
f 1490 1494 1495 1491
f 1491 1495 1496 1492
f 1492 1496 1493 1489
g GalakasMidCity_Workshop_W05D05_F01_R01U01L01_A01_roof_back_tile_row_13
f 1497 1498 1499 1500
f 1501 1504 1503 1502
f 1497 1501 1502 1498
f 1498 1502 1503 1499
f 1499 1503 1504 1500
f 1500 1504 1501 1497
g GalakasMidCity_Workshop_W05D05_F01_R01U01L01_A01_roof_front_tile_row_14
f 1505 1506 1507 1508
f 1509 1512 1511 1510
f 1505 1509 1510 1506
f 1506 1510 1511 1507
f 1507 1511 1512 1508
f 1508 1512 1509 1505
g GalakasMidCity_Workshop_W05D05_F01_R01U01L01_A01_roof_back_tile_row_14
f 1513 1514 1515 1516
f 1517 1520 1519 1518
f 1513 1517 1518 1514
f 1514 1518 1519 1515
f 1515 1519 1520 1516
f 1516 1520 1517 1513
g GalakasMidCity_Workshop_W05D05_F01_R01U01L01_A01_roof_ridge_cap
f 1521 1523 1524 1522
f 1523 1525 1526 1524
f 1525 1527 1528 1526
f 1527 1529 1530 1528
f 1529 1531 1532 1530
f 1531 1533 1534 1532
f 1533 1535 1536 1534
f 1535 1537 1538 1536
f 1537 1539 1540 1538
f 1539 1541 1542 1540
f 1541 1543 1544 1542
f 1543 1545 1546 1544
f 1545 1547 1548 1546
f 1547 1549 1550 1548
f 1549 1551 1552 1550
f 1551 1521 1522 1552
g GalakasMidCity_Workshop_W05D05_F01_R01U01L01_A01_roof_ridge_cap_capA
f 1551 1549 1547 1545 1543 1541 1539 1537 1535 1533 1531 1529 1527 1525 1523 1521
g GalakasMidCity_Workshop_W05D05_F01_R01U01L01_A01_roof_ridge_cap_capB
f 1522 1524 1526 1528 1530 1532 1534 1536 1538 1540 1542 1544 1546 1548 1550 1552
g GalakasMidCity_Workshop_W05D05_F01_R01U01L01_A01_roof_front_eave
usemtl Mat_WoodDark
f 1553 1554 1555 1556
f 1557 1560 1559 1558
f 1553 1557 1558 1554
f 1554 1558 1559 1555
f 1555 1559 1560 1556
f 1556 1560 1557 1553
g GalakasMidCity_Workshop_W05D05_F01_R01U01L01_A01_roof_back_eave
f 1561 1562 1563 1564
f 1565 1568 1567 1566
f 1561 1565 1566 1562
f 1562 1566 1567 1563
f 1563 1567 1568 1564
f 1564 1568 1565 1561
g GalakasMidCity_Workshop_W05D05_F01_R01U01L01_A01_chimney_brick_brick_stack
usemtl Mat_SootyBrick
f 1569 1570 1571 1572
f 1573 1576 1575 1574
f 1569 1573 1574 1570
f 1570 1574 1575 1571
f 1571 1575 1576 1572
f 1572 1576 1573 1569
g GalakasMidCity_Workshop_W05D05_F01_R01U01L01_A01_chimney_brick_cap
usemtl Mat_StoneFoundation
f 1577 1578 1579 1580
f 1581 1584 1583 1582
f 1577 1581 1582 1578
f 1578 1582 1583 1579
f 1579 1583 1584 1580
f 1580 1584 1581 1577
g GalakasMidCity_Workshop_W05D05_F01_R01U01L01_A01_chimney_brick_flue
usemtl Mat_MetalDark
f 1585 1586 1587 1588
f 1589 1592 1591 1590
f 1585 1589 1590 1586
f 1586 1590 1591 1587
f 1587 1591 1592 1588
f 1588 1592 1589 1585
g GalakasMidCity_Workshop_W05D05_F01_R01U01L01_A01_chimney_metal_pipe
usemtl Mat_MetalRust
f 1593 1595 1596 1594
f 1595 1597 1598 1596
f 1597 1599 1600 1598
f 1599 1601 1602 1600
f 1601 1603 1604 1602
f 1603 1605 1606 1604
f 1605 1607 1608 1606
f 1607 1609 1610 1608
f 1609 1611 1612 1610
f 1611 1613 1614 1612
f 1613 1615 1616 1614
f 1615 1617 1618 1616
f 1617 1619 1620 1618
f 1619 1621 1622 1620
f 1621 1623 1624 1622
f 1623 1593 1594 1624
g GalakasMidCity_Workshop_W05D05_F01_R01U01L01_A01_chimney_metal_pipe_capA
f 1623 1621 1619 1617 1615 1613 1611 1609 1607 1605 1603 1601 1599 1597 1595 1593
g GalakasMidCity_Workshop_W05D05_F01_R01U01L01_A01_chimney_metal_pipe_capB
f 1594 1596 1598 1600 1602 1604 1606 1608 1610 1612 1614 1616 1618 1620 1622 1624
g GalakasMidCity_Workshop_W05D05_F01_R01U01L01_A01_chimney_metal_cap_cross
usemtl Mat_MetalDark
f 1625 1627 1628 1626
f 1627 1629 1630 1628
f 1629 1631 1632 1630
f 1631 1633 1634 1632
f 1633 1635 1636 1634
f 1635 1637 1638 1636
f 1637 1639 1640 1638
f 1639 1641 1642 1640
f 1641 1643 1644 1642
f 1643 1645 1646 1644
f 1645 1647 1648 1646
f 1647 1625 1626 1648
g GalakasMidCity_Workshop_W05D05_F01_R01U01L01_A01_chimney_metal_cap_cross_capA
f 1647 1645 1643 1641 1639 1637 1635 1633 1631 1629 1627 1625
g GalakasMidCity_Workshop_W05D05_F01_R01U01L01_A01_chimney_metal_cap_cross_capB
f 1626 1628 1630 1632 1634 1636 1638 1640 1642 1644 1646 1648
g GalakasMidCity_Workshop_W05D05_F01_R01U01L01_A01_sign_arm
usemtl Mat_WoodDark
f 1649 1651 1652 1650
f 1651 1653 1654 1652
f 1653 1655 1656 1654
f 1655 1657 1658 1656
f 1657 1659 1660 1658
f 1659 1661 1662 1660
f 1661 1663 1664 1662
f 1663 1665 1666 1664
f 1665 1667 1668 1666
f 1667 1649 1650 1668
g GalakasMidCity_Workshop_W05D05_F01_R01U01L01_A01_sign_arm_capA
f 1667 1665 1663 1661 1659 1657 1655 1653 1651 1649
g GalakasMidCity_Workshop_W05D05_F01_R01U01L01_A01_sign_arm_capB
f 1650 1652 1654 1656 1658 1660 1662 1664 1666 1668
g GalakasMidCity_Workshop_W05D05_F01_R01U01L01_A01_sign_board
usemtl Mat_WoodWeathered
f 1669 1670 1671 1672
f 1673 1676 1675 1674
f 1669 1673 1674 1670
f 1670 1674 1675 1671
f 1671 1675 1676 1672
f 1672 1676 1673 1669
g GalakasMidCity_Workshop_W05D05_F01_R01U01L01_A01_lamp_stem
usemtl Mat_MetalDark
f 1677 1679 1680 1678
f 1679 1681 1682 1680
f 1681 1683 1684 1682
f 1683 1685 1686 1684
f 1685 1687 1688 1686
f 1687 1689 1690 1688
f 1689 1691 1692 1690
f 1691 1693 1694 1692
f 1693 1695 1696 1694
f 1695 1697 1698 1696
f 1697 1699 1700 1698
f 1699 1677 1678 1700
g GalakasMidCity_Workshop_W05D05_F01_R01U01L01_A01_lamp_stem_capA
f 1699 1697 1695 1693 1691 1689 1687 1685 1683 1681 1679 1677
g GalakasMidCity_Workshop_W05D05_F01_R01U01L01_A01_lamp_stem_capB
f 1678 1680 1682 1684 1686 1688 1690 1692 1694 1696 1698 1700
g GalakasMidCity_Workshop_W05D05_F01_R01U01L01_A01_lamp_cage
f 1701 1702 1714 1713
f 1702 1703 1715 1714
f 1703 1704 1716 1715
f 1704 1705 1717 1716
f 1705 1706 1718 1717
f 1706 1707 1719 1718
f 1707 1708 1720 1719
f 1708 1709 1721 1720
f 1709 1710 1722 1721
f 1710 1711 1723 1722
f 1711 1712 1724 1723
f 1712 1701 1713 1724
f 1713 1714 1726 1725
f 1714 1715 1727 1726
f 1715 1716 1728 1727
f 1716 1717 1729 1728
f 1717 1718 1730 1729
f 1718 1719 1731 1730
f 1719 1720 1732 1731
f 1720 1721 1733 1732
f 1721 1722 1734 1733
f 1722 1723 1735 1734
f 1723 1724 1736 1735
f 1724 1713 1725 1736
f 1725 1726 1738 1737
f 1726 1727 1739 1738
f 1727 1728 1740 1739
f 1728 1729 1741 1740
f 1729 1730 1742 1741
f 1730 1731 1743 1742
f 1731 1732 1744 1743
f 1732 1733 1745 1744
f 1733 1734 1746 1745
f 1734 1735 1747 1746
f 1735 1736 1748 1747
f 1736 1725 1737 1748
f 1737 1738 1750 1749
f 1738 1739 1751 1750
f 1739 1740 1752 1751
f 1740 1741 1753 1752
f 1741 1742 1754 1753
f 1742 1743 1755 1754
f 1743 1744 1756 1755
f 1744 1745 1757 1756
f 1745 1746 1758 1757
f 1746 1747 1759 1758
f 1747 1748 1760 1759
f 1748 1737 1749 1760
f 1749 1750 1762 1761
f 1750 1751 1763 1762
f 1751 1752 1764 1763
f 1752 1753 1765 1764
f 1753 1754 1766 1765
f 1754 1755 1767 1766
f 1755 1756 1768 1767
f 1756 1757 1769 1768
f 1757 1758 1770 1769
f 1758 1759 1771 1770
f 1759 1760 1772 1771
f 1760 1749 1761 1772
