# GalakasMidCity_LWR_W03D04_BrickResidence_02
mtllib GalakasMidCity_LWR_W03D04_BrickResidence_02.mtl
v -3.27500 0.00000 -4.27500
v 3.27500 0.00000 -4.27500
v 3.27500 0.36000 -4.27500
v -3.27500 0.36000 -4.27500
v -3.27500 0.00000 4.27500
v 3.27500 0.00000 4.27500
v 3.27500 0.36000 4.27500
v -3.27500 0.36000 4.27500
v -3.17500 0.36000 -4.17500
v 3.17500 0.36000 -4.17500
v 3.17500 0.72000 -4.17500
v -3.17500 0.72000 -4.17500
v -3.17500 0.36000 4.17500
v 3.17500 0.36000 4.17500
v 3.17500 0.72000 4.17500
v -3.17500 0.72000 4.17500
v -2.89200 0.70000 -4.37000
v -1.90800 0.70000 -4.37000
v -1.90800 0.88000 -4.37000
v -2.89200 0.88000 -4.37000
v -2.89200 0.70000 -4.29000
v -1.90800 0.70000 -4.29000
v -1.90800 0.88000 -4.29000
v -2.89200 0.88000 -4.29000
v -1.69200 0.70000 -4.37000
v -0.70800 0.70000 -4.37000
v -0.70800 0.88000 -4.37000
v -1.69200 0.88000 -4.37000
v -1.69200 0.70000 -4.29000
v -0.70800 0.70000 -4.29000
v -0.70800 0.88000 -4.29000
v -1.69200 0.88000 -4.29000
v -0.49200 0.70000 -4.37000
v 0.49200 0.70000 -4.37000
v 0.49200 0.88000 -4.37000
v -0.49200 0.88000 -4.37000
v -0.49200 0.70000 -4.29000
v 0.49200 0.70000 -4.29000
v 0.49200 0.88000 -4.29000
v -0.49200 0.88000 -4.29000
v 0.70800 0.70000 -4.37000
v 1.69200 0.70000 -4.37000
v 1.69200 0.88000 -4.37000
v 0.70800 0.88000 -4.37000
v 0.70800 0.70000 -4.29000
v 1.69200 0.70000 -4.29000
v 1.69200 0.88000 -4.29000
v 0.70800 0.88000 -4.29000
v 1.90800 0.70000 -4.37000
v 2.89200 0.70000 -4.37000
v 2.89200 0.88000 -4.37000
v 1.90800 0.88000 -4.37000
v 1.90800 0.70000 -4.29000
v 2.89200 0.70000 -4.29000
v 2.89200 0.88000 -4.29000
v 1.90800 0.88000 -4.29000
v -2.89200 0.70000 4.29000
v -1.90800 0.70000 4.29000
v -1.90800 0.88000 4.29000
v -2.89200 0.88000 4.29000
v -2.89200 0.70000 4.37000
v -1.90800 0.70000 4.37000
v -1.90800 0.88000 4.37000
v -2.89200 0.88000 4.37000
v -1.69200 0.70000 4.29000
v -0.70800 0.70000 4.29000
v -0.70800 0.88000 4.29000
v -1.69200 0.88000 4.29000
v -1.69200 0.70000 4.37000
v -0.70800 0.70000 4.37000
v -0.70800 0.88000 4.37000
v -1.69200 0.88000 4.37000
v -0.49200 0.70000 4.29000
v 0.49200 0.70000 4.29000
v 0.49200 0.88000 4.29000
v -0.49200 0.88000 4.29000
v -0.49200 0.70000 4.37000
v 0.49200 0.70000 4.37000
v 0.49200 0.88000 4.37000
v -0.49200 0.88000 4.37000
v 0.70800 0.70000 4.29000
v 1.69200 0.70000 4.29000
v 1.69200 0.88000 4.29000
v 0.70800 0.88000 4.29000
v 0.70800 0.70000 4.37000
v 1.69200 0.70000 4.37000
v 1.69200 0.88000 4.37000
v 0.70800 0.88000 4.37000
v 1.90800 0.70000 4.29000
v 2.89200 0.70000 4.29000
v 2.89200 0.88000 4.29000
v 1.90800 0.88000 4.29000
v 1.90800 0.70000 4.37000
v 2.89200 0.70000 4.37000
v 2.89200 0.88000 4.37000
v 1.90800 0.88000 4.37000
v -3.37000 0.70000 -3.88000
v -3.29000 0.70000 -3.88000
v -3.29000 0.88000 -3.88000
v -3.37000 0.88000 -3.88000
v -3.37000 0.70000 -2.78667
v -3.29000 0.70000 -2.78667
v -3.29000 0.88000 -2.78667
v -3.37000 0.88000 -2.78667
v -3.37000 0.70000 -2.54667
v -3.29000 0.70000 -2.54667
v -3.29000 0.88000 -2.54667
v -3.37000 0.88000 -2.54667
v -3.37000 0.70000 -1.45333
v -3.29000 0.70000 -1.45333
v -3.29000 0.88000 -1.45333
v -3.37000 0.88000 -1.45333
v -3.37000 0.70000 -1.21333
v -3.29000 0.70000 -1.21333
v -3.29000 0.88000 -1.21333
v -3.37000 0.88000 -1.21333
v -3.37000 0.70000 -0.12000
v -3.29000 0.70000 -0.12000
v -3.29000 0.88000 -0.12000
v -3.37000 0.88000 -0.12000
v -3.37000 0.70000 0.12000
v -3.29000 0.70000 0.12000
v -3.29000 0.88000 0.12000
v -3.37000 0.88000 0.12000
v -3.37000 0.70000 1.21333
v -3.29000 0.70000 1.21333
v -3.29000 0.88000 1.21333
v -3.37000 0.88000 1.21333
v -3.37000 0.70000 1.45333
v -3.29000 0.70000 1.45333
v -3.29000 0.88000 1.45333
v -3.37000 0.88000 1.45333
v -3.37000 0.70000 2.54667
v -3.29000 0.70000 2.54667
v -3.29000 0.88000 2.54667
v -3.37000 0.88000 2.54667
v -3.37000 0.70000 2.78667
v -3.29000 0.70000 2.78667
v -3.29000 0.88000 2.78667
v -3.37000 0.88000 2.78667
v -3.37000 0.70000 3.88000
v -3.29000 0.70000 3.88000
v -3.29000 0.88000 3.88000
v -3.37000 0.88000 3.88000
v 3.29000 0.70000 -3.88000
v 3.37000 0.70000 -3.88000
v 3.37000 0.88000 -3.88000
v 3.29000 0.88000 -3.88000
v 3.29000 0.70000 -2.78667
v 3.37000 0.70000 -2.78667
v 3.37000 0.88000 -2.78667
v 3.29000 0.88000 -2.78667
v 3.29000 0.70000 -2.54667
v 3.37000 0.70000 -2.54667
v 3.37000 0.88000 -2.54667
v 3.29000 0.88000 -2.54667
v 3.29000 0.70000 -1.45333
v 3.37000 0.70000 -1.45333
v 3.37000 0.88000 -1.45333
v 3.29000 0.88000 -1.45333
v 3.29000 0.70000 -1.21333
v 3.37000 0.70000 -1.21333
v 3.37000 0.88000 -1.21333
v 3.29000 0.88000 -1.21333
v 3.29000 0.70000 -0.12000
v 3.37000 0.70000 -0.12000
v 3.37000 0.88000 -0.12000
v 3.29000 0.88000 -0.12000
v 3.29000 0.70000 0.12000
v 3.37000 0.70000 0.12000
v 3.37000 0.88000 0.12000
v 3.29000 0.88000 0.12000
v 3.29000 0.70000 1.21333
v 3.37000 0.70000 1.21333
v 3.37000 0.88000 1.21333
v 3.29000 0.88000 1.21333
v 3.29000 0.70000 1.45333
v 3.37000 0.70000 1.45333
v 3.37000 0.88000 1.45333
v 3.29000 0.88000 1.45333
v 3.29000 0.70000 2.54667
v 3.37000 0.70000 2.54667
v 3.37000 0.88000 2.54667
v 3.29000 0.88000 2.54667
v 3.29000 0.70000 2.78667
v 3.37000 0.70000 2.78667
v 3.37000 0.88000 2.78667
v 3.29000 0.88000 2.78667
v 3.29000 0.70000 3.88000
v 3.37000 0.70000 3.88000
v 3.37000 0.88000 3.88000
v 3.29000 0.88000 3.88000
v -3.00000 0.72000 -4.18000
v -1.37500 0.72000 -4.18000
v -1.37500 5.52000 -4.18000
v -3.00000 5.52000 -4.18000
v -3.00000 0.72000 -4.00000
v -1.37500 0.72000 -4.00000
v -1.37500 5.52000 -4.00000
v -3.00000 5.52000 -4.00000
v 1.37500 0.72000 -4.18000
v 3.00000 0.72000 -4.18000
v 3.00000 5.52000 -4.18000
v 1.37500 5.52000 -4.18000
v 1.37500 0.72000 -4.00000
v 3.00000 0.72000 -4.00000
v 3.00000 5.52000 -4.00000
v 1.37500 5.52000 -4.00000
v -1.37500 4.07000 -4.18000
v 1.37500 4.07000 -4.18000
v 1.37500 5.07000 -4.18000
v -1.37500 5.07000 -4.18000
v -1.37500 4.07000 -4.00000
v 1.37500 4.07000 -4.00000
v 1.37500 5.07000 -4.00000
v -1.37500 5.07000 -4.00000
v -0.92500 0.90000 -4.28000
v 0.92500 0.90000 -4.28000
v 0.92500 4.25000 -4.28000
v -0.92500 4.25000 -4.28000
v -0.92500 0.90000 -4.12000
v 0.92500 0.90000 -4.12000
v 0.92500 4.25000 -4.12000
v -0.92500 4.25000 -4.12000
v -0.87320 1.00050 -4.31000
v -0.60680 1.00050 -4.31000
v -0.60680 4.14950 -4.31000
v -0.87320 4.14950 -4.31000
v -0.87320 1.00050 -4.27000
v -0.60680 1.00050 -4.27000
v -0.60680 4.14950 -4.27000
v -0.87320 4.14950 -4.27000
v -0.50320 1.00050 -4.31000
v -0.23680 1.00050 -4.31000
v -0.23680 4.14950 -4.31000
v -0.50320 4.14950 -4.31000
v -0.50320 1.00050 -4.27000
v -0.23680 1.00050 -4.27000
v -0.23680 4.14950 -4.27000
v -0.50320 4.14950 -4.27000
v -0.13320 1.00050 -4.31000
v 0.13320 1.00050 -4.31000
v 0.13320 4.14950 -4.31000
v -0.13320 4.14950 -4.31000
v -0.13320 1.00050 -4.27000
v 0.13320 1.00050 -4.27000
v 0.13320 4.14950 -4.27000
v -0.13320 4.14950 -4.27000
v 0.23680 1.00050 -4.31000
v 0.50320 1.00050 -4.31000
v 0.50320 4.14950 -4.31000
v 0.23680 4.14950 -4.31000
v 0.23680 1.00050 -4.27000
v 0.50320 1.00050 -4.27000
v 0.50320 4.14950 -4.27000
v 0.23680 4.14950 -4.27000
v 0.60680 1.00050 -4.31000
v 0.87320 1.00050 -4.31000
v 0.87320 4.14950 -4.31000
v 0.60680 4.14950 -4.31000
v 0.60680 1.00050 -4.27000
v 0.87320 1.00050 -4.27000
v 0.87320 4.14950 -4.27000
v 0.60680 4.14950 -4.27000
v -1.12500 0.74000 -4.36000
v -0.94500 0.74000 -4.36000
v -0.94500 4.41000 -4.36000
v -1.12500 4.41000 -4.36000
v -1.12500 0.74000 -4.08000
v -0.94500 0.74000 -4.08000
v -0.94500 4.41000 -4.08000
v -1.12500 4.41000 -4.08000
v 0.94500 0.74000 -4.36000
v 1.12500 0.74000 -4.36000
v 1.12500 4.41000 -4.36000
v 0.94500 4.41000 -4.36000
v 0.94500 0.74000 -4.08000
v 1.12500 0.74000 -4.08000
v 1.12500 4.41000 -4.08000
v 0.94500 4.41000 -4.08000
v -1.20000 4.25000 -4.36000
v 1.20000 4.25000 -4.36000
v 1.20000 4.47000 -4.36000
v -1.20000 4.47000 -4.36000
v -1.20000 4.25000 -4.08000
v 1.20000 4.25000 -4.08000
v 1.20000 4.47000 -4.08000
v -1.20000 4.47000 -4.08000
v -0.79550 1.65000 -4.39000
v 0.79550 1.65000 -4.39000
v 0.79550 1.75000 -4.39000
v -0.79550 1.75000 -4.39000
v -0.79550 1.65000 -4.31000
v 0.79550 1.65000 -4.31000
v 0.79550 1.75000 -4.31000
v -0.79550 1.75000 -4.31000
v -0.79550 2.59200 -4.39000
v 0.79550 2.59200 -4.39000
v 0.79550 2.69200 -4.39000
v -0.79550 2.69200 -4.39000
v -0.79550 2.59200 -4.31000
v 0.79550 2.59200 -4.31000
v 0.79550 2.69200 -4.31000
v -0.79550 2.69200 -4.31000
v -0.79550 3.65000 -4.39000
v 0.79550 3.65000 -4.39000
v 0.79550 3.75000 -4.39000
v -0.79550 3.75000 -4.39000
v -0.79550 3.65000 -4.31000
v 0.79550 3.65000 -4.31000
v 0.79550 3.75000 -4.31000
v -0.79550 3.75000 -4.31000
v -1.16500 1.57000 -4.44500
v -1.16500 2.13000 -4.44500
v -1.19750 1.57000 -4.43629
v -1.19750 2.13000 -4.43629
v -1.22129 1.57000 -4.41250
v -1.22129 2.13000 -4.41250
v -1.23000 1.57000 -4.38000
v -1.23000 2.13000 -4.38000
v -1.22129 1.57000 -4.34750
v -1.22129 2.13000 -4.34750
v -1.19750 1.57000 -4.32371
v -1.19750 2.13000 -4.32371
v -1.16500 1.57000 -4.31500
v -1.16500 2.13000 -4.31500
v -1.13250 1.57000 -4.32371
v -1.13250 2.13000 -4.32371
v -1.10871 1.57000 -4.34750
v -1.10871 2.13000 -4.34750
v -1.10000 1.57000 -4.38000
v -1.10000 2.13000 -4.38000
v -1.10871 1.57000 -4.41250
v -1.10871 2.13000 -4.41250
v -1.13250 1.57000 -4.43629
v -1.13250 2.13000 -4.43629
v -1.16500 3.17000 -4.44500
v -1.16500 3.73000 -4.44500
v -1.19750 3.17000 -4.43629
v -1.19750 3.73000 -4.43629
v -1.22129 3.17000 -4.41250
v -1.22129 3.73000 -4.41250
v -1.23000 3.17000 -4.38000
v -1.23000 3.73000 -4.38000
v -1.22129 3.17000 -4.34750
v -1.22129 3.73000 -4.34750
v -1.19750 3.17000 -4.32371
v -1.19750 3.73000 -4.32371
v -1.16500 3.17000 -4.31500
v -1.16500 3.73000 -4.31500
v -1.13250 3.17000 -4.32371
v -1.13250 3.73000 -4.32371
v -1.10871 3.17000 -4.34750
v -1.10871 3.73000 -4.34750
v -1.10000 3.17000 -4.38000
v -1.10000 3.73000 -4.38000
v -1.10871 3.17000 -4.41250
v -1.10871 3.73000 -4.41250
v -1.13250 3.17000 -4.43629
v -1.13250 3.73000 -4.43629
v 0.55500 2.72200 -4.42000
v 0.55500 2.72200 -4.42000
v 0.55500 2.72200 -4.42000
v 0.55500 2.72200 -4.42000
v 0.55500 2.72200 -4.42000
v 0.55500 2.72200 -4.42000
v 0.55500 2.72200 -4.42000
v 0.55500 2.72200 -4.42000
v 0.55500 2.72200 -4.42000
v 0.55500 2.72200 -4.42000
v 0.55500 2.72200 -4.42000
v 0.55500 2.72200 -4.42000
v 0.60202 2.70672 -4.42000
v 0.59572 2.70672 -4.39649
v 0.57851 2.70672 -4.37928
v 0.55500 2.70672 -4.37298
v 0.53149 2.70672 -4.37928
v 0.51428 2.70672 -4.39649
v 0.50798 2.70672 -4.42000
v 0.51428 2.70672 -4.44351
v 0.53149 2.70672 -4.46072
v 0.55500 2.70672 -4.46702
v 0.57851 2.70672 -4.46072
v 0.59572 2.70672 -4.44351
v 0.63108 2.66672 -4.42000
v 0.62089 2.66672 -4.38196
v 0.59304 2.66672 -4.35411
v 0.55500 2.66672 -4.34392
v 0.51696 2.66672 -4.35411
v 0.48911 2.66672 -4.38196
v 0.47892 2.66672 -4.42000
v 0.48911 2.66672 -4.45804
v 0.51696 2.66672 -4.48589
v 0.55500 2.66672 -4.49608
v 0.59304 2.66672 -4.48589
v 0.62089 2.66672 -4.45804
v 0.63108 2.61728 -4.42000
v 0.62089 2.61728 -4.38196
v 0.59304 2.61728 -4.35411
v 0.55500 2.61728 -4.34392
v 0.51696 2.61728 -4.35411
v 0.48911 2.61728 -4.38196
v 0.47892 2.61728 -4.42000
v 0.48911 2.61728 -4.45804
v 0.51696 2.61728 -4.48589
v 0.55500 2.61728 -4.49608
v 0.59304 2.61728 -4.48589
v 0.62089 2.61728 -4.45804
v 0.60202 2.57728 -4.42000
v 0.59572 2.57728 -4.39649
v 0.57851 2.57728 -4.37928
v 0.55500 2.57728 -4.37298
v 0.53149 2.57728 -4.37928
v 0.51428 2.57728 -4.39649
v 0.50798 2.57728 -4.42000
v 0.51428 2.57728 -4.44351
v 0.53149 2.57728 -4.46072
v 0.55500 2.57728 -4.46702
v 0.57851 2.57728 -4.46072
v 0.59572 2.57728 -4.44351
v 0.55500 2.56200 -4.42000
v 0.55500 2.56200 -4.42000
v 0.55500 2.56200 -4.42000
v 0.55500 2.56200 -4.42000
v 0.55500 2.56200 -4.42000
v 0.55500 2.56200 -4.42000
v 0.55500 2.56200 -4.42000
v 0.55500 2.56200 -4.42000
v 0.55500 2.56200 -4.42000
v 0.55500 2.56200 -4.42000
v 0.55500 2.56200 -4.42000
v 0.55500 2.56200 -4.42000
v -3.00000 0.72000 4.00000
v 3.00000 0.72000 4.00000
v 3.00000 5.52000 4.00000
v -3.00000 5.52000 4.00000
v -3.00000 0.72000 4.18000
v 3.00000 0.72000 4.18000
v 3.00000 5.52000 4.18000
v -3.00000 5.52000 4.18000
v -3.18000 0.72000 -4.00000
v -3.00000 0.72000 -4.00000
v -3.00000 5.52000 -4.00000
v -3.18000 5.52000 -4.00000
v -3.18000 0.72000 4.00000
v -3.00000 0.72000 4.00000
v -3.00000 5.52000 4.00000
v -3.18000 5.52000 4.00000
v 3.00000 0.72000 -4.00000
v 3.18000 0.72000 -4.00000
v 3.18000 5.52000 -4.00000
v 3.00000 5.52000 -4.00000
v 3.00000 0.72000 4.00000
v 3.18000 0.72000 4.00000
v 3.18000 5.52000 4.00000
v 3.00000 5.52000 4.00000
v -3.00000 0.72000 -4.00000
v 3.00000 0.72000 -4.00000
v 3.00000 0.82000 -4.00000
v -3.00000 0.82000 -4.00000
v -3.00000 0.72000 4.00000
v 3.00000 0.72000 4.00000
v 3.00000 0.82000 4.00000
v -3.00000 0.82000 4.00000
v -3.00000 5.42000 -4.00000
v 3.00000 5.42000 -4.00000
v 3.00000 5.52000 -4.00000
v -3.00000 5.52000 -4.00000
v -3.00000 5.42000 4.00000
v 3.00000 5.42000 4.00000
v 3.00000 5.52000 4.00000
v -3.00000 5.52000 4.00000
v -3.11000 0.82000 -4.26000
v 3.11000 0.82000 -4.26000
v 3.11000 0.98000 -4.26000
v -3.11000 0.98000 -4.26000
v -3.11000 0.82000 -4.12000
v 3.11000 0.82000 -4.12000
v 3.11000 0.98000 -4.12000
v -3.11000 0.98000 -4.12000
v -3.11000 0.82000 4.12000
v 3.11000 0.82000 4.12000
v 3.11000 0.98000 4.12000
v -3.11000 0.98000 4.12000
v -3.11000 0.82000 4.26000
v 3.11000 0.82000 4.26000
v 3.11000 0.98000 4.26000
v -3.11000 0.98000 4.26000
v -3.11000 5.26000 -4.26000
v 3.11000 5.26000 -4.26000
v 3.11000 5.42000 -4.26000
v -3.11000 5.42000 -4.26000
v -3.11000 5.26000 -4.12000
v 3.11000 5.26000 -4.12000
v 3.11000 5.42000 -4.12000
v -3.11000 5.42000 -4.12000
v -3.11000 5.26000 4.12000
v 3.11000 5.26000 4.12000
v 3.11000 5.42000 4.12000
v -3.11000 5.42000 4.12000
v -3.11000 5.26000 4.26000
v 3.11000 5.26000 4.26000
v 3.11000 5.42000 4.26000
v -3.11000 5.42000 4.26000
v -2.96000 0.72000 -4.29000
v -2.80000 0.72000 -4.29000
v -2.80000 5.52000 -4.29000
v -2.96000 5.52000 -4.29000
v -2.96000 0.72000 -4.13000
v -2.80000 0.72000 -4.13000
v -2.80000 5.52000 -4.13000
v -2.96000 5.52000 -4.13000
v 2.80000 0.72000 -4.29000
v 2.96000 0.72000 -4.29000
v 2.96000 5.52000 -4.29000
v 2.80000 5.52000 -4.29000
v 2.80000 0.72000 -4.13000
v 2.96000 0.72000 -4.13000
v 2.96000 5.52000 -4.13000
v 2.80000 5.52000 -4.13000
v -1.58000 0.72000 -4.29000
v -1.42000 0.72000 -4.29000
v -1.42000 5.52000 -4.29000
v -1.58000 5.52000 -4.29000
v -1.58000 0.72000 -4.13000
v -1.42000 0.72000 -4.13000
v -1.42000 5.52000 -4.13000
v -1.58000 5.52000 -4.13000
v 1.42000 0.72000 -4.29000
v 1.58000 0.72000 -4.29000
v 1.58000 5.52000 -4.29000
v 1.42000 5.52000 -4.29000
v 1.42000 0.72000 -4.13000
v 1.58000 0.72000 -4.13000
v 1.58000 5.52000 -4.13000
v 1.42000 5.52000 -4.13000
v -2.96000 0.72000 4.13000
v -2.80000 0.72000 4.13000
v -2.80000 5.52000 4.13000
v -2.96000 5.52000 4.13000
v -2.96000 0.72000 4.29000
v -2.80000 0.72000 4.29000
v -2.80000 5.52000 4.29000
v -2.96000 5.52000 4.29000
v 2.80000 0.72000 4.13000
v 2.96000 0.72000 4.13000
v 2.96000 5.52000 4.13000
v 2.80000 5.52000 4.13000
v 2.80000 0.72000 4.29000
v 2.96000 0.72000 4.29000
v 2.96000 5.52000 4.29000
v 2.80000 5.52000 4.29000
v -2.50500 2.64500 -4.28000
v -1.45500 2.64500 -4.28000
v -1.45500 3.89500 -4.28000
v -2.50500 3.89500 -4.28000
v -2.50500 2.64500 -4.20000
v -1.45500 2.64500 -4.20000
v -1.45500 3.89500 -4.20000
v -2.50500 3.89500 -4.20000
v -2.60500 3.21000 -4.38000
v -1.35500 3.21000 -4.38000
v -1.35500 3.33000 -4.38000
v -2.60500 3.33000 -4.38000
v -2.60500 3.21000 -4.22000
v -1.35500 3.21000 -4.22000
v -1.35500 3.33000 -4.22000
v -2.60500 3.33000 -4.22000
v -2.04000 2.54500 -4.38000
v -1.92000 2.54500 -4.38000
v -1.92000 3.99500 -4.38000
v -2.04000 3.99500 -4.38000
v -2.04000 2.54500 -4.22000
v -1.92000 2.54500 -4.22000
v -1.92000 3.99500 -4.22000
v -2.04000 3.99500 -4.22000
v -2.66500 2.54500 -4.38000
v -2.54500 2.54500 -4.38000
v -2.54500 3.99500 -4.38000
v -2.66500 3.99500 -4.38000
v -2.66500 2.54500 -4.22000
v -2.54500 2.54500 -4.22000
v -2.54500 3.99500 -4.22000
v -2.66500 3.99500 -4.22000
v -1.41500 2.54500 -4.38000
v -1.29500 2.54500 -4.38000
v -1.29500 3.99500 -4.38000
v -1.41500 3.99500 -4.38000
v -1.41500 2.54500 -4.22000
v -1.29500 2.54500 -4.22000
v -1.29500 3.99500 -4.22000
v -1.41500 3.99500 -4.22000
v -2.64500 2.45500 -4.42000
v -1.31500 2.45500 -4.42000
v -1.31500 2.59500 -4.42000
v -2.64500 2.59500 -4.42000
v -2.64500 2.45500 -4.18000
v -1.31500 2.45500 -4.18000
v -1.31500 2.59500 -4.18000
v -2.64500 2.59500 -4.18000
v -2.91650 2.69500 -4.40000
v -2.57650 2.69500 -4.40000
v -2.57650 3.84500 -4.40000
v -2.91650 3.84500 -4.40000
v -2.91650 2.69500 -4.32000
v -2.57650 2.69500 -4.32000
v -2.57650 3.84500 -4.32000
v -2.91650 3.84500 -4.32000
v -1.38350 2.69500 -4.40000
v -1.04350 2.69500 -4.40000
v -1.04350 3.84500 -4.40000
v -1.38350 3.84500 -4.40000
v -1.38350 2.69500 -4.32000
v -1.04350 2.69500 -4.32000
v -1.04350 3.84500 -4.32000
v -1.38350 3.84500 -4.32000
v 1.45500 2.64500 -4.28000
v 2.50500 2.64500 -4.28000
v 2.50500 3.89500 -4.28000
v 1.45500 3.89500 -4.28000
v 1.45500 2.64500 -4.20000
v 2.50500 2.64500 -4.20000
v 2.50500 3.89500 -4.20000
v 1.45500 3.89500 -4.20000
v 1.35500 3.21000 -4.38000
v 2.60500 3.21000 -4.38000
v 2.60500 3.33000 -4.38000
v 1.35500 3.33000 -4.38000
v 1.35500 3.21000 -4.22000
v 2.60500 3.21000 -4.22000
v 2.60500 3.33000 -4.22000
v 1.35500 3.33000 -4.22000
v 1.92000 2.54500 -4.38000
v 2.04000 2.54500 -4.38000
v 2.04000 3.99500 -4.38000
v 1.92000 3.99500 -4.38000
v 1.92000 2.54500 -4.22000
v 2.04000 2.54500 -4.22000
v 2.04000 3.99500 -4.22000
v 1.92000 3.99500 -4.22000
v 1.29500 2.54500 -4.38000
v 1.41500 2.54500 -4.38000
v 1.41500 3.99500 -4.38000
v 1.29500 3.99500 -4.38000
v 1.29500 2.54500 -4.22000
v 1.41500 2.54500 -4.22000
v 1.41500 3.99500 -4.22000
v 1.29500 3.99500 -4.22000
v 2.54500 2.54500 -4.38000
v 2.66500 2.54500 -4.38000
v 2.66500 3.99500 -4.38000
v 2.54500 3.99500 -4.38000
v 2.54500 2.54500 -4.22000
v 2.66500 2.54500 -4.22000
v 2.66500 3.99500 -4.22000
v 2.54500 3.99500 -4.22000
v 1.31500 2.45500 -4.42000
v 2.64500 2.45500 -4.42000
v 2.64500 2.59500 -4.42000
v 1.31500 2.59500 -4.42000
v 1.31500 2.45500 -4.18000
v 2.64500 2.45500 -4.18000
v 2.64500 2.59500 -4.18000
v 1.31500 2.59500 -4.18000
v 1.04350 2.69500 -4.40000
v 1.38350 2.69500 -4.40000
v 1.38350 3.84500 -4.40000
v 1.04350 3.84500 -4.40000
v 1.04350 2.69500 -4.32000
v 1.38350 2.69500 -4.32000
v 1.38350 3.84500 -4.32000
v 1.04350 3.84500 -4.32000
v 2.57650 2.69500 -4.40000
v 2.91650 2.69500 -4.40000
v 2.91650 3.84500 -4.40000
v 2.57650 3.84500 -4.40000
v 2.57650 2.69500 -4.32000
v 2.91650 2.69500 -4.32000
v 2.91650 3.84500 -4.32000
v 2.57650 3.84500 -4.32000
g stone_plinth_base
usemtl Mat_StoneFoundation
f 1 2 3 4
f 5 8 7 6
f 1 5 6 2
f 2 6 7 3
f 3 7 8 4
f 4 8 5 1
g stone_plinth_raised
f 9 10 11 12
f 13 16 15 14
f 9 13 14 10
f 10 14 15 11
f 11 15 16 12
f 12 16 13 9
g stone_block_front_0
f 17 18 19 20
f 21 24 23 22
f 17 21 22 18
f 18 22 23 19
f 19 23 24 20
f 20 24 21 17
g stone_block_front_1
f 25 26 27 28
f 29 32 31 30
f 25 29 30 26
f 26 30 31 27
f 27 31 32 28
f 28 32 29 25
g stone_block_front_2
f 33 34 35 36
f 37 40 39 38
f 33 37 38 34
f 34 38 39 35
f 35 39 40 36
f 36 40 37 33
g stone_block_front_3
f 41 42 43 44
f 45 48 47 46
f 41 45 46 42
f 42 46 47 43
f 43 47 48 44
f 44 48 45 41
g stone_block_front_4
f 49 50 51 52
f 53 56 55 54
f 49 53 54 50
f 50 54 55 51
f 51 55 56 52
f 52 56 53 49
g stone_block_back_0
f 57 58 59 60
f 61 64 63 62
f 57 61 62 58
f 58 62 63 59
f 59 63 64 60
f 60 64 61 57
g stone_block_back_1
f 65 66 67 68
f 69 72 71 70
f 65 69 70 66
f 66 70 71 67
f 67 71 72 68
f 68 72 69 65
g stone_block_back_2
f 73 74 75 76
f 77 80 79 78
f 73 77 78 74
f 74 78 79 75
f 75 79 80 76
f 76 80 77 73
g stone_block_back_3
f 81 82 83 84
f 85 88 87 86
f 81 85 86 82
f 82 86 87 83
f 83 87 88 84
f 84 88 85 81
g stone_block_back_4
f 89 90 91 92
f 93 96 95 94
f 89 93 94 90
f 90 94 95 91
f 91 95 96 92
f 92 96 93 89
g stone_block_left_0
f 97 98 99 100
f 101 104 103 102
f 97 101 102 98
f 98 102 103 99
f 99 103 104 100
f 100 104 101 97
g stone_block_left_1
f 105 106 107 108
f 109 112 111 110
f 105 109 110 106
f 106 110 111 107
f 107 111 112 108
f 108 112 109 105
g stone_block_left_2
f 113 114 115 116
f 117 120 119 118
f 113 117 118 114
f 114 118 119 115
f 115 119 120 116
f 116 120 117 113
g stone_block_left_3
f 121 122 123 124
f 125 128 127 126
f 121 125 126 122
f 122 126 127 123
f 123 127 128 124
f 124 128 125 121
g stone_block_left_4
f 129 130 131 132
f 133 136 135 134
f 129 133 134 130
f 130 134 135 131
f 131 135 136 132
f 132 136 133 129
g stone_block_left_5
f 137 138 139 140
f 141 144 143 142
f 137 141 142 138
f 138 142 143 139
f 139 143 144 140
f 140 144 141 137
g stone_block_right_0
f 145 146 147 148
f 149 152 151 150
f 145 149 150 146
f 146 150 151 147
f 147 151 152 148
f 148 152 149 145
g stone_block_right_1
f 153 154 155 156
f 157 160 159 158
f 153 157 158 154
f 154 158 159 155
f 155 159 160 156
f 156 160 157 153
g stone_block_right_2
f 161 162 163 164
f 165 168 167 166
f 161 165 166 162
f 162 166 167 163
f 163 167 168 164
f 164 168 165 161
g stone_block_right_3
f 169 170 171 172
f 173 176 175 174
f 169 173 174 170
f 170 174 175 171
f 171 175 176 172
f 172 176 173 169
g stone_block_right_4
f 177 178 179 180
f 181 184 183 182
f 177 181 182 178
f 178 182 183 179
f 179 183 184 180
f 180 184 181 177
g stone_block_right_5
f 185 186 187 188
f 189 192 191 190
f 185 189 190 186
f 186 190 191 187
f 187 191 192 188
f 188 192 189 185
g lower_front_left_wall
usemtl Mat_BrickWall
f 193 194 195 196
f 197 200 199 198
f 193 197 198 194
f 194 198 199 195
f 195 199 200 196
f 196 200 197 193
g lower_front_right_wall
f 201 202 203 204
f 205 208 207 206
f 201 205 206 202
f 202 206 207 203
f 203 207 208 204
f 204 208 205 201
g lower_front_above_door
f 209 210 211 212
f 213 216 215 214
f 209 213 214 210
f 210 214 215 211
f 211 215 216 212
f 212 216 213 209
g lower_main_door_slab
usemtl Mat_WoodDark
f 217 218 219 220
f 221 224 223 222
f 217 221 222 218
f 218 222 223 219
f 219 223 224 220
f 220 224 221 217
g lower_main_door_plank_0
usemtl Mat_WoodWeathered
f 225 226 227 228
f 229 232 231 230
f 225 229 230 226
f 226 230 231 227
f 227 231 232 228
f 228 232 229 225
g lower_main_door_plank_1
f 233 234 235 236
f 237 240 239 238
f 233 237 238 234
f 234 238 239 235
f 235 239 240 236
f 236 240 237 233
g lower_main_door_plank_2
f 241 242 243 244
f 245 248 247 246
f 241 245 246 242
f 242 246 247 243
f 243 247 248 244
f 244 248 245 241
g lower_main_door_plank_3
f 249 250 251 252
f 253 256 255 254
f 249 253 254 250
f 250 254 255 251
f 251 255 256 252
f 252 256 253 249
g lower_main_door_plank_4
f 257 258 259 260
f 261 264 263 262
f 257 261 262 258
f 258 262 263 259
f 259 263 264 260
f 260 264 261 257
g lower_main_door_frame_l
usemtl Mat_WoodDark
f 265 266 267 268
f 269 272 271 270
f 265 269 270 266
f 266 270 271 267
f 267 271 272 268
f 268 272 269 265
g lower_main_door_frame_r
f 273 274 275 276
f 277 280 279 278
f 273 277 278 274
f 274 278 279 275
f 275 279 280 276
f 276 280 277 273
g lower_main_door_lintel
f 281 282 283 284
f 285 288 287 286
f 281 285 286 282
f 282 286 287 283
f 283 287 288 284
f 284 288 285 281
g lower_main_door_band_0
usemtl Mat_MetalDark
f 289 290 291 292
f 293 296 295 294
f 289 293 294 290
f 290 294 295 291
f 291 295 296 292
f 292 296 293 289
g lower_main_door_band_1
f 297 298 299 300
f 301 304 303 302
f 297 301 302 298
f 298 302 303 299
f 299 303 304 300
f 300 304 301 297
g lower_main_door_band_2
f 305 306 307 308
f 309 312 311 310
f 305 309 310 306
f 306 310 311 307
f 307 311 312 308
f 308 312 309 305
g lower_main_door_hinge_pin_0
f 313 315 316 314
f 315 317 318 316
f 317 319 320 318
f 319 321 322 320
f 321 323 324 322
f 323 325 326 324
f 325 327 328 326
f 327 329 330 328
f 329 331 332 330
f 331 333 334 332
f 333 335 336 334
f 335 313 314 336
g lower_main_door_hinge_pin_0_capA
f 335 333 331 329 327 325 323 321 319 317 315 313
g lower_main_door_hinge_pin_0_capB
f 314 316 318 320 322 324 326 328 330 332 334 336
g lower_main_door_hinge_pin_1
f 337 339 340 338
f 339 341 342 340
f 341 343 344 342
f 343 345 346 344
f 345 347 348 346
f 347 349 350 348
f 349 351 352 350
f 351 353 354 352
f 353 355 356 354
f 355 357 358 356
f 357 359 360 358
f 359 337 338 360
g lower_main_door_hinge_pin_1_capA
f 359 357 355 353 351 349 347 345 343 341 339 337
g lower_main_door_hinge_pin_1_capB
f 338 340 342 344 346 348 350 352 354 356 358 360
g lower_main_door_knob
f 361 362 374 373
f 362 363 375 374
f 363 364 376 375
f 364 365 377 376
f 365 366 378 377
f 366 367 379 378
f 367 368 380 379
f 368 369 381 380
f 369 370 382 381
f 370 371 383 382
f 371 372 384 383
f 372 361 373 384
f 373 374 386 385
f 374 375 387 386
f 375 376 388 387
f 376 377 389 388
f 377 378 390 389
f 378 379 391 390
f 379 380 392 391
f 380 381 393 392
f 381 382 394 393
f 382 383 395 394
f 383 384 396 395
f 384 373 385 396
f 385 386 398 397
f 386 387 399 398
f 387 388 400 399
f 388 389 401 400
f 389 390 402 401
f 390 391 403 402
f 391 392 404 403
f 392 393 405 404
f 393 394 406 405
f 394 395 407 406
f 395 396 408 407
f 396 385 397 408
f 397 398 410 409
f 398 399 411 410
f 399 400 412 411
f 400 401 413 412
f 401 402 414 413
f 402 403 415 414
f 403 404 416 415
f 404 405 417 416
f 405 406 418 417
f 406 407 419 418
f 407 408 420 419
f 408 397 409 420
f 409 410 422 421
f 410 411 423 422
f 411 412 424 423
f 412 413 425 424
f 413 414 426 425
f 414 415 427 426
f 415 416 428 427
f 416 417 429 428
f 417 418 430 429
f 418 419 431 430
f 419 420 432 431
f 420 409 421 432
g lower_back_wall
usemtl Mat_BrickWall
f 433 434 435 436
f 437 440 439 438
f 433 437 438 434
f 434 438 439 435
f 435 439 440 436
f 436 440 437 433
g lower_left_wall
f 441 442 443 444
f 445 448 447 446
f 441 445 446 442
f 442 446 447 443
f 443 447 448 444
f 444 448 445 441
g lower_right_wall
f 449 450 451 452
f 453 456 455 454
f 449 453 454 450
f 450 454 455 451
f 451 455 456 452
f 452 456 453 449
g lower_floor_cap
usemtl Mat_WoodDark
f 457 458 459 460
f 461 464 463 462
f 457 461 462 458
f 458 462 463 459
f 459 463 464 460
f 460 464 461 457
g lower_ceiling_cap
f 465 466 467 468
f 469 472 471 470
f 465 469 470 466
f 466 470 471 467
f 467 471 472 468
f 468 472 469 465
g lower_front_course_89
f 473 474 475 476
f 477 480 479 478
f 473 477 478 474
f 474 478 479 475
f 475 479 480 476
f 476 480 477 473
g lower_back_course_89
f 481 482 483 484
f 485 488 487 486
f 481 485 486 482
f 482 486 487 483
f 483 487 488 484
f 484 488 485 481
g lower_front_course_534
f 489 490 491 492
f 493 496 495 494
f 489 493 494 490
f 490 494 495 491
f 491 495 496 492
f 492 496 493 489
g lower_back_course_534
f 497 498 499 500
f 501 504 503 502
f 497 501 502 498
f 498 502 503 499
f 499 503 504 500
f 500 504 501 497
g lower_front_post_-2_9
f 505 506 507 508
f 509 512 511 510
f 505 509 510 506
f 506 510 511 507
f 507 511 512 508
f 508 512 509 505
g lower_front_post_2_9
f 513 514 515 516
f 517 520 519 518
f 513 517 518 514
f 514 518 519 515
f 515 519 520 516
f 516 520 517 513
g lower_front_post_-1_5
f 521 522 523 524
f 525 528 527 526
f 521 525 526 522
f 522 526 527 523
f 523 527 528 524
f 524 528 525 521
g lower_front_post_1_5
f 529 530 531 532
f 533 536 535 534
f 529 533 534 530
f 530 534 535 531
f 531 535 536 532
f 532 536 533 529
g lower_back_post_-2_9
f 537 538 539 540
f 541 544 543 542
f 537 541 542 538
f 538 542 543 539
f 539 543 544 540
f 540 544 541 537
g lower_back_post_2_9
f 545 546 547 548
f 549 552 551 550
f 545 549 550 546
f 546 550 551 547
f 547 551 552 548
f 548 552 549 545
g lower_front_window_0_glass
usemtl Mat_GlassDirty
f 553 554 555 556
f 557 560 559 558
f 553 557 558 554
f 554 558 559 555
f 555 559 560 556
f 556 560 557 553
g lower_front_window_0_frame_top
usemtl Mat_WoodDark
f 561 562 563 564
f 565 568 567 566
f 561 565 566 562
f 562 566 567 563
f 563 567 568 564
f 564 568 565 561
g lower_front_window_0_frame_mid_v
f 569 570 571 572
f 573 576 575 574
f 569 573 574 570
f 570 574 575 571
f 571 575 576 572
f 572 576 573 569
g lower_front_window_0_frame_l
f 577 578 579 580
f 581 584 583 582
f 577 581 582 578
f 578 582 583 579
f 579 583 584 580
f 580 584 581 577
g lower_front_window_0_frame_r
f 585 586 587 588
f 589 592 591 590
f 585 589 590 586
f 586 590 591 587
f 587 591 592 588
f 588 592 589 585
g lower_front_window_0_sill
f 593 594 595 596
f 597 600 599 598
f 593 597 598 594
f 594 598 599 595
f 595 599 600 596
f 596 600 597 593
g lower_front_window_0_shutter_l
usemtl Mat_WoodWeathered
f 601 602 603 604
f 605 608 607 606
f 601 605 606 602
f 602 606 607 603
f 603 607 608 604
f 604 608 605 601
g lower_front_window_0_shutter_r
f 609 610 611 612
f 613 616 615 614
f 609 613 614 610
f 610 614 615 611
f 611 615 616 612
f 612 616 613 609
g lower_front_window_1_glass
usemtl Mat_GlassDirty
f 617 618 619 620
f 621 624 623 622
f 617 621 622 618
f 618 622 623 619
f 619 623 624 620
f 620 624 621 617
g lower_front_window_1_frame_top
usemtl Mat_WoodDark
f 625 626 627 628
f 629 632 631 630
f 625 629 630 626
f 626 630 631 627
f 627 631 632 628
f 628 632 629 625
g lower_front_window_1_frame_mid_v
f 633 634 635 636
f 637 640 639 638
f 633 637 638 634
f 634 638 639 635
f 635 639 640 636
f 636 640 637 633
g lower_front_window_1_frame_l
f 641 642 643 644
f 645 648 647 646
f 641 645 646 642
f 642 646 647 643
f 643 647 648 644
f 644 648 645 641
g lower_front_window_1_frame_r
f 649 650 651 652
f 653 656 655 654
f 649 653 654 650
f 650 654 655 651
f 651 655 656 652
f 652 656 653 649
g lower_front_window_1_sill
f 657 658 659 660
f 661 664 663 662
f 657 661 662 658
f 658 662 663 659
f 659 663 664 660
f 660 664 661 657
g lower_front_window_1_shutter_l
usemtl Mat_WoodWeathered
f 665 666 667 668
f 669 672 671 670
f 665 669 670 666
f 666 670 671 667
f 667 671 672 668
f 668 672 669 665
g lower_front_window_1_shutter_r
f 673 674 675 676
f 677 680 679 678
f 673 677 678 674
f 674 678 679 675
f 675 679 680 676
f 676 680 677 673
