# GalakasMidCity_LWR_W06D05_BrickTavern_01
mtllib GalakasMidCity_LWR_W06D05_BrickTavern_01.mtl
v -6.27500 0.00000 -5.27500
v 6.27500 0.00000 -5.27500
v 6.27500 0.36000 -5.27500
v -6.27500 0.36000 -5.27500
v -6.27500 0.00000 5.27500
v 6.27500 0.00000 5.27500
v 6.27500 0.36000 5.27500
v -6.27500 0.36000 5.27500
v -6.17500 0.36000 -5.17500
v 6.17500 0.36000 -5.17500
v 6.17500 0.72000 -5.17500
v -6.17500 0.72000 -5.17500
v -6.17500 0.36000 5.17500
v 6.17500 0.36000 5.17500
v 6.17500 0.72000 5.17500
v -6.17500 0.72000 5.17500
v -5.89200 0.70000 -5.37000
v -4.90800 0.70000 -5.37000
v -4.90800 0.88000 -5.37000
v -5.89200 0.88000 -5.37000
v -5.89200 0.70000 -5.29000
v -4.90800 0.70000 -5.29000
v -4.90800 0.88000 -5.29000
v -5.89200 0.88000 -5.29000
v -4.69200 0.70000 -5.37000
v -3.70800 0.70000 -5.37000
v -3.70800 0.88000 -5.37000
v -4.69200 0.88000 -5.37000
v -4.69200 0.70000 -5.29000
v -3.70800 0.70000 -5.29000
v -3.70800 0.88000 -5.29000
v -4.69200 0.88000 -5.29000
v -3.49200 0.70000 -5.37000
v -2.50800 0.70000 -5.37000
v -2.50800 0.88000 -5.37000
v -3.49200 0.88000 -5.37000
v -3.49200 0.70000 -5.29000
v -2.50800 0.70000 -5.29000
v -2.50800 0.88000 -5.29000
v -3.49200 0.88000 -5.29000
v -2.29200 0.70000 -5.37000
v -1.30800 0.70000 -5.37000
v -1.30800 0.88000 -5.37000
v -2.29200 0.88000 -5.37000
v -2.29200 0.70000 -5.29000
v -1.30800 0.70000 -5.29000
v -1.30800 0.88000 -5.29000
v -2.29200 0.88000 -5.29000
v -1.09200 0.70000 -5.37000
v -0.10800 0.70000 -5.37000
v -0.10800 0.88000 -5.37000
v -1.09200 0.88000 -5.37000
v -1.09200 0.70000 -5.29000
v -0.10800 0.70000 -5.29000
v -0.10800 0.88000 -5.29000
v -1.09200 0.88000 -5.29000
v 0.10800 0.70000 -5.37000
v 1.09200 0.70000 -5.37000
v 1.09200 0.88000 -5.37000
v 0.10800 0.88000 -5.37000
v 0.10800 0.70000 -5.29000
v 1.09200 0.70000 -5.29000
v 1.09200 0.88000 -5.29000
v 0.10800 0.88000 -5.29000
v 1.30800 0.70000 -5.37000
v 2.29200 0.70000 -5.37000
v 2.29200 0.88000 -5.37000
v 1.30800 0.88000 -5.37000
v 1.30800 0.70000 -5.29000
v 2.29200 0.70000 -5.29000
v 2.29200 0.88000 -5.29000
v 1.30800 0.88000 -5.29000
v 2.50800 0.70000 -5.37000
v 3.49200 0.70000 -5.37000
v 3.49200 0.88000 -5.37000
v 2.50800 0.88000 -5.37000
v 2.50800 0.70000 -5.29000
v 3.49200 0.70000 -5.29000
v 3.49200 0.88000 -5.29000
v 2.50800 0.88000 -5.29000
v 3.70800 0.70000 -5.37000
v 4.69200 0.70000 -5.37000
v 4.69200 0.88000 -5.37000
v 3.70800 0.88000 -5.37000
v 3.70800 0.70000 -5.29000
v 4.69200 0.70000 -5.29000
v 4.69200 0.88000 -5.29000
v 3.70800 0.88000 -5.29000
v 4.90800 0.70000 -5.37000
v 5.89200 0.70000 -5.37000
v 5.89200 0.88000 -5.37000
v 4.90800 0.88000 -5.37000
v 4.90800 0.70000 -5.29000
v 5.89200 0.70000 -5.29000
v 5.89200 0.88000 -5.29000
v 4.90800 0.88000 -5.29000
v -5.89200 0.70000 5.29000
v -4.90800 0.70000 5.29000
v -4.90800 0.88000 5.29000
v -5.89200 0.88000 5.29000
v -5.89200 0.70000 5.37000
v -4.90800 0.70000 5.37000
v -4.90800 0.88000 5.37000
v -5.89200 0.88000 5.37000
v -4.69200 0.70000 5.29000
v -3.70800 0.70000 5.29000
v -3.70800 0.88000 5.29000
v -4.69200 0.88000 5.29000
v -4.69200 0.70000 5.37000
v -3.70800 0.70000 5.37000
v -3.70800 0.88000 5.37000
v -4.69200 0.88000 5.37000
v -3.49200 0.70000 5.29000
v -2.50800 0.70000 5.29000
v -2.50800 0.88000 5.29000
v -3.49200 0.88000 5.29000
v -3.49200 0.70000 5.37000
v -2.50800 0.70000 5.37000
v -2.50800 0.88000 5.37000
v -3.49200 0.88000 5.37000
v -2.29200 0.70000 5.29000
v -1.30800 0.70000 5.29000
v -1.30800 0.88000 5.29000
v -2.29200 0.88000 5.29000
v -2.29200 0.70000 5.37000
v -1.30800 0.70000 5.37000
v -1.30800 0.88000 5.37000
v -2.29200 0.88000 5.37000
v -1.09200 0.70000 5.29000
v -0.10800 0.70000 5.29000
v -0.10800 0.88000 5.29000
v -1.09200 0.88000 5.29000
v -1.09200 0.70000 5.37000
v -0.10800 0.70000 5.37000
v -0.10800 0.88000 5.37000
v -1.09200 0.88000 5.37000
v 0.10800 0.70000 5.29000
v 1.09200 0.70000 5.29000
v 1.09200 0.88000 5.29000
v 0.10800 0.88000 5.29000
v 0.10800 0.70000 5.37000
v 1.09200 0.70000 5.37000
v 1.09200 0.88000 5.37000
v 0.10800 0.88000 5.37000
v 1.30800 0.70000 5.29000
v 2.29200 0.70000 5.29000
v 2.29200 0.88000 5.29000
v 1.30800 0.88000 5.29000
v 1.30800 0.70000 5.37000
v 2.29200 0.70000 5.37000
v 2.29200 0.88000 5.37000
v 1.30800 0.88000 5.37000
v 2.50800 0.70000 5.29000
v 3.49200 0.70000 5.29000
v 3.49200 0.88000 5.29000
v 2.50800 0.88000 5.29000
v 2.50800 0.70000 5.37000
v 3.49200 0.70000 5.37000
v 3.49200 0.88000 5.37000
v 2.50800 0.88000 5.37000
v 3.70800 0.70000 5.29000
v 4.69200 0.70000 5.29000
v 4.69200 0.88000 5.29000
v 3.70800 0.88000 5.29000
v 3.70800 0.70000 5.37000
v 4.69200 0.70000 5.37000
v 4.69200 0.88000 5.37000
v 3.70800 0.88000 5.37000
v 4.90800 0.70000 5.29000
v 5.89200 0.70000 5.29000
v 5.89200 0.88000 5.29000
v 4.90800 0.88000 5.29000
v 4.90800 0.70000 5.37000
v 5.89200 0.70000 5.37000
v 5.89200 0.88000 5.37000
v 4.90800 0.88000 5.37000
v -6.37000 0.70000 -4.88750
v -6.29000 0.70000 -4.88750
v -6.29000 0.88000 -4.88750
v -6.37000 0.88000 -4.88750
v -6.37000 0.70000 -3.86250
v -6.29000 0.70000 -3.86250
v -6.29000 0.88000 -3.86250
v -6.37000 0.88000 -3.86250
v -6.37000 0.70000 -3.63750
v -6.29000 0.70000 -3.63750
v -6.29000 0.88000 -3.63750
v -6.37000 0.88000 -3.63750
v -6.37000 0.70000 -2.61250
v -6.29000 0.70000 -2.61250
v -6.29000 0.88000 -2.61250
v -6.37000 0.88000 -2.61250
v -6.37000 0.70000 -2.38750
v -6.29000 0.70000 -2.38750
v -6.29000 0.88000 -2.38750
v -6.37000 0.88000 -2.38750
v -6.37000 0.70000 -1.36250
v -6.29000 0.70000 -1.36250
v -6.29000 0.88000 -1.36250
v -6.37000 0.88000 -1.36250
v -6.37000 0.70000 -1.13750
v -6.29000 0.70000 -1.13750
v -6.29000 0.88000 -1.13750
v -6.37000 0.88000 -1.13750
v -6.37000 0.70000 -0.11250
v -6.29000 0.70000 -0.11250
v -6.29000 0.88000 -0.11250
v -6.37000 0.88000 -0.11250
v -6.37000 0.70000 0.11250
v -6.29000 0.70000 0.11250
v -6.29000 0.88000 0.11250
v -6.37000 0.88000 0.11250
v -6.37000 0.70000 1.13750
v -6.29000 0.70000 1.13750
v -6.29000 0.88000 1.13750
v -6.37000 0.88000 1.13750
v -6.37000 0.70000 1.36250
v -6.29000 0.70000 1.36250
v -6.29000 0.88000 1.36250
v -6.37000 0.88000 1.36250
v -6.37000 0.70000 2.38750
v -6.29000 0.70000 2.38750
v -6.29000 0.88000 2.38750
v -6.37000 0.88000 2.38750
v -6.37000 0.70000 2.61250
v -6.29000 0.70000 2.61250
v -6.29000 0.88000 2.61250
v -6.37000 0.88000 2.61250
v -6.37000 0.70000 3.63750
v -6.29000 0.70000 3.63750
v -6.29000 0.88000 3.63750
v -6.37000 0.88000 3.63750
v -6.37000 0.70000 3.86250
v -6.29000 0.70000 3.86250
v -6.29000 0.88000 3.86250
v -6.37000 0.88000 3.86250
v -6.37000 0.70000 4.88750
v -6.29000 0.70000 4.88750
v -6.29000 0.88000 4.88750
v -6.37000 0.88000 4.88750
v 6.29000 0.70000 -4.88750
v 6.37000 0.70000 -4.88750
v 6.37000 0.88000 -4.88750
v 6.29000 0.88000 -4.88750
v 6.29000 0.70000 -3.86250
v 6.37000 0.70000 -3.86250
v 6.37000 0.88000 -3.86250
v 6.29000 0.88000 -3.86250
v 6.29000 0.70000 -3.63750
v 6.37000 0.70000 -3.63750
v 6.37000 0.88000 -3.63750
v 6.29000 0.88000 -3.63750
v 6.29000 0.70000 -2.61250
v 6.37000 0.70000 -2.61250
v 6.37000 0.88000 -2.61250
v 6.29000 0.88000 -2.61250
v 6.29000 0.70000 -2.38750
v 6.37000 0.70000 -2.38750
v 6.37000 0.88000 -2.38750
v 6.29000 0.88000 -2.38750
v 6.29000 0.70000 -1.36250
v 6.37000 0.70000 -1.36250
v 6.37000 0.88000 -1.36250
v 6.29000 0.88000 -1.36250
v 6.29000 0.70000 -1.13750
v 6.37000 0.70000 -1.13750
v 6.37000 0.88000 -1.13750
v 6.29000 0.88000 -1.13750
v 6.29000 0.70000 -0.11250
v 6.37000 0.70000 -0.11250
v 6.37000 0.88000 -0.11250
v 6.29000 0.88000 -0.11250
v 6.29000 0.70000 0.11250
v 6.37000 0.70000 0.11250
v 6.37000 0.88000 0.11250
v 6.29000 0.88000 0.11250
v 6.29000 0.70000 1.13750
v 6.37000 0.70000 1.13750
v 6.37000 0.88000 1.13750
v 6.29000 0.88000 1.13750
v 6.29000 0.70000 1.36250
v 6.37000 0.70000 1.36250
v 6.37000 0.88000 1.36250
v 6.29000 0.88000 1.36250
v 6.29000 0.70000 2.38750
v 6.37000 0.70000 2.38750
v 6.37000 0.88000 2.38750
v 6.29000 0.88000 2.38750
v 6.29000 0.70000 2.61250
v 6.37000 0.70000 2.61250
v 6.37000 0.88000 2.61250
v 6.29000 0.88000 2.61250
v 6.29000 0.70000 3.63750
v 6.37000 0.70000 3.63750
v 6.37000 0.88000 3.63750
v 6.29000 0.88000 3.63750
v 6.29000 0.70000 3.86250
v 6.37000 0.70000 3.86250
v 6.37000 0.88000 3.86250
v 6.29000 0.88000 3.86250
v 6.29000 0.70000 4.88750
v 6.37000 0.70000 4.88750
v 6.37000 0.88000 4.88750
v 6.29000 0.88000 4.88750
v -6.00000 0.72000 -5.18000
v -1.37500 0.72000 -5.18000
v -1.37500 5.52000 -5.18000
v -6.00000 5.52000 -5.18000
v -6.00000 0.72000 -5.00000
v -1.37500 0.72000 -5.00000
v -1.37500 5.52000 -5.00000
v -6.00000 5.52000 -5.00000
v 1.37500 0.72000 -5.18000
v 6.00000 0.72000 -5.18000
v 6.00000 5.52000 -5.18000
v 1.37500 5.52000 -5.18000
v 1.37500 0.72000 -5.00000
v 6.00000 0.72000 -5.00000
v 6.00000 5.52000 -5.00000
v 1.37500 5.52000 -5.00000
v -1.37500 4.07000 -5.18000
v 1.37500 4.07000 -5.18000
v 1.37500 5.07000 -5.18000
v -1.37500 5.07000 -5.18000
v -1.37500 4.07000 -5.00000
v 1.37500 4.07000 -5.00000
v 1.37500 5.07000 -5.00000
v -1.37500 5.07000 -5.00000
v -0.92500 0.90000 -5.28000
v 0.92500 0.90000 -5.28000
v 0.92500 4.25000 -5.28000
v -0.92500 4.25000 -5.28000
v -0.92500 0.90000 -5.12000
v 0.92500 0.90000 -5.12000
v 0.92500 4.25000 -5.12000
v -0.92500 4.25000 -5.12000
v -0.87320 1.00050 -5.31000
v -0.60680 1.00050 -5.31000
v -0.60680 4.14950 -5.31000
v -0.87320 4.14950 -5.31000
v -0.87320 1.00050 -5.27000
v -0.60680 1.00050 -5.27000
v -0.60680 4.14950 -5.27000
v -0.87320 4.14950 -5.27000
v -0.50320 1.00050 -5.31000
v -0.23680 1.00050 -5.31000
v -0.23680 4.14950 -5.31000
v -0.50320 4.14950 -5.31000
v -0.50320 1.00050 -5.27000
v -0.23680 1.00050 -5.27000
v -0.23680 4.14950 -5.27000
v -0.50320 4.14950 -5.27000
v -0.13320 1.00050 -5.31000
v 0.13320 1.00050 -5.31000
v 0.13320 4.14950 -5.31000
v -0.13320 4.14950 -5.31000
v -0.13320 1.00050 -5.27000
v 0.13320 1.00050 -5.27000
v 0.13320 4.14950 -5.27000
v -0.13320 4.14950 -5.27000
v 0.23680 1.00050 -5.31000
v 0.50320 1.00050 -5.31000
v 0.50320 4.14950 -5.31000
v 0.23680 4.14950 -5.31000
v 0.23680 1.00050 -5.27000
v 0.50320 1.00050 -5.27000
v 0.50320 4.14950 -5.27000
v 0.23680 4.14950 -5.27000
v 0.60680 1.00050 -5.31000
v 0.87320 1.00050 -5.31000
v 0.87320 4.14950 -5.31000
v 0.60680 4.14950 -5.31000
v 0.60680 1.00050 -5.27000
v 0.87320 1.00050 -5.27000
v 0.87320 4.14950 -5.27000
v 0.60680 4.14950 -5.27000
v -1.12500 0.74000 -5.36000
v -0.94500 0.74000 -5.36000
v -0.94500 4.41000 -5.36000
v -1.12500 4.41000 -5.36000
v -1.12500 0.74000 -5.08000
v -0.94500 0.74000 -5.08000
v -0.94500 4.41000 -5.08000
v -1.12500 4.41000 -5.08000
v 0.94500 0.74000 -5.36000
v 1.12500 0.74000 -5.36000
v 1.12500 4.41000 -5.36000
v 0.94500 4.41000 -5.36000
v 0.94500 0.74000 -5.08000
v 1.12500 0.74000 -5.08000
v 1.12500 4.41000 -5.08000
v 0.94500 4.41000 -5.08000
v -1.20000 4.25000 -5.36000
v 1.20000 4.25000 -5.36000
v 1.20000 4.47000 -5.36000
v -1.20000 4.47000 -5.36000
v -1.20000 4.25000 -5.08000
v 1.20000 4.25000 -5.08000
v 1.20000 4.47000 -5.08000
v -1.20000 4.47000 -5.08000
v -0.79550 1.65000 -5.39000
v 0.79550 1.65000 -5.39000
v 0.79550 1.75000 -5.39000
v -0.79550 1.75000 -5.39000
v -0.79550 1.65000 -5.31000
v 0.79550 1.65000 -5.31000
v 0.79550 1.75000 -5.31000
v -0.79550 1.75000 -5.31000
v -0.79550 2.59200 -5.39000
v 0.79550 2.59200 -5.39000
v 0.79550 2.69200 -5.39000
v -0.79550 2.69200 -5.39000
v -0.79550 2.59200 -5.31000
v 0.79550 2.59200 -5.31000
v 0.79550 2.69200 -5.31000
v -0.79550 2.69200 -5.31000
v -0.79550 3.65000 -5.39000
v 0.79550 3.65000 -5.39000
v 0.79550 3.75000 -5.39000
v -0.79550 3.75000 -5.39000
v -0.79550 3.65000 -5.31000
v 0.79550 3.65000 -5.31000
v 0.79550 3.75000 -5.31000
v -0.79550 3.75000 -5.31000
v -1.16500 1.57000 -5.44500
v -1.16500 2.13000 -5.44500
v -1.19750 1.57000 -5.43629
v -1.19750 2.13000 -5.43629
v -1.22129 1.57000 -5.41250
v -1.22129 2.13000 -5.41250
v -1.23000 1.57000 -5.38000
v -1.23000 2.13000 -5.38000
v -1.22129 1.57000 -5.34750
v -1.22129 2.13000 -5.34750
v -1.19750 1.57000 -5.32371
v -1.19750 2.13000 -5.32371
v -1.16500 1.57000 -5.31500
v -1.16500 2.13000 -5.31500
v -1.13250 1.57000 -5.32371
v -1.13250 2.13000 -5.32371
v -1.10871 1.57000 -5.34750
v -1.10871 2.13000 -5.34750
v -1.10000 1.57000 -5.38000
v -1.10000 2.13000 -5.38000
v -1.10871 1.57000 -5.41250
v -1.10871 2.13000 -5.41250
v -1.13250 1.57000 -5.43629
v -1.13250 2.13000 -5.43629
v -1.16500 3.17000 -5.44500
v -1.16500 3.73000 -5.44500
v -1.19750 3.17000 -5.43629
v -1.19750 3.73000 -5.43629
v -1.22129 3.17000 -5.41250
v -1.22129 3.73000 -5.41250
v -1.23000 3.17000 -5.38000
v -1.23000 3.73000 -5.38000
v -1.22129 3.17000 -5.34750
v -1.22129 3.73000 -5.34750
v -1.19750 3.17000 -5.32371
v -1.19750 3.73000 -5.32371
v -1.16500 3.17000 -5.31500
v -1.16500 3.73000 -5.31500
v -1.13250 3.17000 -5.32371
v -1.13250 3.73000 -5.32371
v -1.10871 3.17000 -5.34750
v -1.10871 3.73000 -5.34750
v -1.10000 3.17000 -5.38000
v -1.10000 3.73000 -5.38000
v -1.10871 3.17000 -5.41250
v -1.10871 3.73000 -5.41250
v -1.13250 3.17000 -5.43629
v -1.13250 3.73000 -5.43629
v 0.55500 2.72200 -5.42000
v 0.55500 2.72200 -5.42000
v 0.55500 2.72200 -5.42000
v 0.55500 2.72200 -5.42000
v 0.55500 2.72200 -5.42000
v 0.55500 2.72200 -5.42000
v 0.55500 2.72200 -5.42000
v 0.55500 2.72200 -5.42000
v 0.55500 2.72200 -5.42000
v 0.55500 2.72200 -5.42000
v 0.55500 2.72200 -5.42000
v 0.55500 2.72200 -5.42000
v 0.60202 2.70672 -5.42000
v 0.59572 2.70672 -5.39649
v 0.57851 2.70672 -5.37928
v 0.55500 2.70672 -5.37298
v 0.53149 2.70672 -5.37928
v 0.51428 2.70672 -5.39649
v 0.50798 2.70672 -5.42000
v 0.51428 2.70672 -5.44351
v 0.53149 2.70672 -5.46072
v 0.55500 2.70672 -5.46702
v 0.57851 2.70672 -5.46072
v 0.59572 2.70672 -5.44351
v 0.63108 2.66672 -5.42000
v 0.62089 2.66672 -5.38196
v 0.59304 2.66672 -5.35411
v 0.55500 2.66672 -5.34392
v 0.51696 2.66672 -5.35411
v 0.48911 2.66672 -5.38196
v 0.47892 2.66672 -5.42000
v 0.48911 2.66672 -5.45804
v 0.51696 2.66672 -5.48589
v 0.55500 2.66672 -5.49608
v 0.59304 2.66672 -5.48589
v 0.62089 2.66672 -5.45804
v 0.63108 2.61728 -5.42000
v 0.62089 2.61728 -5.38196
v 0.59304 2.61728 -5.35411
v 0.55500 2.61728 -5.34392
v 0.51696 2.61728 -5.35411
v 0.48911 2.61728 -5.38196
v 0.47892 2.61728 -5.42000
v 0.48911 2.61728 -5.45804
v 0.51696 2.61728 -5.48589
v 0.55500 2.61728 -5.49608
v 0.59304 2.61728 -5.48589
v 0.62089 2.61728 -5.45804
v 0.60202 2.57728 -5.42000
v 0.59572 2.57728 -5.39649
v 0.57851 2.57728 -5.37928
v 0.55500 2.57728 -5.37298
v 0.53149 2.57728 -5.37928
v 0.51428 2.57728 -5.39649
v 0.50798 2.57728 -5.42000
v 0.51428 2.57728 -5.44351
v 0.53149 2.57728 -5.46072
v 0.55500 2.57728 -5.46702
v 0.57851 2.57728 -5.46072
v 0.59572 2.57728 -5.44351
v 0.55500 2.56200 -5.42000
v 0.55500 2.56200 -5.42000
v 0.55500 2.56200 -5.42000
v 0.55500 2.56200 -5.42000
v 0.55500 2.56200 -5.42000
v 0.55500 2.56200 -5.42000
v 0.55500 2.56200 -5.42000
v 0.55500 2.56200 -5.42000
v 0.55500 2.56200 -5.42000
v 0.55500 2.56200 -5.42000
v 0.55500 2.56200 -5.42000
v 0.55500 2.56200 -5.42000
v -6.00000 0.72000 5.00000
v 6.00000 0.72000 5.00000
v 6.00000 5.52000 5.00000
v -6.00000 5.52000 5.00000
v -6.00000 0.72000 5.18000
v 6.00000 0.72000 5.18000
v 6.00000 5.52000 5.18000
v -6.00000 5.52000 5.18000
v -6.18000 0.72000 -5.00000
v -6.00000 0.72000 -5.00000
v -6.00000 5.52000 -5.00000
v -6.18000 5.52000 -5.00000
v -6.18000 0.72000 5.00000
v -6.00000 0.72000 5.00000
v -6.00000 5.52000 5.00000
v -6.18000 5.52000 5.00000
v 6.00000 0.72000 -5.00000
v 6.18000 0.72000 -5.00000
v 6.18000 5.52000 -5.00000
v 6.00000 5.52000 -5.00000
v 6.00000 0.72000 5.00000
v 6.18000 0.72000 5.00000
v 6.18000 5.52000 5.00000
v 6.00000 5.52000 5.00000
v -6.00000 0.72000 -5.00000
v 6.00000 0.72000 -5.00000
v 6.00000 0.82000 -5.00000
v -6.00000 0.82000 -5.00000
v -6.00000 0.72000 5.00000
v 6.00000 0.72000 5.00000
v 6.00000 0.82000 5.00000
v -6.00000 0.82000 5.00000
v -6.00000 5.42000 -5.00000
v 6.00000 5.42000 -5.00000
v 6.00000 5.52000 -5.00000
v -6.00000 5.52000 -5.00000
v -6.00000 5.42000 5.00000
v 6.00000 5.42000 5.00000
v 6.00000 5.52000 5.00000
v -6.00000 5.52000 5.00000
v -6.11000 0.82000 -5.26000
v 6.11000 0.82000 -5.26000
v 6.11000 0.98000 -5.26000
v -6.11000 0.98000 -5.26000
v -6.11000 0.82000 -5.12000
v 6.11000 0.82000 -5.12000
v 6.11000 0.98000 -5.12000
v -6.11000 0.98000 -5.12000
v -6.11000 0.82000 5.12000
v 6.11000 0.82000 5.12000
v 6.11000 0.98000 5.12000
v -6.11000 0.98000 5.12000
v -6.11000 0.82000 5.26000
v 6.11000 0.82000 5.26000
v 6.11000 0.98000 5.26000
v -6.11000 0.98000 5.26000
v -6.11000 5.26000 -5.26000
v 6.11000 5.26000 -5.26000
v 6.11000 5.42000 -5.26000
v -6.11000 5.42000 -5.26000
v -6.11000 5.26000 -5.12000
v 6.11000 5.26000 -5.12000
v 6.11000 5.42000 -5.12000
v -6.11000 5.42000 -5.12000
v -6.11000 5.26000 5.12000
v 6.11000 5.26000 5.12000
v 6.11000 5.42000 5.12000
v -6.11000 5.42000 5.12000
v -6.11000 5.26000 5.26000
v 6.11000 5.26000 5.26000
v 6.11000 5.42000 5.26000
v -6.11000 5.42000 5.26000
v -5.96000 0.72000 -5.29000
v -5.80000 0.72000 -5.29000
v -5.80000 5.52000 -5.29000
v -5.96000 5.52000 -5.29000
v -5.96000 0.72000 -5.13000
v -5.80000 0.72000 -5.13000
v -5.80000 5.52000 -5.13000
v -5.96000 5.52000 -5.13000
v 5.80000 0.72000 -5.29000
v 5.96000 0.72000 -5.29000
v 5.96000 5.52000 -5.29000
v 5.80000 5.52000 -5.29000
v 5.80000 0.72000 -5.13000
v 5.96000 0.72000 -5.13000
v 5.96000 5.52000 -5.13000
v 5.80000 5.52000 -5.13000
v -3.08000 0.72000 -5.29000
v -2.92000 0.72000 -5.29000
v -2.92000 5.52000 -5.29000
v -3.08000 5.52000 -5.29000
v -3.08000 0.72000 -5.13000
v -2.92000 0.72000 -5.13000
v -2.92000 5.52000 -5.13000
v -3.08000 5.52000 -5.13000
v 2.92000 0.72000 -5.29000
v 3.08000 0.72000 -5.29000
v 3.08000 5.52000 -5.29000
v 2.92000 5.52000 -5.29000
v 2.92000 0.72000 -5.13000
v 3.08000 0.72000 -5.13000
v 3.08000 5.52000 -5.13000
v 2.92000 5.52000 -5.13000
v -5.96000 0.72000 5.13000
v -5.80000 0.72000 5.13000
v -5.80000 5.52000 5.13000
v -5.96000 5.52000 5.13000
v -5.96000 0.72000 5.29000
v -5.80000 0.72000 5.29000
v -5.80000 5.52000 5.29000
v -5.96000 5.52000 5.29000
v 5.80000 0.72000 5.13000
v 5.96000 0.72000 5.13000
v 5.96000 5.52000 5.13000
v 5.80000 5.52000 5.13000
v 5.80000 0.72000 5.29000
v 5.96000 0.72000 5.29000
v 5.96000 5.52000 5.29000
v 5.80000 5.52000 5.29000
v -4.60500 2.64500 -5.28000
v -3.55500 2.64500 -5.28000
v -3.55500 3.89500 -5.28000
v -4.60500 3.89500 -5.28000
v -4.60500 2.64500 -5.20000
v -3.55500 2.64500 -5.20000
v -3.55500 3.89500 -5.20000
v -4.60500 3.89500 -5.20000
v -4.70500 3.21000 -5.38000
v -3.45500 3.21000 -5.38000
v -3.45500 3.33000 -5.38000
v -4.70500 3.33000 -5.38000
v -4.70500 3.21000 -5.22000
v -3.45500 3.21000 -5.22000
v -3.45500 3.33000 -5.22000
v -4.70500 3.33000 -5.22000
v -4.14000 2.54500 -5.38000
v -4.02000 2.54500 -5.38000
v -4.02000 3.99500 -5.38000
v -4.14000 3.99500 -5.38000
v -4.14000 2.54500 -5.22000
v -4.02000 2.54500 -5.22000
v -4.02000 3.99500 -5.22000
v -4.14000 3.99500 -5.22000
v -4.76500 2.54500 -5.38000
v -4.64500 2.54500 -5.38000
v -4.64500 3.99500 -5.38000
v -4.76500 3.99500 -5.38000
v -4.76500 2.54500 -5.22000
v -4.64500 2.54500 -5.22000
v -4.64500 3.99500 -5.22000
v -4.76500 3.99500 -5.22000
v -3.51500 2.54500 -5.38000
v -3.39500 2.54500 -5.38000
v -3.39500 3.99500 -5.38000
v -3.51500 3.99500 -5.38000
v -3.51500 2.54500 -5.22000
v -3.39500 2.54500 -5.22000
v -3.39500 3.99500 -5.22000
v -3.51500 3.99500 -5.22000
v -4.74500 2.45500 -5.42000
v -3.41500 2.45500 -5.42000
v -3.41500 2.59500 -5.42000
v -4.74500 2.59500 -5.42000
v -4.74500 2.45500 -5.18000
v -3.41500 2.45500 -5.18000
v -3.41500 2.59500 -5.18000
v -4.74500 2.59500 -5.18000
v -5.01650 2.69500 -5.40000
v -4.67650 2.69500 -5.40000
v -4.67650 3.84500 -5.40000
v -5.01650 3.84500 -5.40000
v -5.01650 2.69500 -5.32000
v -4.67650 2.69500 -5.32000
v -4.67650 3.84500 -5.32000
v -5.01650 3.84500 -5.32000
v -3.48350 2.69500 -5.40000
v -3.14350 2.69500 -5.40000
v -3.14350 3.84500 -5.40000
v -3.48350 3.84500 -5.40000
v -3.48350 2.69500 -5.32000
v -3.14350 2.69500 -5.32000
v -3.14350 3.84500 -5.32000
v -3.48350 3.84500 -5.32000
v 3.55500 2.64500 -5.28000
v 4.60500 2.64500 -5.28000
v 4.60500 3.89500 -5.28000
v 3.55500 3.89500 -5.28000
v 3.55500 2.64500 -5.20000
v 4.60500 2.64500 -5.20000
v 4.60500 3.89500 -5.20000
v 3.55500 3.89500 -5.20000
v 3.45500 3.21000 -5.38000
v 4.70500 3.21000 -5.38000
v 4.70500 3.33000 -5.38000
v 3.45500 3.33000 -5.38000
v 3.45500 3.21000 -5.22000
v 4.70500 3.21000 -5.22000
v 4.70500 3.33000 -5.22000
v 3.45500 3.33000 -5.22000
v 4.02000 2.54500 -5.38000
v 4.14000 2.54500 -5.38000
v 4.14000 3.99500 -5.38000
v 4.02000 3.99500 -5.38000
v 4.02000 2.54500 -5.22000
v 4.14000 2.54500 -5.22000
v 4.14000 3.99500 -5.22000
v 4.02000 3.99500 -5.22000
v 3.39500 2.54500 -5.38000
v 3.51500 2.54500 -5.38000
v 3.51500 3.99500 -5.38000
v 3.39500 3.99500 -5.38000
v 3.39500 2.54500 -5.22000
v 3.51500 2.54500 -5.22000
v 3.51500 3.99500 -5.22000
v 3.39500 3.99500 -5.22000
v 4.64500 2.54500 -5.38000
v 4.76500 2.54500 -5.38000
v 4.76500 3.99500 -5.38000
v 4.64500 3.99500 -5.38000
v 4.64500 2.54500 -5.22000
v 4.76500 2.54500 -5.22000
v 4.76500 3.99500 -5.22000
v 4.64500 3.99500 -5.22000
v 3.41500 2.45500 -5.42000
v 4.74500 2.45500 -5.42000
v 4.74500 2.59500 -5.42000
v 3.41500 2.59500 -5.42000
v 3.41500 2.45500 -5.18000
v 4.74500 2.45500 -5.18000
v 4.74500 2.59500 -5.18000
v 3.41500 2.59500 -5.18000
v 3.14350 2.69500 -5.40000
v 3.48350 2.69500 -5.40000
v 3.48350 3.84500 -5.40000
v 3.14350 3.84500 -5.40000
v 3.14350 2.69500 -5.32000
v 3.48350 2.69500 -5.32000
v 3.48350 3.84500 -5.32000
v 3.14350 3.84500 -5.32000
v 4.67650 2.69500 -5.40000
v 5.01650 2.69500 -5.40000
v 5.01650 3.84500 -5.40000
v 4.67650 3.84500 -5.40000
v 4.67650 2.69500 -5.32000
v 5.01650 2.69500 -5.32000
v 5.01650 3.84500 -5.32000
v 4.67650 3.84500 -5.32000
g stone_plinth_base
usemtl Mat_StoneFoundation
f 1 2 3 4
f 5 8 7 6
f 1 5 6 2
f 2 6 7 3
f 3 7 8 4
f 4 8 5 1
g stone_plinth_raised
f 9 10 11 12
f 13 16 15 14
f 9 13 14 10
f 10 14 15 11
f 11 15 16 12
f 12 16 13 9
g stone_block_front_0
f 17 18 19 20
f 21 24 23 22
f 17 21 22 18
f 18 22 23 19
f 19 23 24 20
f 20 24 21 17
g stone_block_front_1
f 25 26 27 28
f 29 32 31 30
f 25 29 30 26
f 26 30 31 27
f 27 31 32 28
f 28 32 29 25
g stone_block_front_2
f 33 34 35 36
f 37 40 39 38
f 33 37 38 34
f 34 38 39 35
f 35 39 40 36
f 36 40 37 33
g stone_block_front_3
f 41 42 43 44
f 45 48 47 46
f 41 45 46 42
f 42 46 47 43
f 43 47 48 44
f 44 48 45 41
g stone_block_front_4
f 49 50 51 52
f 53 56 55 54
f 49 53 54 50
f 50 54 55 51
f 51 55 56 52
f 52 56 53 49
g stone_block_front_5
f 57 58 59 60
f 61 64 63 62
f 57 61 62 58
f 58 62 63 59
f 59 63 64 60
f 60 64 61 57
g stone_block_front_6
f 65 66 67 68
f 69 72 71 70
f 65 69 70 66
f 66 70 71 67
f 67 71 72 68
f 68 72 69 65
g stone_block_front_7
f 73 74 75 76
f 77 80 79 78
f 73 77 78 74
f 74 78 79 75
f 75 79 80 76
f 76 80 77 73
g stone_block_front_8
f 81 82 83 84
f 85 88 87 86
f 81 85 86 82
f 82 86 87 83
f 83 87 88 84
f 84 88 85 81
g stone_block_front_9
f 89 90 91 92
f 93 96 95 94
f 89 93 94 90
f 90 94 95 91
f 91 95 96 92
f 92 96 93 89
g stone_block_back_0
f 97 98 99 100
f 101 104 103 102
f 97 101 102 98
f 98 102 103 99
f 99 103 104 100
f 100 104 101 97
g stone_block_back_1
f 105 106 107 108
f 109 112 111 110
f 105 109 110 106
f 106 110 111 107
f 107 111 112 108
f 108 112 109 105
g stone_block_back_2
f 113 114 115 116
f 117 120 119 118
f 113 117 118 114
f 114 118 119 115
f 115 119 120 116
f 116 120 117 113
g stone_block_back_3
f 121 122 123 124
f 125 128 127 126
f 121 125 126 122
f 122 126 127 123
f 123 127 128 124
f 124 128 125 121
g stone_block_back_4
f 129 130 131 132
f 133 136 135 134
f 129 133 134 130
f 130 134 135 131
f 131 135 136 132
f 132 136 133 129
g stone_block_back_5
f 137 138 139 140
f 141 144 143 142
f 137 141 142 138
f 138 142 143 139
f 139 143 144 140
f 140 144 141 137
g stone_block_back_6
f 145 146 147 148
f 149 152 151 150
f 145 149 150 146
f 146 150 151 147
f 147 151 152 148
f 148 152 149 145
g stone_block_back_7
f 153 154 155 156
f 157 160 159 158
f 153 157 158 154
f 154 158 159 155
f 155 159 160 156
f 156 160 157 153
g stone_block_back_8
f 161 162 163 164
f 165 168 167 166
f 161 165 166 162
f 162 166 167 163
f 163 167 168 164
f 164 168 165 161
g stone_block_back_9
f 169 170 171 172
f 173 176 175 174
f 169 173 174 170
f 170 174 175 171
f 171 175 176 172
f 172 176 173 169
g stone_block_left_0
f 177 178 179 180
f 181 184 183 182
f 177 181 182 178
f 178 182 183 179
f 179 183 184 180
f 180 184 181 177
g stone_block_left_1
f 185 186 187 188
f 189 192 191 190
f 185 189 190 186
f 186 190 191 187
f 187 191 192 188
f 188 192 189 185
g stone_block_left_2
f 193 194 195 196
f 197 200 199 198
f 193 197 198 194
f 194 198 199 195
f 195 199 200 196
f 196 200 197 193
g stone_block_left_3
f 201 202 203 204
f 205 208 207 206
f 201 205 206 202
f 202 206 207 203
f 203 207 208 204
f 204 208 205 201
g stone_block_left_4
f 209 210 211 212
f 213 216 215 214
f 209 213 214 210
f 210 214 215 211
f 211 215 216 212
f 212 216 213 209
g stone_block_left_5
f 217 218 219 220
f 221 224 223 222
f 217 221 222 218
f 218 222 223 219
f 219 223 224 220
f 220 224 221 217
g stone_block_left_6
f 225 226 227 228
f 229 232 231 230
f 225 229 230 226
f 226 230 231 227
f 227 231 232 228
f 228 232 229 225
g stone_block_left_7
f 233 234 235 236
f 237 240 239 238
f 233 237 238 234
f 234 238 239 235
f 235 239 240 236
f 236 240 237 233
g stone_block_right_0
f 241 242 243 244
f 245 248 247 246
f 241 245 246 242
f 242 246 247 243
f 243 247 248 244
f 244 248 245 241
g stone_block_right_1
f 249 250 251 252
f 253 256 255 254
f 249 253 254 250
f 250 254 255 251
f 251 255 256 252
f 252 256 253 249
g stone_block_right_2
f 257 258 259 260
f 261 264 263 262
f 257 261 262 258
f 258 262 263 259
f 259 263 264 260
f 260 264 261 257
g stone_block_right_3
f 265 266 267 268
f 269 272 271 270
f 265 269 270 266
f 266 270 271 267
f 267 271 272 268
f 268 272 269 265
g stone_block_right_4
f 273 274 275 276
f 277 280 279 278
f 273 277 278 274
f 274 278 279 275
f 275 279 280 276
f 276 280 277 273
g stone_block_right_5
f 281 282 283 284
f 285 288 287 286
f 281 285 286 282
f 282 286 287 283
f 283 287 288 284
f 284 288 285 281
g stone_block_right_6
f 289 290 291 292
f 293 296 295 294
f 289 293 294 290
f 290 294 295 291
f 291 295 296 292
f 292 296 293 289
g stone_block_right_7
f 297 298 299 300
f 301 304 303 302
f 297 301 302 298
f 298 302 303 299
f 299 303 304 300
f 300 304 301 297
g lower_front_left_wall
usemtl Mat_BrickWall
f 305 306 307 308
f 309 312 311 310
f 305 309 310 306
f 306 310 311 307
f 307 311 312 308
f 308 312 309 305
g lower_front_right_wall
f 313 314 315 316
f 317 320 319 318
f 313 317 318 314
f 314 318 319 315
f 315 319 320 316
f 316 320 317 313
g lower_front_above_door
f 321 322 323 324
f 325 328 327 326
f 321 325 326 322
f 322 326 327 323
f 323 327 328 324
f 324 328 325 321
g lower_main_door_slab
usemtl Mat_WoodDark
f 329 330 331 332
f 333 336 335 334
f 329 333 334 330
f 330 334 335 331
f 331 335 336 332
f 332 336 333 329
g lower_main_door_plank_0
usemtl Mat_WoodWeathered
f 337 338 339 340
f 341 344 343 342
f 337 341 342 338
f 338 342 343 339
f 339 343 344 340
f 340 344 341 337
g lower_main_door_plank_1
f 345 346 347 348
f 349 352 351 350
f 345 349 350 346
f 346 350 351 347
f 347 351 352 348
f 348 352 349 345
g lower_main_door_plank_2
f 353 354 355 356
f 357 360 359 358
f 353 357 358 354
f 354 358 359 355
f 355 359 360 356
f 356 360 357 353
g lower_main_door_plank_3
f 361 362 363 364
f 365 368 367 366
f 361 365 366 362
f 362 366 367 363
f 363 367 368 364
f 364 368 365 361
g lower_main_door_plank_4
f 369 370 371 372
f 373 376 375 374
f 369 373 374 370
f 370 374 375 371
f 371 375 376 372
f 372 376 373 369
g lower_main_door_frame_l
usemtl Mat_WoodDark
f 377 378 379 380
f 381 384 383 382
f 377 381 382 378
f 378 382 383 379
f 379 383 384 380
f 380 384 381 377
g lower_main_door_frame_r
f 385 386 387 388
f 389 392 391 390
f 385 389 390 386
f 386 390 391 387
f 387 391 392 388
f 388 392 389 385
g lower_main_door_lintel
f 393 394 395 396
f 397 400 399 398
f 393 397 398 394
f 394 398 399 395
f 395 399 400 396
f 396 400 397 393
g lower_main_door_band_0
usemtl Mat_MetalDark
f 401 402 403 404
f 405 408 407 406
f 401 405 406 402
f 402 406 407 403
f 403 407 408 404
f 404 408 405 401
g lower_main_door_band_1
f 409 410 411 412
f 413 416 415 414
f 409 413 414 410
f 410 414 415 411
f 411 415 416 412
f 412 416 413 409
g lower_main_door_band_2
f 417 418 419 420
f 421 424 423 422
f 417 421 422 418
f 418 422 423 419
f 419 423 424 420
f 420 424 421 417
g lower_main_door_hinge_pin_0
f 425 427 428 426
f 427 429 430 428
f 429 431 432 430
f 431 433 434 432
f 433 435 436 434
f 435 437 438 436
f 437 439 440 438
f 439 441 442 440
f 441 443 444 442
f 443 445 446 444
f 445 447 448 446
f 447 425 426 448
g lower_main_door_hinge_pin_0_capA
f 447 445 443 441 439 437 435 433 431 429 427 425
g lower_main_door_hinge_pin_0_capB
f 426 428 430 432 434 436 438 440 442 444 446 448
g lower_main_door_hinge_pin_1
f 449 451 452 450
f 451 453 454 452
f 453 455 456 454
f 455 457 458 456
f 457 459 460 458
f 459 461 462 460
f 461 463 464 462
f 463 465 466 464
f 465 467 468 466
f 467 469 470 468
f 469 471 472 470
f 471 449 450 472
g lower_main_door_hinge_pin_1_capA
f 471 469 467 465 463 461 459 457 455 453 451 449
g lower_main_door_hinge_pin_1_capB
f 450 452 454 456 458 460 462 464 466 468 470 472
g lower_main_door_knob
f 473 474 486 485
f 474 475 487 486
f 475 476 488 487
f 476 477 489 488
f 477 478 490 489
f 478 479 491 490
f 479 480 492 491
f 480 481 493 492
f 481 482 494 493
f 482 483 495 494
f 483 484 496 495
f 484 473 485 496
f 485 486 498 497
f 486 487 499 498
f 487 488 500 499
f 488 489 501 500
f 489 490 502 501
f 490 491 503 502
f 491 492 504 503
f 492 493 505 504
f 493 494 506 505
f 494 495 507 506
f 495 496 508 507
f 496 485 497 508
f 497 498 510 509
f 498 499 511 510
f 499 500 512 511
f 500 501 513 512
f 501 502 514 513
f 502 503 515 514
f 503 504 516 515
f 504 505 517 516
f 505 506 518 517
f 506 507 519 518
f 507 508 520 519
f 508 497 509 520
f 509 510 522 521
f 510 511 523 522
f 511 512 524 523
f 512 513 525 524
f 513 514 526 525
f 514 515 527 526
f 515 516 528 527
f 516 517 529 528
f 517 518 530 529
f 518 519 531 530
f 519 520 532 531
f 520 509 521 532
f 521 522 534 533
f 522 523 535 534
f 523 524 536 535
f 524 525 537 536
f 525 526 538 537
f 526 527 539 538
f 527 528 540 539
f 528 529 541 540
f 529 530 542 541
f 530 531 543 542
f 531 532 544 543
f 532 521 533 544
g lower_back_wall
usemtl Mat_BrickWall
f 545 546 547 548
f 549 552 551 550
f 545 549 550 546
f 546 550 551 547
f 547 551 552 548
f 548 552 549 545
g lower_left_wall
f 553 554 555 556
f 557 560 559 558
f 553 557 558 554
f 554 558 559 555
f 555 559 560 556
f 556 560 557 553
g lower_right_wall
f 561 562 563 564
f 565 568 567 566
f 561 565 566 562
f 562 566 567 563
f 563 567 568 564
f 564 568 565 561
g lower_floor_cap
usemtl Mat_WoodDark
f 569 570 571 572
f 573 576 575 574
f 569 573 574 570
f 570 574 575 571
f 571 575 576 572
f 572 576 573 569
g lower_ceiling_cap
f 577 578 579 580
f 581 584 583 582
f 577 581 582 578
f 578 582 583 579
f 579 583 584 580
f 580 584 581 577
g lower_front_course_89
f 585 586 587 588
f 589 592 591 590
f 585 589 590 586
f 586 590 591 587
f 587 591 592 588
f 588 592 589 585
g lower_back_course_89
f 593 594 595 596
f 597 600 599 598
f 593 597 598 594
f 594 598 599 595
f 595 599 600 596
f 596 600 597 593
g lower_front_course_534
f 601 602 603 604
f 605 608 607 606
f 601 605 606 602
f 602 606 607 603
f 603 607 608 604
f 604 608 605 601
g lower_back_course_534
f 609 610 611 612
f 613 616 615 614
f 609 613 614 610
f 610 614 615 611
f 611 615 616 612
f 612 616 613 609
g lower_front_post_-5_9
f 617 618 619 620
f 621 624 623 622
f 617 621 622 618
f 618 622 623 619
f 619 623 624 620
f 620 624 621 617
g lower_front_post_5_9
f 625 626 627 628
f 629 632 631 630
f 625 629 630 626
f 626 630 631 627
f 627 631 632 628
f 628 632 629 625
g lower_front_post_-3_0
f 633 634 635 636
f 637 640 639 638
f 633 637 638 634
f 634 638 639 635
f 635 639 640 636
f 636 640 637 633
g lower_front_post_3_0
f 641 642 643 644
f 645 648 647 646
f 641 645 646 642
f 642 646 647 643
f 643 647 648 644
f 644 648 645 641
g lower_back_post_-5_9
f 649 650 651 652
f 653 656 655 654
f 649 653 654 650
f 650 654 655 651
f 651 655 656 652
f 652 656 653 649
g lower_back_post_5_9
f 657 658 659 660
f 661 664 663 662
f 657 661 662 658
f 658 662 663 659
f 659 663 664 660
f 660 664 661 657
g lower_front_window_0_glass
usemtl Mat_GlassDirty
f 665 666 667 668
f 669 672 671 670
f 665 669 670 666
f 666 670 671 667
f 667 671 672 668
f 668 672 669 665
g lower_front_window_0_frame_top
usemtl Mat_WoodDark
f 673 674 675 676
f 677 680 679 678
f 673 677 678 674
f 674 678 679 675
f 675 679 680 676
f 676 680 677 673
g lower_front_window_0_frame_mid_v
f 681 682 683 684
f 685 688 687 686
f 681 685 686 682
f 682 686 687 683
f 683 687 688 684
f 684 688 685 681
g lower_front_window_0_frame_l
f 689 690 691 692
f 693 696 695 694
f 689 693 694 690
f 690 694 695 691
f 691 695 696 692
f 692 696 693 689
g lower_front_window_0_frame_r
f 697 698 699 700
f 701 704 703 702
f 697 701 702 698
f 698 702 703 699
f 699 703 704 700
f 700 704 701 697
g lower_front_window_0_sill
f 705 706 707 708
f 709 712 711 710
f 705 709 710 706
f 706 710 711 707
f 707 711 712 708
f 708 712 709 705
g lower_front_window_0_shutter_l
usemtl Mat_WoodWeathered
f 713 714 715 716
f 717 720 719 718
f 713 717 718 714
f 714 718 719 715
f 715 719 720 716
f 716 720 717 713
g lower_front_window_0_shutter_r
f 721 722 723 724
f 725 728 727 726
f 721 725 726 722
f 722 726 727 723
f 723 727 728 724
f 724 728 725 721
g lower_front_window_1_glass
usemtl Mat_GlassDirty
f 729 730 731 732
f 733 736 735 734
f 729 733 734 730
f 730 734 735 731
f 731 735 736 732
f 732 736 733 729
g lower_front_window_1_frame_top
usemtl Mat_WoodDark
f 737 738 739 740
f 741 744 743 742
f 737 741 742 738
f 738 742 743 739
f 739 743 744 740
f 740 744 741 737
g lower_front_window_1_frame_mid_v
f 745 746 747 748
f 749 752 751 750
f 745 749 750 746
f 746 750 751 747
f 747 751 752 748
f 748 752 749 745
g lower_front_window_1_frame_l
f 753 754 755 756
f 757 760 759 758
f 753 757 758 754
f 754 758 759 755
f 755 759 760 756
f 756 760 757 753
g lower_front_window_1_frame_r
f 761 762 763 764
f 765 768 767 766
f 761 765 766 762
f 762 766 767 763
f 763 767 768 764
f 764 768 765 761
g lower_front_window_1_sill
f 769 770 771 772
f 773 776 775 774
f 769 773 774 770
f 770 774 775 771
f 771 775 776 772
f 772 776 773 769
g lower_front_window_1_shutter_l
usemtl Mat_WoodWeathered
f 777 778 779 780
f 781 784 783 782
f 777 781 782 778
f 778 782 783 779
f 779 783 784 780
f 780 784 781 777
g lower_front_window_1_shutter_r
f 785 786 787 788
f 789 792 791 790
f 785 789 790 786
f 786 790 791 787
f 787 791 792 788
f 788 792 789 785
