# GalakasMidCity_LWR_W08D06_BrickLCornerBlock_01
mtllib GalakasMidCity_LWR_W08D06_BrickLCornerBlock_01.mtl
v -8.27500 0.00000 -6.27500
v 8.27500 0.00000 -6.27500
v 8.27500 0.36000 -6.27500
v -8.27500 0.36000 -6.27500
v -8.27500 0.00000 6.27500
v 8.27500 0.00000 6.27500
v 8.27500 0.36000 6.27500
v -8.27500 0.36000 6.27500
v -8.17500 0.36000 -6.17500
v 8.17500 0.36000 -6.17500
v 8.17500 0.72000 -6.17500
v -8.17500 0.72000 -6.17500
v -8.17500 0.36000 6.17500
v 8.17500 0.36000 6.17500
v 8.17500 0.72000 6.17500
v -8.17500 0.72000 6.17500
v -7.88923 0.70000 -6.37000
v -6.88000 0.70000 -6.37000
v -6.88000 0.88000 -6.37000
v -7.88923 0.88000 -6.37000
v -7.88923 0.70000 -6.29000
v -6.88000 0.70000 -6.29000
v -6.88000 0.88000 -6.29000
v -7.88923 0.88000 -6.29000
v -6.65846 0.70000 -6.37000
v -5.64923 0.70000 -6.37000
v -5.64923 0.88000 -6.37000
v -6.65846 0.88000 -6.37000
v -6.65846 0.70000 -6.29000
v -5.64923 0.70000 -6.29000
v -5.64923 0.88000 -6.29000
v -6.65846 0.88000 -6.29000
v -5.42769 0.70000 -6.37000
v -4.41846 0.70000 -6.37000
v -4.41846 0.88000 -6.37000
v -5.42769 0.88000 -6.37000
v -5.42769 0.70000 -6.29000
v -4.41846 0.70000 -6.29000
v -4.41846 0.88000 -6.29000
v -5.42769 0.88000 -6.29000
v -4.19692 0.70000 -6.37000
v -3.18769 0.70000 -6.37000
v -3.18769 0.88000 -6.37000
v -4.19692 0.88000 -6.37000
v -4.19692 0.70000 -6.29000
v -3.18769 0.70000 -6.29000
v -3.18769 0.88000 -6.29000
v -4.19692 0.88000 -6.29000
v -2.96615 0.70000 -6.37000
v -1.95692 0.70000 -6.37000
v -1.95692 0.88000 -6.37000
v -2.96615 0.88000 -6.37000
v -2.96615 0.70000 -6.29000
v -1.95692 0.70000 -6.29000
v -1.95692 0.88000 -6.29000
v -2.96615 0.88000 -6.29000
v -1.73538 0.70000 -6.37000
v -0.72615 0.70000 -6.37000
v -0.72615 0.88000 -6.37000
v -1.73538 0.88000 -6.37000
v -1.73538 0.70000 -6.29000
v -0.72615 0.70000 -6.29000
v -0.72615 0.88000 -6.29000
v -1.73538 0.88000 -6.29000
v -0.50462 0.70000 -6.37000
v 0.50462 0.70000 -6.37000
v 0.50462 0.88000 -6.37000
v -0.50462 0.88000 -6.37000
v -0.50462 0.70000 -6.29000
v 0.50462 0.70000 -6.29000
v 0.50462 0.88000 -6.29000
v -0.50462 0.88000 -6.29000
v 0.72615 0.70000 -6.37000
v 1.73538 0.70000 -6.37000
v 1.73538 0.88000 -6.37000
v 0.72615 0.88000 -6.37000
v 0.72615 0.70000 -6.29000
v 1.73538 0.70000 -6.29000
v 1.73538 0.88000 -6.29000
v 0.72615 0.88000 -6.29000
v 1.95692 0.70000 -6.37000
v 2.96615 0.70000 -6.37000
v 2.96615 0.88000 -6.37000
v 1.95692 0.88000 -6.37000
v 1.95692 0.70000 -6.29000
v 2.96615 0.70000 -6.29000
v 2.96615 0.88000 -6.29000
v 1.95692 0.88000 -6.29000
v 3.18769 0.70000 -6.37000
v 4.19692 0.70000 -6.37000
v 4.19692 0.88000 -6.37000
v 3.18769 0.88000 -6.37000
v 3.18769 0.70000 -6.29000
v 4.19692 0.70000 -6.29000
v 4.19692 0.88000 -6.29000
v 3.18769 0.88000 -6.29000
v 4.41846 0.70000 -6.37000
v 5.42769 0.70000 -6.37000
v 5.42769 0.88000 -6.37000
v 4.41846 0.88000 -6.37000
v 4.41846 0.70000 -6.29000
v 5.42769 0.70000 -6.29000
v 5.42769 0.88000 -6.29000
v 4.41846 0.88000 -6.29000
v 5.64923 0.70000 -6.37000
v 6.65846 0.70000 -6.37000
v 6.65846 0.88000 -6.37000
v 5.64923 0.88000 -6.37000
v 5.64923 0.70000 -6.29000
v 6.65846 0.70000 -6.29000
v 6.65846 0.88000 -6.29000
v 5.64923 0.88000 -6.29000
v 6.88000 0.70000 -6.37000
v 7.88923 0.70000 -6.37000
v 7.88923 0.88000 -6.37000
v 6.88000 0.88000 -6.37000
v 6.88000 0.70000 -6.29000
v 7.88923 0.70000 -6.29000
v 7.88923 0.88000 -6.29000
v 6.88000 0.88000 -6.29000
v -7.88923 0.70000 6.29000
v -6.88000 0.70000 6.29000
v -6.88000 0.88000 6.29000
v -7.88923 0.88000 6.29000
v -7.88923 0.70000 6.37000
v -6.88000 0.70000 6.37000
v -6.88000 0.88000 6.37000
v -7.88923 0.88000 6.37000
v -6.65846 0.70000 6.29000
v -5.64923 0.70000 6.29000
v -5.64923 0.88000 6.29000
v -6.65846 0.88000 6.29000
v -6.65846 0.70000 6.37000
v -5.64923 0.70000 6.37000
v -5.64923 0.88000 6.37000
v -6.65846 0.88000 6.37000
v -5.42769 0.70000 6.29000
v -4.41846 0.70000 6.29000
v -4.41846 0.88000 6.29000
v -5.42769 0.88000 6.29000
v -5.42769 0.70000 6.37000
v -4.41846 0.70000 6.37000
v -4.41846 0.88000 6.37000
v -5.42769 0.88000 6.37000
v -4.19692 0.70000 6.29000
v -3.18769 0.70000 6.29000
v -3.18769 0.88000 6.29000
v -4.19692 0.88000 6.29000
v -4.19692 0.70000 6.37000
v -3.18769 0.70000 6.37000
v -3.18769 0.88000 6.37000
v -4.19692 0.88000 6.37000
v -2.96615 0.70000 6.29000
v -1.95692 0.70000 6.29000
v -1.95692 0.88000 6.29000
v -2.96615 0.88000 6.29000
v -2.96615 0.70000 6.37000
v -1.95692 0.70000 6.37000
v -1.95692 0.88000 6.37000
v -2.96615 0.88000 6.37000
v -1.73538 0.70000 6.29000
v -0.72615 0.70000 6.29000
v -0.72615 0.88000 6.29000
v -1.73538 0.88000 6.29000
v -1.73538 0.70000 6.37000
v -0.72615 0.70000 6.37000
v -0.72615 0.88000 6.37000
v -1.73538 0.88000 6.37000
v -0.50462 0.70000 6.29000
v 0.50462 0.70000 6.29000
v 0.50462 0.88000 6.29000
v -0.50462 0.88000 6.29000
v -0.50462 0.70000 6.37000
v 0.50462 0.70000 6.37000
v 0.50462 0.88000 6.37000
v -0.50462 0.88000 6.37000
v 0.72615 0.70000 6.29000
v 1.73538 0.70000 6.29000
v 1.73538 0.88000 6.29000
v 0.72615 0.88000 6.29000
v 0.72615 0.70000 6.37000
v 1.73538 0.70000 6.37000
v 1.73538 0.88000 6.37000
v 0.72615 0.88000 6.37000
v 1.95692 0.70000 6.29000
v 2.96615 0.70000 6.29000
v 2.96615 0.88000 6.29000
v 1.95692 0.88000 6.29000
v 1.95692 0.70000 6.37000
v 2.96615 0.70000 6.37000
v 2.96615 0.88000 6.37000
v 1.95692 0.88000 6.37000
v 3.18769 0.70000 6.29000
v 4.19692 0.70000 6.29000
v 4.19692 0.88000 6.29000
v 3.18769 0.88000 6.29000
v 3.18769 0.70000 6.37000
v 4.19692 0.70000 6.37000
v 4.19692 0.88000 6.37000
v 3.18769 0.88000 6.37000
v 4.41846 0.70000 6.29000
v 5.42769 0.70000 6.29000
v 5.42769 0.88000 6.29000
v 4.41846 0.88000 6.29000
v 4.41846 0.70000 6.37000
v 5.42769 0.70000 6.37000
v 5.42769 0.88000 6.37000
v 4.41846 0.88000 6.37000
v 5.64923 0.70000 6.29000
v 6.65846 0.70000 6.29000
v 6.65846 0.88000 6.29000
v 5.64923 0.88000 6.29000
v 5.64923 0.70000 6.37000
v 6.65846 0.70000 6.37000
v 6.65846 0.88000 6.37000
v 5.64923 0.88000 6.37000
v 6.88000 0.70000 6.29000
v 7.88923 0.70000 6.29000
v 7.88923 0.88000 6.29000
v 6.88000 0.88000 6.29000
v 6.88000 0.70000 6.37000
v 7.88923 0.70000 6.37000
v 7.88923 0.88000 6.37000
v 6.88000 0.88000 6.37000
v -8.37000 0.70000 -5.89200
v -8.29000 0.70000 -5.89200
v -8.29000 0.88000 -5.89200
v -8.37000 0.88000 -5.89200
v -8.37000 0.70000 -4.90800
v -8.29000 0.70000 -4.90800
v -8.29000 0.88000 -4.90800
v -8.37000 0.88000 -4.90800
v -8.37000 0.70000 -4.69200
v -8.29000 0.70000 -4.69200
v -8.29000 0.88000 -4.69200
v -8.37000 0.88000 -4.69200
v -8.37000 0.70000 -3.70800
v -8.29000 0.70000 -3.70800
v -8.29000 0.88000 -3.70800
v -8.37000 0.88000 -3.70800
v -8.37000 0.70000 -3.49200
v -8.29000 0.70000 -3.49200
v -8.29000 0.88000 -3.49200
v -8.37000 0.88000 -3.49200
v -8.37000 0.70000 -2.50800
v -8.29000 0.70000 -2.50800
v -8.29000 0.88000 -2.50800
v -8.37000 0.88000 -2.50800
v -8.37000 0.70000 -2.29200
v -8.29000 0.70000 -2.29200
v -8.29000 0.88000 -2.29200
v -8.37000 0.88000 -2.29200
v -8.37000 0.70000 -1.30800
v -8.29000 0.70000 -1.30800
v -8.29000 0.88000 -1.30800
v -8.37000 0.88000 -1.30800
v -8.37000 0.70000 -1.09200
v -8.29000 0.70000 -1.09200
v -8.29000 0.88000 -1.09200
v -8.37000 0.88000 -1.09200
v -8.37000 0.70000 -0.10800
v -8.29000 0.70000 -0.10800
v -8.29000 0.88000 -0.10800
v -8.37000 0.88000 -0.10800
v -8.37000 0.70000 0.10800
v -8.29000 0.70000 0.10800
v -8.29000 0.88000 0.10800
v -8.37000 0.88000 0.10800
v -8.37000 0.70000 1.09200
v -8.29000 0.70000 1.09200
v -8.29000 0.88000 1.09200
v -8.37000 0.88000 1.09200
v -8.37000 0.70000 1.30800
v -8.29000 0.70000 1.30800
v -8.29000 0.88000 1.30800
v -8.37000 0.88000 1.30800
v -8.37000 0.70000 2.29200
v -8.29000 0.70000 2.29200
v -8.29000 0.88000 2.29200
v -8.37000 0.88000 2.29200
v -8.37000 0.70000 2.50800
v -8.29000 0.70000 2.50800
v -8.29000 0.88000 2.50800
v -8.37000 0.88000 2.50800
v -8.37000 0.70000 3.49200
v -8.29000 0.70000 3.49200
v -8.29000 0.88000 3.49200
v -8.37000 0.88000 3.49200
v -8.37000 0.70000 3.70800
v -8.29000 0.70000 3.70800
v -8.29000 0.88000 3.70800
v -8.37000 0.88000 3.70800
v -8.37000 0.70000 4.69200
v -8.29000 0.70000 4.69200
v -8.29000 0.88000 4.69200
v -8.37000 0.88000 4.69200
v -8.37000 0.70000 4.90800
v -8.29000 0.70000 4.90800
v -8.29000 0.88000 4.90800
v -8.37000 0.88000 4.90800
v -8.37000 0.70000 5.89200
v -8.29000 0.70000 5.89200
v -8.29000 0.88000 5.89200
v -8.37000 0.88000 5.89200
v 8.29000 0.70000 -5.89200
v 8.37000 0.70000 -5.89200
v 8.37000 0.88000 -5.89200
v 8.29000 0.88000 -5.89200
v 8.29000 0.70000 -4.90800
v 8.37000 0.70000 -4.90800
v 8.37000 0.88000 -4.90800
v 8.29000 0.88000 -4.90800
v 8.29000 0.70000 -4.69200
v 8.37000 0.70000 -4.69200
v 8.37000 0.88000 -4.69200
v 8.29000 0.88000 -4.69200
v 8.29000 0.70000 -3.70800
v 8.37000 0.70000 -3.70800
v 8.37000 0.88000 -3.70800
v 8.29000 0.88000 -3.70800
v 8.29000 0.70000 -3.49200
v 8.37000 0.70000 -3.49200
v 8.37000 0.88000 -3.49200
v 8.29000 0.88000 -3.49200
v 8.29000 0.70000 -2.50800
v 8.37000 0.70000 -2.50800
v 8.37000 0.88000 -2.50800
v 8.29000 0.88000 -2.50800
v 8.29000 0.70000 -2.29200
v 8.37000 0.70000 -2.29200
v 8.37000 0.88000 -2.29200
v 8.29000 0.88000 -2.29200
v 8.29000 0.70000 -1.30800
v 8.37000 0.70000 -1.30800
v 8.37000 0.88000 -1.30800
v 8.29000 0.88000 -1.30800
v 8.29000 0.70000 -1.09200
v 8.37000 0.70000 -1.09200
v 8.37000 0.88000 -1.09200
v 8.29000 0.88000 -1.09200
v 8.29000 0.70000 -0.10800
v 8.37000 0.70000 -0.10800
v 8.37000 0.88000 -0.10800
v 8.29000 0.88000 -0.10800
v 8.29000 0.70000 0.10800
v 8.37000 0.70000 0.10800
v 8.37000 0.88000 0.10800
v 8.29000 0.88000 0.10800
v 8.29000 0.70000 1.09200
v 8.37000 0.70000 1.09200
v 8.37000 0.88000 1.09200
v 8.29000 0.88000 1.09200
v 8.29000 0.70000 1.30800
v 8.37000 0.70000 1.30800
v 8.37000 0.88000 1.30800
v 8.29000 0.88000 1.30800
v 8.29000 0.70000 2.29200
v 8.37000 0.70000 2.29200
v 8.37000 0.88000 2.29200
v 8.29000 0.88000 2.29200
v 8.29000 0.70000 2.50800
v 8.37000 0.70000 2.50800
v 8.37000 0.88000 2.50800
v 8.29000 0.88000 2.50800
v 8.29000 0.70000 3.49200
v 8.37000 0.70000 3.49200
v 8.37000 0.88000 3.49200
v 8.29000 0.88000 3.49200
v 8.29000 0.70000 3.70800
v 8.37000 0.70000 3.70800
v 8.37000 0.88000 3.70800
v 8.29000 0.88000 3.70800
v 8.29000 0.70000 4.69200
v 8.37000 0.70000 4.69200
v 8.37000 0.88000 4.69200
v 8.29000 0.88000 4.69200
v 8.29000 0.70000 4.90800
v 8.37000 0.70000 4.90800
v 8.37000 0.88000 4.90800
v 8.29000 0.88000 4.90800
v 8.29000 0.70000 5.89200
v 8.37000 0.70000 5.89200
v 8.37000 0.88000 5.89200
v 8.29000 0.88000 5.89200
v -8.00000 0.72000 -6.18000
v -1.37500 0.72000 -6.18000
v -1.37500 5.52000 -6.18000
v -8.00000 5.52000 -6.18000
v -8.00000 0.72000 -6.00000
v -1.37500 0.72000 -6.00000
v -1.37500 5.52000 -6.00000
v -8.00000 5.52000 -6.00000
v 1.37500 0.72000 -6.18000
v 8.00000 0.72000 -6.18000
v 8.00000 5.52000 -6.18000
v 1.37500 5.52000 -6.18000
v 1.37500 0.72000 -6.00000
v 8.00000 0.72000 -6.00000
v 8.00000 5.52000 -6.00000
v 1.37500 5.52000 -6.00000
v -1.37500 4.07000 -6.18000
v 1.37500 4.07000 -6.18000
v 1.37500 5.07000 -6.18000
v -1.37500 5.07000 -6.18000
v -1.37500 4.07000 -6.00000
v 1.37500 4.07000 -6.00000
v 1.37500 5.07000 -6.00000
v -1.37500 5.07000 -6.00000
v -0.92500 0.90000 -6.28000
v 0.92500 0.90000 -6.28000
v 0.92500 4.25000 -6.28000
v -0.92500 4.25000 -6.28000
v -0.92500 0.90000 -6.12000
v 0.92500 0.90000 -6.12000
v 0.92500 4.25000 -6.12000
v -0.92500 4.25000 -6.12000
v -0.87320 1.00050 -6.31000
v -0.60680 1.00050 -6.31000
v -0.60680 4.14950 -6.31000
v -0.87320 4.14950 -6.31000
v -0.87320 1.00050 -6.27000
v -0.60680 1.00050 -6.27000
v -0.60680 4.14950 -6.27000
v -0.87320 4.14950 -6.27000
v -0.50320 1.00050 -6.31000
v -0.23680 1.00050 -6.31000
v -0.23680 4.14950 -6.31000
v -0.50320 4.14950 -6.31000
v -0.50320 1.00050 -6.27000
v -0.23680 1.00050 -6.27000
v -0.23680 4.14950 -6.27000
v -0.50320 4.14950 -6.27000
v -0.13320 1.00050 -6.31000
v 0.13320 1.00050 -6.31000
v 0.13320 4.14950 -6.31000
v -0.13320 4.14950 -6.31000
v -0.13320 1.00050 -6.27000
v 0.13320 1.00050 -6.27000
v 0.13320 4.14950 -6.27000
v -0.13320 4.14950 -6.27000
v 0.23680 1.00050 -6.31000
v 0.50320 1.00050 -6.31000
v 0.50320 4.14950 -6.31000
v 0.23680 4.14950 -6.31000
v 0.23680 1.00050 -6.27000
v 0.50320 1.00050 -6.27000
v 0.50320 4.14950 -6.27000
v 0.23680 4.14950 -6.27000
v 0.60680 1.00050 -6.31000
v 0.87320 1.00050 -6.31000
v 0.87320 4.14950 -6.31000
v 0.60680 4.14950 -6.31000
v 0.60680 1.00050 -6.27000
v 0.87320 1.00050 -6.27000
v 0.87320 4.14950 -6.27000
v 0.60680 4.14950 -6.27000
v -1.12500 0.74000 -6.36000
v -0.94500 0.74000 -6.36000
v -0.94500 4.41000 -6.36000
v -1.12500 4.41000 -6.36000
v -1.12500 0.74000 -6.08000
v -0.94500 0.74000 -6.08000
v -0.94500 4.41000 -6.08000
v -1.12500 4.41000 -6.08000
v 0.94500 0.74000 -6.36000
v 1.12500 0.74000 -6.36000
v 1.12500 4.41000 -6.36000
v 0.94500 4.41000 -6.36000
v 0.94500 0.74000 -6.08000
v 1.12500 0.74000 -6.08000
v 1.12500 4.41000 -6.08000
v 0.94500 4.41000 -6.08000
v -1.20000 4.25000 -6.36000
v 1.20000 4.25000 -6.36000
v 1.20000 4.47000 -6.36000
v -1.20000 4.47000 -6.36000
v -1.20000 4.25000 -6.08000
v 1.20000 4.25000 -6.08000
v 1.20000 4.47000 -6.08000
v -1.20000 4.47000 -6.08000
v -0.79550 1.65000 -6.39000
v 0.79550 1.65000 -6.39000
v 0.79550 1.75000 -6.39000
v -0.79550 1.75000 -6.39000
v -0.79550 1.65000 -6.31000
v 0.79550 1.65000 -6.31000
v 0.79550 1.75000 -6.31000
v -0.79550 1.75000 -6.31000
v -0.79550 2.59200 -6.39000
v 0.79550 2.59200 -6.39000
v 0.79550 2.69200 -6.39000
v -0.79550 2.69200 -6.39000
v -0.79550 2.59200 -6.31000
v 0.79550 2.59200 -6.31000
v 0.79550 2.69200 -6.31000
v -0.79550 2.69200 -6.31000
v -0.79550 3.65000 -6.39000
v 0.79550 3.65000 -6.39000
v 0.79550 3.75000 -6.39000
v -0.79550 3.75000 -6.39000
v -0.79550 3.65000 -6.31000
v 0.79550 3.65000 -6.31000
v 0.79550 3.75000 -6.31000
v -0.79550 3.75000 -6.31000
v -1.16500 1.57000 -6.44500
v -1.16500 2.13000 -6.44500
v -1.19750 1.57000 -6.43629
v -1.19750 2.13000 -6.43629
v -1.22129 1.57000 -6.41250
v -1.22129 2.13000 -6.41250
v -1.23000 1.57000 -6.38000
v -1.23000 2.13000 -6.38000
v -1.22129 1.57000 -6.34750
v -1.22129 2.13000 -6.34750
v -1.19750 1.57000 -6.32371
v -1.19750 2.13000 -6.32371
v -1.16500 1.57000 -6.31500
v -1.16500 2.13000 -6.31500
v -1.13250 1.57000 -6.32371
v -1.13250 2.13000 -6.32371
v -1.10871 1.57000 -6.34750
v -1.10871 2.13000 -6.34750
v -1.10000 1.57000 -6.38000
v -1.10000 2.13000 -6.38000
v -1.10871 1.57000 -6.41250
v -1.10871 2.13000 -6.41250
v -1.13250 1.57000 -6.43629
v -1.13250 2.13000 -6.43629
v -1.16500 3.17000 -6.44500
v -1.16500 3.73000 -6.44500
v -1.19750 3.17000 -6.43629
v -1.19750 3.73000 -6.43629
v -1.22129 3.17000 -6.41250
v -1.22129 3.73000 -6.41250
v -1.23000 3.17000 -6.38000
v -1.23000 3.73000 -6.38000
v -1.22129 3.17000 -6.34750
v -1.22129 3.73000 -6.34750
v -1.19750 3.17000 -6.32371
v -1.19750 3.73000 -6.32371
v -1.16500 3.17000 -6.31500
v -1.16500 3.73000 -6.31500
v -1.13250 3.17000 -6.32371
v -1.13250 3.73000 -6.32371
v -1.10871 3.17000 -6.34750
v -1.10871 3.73000 -6.34750
v -1.10000 3.17000 -6.38000
v -1.10000 3.73000 -6.38000
v -1.10871 3.17000 -6.41250
v -1.10871 3.73000 -6.41250
v -1.13250 3.17000 -6.43629
v -1.13250 3.73000 -6.43629
v 0.55500 2.72200 -6.42000
v 0.55500 2.72200 -6.42000
v 0.55500 2.72200 -6.42000
v 0.55500 2.72200 -6.42000
v 0.55500 2.72200 -6.42000
v 0.55500 2.72200 -6.42000
v 0.55500 2.72200 -6.42000
v 0.55500 2.72200 -6.42000
v 0.55500 2.72200 -6.42000
v 0.55500 2.72200 -6.42000
v 0.55500 2.72200 -6.42000
v 0.55500 2.72200 -6.42000
v 0.60202 2.70672 -6.42000
v 0.59572 2.70672 -6.39649
v 0.57851 2.70672 -6.37928
v 0.55500 2.70672 -6.37298
v 0.53149 2.70672 -6.37928
v 0.51428 2.70672 -6.39649
v 0.50798 2.70672 -6.42000
v 0.51428 2.70672 -6.44351
v 0.53149 2.70672 -6.46072
v 0.55500 2.70672 -6.46702
v 0.57851 2.70672 -6.46072
v 0.59572 2.70672 -6.44351
v 0.63108 2.66672 -6.42000
v 0.62089 2.66672 -6.38196
v 0.59304 2.66672 -6.35411
v 0.55500 2.66672 -6.34392
v 0.51696 2.66672 -6.35411
v 0.48911 2.66672 -6.38196
v 0.47892 2.66672 -6.42000
v 0.48911 2.66672 -6.45804
v 0.51696 2.66672 -6.48589
v 0.55500 2.66672 -6.49608
v 0.59304 2.66672 -6.48589
v 0.62089 2.66672 -6.45804
v 0.63108 2.61728 -6.42000
v 0.62089 2.61728 -6.38196
v 0.59304 2.61728 -6.35411
v 0.55500 2.61728 -6.34392
v 0.51696 2.61728 -6.35411
v 0.48911 2.61728 -6.38196
v 0.47892 2.61728 -6.42000
v 0.48911 2.61728 -6.45804
v 0.51696 2.61728 -6.48589
v 0.55500 2.61728 -6.49608
v 0.59304 2.61728 -6.48589
v 0.62089 2.61728 -6.45804
v 0.60202 2.57728 -6.42000
v 0.59572 2.57728 -6.39649
v 0.57851 2.57728 -6.37928
v 0.55500 2.57728 -6.37298
v 0.53149 2.57728 -6.37928
v 0.51428 2.57728 -6.39649
v 0.50798 2.57728 -6.42000
v 0.51428 2.57728 -6.44351
v 0.53149 2.57728 -6.46072
v 0.55500 2.57728 -6.46702
v 0.57851 2.57728 -6.46072
v 0.59572 2.57728 -6.44351
v 0.55500 2.56200 -6.42000
v 0.55500 2.56200 -6.42000
v 0.55500 2.56200 -6.42000
v 0.55500 2.56200 -6.42000
v 0.55500 2.56200 -6.42000
v 0.55500 2.56200 -6.42000
v 0.55500 2.56200 -6.42000
v 0.55500 2.56200 -6.42000
v 0.55500 2.56200 -6.42000
v 0.55500 2.56200 -6.42000
v 0.55500 2.56200 -6.42000
v 0.55500 2.56200 -6.42000
v -8.00000 0.72000 6.00000
v 8.00000 0.72000 6.00000
v 8.00000 5.52000 6.00000
v -8.00000 5.52000 6.00000
v -8.00000 0.72000 6.18000
v 8.00000 0.72000 6.18000
v 8.00000 5.52000 6.18000
v -8.00000 5.52000 6.18000
v -8.18000 0.72000 -6.00000
v -8.00000 0.72000 -6.00000
v -8.00000 5.52000 -6.00000
v -8.18000 5.52000 -6.00000
v -8.18000 0.72000 6.00000
v -8.00000 0.72000 6.00000
v -8.00000 5.52000 6.00000
v -8.18000 5.52000 6.00000
v 8.00000 0.72000 -6.00000
v 8.18000 0.72000 -6.00000
v 8.18000 5.52000 -6.00000
v 8.00000 5.52000 -6.00000
v 8.00000 0.72000 6.00000
v 8.18000 0.72000 6.00000
v 8.18000 5.52000 6.00000
v 8.00000 5.52000 6.00000
v -8.00000 0.72000 -6.00000
v 8.00000 0.72000 -6.00000
v 8.00000 0.82000 -6.00000
v -8.00000 0.82000 -6.00000
v -8.00000 0.72000 6.00000
v 8.00000 0.72000 6.00000
v 8.00000 0.82000 6.00000
v -8.00000 0.82000 6.00000
v -8.00000 5.42000 -6.00000
v 8.00000 5.42000 -6.00000
v 8.00000 5.52000 -6.00000
v -8.00000 5.52000 -6.00000
v -8.00000 5.42000 6.00000
v 8.00000 5.42000 6.00000
v 8.00000 5.52000 6.00000
v -8.00000 5.52000 6.00000
v -8.11000 0.82000 -6.26000
v 8.11000 0.82000 -6.26000
v 8.11000 0.98000 -6.26000
v -8.11000 0.98000 -6.26000
v -8.11000 0.82000 -6.12000
v 8.11000 0.82000 -6.12000
v 8.11000 0.98000 -6.12000
v -8.11000 0.98000 -6.12000
v -8.11000 0.82000 6.12000
v 8.11000 0.82000 6.12000
v 8.11000 0.98000 6.12000
v -8.11000 0.98000 6.12000
v -8.11000 0.82000 6.26000
v 8.11000 0.82000 6.26000
v 8.11000 0.98000 6.26000
v -8.11000 0.98000 6.26000
v -8.11000 5.26000 -6.26000
v 8.11000 5.26000 -6.26000
v 8.11000 5.42000 -6.26000
v -8.11000 5.42000 -6.26000
v -8.11000 5.26000 -6.12000
v 8.11000 5.26000 -6.12000
v 8.11000 5.42000 -6.12000
v -8.11000 5.42000 -6.12000
v -8.11000 5.26000 6.12000
v 8.11000 5.26000 6.12000
v 8.11000 5.42000 6.12000
v -8.11000 5.42000 6.12000
v -8.11000 5.26000 6.26000
v 8.11000 5.26000 6.26000
v 8.11000 5.42000 6.26000
v -8.11000 5.42000 6.26000
v -7.96000 0.72000 -6.29000
v -7.80000 0.72000 -6.29000
v -7.80000 5.52000 -6.29000
v -7.96000 5.52000 -6.29000
v -7.96000 0.72000 -6.13000
v -7.80000 0.72000 -6.13000
v -7.80000 5.52000 -6.13000
v -7.96000 5.52000 -6.13000
v 7.80000 0.72000 -6.29000
v 7.96000 0.72000 -6.29000
v 7.96000 5.52000 -6.29000
v 7.80000 5.52000 -6.29000
v 7.80000 0.72000 -6.13000
v 7.96000 0.72000 -6.13000
v 7.96000 5.52000 -6.13000
v 7.80000 5.52000 -6.13000
v -4.08000 0.72000 -6.29000
v -3.92000 0.72000 -6.29000
v -3.92000 5.52000 -6.29000
v -4.08000 5.52000 -6.29000
v -4.08000 0.72000 -6.13000
v -3.92000 0.72000 -6.13000
v -3.92000 5.52000 -6.13000
v -4.08000 5.52000 -6.13000
v 3.92000 0.72000 -6.29000
v 4.08000 0.72000 -6.29000
v 4.08000 5.52000 -6.29000
v 3.92000 5.52000 -6.29000
v 3.92000 0.72000 -6.13000
v 4.08000 0.72000 -6.13000
v 4.08000 5.52000 -6.13000
v 3.92000 5.52000 -6.13000
v -7.96000 0.72000 6.13000
v -7.80000 0.72000 6.13000
v -7.80000 5.52000 6.13000
v -7.96000 5.52000 6.13000
v -7.96000 0.72000 6.29000
v -7.80000 0.72000 6.29000
v -7.80000 5.52000 6.29000
v -7.96000 5.52000 6.29000
v 7.80000 0.72000 6.13000
v 7.96000 0.72000 6.13000
v 7.96000 5.52000 6.13000
v 7.80000 5.52000 6.13000
v 7.80000 0.72000 6.29000
v 7.96000 0.72000 6.29000
v 7.96000 5.52000 6.29000
v 7.80000 5.52000 6.29000
v -5.96500 2.64500 -6.28000
v -4.91500 2.64500 -6.28000
v -4.91500 3.89500 -6.28000
v -5.96500 3.89500 -6.28000
v -5.96500 2.64500 -6.20000
v -4.91500 2.64500 -6.20000
v -4.91500 3.89500 -6.20000
v -5.96500 3.89500 -6.20000
v -6.06500 3.21000 -6.38000
v -4.81500 3.21000 -6.38000
v -4.81500 3.33000 -6.38000
v -6.06500 3.33000 -6.38000
v -6.06500 3.21000 -6.22000
v -4.81500 3.21000 -6.22000
v -4.81500 3.33000 -6.22000
v -6.06500 3.33000 -6.22000
v -5.50000 2.54500 -6.38000
v -5.38000 2.54500 -6.38000
v -5.38000 3.99500 -6.38000
v -5.50000 3.99500 -6.38000
v -5.50000 2.54500 -6.22000
v -5.38000 2.54500 -6.22000
v -5.38000 3.99500 -6.22000
v -5.50000 3.99500 -6.22000
v -6.12500 2.54500 -6.38000
v -6.00500 2.54500 -6.38000
v -6.00500 3.99500 -6.38000
v -6.12500 3.99500 -6.38000
v -6.12500 2.54500 -6.22000
v -6.00500 2.54500 -6.22000
v -6.00500 3.99500 -6.22000
v -6.12500 3.99500 -6.22000
v -4.87500 2.54500 -6.38000
v -4.75500 2.54500 -6.38000
v -4.75500 3.99500 -6.38000
v -4.87500 3.99500 -6.38000
v -4.87500 2.54500 -6.22000
v -4.75500 2.54500 -6.22000
v -4.75500 3.99500 -6.22000
v -4.87500 3.99500 -6.22000
v -6.10500 2.45500 -6.42000
v -4.77500 2.45500 -6.42000
v -4.77500 2.59500 -6.42000
v -6.10500 2.59500 -6.42000
v -6.10500 2.45500 -6.18000
v -4.77500 2.45500 -6.18000
v -4.77500 2.59500 -6.18000
v -6.10500 2.59500 -6.18000
v -6.37650 2.69500 -6.40000
v -6.03650 2.69500 -6.40000
v -6.03650 3.84500 -6.40000
v -6.37650 3.84500 -6.40000
v -6.37650 2.69500 -6.32000
v -6.03650 2.69500 -6.32000
v -6.03650 3.84500 -6.32000
v -6.37650 3.84500 -6.32000
v -4.84350 2.69500 -6.40000
v -4.50350 2.69500 -6.40000
v -4.50350 3.84500 -6.40000
v -4.84350 3.84500 -6.40000
v -4.84350 2.69500 -6.32000
v -4.50350 2.69500 -6.32000
v -4.50350 3.84500 -6.32000
v -4.84350 3.84500 -6.32000
v 4.91500 2.64500 -6.28000
v 5.96500 2.64500 -6.28000
v 5.96500 3.89500 -6.28000
v 4.91500 3.89500 -6.28000
v 4.91500 2.64500 -6.20000
v 5.96500 2.64500 -6.20000
v 5.96500 3.89500 -6.20000
v 4.91500 3.89500 -6.20000
v 4.81500 3.21000 -6.38000
v 6.06500 3.21000 -6.38000
v 6.06500 3.33000 -6.38000
v 4.81500 3.33000 -6.38000
v 4.81500 3.21000 -6.22000
v 6.06500 3.21000 -6.22000
v 6.06500 3.33000 -6.22000
v 4.81500 3.33000 -6.22000
v 5.38000 2.54500 -6.38000
v 5.50000 2.54500 -6.38000
v 5.50000 3.99500 -6.38000
v 5.38000 3.99500 -6.38000
v 5.38000 2.54500 -6.22000
v 5.50000 2.54500 -6.22000
v 5.50000 3.99500 -6.22000
v 5.38000 3.99500 -6.22000
v 4.75500 2.54500 -6.38000
v 4.87500 2.54500 -6.38000
v 4.87500 3.99500 -6.38000
v 4.75500 3.99500 -6.38000
v 4.75500 2.54500 -6.22000
v 4.87500 2.54500 -6.22000
v 4.87500 3.99500 -6.22000
v 4.75500 3.99500 -6.22000
v 6.00500 2.54500 -6.38000
v 6.12500 2.54500 -6.38000
v 6.12500 3.99500 -6.38000
v 6.00500 3.99500 -6.38000
v 6.00500 2.54500 -6.22000
v 6.12500 2.54500 -6.22000
v 6.12500 3.99500 -6.22000
v 6.00500 3.99500 -6.22000
v 4.77500 2.45500 -6.42000
v 6.10500 2.45500 -6.42000
v 6.10500 2.59500 -6.42000
v 4.77500 2.59500 -6.42000
v 4.77500 2.45500 -6.18000
v 6.10500 2.45500 -6.18000
v 6.10500 2.59500 -6.18000
v 4.77500 2.59500 -6.18000
v 4.50350 2.69500 -6.40000
v 4.84350 2.69500 -6.40000
v 4.84350 3.84500 -6.40000
v 4.50350 3.84500 -6.40000
v 4.50350 2.69500 -6.32000
v 4.84350 2.69500 -6.32000
v 4.84350 3.84500 -6.32000
v 4.50350 3.84500 -6.32000
v 6.03650 2.69500 -6.40000
v 6.37650 2.69500 -6.40000
v 6.37650 3.84500 -6.40000
v 6.03650 3.84500 -6.40000
v 6.03650 2.69500 -6.32000
v 6.37650 2.69500 -6.32000
v 6.37650 3.84500 -6.32000
v 6.03650 3.84500 -6.32000
g stone_plinth_base
usemtl Mat_StoneFoundation
f 1 2 3 4
f 5 8 7 6
f 1 5 6 2
f 2 6 7 3
f 3 7 8 4
f 4 8 5 1
g stone_plinth_raised
f 9 10 11 12
f 13 16 15 14
f 9 13 14 10
f 10 14 15 11
f 11 15 16 12
f 12 16 13 9
g stone_block_front_0
f 17 18 19 20
f 21 24 23 22
f 17 21 22 18
f 18 22 23 19
f 19 23 24 20
f 20 24 21 17
g stone_block_front_1
f 25 26 27 28
f 29 32 31 30
f 25 29 30 26
f 26 30 31 27
f 27 31 32 28
f 28 32 29 25
g stone_block_front_2
f 33 34 35 36
f 37 40 39 38
f 33 37 38 34
f 34 38 39 35
f 35 39 40 36
f 36 40 37 33
g stone_block_front_3
f 41 42 43 44
f 45 48 47 46
f 41 45 46 42
f 42 46 47 43
f 43 47 48 44
f 44 48 45 41
g stone_block_front_4
f 49 50 51 52
f 53 56 55 54
f 49 53 54 50
f 50 54 55 51
f 51 55 56 52
f 52 56 53 49
g stone_block_front_5
f 57 58 59 60
f 61 64 63 62
f 57 61 62 58
f 58 62 63 59
f 59 63 64 60
f 60 64 61 57
g stone_block_front_6
f 65 66 67 68
f 69 72 71 70
f 65 69 70 66
f 66 70 71 67
f 67 71 72 68
f 68 72 69 65
g stone_block_front_7
f 73 74 75 76
f 77 80 79 78
f 73 77 78 74
f 74 78 79 75
f 75 79 80 76
f 76 80 77 73
g stone_block_front_8
f 81 82 83 84
f 85 88 87 86
f 81 85 86 82
f 82 86 87 83
f 83 87 88 84
f 84 88 85 81
g stone_block_front_9
f 89 90 91 92
f 93 96 95 94
f 89 93 94 90
f 90 94 95 91
f 91 95 96 92
f 92 96 93 89
g stone_block_front_10
f 97 98 99 100
f 101 104 103 102
f 97 101 102 98
f 98 102 103 99
f 99 103 104 100
f 100 104 101 97
g stone_block_front_11
f 105 106 107 108
f 109 112 111 110
f 105 109 110 106
f 106 110 111 107
f 107 111 112 108
f 108 112 109 105
g stone_block_front_12
f 113 114 115 116
f 117 120 119 118
f 113 117 118 114
f 114 118 119 115
f 115 119 120 116
f 116 120 117 113
g stone_block_back_0
f 121 122 123 124
f 125 128 127 126
f 121 125 126 122
f 122 126 127 123
f 123 127 128 124
f 124 128 125 121
g stone_block_back_1
f 129 130 131 132
f 133 136 135 134
f 129 133 134 130
f 130 134 135 131
f 131 135 136 132
f 132 136 133 129
g stone_block_back_2
f 137 138 139 140
f 141 144 143 142
f 137 141 142 138
f 138 142 143 139
f 139 143 144 140
f 140 144 141 137
g stone_block_back_3
f 145 146 147 148
f 149 152 151 150
f 145 149 150 146
f 146 150 151 147
f 147 151 152 148
f 148 152 149 145
g stone_block_back_4
f 153 154 155 156
f 157 160 159 158
f 153 157 158 154
f 154 158 159 155
f 155 159 160 156
f 156 160 157 153
g stone_block_back_5
f 161 162 163 164
f 165 168 167 166
f 161 165 166 162
f 162 166 167 163
f 163 167 168 164
f 164 168 165 161
g stone_block_back_6
f 169 170 171 172
f 173 176 175 174
f 169 173 174 170
f 170 174 175 171
f 171 175 176 172
f 172 176 173 169
g stone_block_back_7
f 177 178 179 180
f 181 184 183 182
f 177 181 182 178
f 178 182 183 179
f 179 183 184 180
f 180 184 181 177
g stone_block_back_8
f 185 186 187 188
f 189 192 191 190
f 185 189 190 186
f 186 190 191 187
f 187 191 192 188
f 188 192 189 185
g stone_block_back_9
f 193 194 195 196
f 197 200 199 198
f 193 197 198 194
f 194 198 199 195
f 195 199 200 196
f 196 200 197 193
g stone_block_back_10
f 201 202 203 204
f 205 208 207 206
f 201 205 206 202
f 202 206 207 203
f 203 207 208 204
f 204 208 205 201
g stone_block_back_11
f 209 210 211 212
f 213 216 215 214
f 209 213 214 210
f 210 214 215 211
f 211 215 216 212
f 212 216 213 209
g stone_block_back_12
f 217 218 219 220
f 221 224 223 222
f 217 221 222 218
f 218 222 223 219
f 219 223 224 220
f 220 224 221 217
g stone_block_left_0
f 225 226 227 228
f 229 232 231 230
f 225 229 230 226
f 226 230 231 227
f 227 231 232 228
f 228 232 229 225
g stone_block_left_1
f 233 234 235 236
f 237 240 239 238
f 233 237 238 234
f 234 238 239 235
f 235 239 240 236
f 236 240 237 233
g stone_block_left_2
f 241 242 243 244
f 245 248 247 246
f 241 245 246 242
f 242 246 247 243
f 243 247 248 244
f 244 248 245 241
g stone_block_left_3
f 249 250 251 252
f 253 256 255 254
f 249 253 254 250
f 250 254 255 251
f 251 255 256 252
f 252 256 253 249
g stone_block_left_4
f 257 258 259 260
f 261 264 263 262
f 257 261 262 258
f 258 262 263 259
f 259 263 264 260
f 260 264 261 257
g stone_block_left_5
f 265 266 267 268
f 269 272 271 270
f 265 269 270 266
f 266 270 271 267
f 267 271 272 268
f 268 272 269 265
g stone_block_left_6
f 273 274 275 276
f 277 280 279 278
f 273 277 278 274
f 274 278 279 275
f 275 279 280 276
f 276 280 277 273
g stone_block_left_7
f 281 282 283 284
f 285 288 287 286
f 281 285 286 282
f 282 286 287 283
f 283 287 288 284
f 284 288 285 281
g stone_block_left_8
f 289 290 291 292
f 293 296 295 294
f 289 293 294 290
f 290 294 295 291
f 291 295 296 292
f 292 296 293 289
g stone_block_left_9
f 297 298 299 300
f 301 304 303 302
f 297 301 302 298
f 298 302 303 299
f 299 303 304 300
f 300 304 301 297
g stone_block_right_0
f 305 306 307 308
f 309 312 311 310
f 305 309 310 306
f 306 310 311 307
f 307 311 312 308
f 308 312 309 305
g stone_block_right_1
f 313 314 315 316
f 317 320 319 318
f 313 317 318 314
f 314 318 319 315
f 315 319 320 316
f 316 320 317 313
g stone_block_right_2
f 321 322 323 324
f 325 328 327 326
f 321 325 326 322
f 322 326 327 323
f 323 327 328 324
f 324 328 325 321
g stone_block_right_3
f 329 330 331 332
f 333 336 335 334
f 329 333 334 330
f 330 334 335 331
f 331 335 336 332
f 332 336 333 329
g stone_block_right_4
f 337 338 339 340
f 341 344 343 342
f 337 341 342 338
f 338 342 343 339
f 339 343 344 340
f 340 344 341 337
g stone_block_right_5
f 345 346 347 348
f 349 352 351 350
f 345 349 350 346
f 346 350 351 347
f 347 351 352 348
f 348 352 349 345
g stone_block_right_6
f 353 354 355 356
f 357 360 359 358
f 353 357 358 354
f 354 358 359 355
f 355 359 360 356
f 356 360 357 353
g stone_block_right_7
f 361 362 363 364
f 365 368 367 366
f 361 365 366 362
f 362 366 367 363
f 363 367 368 364
f 364 368 365 361
g stone_block_right_8
f 369 370 371 372
f 373 376 375 374
f 369 373 374 370
f 370 374 375 371
f 371 375 376 372
f 372 376 373 369
g stone_block_right_9
f 377 378 379 380
f 381 384 383 382
f 377 381 382 378
f 378 382 383 379
f 379 383 384 380
f 380 384 381 377
g lower_front_left_wall
usemtl Mat_BrickWall
f 385 386 387 388
f 389 392 391 390
f 385 389 390 386
f 386 390 391 387
f 387 391 392 388
f 388 392 389 385
g lower_front_right_wall
f 393 394 395 396
f 397 400 399 398
f 393 397 398 394
f 394 398 399 395
f 395 399 400 396
f 396 400 397 393
g lower_front_above_door
f 401 402 403 404
f 405 408 407 406
f 401 405 406 402
f 402 406 407 403
f 403 407 408 404
f 404 408 405 401
g lower_main_door_slab
usemtl Mat_WoodDark
f 409 410 411 412
f 413 416 415 414
f 409 413 414 410
f 410 414 415 411
f 411 415 416 412
f 412 416 413 409
g lower_main_door_plank_0
usemtl Mat_WoodWeathered
f 417 418 419 420
f 421 424 423 422
f 417 421 422 418
f 418 422 423 419
f 419 423 424 420
f 420 424 421 417
g lower_main_door_plank_1
f 425 426 427 428
f 429 432 431 430
f 425 429 430 426
f 426 430 431 427
f 427 431 432 428
f 428 432 429 425
g lower_main_door_plank_2
f 433 434 435 436
f 437 440 439 438
f 433 437 438 434
f 434 438 439 435
f 435 439 440 436
f 436 440 437 433
g lower_main_door_plank_3
f 441 442 443 444
f 445 448 447 446
f 441 445 446 442
f 442 446 447 443
f 443 447 448 444
f 444 448 445 441
g lower_main_door_plank_4
f 449 450 451 452
f 453 456 455 454
f 449 453 454 450
f 450 454 455 451
f 451 455 456 452
f 452 456 453 449
g lower_main_door_frame_l
usemtl Mat_WoodDark
f 457 458 459 460
f 461 464 463 462
f 457 461 462 458
f 458 462 463 459
f 459 463 464 460
f 460 464 461 457
g lower_main_door_frame_r
f 465 466 467 468
f 469 472 471 470
f 465 469 470 466
f 466 470 471 467
f 467 471 472 468
f 468 472 469 465
g lower_main_door_lintel
f 473 474 475 476
f 477 480 479 478
f 473 477 478 474
f 474 478 479 475
f 475 479 480 476
f 476 480 477 473
g lower_main_door_band_0
usemtl Mat_MetalDark
f 481 482 483 484
f 485 488 487 486
f 481 485 486 482
f 482 486 487 483
f 483 487 488 484
f 484 488 485 481
g lower_main_door_band_1
f 489 490 491 492
f 493 496 495 494
f 489 493 494 490
f 490 494 495 491
f 491 495 496 492
f 492 496 493 489
g lower_main_door_band_2
f 497 498 499 500
f 501 504 503 502
f 497 501 502 498
f 498 502 503 499
f 499 503 504 500
f 500 504 501 497
g lower_main_door_hinge_pin_0
f 505 507 508 506
f 507 509 510 508
f 509 511 512 510
f 511 513 514 512
f 513 515 516 514
f 515 517 518 516
f 517 519 520 518
f 519 521 522 520
f 521 523 524 522
f 523 525 526 524
f 525 527 528 526
f 527 505 506 528
g lower_main_door_hinge_pin_0_capA
f 527 525 523 521 519 517 515 513 511 509 507 505
g lower_main_door_hinge_pin_0_capB
f 506 508 510 512 514 516 518 520 522 524 526 528
g lower_main_door_hinge_pin_1
f 529 531 532 530
f 531 533 534 532
f 533 535 536 534
f 535 537 538 536
f 537 539 540 538
f 539 541 542 540
f 541 543 544 542
f 543 545 546 544
f 545 547 548 546
f 547 549 550 548
f 549 551 552 550
f 551 529 530 552
g lower_main_door_hinge_pin_1_capA
f 551 549 547 545 543 541 539 537 535 533 531 529
g lower_main_door_hinge_pin_1_capB
f 530 532 534 536 538 540 542 544 546 548 550 552
g lower_main_door_knob
f 553 554 566 565
f 554 555 567 566
f 555 556 568 567
f 556 557 569 568
f 557 558 570 569
f 558 559 571 570
f 559 560 572 571
f 560 561 573 572
f 561 562 574 573
f 562 563 575 574
f 563 564 576 575
f 564 553 565 576
f 565 566 578 577
f 566 567 579 578
f 567 568 580 579
f 568 569 581 580
f 569 570 582 581
f 570 571 583 582
f 571 572 584 583
f 572 573 585 584
f 573 574 586 585
f 574 575 587 586
f 575 576 588 587
f 576 565 577 588
f 577 578 590 589
f 578 579 591 590
f 579 580 592 591
f 580 581 593 592
f 581 582 594 593
f 582 583 595 594
f 583 584 596 595
f 584 585 597 596
f 585 586 598 597
f 586 587 599 598
f 587 588 600 599
f 588 577 589 600
f 589 590 602 601
f 590 591 603 602
f 591 592 604 603
f 592 593 605 604
f 593 594 606 605
f 594 595 607 606
f 595 596 608 607
f 596 597 609 608
f 597 598 610 609
f 598 599 611 610
f 599 600 612 611
f 600 589 601 612
f 601 602 614 613
f 602 603 615 614
f 603 604 616 615
f 604 605 617 616
f 605 606 618 617
f 606 607 619 618
f 607 608 620 619
f 608 609 621 620
f 609 610 622 621
f 610 611 623 622
f 611 612 624 623
f 612 601 613 624
g lower_back_wall
usemtl Mat_BrickWall
f 625 626 627 628
f 629 632 631 630
f 625 629 630 626
f 626 630 631 627
f 627 631 632 628
f 628 632 629 625
g lower_left_wall
f 633 634 635 636
f 637 640 639 638
f 633 637 638 634
f 634 638 639 635
f 635 639 640 636
f 636 640 637 633
g lower_right_wall
f 641 642 643 644
f 645 648 647 646
f 641 645 646 642
f 642 646 647 643
f 643 647 648 644
f 644 648 645 641
g lower_floor_cap
usemtl Mat_WoodDark
f 649 650 651 652
f 653 656 655 654
f 649 653 654 650
f 650 654 655 651
f 651 655 656 652
f 652 656 653 649
g lower_ceiling_cap
f 657 658 659 660
f 661 664 663 662
f 657 661 662 658
f 658 662 663 659
f 659 663 664 660
f 660 664 661 657
g lower_front_course_89
f 665 666 667 668
f 669 672 671 670
f 665 669 670 666
f 666 670 671 667
f 667 671 672 668
f 668 672 669 665
g lower_back_course_89
f 673 674 675 676
f 677 680 679 678
f 673 677 678 674
f 674 678 679 675
f 675 679 680 676
f 676 680 677 673
g lower_front_course_534
f 681 682 683 684
f 685 688 687 686
f 681 685 686 682
f 682 686 687 683
f 683 687 688 684
f 684 688 685 681
g lower_back_course_534
f 689 690 691 692
f 693 696 695 694
f 689 693 694 690
f 690 694 695 691
f 691 695 696 692
f 692 696 693 689
g lower_front_post_-7_9
f 697 698 699 700
f 701 704 703 702
f 697 701 702 698
f 698 702 703 699
f 699 703 704 700
f 700 704 701 697
g lower_front_post_7_9
f 705 706 707 708
f 709 712 711 710
f 705 709 710 706
f 706 710 711 707
f 707 711 712 708
f 708 712 709 705
g lower_front_post_-4_0
f 713 714 715 716
f 717 720 719 718
f 713 717 718 714
f 714 718 719 715
f 715 719 720 716
f 716 720 717 713
g lower_front_post_4_0
f 721 722 723 724
f 725 728 727 726
f 721 725 726 722
f 722 726 727 723
f 723 727 728 724
f 724 728 725 721
g lower_back_post_-7_9
f 729 730 731 732
f 733 736 735 734
f 729 733 734 730
f 730 734 735 731
f 731 735 736 732
f 732 736 733 729
g lower_back_post_7_9
f 737 738 739 740
f 741 744 743 742
f 737 741 742 738
f 738 742 743 739
f 739 743 744 740
f 740 744 741 737
g lower_front_window_0_glass
usemtl Mat_GlassDirty
f 745 746 747 748
f 749 752 751 750
f 745 749 750 746
f 746 750 751 747
f 747 751 752 748
f 748 752 749 745
g lower_front_window_0_frame_top
usemtl Mat_WoodDark
f 753 754 755 756
f 757 760 759 758
f 753 757 758 754
f 754 758 759 755
f 755 759 760 756
f 756 760 757 753
g lower_front_window_0_frame_mid_v
f 761 762 763 764
f 765 768 767 766
f 761 765 766 762
f 762 766 767 763
f 763 767 768 764
f 764 768 765 761
g lower_front_window_0_frame_l
f 769 770 771 772
f 773 776 775 774
f 769 773 774 770
f 770 774 775 771
f 771 775 776 772
f 772 776 773 769
g lower_front_window_0_frame_r
f 777 778 779 780
f 781 784 783 782
f 777 781 782 778
f 778 782 783 779
f 779 783 784 780
f 780 784 781 777
g lower_front_window_0_sill
f 785 786 787 788
f 789 792 791 790
f 785 789 790 786
f 786 790 791 787
f 787 791 792 788
f 788 792 789 785
g lower_front_window_0_shutter_l
usemtl Mat_WoodWeathered
f 793 794 795 796
f 797 800 799 798
f 793 797 798 794
f 794 798 799 795
f 795 799 800 796
f 796 800 797 793
g lower_front_window_0_shutter_r
f 801 802 803 804
f 805 808 807 806
f 801 805 806 802
f 802 806 807 803
f 803 807 808 804
f 804 808 805 801
g lower_front_window_1_glass
usemtl Mat_GlassDirty
f 809 810 811 812
f 813 816 815 814
f 809 813 814 810
f 810 814 815 811
f 811 815 816 812
f 812 816 813 809
g lower_front_window_1_frame_top
usemtl Mat_WoodDark
f 817 818 819 820
f 821 824 823 822
f 817 821 822 818
f 818 822 823 819
f 819 823 824 820
f 820 824 821 817
g lower_front_window_1_frame_mid_v
f 825 826 827 828
f 829 832 831 830
f 825 829 830 826
f 826 830 831 827
f 827 831 832 828
f 828 832 829 825
g lower_front_window_1_frame_l
f 833 834 835 836
f 837 840 839 838
f 833 837 838 834
f 834 838 839 835
f 835 839 840 836
f 836 840 837 833
g lower_front_window_1_frame_r
f 841 842 843 844
f 845 848 847 846
f 841 845 846 842
f 842 846 847 843
f 843 847 848 844
f 844 848 845 841
g lower_front_window_1_sill
f 849 850 851 852
f 853 856 855 854
f 849 853 854 850
f 850 854 855 851
f 851 855 856 852
f 852 856 853 849
g lower_front_window_1_shutter_l
usemtl Mat_WoodWeathered
f 857 858 859 860
f 861 864 863 862
f 857 861 862 858
f 858 862 863 859
f 859 863 864 860
f 860 864 861 857
g lower_front_window_1_shutter_r
f 865 866 867 868
f 869 872 871 870
f 865 869 870 866
f 866 870 871 867
f 867 871 872 868
f 868 872 869 865
