# GalakasMidCity_INT_TavernBar_Counter_01
mtllib GalakasMidCity_INT_TavernBar_Counter_01.mtl
v -1.30000 0.89000 -0.55000
v 1.30000 0.89000 -0.55000
v 1.30000 1.11000 -0.55000
v -1.30000 1.11000 -0.55000
v -1.30000 0.89000 0.55000
v 1.30000 0.89000 0.55000
v 1.30000 1.11000 0.55000
v -1.30000 1.11000 0.55000
v -1.10000 0.10000 -0.48500
v -1.10000 0.95000 -0.48500
v -1.13821 0.10000 -0.47259
v -1.13821 0.95000 -0.47259
v -1.16182 0.10000 -0.44009
v -1.16182 0.95000 -0.44009
v -1.16182 0.10000 -0.39991
v -1.16182 0.95000 -0.39991
v -1.13821 0.10000 -0.36741
v -1.13821 0.95000 -0.36741
v -1.10000 0.10000 -0.35500
v -1.10000 0.95000 -0.35500
v -1.06179 0.10000 -0.36741
v -1.06179 0.95000 -0.36741
v -1.03818 0.10000 -0.39991
v -1.03818 0.95000 -0.39991
v -1.03818 0.10000 -0.44009
v -1.03818 0.95000 -0.44009
v -1.06179 0.10000 -0.47259
v -1.06179 0.95000 -0.47259
v -1.10000 0.10000 0.35500
v -1.10000 0.95000 0.35500
v -1.13821 0.10000 0.36741
v -1.13821 0.95000 0.36741
v -1.16182 0.10000 0.39991
v -1.16182 0.95000 0.39991
v -1.16182 0.10000 0.44009
v -1.16182 0.95000 0.44009
v -1.13821 0.10000 0.47259
v -1.13821 0.95000 0.47259
v -1.10000 0.10000 0.48500
v -1.10000 0.95000 0.48500
v -1.06179 0.10000 0.47259
v -1.06179 0.95000 0.47259
v -1.03818 0.10000 0.44009
v -1.03818 0.95000 0.44009
v -1.03818 0.10000 0.39991
v -1.03818 0.95000 0.39991
v -1.06179 0.10000 0.36741
v -1.06179 0.95000 0.36741
v 1.10000 0.10000 -0.48500
v 1.10000 0.95000 -0.48500
v 1.06179 0.10000 -0.47259
v 1.06179 0.95000 -0.47259
v 1.03818 0.10000 -0.44009
v 1.03818 0.95000 -0.44009
v 1.03818 0.10000 -0.39991
v 1.03818 0.95000 -0.39991
v 1.06179 0.10000 -0.36741
v 1.06179 0.95000 -0.36741
v 1.10000 0.10000 -0.35500
v 1.10000 0.95000 -0.35500
v 1.13821 0.10000 -0.36741
v 1.13821 0.95000 -0.36741
v 1.16182 0.10000 -0.39991
v 1.16182 0.95000 -0.39991
v 1.16182 0.10000 -0.44009
v 1.16182 0.95000 -0.44009
v 1.13821 0.10000 -0.47259
v 1.13821 0.95000 -0.47259
v 1.10000 0.10000 0.35500
v 1.10000 0.95000 0.35500
v 1.06179 0.10000 0.36741
v 1.06179 0.95000 0.36741
v 1.03818 0.10000 0.39991
v 1.03818 0.95000 0.39991
v 1.03818 0.10000 0.44009
v 1.03818 0.95000 0.44009
v 1.06179 0.10000 0.47259
v 1.06179 0.95000 0.47259
v 1.10000 0.10000 0.48500
v 1.10000 0.95000 0.48500
v 1.13821 0.10000 0.47259
v 1.13821 0.95000 0.47259
v 1.16182 0.10000 0.44009
v 1.16182 0.95000 0.44009
v 1.16182 0.10000 0.39991
v 1.16182 0.95000 0.39991
v 1.13821 0.10000 0.36741
v 1.13821 0.95000 0.36741
v -1.40000 1.00000 0.32500
v 1.40000 1.00000 0.32500
v 1.40000 1.90000 0.32500
v -1.40000 1.90000 0.32500
v -1.40000 1.00000 0.57500
v 1.40000 1.00000 0.57500
v 1.40000 1.90000 0.57500
v -1.40000 1.90000 0.57500
v -1.00000 1.85000 0.16000
v -1.00000 2.25000 0.16000
v -1.04500 1.85000 0.17206
v -1.04500 2.25000 0.17206
v -1.07794 1.85000 0.20500
v -1.07794 2.25000 0.20500
v -1.09000 1.85000 0.25000
v -1.09000 2.25000 0.25000
v -1.07794 1.85000 0.29500
v -1.07794 2.25000 0.29500
v -1.04500 1.85000 0.32794
v -1.04500 2.25000 0.32794
v -1.00000 1.85000 0.34000
v -1.00000 2.25000 0.34000
v -0.95500 1.85000 0.32794
v -0.95500 2.25000 0.32794
v -0.92206 1.85000 0.29500
v -0.92206 2.25000 0.29500
v -0.91000 1.85000 0.25000
v -0.91000 2.25000 0.25000
v -0.92206 1.85000 0.20500
v -0.92206 2.25000 0.20500
v -0.95500 1.85000 0.17206
v -0.95500 2.25000 0.17206
v -0.50000 1.85000 0.16000
v -0.50000 2.25000 0.16000
v -0.54500 1.85000 0.17206
v -0.54500 2.25000 0.17206
v -0.57794 1.85000 0.20500
v -0.57794 2.25000 0.20500
v -0.59000 1.85000 0.25000
v -0.59000 2.25000 0.25000
v -0.57794 1.85000 0.29500
v -0.57794 2.25000 0.29500
v -0.54500 1.85000 0.32794
v -0.54500 2.25000 0.32794
v -0.50000 1.85000 0.34000
v -0.50000 2.25000 0.34000
v -0.45500 1.85000 0.32794
v -0.45500 2.25000 0.32794
v -0.42206 1.85000 0.29500
v -0.42206 2.25000 0.29500
v -0.41000 1.85000 0.25000
v -0.41000 2.25000 0.25000
v -0.42206 1.85000 0.20500
v -0.42206 2.25000 0.20500
v -0.45500 1.85000 0.17206
v -0.45500 2.25000 0.17206
v 0.00000 1.85000 0.16000
v 0.00000 2.25000 0.16000
v -0.04500 1.85000 0.17206
v -0.04500 2.25000 0.17206
v -0.07794 1.85000 0.20500
v -0.07794 2.25000 0.20500
v -0.09000 1.85000 0.25000
v -0.09000 2.25000 0.25000
v -0.07794 1.85000 0.29500
v -0.07794 2.25000 0.29500
v -0.04500 1.85000 0.32794
v -0.04500 2.25000 0.32794
v -0.00000 1.85000 0.34000
v -0.00000 2.25000 0.34000
v 0.04500 1.85000 0.32794
v 0.04500 2.25000 0.32794
v 0.07794 1.85000 0.29500
v 0.07794 2.25000 0.29500
v 0.09000 1.85000 0.25000
v 0.09000 2.25000 0.25000
v 0.07794 1.85000 0.20500
v 0.07794 2.25000 0.20500
v 0.04500 1.85000 0.17206
v 0.04500 2.25000 0.17206
v 0.50000 1.85000 0.16000
v 0.50000 2.25000 0.16000
v 0.45500 1.85000 0.17206
v 0.45500 2.25000 0.17206
v 0.42206 1.85000 0.20500
v 0.42206 2.25000 0.20500
v 0.41000 1.85000 0.25000
v 0.41000 2.25000 0.25000
v 0.42206 1.85000 0.29500
v 0.42206 2.25000 0.29500
v 0.45500 1.85000 0.32794
v 0.45500 2.25000 0.32794
v 0.50000 1.85000 0.34000
v 0.50000 2.25000 0.34000
v 0.54500 1.85000 0.32794
v 0.54500 2.25000 0.32794
v 0.57794 1.85000 0.29500
v 0.57794 2.25000 0.29500
v 0.59000 1.85000 0.25000
v 0.59000 2.25000 0.25000
v 0.57794 1.85000 0.20500
v 0.57794 2.25000 0.20500
v 0.54500 1.85000 0.17206
v 0.54500 2.25000 0.17206
v 1.00000 1.85000 0.16000
v 1.00000 2.25000 0.16000
v 0.95500 1.85000 0.17206
v 0.95500 2.25000 0.17206
v 0.92206 1.85000 0.20500
v 0.92206 2.25000 0.20500
v 0.91000 1.85000 0.25000
v 0.91000 2.25000 0.25000
v 0.92206 1.85000 0.29500
v 0.92206 2.25000 0.29500
v 0.95500 1.85000 0.32794
v 0.95500 2.25000 0.32794
v 1.00000 1.85000 0.34000
v 1.00000 2.25000 0.34000
v 1.04500 1.85000 0.32794
v 1.04500 2.25000 0.32794
v 1.07794 1.85000 0.29500
v 1.07794 2.25000 0.29500
v 1.09000 1.85000 0.25000
v 1.09000 2.25000 0.25000
v 1.07794 1.85000 0.20500
v 1.07794 2.25000 0.20500
v 1.04500 1.85000 0.17206
v 1.04500 2.25000 0.17206
g table_top
usemtl Mat_WoodWeathered
f 1 2 3 4
f 5 8 7 6
f 1 5 6 2
f 2 6 7 3
f 3 7 8 4
f 4 8 5 1
g table_leg_-1_1_-0_42
usemtl Mat_WoodDark
f 9 11 12 10
f 11 13 14 12
f 13 15 16 14
f 15 17 18 16
f 17 19 20 18
f 19 21 22 20
f 21 23 24 22
f 23 25 26 24
f 25 27 28 26
f 27 9 10 28
g table_leg_-1_1_-0_42_capA
f 27 25 23 21 19 17 15 13 11 9
g table_leg_-1_1_-0_42_capB
f 10 12 14 16 18 20 22 24 26 28
g table_leg_-1_1_0_42
f 29 31 32 30
f 31 33 34 32
f 33 35 36 34
f 35 37 38 36
f 37 39 40 38
f 39 41 42 40
f 41 43 44 42
f 43 45 46 44
f 45 47 48 46
f 47 29 30 48
g table_leg_-1_1_0_42_capA
f 47 45 43 41 39 37 35 33 31 29
g table_leg_-1_1_0_42_capB
f 30 32 34 36 38 40 42 44 46 48
g table_leg_1_1_-0_42
f 49 51 52 50
f 51 53 54 52
f 53 55 56 54
f 55 57 58 56
f 57 59 60 58
f 59 61 62 60
f 61 63 64 62
f 63 65 66 64
f 65 67 68 66
f 67 49 50 68
g table_leg_1_1_-0_42_capA
f 67 65 63 61 59 57 55 53 51 49
g table_leg_1_1_-0_42_capB
f 50 52 54 56 58 60 62 64 66 68
g table_leg_1_1_0_42
f 69 71 72 70
f 71 73 74 72
f 73 75 76 74
f 75 77 78 76
f 77 79 80 78
f 79 81 82 80
f 81 83 84 82
f 83 85 86 84
f 85 87 88 86
f 87 69 70 88
g table_leg_1_1_0_42_capA
f 87 85 83 81 79 77 75 73 71 69
g table_leg_1_1_0_42_capB
f 70 72 74 76 78 80 82 84 86 88
g bar_backboard
f 89 90 91 92
f 93 96 95 94
f 89 93 94 90
f 90 94 95 91
f 91 95 96 92
f 92 96 93 89
g bottle_0
usemtl Mat_Ceramic
f 97 99 100 98
f 99 101 102 100
f 101 103 104 102
f 103 105 106 104
f 105 107 108 106
f 107 109 110 108
f 109 111 112 110
f 111 113 114 112
f 113 115 116 114
f 115 117 118 116
f 117 119 120 118
f 119 97 98 120
g bottle_0_capA
f 119 117 115 113 111 109 107 105 103 101 99 97
g bottle_0_capB
f 98 100 102 104 106 108 110 112 114 116 118 120
g bottle_1
f 121 123 124 122
f 123 125 126 124
f 125 127 128 126
f 127 129 130 128
f 129 131 132 130
f 131 133 134 132
f 133 135 136 134
f 135 137 138 136
f 137 139 140 138
f 139 141 142 140
f 141 143 144 142
f 143 121 122 144
g bottle_1_capA
f 143 141 139 137 135 133 131 129 127 125 123 121
g bottle_1_capB
f 122 124 126 128 130 132 134 136 138 140 142 144
g bottle_2
f 145 147 148 146
f 147 149 150 148
f 149 151 152 150
f 151 153 154 152
f 153 155 156 154
f 155 157 158 156
f 157 159 160 158
f 159 161 162 160
f 161 163 164 162
f 163 165 166 164
f 165 167 168 166
f 167 145 146 168
g bottle_2_capA
f 167 165 163 161 159 157 155 153 151 149 147 145
g bottle_2_capB
f 146 148 150 152 154 156 158 160 162 164 166 168
g bottle_3
f 169 171 172 170
f 171 173 174 172
f 173 175 176 174
f 175 177 178 176
f 177 179 180 178
f 179 181 182 180
f 181 183 184 182
f 183 185 186 184
f 185 187 188 186
f 187 189 190 188
f 189 191 192 190
f 191 169 170 192
g bottle_3_capA
f 191 189 187 185 183 181 179 177 175 173 171 169
g bottle_3_capB
f 170 172 174 176 178 180 182 184 186 188 190 192
g bottle_4
f 193 195 196 194
f 195 197 198 196
f 197 199 200 198
f 199 201 202 200
f 201 203 204 202
f 203 205 206 204
f 205 207 208 206
f 207 209 210 208
f 209 211 212 210
f 211 213 214 212
f 213 215 216 214
f 215 193 194 216
g bottle_4_capA
f 215 213 211 209 207 205 203 201 199 197 195 193
g bottle_4_capB
f 194 196 198 200 202 204 206 208 210 212 214 216
