# GalakasMidCity_INT_Table_RoundStools_01
mtllib GalakasMidCity_INT_Table_RoundStools_01.mtl
v -0.47500 0.56000 -0.47500
v 0.47500 0.56000 -0.47500
v 0.47500 0.74000 -0.47500
v -0.47500 0.74000 -0.47500
v -0.47500 0.56000 0.47500
v 0.47500 0.56000 0.47500
v 0.47500 0.74000 0.47500
v -0.47500 0.74000 0.47500
v -0.47500 0.72500 0.34000
v 0.47500 0.72500 0.34000
v 0.47500 1.97500 0.34000
v -0.47500 1.97500 0.34000
v -0.47500 0.72500 0.50000
v 0.47500 0.72500 0.50000
v 0.47500 1.97500 0.50000
v -0.47500 1.97500 0.50000
v -0.38000 0.05000 -0.43500
v -0.38000 0.62000 -0.43500
v -0.41233 0.05000 -0.42450
v -0.41233 0.62000 -0.42450
v -0.43231 0.05000 -0.39700
v -0.43231 0.62000 -0.39700
v -0.43231 0.05000 -0.36300
v -0.43231 0.62000 -0.36300
v -0.41233 0.05000 -0.33550
v -0.41233 0.62000 -0.33550
v -0.38000 0.05000 -0.32500
v -0.38000 0.62000 -0.32500
v -0.34767 0.05000 -0.33550
v -0.34767 0.62000 -0.33550
v -0.32769 0.05000 -0.36300
v -0.32769 0.62000 -0.36300
v -0.32769 0.05000 -0.39700
v -0.32769 0.62000 -0.39700
v -0.34767 0.05000 -0.42450
v -0.34767 0.62000 -0.42450
v -0.38000 0.05000 0.32500
v -0.38000 0.62000 0.32500
v -0.41233 0.05000 0.33550
v -0.41233 0.62000 0.33550
v -0.43231 0.05000 0.36300
v -0.43231 0.62000 0.36300
v -0.43231 0.05000 0.39700
v -0.43231 0.62000 0.39700
v -0.41233 0.05000 0.42450
v -0.41233 0.62000 0.42450
v -0.38000 0.05000 0.43500
v -0.38000 0.62000 0.43500
v -0.34767 0.05000 0.42450
v -0.34767 0.62000 0.42450
v -0.32769 0.05000 0.39700
v -0.32769 0.62000 0.39700
v -0.32769 0.05000 0.36300
v -0.32769 0.62000 0.36300
v -0.34767 0.05000 0.33550
v -0.34767 0.62000 0.33550
v 0.38000 0.05000 -0.43500
v 0.38000 0.62000 -0.43500
v 0.34767 0.05000 -0.42450
v 0.34767 0.62000 -0.42450
v 0.32769 0.05000 -0.39700
v 0.32769 0.62000 -0.39700
v 0.32769 0.05000 -0.36300
v 0.32769 0.62000 -0.36300
v 0.34767 0.05000 -0.33550
v 0.34767 0.62000 -0.33550
v 0.38000 0.05000 -0.32500
v 0.38000 0.62000 -0.32500
v 0.41233 0.05000 -0.33550
v 0.41233 0.62000 -0.33550
v 0.43231 0.05000 -0.36300
v 0.43231 0.62000 -0.36300
v 0.43231 0.05000 -0.39700
v 0.43231 0.62000 -0.39700
v 0.41233 0.05000 -0.42450
v 0.41233 0.62000 -0.42450
v 0.38000 0.05000 0.32500
v 0.38000 0.62000 0.32500
v 0.34767 0.05000 0.33550
v 0.34767 0.62000 0.33550
v 0.32769 0.05000 0.36300
v 0.32769 0.62000 0.36300
v 0.32769 0.05000 0.39700
v 0.32769 0.62000 0.39700
v 0.34767 0.05000 0.42450
v 0.34767 0.62000 0.42450
v 0.38000 0.05000 0.43500
v 0.38000 0.62000 0.43500
v 0.41233 0.05000 0.42450
v 0.41233 0.62000 0.42450
v 0.43231 0.05000 0.39700
v 0.43231 0.62000 0.39700
v 0.43231 0.05000 0.36300
v 0.43231 0.62000 0.36300
v 0.41233 0.05000 0.33550
v 0.41233 0.62000 0.33550
g seat
usemtl Mat_WoodWeathered
f 1 2 3 4
f 5 8 7 6
f 1 5 6 2
f 2 6 7 3
f 3 7 8 4
f 4 8 5 1
g back
usemtl Mat_WoodDark
f 9 10 11 12
f 13 16 15 14
f 9 13 14 10
f 10 14 15 11
f 11 15 16 12
f 12 16 13 9
g leg_-0_38_-0_38
f 17 19 20 18
f 19 21 22 20
f 21 23 24 22
f 23 25 26 24
f 25 27 28 26
f 27 29 30 28
f 29 31 32 30
f 31 33 34 32
f 33 35 36 34
f 35 17 18 36
g leg_-0_38_-0_38_capA
f 35 33 31 29 27 25 23 21 19 17
g leg_-0_38_-0_38_capB
f 18 20 22 24 26 28 30 32 34 36
g leg_-0_38_0_38
f 37 39 40 38
f 39 41 42 40
f 41 43 44 42
f 43 45 46 44
f 45 47 48 46
f 47 49 50 48
f 49 51 52 50
f 51 53 54 52
f 53 55 56 54
f 55 37 38 56
g leg_-0_38_0_38_capA
f 55 53 51 49 47 45 43 41 39 37
g leg_-0_38_0_38_capB
f 38 40 42 44 46 48 50 52 54 56
g leg_0_38_-0_38
f 57 59 60 58
f 59 61 62 60
f 61 63 64 62
f 63 65 66 64
f 65 67 68 66
f 67 69 70 68
f 69 71 72 70
f 71 73 74 72
f 73 75 76 74
f 75 57 58 76
g leg_0_38_-0_38_capA
f 75 73 71 69 67 65 63 61 59 57
g leg_0_38_-0_38_capB
f 58 60 62 64 66 68 70 72 74 76
g leg_0_38_0_38
f 77 79 80 78
f 79 81 82 80
f 81 83 84 82
f 83 85 86 84
f 85 87 88 86
f 87 89 90 88
f 89 91 92 90
f 91 93 94 92
f 93 95 96 94
f 95 77 78 96
g leg_0_38_0_38_capA
f 95 93 91 89 87 85 83 81 79 77
g leg_0_38_0_38_capB
f 78 80 82 84 86 88 90 92 94 96
