# GalakasMidCity_INT_KitchenHearth_01
mtllib GalakasMidCity_INT_KitchenHearth_01.mtl
v -0.90000 0.00000 -0.50000
v 0.90000 0.00000 -0.50000
v 0.90000 1.00000 -0.50000
v -0.90000 1.00000 -0.50000
v -0.90000 0.00000 0.50000
v 0.90000 0.00000 0.50000
v 0.90000 1.00000 0.50000
v -0.90000 1.00000 0.50000
v -0.60000 0.47500 -0.39500
v 0.60000 0.47500 -0.39500
v 0.60000 1.12500 -0.39500
v -0.60000 1.12500 -0.39500
v -0.60000 0.47500 0.15500
v 0.60000 0.47500 0.15500
v 0.60000 1.12500 0.15500
v -0.60000 1.12500 0.15500
v -0.45000 0.72000 -0.33000
v 0.45000 0.72000 -0.33000
v -0.45000 0.69061 -0.33955
v 0.45000 0.69061 -0.33955
v -0.45000 0.67245 -0.36455
v 0.45000 0.67245 -0.36455
v -0.45000 0.67245 -0.39545
v 0.45000 0.67245 -0.39545
v -0.45000 0.69061 -0.42045
v 0.45000 0.69061 -0.42045
v -0.45000 0.72000 -0.43000
v 0.45000 0.72000 -0.43000
v -0.45000 0.74939 -0.42045
v 0.45000 0.74939 -0.42045
v -0.45000 0.76755 -0.39545
v 0.45000 0.76755 -0.39545
v -0.45000 0.76755 -0.36455
v 0.45000 0.76755 -0.36455
v -0.45000 0.74939 -0.33955
v 0.45000 0.74939 -0.33955
v 0.72540 1.05000 0.14919
v 0.92540 1.25000 0.24919
v 0.74938 1.02590 0.14944
v 0.94938 1.22590 0.24944
v 0.77359 1.01101 0.13080
v 0.97359 1.21101 0.23080
v 0.78879 1.01101 0.10039
v 0.98879 1.21101 0.20039
v 0.78918 1.02590 0.06984
v 0.98918 1.22590 0.16984
v 0.77460 1.05000 0.05081
v 0.97460 1.25000 0.15081
v 0.75062 1.07410 0.05056
v 0.95062 1.27410 0.15056
v 0.72641 1.08899 0.06920
v 0.92641 1.28899 0.16920
v 0.71121 1.08899 0.09961
v 0.91121 1.28899 0.19961
v 0.71082 1.07410 0.13016
v 0.91082 1.27410 0.23016
v 0.92540 1.25000 0.15081
v 0.72540 1.55000 0.25081
v 0.90692 1.23068 0.17179
v 0.70692 1.53068 0.27179
v 0.90489 1.21874 0.20355
v 0.70489 1.51874 0.30355
v 0.92009 1.21874 0.23396
v 0.72009 1.51874 0.33396
v 0.94672 1.23068 0.25139
v 0.74672 1.53068 0.35139
v 0.97460 1.25000 0.24919
v 0.77460 1.55000 0.34919
v 0.99308 1.26932 0.22821
v 0.79308 1.56932 0.32821
v 0.99511 1.28126 0.19645
v 0.79511 1.58126 0.29645
v 0.97991 1.28126 0.16604
v 0.77991 1.58126 0.26604
v 0.95328 1.26932 0.14861
v 0.75328 1.56932 0.24861
v 0.95000 1.30775 0.20000
v 0.95000 1.30775 0.20000
v 0.95000 1.30775 0.20000
v 0.95000 1.30775 0.20000
v 0.95000 1.30775 0.20000
v 0.95000 1.30775 0.20000
v 0.95000 1.30775 0.20000
v 0.95000 1.30775 0.20000
v 0.95000 1.30775 0.20000
v 0.95000 1.30775 0.20000
v 0.98394 1.29672 0.20000
v 0.97746 1.29672 0.21995
v 0.96049 1.29672 0.23228
v 0.93951 1.29672 0.23228
v 0.92254 1.29672 0.21995
v 0.91606 1.29672 0.20000
v 0.92254 1.29672 0.18005
v 0.93951 1.29672 0.16772
v 0.96049 1.29672 0.16772
v 0.97746 1.29672 0.18005
v 1.00492 1.26785 0.20000
v 0.99443 1.26785 0.23228
v 0.96697 1.26785 0.25224
v 0.93303 1.26785 0.25224
v 0.90557 1.26785 0.23228
v 0.89508 1.26785 0.20000
v 0.90557 1.26785 0.16772
v 0.93303 1.26785 0.14776
v 0.96697 1.26785 0.14776
v 0.99443 1.26785 0.16772
v 1.00492 1.23215 0.20000
v 0.99443 1.23215 0.23228
v 0.96697 1.23215 0.25224
v 0.93303 1.23215 0.25224
v 0.90557 1.23215 0.23228
v 0.89508 1.23215 0.20000
v 0.90557 1.23215 0.16772
v 0.93303 1.23215 0.14776
v 0.96697 1.23215 0.14776
v 0.99443 1.23215 0.16772
v 0.98394 1.20328 0.20000
v 0.97746 1.20328 0.21995
v 0.96049 1.20328 0.23228
v 0.93951 1.20328 0.23228
v 0.92254 1.20328 0.21995
v 0.91606 1.20328 0.20000
v 0.92254 1.20328 0.18005
v 0.93951 1.20328 0.16772
v 0.96049 1.20328 0.16772
v 0.97746 1.20328 0.18005
v 0.95000 1.19225 0.20000
v 0.95000 1.19225 0.20000
v 0.95000 1.19225 0.20000
v 0.95000 1.19225 0.20000
v 0.95000 1.19225 0.20000
v 0.95000 1.19225 0.20000
v 0.95000 1.19225 0.20000
v 0.95000 1.19225 0.20000
v 0.95000 1.19225 0.20000
v 0.95000 1.19225 0.20000
g hearth_stone
usemtl Mat_StoneFoundation
f 1 2 3 4
f 5 8 7 6
f 1 5 6 2
f 2 6 7 3
f 3 7 8 4
f 4 8 5 1
g hearth_firebox
usemtl Mat_SootyBrick
f 9 10 11 12
f 13 16 15 14
f 9 13 14 10
f 10 14 15 11
f 11 15 16 12
f 12 16 13 9
g iron_bar
usemtl Mat_MetalDark
f 17 19 20 18
f 19 21 22 20
f 21 23 24 22
f 23 25 26 24
f 25 27 28 26
f 27 29 30 28
f 29 31 32 30
f 31 33 34 32
f 33 35 36 34
f 35 17 18 36
g iron_bar_capA
f 35 33 31 29 27 25 23 21 19 17
g iron_bar_capB
f 18 20 22 24 26 28 30 32 34 36
g curved_service_pipe_seg0
usemtl Mat_MetalRust
f 37 39 40 38
f 39 41 42 40
f 41 43 44 42
f 43 45 46 44
f 45 47 48 46
f 47 49 50 48
f 49 51 52 50
f 51 53 54 52
f 53 55 56 54
f 55 37 38 56
g curved_service_pipe_seg0_capA
f 55 53 51 49 47 45 43 41 39 37
g curved_service_pipe_seg0_capB
f 38 40 42 44 46 48 50 52 54 56
g curved_service_pipe_seg1
f 57 59 60 58
f 59 61 62 60
f 61 63 64 62
f 63 65 66 64
f 65 67 68 66
f 67 69 70 68
f 69 71 72 70
f 71 73 74 72
f 73 75 76 74
f 75 57 58 76
g curved_service_pipe_seg1_capA
f 75 73 71 69 67 65 63 61 59 57
g curved_service_pipe_seg1_capB
f 58 60 62 64 66 68 70 72 74 76
g curved_service_pipe_joint1
f 77 78 88 87
f 78 79 89 88
f 79 80 90 89
f 80 81 91 90
f 81 82 92 91
f 82 83 93 92
f 83 84 94 93
f 84 85 95 94
f 85 86 96 95
f 86 77 87 96
f 87 88 98 97
f 88 89 99 98
f 89 90 100 99
f 90 91 101 100
f 91 92 102 101
f 92 93 103 102
f 93 94 104 103
f 94 95 105 104
f 95 96 106 105
f 96 87 97 106
f 97 98 108 107
f 98 99 109 108
f 99 100 110 109
f 100 101 111 110
f 101 102 112 111
f 102 103 113 112
f 103 104 114 113
f 104 105 115 114
f 105 106 116 115
f 106 97 107 116
f 107 108 118 117
f 108 109 119 118
f 109 110 120 119
f 110 111 121 120
f 111 112 122 121
f 112 113 123 122
f 113 114 124 123
f 114 115 125 124
f 115 116 126 125
f 116 107 117 126
f 117 118 128 127
f 118 119 129 128
f 119 120 130 129
f 120 121 131 130
f 121 122 132 131
f 122 123 133 132
f 123 124 134 133
f 124 125 135 134
f 125 126 136 135
f 126 117 127 136
