# GalakasMidCity_INT_Table_Rectangular_01
mtllib GalakasMidCity_INT_Table_Rectangular_01.mtl
v -1.30000 0.89000 -0.55000
v 1.30000 0.89000 -0.55000
v 1.30000 1.11000 -0.55000
v -1.30000 1.11000 -0.55000
v -1.30000 0.89000 0.55000
v 1.30000 0.89000 0.55000
v 1.30000 1.11000 0.55000
v -1.30000 1.11000 0.55000
v -1.10000 0.10000 -0.48500
v -1.10000 0.95000 -0.48500
v -1.13821 0.10000 -0.47259
v -1.13821 0.95000 -0.47259
v -1.16182 0.10000 -0.44009
v -1.16182 0.95000 -0.44009
v -1.16182 0.10000 -0.39991
v -1.16182 0.95000 -0.39991
v -1.13821 0.10000 -0.36741
v -1.13821 0.95000 -0.36741
v -1.10000 0.10000 -0.35500
v -1.10000 0.95000 -0.35500
v -1.06179 0.10000 -0.36741
v -1.06179 0.95000 -0.36741
v -1.03818 0.10000 -0.39991
v -1.03818 0.95000 -0.39991
v -1.03818 0.10000 -0.44009
v -1.03818 0.95000 -0.44009
v -1.06179 0.10000 -0.47259
v -1.06179 0.95000 -0.47259
v -1.10000 0.10000 0.35500
v -1.10000 0.95000 0.35500
v -1.13821 0.10000 0.36741
v -1.13821 0.95000 0.36741
v -1.16182 0.10000 0.39991
v -1.16182 0.95000 0.39991
v -1.16182 0.10000 0.44009
v -1.16182 0.95000 0.44009
v -1.13821 0.10000 0.47259
v -1.13821 0.95000 0.47259
v -1.10000 0.10000 0.48500
v -1.10000 0.95000 0.48500
v -1.06179 0.10000 0.47259
v -1.06179 0.95000 0.47259
v -1.03818 0.10000 0.44009
v -1.03818 0.95000 0.44009
v -1.03818 0.10000 0.39991
v -1.03818 0.95000 0.39991
v -1.06179 0.10000 0.36741
v -1.06179 0.95000 0.36741
v 1.10000 0.10000 -0.48500
v 1.10000 0.95000 -0.48500
v 1.06179 0.10000 -0.47259
v 1.06179 0.95000 -0.47259
v 1.03818 0.10000 -0.44009
v 1.03818 0.95000 -0.44009
v 1.03818 0.10000 -0.39991
v 1.03818 0.95000 -0.39991
v 1.06179 0.10000 -0.36741
v 1.06179 0.95000 -0.36741
v 1.10000 0.10000 -0.35500
v 1.10000 0.95000 -0.35500
v 1.13821 0.10000 -0.36741
v 1.13821 0.95000 -0.36741
v 1.16182 0.10000 -0.39991
v 1.16182 0.95000 -0.39991
v 1.16182 0.10000 -0.44009
v 1.16182 0.95000 -0.44009
v 1.13821 0.10000 -0.47259
v 1.13821 0.95000 -0.47259
v 1.10000 0.10000 0.35500
v 1.10000 0.95000 0.35500
v 1.06179 0.10000 0.36741
v 1.06179 0.95000 0.36741
v 1.03818 0.10000 0.39991
v 1.03818 0.95000 0.39991
v 1.03818 0.10000 0.44009
v 1.03818 0.95000 0.44009
v 1.06179 0.10000 0.47259
v 1.06179 0.95000 0.47259
v 1.10000 0.10000 0.48500
v 1.10000 0.95000 0.48500
v 1.13821 0.10000 0.47259
v 1.13821 0.95000 0.47259
v 1.16182 0.10000 0.44009
v 1.16182 0.95000 0.44009
v 1.16182 0.10000 0.39991
v 1.16182 0.95000 0.39991
v 1.13821 0.10000 0.36741
v 1.13821 0.95000 0.36741
g table_top
usemtl Mat_WoodWeathered
f 1 2 3 4
f 5 8 7 6
f 1 5 6 2
f 2 6 7 3
f 3 7 8 4
f 4 8 5 1
g table_leg_-1_1_-0_42
usemtl Mat_WoodDark
f 9 11 12 10
f 11 13 14 12
f 13 15 16 14
f 15 17 18 16
f 17 19 20 18
f 19 21 22 20
f 21 23 24 22
f 23 25 26 24
f 25 27 28 26
f 27 9 10 28
g table_leg_-1_1_-0_42_capA
f 27 25 23 21 19 17 15 13 11 9
g table_leg_-1_1_-0_42_capB
f 10 12 14 16 18 20 22 24 26 28
g table_leg_-1_1_0_42
f 29 31 32 30
f 31 33 34 32
f 33 35 36 34
f 35 37 38 36
f 37 39 40 38
f 39 41 42 40
f 41 43 44 42
f 43 45 46 44
f 45 47 48 46
f 47 29 30 48
g table_leg_-1_1_0_42_capA
f 47 45 43 41 39 37 35 33 31 29
g table_leg_-1_1_0_42_capB
f 30 32 34 36 38 40 42 44 46 48
g table_leg_1_1_-0_42
f 49 51 52 50
f 51 53 54 52
f 53 55 56 54
f 55 57 58 56
f 57 59 60 58
f 59 61 62 60
f 61 63 64 62
f 63 65 66 64
f 65 67 68 66
f 67 49 50 68
g table_leg_1_1_-0_42_capA
f 67 65 63 61 59 57 55 53 51 49
g table_leg_1_1_-0_42_capB
f 50 52 54 56 58 60 62 64 66 68
g table_leg_1_1_0_42
f 69 71 72 70
f 71 73 74 72
f 73 75 76 74
f 75 77 78 76
f 77 79 80 78
f 79 81 82 80
f 81 83 84 82
f 83 85 86 84
f 85 87 88 86
f 87 69 70 88
g table_leg_1_1_0_42_capA
f 87 85 83 81 79 77 75 73 71 69
g table_leg_1_1_0_42_capB
f 70 72 74 76 78 80 82 84 86 88
