# GalakasMidCity_INT_Chair_Armrest_MerchantCarved_01
mtllib GalakasMidCity_INT_Chair_Armrest_MerchantCarved_01.mtl
v -0.47500 0.56000 -0.47500
v 0.47500 0.56000 -0.47500
v 0.47500 0.74000 -0.47500
v -0.47500 0.74000 -0.47500
v -0.47500 0.56000 0.47500
v 0.47500 0.56000 0.47500
v 0.47500 0.74000 0.47500
v -0.47500 0.74000 0.47500
v -0.47500 0.72500 0.34000
v 0.47500 0.72500 0.34000
v 0.47500 1.97500 0.34000
v -0.47500 1.97500 0.34000
v -0.47500 0.72500 0.50000
v 0.47500 0.72500 0.50000
v 0.47500 1.97500 0.50000
v -0.47500 1.97500 0.50000
v -0.38000 0.05000 -0.43500
v -0.38000 0.62000 -0.43500
v -0.41233 0.05000 -0.42450
v -0.41233 0.62000 -0.42450
v -0.43231 0.05000 -0.39700
v -0.43231 0.62000 -0.39700
v -0.43231 0.05000 -0.36300
v -0.43231 0.62000 -0.36300
v -0.41233 0.05000 -0.33550
v -0.41233 0.62000 -0.33550
v -0.38000 0.05000 -0.32500
v -0.38000 0.62000 -0.32500
v -0.34767 0.05000 -0.33550
v -0.34767 0.62000 -0.33550
v -0.32769 0.05000 -0.36300
v -0.32769 0.62000 -0.36300
v -0.32769 0.05000 -0.39700
v -0.32769 0.62000 -0.39700
v -0.34767 0.05000 -0.42450
v -0.34767 0.62000 -0.42450
v -0.38000 0.05000 0.32500
v -0.38000 0.62000 0.32500
v -0.41233 0.05000 0.33550
v -0.41233 0.62000 0.33550
v -0.43231 0.05000 0.36300
v -0.43231 0.62000 0.36300
v -0.43231 0.05000 0.39700
v -0.43231 0.62000 0.39700
v -0.41233 0.05000 0.42450
v -0.41233 0.62000 0.42450
v -0.38000 0.05000 0.43500
v -0.38000 0.62000 0.43500
v -0.34767 0.05000 0.42450
v -0.34767 0.62000 0.42450
v -0.32769 0.05000 0.39700
v -0.32769 0.62000 0.39700
v -0.32769 0.05000 0.36300
v -0.32769 0.62000 0.36300
v -0.34767 0.05000 0.33550
v -0.34767 0.62000 0.33550
v 0.38000 0.05000 -0.43500
v 0.38000 0.62000 -0.43500
v 0.34767 0.05000 -0.42450
v 0.34767 0.62000 -0.42450
v 0.32769 0.05000 -0.39700
v 0.32769 0.62000 -0.39700
v 0.32769 0.05000 -0.36300
v 0.32769 0.62000 -0.36300
v 0.34767 0.05000 -0.33550
v 0.34767 0.62000 -0.33550
v 0.38000 0.05000 -0.32500
v 0.38000 0.62000 -0.32500
v 0.41233 0.05000 -0.33550
v 0.41233 0.62000 -0.33550
v 0.43231 0.05000 -0.36300
v 0.43231 0.62000 -0.36300
v 0.43231 0.05000 -0.39700
v 0.43231 0.62000 -0.39700
v 0.41233 0.05000 -0.42450
v 0.41233 0.62000 -0.42450
v 0.38000 0.05000 0.32500
v 0.38000 0.62000 0.32500
v 0.34767 0.05000 0.33550
v 0.34767 0.62000 0.33550
v 0.32769 0.05000 0.36300
v 0.32769 0.62000 0.36300
v 0.32769 0.05000 0.39700
v 0.32769 0.62000 0.39700
v 0.34767 0.05000 0.42450
v 0.34767 0.62000 0.42450
v 0.38000 0.05000 0.43500
v 0.38000 0.62000 0.43500
v 0.41233 0.05000 0.42450
v 0.41233 0.62000 0.42450
v 0.43231 0.05000 0.39700
v 0.43231 0.62000 0.39700
v 0.43231 0.05000 0.36300
v 0.43231 0.62000 0.36300
v 0.41233 0.05000 0.33550
v 0.41233 0.62000 0.33550
v -0.63500 0.72000 -0.38000
v -0.63500 0.72000 0.36000
v -0.62450 0.68767 -0.38000
v -0.62450 0.68767 0.36000
v -0.59700 0.66769 -0.38000
v -0.59700 0.66769 0.36000
v -0.56300 0.66769 -0.38000
v -0.56300 0.66769 0.36000
v -0.53550 0.68767 -0.38000
v -0.53550 0.68767 0.36000
v -0.52500 0.72000 -0.38000
v -0.52500 0.72000 0.36000
v -0.53550 0.75233 -0.38000
v -0.53550 0.75233 0.36000
v -0.56300 0.77231 -0.38000
v -0.56300 0.77231 0.36000
v -0.59700 0.77231 -0.38000
v -0.59700 0.77231 0.36000
v -0.62450 0.75233 -0.38000
v -0.62450 0.75233 0.36000
v -0.58000 0.80000 0.39000
v -0.58000 0.80000 0.39000
v -0.58000 0.80000 0.39000
v -0.58000 0.80000 0.39000
v -0.58000 0.80000 0.39000
v -0.58000 0.80000 0.39000
v -0.58000 0.80000 0.39000
v -0.58000 0.80000 0.39000
v -0.58000 0.80000 0.39000
v -0.58000 0.80000 0.39000
v -0.53298 0.78472 0.39000
v -0.54196 0.78472 0.41764
v -0.56547 0.78472 0.43472
v -0.59453 0.78472 0.43472
v -0.61804 0.78472 0.41764
v -0.62702 0.78472 0.39000
v -0.61804 0.78472 0.36236
v -0.59453 0.78472 0.34528
v -0.56547 0.78472 0.34528
v -0.54196 0.78472 0.36236
v -0.50392 0.74472 0.39000
v -0.51845 0.74472 0.43472
v -0.55649 0.74472 0.46236
v -0.60351 0.74472 0.46236
v -0.64155 0.74472 0.43472
v -0.65608 0.74472 0.39000
v -0.64155 0.74472 0.34528
v -0.60351 0.74472 0.31764
v -0.55649 0.74472 0.31764
v -0.51845 0.74472 0.34528
v -0.50392 0.69528 0.39000
v -0.51845 0.69528 0.43472
v -0.55649 0.69528 0.46236
v -0.60351 0.69528 0.46236
v -0.64155 0.69528 0.43472
v -0.65608 0.69528 0.39000
v -0.64155 0.69528 0.34528
v -0.60351 0.69528 0.31764
v -0.55649 0.69528 0.31764
v -0.51845 0.69528 0.34528
v -0.53298 0.65528 0.39000
v -0.54196 0.65528 0.41764
v -0.56547 0.65528 0.43472
v -0.59453 0.65528 0.43472
v -0.61804 0.65528 0.41764
v -0.62702 0.65528 0.39000
v -0.61804 0.65528 0.36236
v -0.59453 0.65528 0.34528
v -0.56547 0.65528 0.34528
v -0.54196 0.65528 0.36236
v -0.58000 0.64000 0.39000
v -0.58000 0.64000 0.39000
v -0.58000 0.64000 0.39000
v -0.58000 0.64000 0.39000
v -0.58000 0.64000 0.39000
v -0.58000 0.64000 0.39000
v -0.58000 0.64000 0.39000
v -0.58000 0.64000 0.39000
v -0.58000 0.64000 0.39000
v -0.58000 0.64000 0.39000
v 0.52500 0.72000 -0.38000
v 0.52500 0.72000 0.36000
v 0.53550 0.68767 -0.38000
v 0.53550 0.68767 0.36000
v 0.56300 0.66769 -0.38000
v 0.56300 0.66769 0.36000
v 0.59700 0.66769 -0.38000
v 0.59700 0.66769 0.36000
v 0.62450 0.68767 -0.38000
v 0.62450 0.68767 0.36000
v 0.63500 0.72000 -0.38000
v 0.63500 0.72000 0.36000
v 0.62450 0.75233 -0.38000
v 0.62450 0.75233 0.36000
v 0.59700 0.77231 -0.38000
v 0.59700 0.77231 0.36000
v 0.56300 0.77231 -0.38000
v 0.56300 0.77231 0.36000
v 0.53550 0.75233 -0.38000
v 0.53550 0.75233 0.36000
v 0.58000 0.80000 0.39000
v 0.58000 0.80000 0.39000
v 0.58000 0.80000 0.39000
v 0.58000 0.80000 0.39000
v 0.58000 0.80000 0.39000
v 0.58000 0.80000 0.39000
v 0.58000 0.80000 0.39000
v 0.58000 0.80000 0.39000
v 0.58000 0.80000 0.39000
v 0.58000 0.80000 0.39000
v 0.62702 0.78472 0.39000
v 0.61804 0.78472 0.41764
v 0.59453 0.78472 0.43472
v 0.56547 0.78472 0.43472
v 0.54196 0.78472 0.41764
v 0.53298 0.78472 0.39000
v 0.54196 0.78472 0.36236
v 0.56547 0.78472 0.34528
v 0.59453 0.78472 0.34528
v 0.61804 0.78472 0.36236
v 0.65608 0.74472 0.39000
v 0.64155 0.74472 0.43472
v 0.60351 0.74472 0.46236
v 0.55649 0.74472 0.46236
v 0.51845 0.74472 0.43472
v 0.50392 0.74472 0.39000
v 0.51845 0.74472 0.34528
v 0.55649 0.74472 0.31764
v 0.60351 0.74472 0.31764
v 0.64155 0.74472 0.34528
v 0.65608 0.69528 0.39000
v 0.64155 0.69528 0.43472
v 0.60351 0.69528 0.46236
v 0.55649 0.69528 0.46236
v 0.51845 0.69528 0.43472
v 0.50392 0.69528 0.39000
v 0.51845 0.69528 0.34528
v 0.55649 0.69528 0.31764
v 0.60351 0.69528 0.31764
v 0.64155 0.69528 0.34528
v 0.62702 0.65528 0.39000
v 0.61804 0.65528 0.41764
v 0.59453 0.65528 0.43472
v 0.56547 0.65528 0.43472
v 0.54196 0.65528 0.41764
v 0.53298 0.65528 0.39000
v 0.54196 0.65528 0.36236
v 0.56547 0.65528 0.34528
v 0.59453 0.65528 0.34528
v 0.61804 0.65528 0.36236
v 0.58000 0.64000 0.39000
v 0.58000 0.64000 0.39000
v 0.58000 0.64000 0.39000
v 0.58000 0.64000 0.39000
v 0.58000 0.64000 0.39000
v 0.58000 0.64000 0.39000
v 0.58000 0.64000 0.39000
v 0.58000 0.64000 0.39000
v 0.58000 0.64000 0.39000
v 0.58000 0.64000 0.39000
g seat
usemtl Mat_WoodWeathered
f 1 2 3 4
f 5 8 7 6
f 1 5 6 2
f 2 6 7 3
f 3 7 8 4
f 4 8 5 1
g back
usemtl Mat_WoodDark
f 9 10 11 12
f 13 16 15 14
f 9 13 14 10
f 10 14 15 11
f 11 15 16 12
f 12 16 13 9
g leg_-0_38_-0_38
f 17 19 20 18
f 19 21 22 20
f 21 23 24 22
f 23 25 26 24
f 25 27 28 26
f 27 29 30 28
f 29 31 32 30
f 31 33 34 32
f 33 35 36 34
f 35 17 18 36
g leg_-0_38_-0_38_capA
f 35 33 31 29 27 25 23 21 19 17
g leg_-0_38_-0_38_capB
f 18 20 22 24 26 28 30 32 34 36
g leg_-0_38_0_38
f 37 39 40 38
f 39 41 42 40
f 41 43 44 42
f 43 45 46 44
f 45 47 48 46
f 47 49 50 48
f 49 51 52 50
f 51 53 54 52
f 53 55 56 54
f 55 37 38 56
g leg_-0_38_0_38_capA
f 55 53 51 49 47 45 43 41 39 37
g leg_-0_38_0_38_capB
f 38 40 42 44 46 48 50 52 54 56
g leg_0_38_-0_38
f 57 59 60 58
f 59 61 62 60
f 61 63 64 62
f 63 65 66 64
f 65 67 68 66
f 67 69 70 68
f 69 71 72 70
f 71 73 74 72
f 73 75 76 74
f 75 57 58 76
g leg_0_38_-0_38_capA
f 75 73 71 69 67 65 63 61 59 57
g leg_0_38_-0_38_capB
f 58 60 62 64 66 68 70 72 74 76
g leg_0_38_0_38
f 77 79 80 78
f 79 81 82 80
f 81 83 84 82
f 83 85 86 84
f 85 87 88 86
f 87 89 90 88
f 89 91 92 90
f 91 93 94 92
f 93 95 96 94
f 95 77 78 96
g leg_0_38_0_38_capA
f 95 93 91 89 87 85 83 81 79 77
g leg_0_38_0_38_capB
f 78 80 82 84 86 88 90 92 94 96
g armrest_-0_58
f 97 99 100 98
f 99 101 102 100
f 101 103 104 102
f 103 105 106 104
f 105 107 108 106
f 107 109 110 108
f 109 111 112 110
f 111 113 114 112
f 113 115 116 114
f 115 97 98 116
g armrest_-0_58_capA
f 115 113 111 109 107 105 103 101 99 97
g armrest_-0_58_capB
f 98 100 102 104 106 108 110 112 114 116
g armrest_cap_-0_58
f 117 118 128 127
f 118 119 129 128
f 119 120 130 129
f 120 121 131 130
f 121 122 132 131
f 122 123 133 132
f 123 124 134 133
f 124 125 135 134
f 125 126 136 135
f 126 117 127 136
f 127 128 138 137
f 128 129 139 138
f 129 130 140 139
f 130 131 141 140
f 131 132 142 141
f 132 133 143 142
f 133 134 144 143
f 134 135 145 144
f 135 136 146 145
f 136 127 137 146
f 137 138 148 147
f 138 139 149 148
f 139 140 150 149
f 140 141 151 150
f 141 142 152 151
f 142 143 153 152
f 143 144 154 153
f 144 145 155 154
f 145 146 156 155
f 146 137 147 156
f 147 148 158 157
f 148 149 159 158
f 149 150 160 159
f 150 151 161 160
f 151 152 162 161
f 152 153 163 162
f 153 154 164 163
f 154 155 165 164
f 155 156 166 165
f 156 147 157 166
f 157 158 168 167
f 158 159 169 168
f 159 160 170 169
f 160 161 171 170
f 161 162 172 171
f 162 163 173 172
f 163 164 174 173
f 164 165 175 174
f 165 166 176 175
f 166 157 167 176
g armrest_0_58
f 177 179 180 178
f 179 181 182 180
f 181 183 184 182
f 183 185 186 184
f 185 187 188 186
f 187 189 190 188
f 189 191 192 190
f 191 193 194 192
f 193 195 196 194
f 195 177 178 196
g armrest_0_58_capA
f 195 193 191 189 187 185 183 181 179 177
g armrest_0_58_capB
f 178 180 182 184 186 188 190 192 194 196
g armrest_cap_0_58
f 197 198 208 207
f 198 199 209 208
f 199 200 210 209
f 200 201 211 210
f 201 202 212 211
f 202 203 213 212
f 203 204 214 213
f 204 205 215 214
f 205 206 216 215
f 206 197 207 216
f 207 208 218 217
f 208 209 219 218
f 209 210 220 219
f 210 211 221 220
f 211 212 222 221
f 212 213 223 222
f 213 214 224 223
f 214 215 225 224
f 215 216 226 225
f 216 207 217 226
f 217 218 228 227
f 218 219 229 228
f 219 220 230 229
f 220 221 231 230
f 221 222 232 231
f 222 223 233 232
f 223 224 234 233
f 224 225 235 234
f 225 226 236 235
f 226 217 227 236
f 227 228 238 237
f 228 229 239 238
f 229 230 240 239
f 230 231 241 240
f 231 232 242 241
f 232 233 243 242
f 233 234 244 243
f 234 235 245 244
f 235 236 246 245
f 236 227 237 246
f 237 238 248 247
f 238 239 249 248
f 239 240 250 249
f 240 241 251 250
f 241 242 252 251
f 242 243 253 252
f 243 244 254 253
f 244 245 255 254
f 245 246 256 255
f 246 237 247 256
