# GalakasMidCity_INT_Bed_Simple_01
mtllib GalakasMidCity_INT_Bed_Simple_01.mtl
v -1.10000 0.26000 -0.57500
v 1.10000 0.26000 -0.57500
v 1.10000 0.64000 -0.57500
v -1.10000 0.64000 -0.57500
v -1.10000 0.26000 0.57500
v 1.10000 0.26000 0.57500
v 1.10000 0.64000 0.57500
v -1.10000 0.64000 0.57500
v -1.02500 0.63500 -0.51000
v 1.02500 0.63500 -0.51000
v 1.02500 0.88500 -0.51000
v -1.02500 0.88500 -0.51000
v -1.02500 0.63500 0.51000
v 1.02500 0.63500 0.51000
v 1.02500 0.88500 0.51000
v -1.02500 0.88500 0.51000
v -1.02500 0.86000 -0.45000
v -0.47500 0.86000 -0.45000
v -0.47500 1.06000 -0.45000
v -1.02500 1.06000 -0.45000
v -1.02500 0.86000 0.45000
v -0.47500 0.86000 0.45000
v -0.47500 1.06000 0.45000
v -1.02500 1.06000 0.45000
v -1.00000 0.05000 -0.57000
v -1.00000 0.55000 -0.57000
v -1.04114 0.05000 -0.55663
v -1.04114 0.55000 -0.55663
v -1.06657 0.05000 -0.52163
v -1.06657 0.55000 -0.52163
v -1.06657 0.05000 -0.47837
v -1.06657 0.55000 -0.47837
v -1.04114 0.05000 -0.44337
v -1.04114 0.55000 -0.44337
v -1.00000 0.05000 -0.43000
v -1.00000 0.55000 -0.43000
v -0.95886 0.05000 -0.44337
v -0.95886 0.55000 -0.44337
v -0.93343 0.05000 -0.47837
v -0.93343 0.55000 -0.47837
v -0.93343 0.05000 -0.52163
v -0.93343 0.55000 -0.52163
v -0.95886 0.05000 -0.55663
v -0.95886 0.55000 -0.55663
v -1.00000 0.05000 0.43000
v -1.00000 0.55000 0.43000
v -1.04114 0.05000 0.44337
v -1.04114 0.55000 0.44337
v -1.06657 0.05000 0.47837
v -1.06657 0.55000 0.47837
v -1.06657 0.05000 0.52163
v -1.06657 0.55000 0.52163
v -1.04114 0.05000 0.55663
v -1.04114 0.55000 0.55663
v -1.00000 0.05000 0.57000
v -1.00000 0.55000 0.57000
v -0.95886 0.05000 0.55663
v -0.95886 0.55000 0.55663
v -0.93343 0.05000 0.52163
v -0.93343 0.55000 0.52163
v -0.93343 0.05000 0.47837
v -0.93343 0.55000 0.47837
v -0.95886 0.05000 0.44337
v -0.95886 0.55000 0.44337
v 1.00000 0.05000 -0.57000
v 1.00000 0.55000 -0.57000
v 0.95886 0.05000 -0.55663
v 0.95886 0.55000 -0.55663
v 0.93343 0.05000 -0.52163
v 0.93343 0.55000 -0.52163
v 0.93343 0.05000 -0.47837
v 0.93343 0.55000 -0.47837
v 0.95886 0.05000 -0.44337
v 0.95886 0.55000 -0.44337
v 1.00000 0.05000 -0.43000
v 1.00000 0.55000 -0.43000
v 1.04114 0.05000 -0.44337
v 1.04114 0.55000 -0.44337
v 1.06657 0.05000 -0.47837
v 1.06657 0.55000 -0.47837
v 1.06657 0.05000 -0.52163
v 1.06657 0.55000 -0.52163
v 1.04114 0.05000 -0.55663
v 1.04114 0.55000 -0.55663
v 1.00000 0.05000 0.43000
v 1.00000 0.55000 0.43000
v 0.95886 0.05000 0.44337
v 0.95886 0.55000 0.44337
v 0.93343 0.05000 0.47837
v 0.93343 0.55000 0.47837
v 0.93343 0.05000 0.52163
v 0.93343 0.55000 0.52163
v 0.95886 0.05000 0.55663
v 0.95886 0.55000 0.55663
v 1.00000 0.05000 0.57000
v 1.00000 0.55000 0.57000
v 1.04114 0.05000 0.55663
v 1.04114 0.55000 0.55663
v 1.06657 0.05000 0.52163
v 1.06657 0.55000 0.52163
v 1.06657 0.05000 0.47837
v 1.06657 0.55000 0.47837
v 1.04114 0.05000 0.44337
v 1.04114 0.55000 0.44337
g bed_frame
usemtl Mat_WoodDark
f 1 2 3 4
f 5 8 7 6
f 1 5 6 2
f 2 6 7 3
f 3 7 8 4
f 4 8 5 1
g mattress
usemtl Mat_ClothWashed
f 9 10 11 12
f 13 16 15 14
f 9 13 14 10
f 10 14 15 11
f 11 15 16 12
f 12 16 13 9
g pillow
usemtl Mat_ClothCanvas
f 17 18 19 20
f 21 24 23 22
f 17 21 22 18
f 18 22 23 19
f 19 23 24 20
f 20 24 21 17
g bedpost_-1_0_-0_5
usemtl Mat_WoodDark
f 25 27 28 26
f 27 29 30 28
f 29 31 32 30
f 31 33 34 32
f 33 35 36 34
f 35 37 38 36
f 37 39 40 38
f 39 41 42 40
f 41 43 44 42
f 43 25 26 44
g bedpost_-1_0_-0_5_capA
f 43 41 39 37 35 33 31 29 27 25
g bedpost_-1_0_-0_5_capB
f 26 28 30 32 34 36 38 40 42 44
g bedpost_-1_0_0_5
f 45 47 48 46
f 47 49 50 48
f 49 51 52 50
f 51 53 54 52
f 53 55 56 54
f 55 57 58 56
f 57 59 60 58
f 59 61 62 60
f 61 63 64 62
f 63 45 46 64
g bedpost_-1_0_0_5_capA
f 63 61 59 57 55 53 51 49 47 45
g bedpost_-1_0_0_5_capB
f 46 48 50 52 54 56 58 60 62 64
g bedpost_1_0_-0_5
f 65 67 68 66
f 67 69 70 68
f 69 71 72 70
f 71 73 74 72
f 73 75 76 74
f 75 77 78 76
f 77 79 80 78
f 79 81 82 80
f 81 83 84 82
f 83 65 66 84
g bedpost_1_0_-0_5_capA
f 83 81 79 77 75 73 71 69 67 65
g bedpost_1_0_-0_5_capB
f 66 68 70 72 74 76 78 80 82 84
g bedpost_1_0_0_5
f 85 87 88 86
f 87 89 90 88
f 89 91 92 90
f 91 93 94 92
f 93 95 96 94
f 95 97 98 96
f 97 99 100 98
f 99 101 102 100
f 101 103 104 102
f 103 85 86 104
g bedpost_1_0_0_5_capA
f 103 101 99 97 95 93 91 89 87 85
g bedpost_1_0_0_5_capB
f 86 88 90 92 94 96 98 100 102 104
