# GalakasMidCity_PIECE_SignBracketWood_01
mtllib GalakasMidCity_PIECE_SignBracketWood_01.mtl
v 0.00000 0.00000 0.04500
v 0.40000 0.18000 0.04500
v 0.00923 -0.02052 0.03897
v 0.40923 0.15948 0.03897
v 0.01599 -0.03554 0.02250
v 0.41599 0.14446 0.02250
v 0.01847 -0.04104 0.00000
v 0.41847 0.13896 0.00000
v 0.01599 -0.03554 -0.02250
v 0.41599 0.14446 -0.02250
v 0.00923 -0.02052 -0.03897
v 0.40923 0.15948 -0.03897
v 0.00000 -0.00000 -0.04500
v 0.40000 0.18000 -0.04500
v -0.00923 0.02052 -0.03897
v 0.39077 0.20052 -0.03897
v -0.01599 0.03554 -0.02250
v 0.38401 0.21554 -0.02250
v -0.01847 0.04104 -0.00000
v 0.38153 0.22104 -0.00000
v -0.01599 0.03554 0.02250
v 0.38401 0.21554 0.02250
v -0.00923 0.02052 0.03897
v 0.39077 0.20052 0.03897
v 0.40000 0.18000 0.04500
v 0.75000 0.02000 0.04500
v 0.39065 0.15954 0.03897
v 0.74065 -0.00046 0.03897
v 0.38380 0.14456 0.02250
v 0.73380 -0.01544 0.02250
v 0.38129 0.13907 0.00000
v 0.73129 -0.02093 0.00000
v 0.38380 0.14456 -0.02250
v 0.73380 -0.01544 -0.02250
v 0.39065 0.15954 -0.03897
v 0.74065 -0.00046 -0.03897
v 0.40000 0.18000 -0.04500
v 0.75000 0.02000 -0.04500
v 0.40935 0.20046 -0.03897
v 0.75935 0.04046 -0.03897
v 0.41620 0.21544 -0.02250
v 0.76620 0.05544 -0.02250
v 0.41871 0.22093 -0.00000
v 0.76871 0.06093 -0.00000
v 0.41620 0.21544 0.02250
v 0.76620 0.05544 0.02250
v 0.40935 0.20046 0.03897
v 0.75935 0.04046 0.03897
v 0.75000 0.02000 0.04500
v 1.00000 -0.22000 0.04500
v 0.73442 0.00377 0.03897
v 0.98442 -0.23623 0.03897
v 0.72301 -0.00811 0.02250
v 0.97301 -0.24811 0.02250
v 0.71884 -0.01246 0.00000
v 0.96884 -0.25246 0.00000
v 0.72301 -0.00811 -0.02250
v 0.97301 -0.24811 -0.02250
v 0.73442 0.00377 -0.03897
v 0.98442 -0.23623 -0.03897
v 0.75000 0.02000 -0.04500
v 1.00000 -0.22000 -0.04500
v 0.76558 0.03623 -0.03897
v 1.01558 -0.20377 -0.03897
v 0.77699 0.04811 -0.02250
v 1.02699 -0.19189 -0.02250
v 0.78116 0.05246 -0.00000
v 1.03116 -0.18754 -0.00000
v 0.77699 0.04811 0.02250
v 1.02699 -0.19189 0.02250
v 0.76558 0.03623 0.03897
v 1.01558 -0.20377 0.03897
v 0.40000 0.22725 0.00000
v 0.40000 0.22725 0.00000
v 0.40000 0.22725 0.00000
v 0.40000 0.22725 0.00000
v 0.40000 0.22725 0.00000
v 0.40000 0.22725 0.00000
v 0.40000 0.22725 0.00000
v 0.40000 0.22725 0.00000
v 0.40000 0.22725 0.00000
v 0.40000 0.22725 0.00000
v 0.40000 0.22725 0.00000
v 0.40000 0.22725 0.00000
v 0.42777 0.21823 0.00000
v 0.42405 0.21823 0.01389
v 0.41389 0.21823 0.02405
v 0.40000 0.21823 0.02777
v 0.38611 0.21823 0.02405
v 0.37595 0.21823 0.01389
v 0.37223 0.21823 0.00000
v 0.37595 0.21823 -0.01389
v 0.38611 0.21823 -0.02405
v 0.40000 0.21823 -0.02777
v 0.41389 0.21823 -0.02405
v 0.42405 0.21823 -0.01389
v 0.44494 0.19460 0.00000
v 0.43892 0.19460 0.02247
v 0.42247 0.19460 0.03892
v 0.40000 0.19460 0.04494
v 0.37753 0.19460 0.03892
v 0.36108 0.19460 0.02247
v 0.35506 0.19460 0.00000
v 0.36108 0.19460 -0.02247
v 0.37753 0.19460 -0.03892
v 0.40000 0.19460 -0.04494
v 0.42247 0.19460 -0.03892
v 0.43892 0.19460 -0.02247
v 0.44494 0.16540 0.00000
v 0.43892 0.16540 0.02247
v 0.42247 0.16540 0.03892
v 0.40000 0.16540 0.04494
v 0.37753 0.16540 0.03892
v 0.36108 0.16540 0.02247
v 0.35506 0.16540 0.00000
v 0.36108 0.16540 -0.02247
v 0.37753 0.16540 -0.03892
v 0.40000 0.16540 -0.04494
v 0.42247 0.16540 -0.03892
v 0.43892 0.16540 -0.02247
v 0.42777 0.14177 0.00000
v 0.42405 0.14177 0.01389
v 0.41389 0.14177 0.02405
v 0.40000 0.14177 0.02777
v 0.38611 0.14177 0.02405
v 0.37595 0.14177 0.01389
v 0.37223 0.14177 0.00000
v 0.37595 0.14177 -0.01389
v 0.38611 0.14177 -0.02405
v 0.40000 0.14177 -0.02777
v 0.41389 0.14177 -0.02405
v 0.42405 0.14177 -0.01389
v 0.40000 0.13275 0.00000
v 0.40000 0.13275 0.00000
v 0.40000 0.13275 0.00000
v 0.40000 0.13275 0.00000
v 0.40000 0.13275 0.00000
v 0.40000 0.13275 0.00000
v 0.40000 0.13275 0.00000
v 0.40000 0.13275 -0.00000
v 0.40000 0.13275 -0.00000
v 0.40000 0.13275 -0.00000
v 0.40000 0.13275 -0.00000
v 0.40000 0.13275 -0.00000
v 0.75000 0.06725 0.00000
v 0.75000 0.06725 0.00000
v 0.75000 0.06725 0.00000
v 0.75000 0.06725 0.00000
v 0.75000 0.06725 0.00000
v 0.75000 0.06725 0.00000
v 0.75000 0.06725 0.00000
v 0.75000 0.06725 0.00000
v 0.75000 0.06725 0.00000
v 0.75000 0.06725 0.00000
v 0.75000 0.06725 0.00000
v 0.75000 0.06725 0.00000
v 0.77777 0.05823 0.00000
v 0.77405 0.05823 0.01389
v 0.76389 0.05823 0.02405
v 0.75000 0.05823 0.02777
v 0.73611 0.05823 0.02405
v 0.72595 0.05823 0.01389
v 0.72223 0.05823 0.00000
v 0.72595 0.05823 -0.01389
v 0.73611 0.05823 -0.02405
v 0.75000 0.05823 -0.02777
v 0.76389 0.05823 -0.02405
v 0.77405 0.05823 -0.01389
v 0.79494 0.03460 0.00000
v 0.78892 0.03460 0.02247
v 0.77247 0.03460 0.03892
v 0.75000 0.03460 0.04494
v 0.72753 0.03460 0.03892
v 0.71108 0.03460 0.02247
v 0.70506 0.03460 0.00000
v 0.71108 0.03460 -0.02247
v 0.72753 0.03460 -0.03892
v 0.75000 0.03460 -0.04494
v 0.77247 0.03460 -0.03892
v 0.78892 0.03460 -0.02247
v 0.79494 0.00540 0.00000
v 0.78892 0.00540 0.02247
v 0.77247 0.00540 0.03892
v 0.75000 0.00540 0.04494
v 0.72753 0.00540 0.03892
v 0.71108 0.00540 0.02247
v 0.70506 0.00540 0.00000
v 0.71108 0.00540 -0.02247
v 0.72753 0.00540 -0.03892
v 0.75000 0.00540 -0.04494
v 0.77247 0.00540 -0.03892
v 0.78892 0.00540 -0.02247
v 0.77777 -0.01823 0.00000
v 0.77405 -0.01823 0.01389
v 0.76389 -0.01823 0.02405
v 0.75000 -0.01823 0.02777
v 0.73611 -0.01823 0.02405
v 0.72595 -0.01823 0.01389
v 0.72223 -0.01823 0.00000
v 0.72595 -0.01823 -0.01389
v 0.73611 -0.01823 -0.02405
v 0.75000 -0.01823 -0.02777
v 0.76389 -0.01823 -0.02405
v 0.77405 -0.01823 -0.01389
v 0.75000 -0.02725 0.00000
v 0.75000 -0.02725 0.00000
v 0.75000 -0.02725 0.00000
v 0.75000 -0.02725 0.00000
v 0.75000 -0.02725 0.00000
v 0.75000 -0.02725 0.00000
v 0.75000 -0.02725 0.00000
v 0.75000 -0.02725 -0.00000
v 0.75000 -0.02725 -0.00000
v 0.75000 -0.02725 -0.00000
v 0.75000 -0.02725 -0.00000
v 0.75000 -0.02725 -0.00000
v 0.77500 -0.80500 -0.03000
v 1.32500 -0.80500 -0.03000
v 1.32500 -0.35500 -0.03000
v 0.77500 -0.35500 -0.03000
v 0.77500 -0.80500 0.03000
v 1.32500 -0.80500 0.03000
v 1.32500 -0.35500 0.03000
v 0.77500 -0.35500 0.03000
g curved_sign_bracket_seg0
usemtl Mat_MetalDark
f 1 3 4 2
f 3 5 6 4
f 5 7 8 6
f 7 9 10 8
f 9 11 12 10
f 11 13 14 12
f 13 15 16 14
f 15 17 18 16
f 17 19 20 18
f 19 21 22 20
f 21 23 24 22
f 23 1 2 24
g curved_sign_bracket_seg0_capA
f 23 21 19 17 15 13 11 9 7 5 3 1
g curved_sign_bracket_seg0_capB
f 2 4 6 8 10 12 14 16 18 20 22 24
g curved_sign_bracket_seg1
f 25 27 28 26
f 27 29 30 28
f 29 31 32 30
f 31 33 34 32
f 33 35 36 34
f 35 37 38 36
f 37 39 40 38
f 39 41 42 40
f 41 43 44 42
f 43 45 46 44
f 45 47 48 46
f 47 25 26 48
g curved_sign_bracket_seg1_capA
f 47 45 43 41 39 37 35 33 31 29 27 25
g curved_sign_bracket_seg1_capB
f 26 28 30 32 34 36 38 40 42 44 46 48
g curved_sign_bracket_seg2
f 49 51 52 50
f 51 53 54 52
f 53 55 56 54
f 55 57 58 56
f 57 59 60 58
f 59 61 62 60
f 61 63 64 62
f 63 65 66 64
f 65 67 68 66
f 67 69 70 68
f 69 71 72 70
f 71 49 50 72
g curved_sign_bracket_seg2_capA
f 71 69 67 65 63 61 59 57 55 53 51 49
g curved_sign_bracket_seg2_capB
f 50 52 54 56 58 60 62 64 66 68 70 72
g curved_sign_bracket_joint1
f 73 74 86 85
f 74 75 87 86
f 75 76 88 87
f 76 77 89 88
f 77 78 90 89
f 78 79 91 90
f 79 80 92 91
f 80 81 93 92
f 81 82 94 93
f 82 83 95 94
f 83 84 96 95
f 84 73 85 96
f 85 86 98 97
f 86 87 99 98
f 87 88 100 99
f 88 89 101 100
f 89 90 102 101
f 90 91 103 102
f 91 92 104 103
f 92 93 105 104
f 93 94 106 105
f 94 95 107 106
f 95 96 108 107
f 96 85 97 108
f 97 98 110 109
f 98 99 111 110
f 99 100 112 111
f 100 101 113 112
f 101 102 114 113
f 102 103 115 114
f 103 104 116 115
f 104 105 117 116
f 105 106 118 117
f 106 107 119 118
f 107 108 120 119
f 108 97 109 120
f 109 110 122 121
f 110 111 123 122
f 111 112 124 123
f 112 113 125 124
f 113 114 126 125
f 114 115 127 126
f 115 116 128 127
f 116 117 129 128
f 117 118 130 129
f 118 119 131 130
f 119 120 132 131
f 120 109 121 132
f 121 122 134 133
f 122 123 135 134
f 123 124 136 135
f 124 125 137 136
f 125 126 138 137
f 126 127 139 138
f 127 128 140 139
f 128 129 141 140
f 129 130 142 141
f 130 131 143 142
f 131 132 144 143
f 132 121 133 144
g curved_sign_bracket_joint2
f 145 146 158 157
f 146 147 159 158
f 147 148 160 159
f 148 149 161 160
f 149 150 162 161
f 150 151 163 162
f 151 152 164 163
f 152 153 165 164
f 153 154 166 165
f 154 155 167 166
f 155 156 168 167
f 156 145 157 168
f 157 158 170 169
f 158 159 171 170
f 159 160 172 171
f 160 161 173 172
f 161 162 174 173
f 162 163 175 174
f 163 164 176 175
f 164 165 177 176
f 165 166 178 177
f 166 167 179 178
f 167 168 180 179
f 168 157 169 180
f 169 170 182 181
f 170 171 183 182
f 171 172 184 183
f 172 173 185 184
f 173 174 186 185
f 174 175 187 186
f 175 176 188 187
f 176 177 189 188
f 177 178 190 189
f 178 179 191 190
f 179 180 192 191
f 180 169 181 192
f 181 182 194 193
f 182 183 195 194
f 183 184 196 195
f 184 185 197 196
f 185 186 198 197
f 186 187 199 198
f 187 188 200 199
f 188 189 201 200
f 189 190 202 201
f 190 191 203 202
f 191 192 204 203
f 192 181 193 204
f 193 194 206 205
f 194 195 207 206
f 195 196 208 207
f 196 197 209 208
f 197 198 210 209
f 198 199 211 210
f 199 200 212 211
f 200 201 213 212
f 201 202 214 213
f 202 203 215 214
f 203 204 216 215
f 204 193 205 216
g small_sign_board
usemtl Mat_WoodWeathered
f 217 218 219 220
f 221 224 223 222
f 217 221 222 218
f 218 222 223 219
f 219 223 224 220
f 220 224 221 217
