# GalakasMidCity_PIECE_ChimneyMetal_Narrow_01
mtllib GalakasMidCity_PIECE_ChimneyMetal_Narrow_01.mtl
v 0.00000 0.00000 -0.16000
v 0.00000 1.90000 -0.16000
v -0.06123 0.00000 -0.14782
v -0.06123 1.90000 -0.14782
v -0.11314 0.00000 -0.11314
v -0.11314 1.90000 -0.11314
v -0.14782 0.00000 -0.06123
v -0.14782 1.90000 -0.06123
v -0.16000 0.00000 -0.00000
v -0.16000 1.90000 -0.00000
v -0.14782 0.00000 0.06123
v -0.14782 1.90000 0.06123
v -0.11314 0.00000 0.11314
v -0.11314 1.90000 0.11314
v -0.06123 0.00000 0.14782
v -0.06123 1.90000 0.14782
v -0.00000 0.00000 0.16000
v -0.00000 1.90000 0.16000
v 0.06123 0.00000 0.14782
v 0.06123 1.90000 0.14782
v 0.11314 0.00000 0.11314
v 0.11314 1.90000 0.11314
v 0.14782 0.00000 0.06123
v 0.14782 1.90000 0.06123
v 0.16000 0.00000 0.00000
v 0.16000 1.90000 0.00000
v 0.14782 0.00000 -0.06123
v 0.14782 1.90000 -0.06123
v 0.11314 0.00000 -0.11314
v 0.11314 1.90000 -0.11314
v 0.06123 0.00000 -0.14782
v 0.06123 1.90000 -0.14782
v -0.25000 1.90000 0.18000
v 0.25000 1.90000 0.18000
v -0.25000 1.81000 0.15588
v 0.25000 1.81000 0.15588
v -0.25000 1.74412 0.09000
v 0.25000 1.74412 0.09000
v -0.25000 1.72000 0.00000
v 0.25000 1.72000 0.00000
v -0.25000 1.74412 -0.09000
v 0.25000 1.74412 -0.09000
v -0.25000 1.81000 -0.15588
v 0.25000 1.81000 -0.15588
v -0.25000 1.90000 -0.18000
v 0.25000 1.90000 -0.18000
v -0.25000 1.99000 -0.15588
v 0.25000 1.99000 -0.15588
v -0.25000 2.05588 -0.09000
v 0.25000 2.05588 -0.09000
v -0.25000 2.08000 -0.00000
v 0.25000 2.08000 -0.00000
v -0.25000 2.05588 0.09000
v 0.25000 2.05588 0.09000
v -0.25000 1.99000 0.15588
v 0.25000 1.99000 0.15588
g piece_chimney_pipe
usemtl Mat_MetalRust
f 1 3 4 2
f 3 5 6 4
f 5 7 8 6
f 7 9 10 8
f 9 11 12 10
f 11 13 14 12
f 13 15 16 14
f 15 17 18 16
f 17 19 20 18
f 19 21 22 20
f 21 23 24 22
f 23 25 26 24
f 25 27 28 26
f 27 29 30 28
f 29 31 32 30
f 31 1 2 32
g piece_chimney_pipe_capA
f 31 29 27 25 23 21 19 17 15 13 11 9 7 5 3 1
g piece_chimney_pipe_capB
f 2 4 6 8 10 12 14 16 18 20 22 24 26 28 30 32
g piece_chimney_cap_cross
usemtl Mat_MetalDark
f 33 35 36 34
f 35 37 38 36
f 37 39 40 38
f 39 41 42 40
f 41 43 44 42
f 43 45 46 44
f 45 47 48 46
f 47 49 50 48
f 49 51 52 50
f 51 53 54 52
f 53 55 56 54
f 55 33 34 56
g piece_chimney_cap_cross_capA
f 55 53 51 49 47 45 43 41 39 37 35 33
g piece_chimney_cap_cross_capB
f 34 36 38 40 42 44 46 48 50 52 54 56
