# GalakasMidCity_PIECE_ChimneyBrick_Tall_01
mtllib GalakasMidCity_PIECE_ChimneyBrick_Tall_01.mtl
v -0.27500 0.00000 -0.27500
v 0.27500 0.00000 -0.27500
v 0.27500 1.90000 -0.27500
v -0.27500 1.90000 -0.27500
v -0.27500 0.00000 0.27500
v 0.27500 0.00000 0.27500
v 0.27500 1.90000 0.27500
v -0.27500 1.90000 0.27500
v -0.36000 1.86000 -0.36000
v 0.36000 1.86000 -0.36000
v 0.36000 2.04000 -0.36000
v -0.36000 2.04000 -0.36000
v -0.36000 1.86000 0.36000
v 0.36000 1.86000 0.36000
v 0.36000 2.04000 0.36000
v -0.36000 2.04000 0.36000
v -0.18000 2.03000 -0.18000
v 0.18000 2.03000 -0.18000
v 0.18000 2.13000 -0.18000
v -0.18000 2.13000 -0.18000
v -0.18000 2.03000 0.18000
v 0.18000 2.03000 0.18000
v 0.18000 2.13000 0.18000
v -0.18000 2.13000 0.18000
g piece_chimney_brick_stack
usemtl Mat_SootyBrick
f 1 2 3 4
f 5 8 7 6
f 1 5 6 2
f 2 6 7 3
f 3 7 8 4
f 4 8 5 1
g piece_chimney_cap
usemtl Mat_StoneFoundation
f 9 10 11 12
f 13 16 15 14
f 9 13 14 10
f 10 14 15 11
f 11 15 16 12
f 12 16 13 9
g piece_chimney_flue
usemtl Mat_MetalDark
f 17 18 19 20
f 21 24 23 22
f 17 21 22 18
f 18 22 23 19
f 19 23 24 20
f 20 24 21 17
