# GalakasMidCity_PIECE_DrainpipeMetal_01
mtllib GalakasMidCity_PIECE_DrainpipeMetal_01.mtl
v 0.00000 0.00000 -0.07500
v 0.00000 3.40000 -0.07500
v -0.02870 0.00000 -0.06929
v -0.02870 3.40000 -0.06929
v -0.05303 0.00000 -0.05303
v -0.05303 3.40000 -0.05303
v -0.06929 0.00000 -0.02870
v -0.06929 3.40000 -0.02870
v -0.07500 0.00000 -0.00000
v -0.07500 3.40000 -0.00000
v -0.06929 0.00000 0.02870
v -0.06929 3.40000 0.02870
v -0.05303 0.00000 0.05303
v -0.05303 3.40000 0.05303
v -0.02870 0.00000 0.06929
v -0.02870 3.40000 0.06929
v -0.00000 0.00000 0.07500
v -0.00000 3.40000 0.07500
v 0.02870 0.00000 0.06929
v 0.02870 3.40000 0.06929
v 0.05303 0.00000 0.05303
v 0.05303 3.40000 0.05303
v 0.06929 0.00000 0.02870
v 0.06929 3.40000 0.02870
v 0.07500 0.00000 0.00000
v 0.07500 3.40000 0.00000
v 0.06929 0.00000 -0.02870
v 0.06929 3.40000 -0.02870
v 0.05303 0.00000 -0.05303
v 0.05303 3.40000 -0.05303
v 0.02870 0.00000 -0.06929
v 0.02870 3.40000 -0.06929
v 0.00000 3.40000 0.07500
v 0.25000 3.75000 0.07500
v 0.02336 3.38332 0.06929
v 0.27336 3.73332 0.06929
v 0.04315 3.36918 0.05303
v 0.29315 3.71918 0.05303
v 0.05638 3.35973 0.02870
v 0.30638 3.70973 0.02870
v 0.06103 3.35641 0.00000
v 0.31103 3.70641 0.00000
v 0.05638 3.35973 -0.02870
v 0.30638 3.70973 -0.02870
v 0.04315 3.36918 -0.05303
v 0.29315 3.71918 -0.05303
v 0.02336 3.38332 -0.06929
v 0.27336 3.73332 -0.06929
v 0.00000 3.40000 -0.07500
v 0.25000 3.75000 -0.07500
v -0.02336 3.41668 -0.06929
v 0.22664 3.76668 -0.06929
v -0.04315 3.43082 -0.05303
v 0.20685 3.78082 -0.05303
v -0.05638 3.44027 -0.02870
v 0.19362 3.79027 -0.02870
v -0.06103 3.44359 -0.00000
v 0.18897 3.79359 -0.00000
v -0.05638 3.44027 0.02870
v 0.19362 3.79027 0.02870
v -0.04315 3.43082 0.05303
v 0.20685 3.78082 0.05303
v -0.02336 3.41668 0.06929
v 0.22664 3.76668 0.06929
v 0.25000 3.75000 -0.07500
v 0.25000 4.25000 -0.07500
v 0.22130 3.75000 -0.06929
v 0.22130 4.25000 -0.06929
v 0.19697 3.75000 -0.05303
v 0.19697 4.25000 -0.05303
v 0.18071 3.75000 -0.02870
v 0.18071 4.25000 -0.02870
v 0.17500 3.75000 -0.00000
v 0.17500 4.25000 -0.00000
v 0.18071 3.75000 0.02870
v 0.18071 4.25000 0.02870
v 0.19697 3.75000 0.05303
v 0.19697 4.25000 0.05303
v 0.22130 3.75000 0.06929
v 0.22130 4.25000 0.06929
v 0.25000 3.75000 0.07500
v 0.25000 4.25000 0.07500
v 0.27870 3.75000 0.06929
v 0.27870 4.25000 0.06929
v 0.30303 3.75000 0.05303
v 0.30303 4.25000 0.05303
v 0.31929 3.75000 0.02870
v 0.31929 4.25000 0.02870
v 0.32500 3.75000 0.00000
v 0.32500 4.25000 0.00000
v 0.31929 3.75000 -0.02870
v 0.31929 4.25000 -0.02870
v 0.30303 3.75000 -0.05303
v 0.30303 4.25000 -0.05303
v 0.27870 3.75000 -0.06929
v 0.27870 4.25000 -0.06929
v 0.25000 4.25000 -0.07500
v 0.05000 4.55000 -0.07500
v 0.22612 4.23408 -0.06929
v 0.02612 4.53408 -0.06929
v 0.20587 4.22058 -0.05303
v 0.00587 4.52058 -0.05303
v 0.19235 4.21156 -0.02870
v -0.00765 4.51156 -0.02870
v 0.18760 4.20840 -0.00000
v -0.01240 4.50840 -0.00000
v 0.19235 4.21156 0.02870
v -0.00765 4.51156 0.02870
v 0.20587 4.22058 0.05303
v 0.00587 4.52058 0.05303
v 0.22612 4.23408 0.06929
v 0.02612 4.53408 0.06929
v 0.25000 4.25000 0.07500
v 0.05000 4.55000 0.07500
v 0.27388 4.26592 0.06929
v 0.07388 4.56592 0.06929
v 0.29413 4.27942 0.05303
v 0.09413 4.57942 0.05303
v 0.30765 4.28844 0.02870
v 0.10765 4.58844 0.02870
v 0.31240 4.29160 0.00000
v 0.11240 4.59160 0.00000
v 0.30765 4.28844 -0.02870
v 0.10765 4.58844 -0.02870
v 0.29413 4.27942 -0.05303
v 0.09413 4.57942 -0.05303
v 0.27388 4.26592 -0.06929
v 0.07388 4.56592 -0.06929
v 0.00000 3.47875 0.00000
v 0.00000 3.47875 0.00000
v 0.00000 3.47875 0.00000
v 0.00000 3.47875 0.00000
v 0.00000 3.47875 0.00000
v 0.00000 3.47875 0.00000
v 0.00000 3.47875 0.00000
v 0.00000 3.47875 0.00000
v 0.00000 3.47875 0.00000
v 0.00000 3.47875 0.00000
v 0.00000 3.47875 0.00000
v 0.00000 3.47875 0.00000
v 0.00000 3.47875 0.00000
v 0.00000 3.47875 0.00000
v 0.00000 3.47875 0.00000
v 0.00000 3.47875 0.00000
v 0.04629 3.46371 0.00000
v 0.04276 3.46371 0.01771
v 0.03273 3.46371 0.03273
v 0.01771 3.46371 0.04276
v 0.00000 3.46371 0.04629
v -0.01771 3.46371 0.04276
v -0.03273 3.46371 0.03273
v -0.04276 3.46371 0.01771
v -0.04629 3.46371 0.00000
v -0.04276 3.46371 -0.01771
v -0.03273 3.46371 -0.03273
v -0.01771 3.46371 -0.04276
v -0.00000 3.46371 -0.04629
v 0.01771 3.46371 -0.04276
v 0.03273 3.46371 -0.03273
v 0.04276 3.46371 -0.01771
v 0.07490 3.42434 0.00000
v 0.06919 3.42434 0.02866
v 0.05296 3.42434 0.05296
v 0.02866 3.42434 0.06919
v 0.00000 3.42434 0.07490
v -0.02866 3.42434 0.06919
v -0.05296 3.42434 0.05296
v -0.06919 3.42434 0.02866
v -0.07490 3.42434 0.00000
v -0.06919 3.42434 -0.02866
v -0.05296 3.42434 -0.05296
v -0.02866 3.42434 -0.06919
v -0.00000 3.42434 -0.07490
v 0.02866 3.42434 -0.06919
v 0.05296 3.42434 -0.05296
v 0.06919 3.42434 -0.02866
v 0.07490 3.37566 0.00000
v 0.06919 3.37566 0.02866
v 0.05296 3.37566 0.05296
v 0.02866 3.37566 0.06919
v 0.00000 3.37566 0.07490
v -0.02866 3.37566 0.06919
v -0.05296 3.37566 0.05296
v -0.06919 3.37566 0.02866
v -0.07490 3.37566 0.00000
v -0.06919 3.37566 -0.02866
v -0.05296 3.37566 -0.05296
v -0.02866 3.37566 -0.06919
v -0.00000 3.37566 -0.07490
v 0.02866 3.37566 -0.06919
v 0.05296 3.37566 -0.05296
v 0.06919 3.37566 -0.02866
v 0.04629 3.33629 0.00000
v 0.04276 3.33629 0.01771
v 0.03273 3.33629 0.03273
v 0.01771 3.33629 0.04276
v 0.00000 3.33629 0.04629
v -0.01771 3.33629 0.04276
v -0.03273 3.33629 0.03273
v -0.04276 3.33629 0.01771
v -0.04629 3.33629 0.00000
v -0.04276 3.33629 -0.01771
v -0.03273 3.33629 -0.03273
v -0.01771 3.33629 -0.04276
v -0.00000 3.33629 -0.04629
v 0.01771 3.33629 -0.04276
v 0.03273 3.33629 -0.03273
v 0.04276 3.33629 -0.01771
v 0.00000 3.32125 0.00000
v 0.00000 3.32125 0.00000
v 0.00000 3.32125 0.00000
v 0.00000 3.32125 0.00000
v 0.00000 3.32125 0.00000
v -0.00000 3.32125 0.00000
v -0.00000 3.32125 0.00000
v -0.00000 3.32125 0.00000
v -0.00000 3.32125 0.00000
v -0.00000 3.32125 -0.00000
v -0.00000 3.32125 -0.00000
v -0.00000 3.32125 -0.00000
v -0.00000 3.32125 -0.00000
v 0.00000 3.32125 -0.00000
v 0.00000 3.32125 -0.00000
v 0.00000 3.32125 -0.00000
v 0.25000 3.82875 0.00000
v 0.25000 3.82875 0.00000
v 0.25000 3.82875 0.00000
v 0.25000 3.82875 0.00000
v 0.25000 3.82875 0.00000
v 0.25000 3.82875 0.00000
v 0.25000 3.82875 0.00000
v 0.25000 3.82875 0.00000
v 0.25000 3.82875 0.00000
v 0.25000 3.82875 0.00000
v 0.25000 3.82875 0.00000
v 0.25000 3.82875 0.00000
v 0.25000 3.82875 0.00000
v 0.25000 3.82875 0.00000
v 0.25000 3.82875 0.00000
v 0.25000 3.82875 0.00000
v 0.29629 3.81371 0.00000
v 0.29276 3.81371 0.01771
v 0.28273 3.81371 0.03273
v 0.26771 3.81371 0.04276
v 0.25000 3.81371 0.04629
v 0.23229 3.81371 0.04276
v 0.21727 3.81371 0.03273
v 0.20724 3.81371 0.01771
v 0.20371 3.81371 0.00000
v 0.20724 3.81371 -0.01771
v 0.21727 3.81371 -0.03273
v 0.23229 3.81371 -0.04276
v 0.25000 3.81371 -0.04629
v 0.26771 3.81371 -0.04276
v 0.28273 3.81371 -0.03273
v 0.29276 3.81371 -0.01771
v 0.32490 3.77434 0.00000
v 0.31919 3.77434 0.02866
v 0.30296 3.77434 0.05296
v 0.27866 3.77434 0.06919
v 0.25000 3.77434 0.07490
v 0.22134 3.77434 0.06919
v 0.19704 3.77434 0.05296
v 0.18081 3.77434 0.02866
v 0.17510 3.77434 0.00000
v 0.18081 3.77434 -0.02866
v 0.19704 3.77434 -0.05296
v 0.22134 3.77434 -0.06919
v 0.25000 3.77434 -0.07490
v 0.27866 3.77434 -0.06919
v 0.30296 3.77434 -0.05296
v 0.31919 3.77434 -0.02866
v 0.32490 3.72566 0.00000
v 0.31919 3.72566 0.02866
v 0.30296 3.72566 0.05296
v 0.27866 3.72566 0.06919
v 0.25000 3.72566 0.07490
v 0.22134 3.72566 0.06919
v 0.19704 3.72566 0.05296
v 0.18081 3.72566 0.02866
v 0.17510 3.72566 0.00000
v 0.18081 3.72566 -0.02866
v 0.19704 3.72566 -0.05296
v 0.22134 3.72566 -0.06919
v 0.25000 3.72566 -0.07490
v 0.27866 3.72566 -0.06919
v 0.30296 3.72566 -0.05296
v 0.31919 3.72566 -0.02866
v 0.29629 3.68629 0.00000
v 0.29276 3.68629 0.01771
v 0.28273 3.68629 0.03273
v 0.26771 3.68629 0.04276
v 0.25000 3.68629 0.04629
v 0.23229 3.68629 0.04276
v 0.21727 3.68629 0.03273
v 0.20724 3.68629 0.01771
v 0.20371 3.68629 0.00000
v 0.20724 3.68629 -0.01771
v 0.21727 3.68629 -0.03273
v 0.23229 3.68629 -0.04276
v 0.25000 3.68629 -0.04629
v 0.26771 3.68629 -0.04276
v 0.28273 3.68629 -0.03273
v 0.29276 3.68629 -0.01771
v 0.25000 3.67125 0.00000
v 0.25000 3.67125 0.00000
v 0.25000 3.67125 0.00000
v 0.25000 3.67125 0.00000
v 0.25000 3.67125 0.00000
v 0.25000 3.67125 0.00000
v 0.25000 3.67125 0.00000
v 0.25000 3.67125 0.00000
v 0.25000 3.67125 0.00000
v 0.25000 3.67125 -0.00000
v 0.25000 3.67125 -0.00000
v 0.25000 3.67125 -0.00000
v 0.25000 3.67125 -0.00000
v 0.25000 3.67125 -0.00000
v 0.25000 3.67125 -0.00000
v 0.25000 3.67125 -0.00000
v 0.25000 4.32875 0.00000
v 0.25000 4.32875 0.00000
v 0.25000 4.32875 0.00000
v 0.25000 4.32875 0.00000
v 0.25000 4.32875 0.00000
v 0.25000 4.32875 0.00000
v 0.25000 4.32875 0.00000
v 0.25000 4.32875 0.00000
v 0.25000 4.32875 0.00000
v 0.25000 4.32875 0.00000
v 0.25000 4.32875 0.00000
v 0.25000 4.32875 0.00000
v 0.25000 4.32875 0.00000
v 0.25000 4.32875 0.00000
v 0.25000 4.32875 0.00000
v 0.25000 4.32875 0.00000
v 0.29629 4.31371 0.00000
v 0.29276 4.31371 0.01771
v 0.28273 4.31371 0.03273
v 0.26771 4.31371 0.04276
v 0.25000 4.31371 0.04629
v 0.23229 4.31371 0.04276
v 0.21727 4.31371 0.03273
v 0.20724 4.31371 0.01771
v 0.20371 4.31371 0.00000
v 0.20724 4.31371 -0.01771
v 0.21727 4.31371 -0.03273
v 0.23229 4.31371 -0.04276
v 0.25000 4.31371 -0.04629
v 0.26771 4.31371 -0.04276
v 0.28273 4.31371 -0.03273
v 0.29276 4.31371 -0.01771
v 0.32490 4.27434 0.00000
v 0.31919 4.27434 0.02866
v 0.30296 4.27434 0.05296
v 0.27866 4.27434 0.06919
v 0.25000 4.27434 0.07490
v 0.22134 4.27434 0.06919
v 0.19704 4.27434 0.05296
v 0.18081 4.27434 0.02866
v 0.17510 4.27434 0.00000
v 0.18081 4.27434 -0.02866
v 0.19704 4.27434 -0.05296
v 0.22134 4.27434 -0.06919
v 0.25000 4.27434 -0.07490
v 0.27866 4.27434 -0.06919
v 0.30296 4.27434 -0.05296
v 0.31919 4.27434 -0.02866
v 0.32490 4.22566 0.00000
v 0.31919 4.22566 0.02866
v 0.30296 4.22566 0.05296
v 0.27866 4.22566 0.06919
v 0.25000 4.22566 0.07490
v 0.22134 4.22566 0.06919
v 0.19704 4.22566 0.05296
v 0.18081 4.22566 0.02866
v 0.17510 4.22566 0.00000
v 0.18081 4.22566 -0.02866
v 0.19704 4.22566 -0.05296
v 0.22134 4.22566 -0.06919
v 0.25000 4.22566 -0.07490
v 0.27866 4.22566 -0.06919
v 0.30296 4.22566 -0.05296
v 0.31919 4.22566 -0.02866
v 0.29629 4.18629 0.00000
v 0.29276 4.18629 0.01771
v 0.28273 4.18629 0.03273
v 0.26771 4.18629 0.04276
v 0.25000 4.18629 0.04629
v 0.23229 4.18629 0.04276
v 0.21727 4.18629 0.03273
v 0.20724 4.18629 0.01771
v 0.20371 4.18629 0.00000
v 0.20724 4.18629 -0.01771
v 0.21727 4.18629 -0.03273
v 0.23229 4.18629 -0.04276
v 0.25000 4.18629 -0.04629
v 0.26771 4.18629 -0.04276
v 0.28273 4.18629 -0.03273
v 0.29276 4.18629 -0.01771
v 0.25000 4.17125 0.00000
v 0.25000 4.17125 0.00000
v 0.25000 4.17125 0.00000
v 0.25000 4.17125 0.00000
v 0.25000 4.17125 0.00000
v 0.25000 4.17125 0.00000
v 0.25000 4.17125 0.00000
v 0.25000 4.17125 0.00000
v 0.25000 4.17125 0.00000
v 0.25000 4.17125 -0.00000
v 0.25000 4.17125 -0.00000
v 0.25000 4.17125 -0.00000
v 0.25000 4.17125 -0.00000
v 0.25000 4.17125 -0.00000
v 0.25000 4.17125 -0.00000
v 0.25000 4.17125 -0.00000
v -0.22500 0.76500 -0.09000
v 0.22500 0.76500 -0.09000
v 0.22500 0.83500 -0.09000
v -0.22500 0.83500 -0.09000
v -0.22500 0.76500 -0.01000
v 0.22500 0.76500 -0.01000
v 0.22500 0.83500 -0.01000
v -0.22500 0.83500 -0.01000
v -0.22500 1.86500 -0.09000
v 0.22500 1.86500 -0.09000
v 0.22500 1.93500 -0.09000
v -0.22500 1.93500 -0.09000
v -0.22500 1.86500 -0.01000
v 0.22500 1.86500 -0.01000
v 0.22500 1.93500 -0.01000
v -0.22500 1.93500 -0.01000
v -0.22500 2.96500 -0.09000
v 0.22500 2.96500 -0.09000
v 0.22500 3.03500 -0.09000
v -0.22500 3.03500 -0.09000
v -0.22500 2.96500 -0.01000
v 0.22500 2.96500 -0.01000
v 0.22500 3.03500 -0.01000
v -0.22500 3.03500 -0.01000
v -0.22500 4.06500 -0.09000
v 0.22500 4.06500 -0.09000
v 0.22500 4.13500 -0.09000
v -0.22500 4.13500 -0.09000
v -0.22500 4.06500 -0.01000
v 0.22500 4.06500 -0.01000
v 0.22500 4.13500 -0.01000
v -0.22500 4.13500 -0.01000
g high_quality_curved_drainpipe_seg0
usemtl Mat_MetalRust
f 1 3 4 2
f 3 5 6 4
f 5 7 8 6
f 7 9 10 8
f 9 11 12 10
f 11 13 14 12
f 13 15 16 14
f 15 17 18 16
f 17 19 20 18
f 19 21 22 20
f 21 23 24 22
f 23 25 26 24
f 25 27 28 26
f 27 29 30 28
f 29 31 32 30
f 31 1 2 32
g high_quality_curved_drainpipe_seg0_capA
f 31 29 27 25 23 21 19 17 15 13 11 9 7 5 3 1
g high_quality_curved_drainpipe_seg0_capB
f 2 4 6 8 10 12 14 16 18 20 22 24 26 28 30 32
g high_quality_curved_drainpipe_seg1
f 33 35 36 34
f 35 37 38 36
f 37 39 40 38
f 39 41 42 40
f 41 43 44 42
f 43 45 46 44
f 45 47 48 46
f 47 49 50 48
f 49 51 52 50
f 51 53 54 52
f 53 55 56 54
f 55 57 58 56
f 57 59 60 58
f 59 61 62 60
f 61 63 64 62
f 63 33 34 64
g high_quality_curved_drainpipe_seg1_capA
f 63 61 59 57 55 53 51 49 47 45 43 41 39 37 35 33
g high_quality_curved_drainpipe_seg1_capB
f 34 36 38 40 42 44 46 48 50 52 54 56 58 60 62 64
g high_quality_curved_drainpipe_seg2
f 65 67 68 66
f 67 69 70 68
f 69 71 72 70
f 71 73 74 72
f 73 75 76 74
f 75 77 78 76
f 77 79 80 78
f 79 81 82 80
f 81 83 84 82
f 83 85 86 84
f 85 87 88 86
f 87 89 90 88
f 89 91 92 90
f 91 93 94 92
f 93 95 96 94
f 95 65 66 96
g high_quality_curved_drainpipe_seg2_capA
f 95 93 91 89 87 85 83 81 79 77 75 73 71 69 67 65
g high_quality_curved_drainpipe_seg2_capB
f 66 68 70 72 74 76 78 80 82 84 86 88 90 92 94 96
g high_quality_curved_drainpipe_seg3
f 97 99 100 98
f 99 101 102 100
f 101 103 104 102
f 103 105 106 104
f 105 107 108 106
f 107 109 110 108
f 109 111 112 110
f 111 113 114 112
f 113 115 116 114
f 115 117 118 116
f 117 119 120 118
f 119 121 122 120
f 121 123 124 122
f 123 125 126 124
f 125 127 128 126
f 127 97 98 128
g high_quality_curved_drainpipe_seg3_capA
f 127 125 123 121 119 117 115 113 111 109 107 105 103 101 99 97
g high_quality_curved_drainpipe_seg3_capB
f 98 100 102 104 106 108 110 112 114 116 118 120 122 124 126 128
g high_quality_curved_drainpipe_joint1
f 129 130 146 145
f 130 131 147 146
f 131 132 148 147
f 132 133 149 148
f 133 134 150 149
f 134 135 151 150
f 135 136 152 151
f 136 137 153 152
f 137 138 154 153
f 138 139 155 154
f 139 140 156 155
f 140 141 157 156
f 141 142 158 157
f 142 143 159 158
f 143 144 160 159
f 144 129 145 160
f 145 146 162 161
f 146 147 163 162
f 147 148 164 163
f 148 149 165 164
f 149 150 166 165
f 150 151 167 166
f 151 152 168 167
f 152 153 169 168
f 153 154 170 169
f 154 155 171 170
f 155 156 172 171
f 156 157 173 172
f 157 158 174 173
f 158 159 175 174
f 159 160 176 175
f 160 145 161 176
f 161 162 178 177
f 162 163 179 178
f 163 164 180 179
f 164 165 181 180
f 165 166 182 181
f 166 167 183 182
f 167 168 184 183
f 168 169 185 184
f 169 170 186 185
f 170 171 187 186
f 171 172 188 187
f 172 173 189 188
f 173 174 190 189
f 174 175 191 190
f 175 176 192 191
f 176 161 177 192
f 177 178 194 193
f 178 179 195 194
f 179 180 196 195
f 180 181 197 196
f 181 182 198 197
f 182 183 199 198
f 183 184 200 199
f 184 185 201 200
f 185 186 202 201
f 186 187 203 202
f 187 188 204 203
f 188 189 205 204
f 189 190 206 205
f 190 191 207 206
f 191 192 208 207
f 192 177 193 208
f 193 194 210 209
f 194 195 211 210
f 195 196 212 211
f 196 197 213 212
f 197 198 214 213
f 198 199 215 214
f 199 200 216 215
f 200 201 217 216
f 201 202 218 217
f 202 203 219 218
f 203 204 220 219
f 204 205 221 220
f 205 206 222 221
f 206 207 223 222
f 207 208 224 223
f 208 193 209 224
g high_quality_curved_drainpipe_joint2
f 225 226 242 241
f 226 227 243 242
f 227 228 244 243
f 228 229 245 244
f 229 230 246 245
f 230 231 247 246
f 231 232 248 247
f 232 233 249 248
f 233 234 250 249
f 234 235 251 250
f 235 236 252 251
f 236 237 253 252
f 237 238 254 253
f 238 239 255 254
f 239 240 256 255
f 240 225 241 256
f 241 242 258 257
f 242 243 259 258
f 243 244 260 259
f 244 245 261 260
f 245 246 262 261
f 246 247 263 262
f 247 248 264 263
f 248 249 265 264
f 249 250 266 265
f 250 251 267 266
f 251 252 268 267
f 252 253 269 268
f 253 254 270 269
f 254 255 271 270
f 255 256 272 271
f 256 241 257 272
f 257 258 274 273
f 258 259 275 274
f 259 260 276 275
f 260 261 277 276
f 261 262 278 277
f 262 263 279 278
f 263 264 280 279
f 264 265 281 280
f 265 266 282 281
f 266 267 283 282
f 267 268 284 283
f 268 269 285 284
f 269 270 286 285
f 270 271 287 286
f 271 272 288 287
f 272 257 273 288
f 273 274 290 289
f 274 275 291 290
f 275 276 292 291
f 276 277 293 292
f 277 278 294 293
f 278 279 295 294
f 279 280 296 295
f 280 281 297 296
f 281 282 298 297
f 282 283 299 298
f 283 284 300 299
f 284 285 301 300
f 285 286 302 301
f 286 287 303 302
f 287 288 304 303
f 288 273 289 304
f 289 290 306 305
f 290 291 307 306
f 291 292 308 307
f 292 293 309 308
f 293 294 310 309
f 294 295 311 310
f 295 296 312 311
f 296 297 313 312
f 297 298 314 313
f 298 299 315 314
f 299 300 316 315
f 300 301 317 316
f 301 302 318 317
f 302 303 319 318
f 303 304 320 319
f 304 289 305 320
g high_quality_curved_drainpipe_joint3
f 321 322 338 337
f 322 323 339 338
f 323 324 340 339
f 324 325 341 340
f 325 326 342 341
f 326 327 343 342
f 327 328 344 343
f 328 329 345 344
f 329 330 346 345
f 330 331 347 346
f 331 332 348 347
f 332 333 349 348
f 333 334 350 349
f 334 335 351 350
f 335 336 352 351
f 336 321 337 352
f 337 338 354 353
f 338 339 355 354
f 339 340 356 355
f 340 341 357 356
f 341 342 358 357
f 342 343 359 358
f 343 344 360 359
f 344 345 361 360
f 345 346 362 361
f 346 347 363 362
f 347 348 364 363
f 348 349 365 364
f 349 350 366 365
f 350 351 367 366
f 351 352 368 367
f 352 337 353 368
f 353 354 370 369
f 354 355 371 370
f 355 356 372 371
f 356 357 373 372
f 357 358 374 373
f 358 359 375 374
f 359 360 376 375
f 360 361 377 376
f 361 362 378 377
f 362 363 379 378
f 363 364 380 379
f 364 365 381 380
f 365 366 382 381
f 366 367 383 382
f 367 368 384 383
f 368 353 369 384
f 369 370 386 385
f 370 371 387 386
f 371 372 388 387
f 372 373 389 388
f 373 374 390 389
f 374 375 391 390
f 375 376 392 391
f 376 377 393 392
f 377 378 394 393
f 378 379 395 394
f 379 380 396 395
f 380 381 397 396
f 381 382 398 397
f 382 383 399 398
f 383 384 400 399
f 384 369 385 400
f 385 386 402 401
f 386 387 403 402
f 387 388 404 403
f 388 389 405 404
f 389 390 406 405
f 390 391 407 406
f 391 392 408 407
f 392 393 409 408
f 393 394 410 409
f 394 395 411 410
f 395 396 412 411
f 396 397 413 412
f 397 398 414 413
f 398 399 415 414
f 399 400 416 415
f 400 385 401 416
g pipe_wall_bracket_0_8
usemtl Mat_MetalDark
f 417 418 419 420
f 421 424 423 422
f 417 421 422 418
f 418 422 423 419
f 419 423 424 420
f 420 424 421 417
g pipe_wall_bracket_1_9
f 425 426 427 428
f 429 432 431 430
f 425 429 430 426
f 426 430 431 427
f 427 431 432 428
f 428 432 429 425
g pipe_wall_bracket_3_0
f 433 434 435 436
f 437 440 439 438
f 433 437 438 434
f 434 438 439 435
f 435 439 440 436
f 436 440 437 433
g pipe_wall_bracket_4_1
f 441 442 443 444
f 445 448 447 446
f 441 445 446 442
f 442 446 447 443
f 443 447 448 444
f 444 448 445 441
