# dead_tree_snag
mtllib nomad_vegetation.mtl
o dead_tree_snag
v 0.09500 0.00000 0.00000
v 0.05923 0.00000 0.07427
v 0.01895 1.90000 0.02377
v 0.03040 1.90000 0.00000
v 0.05923 0.00000 0.07427
v -0.02114 0.00000 0.09262
v -0.00676 1.90000 0.02964
v 0.01895 1.90000 0.02377
v -0.02114 0.00000 0.09262
v -0.08559 0.00000 0.04122
v -0.02739 1.90000 0.01319
v -0.00676 1.90000 0.02964
v -0.08559 0.00000 0.04122
v -0.08559 0.00000 -0.04122
v -0.02739 1.90000 -0.01319
v -0.02739 1.90000 0.01319
v -0.08559 0.00000 -0.04122
v -0.02114 0.00000 -0.09262
v -0.00676 1.90000 -0.02964
v -0.02739 1.90000 -0.01319
v -0.02114 0.00000 -0.09262
v 0.05923 0.00000 -0.07427
v 0.01895 1.90000 -0.02377
v -0.00676 1.90000 -0.02964
v 0.05923 0.00000 -0.07427
v 0.09500 0.00000 -0.00000
v 0.03040 1.90000 -0.00000
v 0.01895 1.90000 -0.02377
v 0.00000 0.00000 0.00000
v 0.05923 0.00000 0.07427
v 0.09500 0.00000 0.00000
v 0.00000 1.90000 0.00000
v 0.03040 1.90000 0.00000
v 0.01895 1.90000 0.02377
v 0.00000 0.00000 0.00000
v -0.02114 0.00000 0.09262
v 0.05923 0.00000 0.07427
v 0.00000 1.90000 0.00000
v 0.01895 1.90000 0.02377
v -0.00676 1.90000 0.02964
v 0.00000 0.00000 0.00000
v -0.08559 0.00000 0.04122
v -0.02114 0.00000 0.09262
v 0.00000 1.90000 0.00000
v -0.00676 1.90000 0.02964
v -0.02739 1.90000 0.01319
v 0.00000 0.00000 0.00000
v -0.08559 0.00000 -0.04122
v -0.08559 0.00000 0.04122
v 0.00000 1.90000 0.00000
v -0.02739 1.90000 0.01319
v -0.02739 1.90000 -0.01319
v 0.00000 0.00000 0.00000
v -0.02114 0.00000 -0.09262
v -0.08559 0.00000 -0.04122
v 0.00000 1.90000 0.00000
v -0.02739 1.90000 -0.01319
v -0.00676 1.90000 -0.02964
v 0.00000 0.00000 0.00000
v 0.05923 0.00000 -0.07427
v -0.02114 0.00000 -0.09262
v 0.00000 1.90000 0.00000
v -0.00676 1.90000 -0.02964
v 0.01895 1.90000 -0.02377
v 0.00000 0.00000 0.00000
v 0.09500 0.00000 -0.00000
v 0.05923 0.00000 -0.07427
v 0.00000 1.90000 0.00000
v 0.01895 1.90000 -0.02377
v 0.03040 1.90000 -0.00000
v -0.00160 1.58614 0.02996
v 0.01599 1.56287 0.01014
v 0.86315 2.18031 0.05112
v 0.85348 2.19311 0.06202
v 0.01599 1.56287 0.01014
v 0.01148 1.57175 -0.02369
v 0.86067 2.18520 0.03251
v 0.86315 2.18031 0.05112
v 0.01148 1.57175 -0.02369
v -0.00890 1.60052 -0.02478
v 0.84946 2.20102 0.03191
v 0.86067 2.18520 0.03251
v -0.00890 1.60052 -0.02478
v -0.01698 1.60941 0.00838
v 0.84502 2.20591 0.05015
v 0.84946 2.20102 0.03191
v -0.01698 1.60941 0.00838
v -0.00160 1.58614 0.02996
v 0.85348 2.19311 0.06202
v 0.84502 2.20591 0.05015
v -0.02776 1.30322 0.01137
v 0.00083 1.28917 0.02649
v 0.09956 1.75753 0.25660
v 0.08383 1.76526 0.24828
v 0.00083 1.28917 0.02649
v 0.02828 1.29454 0.00500
v 0.11465 1.76048 0.24478
v 0.09956 1.75753 0.25660
v 0.02828 1.29454 0.00500
v 0.01665 1.31191 -0.02340
v 0.10826 1.77004 0.22916
v 0.11465 1.76048 0.24478
v 0.01665 1.31191 -0.02340
v -0.01799 1.31728 -0.01947
v 0.08921 1.77299 0.23133
v 0.10826 1.77004 0.22916
v -0.01799 1.31728 -0.01947
v -0.02776 1.30322 0.01137
v 0.08383 1.76526 0.24828
v 0.08921 1.77299 0.23133
v -0.01025 0.96320 -0.02819
v -0.01737 0.93900 -0.00355
v -0.51899 1.28830 0.18325
v -0.51507 1.30161 0.16969
v -0.01737 0.93900 -0.00355
v -0.00048 0.94824 0.02600
v -0.50970 1.29339 0.19950
v -0.51899 1.28830 0.18325
v -0.00048 0.94824 0.02600
v 0.01707 0.97816 0.01962
v -0.50005 1.30984 0.19599
v -0.50970 1.29339 0.19950
v 0.01707 0.97816 0.01962
v 0.01103 0.98740 -0.01388
v -0.50337 1.31492 0.17757
v -0.50005 1.30984 0.19599
v 0.01103 0.98740 -0.01388
v -0.01025 0.96320 -0.02819
v -0.51507 1.30161 0.16969
v -0.50337 1.31492 0.17757
v 0.01681 0.82105 -0.02485
v -0.01407 0.80453 -0.02071
v -0.32189 1.34597 -0.22397
v -0.30491 1.35506 -0.22625
v -0.01407 0.80453 -0.02071
v -0.02551 0.81084 0.01204
v -0.32818 1.34944 -0.20596
v -0.32189 1.34597 -0.22397
v -0.02551 0.81084 0.01204
v -0.00170 0.83126 0.02816
v -0.31509 1.36067 -0.19710
v -0.32818 1.34944 -0.20596
v -0.00170 0.83126 0.02816
v 0.02446 0.83757 0.00536
v -0.30070 1.36414 -0.20964
v -0.31509 1.36067 -0.19710
v 0.02446 0.83757 0.00536
v 0.01681 0.82105 -0.02485
v -0.30491 1.35506 -0.22625
v -0.30070 1.36414 -0.20964
v 0.02108 1.23574 0.02135
v 0.02265 1.21843 -0.00934
v 0.22629 1.61982 -0.21624
v 0.22542 1.62934 -0.19936
v 0.02265 1.21843 -0.00934
v -0.00708 1.22504 -0.02712
v 0.20994 1.62345 -0.22602
v 0.22629 1.61982 -0.21624
v -0.00708 1.22504 -0.02712
v -0.02703 1.24644 -0.00742
v 0.19896 1.63522 -0.21519
v 0.20994 1.62345 -0.22602
v -0.02703 1.24644 -0.00742
v -0.00963 1.25305 0.02253
v 0.20853 1.63886 -0.19871
v 0.19896 1.63522 -0.21519
v -0.00963 1.25305 0.02253
v 0.02108 1.23574 0.02135
v 0.22542 1.62934 -0.19936
v 0.20853 1.63886 -0.19871
v -0.04000 0.00000 0.00000
v 0.04000 0.00000 0.00000
v 0.04000 2.18000 0.00000
v 0.04000 2.18000 0.00000
v 0.04000 0.00000 0.00000
v -0.04000 0.00000 0.00000
vt 0.00000 0.00000
vt 1.00000 0.00000
vt 1.00000 1.00000
vt 0.00000 1.00000
vt 0.00000 0.00000
vt 1.00000 0.00000
vt 1.00000 1.00000
vt 0.00000 1.00000
vt 0.00000 0.00000
vt 1.00000 0.00000
vt 1.00000 1.00000
vt 0.00000 1.00000
vt 0.00000 0.00000
vt 1.00000 0.00000
vt 1.00000 1.00000
vt 0.00000 1.00000
vt 0.00000 0.00000
vt 1.00000 0.00000
vt 1.00000 1.00000
vt 0.00000 1.00000
vt 0.00000 0.00000
vt 1.00000 0.00000
vt 1.00000 1.00000
vt 0.00000 1.00000
vt 0.00000 0.00000
vt 1.00000 0.00000
vt 1.00000 1.00000
vt 0.00000 1.00000
vt 0.00000 0.00000
vt 1.00000 0.00000
vt 1.00000 1.00000
vt 0.00000 0.00000
vt 1.00000 0.00000
vt 1.00000 1.00000
vt 0.00000 0.00000
vt 1.00000 0.00000
vt 1.00000 1.00000
vt 0.00000 0.00000
vt 1.00000 0.00000
vt 1.00000 1.00000
vt 0.00000 0.00000
vt 1.00000 0.00000
vt 1.00000 1.00000
vt 0.00000 0.00000
vt 1.00000 0.00000
vt 1.00000 1.00000
vt 0.00000 0.00000
vt 1.00000 0.00000
vt 1.00000 1.00000
vt 0.00000 0.00000
vt 1.00000 0.00000
vt 1.00000 1.00000
vt 0.00000 0.00000
vt 1.00000 0.00000
vt 1.00000 1.00000
vt 0.00000 0.00000
vt 1.00000 0.00000
vt 1.00000 1.00000
vt 0.00000 0.00000
vt 1.00000 0.00000
vt 1.00000 1.00000
vt 0.00000 0.00000
vt 1.00000 0.00000
vt 1.00000 1.00000
vt 0.00000 0.00000
vt 1.00000 0.00000
vt 1.00000 1.00000
vt 0.00000 0.00000
vt 1.00000 0.00000
vt 1.00000 1.00000
vt 0.00000 0.00000
vt 1.00000 0.00000
vt 1.00000 1.00000
vt 0.00000 1.00000
vt 0.00000 0.00000
vt 1.00000 0.00000
vt 1.00000 1.00000
vt 0.00000 1.00000
vt 0.00000 0.00000
vt 1.00000 0.00000
vt 1.00000 1.00000
vt 0.00000 1.00000
vt 0.00000 0.00000
vt 1.00000 0.00000
vt 1.00000 1.00000
vt 0.00000 1.00000
vt 0.00000 0.00000
vt 1.00000 0.00000
vt 1.00000 1.00000
vt 0.00000 1.00000
vt 0.00000 0.00000
vt 1.00000 0.00000
vt 1.00000 1.00000
vt 0.00000 1.00000
vt 0.00000 0.00000
vt 1.00000 0.00000
vt 1.00000 1.00000
vt 0.00000 1.00000
vt 0.00000 0.00000
vt 1.00000 0.00000
vt 1.00000 1.00000
vt 0.00000 1.00000
vt 0.00000 0.00000
vt 1.00000 0.00000
vt 1.00000 1.00000
vt 0.00000 1.00000
vt 0.00000 0.00000
vt 1.00000 0.00000
vt 1.00000 1.00000
vt 0.00000 1.00000
vt 0.00000 0.00000
vt 1.00000 0.00000
vt 1.00000 1.00000
vt 0.00000 1.00000
vt 0.00000 0.00000
vt 1.00000 0.00000
vt 1.00000 1.00000
vt 0.00000 1.00000
vt 0.00000 0.00000
vt 1.00000 0.00000
vt 1.00000 1.00000
vt 0.00000 1.00000
vt 0.00000 0.00000
vt 1.00000 0.00000
vt 1.00000 1.00000
vt 0.00000 1.00000
vt 0.00000 0.00000
vt 1.00000 0.00000
vt 1.00000 1.00000
vt 0.00000 1.00000
vt 0.00000 0.00000
vt 1.00000 0.00000
vt 1.00000 1.00000
vt 0.00000 1.00000
vt 0.00000 0.00000
vt 1.00000 0.00000
vt 1.00000 1.00000
vt 0.00000 1.00000
vt 0.00000 0.00000
vt 1.00000 0.00000
vt 1.00000 1.00000
vt 0.00000 1.00000
vt 0.00000 0.00000
vt 1.00000 0.00000
vt 1.00000 1.00000
vt 0.00000 1.00000
vt 0.00000 0.00000
vt 1.00000 0.00000
vt 1.00000 1.00000
vt 0.00000 1.00000
vt 0.00000 0.00000
vt 1.00000 0.00000
vt 1.00000 1.00000
vt 0.00000 1.00000
vt 0.00000 0.00000
vt 1.00000 0.00000
vt 1.00000 1.00000
vt 0.00000 1.00000
vt 0.00000 0.00000
vt 1.00000 0.00000
vt 1.00000 1.00000
vt 0.00000 1.00000
vt 0.00000 0.00000
vt 1.00000 0.00000
vt 1.00000 1.00000
vt 0.00000 1.00000
vt 0.00000 0.00000
vt 1.00000 0.00000
vt 1.00000 1.00000
vt 0.00000 1.00000
vt 0.00000 0.00000
vt 1.00000 0.00000
vt 0.50000 1.00000
vt 0.50000 1.00000
vt 1.00000 0.00000
vt 0.00000 0.00000
vn -0.90055 -0.03062 -0.43368
vn -0.22242 -0.03062 -0.97447
vn 0.62320 -0.03062 -0.78146
vn 0.99953 -0.03062 -0.00000
vn 0.62320 -0.03062 0.78146
vn -0.22242 -0.03062 0.97447
vn -0.90055 -0.03062 0.43368
vn 0.00000 1.00000 0.00000
vn 0.00000 -1.00000 0.00000
vn 0.00000 1.00000 -0.00000
vn 0.00000 -1.00000 0.00000
vn 0.00000 1.00000 0.00000
vn 0.00000 -1.00000 0.00000
vn 0.00000 1.00000 0.00000
vn -0.00000 -1.00000 0.00000
vn 0.00000 1.00000 0.00000
vn 0.00000 -1.00000 0.00000
vn 0.00000 1.00000 0.00000
vn 0.00000 -1.00000 -0.00000
vn 0.00000 1.00000 0.00000
vn 0.00000 -1.00000 0.00000
vn 0.30502 -0.47335 0.82638
vn 0.57442 -0.76962 -0.27882
vn 0.06171 0.00602 -0.99808
vn -0.52456 0.78166 -0.33740
vn -0.37419 0.48540 0.79017
vn -0.55091 -0.27159 0.78914
vn 0.60330 -0.45050 0.65809
vn 0.92907 0.01790 -0.36946
vn -0.02380 0.48630 -0.87347
vn -0.93848 0.30738 -0.15741
vn -0.58250 -0.48947 -0.64893
vn -0.38135 -0.79757 0.46739
vn 0.32799 0.00905 0.94464
vn 0.56523 0.81567 0.12327
vn 0.00251 0.50757 -0.86161
vn 0.04852 -0.32675 -0.94386
vn -0.82321 -0.53709 -0.18399
vn -0.56835 0.01359 0.82268
vn 0.46091 0.56427 0.68495
vn 0.84215 0.35393 -0.40683
vn 0.91016 -0.33905 0.23802
vn 0.33030 -0.55943 -0.76022
vn -0.69286 0.01753 -0.72086
vn -0.74535 0.59449 0.30171
vn 0.24537 0.37411 0.89434
vn 0.00000 0.00000 1.00000
vn -0.00000 -0.00000 -1.00000
usemtl dead_wood
f 1/1/1 2/2/1 3/3/1 4/4/1
f 5/5/2 6/6/2 7/7/2 8/8/2
f 9/9/3 10/10/3 11/11/3 12/12/3
f 13/13/4 14/14/4 15/15/4 16/16/4
f 17/17/5 18/18/5 19/19/5 20/20/5
f 21/21/6 22/22/6 23/23/6 24/24/6
f 25/25/7 26/26/7 27/27/7 28/28/7
f 29/29/8 30/30/8 31/31/8
f 32/32/9 33/33/9 34/34/9
f 35/35/10 36/36/10 37/37/10
f 38/38/11 39/39/11 40/40/11
f 41/41/12 42/42/12 43/43/12
f 44/44/13 45/45/13 46/46/13
f 47/47/14 48/48/14 49/49/14
f 50/50/15 51/51/15 52/52/15
f 53/53/16 54/54/16 55/55/16
f 56/56/17 57/57/17 58/58/17
f 59/59/18 60/60/18 61/61/18
f 62/62/19 63/63/19 64/64/19
f 65/65/20 66/66/20 67/67/20
f 68/68/21 69/69/21 70/70/21
f 71/71/22 72/72/22 73/73/22 74/74/22
f 75/75/23 76/76/23 77/77/23 78/78/23
f 79/79/24 80/80/24 81/81/24 82/82/24
f 83/83/25 84/84/25 85/85/25 86/86/25
f 87/87/26 88/88/26 89/89/26 90/90/26
f 91/91/27 92/92/27 93/93/27 94/94/27
f 95/95/28 96/96/28 97/97/28 98/98/28
f 99/99/29 100/100/29 101/101/29 102/102/29
f 103/103/30 104/104/30 105/105/30 106/106/30
f 107/107/31 108/108/31 109/109/31 110/110/31
f 111/111/32 112/112/32 113/113/32 114/114/32
f 115/115/33 116/116/33 117/117/33 118/118/33
f 119/119/34 120/120/34 121/121/34 122/122/34
f 123/123/35 124/124/35 125/125/35 126/126/35
f 127/127/36 128/128/36 129/129/36 130/130/36
f 131/131/37 132/132/37 133/133/37 134/134/37
f 135/135/38 136/136/38 137/137/38 138/138/38
f 139/139/39 140/140/39 141/141/39 142/142/39
f 143/143/40 144/144/40 145/145/40 146/146/40
f 147/147/41 148/148/41 149/149/41 150/150/41
f 151/151/42 152/152/42 153/153/42 154/154/42
f 155/155/43 156/156/43 157/157/43 158/158/43
f 159/159/44 160/160/44 161/161/44 162/162/44
f 163/163/45 164/164/45 165/165/45 166/166/45
f 167/167/46 168/168/46 169/169/46 170/170/46
f 171/171/47 172/172/47 173/173/47
f 174/174/48 175/175/48 176/176/48