# dry_scrub_bush_small
mtllib nomad_vegetation.mtl
o dry_scrub_bush_small
v 0.00153 0.05000 -0.00257
v -0.01601 0.04307 0.00040
v -0.21562 0.48868 -0.16578
v -0.20598 0.49250 -0.16741
v -0.01601 0.04307 0.00040
v -0.01575 0.05000 0.01818
v -0.21548 0.49250 -0.15599
v -0.21562 0.48868 -0.16578
v -0.01575 0.05000 0.01818
v 0.00179 0.05693 0.01522
v -0.20583 0.49631 -0.15762
v -0.21548 0.49250 -0.15599
v 0.00179 0.05693 0.01522
v 0.00153 0.05000 -0.00257
v -0.20598 0.49250 -0.16741
v -0.20583 0.49631 -0.15762
v -0.02122 0.05000 -0.00235
v -0.03640 0.03872 -0.00494
v -0.15024 0.27505 -0.33406
v -0.14189 0.28125 -0.33263
v -0.03640 0.03872 -0.00494
v -0.04674 0.05000 0.00648
v -0.15593 0.28125 -0.32778
v -0.15024 0.27505 -0.33406
v -0.04674 0.05000 0.00648
v -0.03155 0.06128 0.00908
v -0.14758 0.28745 -0.32635
v -0.15593 0.28125 -0.32778
v -0.03155 0.06128 0.00908
v -0.02122 0.05000 -0.00235
v -0.14189 0.28125 -0.33263
v -0.14758 0.28745 -0.32635
v -0.04404 0.05000 0.04943
v -0.03745 0.03923 0.03511
v 0.32759 0.32468 -0.00594
v 0.32397 0.33060 0.00194
v -0.03745 0.03923 0.03511
v -0.04705 0.05000 0.02260
v 0.32231 0.33060 -0.01281
v 0.32759 0.32468 -0.00594
v -0.04705 0.05000 0.02260
v -0.05364 0.06077 0.03693
v 0.31869 0.33652 -0.00494
v 0.32231 0.33060 -0.01281
v -0.05364 0.06077 0.03693
v -0.04404 0.05000 0.04943
v 0.32397 0.33060 0.00194
v 0.31869 0.33652 -0.00494
v 0.00805 0.05000 0.01318
v -0.00676 0.03795 0.01301
v -0.15414 0.23074 -0.32403
v -0.14599 0.23737 -0.32394
v -0.00676 0.03795 0.01301
v -0.01669 0.05000 0.02399
v -0.15960 0.23737 -0.31799
v -0.15414 0.23074 -0.32403
v -0.01669 0.05000 0.02399
v -0.00188 0.06205 0.02417
v -0.15145 0.24399 -0.31789
v -0.15960 0.23737 -0.31799
v -0.00188 0.06205 0.02417
v 0.00805 0.05000 0.01318
v -0.14599 0.23737 -0.32394
v -0.15145 0.24399 -0.31789
v 0.05005 0.05000 0.02447
v 0.05576 0.04000 0.00925
v 0.20111 0.18352 -0.02515
v 0.19796 0.18902 -0.01678
v 0.05576 0.04000 0.00925
v 0.04383 0.05000 -0.00180
v 0.19454 0.18902 -0.03123
v 0.20111 0.18352 -0.02515
v 0.04383 0.05000 -0.00180
v 0.03812 0.06000 0.01342
v 0.19140 0.19452 -0.02285
v 0.19454 0.18902 -0.03123
v 0.03812 0.06000 0.01342
v 0.05005 0.05000 0.02447
v 0.19796 0.18902 -0.01678
v 0.19140 0.19452 -0.02285
v -0.01633 0.05000 -0.00032
v -0.01263 0.03866 -0.01522
v 0.36703 0.29915 -0.11368
v 0.36500 0.30539 -0.10548
v -0.01263 0.03866 -0.01522
v -0.02310 0.05000 -0.02645
v 0.36127 0.30539 -0.11986
v 0.36703 0.29915 -0.11368
v -0.02310 0.05000 -0.02645
v -0.02680 0.06134 -0.01155
v 0.35923 0.31162 -0.11166
v 0.36127 0.30539 -0.11986
v -0.02680 0.06134 -0.01155
v -0.01633 0.05000 -0.00032
v 0.36500 0.30539 -0.10548
v 0.35923 0.31162 -0.11166
v -0.04712 0.05000 -0.00455
v -0.05037 0.03854 0.01037
v -0.35112 0.23985 0.09414
v -0.34933 0.24616 0.08594
v -0.05037 0.03854 0.01037
v -0.03988 0.05000 0.02146
v -0.34535 0.24616 0.10024
v -0.35112 0.23985 0.09414
v -0.03988 0.05000 0.02146
v -0.03663 0.06146 0.00654
v -0.34356 0.25246 0.09204
v -0.34535 0.24616 0.10024
v -0.03663 0.06146 0.00654
v -0.04712 0.05000 -0.00455
v -0.34933 0.24616 0.08594
v -0.34356 0.25246 0.09204
v -0.05319 0.05000 -0.01196
v -0.05529 0.04144 0.00498
v -0.32219 0.42950 0.16300
v -0.32103 0.43421 0.15369
v -0.05529 0.04144 0.00498
v -0.03943 0.05000 0.01128
v -0.31346 0.43421 0.16646
v -0.32219 0.42950 0.16300
v -0.03943 0.05000 0.01128
v -0.03732 0.05856 -0.00566
v -0.31230 0.43892 0.15715
v -0.31346 0.43421 0.16646
v -0.03732 0.05856 -0.00566
v -0.05319 0.05000 -0.01196
v -0.32103 0.43421 0.15369
v -0.31230 0.43892 0.15715
v 0.02633 0.13627 0.07465
v 0.07065 0.13627 -0.19948
v 0.03756 0.34224 -0.20483
v -0.00676 0.34224 0.06930
v -0.00676 0.34224 0.06930
v 0.03756 0.34224 -0.20483
v 0.07065 0.13627 -0.19948
v 0.02633 0.13627 0.07465
v 0.15051 0.26507 0.10297
v 0.11192 0.26507 0.34958
v 0.10110 0.49834 0.34789
v 0.13969 0.49834 0.10128
v 0.13969 0.49834 0.10128
v 0.10110 0.49834 0.34789
v 0.11192 0.26507 0.34958
v 0.15051 0.26507 0.10297
v 0.00621 0.11580 0.20392
v 0.05519 0.11580 -0.07664
v 0.05252 0.45724 -0.07711
v 0.00353 0.45724 0.20345
v 0.00353 0.45724 0.20345
v 0.05252 0.45724 -0.07711
v 0.05519 0.11580 -0.07664
v 0.00621 0.11580 0.20392
v -0.19496 -0.09237 0.07224
v 0.01299 -0.09237 0.18643
v 0.01547 0.15497 0.18193
v -0.19249 0.15497 0.06773
v -0.19249 0.15497 0.06773
v 0.01547 0.15497 0.18193
v 0.01299 -0.09237 0.18643
v -0.19496 -0.09237 0.07224
v -0.22121 0.21591 -0.01294
v -0.03192 0.21591 -0.13218
v -0.03069 0.50191 -0.13023
v -0.21998 0.50191 -0.01099
v -0.21998 0.50191 -0.01099
v -0.03069 0.50191 -0.13023
v -0.03192 0.21591 -0.13218
v -0.22121 0.21591 -0.01294
v 0.06262 0.10098 0.03013
v -0.15062 0.10098 -0.09586
v -0.14852 0.36728 -0.09941
v 0.06471 0.36728 0.02658
v 0.06471 0.36728 0.02658
v -0.14852 0.36728 -0.09941
v -0.15062 0.10098 -0.09586
v 0.06262 0.10098 0.03013
v -0.20821 0.03839 0.00308
v 0.04153 0.03839 0.00752
v 0.04148 0.23250 0.01027
v -0.20826 0.23250 0.00583
v -0.20826 0.23250 0.00583
v 0.04148 0.23250 0.01027
v 0.04153 0.03839 0.00752
v -0.20821 0.03839 0.00308
v 0.22262 -0.03253 -0.02346
v -0.10248 -0.03253 0.06298
v -0.10067 0.24583 0.06981
v 0.22444 0.24583 -0.01663
v 0.22444 0.24583 -0.01663
v -0.10067 0.24583 0.06981
v -0.10248 -0.03253 0.06298
v 0.22262 -0.03253 -0.02346
v -0.07534 0.14518 0.11681
v -0.24778 0.14518 -0.11906
v -0.21265 0.40847 -0.14475
v -0.04021 0.40847 0.09112
v -0.04021 0.40847 0.09112
v -0.21265 0.40847 -0.14475
v -0.24778 0.14518 -0.11906
v -0.07534 0.14518 0.11681
v -0.00910 0.12641 0.20962
v 0.12676 0.12641 -0.03965
v 0.12456 0.42424 -0.04085
v -0.01130 0.42424 0.20842
v -0.01130 0.42424 0.20842
v 0.12456 0.42424 -0.04085
v 0.12676 0.12641 -0.03965
v -0.00910 0.12641 0.20962
v -0.03362 0.04617 -0.32712
v 0.24924 0.04617 -0.24255
v 0.23256 0.39547 -0.18674
v -0.05031 0.39547 -0.27131
v -0.05031 0.39547 -0.27131
v 0.23256 0.39547 -0.18674
v 0.24924 0.04617 -0.24255
v -0.03362 0.04617 -0.32712
v 0.15119 0.29022 -0.22182
v -0.08687 0.29022 -0.38390
v -0.06675 0.50120 -0.41344
v 0.17131 0.50120 -0.25137
v 0.17131 0.50120 -0.25137
v -0.06675 0.50120 -0.41344
v -0.08687 0.29022 -0.38390
v 0.15119 0.29022 -0.22182
v -0.06134 -0.01941 0.12595
v 0.15732 -0.01941 0.12553
v 0.15738 0.18363 0.15726
v -0.06128 0.18363 0.15768
v -0.06128 0.18363 0.15768
v 0.15738 0.18363 0.15726
v 0.15732 -0.01941 0.12553
v -0.06134 -0.01941 0.12595
v -0.11963 0.16805 0.09795
v -0.35553 0.16805 0.01215
v -0.36551 0.47870 0.03957
v -0.12960 0.47870 0.12537
v -0.12960 0.47870 0.12537
v -0.36551 0.47870 0.03957
v -0.35553 0.16805 0.01215
v -0.11963 0.16805 0.09795
v -0.23557 0.17220 0.26016
v -0.04290 0.17220 0.05842
v -0.02743 0.52310 0.07320
v -0.22010 0.52310 0.27494
v -0.22010 0.52310 0.27494
v -0.02743 0.52310 0.07320
v -0.04290 0.17220 0.05842
v -0.23557 0.17220 0.26016
v 0.13354 -0.00359 0.17881
v 0.14686 -0.00359 -0.04650
v 0.16091 0.26921 -0.04567
v 0.14759 0.26921 0.17965
v 0.14759 0.26921 0.17965
v 0.16091 0.26921 -0.04567
v 0.14686 -0.00359 -0.04650
v 0.13354 -0.00359 0.17881
v 0.01505 0.10287 0.13034
v -0.10844 0.10287 0.32086
v -0.12897 0.37207 0.30756
v -0.00548 0.37207 0.11703
v -0.00548 0.37207 0.11703
v -0.12897 0.37207 0.30756
v -0.10844 0.10287 0.32086
v 0.01505 0.10287 0.13034
v -0.20642 0.09495 0.15566
v -0.11461 0.09495 -0.12042
v -0.12620 0.41719 -0.12427
v -0.21801 0.41719 0.15181
v -0.21801 0.41719 0.15181
v -0.12620 0.41719 -0.12427
v -0.11461 0.09495 -0.12042
v -0.20642 0.09495 0.15566
vt 0.00000 0.00000
vt 1.00000 0.00000
vt 1.00000 1.00000
vt 0.00000 1.00000
vt 0.00000 0.00000
vt 1.00000 0.00000
vt 1.00000 1.00000
vt 0.00000 1.00000
vt 0.00000 0.00000
vt 1.00000 0.00000
vt 1.00000 1.00000
vt 0.00000 1.00000
vt 0.00000 0.00000
vt 1.00000 0.00000
vt 1.00000 1.00000
vt 0.00000 1.00000
vt 0.00000 0.00000
vt 1.00000 0.00000
vt 1.00000 1.00000
vt 0.00000 1.00000
vt 0.00000 0.00000
vt 1.00000 0.00000
vt 1.00000 1.00000
vt 0.00000 1.00000
vt 0.00000 0.00000
vt 1.00000 0.00000
vt 1.00000 1.00000
vt 0.00000 1.00000
vt 0.00000 0.00000
vt 1.00000 0.00000
vt 1.00000 1.00000
vt 0.00000 1.00000
vt 0.00000 0.00000
vt 1.00000 0.00000
vt 1.00000 1.00000
vt 0.00000 1.00000
vt 0.00000 0.00000
vt 1.00000 0.00000
vt 1.00000 1.00000
vt 0.00000 1.00000
vt 0.00000 0.00000
vt 1.00000 0.00000
vt 1.00000 1.00000
vt 0.00000 1.00000
vt 0.00000 0.00000
vt 1.00000 0.00000
vt 1.00000 1.00000
vt 0.00000 1.00000
vt 0.00000 0.00000
vt 1.00000 0.00000
vt 1.00000 1.00000
vt 0.00000 1.00000
vt 0.00000 0.00000
vt 1.00000 0.00000
vt 1.00000 1.00000
vt 0.00000 1.00000
vt 0.00000 0.00000
vt 1.00000 0.00000
vt 1.00000 1.00000
vt 0.00000 1.00000
vt 0.00000 0.00000
vt 1.00000 0.00000
vt 1.00000 1.00000
vt 0.00000 1.00000
vt 0.00000 0.00000
vt 1.00000 0.00000
vt 1.00000 1.00000
vt 0.00000 1.00000
vt 0.00000 0.00000
vt 1.00000 0.00000
vt 1.00000 1.00000
vt 0.00000 1.00000
vt 0.00000 0.00000
vt 1.00000 0.00000
vt 1.00000 1.00000
vt 0.00000 1.00000
vt 0.00000 0.00000
vt 1.00000 0.00000
vt 1.00000 1.00000
vt 0.00000 1.00000
vt 0.00000 0.00000
vt 1.00000 0.00000
vt 1.00000 1.00000
vt 0.00000 1.00000
vt 0.00000 0.00000
vt 1.00000 0.00000
vt 1.00000 1.00000
vt 0.00000 1.00000
vt 0.00000 0.00000
vt 1.00000 0.00000
vt 1.00000 1.00000
vt 0.00000 1.00000
vt 0.00000 0.00000
vt 1.00000 0.00000
vt 1.00000 1.00000
vt 0.00000 1.00000
vt 0.00000 0.00000
vt 1.00000 0.00000
vt 1.00000 1.00000
vt 0.00000 1.00000
vt 0.00000 0.00000
vt 1.00000 0.00000
vt 1.00000 1.00000
vt 0.00000 1.00000
vt 0.00000 0.00000
vt 1.00000 0.00000
vt 1.00000 1.00000
vt 0.00000 1.00000
vt 0.00000 0.00000
vt 1.00000 0.00000
vt 1.00000 1.00000
vt 0.00000 1.00000
vt 0.00000 0.00000
vt 1.00000 0.00000
vt 1.00000 1.00000
vt 0.00000 1.00000
vt 0.00000 0.00000
vt 1.00000 0.00000
vt 1.00000 1.00000
vt 0.00000 1.00000
vt 0.00000 0.00000
vt 1.00000 0.00000
vt 1.00000 1.00000
vt 0.00000 1.00000
vt 0.00000 0.00000
vt 1.00000 0.00000
vt 1.00000 1.00000
vt 0.00000 1.00000
vt 0.00000 0.00000
vt 1.00000 0.00000
vt 1.00000 1.00000
vt 0.00000 1.00000
vt 0.00000 1.00000
vt 1.00000 1.00000
vt 1.00000 0.00000
vt 0.00000 0.00000
vt 0.00000 0.00000
vt 1.00000 0.00000
vt 1.00000 1.00000
vt 0.00000 1.00000
vt 0.00000 1.00000
vt 1.00000 1.00000
vt 1.00000 0.00000
vt 0.00000 0.00000
vt 0.00000 0.00000
vt 1.00000 0.00000
vt 1.00000 1.00000
vt 0.00000 1.00000
vt 0.00000 1.00000
vt 1.00000 1.00000
vt 1.00000 0.00000
vt 0.00000 0.00000
vt 0.00000 0.00000
vt 1.00000 0.00000
vt 1.00000 1.00000
vt 0.00000 1.00000
vt 0.00000 1.00000
vt 1.00000 1.00000
vt 1.00000 0.00000
vt 0.00000 0.00000
vt 0.00000 0.00000
vt 1.00000 0.00000
vt 1.00000 1.00000
vt 0.00000 1.00000
vt 0.00000 1.00000
vt 1.00000 1.00000
vt 1.00000 0.00000
vt 0.00000 0.00000
vt 0.00000 0.00000
vt 1.00000 0.00000
vt 1.00000 1.00000
vt 0.00000 1.00000
vt 0.00000 1.00000
vt 1.00000 1.00000
vt 1.00000 0.00000
vt 0.00000 0.00000
vt 0.00000 0.00000
vt 1.00000 0.00000
vt 1.00000 1.00000
vt 0.00000 1.00000
vt 0.00000 1.00000
vt 1.00000 1.00000
vt 1.00000 0.00000
vt 0.00000 0.00000
vt 0.00000 0.00000
vt 1.00000 0.00000
vt 1.00000 1.00000
vt 0.00000 1.00000
vt 0.00000 1.00000
vt 1.00000 1.00000
vt 1.00000 0.00000
vt 0.00000 0.00000
vt 0.00000 0.00000
vt 1.00000 0.00000
vt 1.00000 1.00000
vt 0.00000 1.00000
vt 0.00000 1.00000
vt 1.00000 1.00000
vt 1.00000 0.00000
vt 0.00000 0.00000
vt 0.00000 0.00000
vt 1.00000 0.00000
vt 1.00000 1.00000
vt 0.00000 1.00000
vt 0.00000 1.00000
vt 1.00000 1.00000
vt 1.00000 0.00000
vt 0.00000 0.00000
vt 0.00000 0.00000
vt 1.00000 0.00000
vt 1.00000 1.00000
vt 0.00000 1.00000
vt 0.00000 1.00000
vt 1.00000 1.00000
vt 1.00000 0.00000
vt 0.00000 0.00000
vt 0.00000 0.00000
vt 1.00000 0.00000
vt 1.00000 1.00000
vt 0.00000 1.00000
vt 0.00000 1.00000
vt 1.00000 1.00000
vt 1.00000 0.00000
vt 0.00000 0.00000
vt 0.00000 0.00000
vt 1.00000 0.00000
vt 1.00000 1.00000
vt 0.00000 1.00000
vt 0.00000 1.00000
vt 1.00000 1.00000
vt 1.00000 0.00000
vt 0.00000 0.00000
vt 0.00000 0.00000
vt 1.00000 0.00000
vt 1.00000 1.00000
vt 0.00000 1.00000
vt 0.00000 1.00000
vt 1.00000 1.00000
vt 1.00000 0.00000
vt 0.00000 0.00000
vt 0.00000 0.00000
vt 1.00000 0.00000
vt 1.00000 1.00000
vt 0.00000 1.00000
vt 0.00000 1.00000
vt 1.00000 1.00000
vt 1.00000 0.00000
vt 0.00000 0.00000
vt 0.00000 0.00000
vt 1.00000 0.00000
vt 1.00000 1.00000
vt 0.00000 1.00000
vt 0.00000 1.00000
vt 1.00000 1.00000
vt 1.00000 0.00000
vt 0.00000 0.00000
vt 0.00000 0.00000
vt 1.00000 0.00000
vt 1.00000 1.00000
vt 0.00000 1.00000
vt 0.00000 1.00000
vt 1.00000 1.00000
vt 1.00000 0.00000
vt 0.00000 0.00000
vt 0.00000 0.00000
vt 1.00000 0.00000
vt 1.00000 1.00000
vt 0.00000 1.00000
vt 0.00000 1.00000
vt 1.00000 1.00000
vt 1.00000 0.00000
vt 0.00000 0.00000
vn -0.01713 -0.35608 -0.93430
vn -0.92192 -0.35608 0.15254
vn 0.01056 0.37037 0.92882
vn 0.91534 0.37037 -0.15802
vn 0.53842 -0.58514 -0.60640
vn -0.79803 -0.58514 -0.14412
vn -0.54400 0.59635 0.59028
vn 0.79245 0.59635 0.12800
vn 0.51017 -0.55838 0.65417
vn 0.35217 -0.55838 -0.75113
vn -0.49554 0.56952 -0.65582
vn -0.33753 0.56952 0.74948
vn 0.51632 -0.62634 -0.58405
vn -0.77936 -0.62634 -0.01747
vn -0.52372 0.63567 0.56714
vn 0.77196 0.63567 0.00056
vn 0.63967 -0.50997 0.57511
vn 0.31408 -0.50997 -0.80080
vn -0.60975 0.53783 -0.58219
vn -0.28416 0.53783 0.79372
vn 0.55619 -0.58906 0.58623
vn 0.20120 -0.58906 -0.78265
vn -0.54136 0.59895 -0.59007
vn -0.18636 0.59895 0.77880
vn -0.55891 -0.59431 -0.57829
vn -0.17944 -0.59431 0.78396
vn 0.53999 0.60652 0.58356
vn 0.16052 0.60652 -0.77869
vn -0.83555 -0.44150 -0.32702
vn -0.11507 -0.44150 0.88985
vn 0.82611 0.45488 0.33260
vn 0.10564 0.45488 -0.88427
vn 0.97436 0.16066 0.15754
vn -0.97436 -0.16066 -0.15754
vn -0.98689 -0.04688 -0.15442
vn 0.98689 0.04688 0.15442
vn 0.98507 0.00795 0.17199
vn -0.98507 -0.00795 -0.17199
vn -0.48124 0.02078 0.87634
vn 0.48124 -0.02078 -0.87634
vn 0.53297 -0.00804 0.84609
vn -0.53297 0.00804 -0.84609
vn 0.50863 -0.01547 -0.86085
vn -0.50863 0.01547 0.86085
vn -0.01778 -0.01417 0.99974
vn 0.01778 0.01417 -0.99974
vn -0.25687 0.02539 -0.96611
vn 0.25687 -0.02539 0.96611
vn 0.79647 -0.16308 -0.58228
vn -0.79647 0.16308 0.58228
vn 0.87802 0.00842 0.47856
vn -0.87802 -0.00842 -0.47856
vn -0.28254 -0.16449 0.94505
vn 0.28254 0.16449 -0.94505
vn 0.55487 -0.16705 -0.81500
vn -0.55487 0.16705 0.81500
vn 0.00187 -0.15439 0.98801
vn -0.00187 0.15439 -0.98801
vn 0.34031 0.09351 -0.93565
vn -0.34031 -0.09351 0.93565
vn 0.72185 -0.06087 0.68937
vn -0.72185 0.06087 -0.68937
vn 0.99693 -0.05151 0.05895
vn -0.99693 0.05151 -0.05895
vn -0.83571 -0.09049 -0.54167
vn 0.83571 0.09049 0.54167
vn 0.94822 0.03789 0.31534
vn -0.94822 -0.03789 -0.31534
usemtl old_bark
f 1/1/1 2/2/1 3/3/1 4/4/1
f 5/5/2 6/6/2 7/7/2 8/8/2
f 9/9/3 10/10/3 11/11/3 12/12/3
f 13/13/4 14/14/4 15/15/4 16/16/4
f 17/17/5 18/18/5 19/19/5 20/20/5
f 21/21/6 22/22/6 23/23/6 24/24/6
f 25/25/7 26/26/7 27/27/7 28/28/7
f 29/29/8 30/30/8 31/31/8 32/32/8
f 33/33/9 34/34/9 35/35/9 36/36/9
f 37/37/10 38/38/10 39/39/10 40/40/10
f 41/41/11 42/42/11 43/43/11 44/44/11
f 45/45/12 46/46/12 47/47/12 48/48/12
f 49/49/13 50/50/13 51/51/13 52/52/13
f 53/53/14 54/54/14 55/55/14 56/56/14
f 57/57/15 58/58/15 59/59/15 60/60/15
f 61/61/16 62/62/16 63/63/16 64/64/16
f 65/65/17 66/66/17 67/67/17 68/68/17
f 69/69/18 70/70/18 71/71/18 72/72/18
f 73/73/19 74/74/19 75/75/19 76/76/19
f 77/77/20 78/78/20 79/79/20 80/80/20
f 81/81/21 82/82/21 83/83/21 84/84/21
f 85/85/22 86/86/22 87/87/22 88/88/22
f 89/89/23 90/90/23 91/91/23 92/92/23
f 93/93/24 94/94/24 95/95/24 96/96/24
f 97/97/25 98/98/25 99/99/25 100/100/25
f 101/101/26 102/102/26 103/103/26 104/104/26
f 105/105/27 106/106/27 107/107/27 108/108/27
f 109/109/28 110/110/28 111/111/28 112/112/28
f 113/113/29 114/114/29 115/115/29 116/116/29
f 117/117/30 118/118/30 119/119/30 120/120/30
f 121/121/31 122/122/31 123/123/31 124/124/31
f 125/125/32 126/126/32 127/127/32 128/128/32
usemtl dry_leaf
f 129/129/33 130/130/33 131/131/33 132/132/33
f 133/133/34 134/134/34 135/135/34 136/136/34
f 137/137/35 138/138/35 139/139/35 140/140/35
f 141/141/36 142/142/36 143/143/36 144/144/36
f 145/145/37 146/146/37 147/147/37 148/148/37
f 149/149/38 150/150/38 151/151/38 152/152/38
f 153/153/39 154/154/39 155/155/39 156/156/39
f 157/157/40 158/158/40 159/159/40 160/160/40
f 161/161/41 162/162/41 163/163/41 164/164/41
f 165/165/42 166/166/42 167/167/42 168/168/42
f 169/169/43 170/170/43 171/171/43 172/172/43
f 173/173/44 174/174/44 175/175/44 176/176/44
f 177/177/45 178/178/45 179/179/45 180/180/45
f 181/181/46 182/182/46 183/183/46 184/184/46
f 185/185/47 186/186/47 187/187/47 188/188/47
f 189/189/48 190/190/48 191/191/48 192/192/48
f 193/193/49 194/194/49 195/195/49 196/196/49
f 197/197/50 198/198/50 199/199/50 200/200/50
f 201/201/51 202/202/51 203/203/51 204/204/51
f 205/205/52 206/206/52 207/207/52 208/208/52
f 209/209/53 210/210/53 211/211/53 212/212/53
f 213/213/54 214/214/54 215/215/54 216/216/54
f 217/217/55 218/218/55 219/219/55 220/220/55
f 221/221/56 222/222/56 223/223/56 224/224/56
f 225/225/57 226/226/57 227/227/57 228/228/57
f 229/229/58 230/230/58 231/231/58 232/232/58
f 233/233/59 234/234/59 235/235/59 236/236/59
f 237/237/60 238/238/60 239/239/60 240/240/60
f 241/241/61 242/242/61 243/243/61 244/244/61
f 245/245/62 246/246/62 247/247/62 248/248/62
f 249/249/63 250/250/63 251/251/63 252/252/63
f 253/253/64 254/254/64 255/255/64 256/256/64
f 257/257/65 258/258/65 259/259/65 260/260/65
f 261/261/66 262/262/66 263/263/66 264/264/66
f 265/265/67 266/266/67 267/267/67 268/268/67
f 269/269/68 270/270/68 271/271/68 272/272/68