# dune_grass_sparse
mtllib nomad_vegetation.mtl
o dune_grass_sparse
v -0.11724 0.00000 -0.02323
v -0.14546 0.00000 -0.05171
v -0.10215 0.23919 -0.00801
v -0.10215 0.23919 -0.00801
v -0.14546 0.00000 -0.05171
v -0.11724 0.00000 -0.02323
v 0.00136 0.00000 -0.02698
v 0.03221 0.00000 -0.02782
v 0.02791 0.22150 -0.02770
v 0.02791 0.22150 -0.02770
v 0.03221 0.00000 -0.02782
v 0.00136 0.00000 -0.02698
v -0.24374 0.00000 0.04869
v -0.26278 0.00000 0.02713
v -0.29486 0.28225 -0.00920
v -0.29486 0.28225 -0.00920
v -0.26278 0.00000 0.02713
v -0.24374 0.00000 0.04869
v -0.01181 0.00000 -0.18894
v -0.01044 0.00000 -0.21550
v -0.00974 0.28743 -0.22903
v -0.00974 0.28743 -0.22903
v -0.01044 0.00000 -0.21550
v -0.01181 0.00000 -0.18894
v 0.15436 0.00000 0.04781
v 0.14719 0.00000 0.01170
v 0.13827 0.31848 -0.03326
v 0.13827 0.31848 -0.03326
v 0.14719 0.00000 0.01170
v 0.15436 0.00000 0.04781
v 0.22929 0.00000 -0.12023
v 0.18697 0.00000 -0.10488
v 0.14080 0.24319 -0.08813
v 0.14080 0.24319 -0.08813
v 0.18697 0.00000 -0.10488
v 0.22929 0.00000 -0.12023
v 0.19995 0.00000 0.15415
v 0.22966 0.00000 0.14760
v 0.22135 0.20176 0.14943
v 0.22135 0.20176 0.14943
v 0.22966 0.00000 0.14760
v 0.19995 0.00000 0.15415
v -0.05959 0.00000 0.19640
v -0.08011 0.00000 0.22431
v -0.08529 0.26116 0.23135
v -0.08529 0.26116 0.23135
v -0.08011 0.00000 0.22431
v -0.05959 0.00000 0.19640
v 0.16146 0.00000 -0.10226
v 0.19135 0.00000 -0.14011
v 0.22527 0.28912 -0.18304
v 0.22527 0.28912 -0.18304
v 0.19135 0.00000 -0.14011
v 0.16146 0.00000 -0.10226
vt 0.00000 0.00000
vt 1.00000 0.00000
vt 0.50000 1.00000
vt 0.50000 1.00000
vt 1.00000 0.00000
vt 0.00000 0.00000
vt 0.00000 0.00000
vt 1.00000 0.00000
vt 0.50000 1.00000
vt 0.50000 1.00000
vt 1.00000 0.00000
vt 0.00000 0.00000
vt 0.00000 0.00000
vt 1.00000 0.00000
vt 0.50000 1.00000
vt 0.50000 1.00000
vt 1.00000 0.00000
vt 0.00000 0.00000
vt 0.00000 0.00000
vt 1.00000 0.00000
vt 0.50000 1.00000
vt 0.50000 1.00000
vt 1.00000 0.00000
vt 0.00000 0.00000
vt 0.00000 0.00000
vt 1.00000 0.00000
vt 0.50000 1.00000
vt 0.50000 1.00000
vt 1.00000 0.00000
vt 0.00000 0.00000
vt 0.00000 0.00000
vt 1.00000 0.00000
vt 0.50000 1.00000
vt 0.50000 1.00000
vt 1.00000 0.00000
vt 0.00000 0.00000
vt 0.00000 0.00000
vt 1.00000 0.00000
vt 0.50000 1.00000
vt 0.50000 1.00000
vt 1.00000 0.00000
vt 0.00000 0.00000
vt 0.00000 0.00000
vt 1.00000 0.00000
vt 0.50000 1.00000
vt 0.50000 1.00000
vt 1.00000 0.00000
vt 0.00000 0.00000
vt 0.00000 0.00000
vt 1.00000 0.00000
vt 0.50000 1.00000
vt 0.50000 1.00000
vt 1.00000 0.00000
vt 0.00000 0.00000
vn 0.71030 -0.00000 -0.70390
vn -0.71030 0.00000 0.70390
vn 0.02736 -0.00000 0.99963
vn -0.02736 0.00000 -0.99963
vn 0.74953 -0.00000 -0.66197
vn -0.74953 0.00000 0.66197
vn 0.99866 0.00000 0.05169
vn -0.99866 -0.00000 -0.05169
vn 0.98088 -0.00000 -0.19463
vn -0.98088 0.00000 0.19463
vn -0.34098 -0.00000 -0.94007
vn 0.34098 0.00000 0.94007
vn 0.21520 0.00000 0.97657
vn -0.21520 -0.00000 -0.97657
vn -0.80564 0.00000 -0.59240
vn 0.80564 -0.00000 0.59240
vn 0.78473 -0.00000 0.61984
vn -0.78473 0.00000 -0.61984
usemtl straw_leaf
f 1/1/1 2/2/1 3/3/1
f 4/4/2 5/5/2 6/6/2
f 7/7/3 8/8/3 9/9/3
f 10/10/4 11/11/4 12/12/4
f 13/13/5 14/14/5 15/15/5
f 16/16/6 17/17/6 18/18/6
f 19/19/7 20/20/7 21/21/7
f 22/22/8 23/23/8 24/24/8
f 25/25/9 26/26/9 27/27/9
f 28/28/10 29/29/10 30/30/10
f 31/31/11 32/32/11 33/33/11
f 34/34/12 35/35/12 36/36/12
f 37/37/13 38/38/13 39/39/13
f 40/40/14 41/41/14 42/42/14
f 43/43/15 44/44/15 45/45/15
f 46/46/16 47/47/16 48/48/16
f 49/49/17 50/50/17 51/51/17
f 52/52/18 53/53/18 54/54/18