# flower_red_patch
mtllib nomad_vegetation.mtl
o flower_red_patch
v 0.23342 0.00000 0.01896
v 0.25650 0.00000 0.01698
v 0.28481 0.28304 0.01454
v 0.28481 0.28304 0.01454
v 0.25650 0.00000 0.01698
v 0.23342 0.00000 0.01896
v 0.00503 0.00000 -0.02229
v 0.04218 0.00000 -0.02233
v 0.06361 0.27539 -0.02236
v 0.06361 0.27539 -0.02236
v 0.04218 0.00000 -0.02233
v 0.00503 0.00000 -0.02229
v -0.06326 0.00000 0.09137
v -0.06540 0.00000 0.11689
v -0.06768 0.27915 0.14399
v -0.06768 0.27915 0.14399
v -0.06540 0.00000 0.11689
v -0.06326 0.00000 0.09137
v 0.07194 0.00000 -0.11085
v 0.07793 0.00000 -0.07540
v 0.08159 0.30243 -0.05369
v 0.08159 0.30243 -0.05369
v 0.07793 0.00000 -0.07540
v 0.07194 0.00000 -0.11085
v -0.22706 0.00000 -0.02418
v -0.25256 0.00000 -0.01014
v -0.27485 0.21239 0.00214
v -0.27485 0.21239 0.00214
v -0.25256 0.00000 -0.01014
v -0.22706 0.00000 -0.02418
v -0.07874 0.00000 -0.02111
v -0.05031 0.00000 -0.03444
v -0.02831 0.23040 -0.04476
v -0.02831 0.23040 -0.04476
v -0.05031 0.00000 -0.03444
v -0.07874 0.00000 -0.02111
v -0.14629 0.00000 0.11158
v -0.18612 0.00000 0.11402
v -0.20613 0.30090 0.11525
v -0.20613 0.30090 0.11525
v -0.18612 0.00000 0.11402
v -0.14629 0.00000 0.11158
v 0.23050 0.00000 0.03301
v 0.25219 0.00000 0.02412
v 0.27836 0.19964 0.01339
v 0.27836 0.19964 0.01339
v 0.25219 0.00000 0.02412
v 0.23050 0.00000 0.03301
v -0.05144 0.00000 -0.19409
v -0.02876 0.00000 -0.21357
v -0.00976 0.22013 -0.22989
v -0.00976 0.22013 -0.22989
v -0.02876 0.00000 -0.21357
v -0.05144 0.00000 -0.19409
v 0.05095 0.00000 0.06508
v 0.06677 0.00000 0.04033
v 0.08040 0.18664 0.01899
v 0.08040 0.18664 0.01899
v 0.06677 0.00000 0.04033
v 0.05095 0.00000 0.06508
v -0.11134 0.00000 0.08647
v -0.11825 0.00000 0.09598
v -0.11917 0.29037 0.09313
v -0.11434 0.29037 0.08647
v -0.11825 0.00000 0.09598
v -0.12943 0.00000 0.09235
v -0.12700 0.29037 0.09058
v -0.11917 0.29037 0.09313
v -0.12943 0.00000 0.09235
v -0.12943 0.00000 0.08059
v -0.12700 0.29037 0.08235
v -0.12700 0.29037 0.09058
v -0.12943 0.00000 0.08059
v -0.11825 0.00000 0.07696
v -0.11917 0.29037 0.07981
v -0.12700 0.29037 0.08235
v -0.11825 0.00000 0.07696
v -0.11134 0.00000 0.08647
v -0.11434 0.29037 0.08647
v -0.11917 0.29037 0.07981
v -0.12134 0.00000 0.08647
v -0.11825 0.00000 0.09598
v -0.11134 0.00000 0.08647
v -0.12134 0.29037 0.08647
v -0.11434 0.29037 0.08647
v -0.11917 0.29037 0.09313
v -0.12134 0.00000 0.08647
v -0.12943 0.00000 0.09235
v -0.11825 0.00000 0.09598
v -0.12134 0.29037 0.08647
v -0.11917 0.29037 0.09313
v -0.12700 0.29037 0.09058
v -0.12134 0.00000 0.08647
v -0.12943 0.00000 0.08059
v -0.12943 0.00000 0.09235
v -0.12134 0.29037 0.08647
v -0.12700 0.29037 0.09058
v -0.12700 0.29037 0.08235
v -0.12134 0.00000 0.08647
v -0.11825 0.00000 0.07696
v -0.12943 0.00000 0.08059
v -0.12134 0.29037 0.08647
v -0.12700 0.29037 0.08235
v -0.11917 0.29037 0.07981
v -0.12134 0.00000 0.08647
v -0.11134 0.00000 0.08647
v -0.11825 0.00000 0.07696
v -0.12134 0.29037 0.08647
v -0.11917 0.29037 0.07981
v -0.11434 0.29037 0.08647
v -0.17134 0.20537 0.08647
v -0.07134 0.20537 0.08647
v -0.07134 0.30537 0.08647
v -0.17134 0.30537 0.08647
v -0.17134 0.30537 0.08647
v -0.07134 0.30537 0.08647
v -0.07134 0.20537 0.08647
v -0.17134 0.20537 0.08647
v -0.12134 0.20537 0.03647
v -0.12134 0.20537 0.13647
v -0.12134 0.30537 0.13647
v -0.12134 0.30537 0.03647
v -0.12134 0.30537 0.03647
v -0.12134 0.30537 0.13647
v -0.12134 0.20537 0.13647
v -0.12134 0.20537 0.03647
v -0.07134 0.20537 0.08647
v -0.17134 0.20537 0.08647
v -0.17134 0.30537 0.08647
v -0.07134 0.30537 0.08647
v -0.07134 0.30537 0.08647
v -0.17134 0.30537 0.08647
v -0.17134 0.20537 0.08647
v -0.07134 0.20537 0.08647
v -0.12134 0.20537 0.13647
v -0.12134 0.20537 0.03647
v -0.12134 0.30537 0.03647
v -0.12134 0.30537 0.13647
v -0.12134 0.30537 0.13647
v -0.12134 0.30537 0.03647
v -0.12134 0.20537 0.03647
v -0.12134 0.20537 0.13647
v -0.15997 0.02265 0.05084
v -0.10140 0.02265 0.03785
v -0.08270 0.18061 0.12209
v -0.14128 0.18061 0.13509
v -0.14128 0.18061 0.13509
v -0.08270 0.18061 0.12209
v -0.10140 0.02265 0.03785
v -0.15997 0.02265 0.05084
v 0.09021 0.00000 -0.02711
v 0.08330 0.00000 -0.01760
v 0.08237 0.26368 -0.02045
v 0.08721 0.26368 -0.02711
v 0.08330 0.00000 -0.01760
v 0.07212 0.00000 -0.02123
v 0.07455 0.26368 -0.02299
v 0.08237 0.26368 -0.02045
v 0.07212 0.00000 -0.02123
v 0.07212 0.00000 -0.03298
v 0.07455 0.26368 -0.03122
v 0.07455 0.26368 -0.02299
v 0.07212 0.00000 -0.03298
v 0.08330 0.00000 -0.03662
v 0.08237 0.26368 -0.03376
v 0.07455 0.26368 -0.03122
v 0.08330 0.00000 -0.03662
v 0.09021 0.00000 -0.02711
v 0.08721 0.26368 -0.02711
v 0.08237 0.26368 -0.03376
v 0.08021 0.00000 -0.02711
v 0.08330 0.00000 -0.01760
v 0.09021 0.00000 -0.02711
v 0.08021 0.26368 -0.02711
v 0.08721 0.26368 -0.02711
v 0.08237 0.26368 -0.02045
v 0.08021 0.00000 -0.02711
v 0.07212 0.00000 -0.02123
v 0.08330 0.00000 -0.01760
v 0.08021 0.26368 -0.02711
v 0.08237 0.26368 -0.02045
v 0.07455 0.26368 -0.02299
v 0.08021 0.00000 -0.02711
v 0.07212 0.00000 -0.03298
v 0.07212 0.00000 -0.02123
v 0.08021 0.26368 -0.02711
v 0.07455 0.26368 -0.02299
v 0.07455 0.26368 -0.03122
v 0.08021 0.00000 -0.02711
v 0.08330 0.00000 -0.03662
v 0.07212 0.00000 -0.03298
v 0.08021 0.26368 -0.02711
v 0.07455 0.26368 -0.03122
v 0.08237 0.26368 -0.03376
v 0.08021 0.00000 -0.02711
v 0.09021 0.00000 -0.02711
v 0.08330 0.00000 -0.03662
v 0.08021 0.26368 -0.02711
v 0.08237 0.26368 -0.03376
v 0.08721 0.26368 -0.02711
v 0.03021 0.17868 -0.02711
v 0.13021 0.17868 -0.02711
v 0.13021 0.27868 -0.02711
v 0.03021 0.27868 -0.02711
v 0.03021 0.27868 -0.02711
v 0.13021 0.27868 -0.02711
v 0.13021 0.17868 -0.02711
v 0.03021 0.17868 -0.02711
v 0.08021 0.17868 -0.07711
v 0.08021 0.17868 0.02289
v 0.08021 0.27868 0.02289
v 0.08021 0.27868 -0.07711
v 0.08021 0.27868 -0.07711
v 0.08021 0.27868 0.02289
v 0.08021 0.17868 0.02289
v 0.08021 0.17868 -0.07711
v 0.13021 0.17868 -0.02711
v 0.03021 0.17868 -0.02711
v 0.03021 0.27868 -0.02711
v 0.13021 0.27868 -0.02711
v 0.13021 0.27868 -0.02711
v 0.03021 0.27868 -0.02711
v 0.03021 0.17868 -0.02711
v 0.13021 0.17868 -0.02711
v 0.08021 0.17868 0.02289
v 0.08021 0.17868 -0.07711
v 0.08021 0.27868 -0.07711
v 0.08021 0.27868 0.02289
v 0.08021 0.27868 0.02289
v 0.08021 0.27868 -0.07711
v 0.08021 0.17868 -0.07711
v 0.08021 0.17868 0.02289
v 0.13254 0.01331 -0.02222
v 0.09385 0.01331 0.02365
v 0.02789 0.17127 -0.03200
v 0.06657 0.17127 -0.07786
v 0.06657 0.17127 -0.07786
v 0.02789 0.17127 -0.03200
v 0.09385 0.01331 0.02365
v 0.13254 0.01331 -0.02222
v -0.02641 0.00000 0.08992
v -0.03332 0.00000 0.09943
v -0.03425 0.34849 0.09657
v -0.02941 0.34849 0.08992
v -0.03332 0.00000 0.09943
v -0.04450 0.00000 0.09579
v -0.04207 0.34849 0.09403
v -0.03425 0.34849 0.09657
v -0.04450 0.00000 0.09579
v -0.04450 0.00000 0.08404
v -0.04207 0.34849 0.08580
v -0.04207 0.34849 0.09403
v -0.04450 0.00000 0.08404
v -0.03332 0.00000 0.08041
v -0.03425 0.34849 0.08326
v -0.04207 0.34849 0.08580
v -0.03332 0.00000 0.08041
v -0.02641 0.00000 0.08992
v -0.02941 0.34849 0.08992
v -0.03425 0.34849 0.08326
v -0.03641 0.00000 0.08992
v -0.03332 0.00000 0.09943
v -0.02641 0.00000 0.08992
v -0.03641 0.34849 0.08992
v -0.02941 0.34849 0.08992
v -0.03425 0.34849 0.09657
v -0.03641 0.00000 0.08992
v -0.04450 0.00000 0.09579
v -0.03332 0.00000 0.09943
v -0.03641 0.34849 0.08992
v -0.03425 0.34849 0.09657
v -0.04207 0.34849 0.09403
v -0.03641 0.00000 0.08992
v -0.04450 0.00000 0.08404
v -0.04450 0.00000 0.09579
v -0.03641 0.34849 0.08992
v -0.04207 0.34849 0.09403
v -0.04207 0.34849 0.08580
v -0.03641 0.00000 0.08992
v -0.03332 0.00000 0.08041
v -0.04450 0.00000 0.08404
v -0.03641 0.34849 0.08992
v -0.04207 0.34849 0.08580
v -0.03425 0.34849 0.08326
v -0.03641 0.00000 0.08992
v -0.02641 0.00000 0.08992
v -0.03332 0.00000 0.08041
v -0.03641 0.34849 0.08992
v -0.03425 0.34849 0.08326
v -0.02941 0.34849 0.08992
v -0.08641 0.26349 0.08992
v 0.01359 0.26349 0.08992
v 0.01359 0.36349 0.08992
v -0.08641 0.36349 0.08992
v -0.08641 0.36349 0.08992
v 0.01359 0.36349 0.08992
v 0.01359 0.26349 0.08992
v -0.08641 0.26349 0.08992
v -0.03641 0.26349 0.03992
v -0.03641 0.26349 0.13992
v -0.03641 0.36349 0.13992
v -0.03641 0.36349 0.03992
v -0.03641 0.36349 0.03992
v -0.03641 0.36349 0.13992
v -0.03641 0.26349 0.13992
v -0.03641 0.26349 0.03992
v 0.01359 0.26349 0.08992
v -0.08641 0.26349 0.08992
v -0.08641 0.36349 0.08992
v 0.01359 0.36349 0.08992
v 0.01359 0.36349 0.08992
v -0.08641 0.36349 0.08992
v -0.08641 0.26349 0.08992
v 0.01359 0.26349 0.08992
v -0.03641 0.26349 0.13992
v -0.03641 0.26349 0.03992
v -0.03641 0.36349 0.03992
v -0.03641 0.36349 0.13992
v -0.03641 0.36349 0.13992
v -0.03641 0.36349 0.03992
v -0.03641 0.26349 0.03992
v -0.03641 0.26349 0.13992
v -0.01264 0.04299 0.13678
v -0.07206 0.04299 0.12852
v -0.06018 0.20095 0.04305
v -0.00075 0.20095 0.05131
v -0.00075 0.20095 0.05131
v -0.06018 0.20095 0.04305
v -0.07206 0.04299 0.12852
v -0.01264 0.04299 0.13678
v 0.10324 0.00000 -0.06353
v 0.09633 0.00000 -0.05402
v 0.09541 0.26051 -0.05688
v 0.10024 0.26051 -0.06353
v 0.09633 0.00000 -0.05402
v 0.08515 0.00000 -0.05766
v 0.08758 0.26051 -0.05942
v 0.09541 0.26051 -0.05688
v 0.08515 0.00000 -0.05766
v 0.08515 0.00000 -0.06941
v 0.08758 0.26051 -0.06765
v 0.08758 0.26051 -0.05942
v 0.08515 0.00000 -0.06941
v 0.09633 0.00000 -0.07304
v 0.09541 0.26051 -0.07019
v 0.08758 0.26051 -0.06765
v 0.09633 0.00000 -0.07304
v 0.10324 0.00000 -0.06353
v 0.10024 0.26051 -0.06353
v 0.09541 0.26051 -0.07019
v 0.09324 0.00000 -0.06353
v 0.09633 0.00000 -0.05402
v 0.10324 0.00000 -0.06353
v 0.09324 0.26051 -0.06353
v 0.10024 0.26051 -0.06353
v 0.09541 0.26051 -0.05688
v 0.09324 0.00000 -0.06353
v 0.08515 0.00000 -0.05766
v 0.09633 0.00000 -0.05402
v 0.09324 0.26051 -0.06353
v 0.09541 0.26051 -0.05688
v 0.08758 0.26051 -0.05942
v 0.09324 0.00000 -0.06353
v 0.08515 0.00000 -0.06941
v 0.08515 0.00000 -0.05766
v 0.09324 0.26051 -0.06353
v 0.08758 0.26051 -0.05942
v 0.08758 0.26051 -0.06765
v 0.09324 0.00000 -0.06353
v 0.09633 0.00000 -0.07304
v 0.08515 0.00000 -0.06941
v 0.09324 0.26051 -0.06353
v 0.08758 0.26051 -0.06765
v 0.09541 0.26051 -0.07019
v 0.09324 0.00000 -0.06353
v 0.10324 0.00000 -0.06353
v 0.09633 0.00000 -0.07304
v 0.09324 0.26051 -0.06353
v 0.09541 0.26051 -0.07019
v 0.10024 0.26051 -0.06353
v 0.04324 0.17551 -0.06353
v 0.14324 0.17551 -0.06353
v 0.14324 0.27551 -0.06353
v 0.04324 0.27551 -0.06353
v 0.04324 0.27551 -0.06353
v 0.14324 0.27551 -0.06353
v 0.14324 0.17551 -0.06353
v 0.04324 0.17551 -0.06353
v 0.09324 0.17551 -0.11353
v 0.09324 0.17551 -0.01353
v 0.09324 0.27551 -0.01353
v 0.09324 0.27551 -0.11353
v 0.09324 0.27551 -0.11353
v 0.09324 0.27551 -0.01353
v 0.09324 0.17551 -0.01353
v 0.09324 0.17551 -0.11353
v 0.14324 0.17551 -0.06353
v 0.04324 0.17551 -0.06353
v 0.04324 0.27551 -0.06353
v 0.14324 0.27551 -0.06353
v 0.14324 0.27551 -0.06353
v 0.04324 0.27551 -0.06353
v 0.04324 0.17551 -0.06353
v 0.14324 0.17551 -0.06353
v 0.09324 0.17551 -0.01353
v 0.09324 0.17551 -0.11353
v 0.09324 0.27551 -0.11353
v 0.09324 0.27551 -0.01353
v 0.09324 0.27551 -0.01353
v 0.09324 0.27551 -0.11353
v 0.09324 0.17551 -0.11353
v 0.09324 0.17551 -0.01353
v 0.11987 0.01220 -0.10884
v 0.14499 0.01220 -0.05435
v 0.06661 0.17016 -0.01823
v 0.04150 0.17016 -0.07272
v 0.04150 0.17016 -0.07272
v 0.06661 0.17016 -0.01823
v 0.14499 0.01220 -0.05435
v 0.11987 0.01220 -0.10884
v 0.12871 0.00000 0.05974
v 0.12180 0.00000 0.06925
v 0.12088 0.36334 0.06640
v 0.12571 0.36334 0.05974
v 0.12180 0.00000 0.06925
v 0.11062 0.00000 0.06562
v 0.11305 0.36334 0.06385
v 0.12088 0.36334 0.06640
v 0.11062 0.00000 0.06562
v 0.11062 0.00000 0.05386
v 0.11305 0.36334 0.05562
v 0.11305 0.36334 0.06385
v 0.11062 0.00000 0.05386
v 0.12180 0.00000 0.05023
v 0.12088 0.36334 0.05308
v 0.11305 0.36334 0.05562
v 0.12180 0.00000 0.05023
v 0.12871 0.00000 0.05974
v 0.12571 0.36334 0.05974
v 0.12088 0.36334 0.05308
v 0.11871 0.00000 0.05974
v 0.12180 0.00000 0.06925
v 0.12871 0.00000 0.05974
v 0.11871 0.36334 0.05974
v 0.12571 0.36334 0.05974
v 0.12088 0.36334 0.06640
v 0.11871 0.00000 0.05974
v 0.11062 0.00000 0.06562
v 0.12180 0.00000 0.06925
v 0.11871 0.36334 0.05974
v 0.12088 0.36334 0.06640
v 0.11305 0.36334 0.06385
v 0.11871 0.00000 0.05974
v 0.11062 0.00000 0.05386
v 0.11062 0.00000 0.06562
v 0.11871 0.36334 0.05974
v 0.11305 0.36334 0.06385
v 0.11305 0.36334 0.05562
v 0.11871 0.00000 0.05974
v 0.12180 0.00000 0.05023
v 0.11062 0.00000 0.05386
v 0.11871 0.36334 0.05974
v 0.11305 0.36334 0.05562
v 0.12088 0.36334 0.05308
v 0.11871 0.00000 0.05974
v 0.12871 0.00000 0.05974
v 0.12180 0.00000 0.05023
v 0.11871 0.36334 0.05974
v 0.12088 0.36334 0.05308
v 0.12571 0.36334 0.05974
v 0.06871 0.27834 0.05974
v 0.16871 0.27834 0.05974
v 0.16871 0.37834 0.05974
v 0.06871 0.37834 0.05974
v 0.06871 0.37834 0.05974
v 0.16871 0.37834 0.05974
v 0.16871 0.27834 0.05974
v 0.06871 0.27834 0.05974
v 0.11871 0.27834 0.00974
v 0.11871 0.27834 0.10974
v 0.11871 0.37834 0.10974
v 0.11871 0.37834 0.00974
v 0.11871 0.37834 0.00974
v 0.11871 0.37834 0.10974
v 0.11871 0.27834 0.10974
v 0.11871 0.27834 0.00974
v 0.16871 0.27834 0.05974
v 0.06871 0.27834 0.05974
v 0.06871 0.37834 0.05974
v 0.16871 0.37834 0.05974
v 0.16871 0.37834 0.05974
v 0.06871 0.37834 0.05974
v 0.06871 0.27834 0.05974
v 0.16871 0.27834 0.05974
v 0.11871 0.27834 0.10974
v 0.11871 0.27834 0.00974
v 0.11871 0.37834 0.00974
v 0.11871 0.37834 0.10974
v 0.11871 0.37834 0.10974
v 0.11871 0.37834 0.00974
v 0.11871 0.27834 0.00974
v 0.11871 0.27834 0.10974
v 0.09327 0.04819 0.10572
v 0.06675 0.04819 0.05190
v 0.14416 0.20615 0.01376
v 0.17068 0.20615 0.06758
v 0.17068 0.20615 0.06758
v 0.14416 0.20615 0.01376
v 0.06675 0.04819 0.05190
v 0.09327 0.04819 0.10572
vt 0.00000 0.00000
vt 1.00000 0.00000
vt 0.50000 1.00000
vt 0.50000 1.00000
vt 1.00000 0.00000
vt 0.00000 0.00000
vt 0.00000 0.00000
vt 1.00000 0.00000
vt 0.50000 1.00000
vt 0.50000 1.00000
vt 1.00000 0.00000
vt 0.00000 0.00000
vt 0.00000 0.00000
vt 1.00000 0.00000
vt 0.50000 1.00000
vt 0.50000 1.00000
vt 1.00000 0.00000
vt 0.00000 0.00000
vt 0.00000 0.00000
vt 1.00000 0.00000
vt 0.50000 1.00000
vt 0.50000 1.00000
vt 1.00000 0.00000
vt 0.00000 0.00000
vt 0.00000 0.00000
vt 1.00000 0.00000
vt 0.50000 1.00000
vt 0.50000 1.00000
vt 1.00000 0.00000
vt 0.00000 0.00000
vt 0.00000 0.00000
vt 1.00000 0.00000
vt 0.50000 1.00000
vt 0.50000 1.00000
vt 1.00000 0.00000
vt 0.00000 0.00000
vt 0.00000 0.00000
vt 1.00000 0.00000
vt 0.50000 1.00000
vt 0.50000 1.00000
vt 1.00000 0.00000
vt 0.00000 0.00000
vt 0.00000 0.00000
vt 1.00000 0.00000
vt 0.50000 1.00000
vt 0.50000 1.00000
vt 1.00000 0.00000
vt 0.00000 0.00000
vt 0.00000 0.00000
vt 1.00000 0.00000
vt 0.50000 1.00000
vt 0.50000 1.00000
vt 1.00000 0.00000
vt 0.00000 0.00000
vt 0.00000 0.00000
vt 1.00000 0.00000
vt 0.50000 1.00000
vt 0.50000 1.00000
vt 1.00000 0.00000
vt 0.00000 0.00000
vt 0.00000 0.00000
vt 1.00000 0.00000
vt 1.00000 1.00000
vt 0.00000 1.00000
vt 0.00000 0.00000
vt 1.00000 0.00000
vt 1.00000 1.00000
vt 0.00000 1.00000
vt 0.00000 0.00000
vt 1.00000 0.00000
vt 1.00000 1.00000
vt 0.00000 1.00000
vt 0.00000 0.00000
vt 1.00000 0.00000
vt 1.00000 1.00000
vt 0.00000 1.00000
vt 0.00000 0.00000
vt 1.00000 0.00000
vt 1.00000 1.00000
vt 0.00000 1.00000
vt 0.00000 0.00000
vt 1.00000 0.00000
vt 1.00000 1.00000
vt 0.00000 0.00000
vt 1.00000 0.00000
vt 1.00000 1.00000
vt 0.00000 0.00000
vt 1.00000 0.00000
vt 1.00000 1.00000
vt 0.00000 0.00000
vt 1.00000 0.00000
vt 1.00000 1.00000
vt 0.00000 0.00000
vt 1.00000 0.00000
vt 1.00000 1.00000
vt 0.00000 0.00000
vt 1.00000 0.00000
vt 1.00000 1.00000
vt 0.00000 0.00000
vt 1.00000 0.00000
vt 1.00000 1.00000
vt 0.00000 0.00000
vt 1.00000 0.00000
vt 1.00000 1.00000
vt 0.00000 0.00000
vt 1.00000 0.00000
vt 1.00000 1.00000
vt 0.00000 0.00000
vt 1.00000 0.00000
vt 1.00000 1.00000
vt 0.00000 0.00000
vt 1.00000 0.00000
vt 1.00000 1.00000
vt 0.00000 1.00000
vt 0.00000 1.00000
vt 1.00000 1.00000
vt 1.00000 0.00000
vt 0.00000 0.00000
vt 0.00000 0.00000
vt 1.00000 0.00000
vt 1.00000 1.00000
vt 0.00000 1.00000
vt 0.00000 1.00000
vt 1.00000 1.00000
vt 1.00000 0.00000
vt 0.00000 0.00000
vt 0.00000 0.00000
vt 1.00000 0.00000
vt 1.00000 1.00000
vt 0.00000 1.00000
vt 0.00000 1.00000
vt 1.00000 1.00000
vt 1.00000 0.00000
vt 0.00000 0.00000
vt 0.00000 0.00000
vt 1.00000 0.00000
vt 1.00000 1.00000
vt 0.00000 1.00000
vt 0.00000 1.00000
vt 1.00000 1.00000
vt 1.00000 0.00000
vt 0.00000 0.00000
vt 0.00000 0.00000
vt 1.00000 0.00000
vt 1.00000 1.00000
vt 0.00000 1.00000
vt 0.00000 1.00000
vt 1.00000 1.00000
vt 1.00000 0.00000
vt 0.00000 0.00000
vt 0.00000 0.00000
vt 1.00000 0.00000
vt 1.00000 1.00000
vt 0.00000 1.00000
vt 0.00000 0.00000
vt 1.00000 0.00000
vt 1.00000 1.00000
vt 0.00000 1.00000
vt 0.00000 0.00000
vt 1.00000 0.00000
vt 1.00000 1.00000
vt 0.00000 1.00000
vt 0.00000 0.00000
vt 1.00000 0.00000
vt 1.00000 1.00000
vt 0.00000 1.00000
vt 0.00000 0.00000
vt 1.00000 0.00000
vt 1.00000 1.00000
vt 0.00000 1.00000
vt 0.00000 0.00000
vt 1.00000 0.00000
vt 1.00000 1.00000
vt 0.00000 0.00000
vt 1.00000 0.00000
vt 1.00000 1.00000
vt 0.00000 0.00000
vt 1.00000 0.00000
vt 1.00000 1.00000
vt 0.00000 0.00000
vt 1.00000 0.00000
vt 1.00000 1.00000
vt 0.00000 0.00000
vt 1.00000 0.00000
vt 1.00000 1.00000
vt 0.00000 0.00000
vt 1.00000 0.00000
vt 1.00000 1.00000
vt 0.00000 0.00000
vt 1.00000 0.00000
vt 1.00000 1.00000
vt 0.00000 0.00000
vt 1.00000 0.00000
vt 1.00000 1.00000
vt 0.00000 0.00000
vt 1.00000 0.00000
vt 1.00000 1.00000
vt 0.00000 0.00000
vt 1.00000 0.00000
vt 1.00000 1.00000
vt 0.00000 0.00000
vt 1.00000 0.00000
vt 1.00000 1.00000
vt 0.00000 1.00000
vt 0.00000 1.00000
vt 1.00000 1.00000
vt 1.00000 0.00000
vt 0.00000 0.00000
vt 0.00000 0.00000
vt 1.00000 0.00000
vt 1.00000 1.00000
vt 0.00000 1.00000
vt 0.00000 1.00000
vt 1.00000 1.00000
vt 1.00000 0.00000
vt 0.00000 0.00000
vt 0.00000 0.00000
vt 1.00000 0.00000
vt 1.00000 1.00000
vt 0.00000 1.00000
vt 0.00000 1.00000
vt 1.00000 1.00000
vt 1.00000 0.00000
vt 0.00000 0.00000
vt 0.00000 0.00000
vt 1.00000 0.00000
vt 1.00000 1.00000
vt 0.00000 1.00000
vt 0.00000 1.00000
vt 1.00000 1.00000
vt 1.00000 0.00000
vt 0.00000 0.00000
vt 0.00000 0.00000
vt 1.00000 0.00000
vt 1.00000 1.00000
vt 0.00000 1.00000
vt 0.00000 1.00000
vt 1.00000 1.00000
vt 1.00000 0.00000
vt 0.00000 0.00000
vt 0.00000 0.00000
vt 1.00000 0.00000
vt 1.00000 1.00000
vt 0.00000 1.00000
vt 0.00000 0.00000
vt 1.00000 0.00000
vt 1.00000 1.00000
vt 0.00000 1.00000
vt 0.00000 0.00000
vt 1.00000 0.00000
vt 1.00000 1.00000
vt 0.00000 1.00000
vt 0.00000 0.00000
vt 1.00000 0.00000
vt 1.00000 1.00000
vt 0.00000 1.00000
vt 0.00000 0.00000
vt 1.00000 0.00000
vt 1.00000 1.00000
vt 0.00000 1.00000
vt 0.00000 0.00000
vt 1.00000 0.00000
vt 1.00000 1.00000
vt 0.00000 0.00000
vt 1.00000 0.00000
vt 1.00000 1.00000
vt 0.00000 0.00000
vt 1.00000 0.00000
vt 1.00000 1.00000
vt 0.00000 0.00000
vt 1.00000 0.00000
vt 1.00000 1.00000
vt 0.00000 0.00000
vt 1.00000 0.00000
vt 1.00000 1.00000
vt 0.00000 0.00000
vt 1.00000 0.00000
vt 1.00000 1.00000
vt 0.00000 0.00000
vt 1.00000 0.00000
vt 1.00000 1.00000
vt 0.00000 0.00000
vt 1.00000 0.00000
vt 1.00000 1.00000
vt 0.00000 0.00000
vt 1.00000 0.00000
vt 1.00000 1.00000
vt 0.00000 0.00000
vt 1.00000 0.00000
vt 1.00000 1.00000
vt 0.00000 0.00000
vt 1.00000 0.00000
vt 1.00000 1.00000
vt 0.00000 1.00000
vt 0.00000 1.00000
vt 1.00000 1.00000
vt 1.00000 0.00000
vt 0.00000 0.00000
vt 0.00000 0.00000
vt 1.00000 0.00000
vt 1.00000 1.00000
vt 0.00000 1.00000
vt 0.00000 1.00000
vt 1.00000 1.00000
vt 1.00000 0.00000
vt 0.00000 0.00000
vt 0.00000 0.00000
vt 1.00000 0.00000
vt 1.00000 1.00000
vt 0.00000 1.00000
vt 0.00000 1.00000
vt 1.00000 1.00000
vt 1.00000 0.00000
vt 0.00000 0.00000
vt 0.00000 0.00000
vt 1.00000 0.00000
vt 1.00000 1.00000
vt 0.00000 1.00000
vt 0.00000 1.00000
vt 1.00000 1.00000
vt 1.00000 0.00000
vt 0.00000 0.00000
vt 0.00000 0.00000
vt 1.00000 0.00000
vt 1.00000 1.00000
vt 0.00000 1.00000
vt 0.00000 1.00000
vt 1.00000 1.00000
vt 1.00000 0.00000
vt 0.00000 0.00000
vt 0.00000 0.00000
vt 1.00000 0.00000
vt 1.00000 1.00000
vt 0.00000 1.00000
vt 0.00000 0.00000
vt 1.00000 0.00000
vt 1.00000 1.00000
vt 0.00000 1.00000
vt 0.00000 0.00000
vt 1.00000 0.00000
vt 1.00000 1.00000
vt 0.00000 1.00000
vt 0.00000 0.00000
vt 1.00000 0.00000
vt 1.00000 1.00000
vt 0.00000 1.00000
vt 0.00000 0.00000
vt 1.00000 0.00000
vt 1.00000 1.00000
vt 0.00000 1.00000
vt 0.00000 0.00000
vt 1.00000 0.00000
vt 1.00000 1.00000
vt 0.00000 0.00000
vt 1.00000 0.00000
vt 1.00000 1.00000
vt 0.00000 0.00000
vt 1.00000 0.00000
vt 1.00000 1.00000
vt 0.00000 0.00000
vt 1.00000 0.00000
vt 1.00000 1.00000
vt 0.00000 0.00000
vt 1.00000 0.00000
vt 1.00000 1.00000
vt 0.00000 0.00000
vt 1.00000 0.00000
vt 1.00000 1.00000
vt 0.00000 0.00000
vt 1.00000 0.00000
vt 1.00000 1.00000
vt 0.00000 0.00000
vt 1.00000 0.00000
vt 1.00000 1.00000
vt 0.00000 0.00000
vt 1.00000 0.00000
vt 1.00000 1.00000
vt 0.00000 0.00000
vt 1.00000 0.00000
vt 1.00000 1.00000
vt 0.00000 0.00000
vt 1.00000 0.00000
vt 1.00000 1.00000
vt 0.00000 1.00000
vt 0.00000 1.00000
vt 1.00000 1.00000
vt 1.00000 0.00000
vt 0.00000 0.00000
vt 0.00000 0.00000
vt 1.00000 0.00000
vt 1.00000 1.00000
vt 0.00000 1.00000
vt 0.00000 1.00000
vt 1.00000 1.00000
vt 1.00000 0.00000
vt 0.00000 0.00000
vt 0.00000 0.00000
vt 1.00000 0.00000
vt 1.00000 1.00000
vt 0.00000 1.00000
vt 0.00000 1.00000
vt 1.00000 1.00000
vt 1.00000 0.00000
vt 0.00000 0.00000
vt 0.00000 0.00000
vt 1.00000 0.00000
vt 1.00000 1.00000
vt 0.00000 1.00000
vt 0.00000 1.00000
vt 1.00000 1.00000
vt 1.00000 0.00000
vt 0.00000 0.00000
vt 0.00000 0.00000
vt 1.00000 0.00000
vt 1.00000 1.00000
vt 0.00000 1.00000
vt 0.00000 1.00000
vt 1.00000 1.00000
vt 1.00000 0.00000
vt 0.00000 0.00000
vt 0.00000 0.00000
vt 1.00000 0.00000
vt 1.00000 1.00000
vt 0.00000 1.00000
vt 0.00000 0.00000
vt 1.00000 0.00000
vt 1.00000 1.00000
vt 0.00000 1.00000
vt 0.00000 0.00000
vt 1.00000 0.00000
vt 1.00000 1.00000
vt 0.00000 1.00000
vt 0.00000 0.00000
vt 1.00000 0.00000
vt 1.00000 1.00000
vt 0.00000 1.00000
vt 0.00000 0.00000
vt 1.00000 0.00000
vt 1.00000 1.00000
vt 0.00000 1.00000
vt 0.00000 0.00000
vt 1.00000 0.00000
vt 1.00000 1.00000
vt 0.00000 0.00000
vt 1.00000 0.00000
vt 1.00000 1.00000
vt 0.00000 0.00000
vt 1.00000 0.00000
vt 1.00000 1.00000
vt 0.00000 0.00000
vt 1.00000 0.00000
vt 1.00000 1.00000
vt 0.00000 0.00000
vt 1.00000 0.00000
vt 1.00000 1.00000
vt 0.00000 0.00000
vt 1.00000 0.00000
vt 1.00000 1.00000
vt 0.00000 0.00000
vt 1.00000 0.00000
vt 1.00000 1.00000
vt 0.00000 0.00000
vt 1.00000 0.00000
vt 1.00000 1.00000
vt 0.00000 0.00000
vt 1.00000 0.00000
vt 1.00000 1.00000
vt 0.00000 0.00000
vt 1.00000 0.00000
vt 1.00000 1.00000
vt 0.00000 0.00000
vt 1.00000 0.00000
vt 1.00000 1.00000
vt 0.00000 1.00000
vt 0.00000 1.00000
vt 1.00000 1.00000
vt 1.00000 0.00000
vt 0.00000 0.00000
vt 0.00000 0.00000
vt 1.00000 0.00000
vt 1.00000 1.00000
vt 0.00000 1.00000
vt 0.00000 1.00000
vt 1.00000 1.00000
vt 1.00000 0.00000
vt 0.00000 0.00000
vt 0.00000 0.00000
vt 1.00000 0.00000
vt 1.00000 1.00000
vt 0.00000 1.00000
vt 0.00000 1.00000
vt 1.00000 1.00000
vt 1.00000 0.00000
vt 0.00000 0.00000
vt 0.00000 0.00000
vt 1.00000 0.00000
vt 1.00000 1.00000
vt 0.00000 1.00000
vt 0.00000 1.00000
vt 1.00000 1.00000
vt 1.00000 0.00000
vt 0.00000 0.00000
vt 0.00000 0.00000
vt 1.00000 0.00000
vt 1.00000 1.00000
vt 0.00000 1.00000
vt 0.00000 1.00000
vt 1.00000 1.00000
vt 1.00000 0.00000
vt 0.00000 0.00000
vn 0.08573 -0.00000 0.99632
vn -0.08573 0.00000 -0.99632
vn 0.00115 -0.00000 1.00000
vn -0.00115 0.00000 -1.00000
vn -0.99650 -0.00000 -0.08356
vn 0.99650 0.00000 0.08356
vn -0.98606 0.00000 0.16641
vn 0.98606 -0.00000 -0.16641
vn -0.48244 -0.00000 -0.87593
vn 0.48244 0.00000 0.87593
vn 0.42454 0.00000 0.90541
vn -0.42454 -0.00000 -0.90541
vn -0.06118 -0.00000 -0.99813
vn 0.06118 0.00000 0.99813
vn 0.37940 -0.00000 0.92523
vn -0.37940 0.00000 -0.92523
vn 0.65153 -0.00000 0.75863
vn -0.65153 0.00000 -0.75863
vn 0.84270 -0.00000 0.53838
vn -0.84270 0.00000 -0.53838
vn -0.80899 -0.00836 -0.58776
vn 0.30901 -0.00836 -0.95102
vn 0.99997 -0.00836 0.00000
vn 0.30901 -0.00836 0.95102
vn -0.80899 -0.00836 0.58776
vn 0.00000 1.00000 0.00000
vn 0.00000 -1.00000 0.00000
vn 0.00000 1.00000 -0.00000
vn 0.00000 -1.00000 0.00000
vn 0.00000 1.00000 0.00000
vn -0.00000 -1.00000 0.00000
vn 0.00000 1.00000 0.00000
vn 0.00000 -1.00000 -0.00000
vn -0.00000 1.00000 0.00000
vn 0.00000 -1.00000 0.00000
vn 0.00000 0.00000 1.00000
vn -0.00000 -0.00000 -1.00000
vn -1.00000 0.00000 0.00000
vn 1.00000 -0.00000 -0.00000
vn 0.00000 0.00000 -1.00000
vn -0.00000 -0.00000 1.00000
vn 1.00000 0.00000 -0.00000
vn -1.00000 -0.00000 0.00000
vn 0.19014 -0.47943 0.85674
vn -0.19014 0.47943 -0.85674
vn -0.80898 -0.00920 -0.58776
vn 0.30900 -0.00920 -0.95102
vn 0.99996 -0.00920 0.00000
vn 0.30900 -0.00920 0.95102
vn -0.80898 -0.00920 0.58776
vn 0.00000 1.00000 0.00000
vn 0.00000 -1.00000 0.00000
vn 0.00000 1.00000 -0.00000
vn 0.00000 -1.00000 0.00000
vn 0.00000 1.00000 0.00000
vn -0.00000 -1.00000 0.00000
vn 0.00000 1.00000 0.00000
vn 0.00000 -1.00000 -0.00000
vn 0.00000 1.00000 0.00000
vn 0.00000 -1.00000 0.00000
vn 0.00000 0.00000 1.00000
vn -0.00000 -0.00000 -1.00000
vn -1.00000 0.00000 0.00000
vn 1.00000 -0.00000 -0.00000
vn -0.00000 0.00000 -1.00000
vn 0.00000 -0.00000 1.00000
vn 1.00000 0.00000 -0.00000
vn -1.00000 -0.00000 0.00000
vn -0.67081 -0.47943 -0.56584
vn 0.67081 0.47943 0.56584
vn -0.80900 -0.00696 -0.58777
vn 0.30901 -0.00696 -0.95103
vn 0.99998 -0.00696 0.00000
vn 0.30901 -0.00696 0.95103
vn -0.80900 -0.00696 0.58777
vn 0.00000 1.00000 0.00000
vn 0.00000 -1.00000 0.00000
vn 0.00000 1.00000 -0.00000
vn 0.00000 -1.00000 0.00000
vn 0.00000 1.00000 0.00000
vn -0.00000 -1.00000 0.00000
vn 0.00000 1.00000 0.00000
vn 0.00000 -1.00000 -0.00000
vn -0.00000 1.00000 0.00000
vn 0.00000 -1.00000 0.00000
vn 0.00000 0.00000 1.00000
vn -0.00000 -0.00000 -1.00000
vn -1.00000 0.00000 0.00000
vn 1.00000 -0.00000 -0.00000
vn 0.00000 0.00000 -1.00000
vn -0.00000 -0.00000 1.00000
vn 1.00000 0.00000 -0.00000
vn -1.00000 -0.00000 0.00000
vn 0.12083 -0.47943 -0.86922
vn -0.12083 0.47943 0.86922
vn -0.80898 -0.00932 -0.58776
vn 0.30900 -0.00932 -0.95102
vn 0.99996 -0.00932 0.00000
vn 0.30900 -0.00932 0.95102
vn -0.80898 -0.00932 0.58776
vn 0.00000 1.00000 0.00000
vn 0.00000 -1.00000 0.00000
vn 0.00000 1.00000 -0.00000
vn 0.00000 -1.00000 0.00000
vn 0.00000 1.00000 0.00000
vn -0.00000 -1.00000 0.00000
vn 0.00000 1.00000 0.00000
vn 0.00000 -1.00000 -0.00000
vn -0.00000 1.00000 0.00000
vn 0.00000 -1.00000 0.00000
vn 0.00000 0.00000 1.00000
vn -0.00000 -0.00000 -1.00000
vn -1.00000 0.00000 0.00000
vn 1.00000 -0.00000 -0.00000
vn 0.00000 0.00000 -1.00000
vn -0.00000 -0.00000 1.00000
vn 1.00000 0.00000 -0.00000
vn -1.00000 -0.00000 0.00000
vn -0.79700 -0.47943 0.36733
vn 0.79700 0.47943 -0.36733
vn -0.80900 -0.00668 -0.58777
vn 0.30901 -0.00668 -0.95104
vn 0.99998 -0.00668 0.00000
vn 0.30901 -0.00668 0.95104
vn -0.80900 -0.00668 0.58777
vn 0.00000 1.00000 0.00000
vn 0.00000 -1.00000 0.00000
vn 0.00000 1.00000 -0.00000
vn 0.00000 -1.00000 0.00000
vn 0.00000 1.00000 0.00000
vn -0.00000 -1.00000 0.00000
vn 0.00000 1.00000 0.00000
vn 0.00000 -1.00000 -0.00000
vn -0.00000 1.00000 0.00000
vn 0.00000 -1.00000 0.00000
vn 0.00000 0.00000 1.00000
vn -0.00000 -0.00000 -1.00000
vn -1.00000 0.00000 0.00000
vn 1.00000 -0.00000 -0.00000
vn -0.00000 0.00000 -1.00000
vn 0.00000 -0.00000 1.00000
vn 1.00000 0.00000 -0.00000
vn -1.00000 -0.00000 0.00000
vn 0.78718 -0.47943 -0.38793
vn -0.78718 0.47943 0.38793
usemtl green_leaf
f 1/1/1 2/2/1 3/3/1
f 4/4/2 5/5/2 6/6/2
f 7/7/3 8/8/3 9/9/3
f 10/10/4 11/11/4 12/12/4
f 13/13/5 14/14/5 15/15/5
f 16/16/6 17/17/6 18/18/6
f 19/19/7 20/20/7 21/21/7
f 22/22/8 23/23/8 24/24/8
f 25/25/9 26/26/9 27/27/9
f 28/28/10 29/29/10 30/30/10
f 31/31/11 32/32/11 33/33/11
f 34/34/12 35/35/12 36/36/12
f 37/37/13 38/38/13 39/39/13
f 40/40/14 41/41/14 42/42/14
f 43/43/15 44/44/15 45/45/15
f 46/46/16 47/47/16 48/48/16
f 49/49/17 50/50/17 51/51/17
f 52/52/18 53/53/18 54/54/18
f 55/55/19 56/56/19 57/57/19
f 58/58/20 59/59/20 60/60/20
f 61/61/21 62/62/21 63/63/21 64/64/21
f 65/65/22 66/66/22 67/67/22 68/68/22
f 69/69/23 70/70/23 71/71/23 72/72/23
f 73/73/24 74/74/24 75/75/24 76/76/24
f 77/77/25 78/78/25 79/79/25 80/80/25
f 81/81/26 82/82/26 83/83/26
f 84/84/27 85/85/27 86/86/27
f 87/87/28 88/88/28 89/89/28
f 90/90/29 91/91/29 92/92/29
f 93/93/30 94/94/30 95/95/30
f 96/96/31 97/97/31 98/98/31
f 99/99/32 100/100/32 101/101/32
f 102/102/33 103/103/33 104/104/33
f 105/105/34 106/106/34 107/107/34
f 108/108/35 109/109/35 110/110/35
usemtl flower_red
f 111/111/36 112/112/36 113/113/36 114/114/36
f 115/115/37 116/116/37 117/117/37 118/118/37
f 119/119/38 120/120/38 121/121/38 122/122/38
f 123/123/39 124/124/39 125/125/39 126/126/39
f 127/127/40 128/128/40 129/129/40 130/130/40
f 131/131/41 132/132/41 133/133/41 134/134/41
f 135/135/42 136/136/42 137/137/42 138/138/42
f 139/139/43 140/140/43 141/141/43 142/142/43
usemtl green_leaf
f 143/143/44 144/144/44 145/145/44 146/146/44
f 147/147/45 148/148/45 149/149/45 150/150/45
f 151/151/46 152/152/46 153/153/46 154/154/46
f 155/155/47 156/156/47 157/157/47 158/158/47
f 159/159/48 160/160/48 161/161/48 162/162/48
f 163/163/49 164/164/49 165/165/49 166/166/49
f 167/167/50 168/168/50 169/169/50 170/170/50
f 171/171/51 172/172/51 173/173/51
f 174/174/52 175/175/52 176/176/52
f 177/177/53 178/178/53 179/179/53
f 180/180/54 181/181/54 182/182/54
f 183/183/55 184/184/55 185/185/55
f 186/186/56 187/187/56 188/188/56
f 189/189/57 190/190/57 191/191/57
f 192/192/58 193/193/58 194/194/58
f 195/195/59 196/196/59 197/197/59
f 198/198/60 199/199/60 200/200/60
usemtl flower_red
f 201/201/61 202/202/61 203/203/61 204/204/61
f 205/205/62 206/206/62 207/207/62 208/208/62
f 209/209/63 210/210/63 211/211/63 212/212/63
f 213/213/64 214/214/64 215/215/64 216/216/64
f 217/217/65 218/218/65 219/219/65 220/220/65
f 221/221/66 222/222/66 223/223/66 224/224/66
f 225/225/67 226/226/67 227/227/67 228/228/67
f 229/229/68 230/230/68 231/231/68 232/232/68
usemtl green_leaf
f 233/233/69 234/234/69 235/235/69 236/236/69
f 237/237/70 238/238/70 239/239/70 240/240/70
f 241/241/71 242/242/71 243/243/71 244/244/71
f 245/245/72 246/246/72 247/247/72 248/248/72
f 249/249/73 250/250/73 251/251/73 252/252/73
f 253/253/74 254/254/74 255/255/74 256/256/74
f 257/257/75 258/258/75 259/259/75 260/260/75
f 261/261/76 262/262/76 263/263/76
f 264/264/77 265/265/77 266/266/77
f 267/267/78 268/268/78 269/269/78
f 270/270/79 271/271/79 272/272/79
f 273/273/80 274/274/80 275/275/80
f 276/276/81 277/277/81 278/278/81
f 279/279/82 280/280/82 281/281/82
f 282/282/83 283/283/83 284/284/83
f 285/285/84 286/286/84 287/287/84
f 288/288/85 289/289/85 290/290/85
usemtl flower_red
f 291/291/86 292/292/86 293/293/86 294/294/86
f 295/295/87 296/296/87 297/297/87 298/298/87
f 299/299/88 300/300/88 301/301/88 302/302/88
f 303/303/89 304/304/89 305/305/89 306/306/89
f 307/307/90 308/308/90 309/309/90 310/310/90
f 311/311/91 312/312/91 313/313/91 314/314/91
f 315/315/92 316/316/92 317/317/92 318/318/92
f 319/319/93 320/320/93 321/321/93 322/322/93
usemtl green_leaf
f 323/323/94 324/324/94 325/325/94 326/326/94
f 327/327/95 328/328/95 329/329/95 330/330/95
f 331/331/96 332/332/96 333/333/96 334/334/96
f 335/335/97 336/336/97 337/337/97 338/338/97
f 339/339/98 340/340/98 341/341/98 342/342/98
f 343/343/99 344/344/99 345/345/99 346/346/99
f 347/347/100 348/348/100 349/349/100 350/350/100
f 351/351/101 352/352/101 353/353/101
f 354/354/102 355/355/102 356/356/102
f 357/357/103 358/358/103 359/359/103
f 360/360/104 361/361/104 362/362/104
f 363/363/105 364/364/105 365/365/105
f 366/366/106 367/367/106 368/368/106
f 369/369/107 370/370/107 371/371/107
f 372/372/108 373/373/108 374/374/108
f 375/375/109 376/376/109 377/377/109
f 378/378/110 379/379/110 380/380/110
usemtl flower_red
f 381/381/111 382/382/111 383/383/111 384/384/111
f 385/385/112 386/386/112 387/387/112 388/388/112
f 389/389/113 390/390/113 391/391/113 392/392/113
f 393/393/114 394/394/114 395/395/114 396/396/114
f 397/397/115 398/398/115 399/399/115 400/400/115
f 401/401/116 402/402/116 403/403/116 404/404/116
f 405/405/117 406/406/117 407/407/117 408/408/117
f 409/409/118 410/410/118 411/411/118 412/412/118
usemtl green_leaf
f 413/413/119 414/414/119 415/415/119 416/416/119
f 417/417/120 418/418/120 419/419/120 420/420/120
f 421/421/121 422/422/121 423/423/121 424/424/121
f 425/425/122 426/426/122 427/427/122 428/428/122
f 429/429/123 430/430/123 431/431/123 432/432/123
f 433/433/124 434/434/124 435/435/124 436/436/124
f 437/437/125 438/438/125 439/439/125 440/440/125
f 441/441/126 442/442/126 443/443/126
f 444/444/127 445/445/127 446/446/127
f 447/447/128 448/448/128 449/449/128
f 450/450/129 451/451/129 452/452/129
f 453/453/130 454/454/130 455/455/130
f 456/456/131 457/457/131 458/458/131
f 459/459/132 460/460/132 461/461/132
f 462/462/133 463/463/133 464/464/133
f 465/465/134 466/466/134 467/467/134
f 468/468/135 469/469/135 470/470/135
usemtl flower_red
f 471/471/136 472/472/136 473/473/136 474/474/136
f 475/475/137 476/476/137 477/477/137 478/478/137
f 479/479/138 480/480/138 481/481/138 482/482/138
f 483/483/139 484/484/139 485/485/139 486/486/139
f 487/487/140 488/488/140 489/489/140 490/490/140
f 491/491/141 492/492/141 493/493/141 494/494/141
f 495/495/142 496/496/142 497/497/142 498/498/142
f 499/499/143 500/500/143 501/501/143 502/502/143
usemtl green_leaf
f 503/503/144 504/504/144 505/505/144 506/506/144
f 507/507/145 508/508/145 509/509/145 510/510/145