# flower_yellow_patch
mtllib nomad_vegetation.mtl
o flower_yellow_patch
v -0.02142 0.00000 -0.09735
v -0.02655 0.00000 -0.05888
v -0.02928 0.27129 -0.03846
v -0.02928 0.27129 -0.03846
v -0.02655 0.00000 -0.05888
v -0.02142 0.00000 -0.09735
v -0.00741 0.00000 -0.11387
v -0.01787 0.00000 -0.13774
v -0.02870 0.27218 -0.16244
v -0.02870 0.27218 -0.16244
v -0.01787 0.00000 -0.13774
v -0.00741 0.00000 -0.11387
v 0.01713 0.00000 -0.14801
v 0.03705 0.00000 -0.16221
v 0.05966 0.19658 -0.17832
v 0.05966 0.19658 -0.17832
v 0.03705 0.00000 -0.16221
v 0.01713 0.00000 -0.14801
v -0.01939 0.00000 0.13609
v -0.00015 0.00000 0.16245
v 0.01380 0.29260 0.18159
v 0.01380 0.29260 0.18159
v -0.00015 0.00000 0.16245
v -0.01939 0.00000 0.13609
v -0.10732 0.00000 -0.17072
v -0.08367 0.00000 -0.14765
v -0.06686 0.20309 -0.13125
v -0.06686 0.20309 -0.13125
v -0.08367 0.00000 -0.14765
v -0.10732 0.00000 -0.17072
v 0.14202 0.00000 0.06122
v 0.10949 0.00000 0.08373
v 0.09286 0.20862 0.09523
v 0.09286 0.20862 0.09523
v 0.10949 0.00000 0.08373
v 0.14202 0.00000 0.06122
v -0.22331 0.00000 0.11082
v -0.23778 0.00000 0.07628
v -0.24599 0.26505 0.05666
v -0.24599 0.26505 0.05666
v -0.23778 0.00000 0.07628
v -0.22331 0.00000 0.11082
v -0.08053 0.00000 -0.05095
v -0.06097 0.00000 -0.03771
v -0.03762 0.26872 -0.02192
v -0.03762 0.26872 -0.02192
v -0.06097 0.00000 -0.03771
v -0.08053 0.00000 -0.05095
v -0.23583 0.00000 -0.03446
v -0.23007 0.00000 -0.00599
v -0.22501 0.20714 0.01898
v -0.22501 0.20714 0.01898
v -0.23007 0.00000 -0.00599
v -0.23583 0.00000 -0.03446
v -0.23874 0.00000 -0.01037
v -0.20798 0.00000 0.00902
v -0.18952 0.19434 0.02066
v -0.18952 0.19434 0.02066
v -0.20798 0.00000 0.00902
v -0.23874 0.00000 -0.01037
v 0.11432 0.00000 0.01854
v 0.10741 0.00000 0.02805
v 0.10648 0.33326 0.02520
v 0.11132 0.33326 0.01854
v 0.10741 0.00000 0.02805
v 0.09623 0.00000 0.02442
v 0.09866 0.33326 0.02266
v 0.10648 0.33326 0.02520
v 0.09623 0.00000 0.02442
v 0.09623 0.00000 0.01267
v 0.09866 0.33326 0.01443
v 0.09866 0.33326 0.02266
v 0.09623 0.00000 0.01267
v 0.10741 0.00000 0.00903
v 0.10648 0.33326 0.01189
v 0.09866 0.33326 0.01443
v 0.10741 0.00000 0.00903
v 0.11432 0.00000 0.01854
v 0.11132 0.33326 0.01854
v 0.10648 0.33326 0.01189
v 0.10432 0.00000 0.01854
v 0.10741 0.00000 0.02805
v 0.11432 0.00000 0.01854
v 0.10432 0.33326 0.01854
v 0.11132 0.33326 0.01854
v 0.10648 0.33326 0.02520
v 0.10432 0.00000 0.01854
v 0.09623 0.00000 0.02442
v 0.10741 0.00000 0.02805
v 0.10432 0.33326 0.01854
v 0.10648 0.33326 0.02520
v 0.09866 0.33326 0.02266
v 0.10432 0.00000 0.01854
v 0.09623 0.00000 0.01267
v 0.09623 0.00000 0.02442
v 0.10432 0.33326 0.01854
v 0.09866 0.33326 0.02266
v 0.09866 0.33326 0.01443
v 0.10432 0.00000 0.01854
v 0.10741 0.00000 0.00903
v 0.09623 0.00000 0.01267
v 0.10432 0.33326 0.01854
v 0.09866 0.33326 0.01443
v 0.10648 0.33326 0.01189
v 0.10432 0.00000 0.01854
v 0.11432 0.00000 0.01854
v 0.10741 0.00000 0.00903
v 0.10432 0.33326 0.01854
v 0.10648 0.33326 0.01189
v 0.11132 0.33326 0.01854
v 0.05432 0.24826 0.01854
v 0.15432 0.24826 0.01854
v 0.15432 0.34826 0.01854
v 0.05432 0.34826 0.01854
v 0.05432 0.34826 0.01854
v 0.15432 0.34826 0.01854
v 0.15432 0.24826 0.01854
v 0.05432 0.24826 0.01854
v 0.10432 0.24826 -0.03146
v 0.10432 0.24826 0.06854
v 0.10432 0.34826 0.06854
v 0.10432 0.34826 -0.03146
v 0.10432 0.34826 -0.03146
v 0.10432 0.34826 0.06854
v 0.10432 0.24826 0.06854
v 0.10432 0.24826 -0.03146
v 0.15432 0.24826 0.01854
v 0.05432 0.24826 0.01854
v 0.05432 0.34826 0.01854
v 0.15432 0.34826 0.01854
v 0.15432 0.34826 0.01854
v 0.05432 0.34826 0.01854
v 0.05432 0.24826 0.01854
v 0.15432 0.24826 0.01854
v 0.10432 0.24826 0.06854
v 0.10432 0.24826 -0.03146
v 0.10432 0.34826 -0.03146
v 0.10432 0.34826 0.06854
v 0.10432 0.34826 0.06854
v 0.10432 0.34826 -0.03146
v 0.10432 0.24826 -0.03146
v 0.10432 0.24826 0.06854
v 0.10767 0.03766 -0.03390
v 0.15465 0.03766 0.00341
v 0.10098 0.19562 0.07099
v 0.05399 0.19562 0.03367
v 0.05399 0.19562 0.03367
v 0.10098 0.19562 0.07099
v 0.15465 0.03766 0.00341
v 0.10767 0.03766 -0.03390
v -0.05661 0.00000 -0.01088
v -0.06352 0.00000 -0.00137
v -0.06445 0.21674 -0.00422
v -0.05961 0.21674 -0.01088
v -0.06352 0.00000 -0.00137
v -0.07470 0.00000 -0.00500
v -0.07227 0.21674 -0.00676
v -0.06445 0.21674 -0.00422
v -0.07470 0.00000 -0.00500
v -0.07470 0.00000 -0.01676
v -0.07227 0.21674 -0.01499
v -0.07227 0.21674 -0.00676
v -0.07470 0.00000 -0.01676
v -0.06352 0.00000 -0.02039
v -0.06445 0.21674 -0.01754
v -0.07227 0.21674 -0.01499
v -0.06352 0.00000 -0.02039
v -0.05661 0.00000 -0.01088
v -0.05961 0.21674 -0.01088
v -0.06445 0.21674 -0.01754
v -0.06661 0.00000 -0.01088
v -0.06352 0.00000 -0.00137
v -0.05661 0.00000 -0.01088
v -0.06661 0.21674 -0.01088
v -0.05961 0.21674 -0.01088
v -0.06445 0.21674 -0.00422
v -0.06661 0.00000 -0.01088
v -0.07470 0.00000 -0.00500
v -0.06352 0.00000 -0.00137
v -0.06661 0.21674 -0.01088
v -0.06445 0.21674 -0.00422
v -0.07227 0.21674 -0.00676
v -0.06661 0.00000 -0.01088
v -0.07470 0.00000 -0.01676
v -0.07470 0.00000 -0.00500
v -0.06661 0.21674 -0.01088
v -0.07227 0.21674 -0.00676
v -0.07227 0.21674 -0.01499
v -0.06661 0.00000 -0.01088
v -0.06352 0.00000 -0.02039
v -0.07470 0.00000 -0.01676
v -0.06661 0.21674 -0.01088
v -0.07227 0.21674 -0.01499
v -0.06445 0.21674 -0.01754
v -0.06661 0.00000 -0.01088
v -0.05661 0.00000 -0.01088
v -0.06352 0.00000 -0.02039
v -0.06661 0.21674 -0.01088
v -0.06445 0.21674 -0.01754
v -0.05961 0.21674 -0.01088
v -0.11661 0.13174 -0.01088
v -0.01661 0.13174 -0.01088
v -0.01661 0.23174 -0.01088
v -0.11661 0.23174 -0.01088
v -0.11661 0.23174 -0.01088
v -0.01661 0.23174 -0.01088
v -0.01661 0.13174 -0.01088
v -0.11661 0.13174 -0.01088
v -0.06661 0.13174 -0.06088
v -0.06661 0.13174 0.03912
v -0.06661 0.23174 0.03912
v -0.06661 0.23174 -0.06088
v -0.06661 0.23174 -0.06088
v -0.06661 0.23174 0.03912
v -0.06661 0.13174 0.03912
v -0.06661 0.13174 -0.06088
v -0.01661 0.13174 -0.01088
v -0.11661 0.13174 -0.01088
v -0.11661 0.23174 -0.01088
v -0.01661 0.23174 -0.01088
v -0.01661 0.23174 -0.01088
v -0.11661 0.23174 -0.01088
v -0.11661 0.13174 -0.01088
v -0.01661 0.13174 -0.01088
v -0.06661 0.13174 0.03912
v -0.06661 0.13174 -0.06088
v -0.06661 0.23174 -0.06088
v -0.06661 0.23174 0.03912
v -0.06661 0.23174 0.03912
v -0.06661 0.23174 -0.06088
v -0.06661 0.13174 -0.06088
v -0.06661 0.13174 0.03912
v -0.10524 -0.00312 -0.04650
v -0.04667 -0.00312 -0.05950
v -0.02797 0.15484 0.02475
v -0.08655 0.15484 0.03775
v -0.08655 0.15484 0.03775
v -0.02797 0.15484 0.02475
v -0.04667 -0.00312 -0.05950
v -0.10524 -0.00312 -0.04650
v -0.04476 0.00000 -0.12735
v -0.05167 0.00000 -0.11784
v -0.05259 0.29627 -0.12070
v -0.04776 0.29627 -0.12735
v -0.05167 0.00000 -0.11784
v -0.06285 0.00000 -0.12148
v -0.06042 0.29627 -0.12324
v -0.05259 0.29627 -0.12070
v -0.06285 0.00000 -0.12148
v -0.06285 0.00000 -0.13323
v -0.06042 0.29627 -0.13147
v -0.06042 0.29627 -0.12324
v -0.06285 0.00000 -0.13323
v -0.05167 0.00000 -0.13686
v -0.05259 0.29627 -0.13401
v -0.06042 0.29627 -0.13147
v -0.05167 0.00000 -0.13686
v -0.04476 0.00000 -0.12735
v -0.04776 0.29627 -0.12735
v -0.05259 0.29627 -0.13401
v -0.05476 0.00000 -0.12735
v -0.05167 0.00000 -0.11784
v -0.04476 0.00000 -0.12735
v -0.05476 0.29627 -0.12735
v -0.04776 0.29627 -0.12735
v -0.05259 0.29627 -0.12070
v -0.05476 0.00000 -0.12735
v -0.06285 0.00000 -0.12148
v -0.05167 0.00000 -0.11784
v -0.05476 0.29627 -0.12735
v -0.05259 0.29627 -0.12070
v -0.06042 0.29627 -0.12324
v -0.05476 0.00000 -0.12735
v -0.06285 0.00000 -0.13323
v -0.06285 0.00000 -0.12148
v -0.05476 0.29627 -0.12735
v -0.06042 0.29627 -0.12324
v -0.06042 0.29627 -0.13147
v -0.05476 0.00000 -0.12735
v -0.05167 0.00000 -0.13686
v -0.06285 0.00000 -0.13323
v -0.05476 0.29627 -0.12735
v -0.06042 0.29627 -0.13147
v -0.05259 0.29627 -0.13401
v -0.05476 0.00000 -0.12735
v -0.04476 0.00000 -0.12735
v -0.05167 0.00000 -0.13686
v -0.05476 0.29627 -0.12735
v -0.05259 0.29627 -0.13401
v -0.04776 0.29627 -0.12735
v -0.10476 0.21127 -0.12735
v -0.00476 0.21127 -0.12735
v -0.00476 0.31127 -0.12735
v -0.10476 0.31127 -0.12735
v -0.10476 0.31127 -0.12735
v -0.00476 0.31127 -0.12735
v -0.00476 0.21127 -0.12735
v -0.10476 0.21127 -0.12735
v -0.05476 0.21127 -0.17735
v -0.05476 0.21127 -0.07735
v -0.05476 0.31127 -0.07735
v -0.05476 0.31127 -0.17735
v -0.05476 0.31127 -0.17735
v -0.05476 0.31127 -0.07735
v -0.05476 0.21127 -0.07735
v -0.05476 0.21127 -0.17735
v -0.00476 0.21127 -0.12735
v -0.10476 0.21127 -0.12735
v -0.10476 0.31127 -0.12735
v -0.00476 0.31127 -0.12735
v -0.00476 0.31127 -0.12735
v -0.10476 0.31127 -0.12735
v -0.10476 0.21127 -0.12735
v -0.00476 0.21127 -0.12735
v -0.05476 0.21127 -0.07735
v -0.05476 0.21127 -0.17735
v -0.05476 0.31127 -0.17735
v -0.05476 0.31127 -0.07735
v -0.05476 0.31127 -0.07735
v -0.05476 0.31127 -0.17735
v -0.05476 0.21127 -0.17735
v -0.05476 0.21127 -0.07735
v -0.00243 0.02471 -0.12246
v -0.04112 0.02471 -0.07660
v -0.10708 0.18268 -0.13224
v -0.06840 0.18268 -0.17811
v -0.06840 0.18268 -0.17811
v -0.10708 0.18268 -0.13224
v -0.04112 0.02471 -0.07660
v -0.00243 0.02471 -0.12246
v -0.12432 0.00000 0.01281
v -0.13123 0.00000 0.02232
v -0.13216 0.27867 0.01946
v -0.12732 0.27867 0.01281
v -0.13123 0.00000 0.02232
v -0.14241 0.00000 0.01869
v -0.13999 0.27867 0.01692
v -0.13216 0.27867 0.01946
v -0.14241 0.00000 0.01869
v -0.14241 0.00000 0.00693
v -0.13999 0.27867 0.00869
v -0.13999 0.27867 0.01692
v -0.14241 0.00000 0.00693
v -0.13123 0.00000 0.00330
v -0.13216 0.27867 0.00615
v -0.13999 0.27867 0.00869
v -0.13123 0.00000 0.00330
v -0.12432 0.00000 0.01281
v -0.12732 0.27867 0.01281
v -0.13216 0.27867 0.00615
v -0.13432 0.00000 0.01281
v -0.13123 0.00000 0.02232
v -0.12432 0.00000 0.01281
v -0.13432 0.27867 0.01281
v -0.12732 0.27867 0.01281
v -0.13216 0.27867 0.01946
v -0.13432 0.00000 0.01281
v -0.14241 0.00000 0.01869
v -0.13123 0.00000 0.02232
v -0.13432 0.27867 0.01281
v -0.13216 0.27867 0.01946
v -0.13999 0.27867 0.01692
v -0.13432 0.00000 0.01281
v -0.14241 0.00000 0.00693
v -0.14241 0.00000 0.01869
v -0.13432 0.27867 0.01281
v -0.13999 0.27867 0.01692
v -0.13999 0.27867 0.00869
v -0.13432 0.00000 0.01281
v -0.13123 0.00000 0.00330
v -0.14241 0.00000 0.00693
v -0.13432 0.27867 0.01281
v -0.13999 0.27867 0.00869
v -0.13216 0.27867 0.00615
v -0.13432 0.00000 0.01281
v -0.12432 0.00000 0.01281
v -0.13123 0.00000 0.00330
v -0.13432 0.27867 0.01281
v -0.13216 0.27867 0.00615
v -0.12732 0.27867 0.01281
v -0.18432 0.19367 0.01281
v -0.08432 0.19367 0.01281
v -0.08432 0.29367 0.01281
v -0.18432 0.29367 0.01281
v -0.18432 0.29367 0.01281
v -0.08432 0.29367 0.01281
v -0.08432 0.19367 0.01281
v -0.18432 0.19367 0.01281
v -0.13432 0.19367 -0.03719
v -0.13432 0.19367 0.06281
v -0.13432 0.29367 0.06281
v -0.13432 0.29367 -0.03719
v -0.13432 0.29367 -0.03719
v -0.13432 0.29367 0.06281
v -0.13432 0.19367 0.06281
v -0.13432 0.19367 -0.03719
v -0.08432 0.19367 0.01281
v -0.18432 0.19367 0.01281
v -0.18432 0.29367 0.01281
v -0.08432 0.29367 0.01281
v -0.08432 0.29367 0.01281
v -0.18432 0.29367 0.01281
v -0.18432 0.19367 0.01281
v -0.08432 0.19367 0.01281
v -0.13432 0.19367 0.06281
v -0.13432 0.19367 -0.03719
v -0.13432 0.29367 -0.03719
v -0.13432 0.29367 0.06281
v -0.13432 0.29367 0.06281
v -0.13432 0.29367 -0.03719
v -0.13432 0.19367 -0.03719
v -0.13432 0.19367 0.06281
v -0.11055 0.01855 0.05968
v -0.16998 0.01855 0.05141
v -0.15810 0.17652 -0.03406
v -0.09867 0.17652 -0.02580
v -0.09867 0.17652 -0.02580
v -0.15810 0.17652 -0.03406
v -0.16998 0.01855 0.05141
v -0.11055 0.01855 0.05968
v 0.13772 0.00000 0.08663
v 0.13081 0.00000 0.09614
v 0.12989 0.28541 0.09329
v 0.13472 0.28541 0.08663
v 0.13081 0.00000 0.09614
v 0.11963 0.00000 0.09251
v 0.12206 0.28541 0.09074
v 0.12989 0.28541 0.09329
v 0.11963 0.00000 0.09251
v 0.11963 0.00000 0.08075
v 0.12206 0.28541 0.08252
v 0.12206 0.28541 0.09074
v 0.11963 0.00000 0.08075
v 0.13081 0.00000 0.07712
v 0.12989 0.28541 0.07997
v 0.12206 0.28541 0.08252
v 0.13081 0.00000 0.07712
v 0.13772 0.00000 0.08663
v 0.13472 0.28541 0.08663
v 0.12989 0.28541 0.07997
v 0.12772 0.00000 0.08663
v 0.13081 0.00000 0.09614
v 0.13772 0.00000 0.08663
v 0.12772 0.28541 0.08663
v 0.13472 0.28541 0.08663
v 0.12989 0.28541 0.09329
v 0.12772 0.00000 0.08663
v 0.11963 0.00000 0.09251
v 0.13081 0.00000 0.09614
v 0.12772 0.28541 0.08663
v 0.12989 0.28541 0.09329
v 0.12206 0.28541 0.09074
v 0.12772 0.00000 0.08663
v 0.11963 0.00000 0.08075
v 0.11963 0.00000 0.09251
v 0.12772 0.28541 0.08663
v 0.12206 0.28541 0.09074
v 0.12206 0.28541 0.08252
v 0.12772 0.00000 0.08663
v 0.13081 0.00000 0.07712
v 0.11963 0.00000 0.08075
v 0.12772 0.28541 0.08663
v 0.12206 0.28541 0.08252
v 0.12989 0.28541 0.07997
v 0.12772 0.00000 0.08663
v 0.13772 0.00000 0.08663
v 0.13081 0.00000 0.07712
v 0.12772 0.28541 0.08663
v 0.12989 0.28541 0.07997
v 0.13472 0.28541 0.08663
v 0.07772 0.20041 0.08663
v 0.17772 0.20041 0.08663
v 0.17772 0.30041 0.08663
v 0.07772 0.30041 0.08663
v 0.07772 0.30041 0.08663
v 0.17772 0.30041 0.08663
v 0.17772 0.20041 0.08663
v 0.07772 0.20041 0.08663
v 0.12772 0.20041 0.03663
v 0.12772 0.20041 0.13663
v 0.12772 0.30041 0.13663
v 0.12772 0.30041 0.03663
v 0.12772 0.30041 0.03663
v 0.12772 0.30041 0.13663
v 0.12772 0.20041 0.13663
v 0.12772 0.20041 0.03663
v 0.17772 0.20041 0.08663
v 0.07772 0.20041 0.08663
v 0.07772 0.30041 0.08663
v 0.17772 0.30041 0.08663
v 0.17772 0.30041 0.08663
v 0.07772 0.30041 0.08663
v 0.07772 0.20041 0.08663
v 0.17772 0.20041 0.08663
v 0.12772 0.20041 0.13663
v 0.12772 0.20041 0.03663
v 0.12772 0.30041 0.03663
v 0.12772 0.30041 0.13663
v 0.12772 0.30041 0.13663
v 0.12772 0.30041 0.03663
v 0.12772 0.20041 0.03663
v 0.12772 0.20041 0.13663
v 0.15435 0.02091 0.04132
v 0.17947 0.02091 0.09581
v 0.10109 0.17888 0.13194
v 0.07598 0.17888 0.07744
v 0.07598 0.17888 0.07744
v 0.10109 0.17888 0.13194
v 0.17947 0.02091 0.09581
v 0.15435 0.02091 0.04132
vt 0.00000 0.00000
vt 1.00000 0.00000
vt 0.50000 1.00000
vt 0.50000 1.00000
vt 1.00000 0.00000
vt 0.00000 0.00000
vt 0.00000 0.00000
vt 1.00000 0.00000
vt 0.50000 1.00000
vt 0.50000 1.00000
vt 1.00000 0.00000
vt 0.00000 0.00000
vt 0.00000 0.00000
vt 1.00000 0.00000
vt 0.50000 1.00000
vt 0.50000 1.00000
vt 1.00000 0.00000
vt 0.00000 0.00000
vt 0.00000 0.00000
vt 1.00000 0.00000
vt 0.50000 1.00000
vt 0.50000 1.00000
vt 1.00000 0.00000
vt 0.00000 0.00000
vt 0.00000 0.00000
vt 1.00000 0.00000
vt 0.50000 1.00000
vt 0.50000 1.00000
vt 1.00000 0.00000
vt 0.00000 0.00000
vt 0.00000 0.00000
vt 1.00000 0.00000
vt 0.50000 1.00000
vt 0.50000 1.00000
vt 1.00000 0.00000
vt 0.00000 0.00000
vt 0.00000 0.00000
vt 1.00000 0.00000
vt 0.50000 1.00000
vt 0.50000 1.00000
vt 1.00000 0.00000
vt 0.00000 0.00000
vt 0.00000 0.00000
vt 1.00000 0.00000
vt 0.50000 1.00000
vt 0.50000 1.00000
vt 1.00000 0.00000
vt 0.00000 0.00000
vt 0.00000 0.00000
vt 1.00000 0.00000
vt 0.50000 1.00000
vt 0.50000 1.00000
vt 1.00000 0.00000
vt 0.00000 0.00000
vt 0.00000 0.00000
vt 1.00000 0.00000
vt 0.50000 1.00000
vt 0.50000 1.00000
vt 1.00000 0.00000
vt 0.00000 0.00000
vt 0.00000 0.00000
vt 1.00000 0.00000
vt 1.00000 1.00000
vt 0.00000 1.00000
vt 0.00000 0.00000
vt 1.00000 0.00000
vt 1.00000 1.00000
vt 0.00000 1.00000
vt 0.00000 0.00000
vt 1.00000 0.00000
vt 1.00000 1.00000
vt 0.00000 1.00000
vt 0.00000 0.00000
vt 1.00000 0.00000
vt 1.00000 1.00000
vt 0.00000 1.00000
vt 0.00000 0.00000
vt 1.00000 0.00000
vt 1.00000 1.00000
vt 0.00000 1.00000
vt 0.00000 0.00000
vt 1.00000 0.00000
vt 1.00000 1.00000
vt 0.00000 0.00000
vt 1.00000 0.00000
vt 1.00000 1.00000
vt 0.00000 0.00000
vt 1.00000 0.00000
vt 1.00000 1.00000
vt 0.00000 0.00000
vt 1.00000 0.00000
vt 1.00000 1.00000
vt 0.00000 0.00000
vt 1.00000 0.00000
vt 1.00000 1.00000
vt 0.00000 0.00000
vt 1.00000 0.00000
vt 1.00000 1.00000
vt 0.00000 0.00000
vt 1.00000 0.00000
vt 1.00000 1.00000
vt 0.00000 0.00000
vt 1.00000 0.00000
vt 1.00000 1.00000
vt 0.00000 0.00000
vt 1.00000 0.00000
vt 1.00000 1.00000
vt 0.00000 0.00000
vt 1.00000 0.00000
vt 1.00000 1.00000
vt 0.00000 0.00000
vt 1.00000 0.00000
vt 1.00000 1.00000
vt 0.00000 1.00000
vt 0.00000 1.00000
vt 1.00000 1.00000
vt 1.00000 0.00000
vt 0.00000 0.00000
vt 0.00000 0.00000
vt 1.00000 0.00000
vt 1.00000 1.00000
vt 0.00000 1.00000
vt 0.00000 1.00000
vt 1.00000 1.00000
vt 1.00000 0.00000
vt 0.00000 0.00000
vt 0.00000 0.00000
vt 1.00000 0.00000
vt 1.00000 1.00000
vt 0.00000 1.00000
vt 0.00000 1.00000
vt 1.00000 1.00000
vt 1.00000 0.00000
vt 0.00000 0.00000
vt 0.00000 0.00000
vt 1.00000 0.00000
vt 1.00000 1.00000
vt 0.00000 1.00000
vt 0.00000 1.00000
vt 1.00000 1.00000
vt 1.00000 0.00000
vt 0.00000 0.00000
vt 0.00000 0.00000
vt 1.00000 0.00000
vt 1.00000 1.00000
vt 0.00000 1.00000
vt 0.00000 1.00000
vt 1.00000 1.00000
vt 1.00000 0.00000
vt 0.00000 0.00000
vt 0.00000 0.00000
vt 1.00000 0.00000
vt 1.00000 1.00000
vt 0.00000 1.00000
vt 0.00000 0.00000
vt 1.00000 0.00000
vt 1.00000 1.00000
vt 0.00000 1.00000
vt 0.00000 0.00000
vt 1.00000 0.00000
vt 1.00000 1.00000
vt 0.00000 1.00000
vt 0.00000 0.00000
vt 1.00000 0.00000
vt 1.00000 1.00000
vt 0.00000 1.00000
vt 0.00000 0.00000
vt 1.00000 0.00000
vt 1.00000 1.00000
vt 0.00000 1.00000
vt 0.00000 0.00000
vt 1.00000 0.00000
vt 1.00000 1.00000
vt 0.00000 0.00000
vt 1.00000 0.00000
vt 1.00000 1.00000
vt 0.00000 0.00000
vt 1.00000 0.00000
vt 1.00000 1.00000
vt 0.00000 0.00000
vt 1.00000 0.00000
vt 1.00000 1.00000
vt 0.00000 0.00000
vt 1.00000 0.00000
vt 1.00000 1.00000
vt 0.00000 0.00000
vt 1.00000 0.00000
vt 1.00000 1.00000
vt 0.00000 0.00000
vt 1.00000 0.00000
vt 1.00000 1.00000
vt 0.00000 0.00000
vt 1.00000 0.00000
vt 1.00000 1.00000
vt 0.00000 0.00000
vt 1.00000 0.00000
vt 1.00000 1.00000
vt 0.00000 0.00000
vt 1.00000 0.00000
vt 1.00000 1.00000
vt 0.00000 0.00000
vt 1.00000 0.00000
vt 1.00000 1.00000
vt 0.00000 1.00000
vt 0.00000 1.00000
vt 1.00000 1.00000
vt 1.00000 0.00000
vt 0.00000 0.00000
vt 0.00000 0.00000
vt 1.00000 0.00000
vt 1.00000 1.00000
vt 0.00000 1.00000
vt 0.00000 1.00000
vt 1.00000 1.00000
vt 1.00000 0.00000
vt 0.00000 0.00000
vt 0.00000 0.00000
vt 1.00000 0.00000
vt 1.00000 1.00000
vt 0.00000 1.00000
vt 0.00000 1.00000
vt 1.00000 1.00000
vt 1.00000 0.00000
vt 0.00000 0.00000
vt 0.00000 0.00000
vt 1.00000 0.00000
vt 1.00000 1.00000
vt 0.00000 1.00000
vt 0.00000 1.00000
vt 1.00000 1.00000
vt 1.00000 0.00000
vt 0.00000 0.00000
vt 0.00000 0.00000
vt 1.00000 0.00000
vt 1.00000 1.00000
vt 0.00000 1.00000
vt 0.00000 1.00000
vt 1.00000 1.00000
vt 1.00000 0.00000
vt 0.00000 0.00000
vt 0.00000 0.00000
vt 1.00000 0.00000
vt 1.00000 1.00000
vt 0.00000 1.00000
vt 0.00000 0.00000
vt 1.00000 0.00000
vt 1.00000 1.00000
vt 0.00000 1.00000
vt 0.00000 0.00000
vt 1.00000 0.00000
vt 1.00000 1.00000
vt 0.00000 1.00000
vt 0.00000 0.00000
vt 1.00000 0.00000
vt 1.00000 1.00000
vt 0.00000 1.00000
vt 0.00000 0.00000
vt 1.00000 0.00000
vt 1.00000 1.00000
vt 0.00000 1.00000
vt 0.00000 0.00000
vt 1.00000 0.00000
vt 1.00000 1.00000
vt 0.00000 0.00000
vt 1.00000 0.00000
vt 1.00000 1.00000
vt 0.00000 0.00000
vt 1.00000 0.00000
vt 1.00000 1.00000
vt 0.00000 0.00000
vt 1.00000 0.00000
vt 1.00000 1.00000
vt 0.00000 0.00000
vt 1.00000 0.00000
vt 1.00000 1.00000
vt 0.00000 0.00000
vt 1.00000 0.00000
vt 1.00000 1.00000
vt 0.00000 0.00000
vt 1.00000 0.00000
vt 1.00000 1.00000
vt 0.00000 0.00000
vt 1.00000 0.00000
vt 1.00000 1.00000
vt 0.00000 0.00000
vt 1.00000 0.00000
vt 1.00000 1.00000
vt 0.00000 0.00000
vt 1.00000 0.00000
vt 1.00000 1.00000
vt 0.00000 0.00000
vt 1.00000 0.00000
vt 1.00000 1.00000
vt 0.00000 1.00000
vt 0.00000 1.00000
vt 1.00000 1.00000
vt 1.00000 0.00000
vt 0.00000 0.00000
vt 0.00000 0.00000
vt 1.00000 0.00000
vt 1.00000 1.00000
vt 0.00000 1.00000
vt 0.00000 1.00000
vt 1.00000 1.00000
vt 1.00000 0.00000
vt 0.00000 0.00000
vt 0.00000 0.00000
vt 1.00000 0.00000
vt 1.00000 1.00000
vt 0.00000 1.00000
vt 0.00000 1.00000
vt 1.00000 1.00000
vt 1.00000 0.00000
vt 0.00000 0.00000
vt 0.00000 0.00000
vt 1.00000 0.00000
vt 1.00000 1.00000
vt 0.00000 1.00000
vt 0.00000 1.00000
vt 1.00000 1.00000
vt 1.00000 0.00000
vt 0.00000 0.00000
vt 0.00000 0.00000
vt 1.00000 0.00000
vt 1.00000 1.00000
vt 0.00000 1.00000
vt 0.00000 1.00000
vt 1.00000 1.00000
vt 1.00000 0.00000
vt 0.00000 0.00000
vt 0.00000 0.00000
vt 1.00000 0.00000
vt 1.00000 1.00000
vt 0.00000 1.00000
vt 0.00000 0.00000
vt 1.00000 0.00000
vt 1.00000 1.00000
vt 0.00000 1.00000
vt 0.00000 0.00000
vt 1.00000 0.00000
vt 1.00000 1.00000
vt 0.00000 1.00000
vt 0.00000 0.00000
vt 1.00000 0.00000
vt 1.00000 1.00000
vt 0.00000 1.00000
vt 0.00000 0.00000
vt 1.00000 0.00000
vt 1.00000 1.00000
vt 0.00000 1.00000
vt 0.00000 0.00000
vt 1.00000 0.00000
vt 1.00000 1.00000
vt 0.00000 0.00000
vt 1.00000 0.00000
vt 1.00000 1.00000
vt 0.00000 0.00000
vt 1.00000 0.00000
vt 1.00000 1.00000
vt 0.00000 0.00000
vt 1.00000 0.00000
vt 1.00000 1.00000
vt 0.00000 0.00000
vt 1.00000 0.00000
vt 1.00000 1.00000
vt 0.00000 0.00000
vt 1.00000 0.00000
vt 1.00000 1.00000
vt 0.00000 0.00000
vt 1.00000 0.00000
vt 1.00000 1.00000
vt 0.00000 0.00000
vt 1.00000 0.00000
vt 1.00000 1.00000
vt 0.00000 0.00000
vt 1.00000 0.00000
vt 1.00000 1.00000
vt 0.00000 0.00000
vt 1.00000 0.00000
vt 1.00000 1.00000
vt 0.00000 0.00000
vt 1.00000 0.00000
vt 1.00000 1.00000
vt 0.00000 1.00000
vt 0.00000 1.00000
vt 1.00000 1.00000
vt 1.00000 0.00000
vt 0.00000 0.00000
vt 0.00000 0.00000
vt 1.00000 0.00000
vt 1.00000 1.00000
vt 0.00000 1.00000
vt 0.00000 1.00000
vt 1.00000 1.00000
vt 1.00000 0.00000
vt 0.00000 0.00000
vt 0.00000 0.00000
vt 1.00000 0.00000
vt 1.00000 1.00000
vt 0.00000 1.00000
vt 0.00000 1.00000
vt 1.00000 1.00000
vt 1.00000 0.00000
vt 0.00000 0.00000
vt 0.00000 0.00000
vt 1.00000 0.00000
vt 1.00000 1.00000
vt 0.00000 1.00000
vt 0.00000 1.00000
vt 1.00000 1.00000
vt 1.00000 0.00000
vt 0.00000 0.00000
vt 0.00000 0.00000
vt 1.00000 0.00000
vt 1.00000 1.00000
vt 0.00000 1.00000
vt 0.00000 1.00000
vt 1.00000 1.00000
vt 1.00000 0.00000
vt 0.00000 0.00000
vt 0.00000 0.00000
vt 1.00000 0.00000
vt 1.00000 1.00000
vt 0.00000 1.00000
vt 0.00000 0.00000
vt 1.00000 0.00000
vt 1.00000 1.00000
vt 0.00000 1.00000
vt 0.00000 0.00000
vt 1.00000 0.00000
vt 1.00000 1.00000
vt 0.00000 1.00000
vt 0.00000 0.00000
vt 1.00000 0.00000
vt 1.00000 1.00000
vt 0.00000 1.00000
vt 0.00000 0.00000
vt 1.00000 0.00000
vt 1.00000 1.00000
vt 0.00000 1.00000
vt 0.00000 0.00000
vt 1.00000 0.00000
vt 1.00000 1.00000
vt 0.00000 0.00000
vt 1.00000 0.00000
vt 1.00000 1.00000
vt 0.00000 0.00000
vt 1.00000 0.00000
vt 1.00000 1.00000
vt 0.00000 0.00000
vt 1.00000 0.00000
vt 1.00000 1.00000
vt 0.00000 0.00000
vt 1.00000 0.00000
vt 1.00000 1.00000
vt 0.00000 0.00000
vt 1.00000 0.00000
vt 1.00000 1.00000
vt 0.00000 0.00000
vt 1.00000 0.00000
vt 1.00000 1.00000
vt 0.00000 0.00000
vt 1.00000 0.00000
vt 1.00000 1.00000
vt 0.00000 0.00000
vt 1.00000 0.00000
vt 1.00000 1.00000
vt 0.00000 0.00000
vt 1.00000 0.00000
vt 1.00000 1.00000
vt 0.00000 0.00000
vt 1.00000 0.00000
vt 1.00000 1.00000
vt 0.00000 1.00000
vt 0.00000 1.00000
vt 1.00000 1.00000
vt 1.00000 0.00000
vt 0.00000 0.00000
vt 0.00000 0.00000
vt 1.00000 0.00000
vt 1.00000 1.00000
vt 0.00000 1.00000
vt 0.00000 1.00000
vt 1.00000 1.00000
vt 1.00000 0.00000
vt 0.00000 0.00000
vt 0.00000 0.00000
vt 1.00000 0.00000
vt 1.00000 1.00000
vt 0.00000 1.00000
vt 0.00000 1.00000
vt 1.00000 1.00000
vt 1.00000 0.00000
vt 0.00000 0.00000
vt 0.00000 0.00000
vt 1.00000 0.00000
vt 1.00000 1.00000
vt 0.00000 1.00000
vt 0.00000 1.00000
vt 1.00000 1.00000
vt 1.00000 0.00000
vt 0.00000 0.00000
vt 0.00000 0.00000
vt 1.00000 0.00000
vt 1.00000 1.00000
vt 0.00000 1.00000
vt 0.00000 1.00000
vt 1.00000 1.00000
vt 1.00000 0.00000
vt 0.00000 0.00000
vn -0.99121 0.00000 -0.13228
vn 0.99121 -0.00000 0.13228
vn 0.91583 -0.00000 -0.40157
vn -0.91583 0.00000 0.40157
vn 0.58032 -0.00000 0.81439
vn -0.58032 0.00000 -0.81439
vn -0.80792 -0.00000 0.58929
vn 0.80792 0.00000 -0.58929
vn -0.69828 0.00000 0.71582
vn 0.69828 -0.00000 -0.71582
vn -0.56895 0.00000 -0.82238
vn 0.56895 -0.00000 0.82238
vn 0.92239 -0.00000 -0.38626
vn -0.92239 0.00000 0.38626
vn -0.56038 0.00000 0.82824
vn 0.56038 -0.00000 -0.82824
vn -0.98009 0.00000 0.19855
vn 0.98009 -0.00000 -0.19855
vn -0.53336 0.00000 0.84589
vn 0.53336 -0.00000 -0.84589
vn -0.80900 -0.00728 -0.58777
vn 0.30901 -0.00728 -0.95103
vn 0.99997 -0.00728 0.00000
vn 0.30901 -0.00728 0.95103
vn -0.80900 -0.00728 0.58777
vn 0.00000 1.00000 0.00000
vn 0.00000 -1.00000 0.00000
vn 0.00000 1.00000 -0.00000
vn 0.00000 -1.00000 0.00000
vn 0.00000 1.00000 0.00000
vn -0.00000 -1.00000 0.00000
vn 0.00000 1.00000 0.00000
vn 0.00000 -1.00000 -0.00000
vn 0.00000 1.00000 0.00000
vn 0.00000 -1.00000 0.00000
vn 0.00000 0.00000 1.00000
vn -0.00000 -0.00000 -1.00000
vn -1.00000 0.00000 0.00000
vn 1.00000 -0.00000 -0.00000
vn -0.00000 0.00000 -1.00000
vn 0.00000 -0.00000 1.00000
vn 1.00000 0.00000 -0.00000
vn -1.00000 -0.00000 0.00000
vn -0.54581 -0.47943 0.68720
vn 0.54581 0.47943 -0.68720
vn -0.80897 -0.01120 -0.58775
vn 0.30900 -0.01120 -0.95100
vn 0.99994 -0.01120 0.00000
vn 0.30900 -0.01120 0.95100
vn -0.80897 -0.01120 0.58775
vn 0.00000 1.00000 0.00000
vn 0.00000 -1.00000 0.00000
vn 0.00000 1.00000 -0.00000
vn 0.00000 -1.00000 0.00000
vn 0.00000 1.00000 0.00000
vn -0.00000 -1.00000 0.00000
vn 0.00000 1.00000 0.00000
vn 0.00000 -1.00000 -0.00000
vn 0.00000 1.00000 0.00000
vn 0.00000 -1.00000 0.00000
vn 0.00000 0.00000 1.00000
vn -0.00000 -0.00000 -1.00000
vn -1.00000 0.00000 0.00000
vn 1.00000 -0.00000 -0.00000
vn -0.00000 0.00000 -1.00000
vn 0.00000 -0.00000 1.00000
vn 1.00000 0.00000 -0.00000
vn -1.00000 -0.00000 0.00000
vn 0.19014 -0.47943 0.85674
vn -0.19014 0.47943 -0.85674
vn -0.80899 -0.00819 -0.58777
vn 0.30901 -0.00819 -0.95102
vn 0.99997 -0.00819 -0.00000
vn 0.30901 -0.00819 0.95102
vn -0.80899 -0.00819 0.58777
vn 0.00000 1.00000 0.00000
vn 0.00000 -1.00000 0.00000
vn 0.00000 1.00000 -0.00000
vn 0.00000 -1.00000 0.00000
vn 0.00000 1.00000 0.00000
vn -0.00000 -1.00000 0.00000
vn 0.00000 1.00000 0.00000
vn 0.00000 -1.00000 -0.00000
vn -0.00000 1.00000 0.00000
vn 0.00000 -1.00000 0.00000
vn 0.00000 0.00000 1.00000
vn -0.00000 -0.00000 -1.00000
vn -1.00000 0.00000 0.00000
vn 1.00000 -0.00000 -0.00000
vn 0.00000 0.00000 -1.00000
vn -0.00000 -0.00000 1.00000
vn 1.00000 0.00000 -0.00000
vn -1.00000 -0.00000 0.00000
vn -0.67081 -0.47943 -0.56584
vn 0.67081 0.47943 0.56584
vn -0.80899 -0.00871 -0.58776
vn 0.30901 -0.00871 -0.95102
vn 0.99996 -0.00871 0.00000
vn 0.30901 -0.00871 0.95102
vn -0.80899 -0.00871 0.58776
vn 0.00000 1.00000 0.00000
vn 0.00000 -1.00000 0.00000
vn 0.00000 1.00000 -0.00000
vn 0.00000 -1.00000 0.00000
vn 0.00000 1.00000 0.00000
vn -0.00000 -1.00000 0.00000
vn 0.00000 1.00000 0.00000
vn 0.00000 -1.00000 -0.00000
vn 0.00000 1.00000 0.00000
vn 0.00000 -1.00000 0.00000
vn 0.00000 0.00000 1.00000
vn -0.00000 -0.00000 -1.00000
vn -1.00000 0.00000 0.00000
vn 1.00000 -0.00000 -0.00000
vn -0.00000 0.00000 -1.00000
vn 0.00000 -0.00000 1.00000
vn 1.00000 0.00000 0.00000
vn -1.00000 -0.00000 -0.00000
vn 0.12083 -0.47943 -0.86922
vn -0.12083 0.47943 0.86922
vn -0.80899 -0.00850 -0.58776
vn 0.30901 -0.00850 -0.95102
vn 0.99996 -0.00850 0.00000
vn 0.30901 -0.00850 0.95102
vn -0.80899 -0.00850 0.58776
vn 0.00000 1.00000 0.00000
vn 0.00000 -1.00000 0.00000
vn 0.00000 1.00000 -0.00000
vn 0.00000 -1.00000 0.00000
vn 0.00000 1.00000 0.00000
vn -0.00000 -1.00000 0.00000
vn 0.00000 1.00000 0.00000
vn 0.00000 -1.00000 -0.00000
vn -0.00000 1.00000 0.00000
vn 0.00000 -1.00000 0.00000
vn 0.00000 0.00000 1.00000
vn -0.00000 -0.00000 -1.00000
vn -1.00000 0.00000 0.00000
vn 1.00000 -0.00000 -0.00000
vn 0.00000 0.00000 -1.00000
vn -0.00000 -0.00000 1.00000
vn 1.00000 0.00000 0.00000
vn -1.00000 -0.00000 -0.00000
vn -0.79700 -0.47943 0.36733
vn 0.79700 0.47943 -0.36733
usemtl green_leaf
f 1/1/1 2/2/1 3/3/1
f 4/4/2 5/5/2 6/6/2
f 7/7/3 8/8/3 9/9/3
f 10/10/4 11/11/4 12/12/4
f 13/13/5 14/14/5 15/15/5
f 16/16/6 17/17/6 18/18/6
f 19/19/7 20/20/7 21/21/7
f 22/22/8 23/23/8 24/24/8
f 25/25/9 26/26/9 27/27/9
f 28/28/10 29/29/10 30/30/10
f 31/31/11 32/32/11 33/33/11
f 34/34/12 35/35/12 36/36/12
f 37/37/13 38/38/13 39/39/13
f 40/40/14 41/41/14 42/42/14
f 43/43/15 44/44/15 45/45/15
f 46/46/16 47/47/16 48/48/16
f 49/49/17 50/50/17 51/51/17
f 52/52/18 53/53/18 54/54/18
f 55/55/19 56/56/19 57/57/19
f 58/58/20 59/59/20 60/60/20
f 61/61/21 62/62/21 63/63/21 64/64/21
f 65/65/22 66/66/22 67/67/22 68/68/22
f 69/69/23 70/70/23 71/71/23 72/72/23
f 73/73/24 74/74/24 75/75/24 76/76/24
f 77/77/25 78/78/25 79/79/25 80/80/25
f 81/81/26 82/82/26 83/83/26
f 84/84/27 85/85/27 86/86/27
f 87/87/28 88/88/28 89/89/28
f 90/90/29 91/91/29 92/92/29
f 93/93/30 94/94/30 95/95/30
f 96/96/31 97/97/31 98/98/31
f 99/99/32 100/100/32 101/101/32
f 102/102/33 103/103/33 104/104/33
f 105/105/34 106/106/34 107/107/34
f 108/108/35 109/109/35 110/110/35
usemtl flower_yellow
f 111/111/36 112/112/36 113/113/36 114/114/36
f 115/115/37 116/116/37 117/117/37 118/118/37
f 119/119/38 120/120/38 121/121/38 122/122/38
f 123/123/39 124/124/39 125/125/39 126/126/39
f 127/127/40 128/128/40 129/129/40 130/130/40
f 131/131/41 132/132/41 133/133/41 134/134/41
f 135/135/42 136/136/42 137/137/42 138/138/42
f 139/139/43 140/140/43 141/141/43 142/142/43
usemtl green_leaf
f 143/143/44 144/144/44 145/145/44 146/146/44
f 147/147/45 148/148/45 149/149/45 150/150/45
f 151/151/46 152/152/46 153/153/46 154/154/46
f 155/155/47 156/156/47 157/157/47 158/158/47
f 159/159/48 160/160/48 161/161/48 162/162/48
f 163/163/49 164/164/49 165/165/49 166/166/49
f 167/167/50 168/168/50 169/169/50 170/170/50
f 171/171/51 172/172/51 173/173/51
f 174/174/52 175/175/52 176/176/52
f 177/177/53 178/178/53 179/179/53
f 180/180/54 181/181/54 182/182/54
f 183/183/55 184/184/55 185/185/55
f 186/186/56 187/187/56 188/188/56
f 189/189/57 190/190/57 191/191/57
f 192/192/58 193/193/58 194/194/58
f 195/195/59 196/196/59 197/197/59
f 198/198/60 199/199/60 200/200/60
usemtl flower_yellow
f 201/201/61 202/202/61 203/203/61 204/204/61
f 205/205/62 206/206/62 207/207/62 208/208/62
f 209/209/63 210/210/63 211/211/63 212/212/63
f 213/213/64 214/214/64 215/215/64 216/216/64
f 217/217/65 218/218/65 219/219/65 220/220/65
f 221/221/66 222/222/66 223/223/66 224/224/66
f 225/225/67 226/226/67 227/227/67 228/228/67
f 229/229/68 230/230/68 231/231/68 232/232/68
usemtl green_leaf
f 233/233/69 234/234/69 235/235/69 236/236/69
f 237/237/70 238/238/70 239/239/70 240/240/70
f 241/241/71 242/242/71 243/243/71 244/244/71
f 245/245/72 246/246/72 247/247/72 248/248/72
f 249/249/73 250/250/73 251/251/73 252/252/73
f 253/253/74 254/254/74 255/255/74 256/256/74
f 257/257/75 258/258/75 259/259/75 260/260/75
f 261/261/76 262/262/76 263/263/76
f 264/264/77 265/265/77 266/266/77
f 267/267/78 268/268/78 269/269/78
f 270/270/79 271/271/79 272/272/79
f 273/273/80 274/274/80 275/275/80
f 276/276/81 277/277/81 278/278/81
f 279/279/82 280/280/82 281/281/82
f 282/282/83 283/283/83 284/284/83
f 285/285/84 286/286/84 287/287/84
f 288/288/85 289/289/85 290/290/85
usemtl flower_yellow
f 291/291/86 292/292/86 293/293/86 294/294/86
f 295/295/87 296/296/87 297/297/87 298/298/87
f 299/299/88 300/300/88 301/301/88 302/302/88
f 303/303/89 304/304/89 305/305/89 306/306/89
f 307/307/90 308/308/90 309/309/90 310/310/90
f 311/311/91 312/312/91 313/313/91 314/314/91
f 315/315/92 316/316/92 317/317/92 318/318/92
f 319/319/93 320/320/93 321/321/93 322/322/93
usemtl green_leaf
f 323/323/94 324/324/94 325/325/94 326/326/94
f 327/327/95 328/328/95 329/329/95 330/330/95
f 331/331/96 332/332/96 333/333/96 334/334/96
f 335/335/97 336/336/97 337/337/97 338/338/97
f 339/339/98 340/340/98 341/341/98 342/342/98
f 343/343/99 344/344/99 345/345/99 346/346/99
f 347/347/100 348/348/100 349/349/100 350/350/100
f 351/351/101 352/352/101 353/353/101
f 354/354/102 355/355/102 356/356/102
f 357/357/103 358/358/103 359/359/103
f 360/360/104 361/361/104 362/362/104
f 363/363/105 364/364/105 365/365/105
f 366/366/106 367/367/106 368/368/106
f 369/369/107 370/370/107 371/371/107
f 372/372/108 373/373/108 374/374/108
f 375/375/109 376/376/109 377/377/109
f 378/378/110 379/379/110 380/380/110
usemtl flower_yellow
f 381/381/111 382/382/111 383/383/111 384/384/111
f 385/385/112 386/386/112 387/387/112 388/388/112
f 389/389/113 390/390/113 391/391/113 392/392/113
f 393/393/114 394/394/114 395/395/114 396/396/114
f 397/397/115 398/398/115 399/399/115 400/400/115
f 401/401/116 402/402/116 403/403/116 404/404/116
f 405/405/117 406/406/117 407/407/117 408/408/117
f 409/409/118 410/410/118 411/411/118 412/412/118
usemtl green_leaf
f 413/413/119 414/414/119 415/415/119 416/416/119
f 417/417/120 418/418/120 419/419/120 420/420/120
f 421/421/121 422/422/121 423/423/121 424/424/121
f 425/425/122 426/426/122 427/427/122 428/428/122
f 429/429/123 430/430/123 431/431/123 432/432/123
f 433/433/124 434/434/124 435/435/124 436/436/124
f 437/437/125 438/438/125 439/439/125 440/440/125
f 441/441/126 442/442/126 443/443/126
f 444/444/127 445/445/127 446/446/127
f 447/447/128 448/448/128 449/449/128
f 450/450/129 451/451/129 452/452/129
f 453/453/130 454/454/130 455/455/130
f 456/456/131 457/457/131 458/458/131
f 459/459/132 460/460/132 461/461/132
f 462/462/133 463/463/133 464/464/133
f 465/465/134 466/466/134 467/467/134
f 468/468/135 469/469/135 470/470/135
usemtl flower_yellow
f 471/471/136 472/472/136 473/473/136 474/474/136
f 475/475/137 476/476/137 477/477/137 478/478/137
f 479/479/138 480/480/138 481/481/138 482/482/138
f 483/483/139 484/484/139 485/485/139 486/486/139
f 487/487/140 488/488/140 489/489/140 490/490/140
f 491/491/141 492/492/141 493/493/141 494/494/141
f 495/495/142 496/496/142 497/497/142 498/498/142
f 499/499/143 500/500/143 501/501/143 502/502/143
usemtl green_leaf
f 503/503/144 504/504/144 505/505/144 506/506/144
f 507/507/145 508/508/145 509/509/145 510/510/145