# grass_green_tuft_a
mtllib nomad_vegetation.mtl
o grass_green_tuft_a
v 0.19672 0.00000 -0.05761
v 0.21059 0.00000 -0.08091
v 0.22703 0.21018 -0.10850
v 0.22703 0.21018 -0.10850
v 0.21059 0.00000 -0.08091
v 0.19672 0.00000 -0.05761
v -0.04679 0.00000 0.17797
v -0.08184 0.00000 0.15835
v -0.03865 0.30907 0.18253
v -0.03865 0.30907 0.18253
v -0.08184 0.00000 0.15835
v -0.04679 0.00000 0.17797
v -0.13694 0.00000 0.09733
v -0.08957 0.00000 0.08174
v -0.09355 0.33014 0.08305
v -0.09355 0.33014 0.08305
v -0.08957 0.00000 0.08174
v -0.13694 0.00000 0.09733
v -0.00425 0.00000 0.14296
v -0.02931 0.00000 0.14858
v -0.00839 0.20647 0.14389
v -0.00839 0.20647 0.14389
v -0.02931 0.00000 0.14858
v -0.00425 0.00000 0.14296
v 0.10376 0.00000 -0.10470
v 0.10716 0.00000 -0.06583
v 0.10138 0.29464 -0.13199
v 0.10138 0.29464 -0.13199
v 0.10716 0.00000 -0.06583
v 0.10376 0.00000 -0.10470
v 0.09337 0.00000 0.11720
v 0.07054 0.00000 0.07276
v 0.09400 0.29184 0.11843
v 0.09400 0.29184 0.11843
v 0.07054 0.00000 0.07276
v 0.09337 0.00000 0.11720
v 0.05830 0.00000 -0.17530
v 0.06215 0.00000 -0.22281
v 0.06448 0.33219 -0.25155
v 0.06448 0.33219 -0.25155
v 0.06215 0.00000 -0.22281
v 0.05830 0.00000 -0.17530
v 0.12956 0.00000 -0.00109
v 0.13029 0.00000 -0.03011
v 0.13100 0.37314 -0.05856
v 0.13100 0.37314 -0.05856
v 0.13029 0.00000 -0.03011
v 0.12956 0.00000 -0.00109
v -0.12267 0.00000 -0.02820
v -0.17079 0.00000 -0.02846
v -0.20483 0.28820 -0.02864
v -0.20483 0.28820 -0.02864
v -0.17079 0.00000 -0.02846
v -0.12267 0.00000 -0.02820
v 0.11363 0.00000 -0.08033
v 0.08036 0.00000 -0.09541
v 0.03356 0.36195 -0.11661
v 0.03356 0.36195 -0.11661
v 0.08036 0.00000 -0.09541
v 0.11363 0.00000 -0.08033
v -0.18134 0.00000 0.03146
v -0.19166 0.00000 -0.00000
v -0.17765 0.23993 0.04273
v -0.17765 0.23993 0.04273
v -0.19166 0.00000 -0.00000
v -0.18134 0.00000 0.03146
v -0.03962 0.00000 0.21260
v -0.00805 0.00000 0.20394
v 0.01648 0.36405 0.19720
v 0.01648 0.36405 0.19720
v -0.00805 0.00000 0.20394
v -0.03962 0.00000 0.21260
v -0.14773 0.00000 -0.03575
v -0.16277 0.00000 0.00098
v -0.14654 0.31725 -0.03865
v -0.14654 0.31725 -0.03865
v -0.16277 0.00000 0.00098
v -0.14773 0.00000 -0.03575
v 0.13837 0.00000 -0.05113
v 0.14988 0.00000 -0.07543
v 0.16312 0.31219 -0.10338
v 0.16312 0.31219 -0.10338
v 0.14988 0.00000 -0.07543
v 0.13837 0.00000 -0.05113
v 0.08302 0.00000 0.20640
v 0.06785 0.00000 0.18470
v 0.08374 0.33406 0.20743
v 0.08374 0.33406 0.20743
v 0.06785 0.00000 0.18470
v 0.08302 0.00000 0.20640
v 0.06272 0.00000 -0.05871
v 0.08585 0.00000 -0.08894
v 0.06324 0.21913 -0.05939
v 0.06324 0.21913 -0.05939
v 0.08585 0.00000 -0.08894
v 0.06272 0.00000 -0.05871
v 0.05279 0.00000 -0.07309
v 0.09486 0.00000 -0.06455
v 0.07099 0.27613 -0.06940
v 0.07099 0.27613 -0.06940
v 0.09486 0.00000 -0.06455
v 0.05279 0.00000 -0.07309
v -0.06667 0.00000 -0.08455
v -0.01842 0.00000 -0.07680
v 0.00171 0.21492 -0.07357
v 0.00171 0.21492 -0.07357
v -0.01842 0.00000 -0.07680
v -0.06667 0.00000 -0.08455
v -0.00699 0.00000 0.01874
v 0.00471 0.00000 0.04520
v 0.01499 0.34640 0.06846
v 0.01499 0.34640 0.06846
v 0.00471 0.00000 0.04520
v -0.00699 0.00000 0.01874
v 0.11759 0.00000 0.03334
v 0.14563 0.00000 0.03985
v 0.12650 0.37820 0.03541
v 0.12650 0.37820 0.03541
v 0.14563 0.00000 0.03985
v 0.11759 0.00000 0.03334
vt 0.00000 0.00000
vt 1.00000 0.00000
vt 0.50000 1.00000
vt 0.50000 1.00000
vt 1.00000 0.00000
vt 0.00000 0.00000
vt 0.00000 0.00000
vt 1.00000 0.00000
vt 0.50000 1.00000
vt 0.50000 1.00000
vt 1.00000 0.00000
vt 0.00000 0.00000
vt 0.00000 0.00000
vt 1.00000 0.00000
vt 0.50000 1.00000
vt 0.50000 1.00000
vt 1.00000 0.00000
vt 0.00000 0.00000
vt 0.00000 0.00000
vt 1.00000 0.00000
vt 0.50000 1.00000
vt 0.50000 1.00000
vt 1.00000 0.00000
vt 0.00000 0.00000
vt 0.00000 0.00000
vt 1.00000 0.00000
vt 0.50000 1.00000
vt 0.50000 1.00000
vt 1.00000 0.00000
vt 0.00000 0.00000
vt 0.00000 0.00000
vt 1.00000 0.00000
vt 0.50000 1.00000
vt 0.50000 1.00000
vt 1.00000 0.00000
vt 0.00000 0.00000
vt 0.00000 0.00000
vt 1.00000 0.00000
vt 0.50000 1.00000
vt 0.50000 1.00000
vt 1.00000 0.00000
vt 0.00000 0.00000
vt 0.00000 0.00000
vt 1.00000 0.00000
vt 0.50000 1.00000
vt 0.50000 1.00000
vt 1.00000 0.00000
vt 0.00000 0.00000
vt 0.00000 0.00000
vt 1.00000 0.00000
vt 0.50000 1.00000
vt 0.50000 1.00000
vt 1.00000 0.00000
vt 0.00000 0.00000
vt 0.00000 0.00000
vt 1.00000 0.00000
vt 0.50000 1.00000
vt 0.50000 1.00000
vt 1.00000 0.00000
vt 0.00000 0.00000
vt 0.00000 0.00000
vt 1.00000 0.00000
vt 0.50000 1.00000
vt 0.50000 1.00000
vt 1.00000 0.00000
vt 0.00000 0.00000
vt 0.00000 0.00000
vt 1.00000 0.00000
vt 0.50000 1.00000
vt 0.50000 1.00000
vt 1.00000 0.00000
vt 0.00000 0.00000
vt 0.00000 0.00000
vt 1.00000 0.00000
vt 0.50000 1.00000
vt 0.50000 1.00000
vt 1.00000 0.00000
vt 0.00000 0.00000
vt 0.00000 0.00000
vt 1.00000 0.00000
vt 0.50000 1.00000
vt 0.50000 1.00000
vt 1.00000 0.00000
vt 0.00000 0.00000
vt 0.00000 0.00000
vt 1.00000 0.00000
vt 0.50000 1.00000
vt 0.50000 1.00000
vt 1.00000 0.00000
vt 0.00000 0.00000
vt 0.00000 0.00000
vt 1.00000 0.00000
vt 0.50000 1.00000
vt 0.50000 1.00000
vt 1.00000 0.00000
vt 0.00000 0.00000
vt 0.00000 0.00000
vt 1.00000 0.00000
vt 0.50000 1.00000
vt 0.50000 1.00000
vt 1.00000 0.00000
vt 0.00000 0.00000
vt 0.00000 0.00000
vt 1.00000 0.00000
vt 0.50000 1.00000
vt 0.50000 1.00000
vt 1.00000 0.00000
vt 0.00000 0.00000
vt 0.00000 0.00000
vt 1.00000 0.00000
vt 0.50000 1.00000
vt 0.50000 1.00000
vt 1.00000 0.00000
vt 0.00000 0.00000
vt 0.00000 0.00000
vt 1.00000 0.00000
vt 0.50000 1.00000
vt 0.50000 1.00000
vt 1.00000 0.00000
vt 0.00000 0.00000
vn 0.85914 0.00000 0.51174
vn -0.85914 -0.00000 -0.51174
vn 0.48837 0.00000 -0.87264
vn -0.48837 -0.00000 0.87264
vn 0.31263 0.00000 0.94988
vn -0.31263 -0.00000 -0.94988
vn -0.21879 -0.00000 -0.97577
vn 0.21879 0.00000 0.97577
vn -0.99620 -0.00000 0.08708
vn 0.99620 0.00000 -0.08708
vn 0.88952 0.00000 -0.45690
vn -0.88952 -0.00000 0.45690
vn 0.99672 0.00000 0.08087
vn -0.99672 -0.00000 -0.08087
vn 0.99968 -0.00000 0.02516
vn -0.99968 0.00000 -0.02516
vn 0.00528 -0.00000 -0.99999
vn -0.00528 0.00000 0.99999
vn 0.41269 0.00000 -0.91087
vn -0.41269 -0.00000 0.91087
vn 0.95022 -0.00000 -0.31158
vn -0.95022 0.00000 0.31158
vn 0.26471 -0.00000 0.96433
vn -0.26471 0.00000 -0.96433
vn -0.92545 -0.00000 -0.37887
vn 0.92545 0.00000 0.37887
vn 0.90375 0.00000 0.42805
vn -0.90375 -0.00000 -0.42805
vn 0.81963 0.00000 -0.57290
vn -0.81963 -0.00000 0.57290
vn 0.79421 -0.00000 0.60765
vn -0.79421 0.00000 -0.60765
vn -0.19893 0.00000 0.98001
vn 0.19893 -0.00000 -0.98001
vn -0.15857 0.00000 0.98735
vn 0.15857 -0.00000 -0.98735
vn -0.91458 0.00000 0.40441
vn 0.91458 -0.00000 -0.40441
vn -0.22592 -0.00000 0.97415
vn 0.22592 0.00000 -0.97415
usemtl green_leaf
f 1/1/1 2/2/1 3/3/1
f 4/4/2 5/5/2 6/6/2
f 7/7/3 8/8/3 9/9/3
f 10/10/4 11/11/4 12/12/4
f 13/13/5 14/14/5 15/15/5
f 16/16/6 17/17/6 18/18/6
f 19/19/7 20/20/7 21/21/7
f 22/22/8 23/23/8 24/24/8
f 25/25/9 26/26/9 27/27/9
f 28/28/10 29/29/10 30/30/10
f 31/31/11 32/32/11 33/33/11
f 34/34/12 35/35/12 36/36/12
f 37/37/13 38/38/13 39/39/13
f 40/40/14 41/41/14 42/42/14
f 43/43/15 44/44/15 45/45/15
f 46/46/16 47/47/16 48/48/16
f 49/49/17 50/50/17 51/51/17
f 52/52/18 53/53/18 54/54/18
f 55/55/19 56/56/19 57/57/19
f 58/58/20 59/59/20 60/60/20
f 61/61/21 62/62/21 63/63/21
f 64/64/22 65/65/22 66/66/22
f 67/67/23 68/68/23 69/69/23
f 70/70/24 71/71/24 72/72/24
f 73/73/25 74/74/25 75/75/25
f 76/76/26 77/77/26 78/78/26
f 79/79/27 80/80/27 81/81/27
f 82/82/28 83/83/28 84/84/28
f 85/85/29 86/86/29 87/87/29
f 88/88/30 89/89/30 90/90/30
f 91/91/31 92/92/31 93/93/31
f 94/94/32 95/95/32 96/96/32
f 97/97/33 98/98/33 99/99/33
f 100/100/34 101/101/34 102/102/34
f 103/103/35 104/104/35 105/105/35
f 106/106/36 107/107/36 108/108/36
f 109/109/37 110/110/37 111/111/37
f 112/112/38 113/113/38 114/114/38
f 115/115/39 116/116/39 117/117/39
f 118/118/40 119/119/40 120/120/40