# grass_dry_tuft_a
mtllib nomad_vegetation.mtl
o grass_dry_tuft_a
v 0.05781 0.00000 -0.06045
v 0.02645 0.00000 -0.05955
v 0.03370 0.37275 -0.05976
v 0.03370 0.37275 -0.05976
v 0.02645 0.00000 -0.05955
v 0.05781 0.00000 -0.06045
v 0.03230 0.00000 -0.14565
v 0.04549 0.00000 -0.16772
v 0.04211 0.23877 -0.16206
v 0.04211 0.23877 -0.16206
v 0.04549 0.00000 -0.16772
v 0.03230 0.00000 -0.14565
v 0.17174 0.00000 -0.01902
v 0.17747 0.00000 0.02364
v 0.18430 0.30908 0.07455
v 0.18430 0.30908 0.07455
v 0.17747 0.00000 0.02364
v 0.17174 0.00000 -0.01902
v 0.16851 0.00000 0.04346
v 0.20427 0.00000 0.02908
v 0.18598 0.22509 0.03644
v 0.18598 0.22509 0.03644
v 0.20427 0.00000 0.02908
v 0.16851 0.00000 0.04346
v -0.06803 0.00000 0.03794
v -0.09628 0.00000 0.04956
v -0.09552 0.22581 0.04925
v -0.09552 0.22581 0.04925
v -0.09628 0.00000 0.04956
v -0.06803 0.00000 0.03794
v 0.01609 0.00000 0.07818
v 0.00707 0.00000 0.11354
v 0.02326 0.26376 0.05012
v 0.02326 0.26376 0.05012
v 0.00707 0.00000 0.11354
v 0.01609 0.00000 0.07818
v -0.18645 0.00000 -0.06288
v -0.15684 0.00000 -0.06427
v -0.10992 0.34846 -0.06647
v -0.10992 0.34846 -0.06647
v -0.15684 0.00000 -0.06427
v -0.18645 0.00000 -0.06288
v -0.05423 0.00000 0.06868
v -0.01482 0.00000 0.05204
v -0.03004 0.36430 0.05847
v -0.03004 0.36430 0.05847
v -0.01482 0.00000 0.05204
v -0.05423 0.00000 0.06868
v -0.10215 0.00000 -0.14648
v -0.07280 0.00000 -0.17320
v -0.04310 0.28067 -0.20023
v -0.04310 0.28067 -0.20023
v -0.07280 0.00000 -0.17320
v -0.10215 0.00000 -0.14648
v -0.12507 0.00000 -0.06057
v -0.11595 0.00000 -0.09027
v -0.11938 0.22691 -0.07911
v -0.11938 0.22691 -0.07911
v -0.11595 0.00000 -0.09027
v -0.12507 0.00000 -0.06057
v -0.06454 0.00000 -0.03994
v -0.09408 0.00000 -0.01028
v -0.08429 0.36061 -0.02010
v -0.08429 0.36061 -0.02010
v -0.09408 0.00000 -0.01028
v -0.06454 0.00000 -0.03994
v 0.04273 0.00000 -0.14146
v 0.00797 0.00000 -0.13921
v 0.07141 0.32419 -0.14332
v 0.07141 0.32419 -0.14332
v 0.00797 0.00000 -0.13921
v 0.04273 0.00000 -0.14146
v 0.00359 0.00000 -0.05227
v -0.02767 0.00000 -0.02759
v 0.00982 0.41664 -0.05720
v 0.00982 0.41664 -0.05720
v -0.02767 0.00000 -0.02759
v 0.00359 0.00000 -0.05227
v 0.12855 0.00000 -0.00112
v 0.15313 0.00000 -0.03073
v 0.12818 0.37410 -0.00068
v 0.12818 0.37410 -0.00068
v 0.15313 0.00000 -0.03073
v 0.12855 0.00000 -0.00112
v 0.13921 0.00000 -0.06029
v 0.13481 0.00000 -0.02407
v 0.13444 0.33556 -0.02110
v 0.13444 0.33556 -0.02110
v 0.13481 0.00000 -0.02407
v 0.13921 0.00000 -0.06029
v 0.17836 0.00000 0.02194
v 0.21272 0.00000 -0.00790
v 0.23047 0.37673 -0.02332
v 0.23047 0.37673 -0.02332
v 0.21272 0.00000 -0.00790
v 0.17836 0.00000 0.02194
vt 0.00000 0.00000
vt 1.00000 0.00000
vt 0.50000 1.00000
vt 0.50000 1.00000
vt 1.00000 0.00000
vt 0.00000 0.00000
vt 0.00000 0.00000
vt 1.00000 0.00000
vt 0.50000 1.00000
vt 0.50000 1.00000
vt 1.00000 0.00000
vt 0.00000 0.00000
vt 0.00000 0.00000
vt 1.00000 0.00000
vt 0.50000 1.00000
vt 0.50000 1.00000
vt 1.00000 0.00000
vt 0.00000 0.00000
vt 0.00000 0.00000
vt 1.00000 0.00000
vt 0.50000 1.00000
vt 0.50000 1.00000
vt 1.00000 0.00000
vt 0.00000 0.00000
vt 0.00000 0.00000
vt 1.00000 0.00000
vt 0.50000 1.00000
vt 0.50000 1.00000
vt 1.00000 0.00000
vt 0.00000 0.00000
vt 0.00000 0.00000
vt 1.00000 0.00000
vt 0.50000 1.00000
vt 0.50000 1.00000
vt 1.00000 0.00000
vt 0.00000 0.00000
vt 0.00000 0.00000
vt 1.00000 0.00000
vt 0.50000 1.00000
vt 0.50000 1.00000
vt 1.00000 0.00000
vt 0.00000 0.00000
vt 0.00000 0.00000
vt 1.00000 0.00000
vt 0.50000 1.00000
vt 0.50000 1.00000
vt 1.00000 0.00000
vt 0.00000 0.00000
vt 0.00000 0.00000
vt 1.00000 0.00000
vt 0.50000 1.00000
vt 0.50000 1.00000
vt 1.00000 0.00000
vt 0.00000 0.00000
vt 0.00000 0.00000
vt 1.00000 0.00000
vt 0.50000 1.00000
vt 0.50000 1.00000
vt 1.00000 0.00000
vt 0.00000 0.00000
vt 0.00000 0.00000
vt 1.00000 0.00000
vt 0.50000 1.00000
vt 0.50000 1.00000
vt 1.00000 0.00000
vt 0.00000 0.00000
vt 0.00000 0.00000
vt 1.00000 0.00000
vt 0.50000 1.00000
vt 0.50000 1.00000
vt 1.00000 0.00000
vt 0.00000 0.00000
vt 0.00000 0.00000
vt 1.00000 0.00000
vt 0.50000 1.00000
vt 0.50000 1.00000
vt 1.00000 0.00000
vt 0.00000 0.00000
vt 0.00000 0.00000
vt 1.00000 0.00000
vt 0.50000 1.00000
vt 0.50000 1.00000
vt 1.00000 0.00000
vt 0.00000 0.00000
vt 0.00000 0.00000
vt 1.00000 0.00000
vt 0.50000 1.00000
vt 0.50000 1.00000
vt 1.00000 0.00000
vt 0.00000 0.00000
vt 0.00000 0.00000
vt 1.00000 0.00000
vt 0.50000 1.00000
vt 0.50000 1.00000
vt 1.00000 0.00000
vt 0.00000 0.00000
vn -0.02868 -0.00000 -0.99959
vn 0.02868 0.00000 0.99959
vn 0.85828 -0.00000 0.51317
vn -0.85828 0.00000 -0.51317
vn -0.99111 -0.00000 0.13305
vn 0.99111 0.00000 -0.13305
vn 0.37309 -0.00000 0.92780
vn -0.37309 0.00000 -0.92780
vn -0.38043 -0.00000 -0.92481
vn 0.38043 0.00000 0.92481
vn -0.96892 -0.00000 -0.24736
vn 0.96892 0.00000 0.24736
vn 0.04683 -0.00000 0.99890
vn -0.04683 0.00000 -0.99890
vn 0.38882 -0.00000 0.92131
vn -0.38882 0.00000 -0.92131
vn 0.67311 0.00000 0.73954
vn -0.67311 -0.00000 -0.73954
vn 0.95597 0.00000 0.29347
vn -0.95597 -0.00000 -0.29347
vn -0.70842 0.00000 -0.70579
vn 0.70842 -0.00000 0.70579
vn -0.06471 0.00000 -0.99790
vn 0.06471 -0.00000 0.99790
vn -0.61984 0.00000 -0.78473
vn 0.61984 -0.00000 0.78473
vn 0.76935 -0.00000 0.63883
vn -0.76935 0.00000 -0.63883
vn -0.99267 0.00000 -0.12084
vn 0.99267 -0.00000 0.12084
vn 0.65573 0.00000 0.75499
vn -0.65573 -0.00000 -0.75499
usemtl straw_leaf
f 1/1/1 2/2/1 3/3/1
f 4/4/2 5/5/2 6/6/2
f 7/7/3 8/8/3 9/9/3
f 10/10/4 11/11/4 12/12/4
f 13/13/5 14/14/5 15/15/5
f 16/16/6 17/17/6 18/18/6
f 19/19/7 20/20/7 21/21/7
f 22/22/8 23/23/8 24/24/8
f 25/25/9 26/26/9 27/27/9
f 28/28/10 29/29/10 30/30/10
f 31/31/11 32/32/11 33/33/11
f 34/34/12 35/35/12 36/36/12
f 37/37/13 38/38/13 39/39/13
f 40/40/14 41/41/14 42/42/14
f 43/43/15 44/44/15 45/45/15
f 46/46/16 47/47/16 48/48/16
f 49/49/17 50/50/17 51/51/17
f 52/52/18 53/53/18 54/54/18
f 55/55/19 56/56/19 57/57/19
f 58/58/20 59/59/20 60/60/20
f 61/61/21 62/62/21 63/63/21
f 64/64/22 65/65/22 66/66/22
f 67/67/23 68/68/23 69/69/23
f 70/70/24 71/71/24 72/72/24
f 73/73/25 74/74/25 75/75/25
f 76/76/26 77/77/26 78/78/26
f 79/79/27 80/80/27 81/81/27
f 82/82/28 83/83/28 84/84/28
f 85/85/29 86/86/29 87/87/29
f 88/88/30 89/89/30 90/90/30
f 91/91/31 92/92/31 93/93/31
f 94/94/32 95/95/32 96/96/32