# ground_vines_creeper
mtllib nomad_vegetation.mtl
o ground_vines_creeper
v -0.00908 0.01800 0.00419
v 0.00008 0.00800 0.00016
v 0.39637 0.02950 0.86001
v 0.39134 0.03500 0.86222
v 0.00008 0.00800 0.00016
v 0.00908 0.01800 -0.00419
v 0.40133 0.03500 0.85762
v 0.39637 0.02950 0.86001
v 0.00908 0.01800 -0.00419
v -0.00008 0.02800 -0.00016
v 0.39629 0.04050 0.85983
v 0.40133 0.03500 0.85762
v -0.00008 0.02800 -0.00016
v -0.00908 0.01800 0.00419
v 0.39134 0.03500 0.86222
v 0.39629 0.04050 0.85983
v 0.14241 -0.04000 0.18082
v 0.02267 -0.04000 0.18872
v 0.02267 0.12000 0.18872
v 0.14241 0.12000 0.18082
v 0.14241 0.12000 0.18082
v 0.02267 0.12000 0.18872
v 0.02267 -0.04000 0.18872
v 0.14241 -0.04000 0.18082
v 0.25552 -0.04000 0.41241
v 0.13961 -0.04000 0.44347
v 0.13961 0.12000 0.44347
v 0.25552 0.12000 0.41241
v 0.25552 0.12000 0.41241
v 0.13961 0.12000 0.44347
v 0.13961 -0.04000 0.44347
v 0.25552 -0.04000 0.41241
v 0.29513 -0.04000 0.67636
v 0.25227 -0.04000 0.56428
v 0.25227 0.12000 0.56428
v 0.29513 0.12000 0.67636
v 0.29513 0.12000 0.67636
v 0.25227 0.12000 0.56428
v 0.25227 -0.04000 0.56428
v 0.29513 -0.04000 0.67636
v -0.00893 0.01800 -0.00451
v -0.00008 0.00800 0.00016
v -0.43055 0.02950 0.85243
v -0.43542 0.03500 0.84986
v -0.00008 0.00800 0.00016
v 0.00893 0.01800 0.00451
v -0.42560 0.03500 0.85482
v -0.43055 0.02950 0.85243
v 0.00893 0.01800 0.00451
v 0.00008 0.02800 -0.00016
v -0.43046 0.04050 0.85225
v -0.42560 0.03500 0.85482
v 0.00008 0.02800 -0.00016
v -0.00893 0.01800 -0.00451
v -0.43542 0.03500 0.84986
v -0.43046 0.04050 0.85225
v -0.13524 -0.04000 0.27035
v -0.02258 -0.04000 0.22901
v -0.02258 0.12000 0.22901
v -0.13524 0.12000 0.27035
v -0.13524 0.12000 0.27035
v -0.02258 0.12000 0.22901
v -0.02258 -0.04000 0.22901
v -0.13524 -0.04000 0.27035
v -0.23609 -0.04000 0.45964
v -0.24751 -0.04000 0.34018
v -0.24751 0.12000 0.34018
v -0.23609 0.12000 0.45964
v -0.23609 0.12000 0.45964
v -0.24751 0.12000 0.34018
v -0.24751 -0.04000 0.34018
v -0.23609 -0.04000 0.45964
v -0.28896 -0.04000 0.66334
v -0.34169 -0.04000 0.55554
v -0.34169 0.12000 0.55554
v -0.28896 0.12000 0.66334
v -0.28896 0.12000 0.66334
v -0.34169 0.12000 0.55554
v -0.34169 -0.04000 0.55554
v -0.28896 -0.04000 0.66334
v 0.00715 0.01800 0.00699
v 0.00011 0.00800 -0.00012
v 0.73535 0.02950 -0.75170
v 0.73922 0.03500 -0.74779
v 0.00011 0.00800 -0.00012
v -0.00715 0.01800 -0.00699
v 0.73135 0.03500 -0.75548
v 0.73535 0.02950 -0.75170
v -0.00715 0.01800 -0.00699
v -0.00011 0.02800 0.00012
v 0.73522 0.04050 -0.75157
v 0.73135 0.03500 -0.75548
v -0.00011 0.02800 0.00012
v 0.00715 0.01800 0.00699
v 0.73922 0.03500 -0.74779
v 0.73522 0.04050 -0.75157
v 0.09548 -0.04000 -0.21052
v 0.21538 -0.04000 -0.20550
v 0.21538 0.12000 -0.20550
v 0.09548 0.12000 -0.21052
v 0.09548 0.12000 -0.21052
v 0.21538 0.12000 -0.20550
v 0.21538 -0.04000 -0.20550
v 0.09548 -0.04000 -0.21052
v 0.42381 -0.04000 -0.34439
v 0.40661 -0.04000 -0.46315
v 0.40661 0.12000 -0.46315
v 0.42381 0.12000 -0.34439
v 0.42381 0.12000 -0.34439
v 0.40661 0.12000 -0.46315
v 0.40661 -0.04000 -0.46315
v 0.42381 -0.04000 -0.34439
v 0.61441 -0.04000 -0.54435
v 0.49610 -0.04000 -0.56441
v 0.49610 0.12000 -0.56441
v 0.61441 0.12000 -0.54435
v 0.61441 0.12000 -0.54435
v 0.49610 0.12000 -0.56441
v 0.49610 -0.04000 -0.56441
v 0.61441 -0.04000 -0.54435
v 0.00889 0.01800 0.00457
v 0.00009 0.00800 -0.00017
v 0.41585 0.02950 -0.80949
v 0.42070 0.03500 -0.80689
v 0.00009 0.00800 -0.00017
v -0.00889 0.01800 -0.00457
v 0.41091 0.03500 -0.81191
v 0.41585 0.02950 -0.80949
v -0.00889 0.01800 -0.00457
v -0.00009 0.02800 0.00017
v 0.41576 0.04050 -0.80931
v 0.41091 0.03500 -0.81191
v -0.00009 0.02800 0.00017
v 0.00889 0.01800 0.00457
v 0.42070 0.03500 -0.80689
v 0.41576 0.04050 -0.80931
v 0.14367 -0.04000 -0.24936
v 0.02487 -0.04000 -0.23238
v 0.02487 0.12000 -0.23238
v 0.14367 0.12000 -0.24936
v 0.14367 0.12000 -0.24936
v 0.02487 0.12000 -0.23238
v 0.02487 -0.04000 -0.23238
v 0.14367 -0.04000 -0.24936
v 0.27439 -0.04000 -0.38528
v 0.22600 -0.04000 -0.49508
v 0.22600 0.12000 -0.49508
v 0.27439 0.12000 -0.38528
v 0.27439 0.12000 -0.38528
v 0.22600 0.12000 -0.49508
v 0.22600 -0.04000 -0.49508
v 0.27439 -0.04000 -0.38528
v 0.30889 -0.04000 -0.69883
v 0.34104 -0.04000 -0.58322
v 0.34104 0.12000 -0.58322
v 0.30889 0.12000 -0.69883
v 0.30889 0.12000 -0.69883
v 0.34104 0.12000 -0.58322
v 0.34104 -0.04000 -0.58322
v 0.30889 -0.04000 -0.69883
v 0.00921 0.01800 -0.00390
v -0.00008 0.00800 -0.00019
v -0.31676 0.02950 -0.74800
v -0.31165 0.03500 -0.75004
v -0.00008 0.00800 -0.00019
v -0.00921 0.01800 0.00390
v -0.32178 0.03500 -0.74575
v -0.31676 0.02950 -0.74800
v -0.00921 0.01800 0.00390
v 0.00008 0.02800 0.00019
v -0.31667 0.04050 -0.74779
v -0.32178 0.03500 -0.74575
v 0.00008 0.02800 0.00019
v 0.00921 0.01800 -0.00390
v -0.31165 0.03500 -0.75004
v -0.31667 0.04050 -0.74779
v -0.13675 -0.04000 -0.22458
v -0.04021 -0.04000 -0.15330
v -0.04021 0.12000 -0.15330
v -0.13675 0.12000 -0.22458
v -0.13675 0.12000 -0.22458
v -0.04021 0.12000 -0.15330
v -0.04021 -0.04000 -0.15330
v -0.13675 -0.04000 -0.22458
v -0.07928 -0.04000 -0.35231
v -0.19652 -0.04000 -0.37791
v -0.19652 0.12000 -0.37791
v -0.07928 0.12000 -0.35231
v -0.07928 0.12000 -0.35231
v -0.19652 0.12000 -0.37791
v -0.19652 -0.04000 -0.37791
v -0.07928 -0.04000 -0.35231
v -0.28046 -0.04000 -0.47613
v -0.22668 -0.04000 -0.58340
v -0.22668 0.12000 -0.58340
v -0.28046 0.12000 -0.47613
v -0.28046 0.12000 -0.47613
v -0.22668 0.12000 -0.58340
v -0.22668 -0.04000 -0.58340
v -0.28046 -0.04000 -0.47613
v 0.00278 0.01800 -0.00961
v -0.00027 0.00800 -0.00008
v -0.57955 0.02950 -0.16783
v -0.57787 0.03500 -0.17307
v -0.00027 0.00800 -0.00008
v -0.00278 0.01800 0.00961
v -0.58093 0.03500 -0.16251
v -0.57955 0.02950 -0.16783
v -0.00278 0.01800 0.00961
v 0.00027 0.02800 0.00008
v -0.57926 0.04050 -0.16775
v -0.58093 0.03500 -0.16251
v 0.00027 0.02800 0.00008
v 0.00278 0.01800 -0.00961
v -0.57787 0.03500 -0.17307
v -0.57926 0.04050 -0.16775
v -0.23285 -0.04000 -0.10525
v -0.12727 -0.04000 -0.04821
v -0.12727 0.12000 -0.04821
v -0.23285 0.12000 -0.10525
v -0.23285 0.12000 -0.10525
v -0.12727 0.12000 -0.04821
v -0.12727 -0.04000 -0.04821
v -0.23285 -0.04000 -0.10525
v -0.29202 -0.04000 -0.13704
v -0.25772 -0.04000 -0.02205
v -0.25772 0.12000 -0.02205
v -0.29202 0.12000 -0.13704
v -0.29202 0.12000 -0.13704
v -0.25772 0.12000 -0.02205
v -0.25772 -0.04000 -0.02205
v -0.29202 -0.04000 -0.13704
v -0.40923 -0.04000 -0.05496
v -0.37781 -0.04000 -0.17077
v -0.37781 0.12000 -0.17077
v -0.40923 0.12000 -0.05496
v -0.40923 0.12000 -0.05496
v -0.37781 0.12000 -0.17077
v -0.37781 -0.04000 -0.17077
v -0.40923 -0.04000 -0.05496
v 0.00910 0.01800 0.00415
v 0.00007 0.00800 -0.00016
v 0.39763 0.02950 -0.87270
v 0.40259 0.03500 -0.87033
v 0.00007 0.00800 -0.00016
v -0.00910 0.01800 -0.00415
v 0.39258 0.03500 -0.87489
v 0.39763 0.02950 -0.87270
v -0.00910 0.01800 -0.00415
v -0.00007 0.02800 0.00016
v 0.39755 0.04050 -0.87252
v 0.39258 0.03500 -0.87489
v -0.00007 0.02800 0.00016
v 0.00910 0.01800 0.00415
v 0.40259 0.03500 -0.87033
v 0.39755 0.04050 -0.87252
v 0.06181 -0.04000 -0.21416
v 0.14234 -0.04000 -0.12520
v 0.14234 0.12000 -0.12520
v 0.06181 0.12000 -0.21416
v 0.06181 0.12000 -0.21416
v 0.14234 0.12000 -0.12520
v 0.14234 -0.04000 -0.12520
v 0.06181 -0.04000 -0.21416
v 0.27717 -0.04000 -0.40600
v 0.15827 -0.04000 -0.38976
v 0.15827 0.12000 -0.38976
v 0.27717 0.12000 -0.40600
v 0.27717 0.12000 -0.40600
v 0.15827 0.12000 -0.38976
v 0.15827 -0.04000 -0.38976
v 0.27717 -0.04000 -0.40600
v 0.38179 -0.04000 -0.71646
v 0.27803 -0.04000 -0.65618
v 0.27803 0.12000 -0.65618
v 0.38179 0.12000 -0.71646
v 0.38179 0.12000 -0.71646
v 0.27803 0.12000 -0.65618
v 0.27803 -0.04000 -0.65618
v 0.38179 -0.04000 -0.71646
vt 0.00000 0.00000
vt 1.00000 0.00000
vt 1.00000 1.00000
vt 0.00000 1.00000
vt 0.00000 0.00000
vt 1.00000 0.00000
vt 1.00000 1.00000
vt 0.00000 1.00000
vt 0.00000 0.00000
vt 1.00000 0.00000
vt 1.00000 1.00000
vt 0.00000 1.00000
vt 0.00000 0.00000
vt 1.00000 0.00000
vt 1.00000 1.00000
vt 0.00000 1.00000
vt 0.00000 0.00000
vt 1.00000 0.00000
vt 1.00000 1.00000
vt 0.00000 1.00000
vt 0.00000 1.00000
vt 1.00000 1.00000
vt 1.00000 0.00000
vt 0.00000 0.00000
vt 0.00000 0.00000
vt 1.00000 0.00000
vt 1.00000 1.00000
vt 0.00000 1.00000
vt 0.00000 1.00000
vt 1.00000 1.00000
vt 1.00000 0.00000
vt 0.00000 0.00000
vt 0.00000 0.00000
vt 1.00000 0.00000
vt 1.00000 1.00000
vt 0.00000 1.00000
vt 0.00000 1.00000
vt 1.00000 1.00000
vt 1.00000 0.00000
vt 0.00000 0.00000
vt 0.00000 0.00000
vt 1.00000 0.00000
vt 1.00000 1.00000
vt 0.00000 1.00000
vt 0.00000 0.00000
vt 1.00000 0.00000
vt 1.00000 1.00000
vt 0.00000 1.00000
vt 0.00000 0.00000
vt 1.00000 0.00000
vt 1.00000 1.00000
vt 0.00000 1.00000
vt 0.00000 0.00000
vt 1.00000 0.00000
vt 1.00000 1.00000
vt 0.00000 1.00000
vt 0.00000 0.00000
vt 1.00000 0.00000
vt 1.00000 1.00000
vt 0.00000 1.00000
vt 0.00000 1.00000
vt 1.00000 1.00000
vt 1.00000 0.00000
vt 0.00000 0.00000
vt 0.00000 0.00000
vt 1.00000 0.00000
vt 1.00000 1.00000
vt 0.00000 1.00000
vt 0.00000 1.00000
vt 1.00000 1.00000
vt 1.00000 0.00000
vt 0.00000 0.00000
vt 0.00000 0.00000
vt 1.00000 0.00000
vt 1.00000 1.00000
vt 0.00000 1.00000
vt 0.00000 1.00000
vt 1.00000 1.00000
vt 1.00000 0.00000
vt 0.00000 0.00000
vt 0.00000 0.00000
vt 1.00000 0.00000
vt 1.00000 1.00000
vt 0.00000 1.00000
vt 0.00000 0.00000
vt 1.00000 0.00000
vt 1.00000 1.00000
vt 0.00000 1.00000
vt 0.00000 0.00000
vt 1.00000 0.00000
vt 1.00000 1.00000
vt 0.00000 1.00000
vt 0.00000 0.00000
vt 1.00000 0.00000
vt 1.00000 1.00000
vt 0.00000 1.00000
vt 0.00000 0.00000
vt 1.00000 0.00000
vt 1.00000 1.00000
vt 0.00000 1.00000
vt 0.00000 1.00000
vt 1.00000 1.00000
vt 1.00000 0.00000
vt 0.00000 0.00000
vt 0.00000 0.00000
vt 1.00000 0.00000
vt 1.00000 1.00000
vt 0.00000 1.00000
vt 0.00000 1.00000
vt 1.00000 1.00000
vt 1.00000 0.00000
vt 0.00000 0.00000
vt 0.00000 0.00000
vt 1.00000 0.00000
vt 1.00000 1.00000
vt 0.00000 1.00000
vt 0.00000 1.00000
vt 1.00000 1.00000
vt 1.00000 0.00000
vt 0.00000 0.00000
vt 0.00000 0.00000
vt 1.00000 0.00000
vt 1.00000 1.00000
vt 0.00000 1.00000
vt 0.00000 0.00000
vt 1.00000 0.00000
vt 1.00000 1.00000
vt 0.00000 1.00000
vt 0.00000 0.00000
vt 1.00000 0.00000
vt 1.00000 1.00000
vt 0.00000 1.00000
vt 0.00000 0.00000
vt 1.00000 0.00000
vt 1.00000 1.00000
vt 0.00000 1.00000
vt 0.00000 0.00000
vt 1.00000 0.00000
vt 1.00000 1.00000
vt 0.00000 1.00000
vt 0.00000 1.00000
vt 1.00000 1.00000
vt 1.00000 0.00000
vt 0.00000 0.00000
vt 0.00000 0.00000
vt 1.00000 0.00000
vt 1.00000 1.00000
vt 0.00000 1.00000
vt 0.00000 1.00000
vt 1.00000 1.00000
vt 1.00000 0.00000
vt 0.00000 0.00000
vt 0.00000 0.00000
vt 1.00000 0.00000
vt 1.00000 1.00000
vt 0.00000 1.00000
vt 0.00000 1.00000
vt 1.00000 1.00000
vt 1.00000 0.00000
vt 0.00000 0.00000
vt 0.00000 0.00000
vt 1.00000 0.00000
vt 1.00000 1.00000
vt 0.00000 1.00000
vt 0.00000 0.00000
vt 1.00000 0.00000
vt 1.00000 1.00000
vt 0.00000 1.00000
vt 0.00000 0.00000
vt 1.00000 0.00000
vt 1.00000 1.00000
vt 0.00000 1.00000
vt 0.00000 0.00000
vt 1.00000 0.00000
vt 1.00000 1.00000
vt 0.00000 1.00000
vt 0.00000 0.00000
vt 1.00000 0.00000
vt 1.00000 1.00000
vt 0.00000 1.00000
vt 0.00000 1.00000
vt 1.00000 1.00000
vt 1.00000 0.00000
vt 0.00000 0.00000
vt 0.00000 0.00000
vt 1.00000 0.00000
vt 1.00000 1.00000
vt 0.00000 1.00000
vt 0.00000 1.00000
vt 1.00000 1.00000
vt 1.00000 0.00000
vt 0.00000 0.00000
vt 0.00000 0.00000
vt 1.00000 0.00000
vt 1.00000 1.00000
vt 0.00000 1.00000
vt 0.00000 1.00000
vt 1.00000 1.00000
vt 1.00000 0.00000
vt 0.00000 0.00000
vt 0.00000 0.00000
vt 1.00000 0.00000
vt 1.00000 1.00000
vt 0.00000 1.00000
vt 0.00000 0.00000
vt 1.00000 0.00000
vt 1.00000 1.00000
vt 0.00000 1.00000
vt 0.00000 0.00000
vt 1.00000 0.00000
vt 1.00000 1.00000
vt 0.00000 1.00000
vt 0.00000 0.00000
vt 1.00000 0.00000
vt 1.00000 1.00000
vt 0.00000 1.00000
vt 0.00000 0.00000
vt 1.00000 0.00000
vt 1.00000 1.00000
vt 0.00000 1.00000
vt 0.00000 1.00000
vt 1.00000 1.00000
vt 1.00000 0.00000
vt 0.00000 0.00000
vt 0.00000 0.00000
vt 1.00000 0.00000
vt 1.00000 1.00000
vt 0.00000 1.00000
vt 0.00000 1.00000
vt 1.00000 1.00000
vt 1.00000 0.00000
vt 0.00000 0.00000
vt 0.00000 0.00000
vt 1.00000 0.00000
vt 1.00000 1.00000
vt 0.00000 1.00000
vt 0.00000 1.00000
vt 1.00000 1.00000
vt 1.00000 0.00000
vt 0.00000 0.00000
vt 0.00000 0.00000
vt 1.00000 0.00000
vt 1.00000 1.00000
vt 0.00000 1.00000
vt 0.00000 0.00000
vt 1.00000 0.00000
vt 1.00000 1.00000
vt 0.00000 1.00000
vt 0.00000 0.00000
vt 1.00000 0.00000
vt 1.00000 1.00000
vt 0.00000 1.00000
vt 0.00000 0.00000
vt 1.00000 0.00000
vt 1.00000 1.00000
vt 0.00000 1.00000
vt 0.00000 0.00000
vt 1.00000 0.00000
vt 1.00000 1.00000
vt 0.00000 1.00000
vt 0.00000 1.00000
vt 1.00000 1.00000
vt 1.00000 0.00000
vt 0.00000 0.00000
vt 0.00000 0.00000
vt 1.00000 0.00000
vt 1.00000 1.00000
vt 0.00000 1.00000
vt 0.00000 1.00000
vt 1.00000 1.00000
vt 1.00000 0.00000
vt 0.00000 0.00000
vt 0.00000 0.00000
vt 1.00000 0.00000
vt 1.00000 1.00000
vt 0.00000 1.00000
vt 0.00000 1.00000
vt 1.00000 1.00000
vt 1.00000 0.00000
vt 0.00000 0.00000
vn -0.63546 -0.70693 0.31055
vn 0.64890 -0.70693 -0.28140
vn 0.63827 0.70705 -0.30445
vn -0.64609 0.70705 0.28750
vn -0.06583 0.00000 -0.99783
vn 0.06583 -0.00000 0.99783
vn -0.25883 0.00000 -0.96592
vn 0.25883 -0.00000 0.96592
vn 0.93406 0.00000 -0.35712
vn -0.93406 -0.00000 0.35712
vn -0.63834 -0.70693 -0.30458
vn 0.62399 -0.70693 0.33300
vn 0.63534 0.70705 0.31053
vn -0.62699 0.70705 -0.32705
vn 0.34448 0.00000 0.93880
vn -0.34448 -0.00000 -0.93880
vn 0.99546 0.00000 -0.09520
vn -0.99546 -0.00000 0.09520
vn 0.89832 0.00000 -0.43935
vn -0.89832 -0.00000 0.43935
vn 0.51557 -0.70696 0.48414
vn -0.49536 -0.70696 -0.50480
vn -0.51134 0.70706 -0.48846
vn 0.49959 0.70706 0.50048
vn -0.04185 0.00000 0.99912
vn 0.04185 -0.00000 -0.99912
vn 0.98967 0.00000 -0.14336
vn -0.98967 -0.00000 0.14336
vn 0.16720 0.00000 -0.98592
vn -0.16720 -0.00000 0.98592
vn 0.63660 -0.70691 0.30825
vn -0.62133 -0.70691 -0.33797
vn -0.63340 0.70704 -0.31447
vn 0.62452 0.70704 0.33175
vn -0.14149 0.00000 -0.98994
vn 0.14149 -0.00000 0.98994
vn 0.91507 0.00000 -0.40329
vn -0.91507 -0.00000 0.40329
vn -0.96345 0.00000 0.26788
vn 0.96345 -0.00000 -0.26788
vn 0.64383 -0.70686 -0.29297
vn -0.65842 -0.70686 0.25850
vn -0.64688 0.70703 0.28575
vn 0.65537 0.70703 -0.26571
vn -0.59398 0.00000 0.80448
vn 0.59398 -0.00000 -0.80448
vn 0.21331 0.00000 -0.97698
vn -0.21331 -0.00000 0.97698
vn 0.89394 0.00000 0.44819
vn -0.89394 -0.00000 -0.44819
vn 0.17249 -0.70667 -0.68620
vn -0.22089 -0.70667 0.67218
vn -0.18262 0.70696 0.68327
vn 0.21076 0.70696 -0.67512
vn -0.47537 0.00000 0.87979
vn 0.47537 -0.00000 -0.87979
vn -0.95828 0.00000 0.28582
vn 0.95828 -0.00000 -0.28582
vn 0.96511 0.00000 0.26184
vn -0.96511 -0.00000 -0.26184
vn 0.65003 -0.70693 0.27876
vn -0.63689 -0.70693 -0.30760
vn -0.64728 0.70705 -0.28479
vn 0.63964 0.70705 0.30157
vn -0.74131 0.00000 0.67116
vn 0.74131 -0.00000 -0.67116
vn -0.13537 0.00000 -0.99080
vn 0.13537 -0.00000 0.99080
vn -0.50233 0.00000 -0.86468
vn 0.50233 -0.00000 0.86468
usemtl vine_leaf
f 1/1/1 2/2/1 3/3/1 4/4/1
f 5/5/2 6/6/2 7/7/2 8/8/2
f 9/9/3 10/10/3 11/11/3 12/12/3
f 13/13/4 14/14/4 15/15/4 16/16/4
f 17/17/5 18/18/5 19/19/5 20/20/5
f 21/21/6 22/22/6 23/23/6 24/24/6
f 25/25/7 26/26/7 27/27/7 28/28/7
f 29/29/8 30/30/8 31/31/8 32/32/8
f 33/33/9 34/34/9 35/35/9 36/36/9
f 37/37/10 38/38/10 39/39/10 40/40/10
f 41/41/11 42/42/11 43/43/11 44/44/11
f 45/45/12 46/46/12 47/47/12 48/48/12
f 49/49/13 50/50/13 51/51/13 52/52/13
f 53/53/14 54/54/14 55/55/14 56/56/14
f 57/57/15 58/58/15 59/59/15 60/60/15
f 61/61/16 62/62/16 63/63/16 64/64/16
f 65/65/17 66/66/17 67/67/17 68/68/17
f 69/69/18 70/70/18 71/71/18 72/72/18
f 73/73/19 74/74/19 75/75/19 76/76/19
f 77/77/20 78/78/20 79/79/20 80/80/20
f 81/81/21 82/82/21 83/83/21 84/84/21
f 85/85/22 86/86/22 87/87/22 88/88/22
f 89/89/23 90/90/23 91/91/23 92/92/23
f 93/93/24 94/94/24 95/95/24 96/96/24
f 97/97/25 98/98/25 99/99/25 100/100/25
f 101/101/26 102/102/26 103/103/26 104/104/26
f 105/105/27 106/106/27 107/107/27 108/108/27
f 109/109/28 110/110/28 111/111/28 112/112/28
f 113/113/29 114/114/29 115/115/29 116/116/29
f 117/117/30 118/118/30 119/119/30 120/120/30
f 121/121/31 122/122/31 123/123/31 124/124/31
f 125/125/32 126/126/32 127/127/32 128/128/32
f 129/129/33 130/130/33 131/131/33 132/132/33
f 133/133/34 134/134/34 135/135/34 136/136/34
f 137/137/35 138/138/35 139/139/35 140/140/35
f 141/141/36 142/142/36 143/143/36 144/144/36
f 145/145/37 146/146/37 147/147/37 148/148/37
f 149/149/38 150/150/38 151/151/38 152/152/38
f 153/153/39 154/154/39 155/155/39 156/156/39
f 157/157/40 158/158/40 159/159/40 160/160/40
f 161/161/41 162/162/41 163/163/41 164/164/41
f 165/165/42 166/166/42 167/167/42 168/168/42
f 169/169/43 170/170/43 171/171/43 172/172/43
f 173/173/44 174/174/44 175/175/44 176/176/44
f 177/177/45 178/178/45 179/179/45 180/180/45
f 181/181/46 182/182/46 183/183/46 184/184/46
f 185/185/47 186/186/47 187/187/47 188/188/47
f 189/189/48 190/190/48 191/191/48 192/192/48
f 193/193/49 194/194/49 195/195/49 196/196/49
f 197/197/50 198/198/50 199/199/50 200/200/50
f 201/201/51 202/202/51 203/203/51 204/204/51
f 205/205/52 206/206/52 207/207/52 208/208/52
f 209/209/53 210/210/53 211/211/53 212/212/53
f 213/213/54 214/214/54 215/215/54 216/216/54
f 217/217/55 218/218/55 219/219/55 220/220/55
f 221/221/56 222/222/56 223/223/56 224/224/56
f 225/225/57 226/226/57 227/227/57 228/228/57
f 229/229/58 230/230/58 231/231/58 232/232/58
f 233/233/59 234/234/59 235/235/59 236/236/59
f 237/237/60 238/238/60 239/239/60 240/240/60
f 241/241/61 242/242/61 243/243/61 244/244/61
f 245/245/62 246/246/62 247/247/62 248/248/62
f 249/249/63 250/250/63 251/251/63 252/252/63
f 253/253/64 254/254/64 255/255/64 256/256/64
f 257/257/65 258/258/65 259/259/65 260/260/65
f 261/261/66 262/262/66 263/263/66 264/264/66
f 265/265/67 266/266/67 267/267/67 268/268/67
f 269/269/68 270/270/68 271/271/68 272/272/68
f 273/273/69 274/274/69 275/275/69 276/276/69
f 277/277/70 278/278/70 279/279/70 280/280/70