# midcity_wall_vines_hanging
mtllib nomad_vegetation.mtl
o midcity_wall_vines_hanging
v 0.21255 0.19631 -0.00900
v 0.20355 0.19624 0.00000
v 0.21036 1.91670 0.01500
v 0.21531 1.91674 0.01005
v 0.20355 0.19624 0.00000
v 0.21255 0.19615 0.00900
v 0.21531 1.91665 0.01995
v 0.21036 1.91670 0.01500
v 0.21255 0.19615 0.00900
v 0.22155 0.19621 -0.00000
v 0.22026 1.91669 0.01500
v 0.21531 1.91665 0.01995
v 0.22155 0.19621 -0.00000
v 0.21255 0.19631 -0.00900
v 0.21531 1.91674 0.01005
v 0.22026 1.91669 0.01500
v 0.12626 0.27327 0.02000
v 0.25626 0.27327 0.02000
v 0.25626 0.46327 0.02000
v 0.12626 0.46327 0.02000
v 0.12626 0.46327 0.02000
v 0.25626 0.46327 0.02000
v 0.25626 0.27327 0.02000
v 0.12626 0.27327 0.02000
v 0.24691 0.70339 0.02000
v 0.37691 0.70339 0.02000
v 0.37691 0.89339 0.02000
v 0.24691 0.89339 0.02000
v 0.24691 0.89339 0.02000
v 0.37691 0.89339 0.02000
v 0.37691 0.70339 0.02000
v 0.24691 0.70339 0.02000
v 0.10542 1.13351 0.02000
v 0.23542 1.13351 0.02000
v 0.23542 1.32351 0.02000
v 0.10542 1.32351 0.02000
v 0.10542 1.32351 0.02000
v 0.23542 1.32351 0.02000
v 0.23542 1.13351 0.02000
v 0.10542 1.13351 0.02000
v 0.07720 1.56362 0.02000
v 0.20720 1.56362 0.02000
v 0.20720 1.75362 0.02000
v 0.07720 1.75362 0.02000
v 0.07720 1.75362 0.02000
v 0.20720 1.75362 0.02000
v 0.20720 1.56362 0.02000
v 0.07720 1.56362 0.02000
v -0.28671 0.06520 -0.00900
v -0.29570 0.06478 -0.00000
v -0.34735 1.59230 0.01500
v -0.34241 1.59252 0.01005
v -0.29570 0.06478 -0.00000
v -0.28671 0.06502 0.00900
v -0.34241 1.59243 0.01995
v -0.34735 1.59230 0.01500
v -0.28671 0.06502 0.00900
v -0.27771 0.06544 0.00000
v -0.33746 1.59266 0.01500
v -0.34241 1.59243 0.01995
v -0.27771 0.06544 0.00000
v -0.28671 0.06520 -0.00900
v -0.34241 1.59252 0.01005
v -0.33746 1.59266 0.01500
v -0.43018 0.12285 0.02000
v -0.30018 0.12285 0.02000
v -0.30018 0.31285 0.02000
v -0.43018 0.31285 0.02000
v -0.43018 0.31285 0.02000
v -0.30018 0.31285 0.02000
v -0.30018 0.12285 0.02000
v -0.43018 0.12285 0.02000
v -0.38661 0.50469 0.02000
v -0.25661 0.50469 0.02000
v -0.25661 0.69469 0.02000
v -0.38661 0.69469 0.02000
v -0.38661 0.69469 0.02000
v -0.25661 0.69469 0.02000
v -0.25661 0.50469 0.02000
v -0.38661 0.50469 0.02000
v -0.38949 0.88653 0.02000
v -0.25949 0.88653 0.02000
v -0.25949 1.07653 0.02000
v -0.38949 1.07653 0.02000
v -0.38949 1.07653 0.02000
v -0.25949 1.07653 0.02000
v -0.25949 0.88653 0.02000
v -0.38949 0.88653 0.02000
v -0.33786 1.26837 0.02000
v -0.20786 1.26837 0.02000
v -0.20786 1.45837 0.02000
v -0.33786 1.45837 0.02000
v -0.33786 1.45837 0.02000
v -0.20786 1.45837 0.02000
v -0.20786 1.26837 0.02000
v -0.33786 1.26837 0.02000
v -0.35804 0.01779 -0.00900
v -0.36704 0.01776 0.00000
v -0.35281 1.42028 0.01500
v -0.34786 1.42030 0.01005
v -0.36704 0.01776 0.00000
v -0.35804 0.01760 0.00900
v -0.34786 1.42020 0.01995
v -0.35281 1.42028 0.01500
v -0.35804 0.01760 0.00900
v -0.34904 0.01763 -0.00000
v -0.34291 1.42021 0.01500
v -0.34786 1.42020 0.01995
v -0.34904 0.01763 -0.00000
v -0.35804 0.01779 -0.00900
v -0.34786 1.42030 0.01005
v -0.34291 1.42021 0.01500
v -0.44533 0.06295 0.02000
v -0.31533 0.06295 0.02000
v -0.31533 0.25295 0.02000
v -0.44533 0.25295 0.02000
v -0.44533 0.25295 0.02000
v -0.31533 0.25295 0.02000
v -0.31533 0.06295 0.02000
v -0.44533 0.06295 0.02000
v -0.37635 0.41359 0.02000
v -0.24635 0.41359 0.02000
v -0.24635 0.60359 0.02000
v -0.37635 0.60359 0.02000
v -0.37635 0.60359 0.02000
v -0.24635 0.60359 0.02000
v -0.24635 0.41359 0.02000
v -0.37635 0.41359 0.02000
v -0.36243 0.76423 0.02000
v -0.23243 0.76423 0.02000
v -0.23243 0.95423 0.02000
v -0.36243 0.95423 0.02000
v -0.36243 0.95423 0.02000
v -0.23243 0.95423 0.02000
v -0.23243 0.76423 0.02000
v -0.36243 0.76423 0.02000
v -0.44016 1.11487 0.02000
v -0.31016 1.11487 0.02000
v -0.31016 1.30487 0.02000
v -0.44016 1.30487 0.02000
v -0.44016 1.30487 0.02000
v -0.31016 1.30487 0.02000
v -0.31016 1.11487 0.02000
v -0.44016 1.11487 0.02000
v -0.48077 0.18207 -0.00900
v -0.48977 0.18188 -0.00000
v -0.51066 2.13760 0.01500
v -0.50571 2.13770 0.01005
v -0.48977 0.18188 -0.00000
v -0.48077 0.18193 0.00900
v -0.50571 2.13762 0.01995
v -0.51066 2.13760 0.01500
v -0.48077 0.18193 0.00900
v -0.47177 0.18211 0.00000
v -0.50077 2.13772 0.01500
v -0.50571 2.13762 0.01995
v -0.47177 0.18211 0.00000
v -0.48077 0.18207 -0.00900
v -0.50571 2.13770 0.01005
v -0.50077 2.13772 0.01500
v -0.51411 0.28257 0.02000
v -0.38411 0.28257 0.02000
v -0.38411 0.47257 0.02000
v -0.51411 0.47257 0.02000
v -0.51411 0.47257 0.02000
v -0.38411 0.47257 0.02000
v -0.38411 0.28257 0.02000
v -0.51411 0.28257 0.02000
v -0.58596 0.77148 0.02000
v -0.45596 0.77148 0.02000
v -0.45596 0.96148 0.02000
v -0.58596 0.96148 0.02000
v -0.58596 0.96148 0.02000
v -0.45596 0.96148 0.02000
v -0.45596 0.77148 0.02000
v -0.58596 0.77148 0.02000
v -0.46279 1.26040 0.02000
v -0.33279 1.26040 0.02000
v -0.33279 1.45040 0.02000
v -0.46279 1.45040 0.02000
v -0.46279 1.45040 0.02000
v -0.33279 1.45040 0.02000
v -0.33279 1.26040 0.02000
v -0.46279 1.26040 0.02000
v -0.47901 1.74931 0.02000
v -0.34901 1.74931 0.02000
v -0.34901 1.93931 0.02000
v -0.47901 1.93931 0.02000
v -0.47901 1.93931 0.02000
v -0.34901 1.93931 0.02000
v -0.34901 1.74931 0.02000
v -0.47901 1.74931 0.02000
v 0.35036 0.23857 -0.00900
v 0.34136 0.23855 0.00000
v 0.35627 1.67136 0.01500
v 0.36122 1.67137 0.01005
v 0.34136 0.23855 0.00000
v 0.35036 0.23838 0.00900
v 0.36122 1.67127 0.01995
v 0.35627 1.67136 0.01500
v 0.35036 0.23838 0.00900
v 0.35936 0.23841 -0.00000
v 0.36617 1.67128 0.01500
v 0.36122 1.67127 0.01995
v 0.35936 0.23841 -0.00000
v 0.35036 0.23857 -0.00900
v 0.36122 1.67137 0.01005
v 0.36617 1.67128 0.01500
v 0.33163 0.28676 0.02000
v 0.46163 0.28676 0.02000
v 0.46163 0.47676 0.02000
v 0.33163 0.47676 0.02000
v 0.33163 0.47676 0.02000
v 0.46163 0.47676 0.02000
v 0.46163 0.28676 0.02000
v 0.33163 0.28676 0.02000
v 0.34565 0.64497 0.02000
v 0.47565 0.64497 0.02000
v 0.47565 0.83497 0.02000
v 0.34565 0.83497 0.02000
v 0.34565 0.83497 0.02000
v 0.47565 0.83497 0.02000
v 0.47565 0.64497 0.02000
v 0.34565 0.64497 0.02000
v 0.26341 1.00318 0.02000
v 0.39341 1.00318 0.02000
v 0.39341 1.19318 0.02000
v 0.26341 1.19318 0.02000
v 0.26341 1.19318 0.02000
v 0.39341 1.19318 0.02000
v 0.39341 1.00318 0.02000
v 0.26341 1.00318 0.02000
v 0.21306 1.36139 0.02000
v 0.34306 1.36139 0.02000
v 0.34306 1.55139 0.02000
v 0.21306 1.55139 0.02000
v 0.21306 1.55139 0.02000
v 0.34306 1.55139 0.02000
v 0.34306 1.36139 0.02000
v 0.21306 1.36139 0.02000
v 0.15158 0.02623 -0.00900
v 0.14260 0.02560 -0.00000
v 0.02831 1.93121 0.01500
v 0.03325 1.93156 0.01005
v 0.14260 0.02560 -0.00000
v 0.15158 0.02609 0.00900
v 0.03325 1.93148 0.01995
v 0.02831 1.93121 0.01500
v 0.15158 0.02609 0.00900
v 0.16056 0.02672 0.00000
v 0.03819 1.93183 0.01500
v 0.03325 1.93148 0.01995
v 0.16056 0.02672 0.00000
v 0.15158 0.02623 -0.00900
v 0.03325 1.93156 0.01005
v 0.03819 1.93183 0.01500
v 0.07748 0.12170 0.02000
v 0.20748 0.12170 0.02000
v 0.20748 0.31170 0.02000
v 0.07748 0.31170 0.02000
v 0.07748 0.31170 0.02000
v 0.20748 0.31170 0.02000
v 0.20748 0.12170 0.02000
v 0.07748 0.12170 0.02000
v 0.08253 0.59804 0.02000
v 0.21253 0.59804 0.02000
v 0.21253 0.78804 0.02000
v 0.08253 0.78804 0.02000
v 0.08253 0.78804 0.02000
v 0.21253 0.78804 0.02000
v 0.21253 0.59804 0.02000
v 0.08253 0.59804 0.02000
v 0.01054 1.07438 0.02000
v 0.14054 1.07438 0.02000
v 0.14054 1.26438 0.02000
v 0.01054 1.26438 0.02000
v 0.01054 1.26438 0.02000
v 0.14054 1.26438 0.02000
v 0.14054 1.07438 0.02000
v 0.01054 1.07438 0.02000
v 0.08262 1.55072 0.02000
v 0.21262 1.55072 0.02000
v 0.21262 1.74072 0.02000
v 0.08262 1.74072 0.02000
v 0.08262 1.74072 0.02000
v 0.21262 1.74072 0.02000
v 0.21262 1.55072 0.02000
v 0.08262 1.55072 0.02000
v 0.00008 0.09233 -0.00900
v -0.00891 0.09264 0.00000
v 0.08299 2.18875 0.01500
v 0.08794 2.18858 0.01005
v -0.00891 0.09264 0.00000
v 0.00008 0.09220 0.00900
v 0.08794 2.18851 0.01995
v 0.08299 2.18875 0.01500
v 0.00008 0.09220 0.00900
v 0.00907 0.09189 -0.00000
v 0.09288 2.18833 0.01500
v 0.08794 2.18851 0.01995
v 0.00907 0.09189 -0.00000
v 0.00008 0.09233 -0.00900
v 0.08794 2.18858 0.01005
v 0.09288 2.18833 0.01500
v 0.01319 0.20690 0.02000
v 0.14319 0.20690 0.02000
v 0.14319 0.39690 0.02000
v 0.01319 0.39690 0.02000
v 0.01319 0.39690 0.02000
v 0.14319 0.39690 0.02000
v 0.14319 0.20690 0.02000
v 0.01319 0.20690 0.02000
v -0.11594 0.73096 0.02000
v 0.01406 0.73096 0.02000
v 0.01406 0.92096 0.02000
v -0.11594 0.92096 0.02000
v -0.11594 0.92096 0.02000
v 0.01406 0.92096 0.02000
v 0.01406 0.73096 0.02000
v -0.11594 0.73096 0.02000
v -0.15974 1.25503 0.02000
v -0.02974 1.25503 0.02000
v -0.02974 1.44503 0.02000
v -0.15974 1.44503 0.02000
v -0.15974 1.44503 0.02000
v -0.02974 1.44503 0.02000
v -0.02974 1.25503 0.02000
v -0.15974 1.25503 0.02000
v -0.08960 1.77910 0.02000
v 0.04040 1.77910 0.02000
v 0.04040 1.96910 0.02000
v -0.08960 1.96910 0.02000
v -0.08960 1.96910 0.02000
v 0.04040 1.96910 0.02000
v 0.04040 1.77910 0.02000
v -0.08960 1.77910 0.02000
v -0.46361 0.17640 -0.00900
v -0.47259 0.17576 -0.00001
v -0.55774 1.63894 0.01500
v -0.55280 1.63930 0.01005
v -0.47259 0.17576 -0.00001
v -0.46361 0.17622 0.00900
v -0.55280 1.63919 0.01995
v -0.55774 1.63894 0.01500
v -0.46361 0.17622 0.00900
v -0.45463 0.17686 0.00001
v -0.54786 1.63955 0.01500
v -0.55280 1.63919 0.01995
v -0.45463 0.17686 0.00001
v -0.46361 0.17640 -0.00900
v -0.55280 1.63930 0.01005
v -0.54786 1.63955 0.01500
v -0.57187 0.22760 0.02000
v -0.44187 0.22760 0.02000
v -0.44187 0.41760 0.02000
v -0.57187 0.41760 0.02000
v -0.57187 0.41760 0.02000
v -0.44187 0.41760 0.02000
v -0.44187 0.22760 0.02000
v -0.57187 0.22760 0.02000
v -0.54793 0.59334 0.02000
v -0.41793 0.59334 0.02000
v -0.41793 0.78334 0.02000
v -0.54793 0.78334 0.02000
v -0.54793 0.78334 0.02000
v -0.41793 0.78334 0.02000
v -0.41793 0.59334 0.02000
v -0.54793 0.59334 0.02000
v -0.48153 0.95907 0.02000
v -0.35153 0.95907 0.02000
v -0.35153 1.14907 0.02000
v -0.48153 1.14907 0.02000
v -0.48153 1.14907 0.02000
v -0.35153 1.14907 0.02000
v -0.35153 0.95907 0.02000
v -0.48153 0.95907 0.02000
v -0.53640 1.32480 0.02000
v -0.40640 1.32480 0.02000
v -0.40640 1.51480 0.02000
v -0.53640 1.51480 0.02000
v -0.53640 1.51480 0.02000
v -0.40640 1.51480 0.02000
v -0.40640 1.32480 0.02000
v -0.53640 1.32480 0.02000
v -0.23859 0.16945 -0.00900
v -0.24757 0.16884 -0.00001
v -0.31332 1.41439 0.01500
v -0.30838 1.41473 0.01005
v -0.24757 0.16884 -0.00001
v -0.23859 0.16923 0.00900
v -0.30838 1.41461 0.01995
v -0.31332 1.41439 0.01500
v -0.23859 0.16923 0.00900
v -0.22960 0.16985 0.00001
v -0.30344 1.41495 0.01500
v -0.30838 1.41461 0.01995
v -0.22960 0.16985 0.00001
v -0.23859 0.16945 -0.00900
v -0.30838 1.41473 0.01005
v -0.30344 1.41495 0.01500
v -0.26609 0.19888 0.02000
v -0.13609 0.19888 0.02000
v -0.13609 0.38888 0.02000
v -0.26609 0.38888 0.02000
v -0.26609 0.38888 0.02000
v -0.13609 0.38888 0.02000
v -0.13609 0.19888 0.02000
v -0.26609 0.19888 0.02000
v -0.25318 0.51021 0.02000
v -0.12318 0.51021 0.02000
v -0.12318 0.70021 0.02000
v -0.25318 0.70021 0.02000
v -0.25318 0.70021 0.02000
v -0.12318 0.70021 0.02000
v -0.12318 0.51021 0.02000
v -0.25318 0.51021 0.02000
v -0.38333 0.82154 0.02000
v -0.25333 0.82154 0.02000
v -0.25333 1.01154 0.02000
v -0.38333 1.01154 0.02000
v -0.38333 1.01154 0.02000
v -0.25333 1.01154 0.02000
v -0.25333 0.82154 0.02000
v -0.38333 0.82154 0.02000
v -0.39029 1.13287 0.02000
v -0.26029 1.13287 0.02000
v -0.26029 1.32287 0.02000
v -0.39029 1.32287 0.02000
v -0.39029 1.32287 0.02000
v -0.26029 1.32287 0.02000
v -0.26029 1.13287 0.02000
v -0.39029 1.13287 0.02000
vt 0.00000 0.00000
vt 1.00000 0.00000
vt 1.00000 1.00000
vt 0.00000 1.00000
vt 0.00000 0.00000
vt 1.00000 0.00000
vt 1.00000 1.00000
vt 0.00000 1.00000
vt 0.00000 0.00000
vt 1.00000 0.00000
vt 1.00000 1.00000
vt 0.00000 1.00000
vt 0.00000 0.00000
vt 1.00000 0.00000
vt 1.00000 1.00000
vt 0.00000 1.00000
vt 0.00000 0.00000
vt 1.00000 0.00000
vt 1.00000 1.00000
vt 0.00000 1.00000
vt 0.00000 1.00000
vt 1.00000 1.00000
vt 1.00000 0.00000
vt 0.00000 0.00000
vt 0.00000 0.00000
vt 1.00000 0.00000
vt 1.00000 1.00000
vt 0.00000 1.00000
vt 0.00000 1.00000
vt 1.00000 1.00000
vt 1.00000 0.00000
vt 0.00000 0.00000
vt 0.00000 0.00000
vt 1.00000 0.00000
vt 1.00000 1.00000
vt 0.00000 1.00000
vt 0.00000 1.00000
vt 1.00000 1.00000
vt 1.00000 0.00000
vt 0.00000 0.00000
vt 0.00000 0.00000
vt 1.00000 0.00000
vt 1.00000 1.00000
vt 0.00000 1.00000
vt 0.00000 1.00000
vt 1.00000 1.00000
vt 1.00000 0.00000
vt 0.00000 0.00000
vt 0.00000 0.00000
vt 1.00000 0.00000
vt 1.00000 1.00000
vt 0.00000 1.00000
vt 0.00000 0.00000
vt 1.00000 0.00000
vt 1.00000 1.00000
vt 0.00000 1.00000
vt 0.00000 0.00000
vt 1.00000 0.00000
vt 1.00000 1.00000
vt 0.00000 1.00000
vt 0.00000 0.00000
vt 1.00000 0.00000
vt 1.00000 1.00000
vt 0.00000 1.00000
vt 0.00000 0.00000
vt 1.00000 0.00000
vt 1.00000 1.00000
vt 0.00000 1.00000
vt 0.00000 1.00000
vt 1.00000 1.00000
vt 1.00000 0.00000
vt 0.00000 0.00000
vt 0.00000 0.00000
vt 1.00000 0.00000
vt 1.00000 1.00000
vt 0.00000 1.00000
vt 0.00000 1.00000
vt 1.00000 1.00000
vt 1.00000 0.00000
vt 0.00000 0.00000
vt 0.00000 0.00000
vt 1.00000 0.00000
vt 1.00000 1.00000
vt 0.00000 1.00000
vt 0.00000 1.00000
vt 1.00000 1.00000
vt 1.00000 0.00000
vt 0.00000 0.00000
vt 0.00000 0.00000
vt 1.00000 0.00000
vt 1.00000 1.00000
vt 0.00000 1.00000
vt 0.00000 1.00000
vt 1.00000 1.00000
vt 1.00000 0.00000
vt 0.00000 0.00000
vt 0.00000 0.00000
vt 1.00000 0.00000
vt 1.00000 1.00000
vt 0.00000 1.00000
vt 0.00000 0.00000
vt 1.00000 0.00000
vt 1.00000 1.00000
vt 0.00000 1.00000
vt 0.00000 0.00000
vt 1.00000 0.00000
vt 1.00000 1.00000
vt 0.00000 1.00000
vt 0.00000 0.00000
vt 1.00000 0.00000
vt 1.00000 1.00000
vt 0.00000 1.00000
vt 0.00000 0.00000
vt 1.00000 0.00000
vt 1.00000 1.00000
vt 0.00000 1.00000
vt 0.00000 1.00000
vt 1.00000 1.00000
vt 1.00000 0.00000
vt 0.00000 0.00000
vt 0.00000 0.00000
vt 1.00000 0.00000
vt 1.00000 1.00000
vt 0.00000 1.00000
vt 0.00000 1.00000
vt 1.00000 1.00000
vt 1.00000 0.00000
vt 0.00000 0.00000
vt 0.00000 0.00000
vt 1.00000 0.00000
vt 1.00000 1.00000
vt 0.00000 1.00000
vt 0.00000 1.00000
vt 1.00000 1.00000
vt 1.00000 0.00000
vt 0.00000 0.00000
vt 0.00000 0.00000
vt 1.00000 0.00000
vt 1.00000 1.00000
vt 0.00000 1.00000
vt 0.00000 1.00000
vt 1.00000 1.00000
vt 1.00000 0.00000
vt 0.00000 0.00000
vt 0.00000 0.00000
vt 1.00000 0.00000
vt 1.00000 1.00000
vt 0.00000 1.00000
vt 0.00000 0.00000
vt 1.00000 0.00000
vt 1.00000 1.00000
vt 0.00000 1.00000
vt 0.00000 0.00000
vt 1.00000 0.00000
vt 1.00000 1.00000
vt 0.00000 1.00000
vt 0.00000 0.00000
vt 1.00000 0.00000
vt 1.00000 1.00000
vt 0.00000 1.00000
vt 0.00000 0.00000
vt 1.00000 0.00000
vt 1.00000 1.00000
vt 0.00000 1.00000
vt 0.00000 1.00000
vt 1.00000 1.00000
vt 1.00000 0.00000
vt 0.00000 0.00000
vt 0.00000 0.00000
vt 1.00000 0.00000
vt 1.00000 1.00000
vt 0.00000 1.00000
vt 0.00000 1.00000
vt 1.00000 1.00000
vt 1.00000 0.00000
vt 0.00000 0.00000
vt 0.00000 0.00000
vt 1.00000 0.00000
vt 1.00000 1.00000
vt 0.00000 1.00000
vt 0.00000 1.00000
vt 1.00000 1.00000
vt 1.00000 0.00000
vt 0.00000 0.00000
vt 0.00000 0.00000
vt 1.00000 0.00000
vt 1.00000 1.00000
vt 0.00000 1.00000
vt 0.00000 1.00000
vt 1.00000 1.00000
vt 1.00000 0.00000
vt 0.00000 0.00000
vt 0.00000 0.00000
vt 1.00000 0.00000
vt 1.00000 1.00000
vt 0.00000 1.00000
vt 0.00000 0.00000
vt 1.00000 0.00000
vt 1.00000 1.00000
vt 0.00000 1.00000
vt 0.00000 0.00000
vt 1.00000 0.00000
vt 1.00000 1.00000
vt 0.00000 1.00000
vt 0.00000 0.00000
vt 1.00000 0.00000
vt 1.00000 1.00000
vt 0.00000 1.00000
vt 0.00000 0.00000
vt 1.00000 0.00000
vt 1.00000 1.00000
vt 0.00000 1.00000
vt 0.00000 1.00000
vt 1.00000 1.00000
vt 1.00000 0.00000
vt 0.00000 0.00000
vt 0.00000 0.00000
vt 1.00000 0.00000
vt 1.00000 1.00000
vt 0.00000 1.00000
vt 0.00000 1.00000
vt 1.00000 1.00000
vt 1.00000 0.00000
vt 0.00000 0.00000
vt 0.00000 0.00000
vt 1.00000 0.00000
vt 1.00000 1.00000
vt 0.00000 1.00000
vt 0.00000 1.00000
vt 1.00000 1.00000
vt 1.00000 0.00000
vt 0.00000 0.00000
vt 0.00000 0.00000
vt 1.00000 0.00000
vt 1.00000 1.00000
vt 0.00000 1.00000
vt 0.00000 1.00000
vt 1.00000 1.00000
vt 1.00000 0.00000
vt 0.00000 0.00000
vt 0.00000 0.00000
vt 1.00000 0.00000
vt 1.00000 1.00000
vt 0.00000 1.00000
vt 0.00000 0.00000
vt 1.00000 0.00000
vt 1.00000 1.00000
vt 0.00000 1.00000
vt 0.00000 0.00000
vt 1.00000 0.00000
vt 1.00000 1.00000
vt 0.00000 1.00000
vt 0.00000 0.00000
vt 1.00000 0.00000
vt 1.00000 1.00000
vt 0.00000 1.00000
vt 0.00000 0.00000
vt 1.00000 0.00000
vt 1.00000 1.00000
vt 0.00000 1.00000
vt 0.00000 1.00000
vt 1.00000 1.00000
vt 1.00000 0.00000
vt 0.00000 0.00000
vt 0.00000 0.00000
vt 1.00000 0.00000
vt 1.00000 1.00000
vt 0.00000 1.00000
vt 0.00000 1.00000
vt 1.00000 1.00000
vt 1.00000 0.00000
vt 0.00000 0.00000
vt 0.00000 0.00000
vt 1.00000 0.00000
vt 1.00000 1.00000
vt 0.00000 1.00000
vt 0.00000 1.00000
vt 1.00000 1.00000
vt 1.00000 0.00000
vt 0.00000 0.00000
vt 0.00000 0.00000
vt 1.00000 0.00000
vt 1.00000 1.00000
vt 0.00000 1.00000
vt 0.00000 1.00000
vt 1.00000 1.00000
vt 1.00000 0.00000
vt 0.00000 0.00000
vt 0.00000 0.00000
vt 1.00000 0.00000
vt 1.00000 1.00000
vt 0.00000 1.00000
vt 0.00000 0.00000
vt 1.00000 0.00000
vt 1.00000 1.00000
vt 0.00000 1.00000
vt 0.00000 0.00000
vt 1.00000 0.00000
vt 1.00000 1.00000
vt 0.00000 1.00000
vt 0.00000 0.00000
vt 1.00000 0.00000
vt 1.00000 1.00000
vt 0.00000 1.00000
vt 0.00000 0.00000
vt 1.00000 0.00000
vt 1.00000 1.00000
vt 0.00000 1.00000
vt 0.00000 1.00000
vt 1.00000 1.00000
vt 1.00000 0.00000
vt 0.00000 0.00000
vt 0.00000 0.00000
vt 1.00000 0.00000
vt 1.00000 1.00000
vt 0.00000 1.00000
vt 0.00000 1.00000
vt 1.00000 1.00000
vt 1.00000 0.00000
vt 0.00000 0.00000
vt 0.00000 0.00000
vt 1.00000 0.00000
vt 1.00000 1.00000
vt 0.00000 1.00000
vt 0.00000 1.00000
vt 1.00000 1.00000
vt 1.00000 0.00000
vt 0.00000 0.00000
vt 0.00000 0.00000
vt 1.00000 0.00000
vt 1.00000 1.00000
vt 0.00000 1.00000
vt 0.00000 1.00000
vt 1.00000 1.00000
vt 1.00000 0.00000
vt 0.00000 0.00000
vt 0.00000 0.00000
vt 1.00000 0.00000
vt 1.00000 1.00000
vt 0.00000 1.00000
vt 0.00000 0.00000
vt 1.00000 0.00000
vt 1.00000 1.00000
vt 0.00000 1.00000
vt 0.00000 0.00000
vt 1.00000 0.00000
vt 1.00000 1.00000
vt 0.00000 1.00000
vt 0.00000 0.00000
vt 1.00000 0.00000
vt 1.00000 1.00000
vt 0.00000 1.00000
vt 0.00000 0.00000
vt 1.00000 0.00000
vt 1.00000 1.00000
vt 0.00000 1.00000
vt 0.00000 1.00000
vt 1.00000 1.00000
vt 1.00000 0.00000
vt 0.00000 0.00000
vt 0.00000 0.00000
vt 1.00000 0.00000
vt 1.00000 1.00000
vt 0.00000 1.00000
vt 0.00000 1.00000
vt 1.00000 1.00000
vt 1.00000 0.00000
vt 0.00000 0.00000
vt 0.00000 0.00000
vt 1.00000 0.00000
vt 1.00000 1.00000
vt 0.00000 1.00000
vt 0.00000 1.00000
vt 1.00000 1.00000
vt 1.00000 0.00000
vt 0.00000 0.00000
vt 0.00000 0.00000
vt 1.00000 0.00000
vt 1.00000 1.00000
vt 0.00000 1.00000
vt 0.00000 1.00000
vt 1.00000 1.00000
vt 1.00000 0.00000
vt 0.00000 0.00000
vt 0.00000 0.00000
vt 1.00000 0.00000
vt 1.00000 1.00000
vt 0.00000 1.00000
vt 0.00000 0.00000
vt 1.00000 0.00000
vt 1.00000 1.00000
vt 0.00000 1.00000
vt 0.00000 0.00000
vt 1.00000 0.00000
vt 1.00000 1.00000
vt 0.00000 1.00000
vt 0.00000 0.00000
vt 1.00000 0.00000
vt 1.00000 1.00000
vt 0.00000 1.00000
vt 0.00000 0.00000
vt 1.00000 0.00000
vt 1.00000 1.00000
vt 0.00000 1.00000
vt 0.00000 1.00000
vt 1.00000 1.00000
vt 1.00000 0.00000
vt 0.00000 0.00000
vt 0.00000 0.00000
vt 1.00000 0.00000
vt 1.00000 1.00000
vt 0.00000 1.00000
vt 0.00000 1.00000
vt 1.00000 1.00000
vt 1.00000 0.00000
vt 0.00000 0.00000
vt 0.00000 0.00000
vt 1.00000 0.00000
vt 1.00000 1.00000
vt 0.00000 1.00000
vt 0.00000 1.00000
vt 1.00000 1.00000
vt 1.00000 0.00000
vt 0.00000 0.00000
vt 0.00000 0.00000
vt 1.00000 0.00000
vt 1.00000 1.00000
vt 0.00000 1.00000
vt 0.00000 1.00000
vt 1.00000 1.00000
vt 1.00000 0.00000
vt 0.00000 0.00000
vn -0.70710 0.00896 -0.70705
vn -0.70710 -0.00337 0.70710
vn 0.70711 -0.00563 0.70708
vn 0.70711 0.00670 -0.70707
vn 0.00000 0.00000 1.00000
vn -0.00000 -0.00000 -1.00000
vn 0.00000 0.00000 1.00000
vn -0.00000 -0.00000 -1.00000
vn 0.00000 0.00000 1.00000
vn -0.00000 -0.00000 -1.00000
vn 0.00000 0.00000 1.00000
vn -0.00000 -0.00000 -1.00000
vn -0.70670 -0.01695 -0.70731
vn -0.70670 -0.03084 0.70684
vn 0.70657 0.02070 0.70734
vn 0.70657 0.03458 -0.70680
vn 0.00000 0.00000 1.00000
vn -0.00000 -0.00000 -1.00000
vn 0.00000 0.00000 1.00000
vn -0.00000 -0.00000 -1.00000
vn 0.00000 0.00000 1.00000
vn -0.00000 -0.00000 -1.00000
vn 0.00000 0.00000 1.00000
vn -0.00000 -0.00000 -1.00000
vn -0.70707 0.01474 -0.70699
vn -0.70707 -0.00039 0.70714
vn 0.70710 -0.01066 0.70703
vn 0.70710 0.00447 -0.70710
vn 0.00000 0.00000 1.00000
vn -0.00000 -0.00000 -1.00000
vn 0.00000 0.00000 1.00000
vn -0.00000 -0.00000 -1.00000
vn 0.00000 0.00000 1.00000
vn -0.00000 -0.00000 -1.00000
vn 0.00000 0.00000 1.00000
vn -0.00000 -0.00000 -1.00000
vn -0.70707 -0.00213 -0.70714
vn -0.70707 -0.01298 0.70703
vn 0.70703 0.00506 0.70717
vn 0.70703 0.01591 -0.70700
vn 0.00000 0.00000 1.00000
vn -0.00000 -0.00000 -1.00000
vn 0.00000 0.00000 1.00000
vn -0.00000 -0.00000 -1.00000
vn 0.00000 0.00000 1.00000
vn -0.00000 -0.00000 -1.00000
vn 0.00000 0.00000 1.00000
vn -0.00000 -0.00000 -1.00000
vn -0.70707 0.01476 -0.70699
vn -0.70707 -0.00004 0.70714
vn 0.70710 -0.01076 0.70703
vn 0.70710 0.00404 -0.70710
vn 0.00000 0.00000 1.00000
vn -0.00000 -0.00000 -1.00000
vn 0.00000 0.00000 1.00000
vn -0.00000 -0.00000 -1.00000
vn 0.00000 0.00000 1.00000
vn -0.00000 -0.00000 -1.00000
vn 0.00000 0.00000 1.00000
vn -0.00000 -0.00000 -1.00000
vn -0.70584 -0.03676 -0.70742
vn -0.70584 -0.04790 0.70675
vn 0.70565 0.03976 0.70744
vn 0.70565 0.05089 -0.70673
vn 0.00000 0.00000 1.00000
vn -0.00000 -0.00000 -1.00000
vn 0.00000 0.00000 1.00000
vn -0.00000 -0.00000 -1.00000
vn 0.00000 0.00000 1.00000
vn -0.00000 -0.00000 -1.00000
vn 0.00000 0.00000 1.00000
vn -0.00000 -0.00000 -1.00000
vn -0.70643 0.03603 -0.70687
vn -0.70643 0.02591 0.70731
vn 0.70654 -0.03330 0.70689
vn 0.70654 -0.02318 -0.70729
vn 0.00000 0.00000 1.00000
vn -0.00000 -0.00000 -1.00000
vn 0.00000 0.00000 1.00000
vn -0.00000 -0.00000 -1.00000
vn 0.00000 0.00000 1.00000
vn -0.00000 -0.00000 -1.00000
vn 0.00000 0.00000 1.00000
vn -0.00000 -0.00000 -1.00000
vn -0.70591 -0.03382 -0.70749
vn -0.70591 -0.04832 0.70665
vn 0.70568 0.03772 0.70753
vn 0.70568 0.05222 -0.70661
vn 0.00000 0.00000 1.00000
vn -0.00000 -0.00000 -1.00000
vn 0.00000 0.00000 1.00000
vn -0.00000 -0.00000 -1.00000
vn 0.00000 0.00000 1.00000
vn -0.00000 -0.00000 -1.00000
vn 0.00000 0.00000 1.00000
vn -0.00000 -0.00000 -1.00000
vn -0.70613 -0.02875 -0.70750
vn -0.70613 -0.04578 0.70660
vn 0.70587 0.03334 0.70756
vn 0.70587 0.05037 -0.70655
vn 0.00000 0.00000 1.00000
vn -0.00000 -0.00000 -1.00000
vn 0.00000 0.00000 1.00000
vn -0.00000 -0.00000 -1.00000
vn 0.00000 0.00000 1.00000
vn -0.00000 -0.00000 -1.00000
vn 0.00000 0.00000 1.00000
vn -0.00000 -0.00000 -1.00000
usemtl vine_leaf
f 1/1/1 2/2/1 3/3/1 4/4/1
f 5/5/2 6/6/2 7/7/2 8/8/2
f 9/9/3 10/10/3 11/11/3 12/12/3
f 13/13/4 14/14/4 15/15/4 16/16/4
f 17/17/5 18/18/5 19/19/5 20/20/5
f 21/21/6 22/22/6 23/23/6 24/24/6
f 25/25/7 26/26/7 27/27/7 28/28/7
f 29/29/8 30/30/8 31/31/8 32/32/8
f 33/33/9 34/34/9 35/35/9 36/36/9
f 37/37/10 38/38/10 39/39/10 40/40/10
f 41/41/11 42/42/11 43/43/11 44/44/11
f 45/45/12 46/46/12 47/47/12 48/48/12
f 49/49/13 50/50/13 51/51/13 52/52/13
f 53/53/14 54/54/14 55/55/14 56/56/14
f 57/57/15 58/58/15 59/59/15 60/60/15
f 61/61/16 62/62/16 63/63/16 64/64/16
f 65/65/17 66/66/17 67/67/17 68/68/17
f 69/69/18 70/70/18 71/71/18 72/72/18
f 73/73/19 74/74/19 75/75/19 76/76/19
f 77/77/20 78/78/20 79/79/20 80/80/20
f 81/81/21 82/82/21 83/83/21 84/84/21
f 85/85/22 86/86/22 87/87/22 88/88/22
f 89/89/23 90/90/23 91/91/23 92/92/23
f 93/93/24 94/94/24 95/95/24 96/96/24
f 97/97/25 98/98/25 99/99/25 100/100/25
f 101/101/26 102/102/26 103/103/26 104/104/26
f 105/105/27 106/106/27 107/107/27 108/108/27
f 109/109/28 110/110/28 111/111/28 112/112/28
f 113/113/29 114/114/29 115/115/29 116/116/29
f 117/117/30 118/118/30 119/119/30 120/120/30
f 121/121/31 122/122/31 123/123/31 124/124/31
f 125/125/32 126/126/32 127/127/32 128/128/32
f 129/129/33 130/130/33 131/131/33 132/132/33
f 133/133/34 134/134/34 135/135/34 136/136/34
f 137/137/35 138/138/35 139/139/35 140/140/35
f 141/141/36 142/142/36 143/143/36 144/144/36
f 145/145/37 146/146/37 147/147/37 148/148/37
f 149/149/38 150/150/38 151/151/38 152/152/38
f 153/153/39 154/154/39 155/155/39 156/156/39
f 157/157/40 158/158/40 159/159/40 160/160/40
f 161/161/41 162/162/41 163/163/41 164/164/41
f 165/165/42 166/166/42 167/167/42 168/168/42
f 169/169/43 170/170/43 171/171/43 172/172/43
f 173/173/44 174/174/44 175/175/44 176/176/44
f 177/177/45 178/178/45 179/179/45 180/180/45
f 181/181/46 182/182/46 183/183/46 184/184/46
f 185/185/47 186/186/47 187/187/47 188/188/47
f 189/189/48 190/190/48 191/191/48 192/192/48
f 193/193/49 194/194/49 195/195/49 196/196/49
f 197/197/50 198/198/50 199/199/50 200/200/50
f 201/201/51 202/202/51 203/203/51 204/204/51
f 205/205/52 206/206/52 207/207/52 208/208/52
f 209/209/53 210/210/53 211/211/53 212/212/53
f 213/213/54 214/214/54 215/215/54 216/216/54
f 217/217/55 218/218/55 219/219/55 220/220/55
f 221/221/56 222/222/56 223/223/56 224/224/56
f 225/225/57 226/226/57 227/227/57 228/228/57
f 229/229/58 230/230/58 231/231/58 232/232/58
f 233/233/59 234/234/59 235/235/59 236/236/59
f 237/237/60 238/238/60 239/239/60 240/240/60
f 241/241/61 242/242/61 243/243/61 244/244/61
f 245/245/62 246/246/62 247/247/62 248/248/62
f 249/249/63 250/250/63 251/251/63 252/252/63
f 253/253/64 254/254/64 255/255/64 256/256/64
f 257/257/65 258/258/65 259/259/65 260/260/65
f 261/261/66 262/262/66 263/263/66 264/264/66
f 265/265/67 266/266/67 267/267/67 268/268/67
f 269/269/68 270/270/68 271/271/68 272/272/68
f 273/273/69 274/274/69 275/275/69 276/276/69
f 277/277/70 278/278/70 279/279/70 280/280/70
f 281/281/71 282/282/71 283/283/71 284/284/71
f 285/285/72 286/286/72 287/287/72 288/288/72
f 289/289/73 290/290/73 291/291/73 292/292/73
f 293/293/74 294/294/74 295/295/74 296/296/74
f 297/297/75 298/298/75 299/299/75 300/300/75
f 301/301/76 302/302/76 303/303/76 304/304/76
f 305/305/77 306/306/77 307/307/77 308/308/77
f 309/309/78 310/310/78 311/311/78 312/312/78
f 313/313/79 314/314/79 315/315/79 316/316/79
f 317/317/80 318/318/80 319/319/80 320/320/80
f 321/321/81 322/322/81 323/323/81 324/324/81
f 325/325/82 326/326/82 327/327/82 328/328/82
f 329/329/83 330/330/83 331/331/83 332/332/83
f 333/333/84 334/334/84 335/335/84 336/336/84
f 337/337/85 338/338/85 339/339/85 340/340/85
f 341/341/86 342/342/86 343/343/86 344/344/86
f 345/345/87 346/346/87 347/347/87 348/348/87
f 349/349/88 350/350/88 351/351/88 352/352/88
f 353/353/89 354/354/89 355/355/89 356/356/89
f 357/357/90 358/358/90 359/359/90 360/360/90
f 361/361/91 362/362/91 363/363/91 364/364/91
f 365/365/92 366/366/92 367/367/92 368/368/92
f 369/369/93 370/370/93 371/371/93 372/372/93
f 373/373/94 374/374/94 375/375/94 376/376/94
f 377/377/95 378/378/95 379/379/95 380/380/95
f 381/381/96 382/382/96 383/383/96 384/384/96
f 385/385/97 386/386/97 387/387/97 388/388/97
f 389/389/98 390/390/98 391/391/98 392/392/98
f 393/393/99 394/394/99 395/395/99 396/396/99
f 397/397/100 398/398/100 399/399/100 400/400/100
f 401/401/101 402/402/101 403/403/101 404/404/101
f 405/405/102 406/406/102 407/407/102 408/408/102
f 409/409/103 410/410/103 411/411/103 412/412/103
f 413/413/104 414/414/104 415/415/104 416/416/104
f 417/417/105 418/418/105 419/419/105 420/420/105
f 421/421/106 422/422/106 423/423/106 424/424/106
f 425/425/107 426/426/107 427/427/107 428/428/107
f 429/429/108 430/430/108 431/431/108 432/432/108