# midcity_olive_tree
mtllib nomad_vegetation.mtl
o midcity_olive_tree
v 0.11000 0.00000 0.00000
v 0.07778 0.00000 0.07778
v 0.05445 1.65000 0.05445
v 0.07700 1.65000 0.00000
v 0.07778 0.00000 0.07778
v 0.00000 0.00000 0.11000
v 0.00000 1.65000 0.07700
v 0.05445 1.65000 0.05445
v 0.00000 0.00000 0.11000
v -0.07778 0.00000 0.07778
v -0.05445 1.65000 0.05445
v 0.00000 1.65000 0.07700
v -0.07778 0.00000 0.07778
v -0.11000 0.00000 0.00000
v -0.07700 1.65000 0.00000
v -0.05445 1.65000 0.05445
v -0.11000 0.00000 0.00000
v -0.07778 0.00000 -0.07778
v -0.05445 1.65000 -0.05445
v -0.07700 1.65000 0.00000
v -0.07778 0.00000 -0.07778
v -0.00000 0.00000 -0.11000
v -0.00000 1.65000 -0.07700
v -0.05445 1.65000 -0.05445
v -0.00000 0.00000 -0.11000
v 0.07778 0.00000 -0.07778
v 0.05445 1.65000 -0.05445
v -0.00000 1.65000 -0.07700
v 0.07778 0.00000 -0.07778
v 0.11000 0.00000 -0.00000
v 0.07700 1.65000 -0.00000
v 0.05445 1.65000 -0.05445
v 0.00000 0.00000 0.00000
v 0.07778 0.00000 0.07778
v 0.11000 0.00000 0.00000
v 0.00000 1.65000 0.00000
v 0.07700 1.65000 0.00000
v 0.05445 1.65000 0.05445
v 0.00000 0.00000 0.00000
v 0.00000 0.00000 0.11000
v 0.07778 0.00000 0.07778
v 0.00000 1.65000 0.00000
v 0.05445 1.65000 0.05445
v 0.00000 1.65000 0.07700
v 0.00000 0.00000 0.00000
v -0.07778 0.00000 0.07778
v 0.00000 0.00000 0.11000
v 0.00000 1.65000 0.00000
v 0.00000 1.65000 0.07700
v -0.05445 1.65000 0.05445
v 0.00000 0.00000 0.00000
v -0.11000 0.00000 0.00000
v -0.07778 0.00000 0.07778
v 0.00000 1.65000 0.00000
v -0.05445 1.65000 0.05445
v -0.07700 1.65000 0.00000
v 0.00000 0.00000 0.00000
v -0.07778 0.00000 -0.07778
v -0.11000 0.00000 0.00000
v 0.00000 1.65000 0.00000
v -0.07700 1.65000 0.00000
v -0.05445 1.65000 -0.05445
v 0.00000 0.00000 0.00000
v -0.00000 0.00000 -0.11000
v -0.07778 0.00000 -0.07778
v 0.00000 1.65000 0.00000
v -0.05445 1.65000 -0.05445
v -0.00000 1.65000 -0.07700
v 0.00000 0.00000 0.00000
v 0.07778 0.00000 -0.07778
v -0.00000 0.00000 -0.11000
v 0.00000 1.65000 0.00000
v -0.00000 1.65000 -0.07700
v 0.05445 1.65000 -0.05445
v 0.00000 0.00000 0.00000
v 0.11000 0.00000 -0.00000
v 0.07778 0.00000 -0.07778
v 0.00000 1.65000 0.00000
v 0.05445 1.65000 -0.05445
v 0.07700 1.65000 -0.00000
v 0.00000 1.20000 0.04000
v 0.02458 1.17096 0.01236
v 0.84680 1.88931 0.00680
v 0.83328 1.90528 0.02200
v 0.02458 1.17096 0.01236
v 0.01519 1.18205 -0.03236
v 0.84164 1.89541 -0.01780
v 0.84680 1.88931 0.00680
v 0.01519 1.18205 -0.03236
v -0.01519 1.21795 -0.03236
v 0.82493 1.91515 -0.01780
v 0.84164 1.89541 -0.01780
v -0.01519 1.21795 -0.03236
v -0.02458 1.22904 0.01236
v 0.81977 1.92125 0.00680
v 0.82493 1.91515 -0.01780
v -0.02458 1.22904 0.01236
v -0.00000 1.20000 0.04000
v 0.83328 1.90528 0.02200
v 0.81977 1.92125 0.00680
v -0.01772 1.20000 0.03586
v 0.01886 1.17335 0.02311
v 0.66007 1.92353 0.33368
v 0.63995 1.93819 0.34070
v 0.01886 1.17335 0.02311
v 0.02938 1.18353 -0.02158
v 0.66585 1.92913 0.30910
v 0.66007 1.92353 0.33368
v 0.02938 1.18353 -0.02158
v -0.00071 1.21647 -0.03644
v 0.64931 1.94725 0.30093
v 0.66585 1.92913 0.30910
v -0.00071 1.21647 -0.03644
v -0.02981 1.22665 -0.00094
v 0.63330 1.95285 0.32045
v 0.64931 1.94725 0.30093
v -0.02981 1.22665 -0.00094
v -0.01772 1.20000 0.03586
v 0.63995 1.93819 0.34070
v 0.63330 1.95285 0.32045
v -0.03992 1.20000 0.00250
v -0.01060 1.17398 0.02847
v 0.04443 2.04492 0.81946
v 0.02831 2.05923 0.80517
v -0.01060 1.17398 0.02847
v 0.03337 1.18392 0.01510
v 0.06862 2.05039 0.81211
v 0.04443 2.04492 0.81946
v 0.03337 1.18392 0.01510
v 0.03123 1.21608 -0.01914
v 0.06744 2.06808 0.79327
v 0.06862 2.05039 0.81211
v 0.03123 1.21608 -0.01914
v -0.01407 1.22602 -0.02693
v 0.04253 2.07354 0.78899
v 0.06744 2.06808 0.79327
v -0.01407 1.22602 -0.02693
v -0.03992 1.20000 0.00250
v 0.02831 2.05923 0.80517
v 0.04253 2.07354 0.78899
v 0.00000 1.21134 -0.03836
v -0.03653 1.19332 -0.01487
v -0.42027 2.51594 0.38209
v -0.40018 2.52585 0.36917
v -0.03653 1.19332 -0.01487
v -0.02258 1.18453 0.02917
v -0.41260 2.51110 0.40631
v -0.42027 2.51594 0.38209
v -0.02258 1.18453 0.02917
v 0.02258 1.19712 0.03289
v -0.38776 2.51803 0.40836
v -0.41260 2.51110 0.40631
v 0.02258 1.19712 0.03289
v 0.03653 1.21369 -0.00884
v -0.38009 2.52714 0.38541
v -0.38776 2.51803 0.40836
v 0.03653 1.21369 -0.00884
v 0.00000 1.21134 -0.03836
v -0.40018 2.52585 0.36917
v -0.38009 2.52714 0.38541
v 0.00245 1.20000 -0.03993
v -0.03277 1.18214 -0.01439
v -0.70730 2.48924 -0.05019
v -0.68793 2.49907 -0.06423
v -0.03277 1.18214 -0.01439
v -0.02270 1.18896 0.03103
v -0.70177 2.49300 -0.02520
v -0.70730 2.48924 -0.05019
v -0.02270 1.18896 0.03103
v 0.01874 1.21104 0.03357
v -0.67897 2.50514 -0.02381
v -0.70177 2.49300 -0.02520
v 0.01874 1.21104 0.03357
v 0.03428 1.21786 -0.01028
v -0.67042 2.50889 -0.04792
v -0.67897 2.50514 -0.02381
v 0.03428 1.21786 -0.01028
v 0.00245 1.20000 -0.03993
v -0.68793 2.49907 -0.06423
v -0.67042 2.50889 -0.04792
v 0.02854 1.20000 -0.02803
v -0.01496 1.18280 -0.03287
v -0.41001 2.32163 -0.42718
v -0.38609 2.33109 -0.42451
v -0.01496 1.18280 -0.03287
v -0.03778 1.18937 0.00771
v -0.42257 2.32524 -0.40485
v -0.41001 2.32163 -0.42718
v -0.03778 1.18937 0.00771
v -0.00839 1.21063 0.03764
v -0.40640 2.33693 -0.38840
v -0.42257 2.32524 -0.40485
v -0.00839 1.21063 0.03764
v 0.03259 1.21720 0.01555
v -0.38386 2.34055 -0.40055
v -0.40640 2.33693 -0.38840
v 0.03259 1.21720 0.01555
v 0.02854 1.20000 -0.02803
v -0.38609 2.33109 -0.42451
v -0.38386 2.34055 -0.40055
v 0.02628 1.20000 0.03016
v 0.03219 1.17931 -0.01165
v 0.52707 2.23079 -0.45018
v 0.52382 2.24217 -0.42719
v 0.03219 1.17931 -0.01165
v -0.00638 1.18721 -0.03736
v 0.50586 2.23513 -0.46432
v 0.52707 2.23079 -0.45018
v -0.00638 1.18721 -0.03736
v -0.03613 1.21279 -0.01144
v 0.48950 2.24920 -0.45007
v 0.50586 2.23513 -0.46432
v -0.03613 1.21279 -0.01144
v -0.01595 1.22069 0.03029
v 0.50060 2.25355 -0.42712
v 0.48950 2.24920 -0.45007
v -0.01595 1.22069 0.03029
v 0.02628 1.20000 0.03016
v 0.52382 2.24217 -0.42719
v 0.50060 2.25355 -0.42712
v 1.07549 1.54550 -0.30650
v 1.00840 1.54550 0.18736
v 1.03582 2.28159 0.19109
v 1.10292 2.28159 -0.30277
v 1.10292 2.28159 -0.30277
v 1.03582 2.28159 0.19109
v 1.00840 1.54550 0.18736
v 1.07549 1.54550 -0.30650
v 1.30226 1.38410 0.28863
v 0.75428 1.38410 0.11023
v 0.73482 2.19229 0.17000
v 1.28281 2.19229 0.34839
v 1.28281 2.19229 0.34839
v 0.73482 2.19229 0.17000
v 0.75428 1.38410 0.11023
v 1.30226 1.38410 0.28863
v 0.65089 1.54033 0.28194
v 1.12603 1.54033 0.11431
v 1.11739 2.12990 0.08983
v 0.64225 2.12990 0.25747
v 0.64225 2.12990 0.25747
v 1.11739 2.12990 0.08983
v 1.12603 1.54033 0.11431
v 0.65089 1.54033 0.28194
v 0.58120 1.49889 -0.46222
v 0.86560 1.49889 0.07915
v 0.94318 2.09804 0.03840
v 0.65879 2.09804 -0.50298
v 0.65879 2.09804 -0.50298
v 0.94318 2.09804 0.03840
v 0.86560 1.49889 0.07915
v 0.58120 1.49889 -0.46222
v 0.52587 1.54218 0.02989
v 1.02034 1.54218 0.04224
v 1.01920 2.17043 0.08783
v 0.52473 2.17043 0.07547
v 0.52473 2.17043 0.07547
v 1.01920 2.17043 0.08783
v 1.02034 1.54218 0.04224
v 0.52587 1.54218 0.02989
v 0.93279 1.52319 -0.26542
v 0.95276 1.52319 0.22090
v 0.86937 2.16640 0.22432
v 0.84940 2.16640 -0.26199
v 0.84940 2.16640 -0.26199
v 0.86937 2.16640 0.22432
v 0.95276 1.52319 0.22090
v 0.93279 1.52319 -0.26542
v 0.83453 1.50085 0.48205
v 0.35951 1.50085 0.46431
v 0.35912 2.19835 0.47470
v 0.83414 2.19835 0.49243
v 0.83414 2.19835 0.49243
v 0.35912 2.19835 0.47470
v 0.35951 1.50085 0.46431
v 0.83453 1.50085 0.48205
v 0.53264 1.49341 0.51301
v 0.57445 1.49341 -0.00038
v 0.48797 2.27664 -0.00742
v 0.44616 2.27664 0.50596
v 0.44616 2.27664 0.50596
v 0.48797 2.27664 -0.00742
v 0.57445 1.49341 -0.00038
v 0.53264 1.49341 0.51301
v 0.46747 1.75184 0.41881
v 0.90460 1.75184 0.64269
v 0.88062 2.37959 0.68950
v 0.44350 2.37959 0.46562
v 0.44350 2.37959 0.46562
v 0.88062 2.37959 0.68950
v 0.90460 1.75184 0.64269
v 0.46747 1.75184 0.41881
v 0.64009 1.47891 0.26873
v 0.41717 1.47891 0.66803
v 0.42791 2.26495 0.67402
v 0.65083 2.26495 0.27472
v 0.65083 2.26495 0.27472
v 0.42791 2.26495 0.67402
v 0.41717 1.47891 0.66803
v 0.64009 1.47891 0.26873
v 1.08811 1.52765 0.35960
v 0.52022 1.52765 0.14524
v 0.54927 2.26579 0.06829
v 1.11716 2.26579 0.28264
v 1.11716 2.26579 0.28264
v 0.54927 2.26579 0.06829
v 0.52022 1.52765 0.14524
v 1.08811 1.52765 0.35960
v 0.68461 1.59901 0.42683
v 0.21617 1.59901 0.14911
v 0.19550 2.17562 0.18397
v 0.66394 2.17562 0.46169
v 0.66394 2.17562 0.46169
v 0.19550 2.17562 0.18397
v 0.21617 1.59901 0.14911
v 0.68461 1.59901 0.42683
v 0.11466 1.79276 0.75445
v 0.41252 1.79276 1.13706
v 0.38339 2.47559 1.15974
v 0.08553 2.47559 0.77713
v 0.08553 2.47559 0.77713
v 0.38339 2.47559 1.15974
v 0.41252 1.79276 1.13706
v 0.11466 1.79276 0.75445
v -0.07682 1.67650 0.37389
v 0.25265 1.67650 0.86924
v 0.19596 2.33821 0.90695
v -0.13351 2.33821 0.41159
v -0.13351 2.33821 0.41159
v 0.19596 2.33821 0.90695
v 0.25265 1.67650 0.86924
v -0.07682 1.67650 0.37389
v -0.15313 1.73666 0.66618
v 0.11657 1.73666 0.93343
v 0.15934 2.37093 0.89027
v -0.11035 2.37093 0.62302
v -0.11035 2.37093 0.62302
v 0.15934 2.37093 0.89027
v 0.11657 1.73666 0.93343
v -0.15313 1.73666 0.66618
v -0.15727 1.79956 0.82877
v 0.29307 1.79956 0.83366
v 0.29320 2.43084 0.82252
v -0.15715 2.43084 0.81763
v -0.15715 2.43084 0.81763
v 0.29320 2.43084 0.82252
v 0.29307 1.79956 0.83366
v -0.15727 1.79956 0.82877
v 0.32028 1.61285 0.41372
v -0.07234 1.61285 0.76310
v -0.14501 2.39346 0.68144
v 0.24762 2.39346 0.33207
v 0.24762 2.39346 0.33207
v -0.14501 2.39346 0.68144
v -0.07234 1.61285 0.76310
v 0.32028 1.61285 0.41372
v -0.38677 1.64405 0.68183
v 0.03702 1.64405 0.58324
v 0.05687 2.24556 0.66859
v -0.36692 2.24556 0.76718
v -0.36692 2.24556 0.76718
v 0.05687 2.24556 0.66859
v 0.03702 1.64405 0.58324
v -0.38677 1.64405 0.68183
v -0.16545 2.27078 0.17813
v -0.74554 2.27078 0.19214
v -0.74425 2.84384 0.24572
v -0.16416 2.84384 0.23171
v -0.16416 2.84384 0.23171
v -0.74425 2.84384 0.24572
v -0.74554 2.27078 0.19214
v -0.16545 2.27078 0.17813
v -0.45458 2.31728 0.03403
v -0.66106 2.31728 0.56570
v -0.65717 2.88396 0.56721
v -0.45069 2.88396 0.03555
v -0.45069 2.88396 0.03555
v -0.65717 2.88396 0.56721
v -0.66106 2.31728 0.56570
v -0.45458 2.31728 0.03403
v -0.21713 2.28670 0.44937
v -0.63251 2.28670 0.02793
v -0.69511 2.89261 0.08962
v -0.27973 2.89261 0.51106
v -0.27973 2.89261 0.51106
v -0.69511 2.89261 0.08962
v -0.63251 2.28670 0.02793
v -0.21713 2.28670 0.44937
v -0.55258 2.12119 0.81065
v -0.53314 2.12119 0.36279
v -0.54268 2.82290 0.36237
v -0.56211 2.82290 0.81024
v -0.56211 2.82290 0.81024
v -0.54268 2.82290 0.36237
v -0.53314 2.12119 0.36279
v -0.55258 2.12119 0.81065
v -0.76030 2.25814 0.67383
v -0.28565 2.25814 0.48043
v -0.27639 2.89374 0.50316
v -0.75104 2.89374 0.69655
v -0.75104 2.89374 0.69655
v -0.27639 2.89374 0.50316
v -0.28565 2.25814 0.48043
v -0.76030 2.25814 0.67383
v -0.17848 2.26757 0.63277
v -0.74097 2.26757 0.43228
v -0.73386 2.85284 0.41233
v -0.17137 2.85284 0.61283
v -0.17137 2.85284 0.61283
v -0.73386 2.85284 0.41233
v -0.74097 2.26757 0.43228
v -0.17848 2.26757 0.63277
v -0.88033 2.17078 0.47783
v -0.94924 2.17078 -0.11333
v -0.99999 2.73066 -0.10741
v -0.93108 2.73066 0.48374
v -0.93108 2.73066 0.48374
v -0.99999 2.73066 -0.10741
v -0.94924 2.17078 -0.11333
v -0.88033 2.17078 0.47783
v -0.38944 2.19330 -0.02385
v -0.89030 2.19330 -0.01983
v -0.88987 2.93610 0.03344
v -0.38901 2.93610 0.02943
v -0.38901 2.93610 0.02943
v -0.88987 2.93610 0.03344
v -0.89030 2.19330 -0.01983
v -0.38944 2.19330 -0.02385
v -0.35398 2.24252 -0.27250
v -0.93081 2.24252 -0.15259
v -0.91023 2.97675 -0.05359
v -0.33340 2.97675 -0.17350
v -0.33340 2.97675 -0.17350
v -0.91023 2.97675 -0.05359
v -0.93081 2.24252 -0.15259
v -0.35398 2.24252 -0.27250
v -0.67804 2.03092 0.15787
v -0.53026 2.03092 -0.20988
v -0.58671 2.71062 -0.23257
v -0.73450 2.71062 0.13519
v -0.73450 2.71062 0.13519
v -0.58671 2.71062 -0.23257
v -0.53026 2.03092 -0.20988
v -0.67804 2.03092 0.15787
v -0.67014 2.21966 -0.03854
v -1.05329 2.21966 0.16438
v -1.05045 2.80140 0.16974
v -0.66731 2.80140 -0.03318
v -0.66731 2.80140 -0.03318
v -1.05045 2.80140 0.16974
v -1.05329 2.21966 0.16438
v -0.67014 2.21966 -0.03854
v -0.85866 2.14911 -0.10197
v -0.31245 2.14911 0.00013
v -0.31821 2.95840 0.03094
v -0.86441 2.95840 -0.07116
v -0.86441 2.95840 -0.07116
v -0.31821 2.95840 0.03094
v -0.31245 2.14911 0.00013
v -0.85866 2.14911 -0.10197
v -0.29801 2.03083 -0.79504
v -0.13685 2.03083 -0.30336
v -0.18168 2.60926 -0.28867
v -0.34284 2.60926 -0.78035
v -0.34284 2.60926 -0.78035
v -0.18168 2.60926 -0.28867
v -0.13685 2.03083 -0.30336
v -0.29801 2.03083 -0.79504
v -0.59825 1.89467 -0.11238
v -0.17222 1.89467 -0.39069
v -0.15020 2.62317 -0.35698
v -0.57622 2.62317 -0.07866
v -0.57622 2.62317 -0.07866
v -0.15020 2.62317 -0.35698
v -0.17222 1.89467 -0.39069
v -0.59825 1.89467 -0.11238
v -0.43437 1.98087 -0.23846
v -0.81930 1.98087 -0.52295
v -0.80516 2.64493 -0.54208
v -0.42023 2.64493 -0.25759
v -0.42023 2.64493 -0.25759
v -0.80516 2.64493 -0.54208
v -0.81930 1.98087 -0.52295
v -0.43437 1.98087 -0.23846
v -0.04970 1.94420 -0.62416
v -0.62084 1.94420 -0.44843
v -0.64948 2.66802 -0.54152
v -0.07834 2.66802 -0.71725
v -0.07834 2.66802 -0.71725
v -0.64948 2.66802 -0.54152
v -0.62084 1.94420 -0.44843
v -0.04970 1.94420 -0.62416
v -0.44622 2.04991 -0.42137
v -0.68141 2.04991 -0.09803
v -0.63863 2.69958 -0.06692
v -0.40344 2.69958 -0.39026
v -0.40344 2.69958 -0.39026
v -0.63863 2.69958 -0.06692
v -0.68141 2.04991 -0.09803
v -0.44622 2.04991 -0.42137
v -0.44954 1.94951 -0.48120
v -0.00273 1.94951 -0.64666
v -0.00833 2.58867 -0.66178
v -0.45514 2.58867 -0.49633
v -0.45514 2.58867 -0.49633
v -0.00833 2.58867 -0.66178
v -0.00273 1.94951 -0.64666
v -0.44954 1.94951 -0.48120
v 0.37917 1.74513 -0.48921
v 0.47348 1.74513 -0.84241
v 0.47397 2.51544 -0.84227
v 0.37967 2.51544 -0.48908
v 0.37967 2.51544 -0.48908
v 0.47397 2.51544 -0.84227
v 0.47348 1.74513 -0.84241
v 0.37917 1.74513 -0.48921
v 0.52193 1.75460 -0.06817
v 0.13520 1.75460 -0.48834
v 0.18909 2.51603 -0.53794
v 0.57582 2.51603 -0.11777
v 0.57582 2.51603 -0.11777
v 0.18909 2.51603 -0.53794
v 0.13520 1.75460 -0.48834
v 0.52193 1.75460 -0.06817
v 0.62317 1.96733 -0.70553
v 0.13027 1.96733 -0.58042
v 0.14838 2.71368 -0.50907
v 0.64128 2.71368 -0.63419
v 0.64128 2.71368 -0.63419
v 0.14838 2.71368 -0.50907
v 0.13027 1.96733 -0.58042
v 0.62317 1.96733 -0.70553
v 0.45685 2.02996 -0.63824
v 0.37436 2.02996 -0.26790
v 0.37549 2.68501 -0.26765
v 0.45798 2.68501 -0.63799
v 0.45798 2.68501 -0.63799
v 0.37549 2.68501 -0.26765
v 0.37436 2.02996 -0.26790
v 0.45685 2.02996 -0.63824
v 0.62415 1.95263 -0.40885
v 0.12480 1.95263 -0.16544
v 0.14813 2.68220 -0.11759
v 0.64747 2.68220 -0.36100
v 0.64747 2.68220 -0.36100
v 0.14813 2.68220 -0.11759
v 0.12480 1.95263 -0.16544
v 0.62415 1.95263 -0.40885
v 0.84929 1.90151 -0.35339
v 0.32901 1.90151 -0.43119
v 0.33697 2.54694 -0.48444
v 0.85725 2.54694 -0.40665
v 0.85725 2.54694 -0.40665
v 0.33697 2.54694 -0.48444
v 0.32901 1.90151 -0.43119
v 0.84929 1.90151 -0.35339
v -0.02036 1.72729 -0.15904
v 0.12286 1.72729 0.31898
v 0.13612 2.67391 0.31501
v -0.00710 2.67391 -0.16301
v -0.00710 2.67391 -0.16301
v 0.13612 2.67391 0.31501
v 0.12286 1.72729 0.31898
v -0.02036 1.72729 -0.15904
v -0.41996 1.92247 -0.01274
v 0.14963 1.92247 -0.49386
v 0.07767 2.72729 -0.57906
v -0.49192 2.72729 -0.09794
v -0.49192 2.72729 -0.09794
v 0.07767 2.72729 -0.57906
v 0.14963 1.92247 -0.49386
v -0.41996 1.92247 -0.01274
v 0.09478 1.61949 0.54084
v -0.24631 1.61949 -0.17302
v -0.17263 2.62659 -0.20822
v 0.16846 2.62659 0.50563
v 0.16846 2.62659 0.50563
v -0.17263 2.62659 -0.20822
v -0.24631 1.61949 -0.17302
v 0.09478 1.61949 0.54084
v -0.14454 1.78691 -0.06234
v 0.15027 1.78691 0.57088
v 0.22903 2.51262 0.53421
v -0.06578 2.51262 -0.09901
v -0.06578 2.51262 -0.09901
v 0.22903 2.51262 0.53421
v 0.15027 1.78691 0.57088
v -0.14454 1.78691 -0.06234
v 0.29884 2.03527 0.18049
v -0.11892 2.03527 0.39632
v -0.15092 2.78277 0.33439
v 0.26684 2.78277 0.11856
v 0.26684 2.78277 0.11856
v -0.15092 2.78277 0.33439
v -0.11892 2.03527 0.39632
v 0.29884 2.03527 0.18049
v 0.49591 1.84779 -0.15877
v -0.17784 1.84779 0.13208
v -0.15905 2.82029 0.17563
v 0.51471 2.82029 -0.11522
v 0.51471 2.82029 -0.11522
v -0.15905 2.82029 0.17563
v -0.17784 1.84779 0.13208
v 0.49591 1.84779 -0.15877
v 0.00515 1.95297 -0.36784
v -0.07758 1.95297 0.15296
v -0.08567 2.80198 0.15168
v -0.00294 2.80198 -0.36912
v -0.00294 2.80198 -0.36912
v -0.08567 2.80198 0.15168
v -0.07758 1.95297 0.15296
v 0.00515 1.95297 -0.36784
v 0.08867 1.80322 -0.27667
v -0.61630 1.80322 0.08919
v -0.60624 2.82651 0.10858
v 0.09873 2.82651 -0.25729
v 0.09873 2.82651 -0.25729
v -0.60624 2.82651 0.10858
v -0.61630 1.80322 0.08919
v 0.08867 1.80322 -0.27667
vt 0.00000 0.00000
vt 1.00000 0.00000
vt 1.00000 1.00000
vt 0.00000 1.00000
vt 0.00000 0.00000
vt 1.00000 0.00000
vt 1.00000 1.00000
vt 0.00000 1.00000
vt 0.00000 0.00000
vt 1.00000 0.00000
vt 1.00000 1.00000
vt 0.00000 1.00000
vt 0.00000 0.00000
vt 1.00000 0.00000
vt 1.00000 1.00000
vt 0.00000 1.00000
vt 0.00000 0.00000
vt 1.00000 0.00000
vt 1.00000 1.00000
vt 0.00000 1.00000
vt 0.00000 0.00000
vt 1.00000 0.00000
vt 1.00000 1.00000
vt 0.00000 1.00000
vt 0.00000 0.00000
vt 1.00000 0.00000
vt 1.00000 1.00000
vt 0.00000 1.00000
vt 0.00000 0.00000
vt 1.00000 0.00000
vt 1.00000 1.00000
vt 0.00000 1.00000
vt 0.00000 0.00000
vt 1.00000 0.00000
vt 1.00000 1.00000
vt 0.00000 0.00000
vt 1.00000 0.00000
vt 1.00000 1.00000
vt 0.00000 0.00000
vt 1.00000 0.00000
vt 1.00000 1.00000
vt 0.00000 0.00000
vt 1.00000 0.00000
vt 1.00000 1.00000
vt 0.00000 0.00000
vt 1.00000 0.00000
vt 1.00000 1.00000
vt 0.00000 0.00000
vt 1.00000 0.00000
vt 1.00000 1.00000
vt 0.00000 0.00000
vt 1.00000 0.00000
vt 1.00000 1.00000
vt 0.00000 0.00000
vt 1.00000 0.00000
vt 1.00000 1.00000
vt 0.00000 0.00000
vt 1.00000 0.00000
vt 1.00000 1.00000
vt 0.00000 0.00000
vt 1.00000 0.00000
vt 1.00000 1.00000
vt 0.00000 0.00000
vt 1.00000 0.00000
vt 1.00000 1.00000
vt 0.00000 0.00000
vt 1.00000 0.00000
vt 1.00000 1.00000
vt 0.00000 0.00000
vt 1.00000 0.00000
vt 1.00000 1.00000
vt 0.00000 0.00000
vt 1.00000 0.00000
vt 1.00000 1.00000
vt 0.00000 0.00000
vt 1.00000 0.00000
vt 1.00000 1.00000
vt 0.00000 0.00000
vt 1.00000 0.00000
vt 1.00000 1.00000
vt 0.00000 0.00000
vt 1.00000 0.00000
vt 1.00000 1.00000
vt 0.00000 1.00000
vt 0.00000 0.00000
vt 1.00000 0.00000
vt 1.00000 1.00000
vt 0.00000 1.00000
vt 0.00000 0.00000
vt 1.00000 0.00000
vt 1.00000 1.00000
vt 0.00000 1.00000
vt 0.00000 0.00000
vt 1.00000 0.00000
vt 1.00000 1.00000
vt 0.00000 1.00000
vt 0.00000 0.00000
vt 1.00000 0.00000
vt 1.00000 1.00000
vt 0.00000 1.00000
vt 0.00000 0.00000
vt 1.00000 0.00000
vt 1.00000 1.00000
vt 0.00000 1.00000
vt 0.00000 0.00000
vt 1.00000 0.00000
vt 1.00000 1.00000
vt 0.00000 1.00000
vt 0.00000 0.00000
vt 1.00000 0.00000
vt 1.00000 1.00000
vt 0.00000 1.00000
vt 0.00000 0.00000
vt 1.00000 0.00000
vt 1.00000 1.00000
vt 0.00000 1.00000
vt 0.00000 0.00000
vt 1.00000 0.00000
vt 1.00000 1.00000
vt 0.00000 1.00000
vt 0.00000 0.00000
vt 1.00000 0.00000
vt 1.00000 1.00000
vt 0.00000 1.00000
vt 0.00000 0.00000
vt 1.00000 0.00000
vt 1.00000 1.00000
vt 0.00000 1.00000
vt 0.00000 0.00000
vt 1.00000 0.00000
vt 1.00000 1.00000
vt 0.00000 1.00000
vt 0.00000 0.00000
vt 1.00000 0.00000
vt 1.00000 1.00000
vt 0.00000 1.00000
vt 0.00000 0.00000
vt 1.00000 0.00000
vt 1.00000 1.00000
vt 0.00000 1.00000
vt 0.00000 0.00000
vt 1.00000 0.00000
vt 1.00000 1.00000
vt 0.00000 1.00000
vt 0.00000 0.00000
vt 1.00000 0.00000
vt 1.00000 1.00000
vt 0.00000 1.00000
vt 0.00000 0.00000
vt 1.00000 0.00000
vt 1.00000 1.00000
vt 0.00000 1.00000
vt 0.00000 0.00000
vt 1.00000 0.00000
vt 1.00000 1.00000
vt 0.00000 1.00000
vt 0.00000 0.00000
vt 1.00000 0.00000
vt 1.00000 1.00000
vt 0.00000 1.00000
vt 0.00000 0.00000
vt 1.00000 0.00000
vt 1.00000 1.00000
vt 0.00000 1.00000
vt 0.00000 0.00000
vt 1.00000 0.00000
vt 1.00000 1.00000
vt 0.00000 1.00000
vt 0.00000 0.00000
vt 1.00000 0.00000
vt 1.00000 1.00000
vt 0.00000 1.00000
vt 0.00000 0.00000
vt 1.00000 0.00000
vt 1.00000 1.00000
vt 0.00000 1.00000
vt 0.00000 0.00000
vt 1.00000 0.00000
vt 1.00000 1.00000
vt 0.00000 1.00000
vt 0.00000 0.00000
vt 1.00000 0.00000
vt 1.00000 1.00000
vt 0.00000 1.00000
vt 0.00000 0.00000
vt 1.00000 0.00000
vt 1.00000 1.00000
vt 0.00000 1.00000
vt 0.00000 0.00000
vt 1.00000 0.00000
vt 1.00000 1.00000
vt 0.00000 1.00000
vt 0.00000 0.00000
vt 1.00000 0.00000
vt 1.00000 1.00000
vt 0.00000 1.00000
vt 0.00000 0.00000
vt 1.00000 0.00000
vt 1.00000 1.00000
vt 0.00000 1.00000
vt 0.00000 0.00000
vt 1.00000 0.00000
vt 1.00000 1.00000
vt 0.00000 1.00000
vt 0.00000 0.00000
vt 1.00000 0.00000
vt 1.00000 1.00000
vt 0.00000 1.00000
vt 0.00000 0.00000
vt 1.00000 0.00000
vt 1.00000 1.00000
vt 0.00000 1.00000
vt 0.00000 0.00000
vt 1.00000 0.00000
vt 1.00000 1.00000
vt 0.00000 1.00000
vt 0.00000 0.00000
vt 1.00000 0.00000
vt 1.00000 1.00000
vt 0.00000 1.00000
vt 0.00000 0.00000
vt 1.00000 0.00000
vt 1.00000 1.00000
vt 0.00000 1.00000
vt 0.00000 1.00000
vt 1.00000 1.00000
vt 1.00000 0.00000
vt 0.00000 0.00000
vt 0.00000 0.00000
vt 1.00000 0.00000
vt 1.00000 1.00000
vt 0.00000 1.00000
vt 0.00000 1.00000
vt 1.00000 1.00000
vt 1.00000 0.00000
vt 0.00000 0.00000
vt 0.00000 0.00000
vt 1.00000 0.00000
vt 1.00000 1.00000
vt 0.00000 1.00000
vt 0.00000 1.00000
vt 1.00000 1.00000
vt 1.00000 0.00000
vt 0.00000 0.00000
vt 0.00000 0.00000
vt 1.00000 0.00000
vt 1.00000 1.00000
vt 0.00000 1.00000
vt 0.00000 1.00000
vt 1.00000 1.00000
vt 1.00000 0.00000
vt 0.00000 0.00000
vt 0.00000 0.00000
vt 1.00000 0.00000
vt 1.00000 1.00000
vt 0.00000 1.00000
vt 0.00000 1.00000
vt 1.00000 1.00000
vt 1.00000 0.00000
vt 0.00000 0.00000
vt 0.00000 0.00000
vt 1.00000 0.00000
vt 1.00000 1.00000
vt 0.00000 1.00000
vt 0.00000 1.00000
vt 1.00000 1.00000
vt 1.00000 0.00000
vt 0.00000 0.00000
vt 0.00000 0.00000
vt 1.00000 0.00000
vt 1.00000 1.00000
vt 0.00000 1.00000
vt 0.00000 1.00000
vt 1.00000 1.00000
vt 1.00000 0.00000
vt 0.00000 0.00000
vt 0.00000 0.00000
vt 1.00000 0.00000
vt 1.00000 1.00000
vt 0.00000 1.00000
vt 0.00000 1.00000
vt 1.00000 1.00000
vt 1.00000 0.00000
vt 0.00000 0.00000
vt 0.00000 0.00000
vt 1.00000 0.00000
vt 1.00000 1.00000
vt 0.00000 1.00000
vt 0.00000 1.00000
vt 1.00000 1.00000
vt 1.00000 0.00000
vt 0.00000 0.00000
vt 0.00000 0.00000
vt 1.00000 0.00000
vt 1.00000 1.00000
vt 0.00000 1.00000
vt 0.00000 1.00000
vt 1.00000 1.00000
vt 1.00000 0.00000
vt 0.00000 0.00000
vt 0.00000 0.00000
vt 1.00000 0.00000
vt 1.00000 1.00000
vt 0.00000 1.00000
vt 0.00000 1.00000
vt 1.00000 1.00000
vt 1.00000 0.00000
vt 0.00000 0.00000
vt 0.00000 0.00000
vt 1.00000 0.00000
vt 1.00000 1.00000
vt 0.00000 1.00000
vt 0.00000 1.00000
vt 1.00000 1.00000
vt 1.00000 0.00000
vt 0.00000 0.00000
vt 0.00000 0.00000
vt 1.00000 0.00000
vt 1.00000 1.00000
vt 0.00000 1.00000
vt 0.00000 1.00000
vt 1.00000 1.00000
vt 1.00000 0.00000
vt 0.00000 0.00000
vt 0.00000 0.00000
vt 1.00000 0.00000
vt 1.00000 1.00000
vt 0.00000 1.00000
vt 0.00000 1.00000
vt 1.00000 1.00000
vt 1.00000 0.00000
vt 0.00000 0.00000
vt 0.00000 0.00000
vt 1.00000 0.00000
vt 1.00000 1.00000
vt 0.00000 1.00000
vt 0.00000 1.00000
vt 1.00000 1.00000
vt 1.00000 0.00000
vt 0.00000 0.00000
vt 0.00000 0.00000
vt 1.00000 0.00000
vt 1.00000 1.00000
vt 0.00000 1.00000
vt 0.00000 1.00000
vt 1.00000 1.00000
vt 1.00000 0.00000
vt 0.00000 0.00000
vt 0.00000 0.00000
vt 1.00000 0.00000
vt 1.00000 1.00000
vt 0.00000 1.00000
vt 0.00000 1.00000
vt 1.00000 1.00000
vt 1.00000 0.00000
vt 0.00000 0.00000
vt 0.00000 0.00000
vt 1.00000 0.00000
vt 1.00000 1.00000
vt 0.00000 1.00000
vt 0.00000 1.00000
vt 1.00000 1.00000
vt 1.00000 0.00000
vt 0.00000 0.00000
vt 0.00000 0.00000
vt 1.00000 0.00000
vt 1.00000 1.00000
vt 0.00000 1.00000
vt 0.00000 1.00000
vt 1.00000 1.00000
vt 1.00000 0.00000
vt 0.00000 0.00000
vt 0.00000 0.00000
vt 1.00000 0.00000
vt 1.00000 1.00000
vt 0.00000 1.00000
vt 0.00000 1.00000
vt 1.00000 1.00000
vt 1.00000 0.00000
vt 0.00000 0.00000
vt 0.00000 0.00000
vt 1.00000 0.00000
vt 1.00000 1.00000
vt 0.00000 1.00000
vt 0.00000 1.00000
vt 1.00000 1.00000
vt 1.00000 0.00000
vt 0.00000 0.00000
vt 0.00000 0.00000
vt 1.00000 0.00000
vt 1.00000 1.00000
vt 0.00000 1.00000
vt 0.00000 1.00000
vt 1.00000 1.00000
vt 1.00000 0.00000
vt 0.00000 0.00000
vt 0.00000 0.00000
vt 1.00000 0.00000
vt 1.00000 1.00000
vt 0.00000 1.00000
vt 0.00000 1.00000
vt 1.00000 1.00000
vt 1.00000 0.00000
vt 0.00000 0.00000
vt 0.00000 0.00000
vt 1.00000 0.00000
vt 1.00000 1.00000
vt 0.00000 1.00000
vt 0.00000 1.00000
vt 1.00000 1.00000
vt 1.00000 0.00000
vt 0.00000 0.00000
vt 0.00000 0.00000
vt 1.00000 0.00000
vt 1.00000 1.00000
vt 0.00000 1.00000
vt 0.00000 1.00000
vt 1.00000 1.00000
vt 1.00000 0.00000
vt 0.00000 0.00000
vt 0.00000 0.00000
vt 1.00000 0.00000
vt 1.00000 1.00000
vt 0.00000 1.00000
vt 0.00000 1.00000
vt 1.00000 1.00000
vt 1.00000 0.00000
vt 0.00000 0.00000
vt 0.00000 0.00000
vt 1.00000 0.00000
vt 1.00000 1.00000
vt 0.00000 1.00000
vt 0.00000 1.00000
vt 1.00000 1.00000
vt 1.00000 0.00000
vt 0.00000 0.00000
vt 0.00000 0.00000
vt 1.00000 0.00000
vt 1.00000 1.00000
vt 0.00000 1.00000
vt 0.00000 1.00000
vt 1.00000 1.00000
vt 1.00000 0.00000
vt 0.00000 0.00000
vt 0.00000 0.00000
vt 1.00000 0.00000
vt 1.00000 1.00000
vt 0.00000 1.00000
vt 0.00000 1.00000
vt 1.00000 1.00000
vt 1.00000 0.00000
vt 0.00000 0.00000
vt 0.00000 0.00000
vt 1.00000 0.00000
vt 1.00000 1.00000
vt 0.00000 1.00000
vt 0.00000 1.00000
vt 1.00000 1.00000
vt 1.00000 0.00000
vt 0.00000 0.00000
vt 0.00000 0.00000
vt 1.00000 0.00000
vt 1.00000 1.00000
vt 0.00000 1.00000
vt 0.00000 1.00000
vt 1.00000 1.00000
vt 1.00000 0.00000
vt 0.00000 0.00000
vt 0.00000 0.00000
vt 1.00000 0.00000
vt 1.00000 1.00000
vt 0.00000 1.00000
vt 0.00000 1.00000
vt 1.00000 1.00000
vt 1.00000 0.00000
vt 0.00000 0.00000
vt 0.00000 0.00000
vt 1.00000 0.00000
vt 1.00000 1.00000
vt 0.00000 1.00000
vt 0.00000 1.00000
vt 1.00000 1.00000
vt 1.00000 0.00000
vt 0.00000 0.00000
vt 0.00000 0.00000
vt 1.00000 0.00000
vt 1.00000 1.00000
vt 0.00000 1.00000
vt 0.00000 1.00000
vt 1.00000 1.00000
vt 1.00000 0.00000
vt 0.00000 0.00000
vt 0.00000 0.00000
vt 1.00000 0.00000
vt 1.00000 1.00000
vt 0.00000 1.00000
vt 0.00000 1.00000
vt 1.00000 1.00000
vt 1.00000 0.00000
vt 0.00000 0.00000
vt 0.00000 0.00000
vt 1.00000 0.00000
vt 1.00000 1.00000
vt 0.00000 1.00000
vt 0.00000 1.00000
vt 1.00000 1.00000
vt 1.00000 0.00000
vt 0.00000 0.00000
vt 0.00000 0.00000
vt 1.00000 0.00000
vt 1.00000 1.00000
vt 0.00000 1.00000
vt 0.00000 1.00000
vt 1.00000 1.00000
vt 1.00000 0.00000
vt 0.00000 0.00000
vt 0.00000 0.00000
vt 1.00000 0.00000
vt 1.00000 1.00000
vt 0.00000 1.00000
vt 0.00000 1.00000
vt 1.00000 1.00000
vt 1.00000 0.00000
vt 0.00000 0.00000
vt 0.00000 0.00000
vt 1.00000 0.00000
vt 1.00000 1.00000
vt 0.00000 1.00000
vt 0.00000 1.00000
vt 1.00000 1.00000
vt 1.00000 0.00000
vt 0.00000 0.00000
vt 0.00000 0.00000
vt 1.00000 0.00000
vt 1.00000 1.00000
vt 0.00000 1.00000
vt 0.00000 1.00000
vt 1.00000 1.00000
vt 1.00000 0.00000
vt 0.00000 0.00000
vt 0.00000 0.00000
vt 1.00000 0.00000
vt 1.00000 1.00000
vt 0.00000 1.00000
vt 0.00000 1.00000
vt 1.00000 1.00000
vt 1.00000 0.00000
vt 0.00000 0.00000
vt 0.00000 0.00000
vt 1.00000 0.00000
vt 1.00000 1.00000
vt 0.00000 1.00000
vt 0.00000 1.00000
vt 1.00000 1.00000
vt 1.00000 0.00000
vt 0.00000 0.00000
vt 0.00000 0.00000
vt 1.00000 0.00000
vt 1.00000 1.00000
vt 0.00000 1.00000
vt 0.00000 1.00000
vt 1.00000 1.00000
vt 1.00000 0.00000
vt 0.00000 0.00000
vt 0.00000 0.00000
vt 1.00000 0.00000
vt 1.00000 1.00000
vt 0.00000 1.00000
vt 0.00000 1.00000
vt 1.00000 1.00000
vt 1.00000 0.00000
vt 0.00000 0.00000
vt 0.00000 0.00000
vt 1.00000 0.00000
vt 1.00000 1.00000
vt 0.00000 1.00000
vt 0.00000 1.00000
vt 1.00000 1.00000
vt 1.00000 0.00000
vt 0.00000 0.00000
vt 0.00000 0.00000
vt 1.00000 0.00000
vt 1.00000 1.00000
vt 0.00000 1.00000
vt 0.00000 1.00000
vt 1.00000 1.00000
vt 1.00000 0.00000
vt 0.00000 0.00000
vt 0.00000 0.00000
vt 1.00000 0.00000
vt 1.00000 1.00000
vt 0.00000 1.00000
vt 0.00000 1.00000
vt 1.00000 1.00000
vt 1.00000 0.00000
vt 0.00000 0.00000
vt 0.00000 0.00000
vt 1.00000 0.00000
vt 1.00000 1.00000
vt 0.00000 1.00000
vt 0.00000 1.00000
vt 1.00000 1.00000
vt 1.00000 0.00000
vt 0.00000 0.00000
vt 0.00000 0.00000
vt 1.00000 0.00000
vt 1.00000 1.00000
vt 0.00000 1.00000
vt 0.00000 1.00000
vt 1.00000 1.00000
vt 1.00000 0.00000
vt 0.00000 0.00000
vt 0.00000 0.00000
vt 1.00000 0.00000
vt 1.00000 1.00000
vt 0.00000 1.00000
vt 0.00000 1.00000
vt 1.00000 1.00000
vt 1.00000 0.00000
vt 0.00000 0.00000
vn -0.92372 -0.01847 -0.38262
vn -0.38262 -0.01847 -0.92372
vn 0.38262 -0.01847 -0.92372
vn 0.92372 -0.01847 -0.38262
vn 0.92372 -0.01847 0.38262
vn 0.38262 -0.01847 0.92372
vn -0.38262 -0.01847 0.92372
vn -0.92372 -0.01847 0.38262
vn 0.00000 1.00000 0.00000
vn 0.00000 -1.00000 0.00000
vn 0.00000 1.00000 0.00000
vn 0.00000 -1.00000 0.00000
vn 0.00000 1.00000 -0.00000
vn 0.00000 -1.00000 0.00000
vn 0.00000 1.00000 0.00000
vn 0.00000 -1.00000 0.00000
vn 0.00000 1.00000 0.00000
vn -0.00000 -1.00000 0.00000
vn 0.00000 1.00000 0.00000
vn 0.00000 -1.00000 0.00000
vn 0.00000 1.00000 0.00000
vn 0.00000 -1.00000 -0.00000
vn 0.00000 1.00000 0.00000
vn 0.00000 -1.00000 0.00000
vn 0.38988 -0.44000 0.80895
vn 0.62455 -0.71726 -0.30899
vn 0.01018 0.00862 -0.99991
vn -0.60419 0.73449 -0.30899
vn -0.36952 0.45723 0.80895
vn 0.02656 -0.40168 0.91540
vn 0.75412 -0.65614 0.02793
vn 0.45173 0.01004 -0.89210
vn -0.46272 0.67623 -0.57324
vn -0.72549 0.42177 0.54385
vn -0.78009 -0.39292 0.48691
vn 0.35222 -0.64133 0.68164
vn 0.99850 0.00902 -0.05397
vn 0.26562 0.65937 -0.70334
vn -0.83361 0.41096 -0.36906
vn -0.56721 0.08140 -0.81954
vn -0.91602 -0.33293 0.22377
vn -0.00284 -0.27423 0.96166
vn 0.91034 0.17638 0.37439
vn 0.56154 0.39617 -0.72645
vn -0.47313 -0.26715 -0.83951
vn -0.86171 -0.43766 0.25674
vn -0.06584 0.00874 0.99779
vn 0.81461 0.45514 0.35954
vn 0.56289 0.28463 -0.77598
vn 0.20619 -0.25552 -0.94456
vn -0.81845 -0.41977 -0.39235
vn -0.71704 0.01024 0.69695
vn 0.37026 0.44025 0.81798
vn 0.94085 0.27600 -0.19654
vn 0.90806 -0.30986 0.28178
vn 0.40351 -0.50745 -0.76136
vn -0.65204 0.00984 -0.75812
vn -0.79984 0.52713 0.28703
vn 0.16435 0.32954 0.92973
vn -0.99020 0.03757 -0.13453
vn 0.99020 -0.03757 0.13453
vn 0.30862 0.07753 -0.94802
vn -0.30862 -0.07753 0.94802
vn 0.33240 0.04398 0.94211
vn -0.33240 -0.04398 -0.94211
vn -0.87596 0.14473 0.46016
vn 0.87596 -0.14473 -0.46016
vn -0.02492 -0.07239 0.99707
vn 0.02492 0.07239 -0.99707
vn -0.99085 -0.12868 0.04068
vn 0.99085 0.12868 -0.04068
vn 0.03731 0.01490 -0.99919
vn -0.03731 -0.01490 0.99919
vn 0.99064 0.11010 0.08067
vn -0.99064 -0.11010 -0.08067
vn -0.45427 -0.08349 0.88694
vn 0.45427 0.08349 -0.88694
vn -0.87304 0.01564 -0.48739
vn 0.87304 -0.01564 0.48739
vn 0.35097 -0.11076 -0.92981
vn -0.35097 0.11076 0.92981
vn 0.50871 0.07011 -0.85808
vn -0.50871 -0.07011 0.85808
vn -0.78793 -0.05399 0.61340
vn 0.78793 0.05399 -0.61340
vn -0.82827 -0.10235 0.55090
vn 0.82827 0.10235 -0.55090
vn -0.70067 0.09537 0.70708
vn 0.70067 -0.09537 -0.70708
vn -0.01086 0.01764 0.99979
vn 0.01086 -0.01764 -0.99979
vn -0.65834 -0.13867 -0.73983
vn 0.65834 0.13867 0.73983
vn 0.22423 -0.14417 0.96381
vn -0.22423 0.14417 -0.96381
vn -0.02404 0.09311 -0.99537
vn 0.02404 -0.09311 0.99537
vn -0.93215 0.00737 -0.36201
vn 0.93215 -0.00737 0.36201
vn 0.70483 0.14355 -0.69470
vn -0.70483 -0.14355 0.69470
vn 0.99897 0.01360 0.04335
vn -0.99897 -0.01360 -0.04335
vn 0.37705 -0.03858 0.92539
vn -0.37705 0.03858 -0.92539
vn 0.33553 -0.03616 -0.94134
vn -0.33553 0.03616 0.94134
vn 0.98916 0.09088 -0.11530
vn -0.98916 -0.09088 0.11530
vn -0.00799 0.07154 -0.99741
vn 0.00799 -0.07154 0.99741
vn -0.20163 0.13643 -0.96991
vn 0.20163 -0.13643 0.96991
vn 0.92419 0.08916 0.37139
vn -0.92419 -0.08916 -0.37139
vn -0.46800 0.01041 -0.88367
vn 0.46800 -0.01041 0.88367
vn -0.18359 -0.03870 0.98224
vn 0.18359 0.03870 -0.98224
vn -0.94711 -0.08128 0.31044
vn 0.94711 0.08128 -0.31044
vn 0.54609 -0.05519 0.83591
vn -0.54609 0.05519 -0.83591
vn 0.59397 -0.03580 -0.80369
vn -0.59397 0.03580 0.80369
vn -0.29145 -0.13335 -0.94724
vn 0.29145 0.13335 0.94724
vn -0.80603 0.08114 -0.58628
vn 0.80603 -0.08114 0.58628
vn 0.34715 0.02522 0.93747
vn -0.34715 -0.02522 -0.93747
vn 0.96615 -0.00067 0.25796
vn -0.96615 0.00067 -0.25796
vn 0.73240 -0.09575 -0.67411
vn -0.73240 0.09575 0.67411
vn -0.24485 0.09815 -0.96458
vn 0.24485 -0.09815 0.96458
vn -0.97608 0.00176 -0.21742
vn 0.97608 -0.00176 0.21742
vn -0.43701 0.07278 -0.89651
vn 0.43701 -0.07278 0.89651
vn 0.14738 -0.08314 -0.98558
vn -0.14738 0.08314 0.98558
vn -0.95783 0.01462 0.28697
vn 0.95783 -0.01462 -0.28697
vn 0.63918 0.13725 0.75671
vn -0.63918 -0.13725 -0.75671
vn 0.89934 -0.08082 -0.42972
vn -0.89934 0.08082 0.42972
vn -0.90013 0.11887 0.41908
vn 0.90013 -0.11887 -0.41908
vn -0.45702 -0.09285 -0.88459
vn 0.45702 0.09285 0.88459
vn -0.39585 0.04872 -0.91702
vn 0.39585 -0.04872 0.91702
vn -0.98757 -0.00965 -0.15687
vn 0.98757 0.00965 0.15687
vn -0.46053 0.02134 -0.88739
vn 0.46053 -0.02134 0.88739
usemtl bark
f 1/1/1 2/2/1 3/3/1 4/4/1
f 5/5/2 6/6/2 7/7/2 8/8/2
f 9/9/3 10/10/3 11/11/3 12/12/3
f 13/13/4 14/14/4 15/15/4 16/16/4
f 17/17/5 18/18/5 19/19/5 20/20/5
f 21/21/6 22/22/6 23/23/6 24/24/6
f 25/25/7 26/26/7 27/27/7 28/28/7
f 29/29/8 30/30/8 31/31/8 32/32/8
f 33/33/9 34/34/9 35/35/9
f 36/36/10 37/37/10 38/38/10
f 39/39/11 40/40/11 41/41/11
f 42/42/12 43/43/12 44/44/12
f 45/45/13 46/46/13 47/47/13
f 48/48/14 49/49/14 50/50/14
f 51/51/15 52/52/15 53/53/15
f 54/54/16 55/55/16 56/56/16
f 57/57/17 58/58/17 59/59/17
f 60/60/18 61/61/18 62/62/18
f 63/63/19 64/64/19 65/65/19
f 66/66/20 67/67/20 68/68/20
f 69/69/21 70/70/21 71/71/21
f 72/72/22 73/73/22 74/74/22
f 75/75/23 76/76/23 77/77/23
f 78/78/24 79/79/24 80/80/24
f 81/81/25 82/82/25 83/83/25 84/84/25
f 85/85/26 86/86/26 87/87/26 88/88/26
f 89/89/27 90/90/27 91/91/27 92/92/27
f 93/93/28 94/94/28 95/95/28 96/96/28
f 97/97/29 98/98/29 99/99/29 100/100/29
f 101/101/30 102/102/30 103/103/30 104/104/30
f 105/105/31 106/106/31 107/107/31 108/108/31
f 109/109/32 110/110/32 111/111/32 112/112/32
f 113/113/33 114/114/33 115/115/33 116/116/33
f 117/117/34 118/118/34 119/119/34 120/120/34
f 121/121/35 122/122/35 123/123/35 124/124/35
f 125/125/36 126/126/36 127/127/36 128/128/36
f 129/129/37 130/130/37 131/131/37 132/132/37
f 133/133/38 134/134/38 135/135/38 136/136/38
f 137/137/39 138/138/39 139/139/39 140/140/39
f 141/141/40 142/142/40 143/143/40 144/144/40
f 145/145/41 146/146/41 147/147/41 148/148/41
f 149/149/42 150/150/42 151/151/42 152/152/42
f 153/153/43 154/154/43 155/155/43 156/156/43
f 157/157/44 158/158/44 159/159/44 160/160/44
f 161/161/45 162/162/45 163/163/45 164/164/45
f 165/165/46 166/166/46 167/167/46 168/168/46
f 169/169/47 170/170/47 171/171/47 172/172/47
f 173/173/48 174/174/48 175/175/48 176/176/48
f 177/177/49 178/178/49 179/179/49 180/180/49
f 181/181/50 182/182/50 183/183/50 184/184/50
f 185/185/51 186/186/51 187/187/51 188/188/51
f 189/189/52 190/190/52 191/191/52 192/192/52
f 193/193/53 194/194/53 195/195/53 196/196/53
f 197/197/54 198/198/54 199/199/54 200/200/54
f 201/201/55 202/202/55 203/203/55 204/204/55
f 205/205/56 206/206/56 207/207/56 208/208/56
f 209/209/57 210/210/57 211/211/57 212/212/57
f 213/213/58 214/214/58 215/215/58 216/216/58
f 217/217/59 218/218/59 219/219/59 220/220/59
usemtl green_leaf
f 221/221/60 222/222/60 223/223/60 224/224/60
f 225/225/61 226/226/61 227/227/61 228/228/61
f 229/229/62 230/230/62 231/231/62 232/232/62
f 233/233/63 234/234/63 235/235/63 236/236/63
f 237/237/64 238/238/64 239/239/64 240/240/64
f 241/241/65 242/242/65 243/243/65 244/244/65
f 245/245/66 246/246/66 247/247/66 248/248/66
f 249/249/67 250/250/67 251/251/67 252/252/67
f 253/253/68 254/254/68 255/255/68 256/256/68
f 257/257/69 258/258/69 259/259/69 260/260/69
f 261/261/70 262/262/70 263/263/70 264/264/70
f 265/265/71 266/266/71 267/267/71 268/268/71
f 269/269/72 270/270/72 271/271/72 272/272/72
f 273/273/73 274/274/73 275/275/73 276/276/73
f 277/277/74 278/278/74 279/279/74 280/280/74
f 281/281/75 282/282/75 283/283/75 284/284/75
f 285/285/76 286/286/76 287/287/76 288/288/76
f 289/289/77 290/290/77 291/291/77 292/292/77
f 293/293/78 294/294/78 295/295/78 296/296/78
f 297/297/79 298/298/79 299/299/79 300/300/79
f 301/301/80 302/302/80 303/303/80 304/304/80
f 305/305/81 306/306/81 307/307/81 308/308/81
f 309/309/82 310/310/82 311/311/82 312/312/82
f 313/313/83 314/314/83 315/315/83 316/316/83
f 317/317/84 318/318/84 319/319/84 320/320/84
f 321/321/85 322/322/85 323/323/85 324/324/85
f 325/325/86 326/326/86 327/327/86 328/328/86
f 329/329/87 330/330/87 331/331/87 332/332/87
f 333/333/88 334/334/88 335/335/88 336/336/88
f 337/337/89 338/338/89 339/339/89 340/340/89
f 341/341/90 342/342/90 343/343/90 344/344/90
f 345/345/91 346/346/91 347/347/91 348/348/91
f 349/349/92 350/350/92 351/351/92 352/352/92
f 353/353/93 354/354/93 355/355/93 356/356/93
f 357/357/94 358/358/94 359/359/94 360/360/94
f 361/361/95 362/362/95 363/363/95 364/364/95
f 365/365/96 366/366/96 367/367/96 368/368/96
f 369/369/97 370/370/97 371/371/97 372/372/97
f 373/373/98 374/374/98 375/375/98 376/376/98
f 377/377/99 378/378/99 379/379/99 380/380/99
f 381/381/100 382/382/100 383/383/100 384/384/100
f 385/385/101 386/386/101 387/387/101 388/388/101
f 389/389/102 390/390/102 391/391/102 392/392/102
f 393/393/103 394/394/103 395/395/103 396/396/103
f 397/397/104 398/398/104 399/399/104 400/400/104
f 401/401/105 402/402/105 403/403/105 404/404/105
f 405/405/106 406/406/106 407/407/106 408/408/106
f 409/409/107 410/410/107 411/411/107 412/412/107
f 413/413/108 414/414/108 415/415/108 416/416/108
f 417/417/109 418/418/109 419/419/109 420/420/109
f 421/421/110 422/422/110 423/423/110 424/424/110
f 425/425/111 426/426/111 427/427/111 428/428/111
f 429/429/112 430/430/112 431/431/112 432/432/112
f 433/433/113 434/434/113 435/435/113 436/436/113
f 437/437/114 438/438/114 439/439/114 440/440/114
f 441/441/115 442/442/115 443/443/115 444/444/115
f 445/445/116 446/446/116 447/447/116 448/448/116
f 449/449/117 450/450/117 451/451/117 452/452/117
f 453/453/118 454/454/118 455/455/118 456/456/118
f 457/457/119 458/458/119 459/459/119 460/460/119
f 461/461/120 462/462/120 463/463/120 464/464/120
f 465/465/121 466/466/121 467/467/121 468/468/121
f 469/469/122 470/470/122 471/471/122 472/472/122
f 473/473/123 474/474/123 475/475/123 476/476/123
f 477/477/124 478/478/124 479/479/124 480/480/124
f 481/481/125 482/482/125 483/483/125 484/484/125
f 485/485/126 486/486/126 487/487/126 488/488/126
f 489/489/127 490/490/127 491/491/127 492/492/127
f 493/493/128 494/494/128 495/495/128 496/496/128
f 497/497/129 498/498/129 499/499/129 500/500/129
f 501/501/130 502/502/130 503/503/130 504/504/130
f 505/505/131 506/506/131 507/507/131 508/508/131
f 509/509/132 510/510/132 511/511/132 512/512/132
f 513/513/133 514/514/133 515/515/133 516/516/133
f 517/517/134 518/518/134 519/519/134 520/520/134
f 521/521/135 522/522/135 523/523/135 524/524/135
f 525/525/136 526/526/136 527/527/136 528/528/136
f 529/529/137 530/530/137 531/531/137 532/532/137
f 533/533/138 534/534/138 535/535/138 536/536/138
f 537/537/139 538/538/139 539/539/139 540/540/139
f 541/541/140 542/542/140 543/543/140 544/544/140
f 545/545/141 546/546/141 547/547/141 548/548/141
f 549/549/142 550/550/142 551/551/142 552/552/142
f 553/553/143 554/554/143 555/555/143 556/556/143
f 557/557/144 558/558/144 559/559/144 560/560/144
f 561/561/145 562/562/145 563/563/145 564/564/145
f 565/565/146 566/566/146 567/567/146 568/568/146
f 569/569/147 570/570/147 571/571/147 572/572/147
f 573/573/148 574/574/148 575/575/148 576/576/148
f 577/577/149 578/578/149 579/579/149 580/580/149
f 581/581/150 582/582/150 583/583/150 584/584/150
f 585/585/151 586/586/151 587/587/151 588/588/151
f 589/589/152 590/590/152 591/591/152 592/592/152
f 593/593/153 594/594/153 595/595/153 596/596/153
f 597/597/154 598/598/154 599/599/154 600/600/154
f 601/601/155 602/602/155 603/603/155 604/604/155
f 605/605/156 606/606/156 607/607/156 608/608/156
f 609/609/157 610/610/157 611/611/157 612/612/157
f 613/613/158 614/614/158 615/615/158 616/616/158
f 617/617/159 618/618/159 619/619/159 620/620/159