# reeds_clump_tall
mtllib nomad_vegetation.mtl
o reeds_clump_tall
v 0.05765 0.00000 -0.03533
v 0.10897 0.00000 -0.00490
v 0.05281 0.81317 -0.03820
v 0.05281 0.81317 -0.03820
v 0.10897 0.00000 -0.00490
v 0.05765 0.00000 -0.03533
v 0.06581 0.56680 -0.02002
v 0.10081 0.56680 -0.02021
v 0.10081 0.76680 -0.02021
v 0.06581 0.76680 -0.02002
v 0.06581 0.76680 -0.02002
v 0.10081 0.76680 -0.02021
v 0.10081 0.56680 -0.02021
v 0.06581 0.56680 -0.02002
v -0.02634 0.00000 -0.06488
v -0.07717 0.00000 -0.06328
v -0.00638 0.97957 -0.06551
v -0.00638 0.97957 -0.06551
v -0.07717 0.00000 -0.06328
v -0.02634 0.00000 -0.06488
v -0.06024 0.70324 -0.04877
v -0.04327 0.70324 -0.07939
v -0.04327 0.90324 -0.07939
v -0.06024 0.90324 -0.04877
v -0.06024 0.90324 -0.04877
v -0.04327 0.90324 -0.07939
v -0.04327 0.70324 -0.07939
v -0.06024 0.70324 -0.04877
v 0.02389 0.00000 0.04145
v -0.01320 0.00000 0.06576
v -0.06355 0.76000 0.09876
v -0.06355 0.76000 0.09876
v -0.01320 0.00000 0.06576
v 0.02389 0.00000 0.04145
v 0.01803 0.52320 0.04155
v -0.00734 0.52320 0.06566
v -0.00734 0.72320 0.06566
v 0.01803 0.72320 0.04155
v 0.01803 0.72320 0.04155
v -0.00734 0.72320 0.06566
v -0.00734 0.52320 0.06566
v 0.01803 0.52320 0.04155
v 0.01036 0.00000 0.07337
v -0.01673 0.00000 0.04787
v 0.00563 1.24580 0.06891
v 0.00563 1.24580 0.06891
v -0.01673 0.00000 0.04787
v 0.01036 0.00000 0.07337
v 0.00611 0.92156 0.07544
v -0.01248 0.92156 0.04579
v -0.01248 1.12156 0.04579
v 0.00611 1.12156 0.07544
v 0.00611 1.12156 0.07544
v -0.01248 1.12156 0.04579
v -0.01248 0.92156 0.04579
v 0.00611 0.92156 0.07544
v -0.06125 0.00000 -0.08091
v -0.01425 0.00000 -0.11444
v -0.01766 0.99879 -0.11201
v -0.01766 0.99879 -0.11201
v -0.01425 0.00000 -0.11444
v -0.06125 0.00000 -0.08091
v -0.04872 0.71901 -0.11131
v -0.02678 0.71901 -0.08404
v -0.02678 0.91901 -0.08404
v -0.04872 0.91901 -0.11131
v -0.04872 0.91901 -0.11131
v -0.02678 0.91901 -0.08404
v -0.02678 0.71901 -0.08404
v -0.04872 0.71901 -0.11131
v 0.02337 0.00000 -0.00824
v 0.06277 0.00000 -0.02213
v 0.06591 0.99433 -0.02324
v 0.06591 0.99433 -0.02324
v 0.06277 0.00000 -0.02213
v 0.02337 0.00000 -0.00824
v 0.04538 0.71535 0.00216
v 0.04076 0.71535 -0.03253
v 0.04076 0.91535 -0.03253
v 0.04538 0.91535 0.00216
v 0.04538 0.91535 0.00216
v 0.04076 0.91535 -0.03253
v 0.04076 0.71535 -0.03253
v 0.04538 0.71535 0.00216
v -0.05927 0.00000 0.14008
v -0.01579 0.00000 0.18938
v 0.00055 0.92835 0.20791
v 0.00055 0.92835 0.20791
v -0.01579 0.00000 0.18938
v -0.05927 0.00000 0.14008
v -0.05184 0.66125 0.15465
v -0.02322 0.66125 0.17480
v -0.02322 0.86125 0.17480
v -0.05184 0.86125 0.15465
v -0.05184 0.86125 0.15465
v -0.02322 0.86125 0.17480
v -0.02322 0.66125 0.17480
v -0.05184 0.66125 0.15465
v -0.01204 0.00000 -0.14210
v -0.07654 0.00000 -0.14356
v 0.00012 1.22500 -0.14182
v 0.00012 1.22500 -0.14182
v -0.07654 0.00000 -0.14356
v -0.01204 0.00000 -0.14210
v -0.05456 0.90450 -0.15700
v -0.03402 0.90450 -0.12866
v -0.03402 1.10450 -0.12866
v -0.05456 1.10450 -0.15700
v -0.05456 1.10450 -0.15700
v -0.03402 1.10450 -0.12866
v -0.03402 0.90450 -0.12866
v -0.05456 0.90450 -0.15700
v -0.09737 0.00000 -0.00649
v -0.16391 0.00000 -0.00960
v -0.17682 0.78571 -0.01020
v -0.17682 0.78571 -0.01020
v -0.16391 0.00000 -0.00960
v -0.09737 0.00000 -0.00649
v -0.13392 0.54428 -0.02524
v -0.12735 0.54428 0.00914
v -0.12735 0.74428 0.00914
v -0.13392 0.74428 -0.02524
v -0.13392 0.74428 -0.02524
v -0.12735 0.74428 0.00914
v -0.12735 0.54428 0.00914
v -0.13392 0.54428 -0.02524
v 0.10830 0.00000 -0.00361
v 0.06899 0.00000 0.01691
v 0.09942 0.92162 0.00102
v 0.09942 0.92162 0.00102
v 0.06899 0.00000 0.01691
v 0.10830 0.00000 -0.00361
v 0.07980 0.65572 0.02175
v 0.09749 0.65572 -0.00845
v 0.09749 0.85572 -0.00845
v 0.07980 0.85572 0.02175
v 0.07980 0.85572 0.02175
v 0.09749 0.85572 -0.00845
v 0.09749 0.65572 -0.00845
v 0.07980 0.65572 0.02175
v 0.08751 0.00000 0.16900
v 0.06633 0.00000 0.13410
v 0.02738 0.94813 0.06994
v 0.02738 0.94813 0.06994
v 0.06633 0.00000 0.13410
v 0.08751 0.00000 0.16900
v 0.07170 0.67747 0.13485
v 0.08214 0.67747 0.16825
v 0.08214 0.87747 0.16825
v 0.07170 0.87747 0.13485
v 0.07170 0.87747 0.13485
v 0.08214 0.87747 0.16825
v 0.08214 0.67747 0.16825
v 0.07170 0.67747 0.13485
v -0.03190 0.00000 0.12398
v -0.06558 0.00000 0.17574
v -0.02181 0.75661 0.10848
v -0.02181 0.75661 0.10848
v -0.06558 0.00000 0.17574
v -0.03190 0.00000 0.12398
v -0.03265 0.52042 0.14297
v -0.06483 0.52042 0.15675
v -0.06483 0.72042 0.15675
v -0.03265 0.72042 0.14297
v -0.03265 0.72042 0.14297
v -0.06483 0.72042 0.15675
v -0.06483 0.52042 0.15675
v -0.03265 0.52042 0.14297
v -0.05211 0.00000 0.05948
v -0.09426 0.00000 0.03328
v -0.04939 0.97303 0.06118
v -0.04939 0.97303 0.06118
v -0.09426 0.00000 0.03328
v -0.05211 0.00000 0.05948
v -0.08765 0.69788 0.03653
v -0.05872 0.69788 0.05623
v -0.05872 0.89788 0.05623
v -0.08765 0.89788 0.03653
v -0.08765 0.89788 0.03653
v -0.05872 0.89788 0.05623
v -0.05872 0.69788 0.05623
v -0.08765 0.69788 0.03653
v 0.03278 0.00000 0.05486
v 0.04966 0.00000 0.01035
v 0.04508 1.01047 0.02243
v 0.04508 1.01047 0.02243
v 0.04966 0.00000 0.01035
v 0.03278 0.00000 0.05486
v 0.04576 0.72859 0.04951
v 0.03667 0.72859 0.01571
v 0.03667 0.92859 0.01571
v 0.04576 0.92859 0.04951
v 0.04576 0.92859 0.04951
v 0.03667 0.92859 0.01571
v 0.03667 0.72859 0.01571
v 0.04576 0.72859 0.04951
vt 0.00000 0.00000
vt 1.00000 0.00000
vt 0.50000 1.00000
vt 0.50000 1.00000
vt 1.00000 0.00000
vt 0.00000 0.00000
vt 0.00000 0.00000
vt 1.00000 0.00000
vt 1.00000 1.00000
vt 0.00000 1.00000
vt 0.00000 1.00000
vt 1.00000 1.00000
vt 1.00000 0.00000
vt 0.00000 0.00000
vt 0.00000 0.00000
vt 1.00000 0.00000
vt 0.50000 1.00000
vt 0.50000 1.00000
vt 1.00000 0.00000
vt 0.00000 0.00000
vt 0.00000 0.00000
vt 1.00000 0.00000
vt 1.00000 1.00000
vt 0.00000 1.00000
vt 0.00000 1.00000
vt 1.00000 1.00000
vt 1.00000 0.00000
vt 0.00000 0.00000
vt 0.00000 0.00000
vt 1.00000 0.00000
vt 0.50000 1.00000
vt 0.50000 1.00000
vt 1.00000 0.00000
vt 0.00000 0.00000
vt 0.00000 0.00000
vt 1.00000 0.00000
vt 1.00000 1.00000
vt 0.00000 1.00000
vt 0.00000 1.00000
vt 1.00000 1.00000
vt 1.00000 0.00000
vt 0.00000 0.00000
vt 0.00000 0.00000
vt 1.00000 0.00000
vt 0.50000 1.00000
vt 0.50000 1.00000
vt 1.00000 0.00000
vt 0.00000 0.00000
vt 0.00000 0.00000
vt 1.00000 0.00000
vt 1.00000 1.00000
vt 0.00000 1.00000
vt 0.00000 1.00000
vt 1.00000 1.00000
vt 1.00000 0.00000
vt 0.00000 0.00000
vt 0.00000 0.00000
vt 1.00000 0.00000
vt 0.50000 1.00000
vt 0.50000 1.00000
vt 1.00000 0.00000
vt 0.00000 0.00000
vt 0.00000 0.00000
vt 1.00000 0.00000
vt 1.00000 1.00000
vt 0.00000 1.00000
vt 0.00000 1.00000
vt 1.00000 1.00000
vt 1.00000 0.00000
vt 0.00000 0.00000
vt 0.00000 0.00000
vt 1.00000 0.00000
vt 0.50000 1.00000
vt 0.50000 1.00000
vt 1.00000 0.00000
vt 0.00000 0.00000
vt 0.00000 0.00000
vt 1.00000 0.00000
vt 1.00000 1.00000
vt 0.00000 1.00000
vt 0.00000 1.00000
vt 1.00000 1.00000
vt 1.00000 0.00000
vt 0.00000 0.00000
vt 0.00000 0.00000
vt 1.00000 0.00000
vt 0.50000 1.00000
vt 0.50000 1.00000
vt 1.00000 0.00000
vt 0.00000 0.00000
vt 0.00000 0.00000
vt 1.00000 0.00000
vt 1.00000 1.00000
vt 0.00000 1.00000
vt 0.00000 1.00000
vt 1.00000 1.00000
vt 1.00000 0.00000
vt 0.00000 0.00000
vt 0.00000 0.00000
vt 1.00000 0.00000
vt 0.50000 1.00000
vt 0.50000 1.00000
vt 1.00000 0.00000
vt 0.00000 0.00000
vt 0.00000 0.00000
vt 1.00000 0.00000
vt 1.00000 1.00000
vt 0.00000 1.00000
vt 0.00000 1.00000
vt 1.00000 1.00000
vt 1.00000 0.00000
vt 0.00000 0.00000
vt 0.00000 0.00000
vt 1.00000 0.00000
vt 0.50000 1.00000
vt 0.50000 1.00000
vt 1.00000 0.00000
vt 0.00000 0.00000
vt 0.00000 0.00000
vt 1.00000 0.00000
vt 1.00000 1.00000
vt 0.00000 1.00000
vt 0.00000 1.00000
vt 1.00000 1.00000
vt 1.00000 0.00000
vt 0.00000 0.00000
vt 0.00000 0.00000
vt 1.00000 0.00000
vt 0.50000 1.00000
vt 0.50000 1.00000
vt 1.00000 0.00000
vt 0.00000 0.00000
vt 0.00000 0.00000
vt 1.00000 0.00000
vt 1.00000 1.00000
vt 0.00000 1.00000
vt 0.00000 1.00000
vt 1.00000 1.00000
vt 1.00000 0.00000
vt 0.00000 0.00000
vt 0.00000 0.00000
vt 1.00000 0.00000
vt 0.50000 1.00000
vt 0.50000 1.00000
vt 1.00000 0.00000
vt 0.00000 0.00000
vt 0.00000 0.00000
vt 1.00000 0.00000
vt 1.00000 1.00000
vt 0.00000 1.00000
vt 0.00000 1.00000
vt 1.00000 1.00000
vt 1.00000 0.00000
vt 0.00000 0.00000
vt 0.00000 0.00000
vt 1.00000 0.00000
vt 0.50000 1.00000
vt 0.50000 1.00000
vt 1.00000 0.00000
vt 0.00000 0.00000
vt 0.00000 0.00000
vt 1.00000 0.00000
vt 1.00000 1.00000
vt 0.00000 1.00000
vt 0.00000 1.00000
vt 1.00000 1.00000
vt 1.00000 0.00000
vt 0.00000 0.00000
vt 0.00000 0.00000
vt 1.00000 0.00000
vt 0.50000 1.00000
vt 0.50000 1.00000
vt 1.00000 0.00000
vt 0.00000 0.00000
vt 0.00000 0.00000
vt 1.00000 0.00000
vt 1.00000 1.00000
vt 0.00000 1.00000
vt 0.00000 1.00000
vt 1.00000 1.00000
vt 1.00000 0.00000
vt 0.00000 0.00000
vt 0.00000 0.00000
vt 1.00000 0.00000
vt 0.50000 1.00000
vt 0.50000 1.00000
vt 1.00000 0.00000
vt 0.00000 0.00000
vt 0.00000 0.00000
vt 1.00000 0.00000
vt 1.00000 1.00000
vt 0.00000 1.00000
vt 0.00000 1.00000
vt 1.00000 1.00000
vt 1.00000 0.00000
vt 0.00000 0.00000
vn -0.51004 -0.00000 0.86015
vn 0.51004 0.00000 -0.86015
vn 0.00548 0.00000 0.99999
vn -0.00548 -0.00000 -0.99999
vn -0.03152 -0.00000 -0.99950
vn 0.03152 0.00000 0.99950
vn 0.87472 0.00000 0.48462
vn -0.87472 -0.00000 -0.48462
vn -0.54816 0.00000 -0.83637
vn 0.54816 -0.00000 0.83637
vn -0.68877 0.00000 -0.72498
vn 0.68877 -0.00000 0.72498
vn 0.68532 0.00000 -0.72825
vn -0.68532 -0.00000 0.72825
vn 0.84715 0.00000 -0.53135
vn -0.84715 -0.00000 0.53135
vn 0.58077 -0.00000 0.81406
vn -0.58077 0.00000 -0.81406
vn -0.77901 0.00000 0.62702
vn 0.77901 -0.00000 -0.62702
vn 0.33256 0.00000 0.94308
vn -0.33256 -0.00000 -0.94308
vn 0.99126 0.00000 -0.13193
vn -0.99126 -0.00000 0.13193
vn -0.75001 -0.00000 0.66143
vn 0.75001 0.00000 -0.66143
vn -0.57560 0.00000 0.81773
vn 0.57560 -0.00000 -0.81773
vn 0.02275 -0.00000 -0.99974
vn -0.02275 0.00000 0.99974
vn -0.80961 0.00000 0.58697
vn 0.80961 -0.00000 -0.58697
vn 0.04659 0.00000 -0.99891
vn -0.04659 -0.00000 0.99891
vn -0.98223 0.00000 0.18766
vn 0.98223 -0.00000 -0.18766
vn -0.46291 0.00000 -0.88640
vn 0.46291 -0.00000 0.88640
vn 0.86292 0.00000 0.50534
vn -0.86292 -0.00000 -0.50534
vn 0.85484 0.00000 -0.51890
vn -0.85484 -0.00000 0.51890
vn -0.95451 0.00000 0.29819
vn 0.95451 -0.00000 -0.29819
vn -0.83816 0.00000 -0.54543
vn 0.83816 -0.00000 0.54543
vn -0.39364 0.00000 -0.91926
vn 0.39364 -0.00000 0.91926
vn 0.52789 0.00000 -0.84931
vn -0.52789 -0.00000 0.84931
vn -0.56266 0.00000 0.82669
vn 0.56266 -0.00000 -0.82669
vn 0.93500 0.00000 0.35465
vn -0.93500 -0.00000 -0.35465
vn 0.96567 0.00000 -0.25977
vn -0.96567 -0.00000 0.25977
usemtl mud_leaf
f 1/1/1 2/2/1 3/3/1
f 4/4/2 5/5/2 6/6/2
usemtl dry_leaf
f 7/7/3 8/8/3 9/9/3 10/10/3
f 11/11/4 12/12/4 13/13/4 14/14/4
usemtl mud_leaf
f 15/15/5 16/16/5 17/17/5
f 18/18/6 19/19/6 20/20/6
usemtl dry_leaf
f 21/21/7 22/22/7 23/23/7 24/24/7
f 25/25/8 26/26/8 27/27/8 28/28/8
usemtl mud_leaf
f 29/29/9 30/30/9 31/31/9
f 32/32/10 33/33/10 34/34/10
usemtl dry_leaf
f 35/35/11 36/36/11 37/37/11 38/38/11
f 39/39/12 40/40/12 41/41/12 42/42/12
usemtl mud_leaf
f 43/43/13 44/44/13 45/45/13
f 46/46/14 47/47/14 48/48/14
usemtl dry_leaf
f 49/49/15 50/50/15 51/51/15 52/52/15
f 53/53/16 54/54/16 55/55/16 56/56/16
usemtl mud_leaf
f 57/57/17 58/58/17 59/59/17
f 60/60/18 61/61/18 62/62/18
usemtl dry_leaf
f 63/63/19 64/64/19 65/65/19 66/66/19
f 67/67/20 68/68/20 69/69/20 70/70/20
usemtl mud_leaf
f 71/71/21 72/72/21 73/73/21
f 74/74/22 75/75/22 76/76/22
usemtl dry_leaf
f 77/77/23 78/78/23 79/79/23 80/80/23
f 81/81/24 82/82/24 83/83/24 84/84/24
usemtl mud_leaf
f 85/85/25 86/86/25 87/87/25
f 88/88/26 89/89/26 90/90/26
usemtl dry_leaf
f 91/91/27 92/92/27 93/93/27 94/94/27
f 95/95/28 96/96/28 97/97/28 98/98/28
usemtl mud_leaf
f 99/99/29 100/100/29 101/101/29
f 102/102/30 103/103/30 104/104/30
usemtl dry_leaf
f 105/105/31 106/106/31 107/107/31 108/108/31
f 109/109/32 110/110/32 111/111/32 112/112/32
usemtl mud_leaf
f 113/113/33 114/114/33 115/115/33
f 116/116/34 117/117/34 118/118/34
usemtl dry_leaf
f 119/119/35 120/120/35 121/121/35 122/122/35
f 123/123/36 124/124/36 125/125/36 126/126/36
usemtl mud_leaf
f 127/127/37 128/128/37 129/129/37
f 130/130/38 131/131/38 132/132/38
usemtl dry_leaf
f 133/133/39 134/134/39 135/135/39 136/136/39
f 137/137/40 138/138/40 139/139/40 140/140/40
usemtl mud_leaf
f 141/141/41 142/142/41 143/143/41
f 144/144/42 145/145/42 146/146/42
usemtl dry_leaf
f 147/147/43 148/148/43 149/149/43 150/150/43
f 151/151/44 152/152/44 153/153/44 154/154/44
usemtl mud_leaf
f 155/155/45 156/156/45 157/157/45
f 158/158/46 159/159/46 160/160/46
usemtl dry_leaf
f 161/161/47 162/162/47 163/163/47 164/164/47
f 165/165/48 166/166/48 167/167/48 168/168/48
usemtl mud_leaf
f 169/169/49 170/170/49 171/171/49
f 172/172/50 173/173/50 174/174/50
usemtl dry_leaf
f 175/175/51 176/176/51 177/177/51 178/178/51
f 179/179/52 180/180/52 181/181/52 182/182/52
usemtl mud_leaf
f 183/183/53 184/184/53 185/185/53
f 186/186/54 187/187/54 188/188/54
usemtl dry_leaf
f 189/189/55 190/190/55 191/191/55 192/192/55
f 193/193/56 194/194/56 195/195/56 196/196/56