# small_ribbed_cactus
mtllib nomad_vegetation.mtl
o small_ribbed_cactus
v 0.12000 0.00000 0.00000
v 0.09708 0.00000 0.07053
v 0.07767 0.85000 0.05643
v 0.09600 0.85000 0.00000
v 0.09708 0.00000 0.07053
v 0.03708 0.00000 0.11413
v 0.02967 0.85000 0.09130
v 0.07767 0.85000 0.05643
v 0.03708 0.00000 0.11413
v -0.03708 0.00000 0.11413
v -0.02967 0.85000 0.09130
v 0.02967 0.85000 0.09130
v -0.03708 0.00000 0.11413
v -0.09708 0.00000 0.07053
v -0.07767 0.85000 0.05643
v -0.02967 0.85000 0.09130
v -0.09708 0.00000 0.07053
v -0.12000 0.00000 0.00000
v -0.09600 0.85000 0.00000
v -0.07767 0.85000 0.05643
v -0.12000 0.00000 0.00000
v -0.09708 0.00000 -0.07053
v -0.07767 0.85000 -0.05643
v -0.09600 0.85000 0.00000
v -0.09708 0.00000 -0.07053
v -0.03708 0.00000 -0.11413
v -0.02967 0.85000 -0.09130
v -0.07767 0.85000 -0.05643
v -0.03708 0.00000 -0.11413
v 0.03708 0.00000 -0.11413
v 0.02967 0.85000 -0.09130
v -0.02967 0.85000 -0.09130
v 0.03708 0.00000 -0.11413
v 0.09708 0.00000 -0.07053
v 0.07767 0.85000 -0.05643
v 0.02967 0.85000 -0.09130
v 0.09708 0.00000 -0.07053
v 0.12000 0.00000 -0.00000
v 0.09600 0.85000 -0.00000
v 0.07767 0.85000 -0.05643
v 0.00000 0.00000 0.00000
v 0.09708 0.00000 0.07053
v 0.12000 0.00000 0.00000
v 0.00000 0.85000 0.00000
v 0.09600 0.85000 0.00000
v 0.07767 0.85000 0.05643
v 0.00000 0.00000 0.00000
v 0.03708 0.00000 0.11413
v 0.09708 0.00000 0.07053
v 0.00000 0.85000 0.00000
v 0.07767 0.85000 0.05643
v 0.02967 0.85000 0.09130
v 0.00000 0.00000 0.00000
v -0.03708 0.00000 0.11413
v 0.03708 0.00000 0.11413
v 0.00000 0.85000 0.00000
v 0.02967 0.85000 0.09130
v -0.02967 0.85000 0.09130
v 0.00000 0.00000 0.00000
v -0.09708 0.00000 0.07053
v -0.03708 0.00000 0.11413
v 0.00000 0.85000 0.00000
v -0.02967 0.85000 0.09130
v -0.07767 0.85000 0.05643
v 0.00000 0.00000 0.00000
v -0.12000 0.00000 0.00000
v -0.09708 0.00000 0.07053
v 0.00000 0.85000 0.00000
v -0.07767 0.85000 0.05643
v -0.09600 0.85000 0.00000
v 0.00000 0.00000 0.00000
v -0.09708 0.00000 -0.07053
v -0.12000 0.00000 0.00000
v 0.00000 0.85000 0.00000
v -0.09600 0.85000 0.00000
v -0.07767 0.85000 -0.05643
v 0.00000 0.00000 0.00000
v -0.03708 0.00000 -0.11413
v -0.09708 0.00000 -0.07053
v 0.00000 0.85000 0.00000
v -0.07767 0.85000 -0.05643
v -0.02967 0.85000 -0.09130
v 0.00000 0.00000 0.00000
v 0.03708 0.00000 -0.11413
v -0.03708 0.00000 -0.11413
v 0.00000 0.85000 0.00000
v -0.02967 0.85000 -0.09130
v 0.02967 0.85000 -0.09130
v 0.00000 0.00000 0.00000
v 0.09708 0.00000 -0.07053
v 0.03708 0.00000 -0.11413
v 0.00000 0.85000 0.00000
v 0.02967 0.85000 -0.09130
v 0.07767 0.85000 -0.05643
v 0.00000 0.00000 0.00000
v 0.12000 0.00000 -0.00000
v 0.09708 0.00000 -0.07053
v 0.00000 0.85000 0.00000
v 0.07767 0.85000 -0.05643
v 0.09600 0.85000 -0.00000
v 0.23500 0.28000 0.00000
v 0.21889 0.28000 0.03889
v 0.20917 0.70000 0.02917
v 0.22125 0.70000 0.00000
v 0.21889 0.28000 0.03889
v 0.18000 0.28000 0.05500
v 0.18000 0.70000 0.04125
v 0.20917 0.70000 0.02917
v 0.18000 0.28000 0.05500
v 0.14111 0.28000 0.03889
v 0.15083 0.70000 0.02917
v 0.18000 0.70000 0.04125
v 0.14111 0.28000 0.03889
v 0.12500 0.28000 0.00000
v 0.13875 0.70000 0.00000
v 0.15083 0.70000 0.02917
v 0.12500 0.28000 0.00000
v 0.14111 0.28000 -0.03889
v 0.15083 0.70000 -0.02917
v 0.13875 0.70000 0.00000
v 0.14111 0.28000 -0.03889
v 0.18000 0.28000 -0.05500
v 0.18000 0.70000 -0.04125
v 0.15083 0.70000 -0.02917
v 0.18000 0.28000 -0.05500
v 0.21889 0.28000 -0.03889
v 0.20917 0.70000 -0.02917
v 0.18000 0.70000 -0.04125
v 0.21889 0.28000 -0.03889
v 0.23500 0.28000 -0.00000
v 0.22125 0.70000 -0.00000
v 0.20917 0.70000 -0.02917
v 0.18000 0.28000 0.00000
v 0.21889 0.28000 0.03889
v 0.23500 0.28000 0.00000
v 0.18000 0.70000 0.00000
v 0.22125 0.70000 0.00000
v 0.20917 0.70000 0.02917
v 0.18000 0.28000 0.00000
v 0.18000 0.28000 0.05500
v 0.21889 0.28000 0.03889
v 0.18000 0.70000 0.00000
v 0.20917 0.70000 0.02917
v 0.18000 0.70000 0.04125
v 0.18000 0.28000 0.00000
v 0.14111 0.28000 0.03889
v 0.18000 0.28000 0.05500
v 0.18000 0.70000 0.00000
v 0.18000 0.70000 0.04125
v 0.15083 0.70000 0.02917
v 0.18000 0.28000 0.00000
v 0.12500 0.28000 0.00000
v 0.14111 0.28000 0.03889
v 0.18000 0.70000 0.00000
v 0.15083 0.70000 0.02917
v 0.13875 0.70000 0.00000
v 0.18000 0.28000 0.00000
v 0.14111 0.28000 -0.03889
v 0.12500 0.28000 0.00000
v 0.18000 0.70000 0.00000
v 0.13875 0.70000 0.00000
v 0.15083 0.70000 -0.02917
v 0.18000 0.28000 0.00000
v 0.18000 0.28000 -0.05500
v 0.14111 0.28000 -0.03889
v 0.18000 0.70000 0.00000
v 0.15083 0.70000 -0.02917
v 0.18000 0.70000 -0.04125
v 0.18000 0.28000 0.00000
v 0.21889 0.28000 -0.03889
v 0.18000 0.28000 -0.05500
v 0.18000 0.70000 0.00000
v 0.18000 0.70000 -0.04125
v 0.20917 0.70000 -0.02917
v 0.18000 0.28000 0.00000
v 0.23500 0.28000 -0.00000
v 0.21889 0.28000 -0.03889
v 0.18000 0.70000 0.00000
v 0.20917 0.70000 -0.02917
v 0.22125 0.70000 -0.00000
v -0.11000 0.38000 0.04000
v -0.12464 0.38000 0.07536
v -0.13525 0.74000 0.06475
v -0.12500 0.74000 0.04000
v -0.12464 0.38000 0.07536
v -0.16000 0.38000 0.09000
v -0.16000 0.74000 0.07500
v -0.13525 0.74000 0.06475
v -0.16000 0.38000 0.09000
v -0.19536 0.38000 0.07536
v -0.18475 0.74000 0.06475
v -0.16000 0.74000 0.07500
v -0.19536 0.38000 0.07536
v -0.21000 0.38000 0.04000
v -0.19500 0.74000 0.04000
v -0.18475 0.74000 0.06475
v -0.21000 0.38000 0.04000
v -0.19536 0.38000 0.00464
v -0.18475 0.74000 0.01525
v -0.19500 0.74000 0.04000
v -0.19536 0.38000 0.00464
v -0.16000 0.38000 -0.01000
v -0.16000 0.74000 0.00500
v -0.18475 0.74000 0.01525
v -0.16000 0.38000 -0.01000
v -0.12464 0.38000 0.00464
v -0.13525 0.74000 0.01525
v -0.16000 0.74000 0.00500
v -0.12464 0.38000 0.00464
v -0.11000 0.38000 0.04000
v -0.12500 0.74000 0.04000
v -0.13525 0.74000 0.01525
v -0.16000 0.38000 0.04000
v -0.12464 0.38000 0.07536
v -0.11000 0.38000 0.04000
v -0.16000 0.74000 0.04000
v -0.12500 0.74000 0.04000
v -0.13525 0.74000 0.06475
v -0.16000 0.38000 0.04000
v -0.16000 0.38000 0.09000
v -0.12464 0.38000 0.07536
v -0.16000 0.74000 0.04000
v -0.13525 0.74000 0.06475
v -0.16000 0.74000 0.07500
v -0.16000 0.38000 0.04000
v -0.19536 0.38000 0.07536
v -0.16000 0.38000 0.09000
v -0.16000 0.74000 0.04000
v -0.16000 0.74000 0.07500
v -0.18475 0.74000 0.06475
v -0.16000 0.38000 0.04000
v -0.21000 0.38000 0.04000
v -0.19536 0.38000 0.07536
v -0.16000 0.74000 0.04000
v -0.18475 0.74000 0.06475
v -0.19500 0.74000 0.04000
v -0.16000 0.38000 0.04000
v -0.19536 0.38000 0.00464
v -0.21000 0.38000 0.04000
v -0.16000 0.74000 0.04000
v -0.19500 0.74000 0.04000
v -0.18475 0.74000 0.01525
v -0.16000 0.38000 0.04000
v -0.16000 0.38000 -0.01000
v -0.19536 0.38000 0.00464
v -0.16000 0.74000 0.04000
v -0.18475 0.74000 0.01525
v -0.16000 0.74000 0.00500
v -0.16000 0.38000 0.04000
v -0.12464 0.38000 0.00464
v -0.16000 0.38000 -0.01000
v -0.16000 0.74000 0.04000
v -0.16000 0.74000 0.00500
v -0.13525 0.74000 0.01525
v -0.16000 0.38000 0.04000
v -0.11000 0.38000 0.04000
v -0.12464 0.38000 0.00464
v -0.16000 0.74000 0.04000
v -0.13525 0.74000 0.01525
v -0.12500 0.74000 0.04000
v 0.12300 0.02000 -0.00900
v 0.12300 0.02000 0.00900
v 0.12300 0.80000 0.00900
v 0.12300 0.80000 -0.00900
v 0.12300 0.80000 -0.00900
v 0.12300 0.80000 0.00900
v 0.12300 0.02000 0.00900
v 0.12300 0.02000 -0.00900
v 0.06929 0.02000 0.10202
v 0.05371 0.02000 0.11102
v 0.05371 0.80000 0.11102
v 0.06929 0.80000 0.10202
v 0.06929 0.80000 0.10202
v 0.05371 0.80000 0.11102
v 0.05371 0.02000 0.11102
v 0.06929 0.02000 0.10202
v -0.05371 0.02000 0.11102
v -0.06929 0.02000 0.10202
v -0.06929 0.80000 0.10202
v -0.05371 0.80000 0.11102
v -0.05371 0.80000 0.11102
v -0.06929 0.80000 0.10202
v -0.06929 0.02000 0.10202
v -0.05371 0.02000 0.11102
v -0.12300 0.02000 0.00900
v -0.12300 0.02000 -0.00900
v -0.12300 0.80000 -0.00900
v -0.12300 0.80000 0.00900
v -0.12300 0.80000 0.00900
v -0.12300 0.80000 -0.00900
v -0.12300 0.02000 -0.00900
v -0.12300 0.02000 0.00900
v -0.06929 0.02000 -0.10202
v -0.05371 0.02000 -0.11102
v -0.05371 0.80000 -0.11102
v -0.06929 0.80000 -0.10202
v -0.06929 0.80000 -0.10202
v -0.05371 0.80000 -0.11102
v -0.05371 0.02000 -0.11102
v -0.06929 0.02000 -0.10202
v 0.05371 0.02000 -0.11102
v 0.06929 0.02000 -0.10202
v 0.06929 0.80000 -0.10202
v 0.05371 0.80000 -0.11102
v 0.05371 0.80000 -0.11102
v 0.06929 0.80000 -0.10202
v 0.06929 0.02000 -0.10202
v 0.05371 0.02000 -0.11102
vt 0.00000 0.00000
vt 1.00000 0.00000
vt 1.00000 1.00000
vt 0.00000 1.00000
vt 0.00000 0.00000
vt 1.00000 0.00000
vt 1.00000 1.00000
vt 0.00000 1.00000
vt 0.00000 0.00000
vt 1.00000 0.00000
vt 1.00000 1.00000
vt 0.00000 1.00000
vt 0.00000 0.00000
vt 1.00000 0.00000
vt 1.00000 1.00000
vt 0.00000 1.00000
vt 0.00000 0.00000
vt 1.00000 0.00000
vt 1.00000 1.00000
vt 0.00000 1.00000
vt 0.00000 0.00000
vt 1.00000 0.00000
vt 1.00000 1.00000
vt 0.00000 1.00000
vt 0.00000 0.00000
vt 1.00000 0.00000
vt 1.00000 1.00000
vt 0.00000 1.00000
vt 0.00000 0.00000
vt 1.00000 0.00000
vt 1.00000 1.00000
vt 0.00000 1.00000
vt 0.00000 0.00000
vt 1.00000 0.00000
vt 1.00000 1.00000
vt 0.00000 1.00000
vt 0.00000 0.00000
vt 1.00000 0.00000
vt 1.00000 1.00000
vt 0.00000 1.00000
vt 0.00000 0.00000
vt 1.00000 0.00000
vt 1.00000 1.00000
vt 0.00000 0.00000
vt 1.00000 0.00000
vt 1.00000 1.00000
vt 0.00000 0.00000
vt 1.00000 0.00000
vt 1.00000 1.00000
vt 0.00000 0.00000
vt 1.00000 0.00000
vt 1.00000 1.00000
vt 0.00000 0.00000
vt 1.00000 0.00000
vt 1.00000 1.00000
vt 0.00000 0.00000
vt 1.00000 0.00000
vt 1.00000 1.00000
vt 0.00000 0.00000
vt 1.00000 0.00000
vt 1.00000 1.00000
vt 0.00000 0.00000
vt 1.00000 0.00000
vt 1.00000 1.00000
vt 0.00000 0.00000
vt 1.00000 0.00000
vt 1.00000 1.00000
vt 0.00000 0.00000
vt 1.00000 0.00000
vt 1.00000 1.00000
vt 0.00000 0.00000
vt 1.00000 0.00000
vt 1.00000 1.00000
vt 0.00000 0.00000
vt 1.00000 0.00000
vt 1.00000 1.00000
vt 0.00000 0.00000
vt 1.00000 0.00000
vt 1.00000 1.00000
vt 0.00000 0.00000
vt 1.00000 0.00000
vt 1.00000 1.00000
vt 0.00000 0.00000
vt 1.00000 0.00000
vt 1.00000 1.00000
vt 0.00000 0.00000
vt 1.00000 0.00000
vt 1.00000 1.00000
vt 0.00000 0.00000
vt 1.00000 0.00000
vt 1.00000 1.00000
vt 0.00000 0.00000
vt 1.00000 0.00000
vt 1.00000 1.00000
vt 0.00000 0.00000
vt 1.00000 0.00000
vt 1.00000 1.00000
vt 0.00000 0.00000
vt 1.00000 0.00000
vt 1.00000 1.00000
vt 0.00000 0.00000
vt 1.00000 0.00000
vt 1.00000 1.00000
vt 0.00000 1.00000
vt 0.00000 0.00000
vt 1.00000 0.00000
vt 1.00000 1.00000
vt 0.00000 1.00000
vt 0.00000 0.00000
vt 1.00000 0.00000
vt 1.00000 1.00000
vt 0.00000 1.00000
vt 0.00000 0.00000
vt 1.00000 0.00000
vt 1.00000 1.00000
vt 0.00000 1.00000
vt 0.00000 0.00000
vt 1.00000 0.00000
vt 1.00000 1.00000
vt 0.00000 1.00000
vt 0.00000 0.00000
vt 1.00000 0.00000
vt 1.00000 1.00000
vt 0.00000 1.00000
vt 0.00000 0.00000
vt 1.00000 0.00000
vt 1.00000 1.00000
vt 0.00000 1.00000
vt 0.00000 0.00000
vt 1.00000 0.00000
vt 1.00000 1.00000
vt 0.00000 1.00000
vt 0.00000 0.00000
vt 1.00000 0.00000
vt 1.00000 1.00000
vt 0.00000 0.00000
vt 1.00000 0.00000
vt 1.00000 1.00000
vt 0.00000 0.00000
vt 1.00000 0.00000
vt 1.00000 1.00000
vt 0.00000 0.00000
vt 1.00000 0.00000
vt 1.00000 1.00000
vt 0.00000 0.00000
vt 1.00000 0.00000
vt 1.00000 1.00000
vt 0.00000 0.00000
vt 1.00000 0.00000
vt 1.00000 1.00000
vt 0.00000 0.00000
vt 1.00000 0.00000
vt 1.00000 1.00000
vt 0.00000 0.00000
vt 1.00000 0.00000
vt 1.00000 1.00000
vt 0.00000 0.00000
vt 1.00000 0.00000
vt 1.00000 1.00000
vt 0.00000 0.00000
vt 1.00000 0.00000
vt 1.00000 1.00000
vt 0.00000 0.00000
vt 1.00000 0.00000
vt 1.00000 1.00000
vt 0.00000 0.00000
vt 1.00000 0.00000
vt 1.00000 1.00000
vt 0.00000 0.00000
vt 1.00000 0.00000
vt 1.00000 1.00000
vt 0.00000 0.00000
vt 1.00000 0.00000
vt 1.00000 1.00000
vt 0.00000 0.00000
vt 1.00000 0.00000
vt 1.00000 1.00000
vt 0.00000 0.00000
vt 1.00000 0.00000
vt 1.00000 1.00000
vt 0.00000 0.00000
vt 1.00000 0.00000
vt 1.00000 1.00000
vt 0.00000 1.00000
vt 0.00000 0.00000
vt 1.00000 0.00000
vt 1.00000 1.00000
vt 0.00000 1.00000
vt 0.00000 0.00000
vt 1.00000 0.00000
vt 1.00000 1.00000
vt 0.00000 1.00000
vt 0.00000 0.00000
vt 1.00000 0.00000
vt 1.00000 1.00000
vt 0.00000 1.00000
vt 0.00000 0.00000
vt 1.00000 0.00000
vt 1.00000 1.00000
vt 0.00000 1.00000
vt 0.00000 0.00000
vt 1.00000 0.00000
vt 1.00000 1.00000
vt 0.00000 1.00000
vt 0.00000 0.00000
vt 1.00000 0.00000
vt 1.00000 1.00000
vt 0.00000 1.00000
vt 0.00000 0.00000
vt 1.00000 0.00000
vt 1.00000 1.00000
vt 0.00000 1.00000
vt 0.00000 0.00000
vt 1.00000 0.00000
vt 1.00000 1.00000
vt 0.00000 0.00000
vt 1.00000 0.00000
vt 1.00000 1.00000
vt 0.00000 0.00000
vt 1.00000 0.00000
vt 1.00000 1.00000
vt 0.00000 0.00000
vt 1.00000 0.00000
vt 1.00000 1.00000
vt 0.00000 0.00000
vt 1.00000 0.00000
vt 1.00000 1.00000
vt 0.00000 0.00000
vt 1.00000 0.00000
vt 1.00000 1.00000
vt 0.00000 0.00000
vt 1.00000 0.00000
vt 1.00000 1.00000
vt 0.00000 0.00000
vt 1.00000 0.00000
vt 1.00000 1.00000
vt 0.00000 0.00000
vt 1.00000 0.00000
vt 1.00000 1.00000
vt 0.00000 0.00000
vt 1.00000 0.00000
vt 1.00000 1.00000
vt 0.00000 0.00000
vt 1.00000 0.00000
vt 1.00000 1.00000
vt 0.00000 0.00000
vt 1.00000 0.00000
vt 1.00000 1.00000
vt 0.00000 0.00000
vt 1.00000 0.00000
vt 1.00000 1.00000
vt 0.00000 0.00000
vt 1.00000 0.00000
vt 1.00000 1.00000
vt 0.00000 0.00000
vt 1.00000 0.00000
vt 1.00000 1.00000
vt 0.00000 0.00000
vt 1.00000 0.00000
vt 1.00000 1.00000
vt 0.00000 0.00000
vt 1.00000 0.00000
vt 1.00000 1.00000
vt 0.00000 1.00000
vt 0.00000 1.00000
vt 1.00000 1.00000
vt 1.00000 0.00000
vt 0.00000 0.00000
vt 0.00000 0.00000
vt 1.00000 0.00000
vt 1.00000 1.00000
vt 0.00000 1.00000
vt 0.00000 1.00000
vt 1.00000 1.00000
vt 1.00000 0.00000
vt 0.00000 0.00000
vt 0.00000 0.00000
vt 1.00000 0.00000
vt 1.00000 1.00000
vt 0.00000 1.00000
vt 0.00000 1.00000
vt 1.00000 1.00000
vt 1.00000 0.00000
vt 0.00000 0.00000
vt 0.00000 0.00000
vt 1.00000 0.00000
vt 1.00000 1.00000
vt 0.00000 1.00000
vt 0.00000 1.00000
vt 1.00000 1.00000
vt 1.00000 0.00000
vt 0.00000 0.00000
vt 0.00000 0.00000
vt 1.00000 0.00000
vt 1.00000 1.00000
vt 0.00000 1.00000
vt 0.00000 1.00000
vt 1.00000 1.00000
vt 1.00000 0.00000
vt 0.00000 0.00000
vt 0.00000 0.00000
vt 1.00000 0.00000
vt 1.00000 1.00000
vt 0.00000 1.00000
vt 0.00000 1.00000
vt 1.00000 1.00000
vt 1.00000 0.00000
vt 0.00000 0.00000
vn -0.95071 -0.02684 -0.30891
vn -0.58757 -0.02684 -0.80873
vn -0.00000 -0.02684 -0.99964
vn 0.58757 -0.02684 -0.80873
vn 0.95071 -0.02684 -0.30891
vn 0.95071 -0.02684 0.30891
vn 0.58757 -0.02684 0.80873
vn 0.00000 -0.02684 0.99964
vn -0.58757 -0.02684 0.80873
vn -0.95071 -0.02684 0.30891
vn 0.00000 1.00000 0.00000
vn 0.00000 -1.00000 0.00000
vn 0.00000 1.00000 0.00000
vn 0.00000 -1.00000 0.00000
vn 0.00000 1.00000 -0.00000
vn 0.00000 -1.00000 0.00000
vn 0.00000 1.00000 0.00000
vn 0.00000 -1.00000 0.00000
vn 0.00000 1.00000 0.00000
vn 0.00000 -1.00000 0.00000
vn 0.00000 1.00000 0.00000
vn -0.00000 -1.00000 0.00000
vn 0.00000 1.00000 0.00000
vn 0.00000 -1.00000 0.00000
vn 0.00000 1.00000 0.00000
vn 0.00000 -1.00000 -0.00000
vn 0.00000 1.00000 0.00000
vn 0.00000 -1.00000 0.00000
vn 0.00000 1.00000 0.00000
vn 0.00000 -1.00000 0.00000
vn -0.92346 -0.03023 -0.38251
vn -0.38251 -0.03023 -0.92346
vn 0.38251 -0.03023 -0.92346
vn 0.92346 -0.03023 -0.38251
vn 0.92346 -0.03023 0.38251
vn 0.38251 -0.03023 0.92346
vn -0.38251 -0.03023 0.92346
vn -0.92346 -0.03023 0.38251
vn 0.00000 1.00000 0.00000
vn 0.00000 -1.00000 0.00000
vn 0.00000 1.00000 0.00000
vn 0.00000 -1.00000 0.00000
vn 0.00000 1.00000 -0.00000
vn 0.00000 -1.00000 0.00000
vn 0.00000 1.00000 0.00000
vn 0.00000 -1.00000 0.00000
vn 0.00000 1.00000 0.00000
vn -0.00000 -1.00000 0.00000
vn 0.00000 1.00000 0.00000
vn 0.00000 -1.00000 -0.00000
vn 0.00000 1.00000 0.00000
vn 0.00000 -1.00000 0.00000
vn 0.00000 1.00000 0.00000
vn 0.00000 -1.00000 0.00000
vn -0.92320 -0.03847 -0.38240
vn -0.38240 -0.03847 -0.92320
vn 0.38240 -0.03847 -0.92320
vn 0.92320 -0.03847 -0.38240
vn 0.92320 -0.03847 0.38240
vn 0.38240 -0.03847 0.92320
vn -0.38240 -0.03847 0.92320
vn -0.92320 -0.03847 0.38240
vn 0.00000 1.00000 0.00000
vn 0.00000 -1.00000 0.00000
vn 0.00000 1.00000 0.00000
vn 0.00000 -1.00000 0.00000
vn 0.00000 1.00000 -0.00000
vn 0.00000 -1.00000 0.00000
vn 0.00000 1.00000 0.00000
vn 0.00000 -1.00000 0.00000
vn 0.00000 1.00000 0.00000
vn -0.00000 -1.00000 0.00000
vn 0.00000 1.00000 0.00000
vn 0.00000 -1.00000 -0.00000
vn 0.00000 1.00000 0.00000
vn 0.00000 -1.00000 0.00000
vn 0.00000 1.00000 0.00000
vn 0.00000 -1.00000 0.00000
vn -1.00000 0.00000 0.00000
vn 1.00000 -0.00000 -0.00000
vn -0.50000 0.00000 -0.86603
vn 0.50000 -0.00000 0.86603
vn 0.50000 0.00000 -0.86603
vn -0.50000 -0.00000 0.86603
vn 1.00000 0.00000 0.00000
vn -1.00000 -0.00000 -0.00000
vn 0.50000 0.00000 0.86603
vn -0.50000 -0.00000 -0.86603
vn -0.50000 0.00000 0.86603
vn 0.50000 -0.00000 -0.86603
usemtl cactus_green
f 1/1/1 2/2/1 3/3/1 4/4/1
f 5/5/2 6/6/2 7/7/2 8/8/2
f 9/9/3 10/10/3 11/11/3 12/12/3
f 13/13/4 14/14/4 15/15/4 16/16/4
f 17/17/5 18/18/5 19/19/5 20/20/5
f 21/21/6 22/22/6 23/23/6 24/24/6
f 25/25/7 26/26/7 27/27/7 28/28/7
f 29/29/8 30/30/8 31/31/8 32/32/8
f 33/33/9 34/34/9 35/35/9 36/36/9
f 37/37/10 38/38/10 39/39/10 40/40/10
f 41/41/11 42/42/11 43/43/11
f 44/44/12 45/45/12 46/46/12
f 47/47/13 48/48/13 49/49/13
f 50/50/14 51/51/14 52/52/14
f 53/53/15 54/54/15 55/55/15
f 56/56/16 57/57/16 58/58/16
f 59/59/17 60/60/17 61/61/17
f 62/62/18 63/63/18 64/64/18
f 65/65/19 66/66/19 67/67/19
f 68/68/20 69/69/20 70/70/20
f 71/71/21 72/72/21 73/73/21
f 74/74/22 75/75/22 76/76/22
f 77/77/23 78/78/23 79/79/23
f 80/80/24 81/81/24 82/82/24
f 83/83/25 84/84/25 85/85/25
f 86/86/26 87/87/26 88/88/26
f 89/89/27 90/90/27 91/91/27
f 92/92/28 93/93/28 94/94/28
f 95/95/29 96/96/29 97/97/29
f 98/98/30 99/99/30 100/100/30
f 101/101/31 102/102/31 103/103/31 104/104/31
f 105/105/32 106/106/32 107/107/32 108/108/32
f 109/109/33 110/110/33 111/111/33 112/112/33
f 113/113/34 114/114/34 115/115/34 116/116/34
f 117/117/35 118/118/35 119/119/35 120/120/35
f 121/121/36 122/122/36 123/123/36 124/124/36
f 125/125/37 126/126/37 127/127/37 128/128/37
f 129/129/38 130/130/38 131/131/38 132/132/38
f 133/133/39 134/134/39 135/135/39
f 136/136/40 137/137/40 138/138/40
f 139/139/41 140/140/41 141/141/41
f 142/142/42 143/143/42 144/144/42
f 145/145/43 146/146/43 147/147/43
f 148/148/44 149/149/44 150/150/44
f 151/151/45 152/152/45 153/153/45
f 154/154/46 155/155/46 156/156/46
f 157/157/47 158/158/47 159/159/47
f 160/160/48 161/161/48 162/162/48
f 163/163/49 164/164/49 165/165/49
f 166/166/50 167/167/50 168/168/50
f 169/169/51 170/170/51 171/171/51
f 172/172/52 173/173/52 174/174/52
f 175/175/53 176/176/53 177/177/53
f 178/178/54 179/179/54 180/180/54
f 181/181/55 182/182/55 183/183/55 184/184/55
f 185/185/56 186/186/56 187/187/56 188/188/56
f 189/189/57 190/190/57 191/191/57 192/192/57
f 193/193/58 194/194/58 195/195/58 196/196/58
f 197/197/59 198/198/59 199/199/59 200/200/59
f 201/201/60 202/202/60 203/203/60 204/204/60
f 205/205/61 206/206/61 207/207/61 208/208/61
f 209/209/62 210/210/62 211/211/62 212/212/62
f 213/213/63 214/214/63 215/215/63
f 216/216/64 217/217/64 218/218/64
f 219/219/65 220/220/65 221/221/65
f 222/222/66 223/223/66 224/224/66
f 225/225/67 226/226/67 227/227/67
f 228/228/68 229/229/68 230/230/68
f 231/231/69 232/232/69 233/233/69
f 234/234/70 235/235/70 236/236/70
f 237/237/71 238/238/71 239/239/71
f 240/240/72 241/241/72 242/242/72
f 243/243/73 244/244/73 245/245/73
f 246/246/74 247/247/74 248/248/74
f 249/249/75 250/250/75 251/251/75
f 252/252/76 253/253/76 254/254/76
f 255/255/77 256/256/77 257/257/77
f 258/258/78 259/259/78 260/260/78
usemtl dust
f 261/261/79 262/262/79 263/263/79 264/264/79
f 265/265/80 266/266/80 267/267/80 268/268/80
f 269/269/81 270/270/81 271/271/81 272/272/81
f 273/273/82 274/274/82 275/275/82 276/276/82
f 277/277/83 278/278/83 279/279/83 280/280/83
f 281/281/84 282/282/84 283/283/84 284/284/84
f 285/285/85 286/286/85 287/287/85 288/288/85
f 289/289/86 290/290/86 291/291/86 292/292/86
f 293/293/87 294/294/87 295/295/87 296/296/87
f 297/297/88 298/298/88 299/299/88 300/300/88
f 301/301/89 302/302/89 303/303/89 304/304/89
f 305/305/90 306/306/90 307/307/90 308/308/90