# small_desert_acacia
mtllib nomad_vegetation.mtl
o small_desert_acacia
v 0.08000 0.00000 0.00000
v 0.04988 0.00000 0.06255
v 0.03242 1.45000 0.04066
v 0.05200 1.45000 0.00000
v 0.04988 0.00000 0.06255
v -0.01780 0.00000 0.07799
v -0.01157 1.45000 0.05070
v 0.03242 1.45000 0.04066
v -0.01780 0.00000 0.07799
v -0.07208 0.00000 0.03471
v -0.04685 1.45000 0.02256
v -0.01157 1.45000 0.05070
v -0.07208 0.00000 0.03471
v -0.07208 0.00000 -0.03471
v -0.04685 1.45000 -0.02256
v -0.04685 1.45000 0.02256
v -0.07208 0.00000 -0.03471
v -0.01780 0.00000 -0.07799
v -0.01157 1.45000 -0.05070
v -0.04685 1.45000 -0.02256
v -0.01780 0.00000 -0.07799
v 0.04988 0.00000 -0.06255
v 0.03242 1.45000 -0.04066
v -0.01157 1.45000 -0.05070
v 0.04988 0.00000 -0.06255
v 0.08000 0.00000 -0.00000
v 0.05200 1.45000 -0.00000
v 0.03242 1.45000 -0.04066
v 0.00000 0.00000 0.00000
v 0.04988 0.00000 0.06255
v 0.08000 0.00000 0.00000
v 0.00000 1.45000 0.00000
v 0.05200 1.45000 0.00000
v 0.03242 1.45000 0.04066
v 0.00000 0.00000 0.00000
v -0.01780 0.00000 0.07799
v 0.04988 0.00000 0.06255
v 0.00000 1.45000 0.00000
v 0.03242 1.45000 0.04066
v -0.01157 1.45000 0.05070
v 0.00000 0.00000 0.00000
v -0.07208 0.00000 0.03471
v -0.01780 0.00000 0.07799
v 0.00000 1.45000 0.00000
v -0.01157 1.45000 0.05070
v -0.04685 1.45000 0.02256
v 0.00000 0.00000 0.00000
v -0.07208 0.00000 -0.03471
v -0.07208 0.00000 0.03471
v 0.00000 1.45000 0.00000
v -0.04685 1.45000 0.02256
v -0.04685 1.45000 -0.02256
v 0.00000 0.00000 0.00000
v -0.01780 0.00000 -0.07799
v -0.07208 0.00000 -0.03471
v 0.00000 1.45000 0.00000
v -0.04685 1.45000 -0.02256
v -0.01157 1.45000 -0.05070
v 0.00000 0.00000 0.00000
v 0.04988 0.00000 -0.06255
v -0.01780 0.00000 -0.07799
v 0.00000 1.45000 0.00000
v -0.01157 1.45000 -0.05070
v 0.03242 1.45000 -0.04066
v 0.00000 0.00000 0.00000
v 0.08000 0.00000 -0.00000
v 0.04988 0.00000 -0.06255
v 0.00000 1.45000 0.00000
v 0.03242 1.45000 -0.04066
v 0.05200 1.45000 -0.00000
v 0.02698 1.05000 0.03602
v 0.03752 1.02759 -0.01073
v 0.48545 1.98256 -0.35410
v 0.47966 1.99488 -0.32839
v 0.03752 1.02759 -0.01073
v -0.00379 1.03615 -0.04265
v 0.46273 1.98727 -0.37166
v 0.48545 1.98256 -0.35410
v -0.00379 1.03615 -0.04265
v -0.03986 1.06385 -0.01563
v 0.44290 2.00250 -0.35679
v 0.46273 1.98727 -0.37166
v -0.03986 1.06385 -0.01563
v -0.02084 1.07241 0.03299
v 0.45336 2.00721 -0.33006
v 0.44290 2.00250 -0.35679
v -0.02084 1.07241 0.03299
v 0.02698 1.05000 0.03602
v 0.47966 1.99488 -0.32839
v 0.45336 2.00721 -0.33006
v 0.00737 1.05000 0.04439
v 0.03203 1.01963 0.00878
v 0.72099 1.74130 -0.11195
v 0.70743 1.75801 -0.09236
v 0.03203 1.01963 0.00878
v 0.01242 1.03123 -0.03897
v 0.71021 1.74768 -0.13821
v 0.72099 1.74130 -0.11195
v 0.01242 1.03123 -0.03897
v -0.02435 1.06877 -0.03286
v 0.68999 1.76833 -0.13485
v 0.71021 1.74768 -0.13821
v -0.02435 1.06877 -0.03286
v -0.02747 1.08037 0.01866
v 0.68827 1.77471 -0.10651
v 0.68999 1.76833 -0.13485
v -0.02747 1.08037 0.01866
v 0.00737 1.05000 0.04439
v 0.70743 1.75801 -0.09236
v 0.68827 1.77471 -0.10651
v -0.00966 1.05000 0.04395
v 0.02754 1.02076 0.02029
v 0.79741 1.89015 0.18313
v 0.77695 1.90623 0.19614
v 0.02754 1.02076 0.02029
v 0.02668 1.03193 -0.03141
v 0.79694 1.89629 0.15470
v 0.79741 1.89015 0.18313
v 0.02668 1.03193 -0.03141
v -0.01105 1.06807 -0.03970
v 0.77618 1.91617 0.15013
v 0.79694 1.89629 0.15470
v -0.01105 1.06807 -0.03970
v -0.03351 1.07924 0.00687
v 0.76383 1.92231 0.17575
v 0.77618 1.91617 0.15013
v -0.03351 1.07924 0.00687
v -0.00966 1.05000 0.04395
v 0.77695 1.90623 0.19614
v 0.76383 1.92231 0.17575
v -0.02874 1.05000 0.03463
v 0.01557 1.02134 0.03100
v 0.42608 1.63582 0.36363
v 0.40171 1.65159 0.36562
v 0.01557 1.02134 0.03100
v 0.03837 1.03228 -0.01547
v 0.43862 1.64185 0.33807
v 0.42608 1.63582 0.36363
v 0.03837 1.03228 -0.01547
v 0.00814 1.06772 -0.04056
v 0.42200 1.66133 0.32427
v 0.43862 1.64185 0.33807
v 0.00814 1.06772 -0.04056
v -0.03333 1.07866 -0.00960
v 0.39918 1.66736 0.34130
v 0.42200 1.66133 0.32427
v -0.03333 1.07866 -0.00960
v -0.02874 1.05000 0.03463
v 0.40171 1.65159 0.36562
v 0.39918 1.66736 0.34130
v -0.04481 1.05000 0.00408
v -0.01101 1.02088 0.03250
v 0.04735 1.66862 0.60453
v 0.02875 1.68463 0.58890
v -0.01101 1.02088 0.03250
v 0.03801 1.03201 0.01601
v 0.07431 1.67474 0.59546
v 0.04735 1.66862 0.60453
v 0.03801 1.03201 0.01601
v 0.03450 1.06799 -0.02261
v 0.07237 1.69453 0.57422
v 0.07431 1.67474 0.59546
v 0.03450 1.06799 -0.02261
v -0.01669 1.07912 -0.02998
v 0.04422 1.70065 0.57016
v 0.07237 1.69453 0.57422
v -0.01669 1.07912 -0.02998
v -0.04481 1.05000 0.00408
v 0.02875 1.68463 0.58890
v 0.04422 1.70065 0.57016
v 0.59056 1.68519 -0.36848
v 0.03263 1.68519 -0.35985
v 0.03443 2.61714 -0.24328
v 0.59237 2.61714 -0.25192
v 0.59237 2.61714 -0.25192
v 0.03443 2.61714 -0.24328
v 0.03263 1.68519 -0.35985
v 0.59056 1.68519 -0.36848
v 0.40182 1.78225 -0.47262
v 0.11527 1.78225 0.16330
v 0.15239 2.53263 0.18002
v 0.43893 2.53263 -0.45589
v 0.43893 2.53263 -0.45589
v 0.15239 2.53263 0.18002
v 0.11527 1.78225 0.16330
v 0.40182 1.78225 -0.47262
v 0.37727 1.62361 -0.65431
v 0.67587 1.62361 0.08583
v 0.57970 2.45148 0.12463
v 0.28110 2.45148 -0.61551
v 0.28110 2.45148 -0.61551
v 0.57970 2.45148 0.12463
v 0.67587 1.62361 0.08583
v 0.37727 1.62361 -0.65431
v 0.29780 1.46970 -0.18086
v 0.98149 1.46970 -0.34522
v 0.96233 2.46931 -0.42493
v 0.27864 2.46931 -0.26058
v 0.27864 2.46931 -0.26058
v 0.96233 2.46931 -0.42493
v 0.98149 1.46970 -0.34522
v 0.29780 1.46970 -0.18086
v 0.27004 1.43679 -0.49360
v 0.19050 1.43679 0.28606
v 0.13536 2.39571 0.28044
v 0.21489 2.39571 -0.49922
v 0.21489 2.39571 -0.49922
v 0.13536 2.39571 0.28044
v 0.19050 1.43679 0.28606
v 0.27004 1.43679 -0.49360
v 0.78267 1.64037 -0.47024
v 0.24106 1.64037 -0.33115
v 0.22946 2.43265 -0.37632
v 0.77107 2.43265 -0.51541
v 0.77107 2.43265 -0.51541
v 0.22946 2.43265 -0.37632
v 0.24106 1.64037 -0.33115
v 0.78267 1.64037 -0.47024
v 0.58225 1.65907 -0.00721
v 0.90241 1.65907 -0.69382
v 0.98237 2.59006 -0.65654
v 0.66222 2.59006 0.03008
v 0.66222 2.59006 0.03008
v 0.98237 2.59006 -0.65654
v 0.90241 1.65907 -0.69382
v 0.58225 1.65907 -0.00721
v 0.88151 1.38702 -0.59545
v 0.90750 1.38702 0.04227
v 0.80840 2.15823 0.04631
v 0.78241 2.15823 -0.59142
v 0.78241 2.15823 -0.59142
v 0.80840 2.15823 0.04631
v 0.90750 1.38702 0.04227
v 0.88151 1.38702 -0.59545
v 1.05033 1.30167 -0.27945
v 0.41369 1.30167 0.19932
v 0.43816 2.27202 0.23186
v 1.07480 2.27202 -0.24691
v 1.07480 2.27202 -0.24691
v 0.43816 2.27202 0.23186
v 0.41369 1.30167 0.19932
v 1.05033 1.30167 -0.27945
v 0.61081 1.14729 -0.39117
v 1.21551 1.14729 -0.40365
v 1.21536 2.20428 -0.41070
v 0.61067 2.20428 -0.39822
v 0.61067 2.20428 -0.39822
v 1.21536 2.20428 -0.41070
v 1.21551 1.14729 -0.40365
v 0.61081 1.14729 -0.39117
v 0.52016 1.43705 0.29571
v 0.72858 1.43705 -0.18930
v 0.79584 2.36605 -0.16040
v 0.58741 2.36605 0.32461
v 0.58741 2.36605 0.32461
v 0.79584 2.36605 -0.16040
v 0.72858 1.43705 -0.18930
v 0.52016 1.43705 0.29571
v 0.77740 1.46053 -0.47475
v 1.03065 1.46053 0.20565
v 0.91195 2.32275 0.24983
v 0.65870 2.32275 -0.43057
v 0.65870 2.32275 -0.43057
v 0.91195 2.32275 0.24983
v 1.03065 1.46053 0.20565
v 0.77740 1.46053 -0.47475
v 0.58996 1.42283 0.02400
v 0.92643 1.42283 -0.64447
v 0.91682 2.42375 -0.64930
v 0.58035 2.42375 0.01916
v 0.58035 2.42375 0.01916
v 0.91682 2.42375 -0.64930
v 0.92643 1.42283 -0.64447
v 0.58996 1.42283 0.02400
v 0.21938 1.19430 0.12589
v 0.83141 1.19430 0.18839
v 0.82080 2.05155 0.29230
v 0.20877 2.05155 0.22979
v 0.20877 2.05155 0.22979
v 0.82080 2.05155 0.29230
v 0.83141 1.19430 0.18839
v 0.21938 1.19430 0.12589
v 0.53188 1.38995 0.46775
v 1.01343 1.38995 0.40185
v 1.02992 2.35152 0.52231
v 0.54837 2.35152 0.58820
v 0.54837 2.35152 0.58820
v 1.02992 2.35152 0.52231
v 1.01343 1.38995 0.40185
v 0.53188 1.38995 0.46775
v 0.37605 1.51924 -0.25859
v 0.81142 1.51924 0.41939
v 0.91255 2.37374 0.35444
v 0.47719 2.37374 -0.32353
v 0.47719 2.37374 -0.32353
v 0.91255 2.37374 0.35444
v 0.81142 1.51924 0.41939
v 0.37605 1.51924 -0.25859
v 0.76496 1.45647 -0.14170
v 0.40721 1.45647 0.16508
v 0.36673 2.19996 0.11788
v 0.72448 2.19996 -0.18890
v 0.72448 2.19996 -0.18890
v 0.36673 2.19996 0.11788
v 0.40721 1.45647 0.16508
v 0.76496 1.45647 -0.14170
v 1.34528 1.41803 0.24721
v 0.68954 1.41803 0.62947
v 0.66296 2.44466 0.58388
v 1.31871 2.44466 0.20162
v 1.31871 2.44466 0.20162
v 0.66296 2.44466 0.58388
v 0.68954 1.41803 0.62947
v 1.34528 1.41803 0.24721
v 0.55455 1.41187 0.41091
v 1.03430 1.41187 -0.03114
v 0.97063 2.17700 -0.10024
v 0.49088 2.17700 0.34182
v 0.49088 2.17700 0.34182
v 0.97063 2.17700 -0.10024
v 1.03430 1.41187 -0.03114
v 0.55455 1.41187 0.41091
v 0.73452 1.24655 -0.19457
v 1.01631 1.24655 0.45124
v 1.15194 2.23423 0.39206
v 0.87015 2.23423 -0.25375
v 0.87015 2.23423 -0.25375
v 1.15194 2.23423 0.39206
v 1.01631 1.24655 0.45124
v 0.73452 1.24655 -0.19457
v 0.76905 1.35855 0.21549
v 0.40462 1.35855 -0.31981
v 0.32394 2.23088 -0.26488
v 0.68836 2.23088 0.27042
v 0.68836 2.23088 0.27042
v 0.32394 2.23088 -0.26488
v 0.40462 1.35855 -0.31981
v 0.76905 1.35855 0.21549
v 0.82870 1.21973 0.86510
v 0.25791 1.21973 0.34806
v 0.29921 2.09527 0.30247
v 0.87000 2.09527 0.81950
v 0.87000 2.09527 0.81950
v 0.29921 2.09527 0.30247
v 0.25791 1.21973 0.34806
v 0.82870 1.21973 0.86510
v 0.27298 1.36800 1.01831
v 0.16851 1.36800 0.26625
v 0.11636 2.10112 0.27349
v 0.22083 2.10112 1.02555
v 0.22083 2.10112 1.02555
v 0.11636 2.10112 0.27349
v 0.16851 1.36800 0.26625
v 0.27298 1.36800 1.01831
v 0.39482 1.10609 0.44745
v 0.36990 1.10609 -0.07700
v 0.37181 1.95107 -0.07709
v 0.39673 1.95107 0.44735
v 0.39673 1.95107 0.44735
v 0.37181 1.95107 -0.07709
v 0.36990 1.10609 -0.07700
v 0.39482 1.10609 0.44745
v 0.87781 1.10273 0.31153
v 0.53078 1.10273 -0.14783
v 0.43819 2.04258 -0.07788
v 0.78521 2.04258 0.38148
v 0.78521 2.04258 0.38148
v 0.43819 2.04258 -0.07788
v 0.53078 1.10273 -0.14783
v 0.87781 1.10273 0.31153
v 0.40113 1.30367 0.78412
v 0.13299 1.30367 0.23869
v 0.12064 2.17546 0.24476
v 0.38879 2.17546 0.79019
v 0.38879 2.17546 0.79019
v 0.12064 2.17546 0.24476
v 0.13299 1.30367 0.23869
v 0.40113 1.30367 0.78412
v 0.56602 1.11079 0.42814
v 0.81373 1.11079 -0.05854
v 0.70906 1.94207 -0.11181
v 0.46135 1.94207 0.37487
v 0.46135 1.94207 0.37487
v 0.70906 1.94207 -0.11181
v 0.81373 1.11079 -0.05854
v 0.56602 1.11079 0.42814
v 0.57958 1.22302 0.61462
v 0.22951 1.22302 -0.04474
v 0.17757 1.96077 -0.01717
v 0.52765 1.96077 0.64219
v 0.52765 1.96077 0.64219
v 0.17757 1.96077 -0.01717
v 0.22951 1.22302 -0.04474
v 0.57958 1.22302 0.61462
v -0.17689 1.18818 0.99251
v 0.26349 1.18818 0.72698
v 0.25593 2.09963 0.71445
v -0.18445 2.09963 0.97998
v -0.18445 2.09963 0.97998
v 0.25593 2.09963 0.71445
v 0.26349 1.18818 0.72698
v -0.17689 1.18818 0.99251
v 0.54272 1.01740 0.85936
v 0.01455 1.01740 0.58019
v 0.08519 2.03882 0.44655
v 0.61336 2.03882 0.72572
v 0.61336 2.03882 0.72572
v 0.08519 2.03882 0.44655
v 0.01455 1.01740 0.58019
v 0.54272 1.01740 0.85936
v 0.38242 1.15409 0.94435
v -0.25688 1.15409 0.74150
v -0.28625 2.05570 0.83405
v 0.35306 2.05570 1.03689
v 0.35306 2.05570 1.03689
v -0.28625 2.05570 0.83405
v -0.25688 1.15409 0.74150
v 0.38242 1.15409 0.94435
v -0.26178 1.23395 0.82382
v 0.29451 1.23395 0.82266
v 0.29426 2.04227 0.70362
v -0.26203 2.04227 0.70479
v -0.26203 2.04227 0.70479
v 0.29426 2.04227 0.70362
v 0.29451 1.23395 0.82266
v -0.26178 1.23395 0.82382
v 0.31393 1.19627 0.45427
v 0.25986 1.19627 0.99704
v 0.31582 1.92360 1.00261
v 0.36990 1.92360 0.45985
v 0.36990 1.92360 0.45985
v 0.31582 1.92360 1.00261
v 0.25986 1.19627 0.99704
v 0.31393 1.19627 0.45427
v -0.24974 1.15871 0.91678
v 0.45070 1.15871 0.83116
v 0.45489 2.03246 0.86545
v -0.24555 2.03246 0.95108
v -0.24555 2.03246 0.95108
v 0.45489 2.03246 0.86545
v 0.45070 1.15871 0.83116
v -0.24974 1.15871 0.91678
v -0.35638 1.25860 0.49138
v 0.27281 1.25860 0.55497
v 0.26328 2.05547 0.64921
v -0.36591 2.05547 0.58561
v -0.36591 2.05547 0.58561
v 0.26328 2.05547 0.64921
v 0.27281 1.25860 0.55497
v -0.35638 1.25860 0.49138
vt 0.00000 0.00000
vt 1.00000 0.00000
vt 1.00000 1.00000
vt 0.00000 1.00000
vt 0.00000 0.00000
vt 1.00000 0.00000
vt 1.00000 1.00000
vt 0.00000 1.00000
vt 0.00000 0.00000
vt 1.00000 0.00000
vt 1.00000 1.00000
vt 0.00000 1.00000
vt 0.00000 0.00000
vt 1.00000 0.00000
vt 1.00000 1.00000
vt 0.00000 1.00000
vt 0.00000 0.00000
vt 1.00000 0.00000
vt 1.00000 1.00000
vt 0.00000 1.00000
vt 0.00000 0.00000
vt 1.00000 0.00000
vt 1.00000 1.00000
vt 0.00000 1.00000
vt 0.00000 0.00000
vt 1.00000 0.00000
vt 1.00000 1.00000
vt 0.00000 1.00000
vt 0.00000 0.00000
vt 1.00000 0.00000
vt 1.00000 1.00000
vt 0.00000 0.00000
vt 1.00000 0.00000
vt 1.00000 1.00000
vt 0.00000 0.00000
vt 1.00000 0.00000
vt 1.00000 1.00000
vt 0.00000 0.00000
vt 1.00000 0.00000
vt 1.00000 1.00000
vt 0.00000 0.00000
vt 1.00000 0.00000
vt 1.00000 1.00000
vt 0.00000 0.00000
vt 1.00000 0.00000
vt 1.00000 1.00000
vt 0.00000 0.00000
vt 1.00000 0.00000
vt 1.00000 1.00000
vt 0.00000 0.00000
vt 1.00000 0.00000
vt 1.00000 1.00000
vt 0.00000 0.00000
vt 1.00000 0.00000
vt 1.00000 1.00000
vt 0.00000 0.00000
vt 1.00000 0.00000
vt 1.00000 1.00000
vt 0.00000 0.00000
vt 1.00000 0.00000
vt 1.00000 1.00000
vt 0.00000 0.00000
vt 1.00000 0.00000
vt 1.00000 1.00000
vt 0.00000 0.00000
vt 1.00000 0.00000
vt 1.00000 1.00000
vt 0.00000 0.00000
vt 1.00000 0.00000
vt 1.00000 1.00000
vt 0.00000 0.00000
vt 1.00000 0.00000
vt 1.00000 1.00000
vt 0.00000 1.00000
vt 0.00000 0.00000
vt 1.00000 0.00000
vt 1.00000 1.00000
vt 0.00000 1.00000
vt 0.00000 0.00000
vt 1.00000 0.00000
vt 1.00000 1.00000
vt 0.00000 1.00000
vt 0.00000 0.00000
vt 1.00000 0.00000
vt 1.00000 1.00000
vt 0.00000 1.00000
vt 0.00000 0.00000
vt 1.00000 0.00000
vt 1.00000 1.00000
vt 0.00000 1.00000
vt 0.00000 0.00000
vt 1.00000 0.00000
vt 1.00000 1.00000
vt 0.00000 1.00000
vt 0.00000 0.00000
vt 1.00000 0.00000
vt 1.00000 1.00000
vt 0.00000 1.00000
vt 0.00000 0.00000
vt 1.00000 0.00000
vt 1.00000 1.00000
vt 0.00000 1.00000
vt 0.00000 0.00000
vt 1.00000 0.00000
vt 1.00000 1.00000
vt 0.00000 1.00000
vt 0.00000 0.00000
vt 1.00000 0.00000
vt 1.00000 1.00000
vt 0.00000 1.00000
vt 0.00000 0.00000
vt 1.00000 0.00000
vt 1.00000 1.00000
vt 0.00000 1.00000
vt 0.00000 0.00000
vt 1.00000 0.00000
vt 1.00000 1.00000
vt 0.00000 1.00000
vt 0.00000 0.00000
vt 1.00000 0.00000
vt 1.00000 1.00000
vt 0.00000 1.00000
vt 0.00000 0.00000
vt 1.00000 0.00000
vt 1.00000 1.00000
vt 0.00000 1.00000
vt 0.00000 0.00000
vt 1.00000 0.00000
vt 1.00000 1.00000
vt 0.00000 1.00000
vt 0.00000 0.00000
vt 1.00000 0.00000
vt 1.00000 1.00000
vt 0.00000 1.00000
vt 0.00000 0.00000
vt 1.00000 0.00000
vt 1.00000 1.00000
vt 0.00000 1.00000
vt 0.00000 0.00000
vt 1.00000 0.00000
vt 1.00000 1.00000
vt 0.00000 1.00000
vt 0.00000 0.00000
vt 1.00000 0.00000
vt 1.00000 1.00000
vt 0.00000 1.00000
vt 0.00000 0.00000
vt 1.00000 0.00000
vt 1.00000 1.00000
vt 0.00000 1.00000
vt 0.00000 0.00000
vt 1.00000 0.00000
vt 1.00000 1.00000
vt 0.00000 1.00000
vt 0.00000 0.00000
vt 1.00000 0.00000
vt 1.00000 1.00000
vt 0.00000 1.00000
vt 0.00000 0.00000
vt 1.00000 0.00000
vt 1.00000 1.00000
vt 0.00000 1.00000
vt 0.00000 0.00000
vt 1.00000 0.00000
vt 1.00000 1.00000
vt 0.00000 1.00000
vt 0.00000 0.00000
vt 1.00000 0.00000
vt 1.00000 1.00000
vt 0.00000 1.00000
vt 0.00000 0.00000
vt 1.00000 0.00000
vt 1.00000 1.00000
vt 0.00000 1.00000
vt 0.00000 1.00000
vt 1.00000 1.00000
vt 1.00000 0.00000
vt 0.00000 0.00000
vt 0.00000 0.00000
vt 1.00000 0.00000
vt 1.00000 1.00000
vt 0.00000 1.00000
vt 0.00000 1.00000
vt 1.00000 1.00000
vt 1.00000 0.00000
vt 0.00000 0.00000
vt 0.00000 0.00000
vt 1.00000 0.00000
vt 1.00000 1.00000
vt 0.00000 1.00000
vt 0.00000 1.00000
vt 1.00000 1.00000
vt 1.00000 0.00000
vt 0.00000 0.00000
vt 0.00000 0.00000
vt 1.00000 0.00000
vt 1.00000 1.00000
vt 0.00000 1.00000
vt 0.00000 1.00000
vt 1.00000 1.00000
vt 1.00000 0.00000
vt 0.00000 0.00000
vt 0.00000 0.00000
vt 1.00000 0.00000
vt 1.00000 1.00000
vt 0.00000 1.00000
vt 0.00000 1.00000
vt 1.00000 1.00000
vt 1.00000 0.00000
vt 0.00000 0.00000
vt 0.00000 0.00000
vt 1.00000 0.00000
vt 1.00000 1.00000
vt 0.00000 1.00000
vt 0.00000 1.00000
vt 1.00000 1.00000
vt 1.00000 0.00000
vt 0.00000 0.00000
vt 0.00000 0.00000
vt 1.00000 0.00000
vt 1.00000 1.00000
vt 0.00000 1.00000
vt 0.00000 1.00000
vt 1.00000 1.00000
vt 1.00000 0.00000
vt 0.00000 0.00000
vt 0.00000 0.00000
vt 1.00000 0.00000
vt 1.00000 1.00000
vt 0.00000 1.00000
vt 0.00000 1.00000
vt 1.00000 1.00000
vt 1.00000 0.00000
vt 0.00000 0.00000
vt 0.00000 0.00000
vt 1.00000 0.00000
vt 1.00000 1.00000
vt 0.00000 1.00000
vt 0.00000 1.00000
vt 1.00000 1.00000
vt 1.00000 0.00000
vt 0.00000 0.00000
vt 0.00000 0.00000
vt 1.00000 0.00000
vt 1.00000 1.00000
vt 0.00000 1.00000
vt 0.00000 1.00000
vt 1.00000 1.00000
vt 1.00000 0.00000
vt 0.00000 0.00000
vt 0.00000 0.00000
vt 1.00000 0.00000
vt 1.00000 1.00000
vt 0.00000 1.00000
vt 0.00000 1.00000
vt 1.00000 1.00000
vt 1.00000 0.00000
vt 0.00000 0.00000
vt 0.00000 0.00000
vt 1.00000 0.00000
vt 1.00000 1.00000
vt 0.00000 1.00000
vt 0.00000 1.00000
vt 1.00000 1.00000
vt 1.00000 0.00000
vt 0.00000 0.00000
vt 0.00000 0.00000
vt 1.00000 0.00000
vt 1.00000 1.00000
vt 0.00000 1.00000
vt 0.00000 1.00000
vt 1.00000 1.00000
vt 1.00000 0.00000
vt 0.00000 0.00000
vt 0.00000 0.00000
vt 1.00000 0.00000
vt 1.00000 1.00000
vt 0.00000 1.00000
vt 0.00000 1.00000
vt 1.00000 1.00000
vt 1.00000 0.00000
vt 0.00000 0.00000
vt 0.00000 0.00000
vt 1.00000 0.00000
vt 1.00000 1.00000
vt 0.00000 1.00000
vt 0.00000 1.00000
vt 1.00000 1.00000
vt 1.00000 0.00000
vt 0.00000 0.00000
vt 0.00000 0.00000
vt 1.00000 0.00000
vt 1.00000 1.00000
vt 0.00000 1.00000
vt 0.00000 1.00000
vt 1.00000 1.00000
vt 1.00000 0.00000
vt 0.00000 0.00000
vt 0.00000 0.00000
vt 1.00000 0.00000
vt 1.00000 1.00000
vt 0.00000 1.00000
vt 0.00000 1.00000
vt 1.00000 1.00000
vt 1.00000 0.00000
vt 0.00000 0.00000
vt 0.00000 0.00000
vt 1.00000 0.00000
vt 1.00000 1.00000
vt 0.00000 1.00000
vt 0.00000 1.00000
vt 1.00000 1.00000
vt 1.00000 0.00000
vt 0.00000 0.00000
vt 0.00000 0.00000
vt 1.00000 0.00000
vt 1.00000 1.00000
vt 0.00000 1.00000
vt 0.00000 1.00000
vt 1.00000 1.00000
vt 1.00000 0.00000
vt 0.00000 0.00000
vt 0.00000 0.00000
vt 1.00000 0.00000
vt 1.00000 1.00000
vt 0.00000 1.00000
vt 0.00000 1.00000
vt 1.00000 1.00000
vt 1.00000 0.00000
vt 0.00000 0.00000
vt 0.00000 0.00000
vt 1.00000 0.00000
vt 1.00000 1.00000
vt 0.00000 1.00000
vt 0.00000 1.00000
vt 1.00000 1.00000
vt 1.00000 0.00000
vt 0.00000 0.00000
vt 0.00000 0.00000
vt 1.00000 0.00000
vt 1.00000 1.00000
vt 0.00000 1.00000
vt 0.00000 1.00000
vt 1.00000 1.00000
vt 1.00000 0.00000
vt 0.00000 0.00000
vt 0.00000 0.00000
vt 1.00000 0.00000
vt 1.00000 1.00000
vt 0.00000 1.00000
vt 0.00000 1.00000
vt 1.00000 1.00000
vt 1.00000 0.00000
vt 0.00000 0.00000
vt 0.00000 0.00000
vt 1.00000 0.00000
vt 1.00000 1.00000
vt 0.00000 1.00000
vt 0.00000 1.00000
vt 1.00000 1.00000
vt 1.00000 0.00000
vt 0.00000 0.00000
vt 0.00000 0.00000
vt 1.00000 0.00000
vt 1.00000 1.00000
vt 0.00000 1.00000
vt 0.00000 1.00000
vt 1.00000 1.00000
vt 1.00000 0.00000
vt 0.00000 0.00000
vt 0.00000 0.00000
vt 1.00000 0.00000
vt 1.00000 1.00000
vt 0.00000 1.00000
vt 0.00000 1.00000
vt 1.00000 1.00000
vt 1.00000 0.00000
vt 0.00000 0.00000
vt 0.00000 0.00000
vt 1.00000 0.00000
vt 1.00000 1.00000
vt 0.00000 1.00000
vt 0.00000 1.00000
vt 1.00000 1.00000
vt 1.00000 0.00000
vt 0.00000 0.00000
vt 0.00000 0.00000
vt 1.00000 0.00000
vt 1.00000 1.00000
vt 0.00000 1.00000
vt 0.00000 1.00000
vt 1.00000 1.00000
vt 1.00000 0.00000
vt 0.00000 0.00000
vt 0.00000 0.00000
vt 1.00000 0.00000
vt 1.00000 1.00000
vt 0.00000 1.00000
vt 0.00000 1.00000
vt 1.00000 1.00000
vt 1.00000 0.00000
vt 0.00000 0.00000
vt 0.00000 0.00000
vt 1.00000 0.00000
vt 1.00000 1.00000
vt 0.00000 1.00000
vt 0.00000 1.00000
vt 1.00000 1.00000
vt 1.00000 0.00000
vt 0.00000 0.00000
vt 0.00000 0.00000
vt 1.00000 0.00000
vt 1.00000 1.00000
vt 0.00000 1.00000
vt 0.00000 1.00000
vt 1.00000 1.00000
vt 1.00000 0.00000
vt 0.00000 0.00000
vt 0.00000 0.00000
vt 1.00000 0.00000
vt 1.00000 1.00000
vt 0.00000 1.00000
vt 0.00000 1.00000
vt 1.00000 1.00000
vt 1.00000 0.00000
vt 0.00000 0.00000
vt 0.00000 0.00000
vt 1.00000 0.00000
vt 1.00000 1.00000
vt 0.00000 1.00000
vt 0.00000 1.00000
vt 1.00000 1.00000
vt 1.00000 0.00000
vt 0.00000 0.00000
vt 0.00000 0.00000
vt 1.00000 0.00000
vt 1.00000 1.00000
vt 0.00000 1.00000
vt 0.00000 1.00000
vt 1.00000 1.00000
vt 1.00000 0.00000
vt 0.00000 0.00000
vt 0.00000 0.00000
vt 1.00000 0.00000
vt 1.00000 1.00000
vt 0.00000 1.00000
vt 0.00000 1.00000
vt 1.00000 1.00000
vt 1.00000 0.00000
vt 0.00000 0.00000
vn -0.90083 -0.01740 -0.43382
vn -0.22249 -0.01740 -0.97478
vn 0.62340 -0.01740 -0.78171
vn 0.99985 -0.01740 0.00000
vn 0.62340 -0.01740 0.78171
vn -0.22249 -0.01740 0.97478
vn -0.90083 -0.01740 0.43382
vn 0.00000 1.00000 0.00000
vn 0.00000 -1.00000 0.00000
vn 0.00000 1.00000 -0.00000
vn 0.00000 -1.00000 0.00000
vn 0.00000 1.00000 0.00000
vn 0.00000 -1.00000 0.00000
vn 0.00000 1.00000 0.00000
vn -0.00000 -1.00000 0.00000
vn 0.00000 1.00000 0.00000
vn 0.00000 -1.00000 0.00000
vn 0.00000 1.00000 0.00000
vn 0.00000 -1.00000 -0.00000
vn 0.00000 1.00000 0.00000
vn 0.00000 -1.00000 0.00000
vn 0.89191 -0.29517 0.34259
vn 0.46934 -0.48538 -0.73765
vn -0.59329 0.01258 -0.80489
vn -0.82746 0.51054 0.23379
vn 0.09044 0.32034 0.94298
vn 0.55241 -0.40554 0.72827
vn 0.62180 -0.66328 -0.41644
vn -0.15235 0.01149 -0.98826
vn -0.70018 0.68626 -0.19696
vn -0.26462 0.42852 0.86391
vn 0.25484 -0.39129 0.88428
vn 0.75395 -0.63943 -0.15062
vn 0.22401 0.01020 -0.97453
vn -0.60262 0.65984 -0.44884
vn -0.58357 0.41170 0.69996
vn -0.17043 -0.37859 0.90974
vn 0.75104 -0.62185 0.22190
vn 0.64900 0.01501 -0.76064
vn -0.33554 0.65188 -0.68005
vn -0.84197 0.40862 0.35230
vn -0.76533 -0.38594 0.51509
vn 0.37203 -0.63304 0.67887
vn 0.99687 0.01386 -0.07781
vn 0.24568 0.66076 -0.70925
vn -0.84342 0.41367 -0.34281
vn -0.01536 0.12412 -0.99215
vn 0.01536 -0.12412 0.99215
vn -0.91038 0.05417 -0.41022
vn 0.91038 -0.05417 0.41022
vn -0.92018 -0.12430 0.37124
vn 0.92018 0.12430 -0.37124
vn 0.23295 0.08174 0.96905
vn -0.23295 -0.08174 -0.96905
vn -0.99318 -0.05771 -0.10132
vn 0.99318 0.05771 0.10132
vn -0.24831 -0.05876 -0.96690
vn 0.24831 0.05876 0.96690
vn 0.90228 -0.09435 0.42071
vn -0.90228 0.09435 -0.42071
vn -0.99101 -0.12756 0.04039
vn 0.99101 0.12756 -0.04039
vn -0.60050 0.04192 -0.79852
vn 0.60050 -0.04192 0.79852
vn 0.02062 0.00667 0.99977
vn -0.02062 -0.00667 -0.99977
vn 0.91592 -0.07855 0.39360
vn -0.91592 0.07855 -0.39360
vn -0.92724 -0.14533 0.34512
vn 0.92724 0.14533 -0.34512
vn 0.89318 0.01075 0.44958
vn -0.89318 -0.01075 -0.44958
vn -0.10085 -0.12095 0.98752
vn 0.10085 0.12095 -0.98752
vn 0.13451 -0.12544 0.98294
vn -0.13451 0.12544 -0.98294
vn -0.83324 0.13929 0.53507
vn 0.83324 -0.13929 -0.53507
vn -0.64869 -0.08335 -0.75647
vn 0.64869 0.08335 0.75647
vn -0.50295 -0.05133 -0.86279
vn 0.50295 0.05133 0.86279
vn 0.67257 0.12188 0.72992
vn -0.67257 -0.12188 -0.72992
vn -0.90643 0.14817 0.39551
vn 0.90643 -0.14817 -0.39551
vn 0.82150 0.11121 -0.55926
vn -0.82150 -0.11121 0.55926
vn 0.66969 -0.07009 -0.73932
vn -0.66969 0.07009 0.73932
vn 0.98794 0.07164 -0.13723
vn -0.98794 -0.07164 0.13723
vn 0.99887 -0.00226 -0.04746
vn -0.99887 0.00226 0.04746
vn 0.79189 0.12254 -0.59824
vn -0.79189 -0.12254 0.59824
vn 0.89730 0.01578 -0.44113
vn -0.89730 -0.01578 0.44113
vn 0.88244 0.13990 0.44914
vn -0.88244 -0.13990 -0.44914
vn 0.88044 0.07945 -0.46745
vn -0.88044 -0.07945 0.46745
vn 0.51630 0.01605 0.85626
vn -0.51630 -0.01605 -0.85626
vn 0.46227 -0.14640 -0.87457
vn -0.46227 0.14640 0.87457
vn 0.30069 0.10707 -0.94769
vn -0.30069 -0.10707 0.94769
vn 0.00206 0.14569 0.98933
vn -0.00206 -0.14569 -0.98933
vn -0.99211 0.07710 -0.09884
vn 0.99211 -0.07710 0.09884
vn 0.12125 -0.03951 0.99184
vn -0.12125 0.03951 -0.99184
vn -0.09986 -0.11803 0.98798
vn 0.09986 0.11803 -0.98798
usemtl old_bark
f 1/1/1 2/2/1 3/3/1 4/4/1
f 5/5/2 6/6/2 7/7/2 8/8/2
f 9/9/3 10/10/3 11/11/3 12/12/3
f 13/13/4 14/14/4 15/15/4 16/16/4
f 17/17/5 18/18/5 19/19/5 20/20/5
f 21/21/6 22/22/6 23/23/6 24/24/6
f 25/25/7 26/26/7 27/27/7 28/28/7
f 29/29/8 30/30/8 31/31/8
f 32/32/9 33/33/9 34/34/9
f 35/35/10 36/36/10 37/37/10
f 38/38/11 39/39/11 40/40/11
f 41/41/12 42/42/12 43/43/12
f 44/44/13 45/45/13 46/46/13
f 47/47/14 48/48/14 49/49/14
f 50/50/15 51/51/15 52/52/15
f 53/53/16 54/54/16 55/55/16
f 56/56/17 57/57/17 58/58/17
f 59/59/18 60/60/18 61/61/18
f 62/62/19 63/63/19 64/64/19
f 65/65/20 66/66/20 67/67/20
f 68/68/21 69/69/21 70/70/21
f 71/71/22 72/72/22 73/73/22 74/74/22
f 75/75/23 76/76/23 77/77/23 78/78/23
f 79/79/24 80/80/24 81/81/24 82/82/24
f 83/83/25 84/84/25 85/85/25 86/86/25
f 87/87/26 88/88/26 89/89/26 90/90/26
f 91/91/27 92/92/27 93/93/27 94/94/27
f 95/95/28 96/96/28 97/97/28 98/98/28
f 99/99/29 100/100/29 101/101/29 102/102/29
f 103/103/30 104/104/30 105/105/30 106/106/30
f 107/107/31 108/108/31 109/109/31 110/110/31
f 111/111/32 112/112/32 113/113/32 114/114/32
f 115/115/33 116/116/33 117/117/33 118/118/33
f 119/119/34 120/120/34 121/121/34 122/122/34
f 123/123/35 124/124/35 125/125/35 126/126/35
f 127/127/36 128/128/36 129/129/36 130/130/36
f 131/131/37 132/132/37 133/133/37 134/134/37
f 135/135/38 136/136/38 137/137/38 138/138/38
f 139/139/39 140/140/39 141/141/39 142/142/39
f 143/143/40 144/144/40 145/145/40 146/146/40
f 147/147/41 148/148/41 149/149/41 150/150/41
f 151/151/42 152/152/42 153/153/42 154/154/42
f 155/155/43 156/156/43 157/157/43 158/158/43
f 159/159/44 160/160/44 161/161/44 162/162/44
f 163/163/45 164/164/45 165/165/45 166/166/45
f 167/167/46 168/168/46 169/169/46 170/170/46
usemtl dark_leaf
f 171/171/47 172/172/47 173/173/47 174/174/47
f 175/175/48 176/176/48 177/177/48 178/178/48
f 179/179/49 180/180/49 181/181/49 182/182/49
f 183/183/50 184/184/50 185/185/50 186/186/50
f 187/187/51 188/188/51 189/189/51 190/190/51
f 191/191/52 192/192/52 193/193/52 194/194/52
f 195/195/53 196/196/53 197/197/53 198/198/53
f 199/199/54 200/200/54 201/201/54 202/202/54
f 203/203/55 204/204/55 205/205/55 206/206/55
f 207/207/56 208/208/56 209/209/56 210/210/56
f 211/211/57 212/212/57 213/213/57 214/214/57
f 215/215/58 216/216/58 217/217/58 218/218/58
f 219/219/59 220/220/59 221/221/59 222/222/59
f 223/223/60 224/224/60 225/225/60 226/226/60
f 227/227/61 228/228/61 229/229/61 230/230/61
f 231/231/62 232/232/62 233/233/62 234/234/62
f 235/235/63 236/236/63 237/237/63 238/238/63
f 239/239/64 240/240/64 241/241/64 242/242/64
f 243/243/65 244/244/65 245/245/65 246/246/65
f 247/247/66 248/248/66 249/249/66 250/250/66
f 251/251/67 252/252/67 253/253/67 254/254/67
f 255/255/68 256/256/68 257/257/68 258/258/68
f 259/259/69 260/260/69 261/261/69 262/262/69
f 263/263/70 264/264/70 265/265/70 266/266/70
f 267/267/71 268/268/71 269/269/71 270/270/71
f 271/271/72 272/272/72 273/273/72 274/274/72
f 275/275/73 276/276/73 277/277/73 278/278/73
f 279/279/74 280/280/74 281/281/74 282/282/74
f 283/283/75 284/284/75 285/285/75 286/286/75
f 287/287/76 288/288/76 289/289/76 290/290/76
f 291/291/77 292/292/77 293/293/77 294/294/77
f 295/295/78 296/296/78 297/297/78 298/298/78
f 299/299/79 300/300/79 301/301/79 302/302/79
f 303/303/80 304/304/80 305/305/80 306/306/80
f 307/307/81 308/308/81 309/309/81 310/310/81
f 311/311/82 312/312/82 313/313/82 314/314/82
f 315/315/83 316/316/83 317/317/83 318/318/83
f 319/319/84 320/320/84 321/321/84 322/322/84
f 323/323/85 324/324/85 325/325/85 326/326/85
f 327/327/86 328/328/86 329/329/86 330/330/86
f 331/331/87 332/332/87 333/333/87 334/334/87
f 335/335/88 336/336/88 337/337/88 338/338/88
f 339/339/89 340/340/89 341/341/89 342/342/89
f 343/343/90 344/344/90 345/345/90 346/346/90
f 347/347/91 348/348/91 349/349/91 350/350/91
f 351/351/92 352/352/92 353/353/92 354/354/92
f 355/355/93 356/356/93 357/357/93 358/358/93
f 359/359/94 360/360/94 361/361/94 362/362/94
f 363/363/95 364/364/95 365/365/95 366/366/95
f 367/367/96 368/368/96 369/369/96 370/370/96
f 371/371/97 372/372/97 373/373/97 374/374/97
f 375/375/98 376/376/98 377/377/98 378/378/98
f 379/379/99 380/380/99 381/381/99 382/382/99
f 383/383/100 384/384/100 385/385/100 386/386/100
f 387/387/101 388/388/101 389/389/101 390/390/101
f 391/391/102 392/392/102 393/393/102 394/394/102
f 395/395/103 396/396/103 397/397/103 398/398/103
f 399/399/104 400/400/104 401/401/104 402/402/104
f 403/403/105 404/404/105 405/405/105 406/406/105
f 407/407/106 408/408/106 409/409/106 410/410/106
f 411/411/107 412/412/107 413/413/107 414/414/107
f 415/415/108 416/416/108 417/417/108 418/418/108
f 419/419/109 420/420/109 421/421/109 422/422/109
f 423/423/110 424/424/110 425/425/110 426/426/110
f 427/427/111 428/428/111 429/429/111 430/430/111
f 431/431/112 432/432/112 433/433/112 434/434/112
f 435/435/113 436/436/113 437/437/113 438/438/113
f 439/439/114 440/440/114 441/441/114 442/442/114
f 443/443/115 444/444/115 445/445/115 446/446/115
f 447/447/116 448/448/116 449/449/116 450/450/116