# thorn_bush_medium
mtllib nomad_vegetation.mtl
o thorn_bush_medium
v 0.00182 0.05000 0.02398
v -0.00808 0.03776 0.04559
v -0.39873 0.52239 0.13366
v -0.39329 0.52912 0.12177
v -0.00808 0.03776 0.04559
v 0.01013 0.05000 0.06086
v -0.38871 0.52912 0.14205
v -0.39873 0.52239 0.13366
v 0.01013 0.05000 0.06086
v 0.02003 0.06224 0.03925
v -0.38327 0.53585 0.13017
v -0.38871 0.52912 0.14205
v 0.02003 0.06224 0.03925
v 0.00182 0.05000 0.02398
v -0.39329 0.52912 0.12177
v -0.38327 0.53585 0.13017
v -0.01469 0.05000 0.02323
v 0.00705 0.03450 0.02208
v 0.20768 0.30339 0.33332
v 0.19572 0.31191 0.33395
v 0.00705 0.03450 0.02208
v 0.01708 0.05000 0.00275
v 0.21319 0.31191 0.32269
v 0.20768 0.30339 0.33332
v 0.01708 0.05000 0.00275
v -0.00467 0.06550 0.00389
v 0.20123 0.32044 0.32332
v 0.21319 0.31191 0.32269
v -0.00467 0.06550 0.00389
v -0.01469 0.05000 0.02323
v 0.19572 0.31191 0.33395
v 0.20123 0.32044 0.32332
v 0.03096 0.05691 0.00175
v 0.01266 0.05438 0.02107
v 0.22208 0.78056 0.30645
v 0.23215 0.78195 0.29583
v 0.01266 0.05438 0.02107
v 0.03096 0.04309 0.03693
v 0.23215 0.77435 0.31518
v 0.22208 0.78056 0.30645
v 0.03096 0.04309 0.03693
v 0.04927 0.04562 0.01762
v 0.24222 0.77574 0.30456
v 0.23215 0.77435 0.31518
v 0.04927 0.04562 0.01762
v 0.03096 0.05691 0.00175
v 0.23215 0.78195 0.29583
v 0.24222 0.77574 0.30456
v 0.02612 0.05000 -0.04630
v 0.00088 0.04124 -0.04716
v -0.15757 0.53508 -0.23865
v -0.14369 0.53990 -0.23817
v 0.00088 0.04124 -0.04716
v -0.00301 0.05000 -0.02220
v -0.15970 0.53990 -0.22492
v -0.15757 0.53508 -0.23865
v -0.00301 0.05000 -0.02220
v 0.02223 0.05876 -0.02135
v -0.14582 0.54472 -0.22445
v -0.15970 0.53990 -0.22492
v 0.02223 0.05876 -0.02135
v 0.02612 0.05000 -0.04630
v -0.14369 0.53990 -0.23817
v -0.14582 0.54472 -0.22445
v -0.04377 0.05000 -0.04112
v -0.02219 0.03513 -0.03591
v 0.15192 0.48560 0.49715
v 0.14005 0.49378 0.49428
v -0.02219 0.03513 -0.03591
v -0.00784 0.05000 -0.05286
v 0.15981 0.49378 0.48782
v 0.15192 0.48560 0.49715
v -0.00784 0.05000 -0.05286
v -0.02943 0.06487 -0.05808
v 0.14794 0.50196 0.48495
v 0.15981 0.49378 0.48782
v -0.02943 0.06487 -0.05808
v -0.04377 0.05000 -0.04112
v 0.14005 0.49378 0.49428
v 0.14794 0.50196 0.48495
v 0.01567 0.05000 -0.01885
v 0.00116 0.03620 -0.00114
v -0.47485 0.49501 -0.04259
v -0.46687 0.50260 -0.05233
v 0.00116 0.03620 -0.00114
v 0.01239 0.05000 0.01881
v -0.46868 0.50260 -0.03161
v -0.47485 0.49501 -0.04259
v 0.01239 0.05000 0.01881
v 0.02689 0.06380 0.00110
v -0.46070 0.51019 -0.04135
v -0.46868 0.50260 -0.03161
v 0.02689 0.06380 0.00110
v 0.01567 0.05000 -0.01885
v -0.46687 0.50260 -0.05233
v -0.46070 0.51019 -0.04135
v 0.05125 0.05000 0.05285
v 0.06188 0.03570 0.03292
v 0.49218 0.42015 -0.00554
v 0.48633 0.42802 0.00542
v 0.06188 0.03570 0.03292
v 0.04789 0.05000 0.01520
v 0.48448 0.42802 -0.01528
v 0.49218 0.42015 -0.00554
v 0.04789 0.05000 0.01520
v 0.03726 0.06430 0.03512
v 0.47864 0.43589 -0.00433
v 0.48448 0.42802 -0.01528
v 0.03726 0.06430 0.03512
v 0.05125 0.05000 0.05285
v 0.48633 0.42802 0.00542
v 0.47864 0.43589 -0.00433
v -0.06167 0.05000 0.02385
v -0.04543 0.04111 0.04313
v -0.09572 0.70207 0.38182
v -0.10466 0.70696 0.37122
v -0.04543 0.04111 0.04313
v -0.02428 0.05000 0.02940
v -0.08409 0.70696 0.37428
v -0.09572 0.70207 0.38182
v -0.02428 0.05000 0.02940
v -0.04053 0.05889 0.01013
v -0.09303 0.71184 0.36367
v -0.08409 0.70696 0.37428
v -0.04053 0.05889 0.01013
v -0.06167 0.05000 0.02385
v -0.10466 0.70696 0.37122
v -0.09303 0.71184 0.36367
v 0.03473 0.04844 -0.06878
v 0.01723 0.05711 -0.05053
v 0.30758 0.74430 -0.10731
v 0.31721 0.73954 -0.11734
v 0.01723 0.05711 -0.05053
v 0.03473 0.05156 -0.03111
v 0.31721 0.74125 -0.09662
v 0.30758 0.74430 -0.10731
v 0.03473 0.05156 -0.03111
v 0.05223 0.04289 -0.04936
v 0.32684 0.73648 -0.10666
v 0.31721 0.74125 -0.09662
v 0.05223 0.04289 -0.04936
v 0.03473 0.04844 -0.06878
v 0.31721 0.73954 -0.11734
v 0.32684 0.73648 -0.10666
v -0.01025 0.05000 -0.02380
v 0.00484 0.03863 -0.04270
v 0.46558 0.66497 -0.04277
v 0.45728 0.67122 -0.03238
v 0.00484 0.03863 -0.04270
v -0.01026 0.05000 -0.06160
v 0.45727 0.67122 -0.05317
v 0.46558 0.66497 -0.04277
v -0.01026 0.05000 -0.06160
v -0.02536 0.06137 -0.04269
v 0.44897 0.67747 -0.04277
v 0.45727 0.67122 -0.05317
v -0.02536 0.06137 -0.04269
v -0.01025 0.05000 -0.02380
v 0.45728 0.67122 -0.03238
v 0.44897 0.67747 -0.04277
v -0.02207 0.05000 0.06454
v -0.00750 0.03374 0.04912
v 0.43308 0.31550 0.17855
v 0.42507 0.32445 0.18703
v -0.00750 0.03374 0.04912
v -0.01141 0.05000 0.02827
v 0.43093 0.32445 0.16709
v 0.43308 0.31550 0.17855
v -0.01141 0.05000 0.02827
v -0.02598 0.06626 0.04369
v 0.42292 0.33339 0.17557
v 0.43093 0.32445 0.16709
v -0.02598 0.06626 0.04369
v -0.02207 0.05000 0.06454
v 0.42507 0.32445 0.18703
v 0.42292 0.33339 0.17557
v -0.05482 0.05000 0.04520
v -0.03145 0.03892 0.03846
v 0.26332 0.55004 0.24409
v 0.25046 0.55613 0.24780
v -0.03145 0.03892 0.03846
v -0.03320 0.05000 0.01420
v 0.26236 0.55613 0.23075
v 0.26332 0.55004 0.24409
v -0.03320 0.05000 0.01420
v -0.05657 0.06108 0.02094
v 0.24950 0.56222 0.23446
v 0.26236 0.55613 0.23075
v -0.05657 0.06108 0.02094
v -0.05482 0.05000 0.04520
v 0.25046 0.55613 0.24780
v 0.24950 0.56222 0.23446
v 0.08948 -0.05848 0.17412
v 0.15583 -0.05848 0.45331
v 0.18919 0.31289 0.44538
v 0.12284 0.31289 0.16619
v 0.12284 0.31289 0.16619
v 0.18919 0.31289 0.44538
v 0.15583 -0.05848 0.45331
v 0.08948 -0.05848 0.17412
v 0.26503 -0.00340 0.05532
v 0.45209 -0.00340 -0.18779
v 0.46854 0.36201 -0.17513
v 0.28148 0.36201 0.06798
v 0.28148 0.36201 0.06798
v 0.46854 0.36201 -0.17513
v 0.45209 -0.00340 -0.18779
v 0.26503 -0.00340 0.05532
v 0.41382 0.03069 0.05406
v 0.29193 0.03069 0.46096
v 0.34868 0.37448 0.47796
v 0.47057 0.37448 0.07106
v 0.47057 0.37448 0.07106
v 0.34868 0.37448 0.47796
v 0.29193 0.03069 0.46096
v 0.41382 0.03069 0.05406
v 0.07067 0.00217 0.19285
v 0.40006 0.00217 0.10637
v 0.39943 0.38362 0.10397
v 0.07004 0.38362 0.19045
v 0.07004 0.38362 0.19045
v 0.39943 0.38362 0.10397
v 0.40006 0.00217 0.10637
v 0.07067 0.00217 0.19285
v -0.34792 0.02880 -0.40237
v -0.34649 0.02880 0.05090
v -0.28744 0.50231 0.05071
v -0.28886 0.50231 -0.40255
v -0.28886 0.50231 -0.40255
v -0.28744 0.50231 0.05071
v -0.34649 0.02880 0.05090
v -0.34792 0.02880 -0.40237
v 0.16942 -0.06470 -0.52298
v -0.22491 -0.06470 -0.31087
v -0.19345 0.35095 -0.25237
v 0.20089 0.35095 -0.46448
v 0.20089 0.35095 -0.46448
v -0.19345 0.35095 -0.25237
v -0.22491 -0.06470 -0.31087
v 0.16942 -0.06470 -0.52298
v 0.54400 -0.01312 0.19282
v 0.28391 -0.01312 0.01254
v 0.26140 0.46397 0.04501
v 0.52150 0.46397 0.22529
v 0.52150 0.46397 0.22529
v 0.26140 0.46397 0.04501
v 0.28391 -0.01312 0.01254
v 0.54400 -0.01312 0.19282
v 0.29314 -0.03684 0.42156
v 0.00702 -0.03684 0.17153
v -0.02107 0.44754 0.20368
v 0.26504 0.44754 0.45370
v 0.26504 0.44754 0.45370
v -0.02107 0.44754 0.20368
v 0.00702 -0.03684 0.17153
v 0.29314 -0.03684 0.42156
v 0.03480 -0.06774 -0.22465
v 0.19396 -0.06774 0.09390
v 0.20703 0.21025 0.08737
v 0.04786 0.21025 -0.23118
v 0.04786 0.21025 -0.23118
v 0.20703 0.21025 0.08737
v 0.19396 -0.06774 0.09390
v 0.03480 -0.06774 -0.22465
v -0.00860 0.02446 0.17302
v -0.17769 0.02446 -0.26380
v -0.16399 0.45916 -0.26911
v 0.00509 0.45916 0.16772
v 0.00509 0.45916 0.16772
v -0.16399 0.45916 -0.26911
v -0.17769 0.02446 -0.26380
v -0.00860 0.02446 0.17302
v -0.16099 -0.14786 0.02376
v 0.24507 -0.14786 0.07833
v 0.24133 0.36661 0.10613
v -0.16472 0.36661 0.05157
v -0.16472 0.36661 0.05157
v 0.24133 0.36661 0.10613
v 0.24507 -0.14786 0.07833
v -0.16099 -0.14786 0.02376
v -0.32286 -0.01054 0.17615
v -0.34555 -0.01054 -0.10123
v -0.28108 0.39012 -0.10651
v -0.25838 0.39012 0.17087
v -0.25838 0.39012 0.17087
v -0.28108 0.39012 -0.10651
v -0.34555 -0.01054 -0.10123
v -0.32286 -0.01054 0.17615
v -0.02966 0.00000 -0.36483
v -0.03179 0.00000 -0.39100
v -0.03235 0.20929 -0.39785
v -0.03235 0.20929 -0.39785
v -0.03179 0.00000 -0.39100
v -0.02966 0.00000 -0.36483
v 0.21967 0.00000 -0.12991
v 0.24226 0.00000 -0.14327
v 0.24818 0.19794 -0.14677
v 0.24818 0.19794 -0.14677
v 0.24226 0.00000 -0.14327
v 0.21967 0.00000 -0.12991
v 0.34008 0.00000 -0.24437
v 0.36140 0.00000 -0.25968
v 0.36698 0.16980 -0.26369
v 0.36698 0.16980 -0.26369
v 0.36140 0.00000 -0.25968
v 0.34008 0.00000 -0.24437
v 0.10489 0.00000 -0.40294
v 0.11151 0.00000 -0.42834
v 0.11324 0.18614 -0.43500
v 0.11324 0.18614 -0.43500
v 0.11151 0.00000 -0.42834
v 0.10489 0.00000 -0.40294
v -0.18730 0.00000 -0.18720
v -0.20586 0.00000 -0.20576
v -0.21072 0.18718 -0.21062
v -0.21072 0.18718 -0.21062
v -0.20586 0.00000 -0.20576
v -0.18730 0.00000 -0.18720
v -0.13148 0.00000 -0.10720
v -0.15182 0.00000 -0.12379
v -0.15715 0.19314 -0.12813
v -0.15715 0.19314 -0.12813
v -0.15182 0.00000 -0.12379
v -0.13148 0.00000 -0.10720
v 0.42114 0.00000 -0.01768
v 0.44737 0.00000 -0.01878
v 0.45423 0.20246 -0.01907
v 0.45423 0.20246 -0.01907
v 0.44737 0.00000 -0.01878
v 0.42114 0.00000 -0.01768
v -0.28728 0.00000 0.24245
v -0.30734 0.00000 0.25938
v -0.31259 0.18700 0.26381
v -0.31259 0.18700 0.26381
v -0.30734 0.00000 0.25938
v -0.28728 0.00000 0.24245
v -0.38027 0.00000 0.14912
v -0.40471 0.00000 0.15870
v -0.41111 0.13480 0.16121
v -0.41111 0.13480 0.16121
v -0.40471 0.00000 0.15870
v -0.38027 0.00000 0.14912
v 0.00020 0.00000 -0.15376
v 0.00024 0.00000 -0.18001
v 0.00025 0.18913 -0.18688
v 0.00025 0.18913 -0.18688
v 0.00024 0.00000 -0.18001
v 0.00020 0.00000 -0.15376
vt 0.00000 0.00000
vt 1.00000 0.00000
vt 1.00000 1.00000
vt 0.00000 1.00000
vt 0.00000 0.00000
vt 1.00000 0.00000
vt 1.00000 1.00000
vt 0.00000 1.00000
vt 0.00000 0.00000
vt 1.00000 0.00000
vt 1.00000 1.00000
vt 0.00000 1.00000
vt 0.00000 0.00000
vt 1.00000 0.00000
vt 1.00000 1.00000
vt 0.00000 1.00000
vt 0.00000 0.00000
vt 1.00000 0.00000
vt 1.00000 1.00000
vt 0.00000 1.00000
vt 0.00000 0.00000
vt 1.00000 0.00000
vt 1.00000 1.00000
vt 0.00000 1.00000
vt 0.00000 0.00000
vt 1.00000 0.00000
vt 1.00000 1.00000
vt 0.00000 1.00000
vt 0.00000 0.00000
vt 1.00000 0.00000
vt 1.00000 1.00000
vt 0.00000 1.00000
vt 0.00000 0.00000
vt 1.00000 0.00000
vt 1.00000 1.00000
vt 0.00000 1.00000
vt 0.00000 0.00000
vt 1.00000 0.00000
vt 1.00000 1.00000
vt 0.00000 1.00000
vt 0.00000 0.00000
vt 1.00000 0.00000
vt 1.00000 1.00000
vt 0.00000 1.00000
vt 0.00000 0.00000
vt 1.00000 0.00000
vt 1.00000 1.00000
vt 0.00000 1.00000
vt 0.00000 0.00000
vt 1.00000 0.00000
vt 1.00000 1.00000
vt 0.00000 1.00000
vt 0.00000 0.00000
vt 1.00000 0.00000
vt 1.00000 1.00000
vt 0.00000 1.00000
vt 0.00000 0.00000
vt 1.00000 0.00000
vt 1.00000 1.00000
vt 0.00000 1.00000
vt 0.00000 0.00000
vt 1.00000 0.00000
vt 1.00000 1.00000
vt 0.00000 1.00000
vt 0.00000 0.00000
vt 1.00000 0.00000
vt 1.00000 1.00000
vt 0.00000 1.00000
vt 0.00000 0.00000
vt 1.00000 0.00000
vt 1.00000 1.00000
vt 0.00000 1.00000
vt 0.00000 0.00000
vt 1.00000 0.00000
vt 1.00000 1.00000
vt 0.00000 1.00000
vt 0.00000 0.00000
vt 1.00000 0.00000
vt 1.00000 1.00000
vt 0.00000 1.00000
vt 0.00000 0.00000
vt 1.00000 0.00000
vt 1.00000 1.00000
vt 0.00000 1.00000
vt 0.00000 0.00000
vt 1.00000 0.00000
vt 1.00000 1.00000
vt 0.00000 1.00000
vt 0.00000 0.00000
vt 1.00000 0.00000
vt 1.00000 1.00000
vt 0.00000 1.00000
vt 0.00000 0.00000
vt 1.00000 0.00000
vt 1.00000 1.00000
vt 0.00000 1.00000
vt 0.00000 0.00000
vt 1.00000 0.00000
vt 1.00000 1.00000
vt 0.00000 1.00000
vt 0.00000 0.00000
vt 1.00000 0.00000
vt 1.00000 1.00000
vt 0.00000 1.00000
vt 0.00000 0.00000
vt 1.00000 0.00000
vt 1.00000 1.00000
vt 0.00000 1.00000
vt 0.00000 0.00000
vt 1.00000 0.00000
vt 1.00000 1.00000
vt 0.00000 1.00000
vt 0.00000 0.00000
vt 1.00000 0.00000
vt 1.00000 1.00000
vt 0.00000 1.00000
vt 0.00000 0.00000
vt 1.00000 0.00000
vt 1.00000 1.00000
vt 0.00000 1.00000
vt 0.00000 0.00000
vt 1.00000 0.00000
vt 1.00000 1.00000
vt 0.00000 1.00000
vt 0.00000 0.00000
vt 1.00000 0.00000
vt 1.00000 1.00000
vt 0.00000 1.00000
vt 0.00000 0.00000
vt 1.00000 0.00000
vt 1.00000 1.00000
vt 0.00000 1.00000
vt 0.00000 0.00000
vt 1.00000 0.00000
vt 1.00000 1.00000
vt 0.00000 1.00000
vt 0.00000 0.00000
vt 1.00000 0.00000
vt 1.00000 1.00000
vt 0.00000 1.00000
vt 0.00000 0.00000
vt 1.00000 0.00000
vt 1.00000 1.00000
vt 0.00000 1.00000
vt 0.00000 0.00000
vt 1.00000 0.00000
vt 1.00000 1.00000
vt 0.00000 1.00000
vt 0.00000 0.00000
vt 1.00000 0.00000
vt 1.00000 1.00000
vt 0.00000 1.00000
vt 0.00000 0.00000
vt 1.00000 0.00000
vt 1.00000 1.00000
vt 0.00000 1.00000
vt 0.00000 0.00000
vt 1.00000 0.00000
vt 1.00000 1.00000
vt 0.00000 1.00000
vt 0.00000 0.00000
vt 1.00000 0.00000
vt 1.00000 1.00000
vt 0.00000 1.00000
vt 0.00000 0.00000
vt 1.00000 0.00000
vt 1.00000 1.00000
vt 0.00000 1.00000
vt 0.00000 0.00000
vt 1.00000 0.00000
vt 1.00000 1.00000
vt 0.00000 1.00000
vt 0.00000 0.00000
vt 1.00000 0.00000
vt 1.00000 1.00000
vt 0.00000 1.00000
vt 0.00000 0.00000
vt 1.00000 0.00000
vt 1.00000 1.00000
vt 0.00000 1.00000
vt 0.00000 0.00000
vt 1.00000 0.00000
vt 1.00000 1.00000
vt 0.00000 1.00000
vt 0.00000 0.00000
vt 1.00000 0.00000
vt 1.00000 1.00000
vt 0.00000 1.00000
vt 0.00000 0.00000
vt 1.00000 0.00000
vt 1.00000 1.00000
vt 0.00000 1.00000
vt 0.00000 0.00000
vt 1.00000 0.00000
vt 1.00000 1.00000
vt 0.00000 1.00000
vt 0.00000 1.00000
vt 1.00000 1.00000
vt 1.00000 0.00000
vt 0.00000 0.00000
vt 0.00000 0.00000
vt 1.00000 0.00000
vt 1.00000 1.00000
vt 0.00000 1.00000
vt 0.00000 1.00000
vt 1.00000 1.00000
vt 1.00000 0.00000
vt 0.00000 0.00000
vt 0.00000 0.00000
vt 1.00000 0.00000
vt 1.00000 1.00000
vt 0.00000 1.00000
vt 0.00000 1.00000
vt 1.00000 1.00000
vt 1.00000 0.00000
vt 0.00000 0.00000
vt 0.00000 0.00000
vt 1.00000 0.00000
vt 1.00000 1.00000
vt 0.00000 1.00000
vt 0.00000 1.00000
vt 1.00000 1.00000
vt 1.00000 0.00000
vt 0.00000 0.00000
vt 0.00000 0.00000
vt 1.00000 0.00000
vt 1.00000 1.00000
vt 0.00000 1.00000
vt 0.00000 1.00000
vt 1.00000 1.00000
vt 1.00000 0.00000
vt 0.00000 0.00000
vt 0.00000 0.00000
vt 1.00000 0.00000
vt 1.00000 1.00000
vt 0.00000 1.00000
vt 0.00000 1.00000
vt 1.00000 1.00000
vt 1.00000 0.00000
vt 0.00000 0.00000
vt 0.00000 0.00000
vt 1.00000 0.00000
vt 1.00000 1.00000
vt 0.00000 1.00000
vt 0.00000 1.00000
vt 1.00000 1.00000
vt 1.00000 0.00000
vt 0.00000 0.00000
vt 0.00000 0.00000
vt 1.00000 0.00000
vt 1.00000 1.00000
vt 0.00000 1.00000
vt 0.00000 1.00000
vt 1.00000 1.00000
vt 1.00000 0.00000
vt 0.00000 0.00000
vt 0.00000 0.00000
vt 1.00000 0.00000
vt 1.00000 1.00000
vt 0.00000 1.00000
vt 0.00000 1.00000
vt 1.00000 1.00000
vt 1.00000 0.00000
vt 0.00000 0.00000
vt 0.00000 0.00000
vt 1.00000 0.00000
vt 1.00000 1.00000
vt 0.00000 1.00000
vt 0.00000 1.00000
vt 1.00000 1.00000
vt 1.00000 0.00000
vt 0.00000 0.00000
vt 0.00000 0.00000
vt 1.00000 0.00000
vt 1.00000 1.00000
vt 0.00000 1.00000
vt 0.00000 1.00000
vt 1.00000 1.00000
vt 1.00000 0.00000
vt 0.00000 0.00000
vt 0.00000 0.00000
vt 1.00000 0.00000
vt 1.00000 1.00000
vt 0.00000 1.00000
vt 0.00000 1.00000
vt 1.00000 1.00000
vt 1.00000 0.00000
vt 0.00000 0.00000
vt 0.00000 0.00000
vt 1.00000 0.00000
vt 0.50000 1.00000
vt 0.50000 1.00000
vt 1.00000 0.00000
vt 0.00000 0.00000
vt 0.00000 0.00000
vt 1.00000 0.00000
vt 0.50000 1.00000
vt 0.50000 1.00000
vt 1.00000 0.00000
vt 0.00000 0.00000
vt 0.00000 0.00000
vt 1.00000 0.00000
vt 0.50000 1.00000
vt 0.50000 1.00000
vt 1.00000 0.00000
vt 0.00000 0.00000
vt 0.00000 0.00000
vt 1.00000 0.00000
vt 0.50000 1.00000
vt 0.50000 1.00000
vt 1.00000 0.00000
vt 0.00000 0.00000
vt 0.00000 0.00000
vt 1.00000 0.00000
vt 0.50000 1.00000
vt 0.50000 1.00000
vt 1.00000 0.00000
vt 0.00000 0.00000
vt 0.00000 0.00000
vt 1.00000 0.00000
vt 0.50000 1.00000
vt 0.50000 1.00000
vt 1.00000 0.00000
vt 0.00000 0.00000
vt 0.00000 0.00000
vt 1.00000 0.00000
vt 0.50000 1.00000
vt 0.50000 1.00000
vt 1.00000 0.00000
vt 0.00000 0.00000
vt 0.00000 0.00000
vt 1.00000 0.00000
vt 0.50000 1.00000
vt 0.50000 1.00000
vt 1.00000 0.00000
vt 0.00000 0.00000
vt 0.00000 0.00000
vt 1.00000 0.00000
vt 0.50000 1.00000
vt 0.50000 1.00000
vt 1.00000 0.00000
vt 0.00000 0.00000
vt 0.00000 0.00000
vt 1.00000 0.00000
vt 0.50000 1.00000
vt 0.50000 1.00000
vt 1.00000 0.00000
vt 0.00000 0.00000
vn -0.68727 -0.45044 -0.56988
vn -0.37627 -0.45044 0.80964
vn 0.67518 0.46503 0.57261
vn 0.36419 0.46503 -0.80692
vn -0.36915 -0.57222 0.73232
vn 0.81940 -0.57222 -0.03384
vn 0.38083 0.58727 -0.71420
vn -0.80772 0.58727 0.05195
vn -0.68295 0.42923 -0.59104
vn -0.68295 -0.08802 0.72514
vn 0.68666 -0.41581 0.59632
vn 0.68666 0.10144 -0.71987
vn 0.14207 -0.31791 -0.93742
vn -0.94744 -0.31791 -0.03591
vn -0.14850 0.33719 0.92965
vn 0.94102 0.33719 0.02814
vn -0.53464 -0.55128 0.64051
vn 0.80964 -0.55128 0.20143
vn 0.53872 0.56160 -0.62800
vn -0.80555 0.56160 -0.18892
vn -0.42660 -0.51006 -0.74689
vn -0.54926 -0.51006 0.66193
vn 0.41339 0.52247 0.74574
vn 0.53605 0.52247 -0.66308
vn 0.53118 -0.52826 0.66241
vn 0.40530 -0.52826 -0.74611
vn -0.51550 0.54186 -0.66381
vn -0.38962 0.54186 0.74471
vn -0.79164 -0.32527 0.51721
vn 0.60719 -0.32527 0.72493
vn 0.79052 0.33954 -0.50969
vn -0.60830 0.33954 -0.71741
vn -0.65171 0.21528 -0.72728
vn -0.65171 0.33171 0.68209
vn 0.65778 -0.20044 0.72605
vn 0.65778 -0.31687 -0.68331
vn 0.56973 -0.41901 0.70699
vn 0.56950 -0.41901 -0.70718
vn -0.56043 0.43137 -0.70699
vn -0.56019 0.43137 0.70718
vn 0.15555 -0.60273 0.78264
vn 0.55413 -0.60273 -0.57415
vn -0.13711 0.61411 -0.77722
vn -0.53570 0.61411 0.57957
vn 0.06987 -0.40675 0.91086
vn 0.87896 -0.40675 -0.24896
vn -0.06061 0.42235 -0.90441
vn -0.86970 0.42235 0.25542
vn -0.96878 0.09195 0.23023
vn 0.96878 -0.09195 -0.23023
vn 0.79127 -0.05670 0.60883
vn -0.79127 0.05670 -0.60883
vn -0.94403 0.16981 -0.28281
vn 0.94403 -0.16981 0.28281
vn 0.25395 0.00651 0.96720
vn -0.25395 -0.00651 -0.96720
vn -0.99231 0.12376 0.00313
vn 0.99231 -0.12376 -0.00313
vn -0.46777 0.15780 -0.86965
vn 0.46777 -0.15780 0.86965
vn 0.56774 0.08253 -0.81906
vn -0.56774 -0.08253 0.81906
vn 0.65548 0.08780 -0.75009
vn -0.65548 -0.08780 0.75009
vn -0.89332 0.05246 0.44634
vn 0.89332 -0.05246 -0.44634
vn 0.93204 -0.03377 -0.36077
vn -0.93204 0.03377 0.36077
vn -0.13298 -0.05445 0.98962
vn 0.13298 0.05445 -0.98962
vn 0.98393 -0.15940 -0.08051
vn -0.98393 0.15940 0.08051
vn 0.99671 0.00000 -0.08104
vn -0.99671 -0.00000 0.08104
vn 0.50903 -0.00000 0.86075
vn -0.50903 0.00000 -0.86075
vn 0.58353 0.00000 0.81209
vn -0.58353 -0.00000 -0.81209
vn 0.96775 0.00000 0.25193
vn -0.96775 -0.00000 -0.25193
vn 0.70693 0.00000 -0.70728
vn -0.70693 -0.00000 0.70728
vn 0.63192 0.00000 -0.77503
vn -0.63192 -0.00000 0.77503
vn 0.04195 -0.00000 0.99912
vn -0.04195 0.00000 -0.99912
vn -0.64496 0.00000 -0.76421
vn 0.64496 -0.00000 0.76421
vn -0.36507 0.00000 -0.93098
vn 0.36507 -0.00000 0.93098
vn 1.00000 -0.00000 0.00132
vn -1.00000 0.00000 -0.00132
usemtl thorn
f 1/1/1 2/2/1 3/3/1 4/4/1
f 5/5/2 6/6/2 7/7/2 8/8/2
f 9/9/3 10/10/3 11/11/3 12/12/3
f 13/13/4 14/14/4 15/15/4 16/16/4
f 17/17/5 18/18/5 19/19/5 20/20/5
f 21/21/6 22/22/6 23/23/6 24/24/6
f 25/25/7 26/26/7 27/27/7 28/28/7
f 29/29/8 30/30/8 31/31/8 32/32/8
f 33/33/9 34/34/9 35/35/9 36/36/9
f 37/37/10 38/38/10 39/39/10 40/40/10
f 41/41/11 42/42/11 43/43/11 44/44/11
f 45/45/12 46/46/12 47/47/12 48/48/12
f 49/49/13 50/50/13 51/51/13 52/52/13
f 53/53/14 54/54/14 55/55/14 56/56/14
f 57/57/15 58/58/15 59/59/15 60/60/15
f 61/61/16 62/62/16 63/63/16 64/64/16
f 65/65/17 66/66/17 67/67/17 68/68/17
f 69/69/18 70/70/18 71/71/18 72/72/18
f 73/73/19 74/74/19 75/75/19 76/76/19
f 77/77/20 78/78/20 79/79/20 80/80/20
f 81/81/21 82/82/21 83/83/21 84/84/21
f 85/85/22 86/86/22 87/87/22 88/88/22
f 89/89/23 90/90/23 91/91/23 92/92/23
f 93/93/24 94/94/24 95/95/24 96/96/24
f 97/97/25 98/98/25 99/99/25 100/100/25
f 101/101/26 102/102/26 103/103/26 104/104/26
f 105/105/27 106/106/27 107/107/27 108/108/27
f 109/109/28 110/110/28 111/111/28 112/112/28
f 113/113/29 114/114/29 115/115/29 116/116/29
f 117/117/30 118/118/30 119/119/30 120/120/30
f 121/121/31 122/122/31 123/123/31 124/124/31
f 125/125/32 126/126/32 127/127/32 128/128/32
f 129/129/33 130/130/33 131/131/33 132/132/33
f 133/133/34 134/134/34 135/135/34 136/136/34
f 137/137/35 138/138/35 139/139/35 140/140/35
f 141/141/36 142/142/36 143/143/36 144/144/36
f 145/145/37 146/146/37 147/147/37 148/148/37
f 149/149/38 150/150/38 151/151/38 152/152/38
f 153/153/39 154/154/39 155/155/39 156/156/39
f 157/157/40 158/158/40 159/159/40 160/160/40
f 161/161/41 162/162/41 163/163/41 164/164/41
f 165/165/42 166/166/42 167/167/42 168/168/42
f 169/169/43 170/170/43 171/171/43 172/172/43
f 173/173/44 174/174/44 175/175/44 176/176/44
f 177/177/45 178/178/45 179/179/45 180/180/45
f 181/181/46 182/182/46 183/183/46 184/184/46
f 185/185/47 186/186/47 187/187/47 188/188/47
f 189/189/48 190/190/48 191/191/48 192/192/48
usemtl straw_leaf
f 193/193/49 194/194/49 195/195/49 196/196/49
f 197/197/50 198/198/50 199/199/50 200/200/50
f 201/201/51 202/202/51 203/203/51 204/204/51
f 205/205/52 206/206/52 207/207/52 208/208/52
f 209/209/53 210/210/53 211/211/53 212/212/53
f 213/213/54 214/214/54 215/215/54 216/216/54
f 217/217/55 218/218/55 219/219/55 220/220/55
f 221/221/56 222/222/56 223/223/56 224/224/56
f 225/225/57 226/226/57 227/227/57 228/228/57
f 229/229/58 230/230/58 231/231/58 232/232/58
f 233/233/59 234/234/59 235/235/59 236/236/59
f 237/237/60 238/238/60 239/239/60 240/240/60
f 241/241/61 242/242/61 243/243/61 244/244/61
f 245/245/62 246/246/62 247/247/62 248/248/62
f 249/249/63 250/250/63 251/251/63 252/252/63
f 253/253/64 254/254/64 255/255/64 256/256/64
f 257/257/65 258/258/65 259/259/65 260/260/65
f 261/261/66 262/262/66 263/263/66 264/264/66
f 265/265/67 266/266/67 267/267/67 268/268/67
f 269/269/68 270/270/68 271/271/68 272/272/68
f 273/273/69 274/274/69 275/275/69 276/276/69
f 277/277/70 278/278/70 279/279/70 280/280/70
f 281/281/71 282/282/71 283/283/71 284/284/71
f 285/285/72 286/286/72 287/287/72 288/288/72
usemtl thorn
f 289/289/73 290/290/73 291/291/73
f 292/292/74 293/293/74 294/294/74
f 295/295/75 296/296/75 297/297/75
f 298/298/76 299/299/76 300/300/76
f 301/301/77 302/302/77 303/303/77
f 304/304/78 305/305/78 306/306/78
f 307/307/79 308/308/79 309/309/79
f 310/310/80 311/311/80 312/312/80
f 313/313/81 314/314/81 315/315/81
f 316/316/82 317/317/82 318/318/82
f 319/319/83 320/320/83 321/321/83
f 322/322/84 323/323/84 324/324/84
f 325/325/85 326/326/85 327/327/85
f 328/328/86 329/329/86 330/330/86
f 331/331/87 332/332/87 333/333/87
f 334/334/88 335/335/88 336/336/88
f 337/337/89 338/338/89 339/339/89
f 340/340/90 341/341/90 342/342/90
f 343/343/91 344/344/91 345/345/91
f 346/346/92 347/347/92 348/348/92