# young_date_palm
mtllib nomad_vegetation.mtl
o young_date_palm
v 0.10000 0.00000 0.00000
v 0.07071 0.00000 0.07071
v 0.05091 2.10000 0.05091
v 0.07200 2.10000 0.00000
v 0.07071 0.00000 0.07071
v 0.00000 0.00000 0.10000
v 0.00000 2.10000 0.07200
v 0.05091 2.10000 0.05091
v 0.00000 0.00000 0.10000
v -0.07071 0.00000 0.07071
v -0.05091 2.10000 0.05091
v 0.00000 2.10000 0.07200
v -0.07071 0.00000 0.07071
v -0.10000 0.00000 0.00000
v -0.07200 2.10000 0.00000
v -0.05091 2.10000 0.05091
v -0.10000 0.00000 0.00000
v -0.07071 0.00000 -0.07071
v -0.05091 2.10000 -0.05091
v -0.07200 2.10000 0.00000
v -0.07071 0.00000 -0.07071
v -0.00000 0.00000 -0.10000
v -0.00000 2.10000 -0.07200
v -0.05091 2.10000 -0.05091
v -0.00000 0.00000 -0.10000
v 0.07071 0.00000 -0.07071
v 0.05091 2.10000 -0.05091
v -0.00000 2.10000 -0.07200
v 0.07071 0.00000 -0.07071
v 0.10000 0.00000 -0.00000
v 0.07200 2.10000 -0.00000
v 0.05091 2.10000 -0.05091
v 0.00000 0.00000 0.00000
v 0.07071 0.00000 0.07071
v 0.10000 0.00000 0.00000
v 0.00000 2.10000 0.00000
v 0.07200 2.10000 0.00000
v 0.05091 2.10000 0.05091
v 0.00000 0.00000 0.00000
v 0.00000 0.00000 0.10000
v 0.07071 0.00000 0.07071
v 0.00000 2.10000 0.00000
v 0.05091 2.10000 0.05091
v 0.00000 2.10000 0.07200
v 0.00000 0.00000 0.00000
v -0.07071 0.00000 0.07071
v 0.00000 0.00000 0.10000
v 0.00000 2.10000 0.00000
v 0.00000 2.10000 0.07200
v -0.05091 2.10000 0.05091
v 0.00000 0.00000 0.00000
v -0.10000 0.00000 0.00000
v -0.07071 0.00000 0.07071
v 0.00000 2.10000 0.00000
v -0.05091 2.10000 0.05091
v -0.07200 2.10000 0.00000
v 0.00000 0.00000 0.00000
v -0.07071 0.00000 -0.07071
v -0.10000 0.00000 0.00000
v 0.00000 2.10000 0.00000
v -0.07200 2.10000 0.00000
v -0.05091 2.10000 -0.05091
v 0.00000 0.00000 0.00000
v -0.00000 0.00000 -0.10000
v -0.07071 0.00000 -0.07071
v 0.00000 2.10000 0.00000
v -0.05091 2.10000 -0.05091
v -0.00000 2.10000 -0.07200
v 0.00000 0.00000 0.00000
v 0.07071 0.00000 -0.07071
v -0.00000 0.00000 -0.10000
v 0.00000 2.10000 0.00000
v -0.00000 2.10000 -0.07200
v 0.05091 2.10000 -0.05091
v 0.00000 0.00000 0.00000
v 0.10000 0.00000 -0.00000
v 0.07071 0.00000 -0.07071
v 0.00000 2.10000 0.00000
v 0.05091 2.10000 -0.05091
v 0.07200 2.10000 -0.00000
v 0.36412 1.75000 -0.07154
v 0.35495 1.75000 0.10822
v 0.81107 2.69547 0.13149
v 0.82024 2.69547 -0.04828
v 0.82024 2.69547 -0.04828
v 0.81107 2.69547 0.13149
v 0.35495 1.75000 0.10822
v 0.36412 1.75000 -0.07154
v 0.33170 1.75000 0.16636
v 0.21438 1.75000 0.30288
v 0.56078 2.69547 0.60054
v 0.67809 2.69547 0.46402
v 0.67809 2.69547 0.46402
v 0.56078 2.69547 0.60054
v 0.21438 1.75000 0.30288
v 0.33170 1.75000 0.16636
v 0.22021 1.75000 0.29868
v 0.05375 1.75000 0.36717
v 0.22753 2.69547 0.78953
v 0.39399 2.69547 0.72104
v 0.39399 2.69547 0.72104
v 0.22753 2.69547 0.78953
v 0.05375 1.75000 0.36717
v 0.22021 1.75000 0.29868
v -0.06963 1.75000 0.36449
v -0.23296 1.75000 0.28884
v -0.42491 2.69547 0.70326
v -0.26158 2.69547 0.77891
v -0.26158 2.69547 0.77891
v -0.42491 2.69547 0.70326
v -0.23296 1.75000 0.28884
v -0.06963 1.75000 0.36449
v -0.21684 1.75000 0.30113
v -0.33304 1.75000 0.16366
v -0.68184 2.69547 0.45849
v -0.56564 2.69547 0.59596
v -0.56564 2.69547 0.59596
v -0.68184 2.69547 0.45849
v -0.33304 1.75000 0.16366
v -0.21684 1.75000 0.30113
v -0.36339 1.75000 0.07516
v -0.35601 1.75000 -0.10468
v -0.81234 2.69547 -0.12341
v -0.81972 2.69547 0.05644
v -0.81972 2.69547 0.05644
v -0.81234 2.69547 -0.12341
v -0.35601 1.75000 -0.10468
v -0.36339 1.75000 0.07516
v -0.35607 1.75000 -0.10446
v -0.26502 1.75000 -0.25974
v -0.65900 2.69547 -0.49076
v -0.75005 2.69547 -0.33548
v -0.75005 2.69547 -0.33548
v -0.65900 2.69547 -0.49076
v -0.26502 1.75000 -0.25974
v -0.35607 1.75000 -0.10446
v -0.17702 1.75000 -0.32614
v -0.00272 1.75000 -0.37107
v -0.11673 2.69547 -0.81332
v -0.29103 2.69547 -0.76839
v -0.29103 2.69547 -0.76839
v -0.11673 2.69547 -0.81332
v -0.00272 1.75000 -0.37107
v -0.17702 1.75000 -0.32614
v -0.00538 1.75000 -0.37104
v 0.16986 1.75000 -0.32992
v 0.27419 2.69547 -0.77456
v 0.09895 2.69547 -0.81568
v 0.09895 2.69547 -0.81568
v 0.27419 2.69547 -0.77456
v 0.16986 1.75000 -0.32992
v -0.00538 1.75000 -0.37104
v 0.25215 1.75000 -0.27225
v 0.35060 1.75000 -0.12157
v 0.73294 2.69547 -0.37138
v 0.63449 2.69547 -0.52206
v 0.63449 2.69547 -0.52206
v 0.73294 2.69547 -0.37138
v 0.35060 1.75000 -0.12157
v 0.25215 1.75000 -0.27225
vt 0.00000 0.00000
vt 1.00000 0.00000
vt 1.00000 1.00000
vt 0.00000 1.00000
vt 0.00000 0.00000
vt 1.00000 0.00000
vt 1.00000 1.00000
vt 0.00000 1.00000
vt 0.00000 0.00000
vt 1.00000 0.00000
vt 1.00000 1.00000
vt 0.00000 1.00000
vt 0.00000 0.00000
vt 1.00000 0.00000
vt 1.00000 1.00000
vt 0.00000 1.00000
vt 0.00000 0.00000
vt 1.00000 0.00000
vt 1.00000 1.00000
vt 0.00000 1.00000
vt 0.00000 0.00000
vt 1.00000 0.00000
vt 1.00000 1.00000
vt 0.00000 1.00000
vt 0.00000 0.00000
vt 1.00000 0.00000
vt 1.00000 1.00000
vt 0.00000 1.00000
vt 0.00000 0.00000
vt 1.00000 0.00000
vt 1.00000 1.00000
vt 0.00000 1.00000
vt 0.00000 0.00000
vt 1.00000 0.00000
vt 1.00000 1.00000
vt 0.00000 0.00000
vt 1.00000 0.00000
vt 1.00000 1.00000
vt 0.00000 0.00000
vt 1.00000 0.00000
vt 1.00000 1.00000
vt 0.00000 0.00000
vt 1.00000 0.00000
vt 1.00000 1.00000
vt 0.00000 0.00000
vt 1.00000 0.00000
vt 1.00000 1.00000
vt 0.00000 0.00000
vt 1.00000 0.00000
vt 1.00000 1.00000
vt 0.00000 0.00000
vt 1.00000 0.00000
vt 1.00000 1.00000
vt 0.00000 0.00000
vt 1.00000 0.00000
vt 1.00000 1.00000
vt 0.00000 0.00000
vt 1.00000 0.00000
vt 1.00000 1.00000
vt 0.00000 0.00000
vt 1.00000 0.00000
vt 1.00000 1.00000
vt 0.00000 0.00000
vt 1.00000 0.00000
vt 1.00000 1.00000
vt 0.00000 0.00000
vt 1.00000 0.00000
vt 1.00000 1.00000
vt 0.00000 0.00000
vt 1.00000 0.00000
vt 1.00000 1.00000
vt 0.00000 0.00000
vt 1.00000 0.00000
vt 1.00000 1.00000
vt 0.00000 0.00000
vt 1.00000 0.00000
vt 1.00000 1.00000
vt 0.00000 0.00000
vt 1.00000 0.00000
vt 1.00000 1.00000
vt 0.00000 0.00000
vt 1.00000 0.00000
vt 1.00000 1.00000
vt 0.00000 1.00000
vt 0.00000 1.00000
vt 1.00000 1.00000
vt 1.00000 0.00000
vt 0.00000 0.00000
vt 0.00000 0.00000
vt 1.00000 0.00000
vt 1.00000 1.00000
vt 0.00000 1.00000
vt 0.00000 1.00000
vt 1.00000 1.00000
vt 1.00000 0.00000
vt 0.00000 0.00000
vt 0.00000 0.00000
vt 1.00000 0.00000
vt 1.00000 1.00000
vt 0.00000 1.00000
vt 0.00000 1.00000
vt 1.00000 1.00000
vt 1.00000 0.00000
vt 0.00000 0.00000
vt 0.00000 0.00000
vt 1.00000 0.00000
vt 1.00000 1.00000
vt 0.00000 1.00000
vt 0.00000 1.00000
vt 1.00000 1.00000
vt 1.00000 0.00000
vt 0.00000 0.00000
vt 0.00000 0.00000
vt 1.00000 0.00000
vt 1.00000 1.00000
vt 0.00000 1.00000
vt 0.00000 1.00000
vt 1.00000 1.00000
vt 1.00000 0.00000
vt 0.00000 0.00000
vt 0.00000 0.00000
vt 1.00000 0.00000
vt 1.00000 1.00000
vt 0.00000 1.00000
vt 0.00000 1.00000
vt 1.00000 1.00000
vt 1.00000 0.00000
vt 0.00000 0.00000
vt 0.00000 0.00000
vt 1.00000 0.00000
vt 1.00000 1.00000
vt 0.00000 1.00000
vt 0.00000 1.00000
vt 1.00000 1.00000
vt 1.00000 0.00000
vt 0.00000 0.00000
vt 0.00000 0.00000
vt 1.00000 0.00000
vt 1.00000 1.00000
vt 0.00000 1.00000
vt 0.00000 1.00000
vt 1.00000 1.00000
vt 1.00000 0.00000
vt 0.00000 0.00000
vt 0.00000 0.00000
vt 1.00000 0.00000
vt 1.00000 1.00000
vt 0.00000 1.00000
vt 0.00000 1.00000
vt 1.00000 1.00000
vt 1.00000 0.00000
vt 0.00000 0.00000
vt 0.00000 0.00000
vt 1.00000 0.00000
vt 1.00000 1.00000
vt 0.00000 1.00000
vt 0.00000 1.00000
vt 1.00000 1.00000
vt 1.00000 0.00000
vt 0.00000 0.00000
vn -0.92381 -0.01232 -0.38265
vn -0.38265 -0.01232 -0.92381
vn 0.38265 -0.01232 -0.92381
vn 0.92381 -0.01232 -0.38265
vn 0.92381 -0.01232 0.38265
vn 0.38265 -0.01232 0.92381
vn -0.38265 -0.01232 0.92381
vn -0.92381 -0.01232 0.38265
vn 0.00000 1.00000 0.00000
vn 0.00000 -1.00000 0.00000
vn 0.00000 1.00000 0.00000
vn 0.00000 -1.00000 0.00000
vn 0.00000 1.00000 -0.00000
vn 0.00000 -1.00000 0.00000
vn 0.00000 1.00000 0.00000
vn 0.00000 -1.00000 0.00000
vn 0.00000 1.00000 0.00000
vn -0.00000 -1.00000 0.00000
vn 0.00000 1.00000 0.00000
vn 0.00000 -1.00000 0.00000
vn 0.00000 1.00000 0.00000
vn 0.00000 -1.00000 -0.00000
vn 0.00000 1.00000 0.00000
vn 0.00000 -1.00000 0.00000
vn -0.89928 0.43497 -0.04587
vn 0.89928 -0.43497 0.04587
vn -0.68294 0.43497 -0.58685
vn 0.68294 -0.43497 0.58685
vn -0.34262 0.43497 -0.83272
vn 0.34262 -0.43497 0.83272
vn 0.37843 0.43497 -0.81706
vn -0.37843 -0.43497 0.81706
vn 0.68769 0.43497 -0.58128
vn -0.68769 -0.43497 0.58128
vn 0.89969 0.43497 0.03692
vn -0.89969 -0.43497 -0.03692
vn 0.77675 0.43497 0.45548
vn -0.77675 -0.43497 -0.45548
vn 0.22478 0.43497 0.87194
vn -0.22478 -0.43497 -0.87194
vn -0.20569 0.43497 0.87664
vn 0.20569 -0.43497 -0.87664
vn -0.75381 0.43497 0.49252
vn 0.75381 -0.43497 -0.49252
usemtl old_bark
f 1/1/1 2/2/1 3/3/1 4/4/1
f 5/5/2 6/6/2 7/7/2 8/8/2
f 9/9/3 10/10/3 11/11/3 12/12/3
f 13/13/4 14/14/4 15/15/4 16/16/4
f 17/17/5 18/18/5 19/19/5 20/20/5
f 21/21/6 22/22/6 23/23/6 24/24/6
f 25/25/7 26/26/7 27/27/7 28/28/7
f 29/29/8 30/30/8 31/31/8 32/32/8
f 33/33/9 34/34/9 35/35/9
f 36/36/10 37/37/10 38/38/10
f 39/39/11 40/40/11 41/41/11
f 42/42/12 43/43/12 44/44/12
f 45/45/13 46/46/13 47/47/13
f 48/48/14 49/49/14 50/50/14
f 51/51/15 52/52/15 53/53/15
f 54/54/16 55/55/16 56/56/16
f 57/57/17 58/58/17 59/59/17
f 60/60/18 61/61/18 62/62/18
f 63/63/19 64/64/19 65/65/19
f 66/66/20 67/67/20 68/68/20
f 69/69/21 70/70/21 71/71/21
f 72/72/22 73/73/22 74/74/22
f 75/75/23 76/76/23 77/77/23
f 78/78/24 79/79/24 80/80/24
usemtl green_leaf
f 81/81/25 82/82/25 83/83/25 84/84/25
f 85/85/26 86/86/26 87/87/26 88/88/26
f 89/89/27 90/90/27 91/91/27 92/92/27
f 93/93/28 94/94/28 95/95/28 96/96/28
f 97/97/29 98/98/29 99/99/29 100/100/29
f 101/101/30 102/102/30 103/103/30 104/104/30
f 105/105/31 106/106/31 107/107/31 108/108/31
f 109/109/32 110/110/32 111/111/32 112/112/32
f 113/113/33 114/114/33 115/115/33 116/116/33
f 117/117/34 118/118/34 119/119/34 120/120/34
f 121/121/35 122/122/35 123/123/35 124/124/35
f 125/125/36 126/126/36 127/127/36 128/128/36
f 129/129/37 130/130/37 131/131/37 132/132/37
f 133/133/38 134/134/38 135/135/38 136/136/38
f 137/137/39 138/138/39 139/139/39 140/140/39
f 141/141/40 142/142/40 143/143/40 144/144/40
f 145/145/41 146/146/41 147/147/41 148/148/41
f 149/149/42 150/150/42 151/151/42 152/152/42
f 153/153/43 154/154/43 155/155/43 156/156/43
f 157/157/44 158/158/44 159/159/44 160/160/44