# GalakasMidCity_PIPECUT_Floor_PipeSleeveRound_01
mtllib GalakasMidCity_PIPECUT_Floor_PipeSleeveRound_01.mtl
v 0.00000 0.00000 -0.22000
v 0.00000 0.50000 -0.22000
v -0.08419 0.00000 -0.20325
v -0.08419 0.50000 -0.20325
v -0.15556 0.00000 -0.15556
v -0.15556 0.50000 -0.15556
v -0.20325 0.00000 -0.08419
v -0.20325 0.50000 -0.08419
v -0.22000 0.00000 -0.00000
v -0.22000 0.50000 -0.00000
v -0.20325 0.00000 0.08419
v -0.20325 0.50000 0.08419
v -0.15556 0.00000 0.15556
v -0.15556 0.50000 0.15556
v -0.08419 0.00000 0.20325
v -0.08419 0.50000 0.20325
v -0.00000 0.00000 0.22000
v -0.00000 0.50000 0.22000
v 0.08419 0.00000 0.20325
v 0.08419 0.50000 0.20325
v 0.15556 0.00000 0.15556
v 0.15556 0.50000 0.15556
v 0.20325 0.00000 0.08419
v 0.20325 0.50000 0.08419
v 0.22000 0.00000 0.00000
v 0.22000 0.50000 0.00000
v 0.20325 0.00000 -0.08419
v 0.20325 0.50000 -0.08419
v 0.15556 0.00000 -0.15556
v 0.15556 0.50000 -0.15556
v 0.08419 0.00000 -0.20325
v 0.08419 0.50000 -0.20325
g pipe_cutout_volume
usemtl Mat_CutoutGuide
f 1 3 4 2
f 3 5 6 4
f 5 7 8 6
f 7 9 10 8
f 9 11 12 10
f 11 13 14 12
f 13 15 16 14
f 15 17 18 16
f 17 19 20 18
f 19 21 22 20
f 21 23 24 22
f 23 25 26 24
f 25 27 28 26
f 27 29 30 28
f 29 31 32 30
f 31 1 2 32
g pipe_cutout_volume_capA
f 31 29 27 25 23 21 19 17 15 13 11 9 7 5 3 1
g pipe_cutout_volume_capB
f 2 4 6 8 10 12 14 16 18 20 22 24 26 28 30 32
