# GalakasMidCity_ROF_W06D06_TiledHipped_01
mtllib GalakasMidCity_ROF_W06D06_TiledHipped_01.mtl
v -6.45000 -0.07607 -6.42523
v 6.45000 -0.07607 -6.42523
v 6.45000 0.07607 -6.47477
v -6.45000 0.07607 -6.47477
v -6.45000 2.02393 0.02477
v 6.45000 2.02393 0.02477
v 6.45000 2.17607 -0.02477
v -6.45000 2.17607 -0.02477
v -6.45000 0.07607 6.47477
v 6.45000 0.07607 6.47477
v 6.45000 -0.07607 6.42523
v -6.45000 -0.07607 6.42523
v -6.45000 2.17607 0.02477
v 6.45000 2.17607 0.02477
v 6.45000 2.02393 -0.02477
v -6.45000 2.02393 -0.02477
v -6.47500 -0.01268 -6.35974
v 6.47500 -0.01268 -6.35974
v 6.47500 0.06339 -6.38451
v -6.47500 0.06339 -6.38451
v -6.47500 0.01828 -6.26466
v 6.47500 0.01828 -6.26466
v 6.47500 0.09435 -6.28942
v -6.47500 0.09435 -6.28942
v -6.47500 0.06339 6.38451
v 6.47500 0.06339 6.38451
v 6.47500 -0.01268 6.35974
v -6.47500 -0.01268 6.35974
v -6.47500 0.09435 6.28942
v 6.47500 0.09435 6.28942
v 6.47500 0.01828 6.26466
v -6.47500 0.01828 6.26466
v -6.47500 0.10399 -6.00141
v 6.47500 0.10399 -6.00141
v 6.47500 0.18006 -6.02618
v -6.47500 0.18006 -6.02618
v -6.47500 0.13494 -5.90632
v 6.47500 0.13494 -5.90632
v 6.47500 0.21101 -5.93109
v -6.47500 0.21101 -5.93109
v -6.47500 0.18006 6.02618
v 6.47500 0.18006 6.02618
v 6.47500 0.10399 6.00141
v -6.47500 0.10399 6.00141
v -6.47500 0.21101 5.93109
v 6.47500 0.21101 5.93109
v 6.47500 0.13494 5.90632
v -6.47500 0.13494 5.90632
v -6.47500 0.22065 -5.64308
v 6.47500 0.22065 -5.64308
v 6.47500 0.29672 -5.66784
v -6.47500 0.29672 -5.66784
v -6.47500 0.25161 -5.54799
v 6.47500 0.25161 -5.54799
v 6.47500 0.32768 -5.57276
v -6.47500 0.32768 -5.57276
v -6.47500 0.29672 5.66784
v 6.47500 0.29672 5.66784
v 6.47500 0.22065 5.64308
v -6.47500 0.22065 5.64308
v -6.47500 0.32768 5.57276
v 6.47500 0.32768 5.57276
v 6.47500 0.25161 5.54799
v -6.47500 0.25161 5.54799
v -6.47500 0.33732 -5.28474
v 6.47500 0.33732 -5.28474
v 6.47500 0.41339 -5.30951
v -6.47500 0.41339 -5.30951
v -6.47500 0.36828 -5.18966
v 6.47500 0.36828 -5.18966
v 6.47500 0.44435 -5.21442
v -6.47500 0.44435 -5.21442
v -6.47500 0.41339 5.30951
v 6.47500 0.41339 5.30951
v 6.47500 0.33732 5.28474
v -6.47500 0.33732 5.28474
v -6.47500 0.44435 5.21442
v 6.47500 0.44435 5.21442
v 6.47500 0.36828 5.18966
v -6.47500 0.36828 5.18966
v -6.47500 0.45399 -4.92641
v 6.47500 0.45399 -4.92641
v 6.47500 0.53006 -4.95118
v -6.47500 0.53006 -4.95118
v -6.47500 0.48494 -4.83132
v 6.47500 0.48494 -4.83132
v 6.47500 0.56101 -4.85609
v -6.47500 0.56101 -4.85609
v -6.47500 0.53006 4.95118
v 6.47500 0.53006 4.95118
v 6.47500 0.45399 4.92641
v -6.47500 0.45399 4.92641
v -6.47500 0.56101 4.85609
v 6.47500 0.56101 4.85609
v 6.47500 0.48494 4.83132
v -6.47500 0.48494 4.83132
v -6.47500 0.57065 -4.56808
v 6.47500 0.57065 -4.56808
v 6.47500 0.64672 -4.59284
v -6.47500 0.64672 -4.59284
v -6.47500 0.60161 -4.47299
v 6.47500 0.60161 -4.47299
v 6.47500 0.67768 -4.49776
v -6.47500 0.67768 -4.49776
v -6.47500 0.64672 4.59284
v 6.47500 0.64672 4.59284
v 6.47500 0.57065 4.56808
v -6.47500 0.57065 4.56808
v -6.47500 0.67768 4.49776
v 6.47500 0.67768 4.49776
v 6.47500 0.60161 4.47299
v -6.47500 0.60161 4.47299
v -6.47500 0.68732 -4.20974
v 6.47500 0.68732 -4.20974
v 6.47500 0.76339 -4.23451
v -6.47500 0.76339 -4.23451
v -6.47500 0.71828 -4.11466
v 6.47500 0.71828 -4.11466
v 6.47500 0.79435 -4.13942
v -6.47500 0.79435 -4.13942
v -6.47500 0.76339 4.23451
v 6.47500 0.76339 4.23451
v 6.47500 0.68732 4.20974
v -6.47500 0.68732 4.20974
v -6.47500 0.79435 4.13942
v 6.47500 0.79435 4.13942
v 6.47500 0.71828 4.11466
v -6.47500 0.71828 4.11466
v -6.47500 0.80399 -3.85141
v 6.47500 0.80399 -3.85141
v 6.47500 0.88006 -3.87618
v -6.47500 0.88006 -3.87618
v -6.47500 0.83494 -3.75632
v 6.47500 0.83494 -3.75632
v 6.47500 0.91101 -3.78109
v -6.47500 0.91101 -3.78109
v -6.47500 0.88006 3.87618
v 6.47500 0.88006 3.87618
v 6.47500 0.80399 3.85141
v -6.47500 0.80399 3.85141
v -6.47500 0.91101 3.78109
v 6.47500 0.91101 3.78109
v 6.47500 0.83494 3.75632
v -6.47500 0.83494 3.75632
v -6.47500 0.92065 -3.49308
v 6.47500 0.92065 -3.49308
v 6.47500 0.99672 -3.51784
v -6.47500 0.99672 -3.51784
v -6.47500 0.95161 -3.39799
v 6.47500 0.95161 -3.39799
v 6.47500 1.02768 -3.42276
v -6.47500 1.02768 -3.42276
v -6.47500 0.99672 3.51784
v 6.47500 0.99672 3.51784
v 6.47500 0.92065 3.49308
v -6.47500 0.92065 3.49308
v -6.47500 1.02768 3.42276
v 6.47500 1.02768 3.42276
v 6.47500 0.95161 3.39799
v -6.47500 0.95161 3.39799
v -6.47500 1.03732 -3.13474
v 6.47500 1.03732 -3.13474
v 6.47500 1.11339 -3.15951
v -6.47500 1.11339 -3.15951
v -6.47500 1.06828 -3.03966
v 6.47500 1.06828 -3.03966
v 6.47500 1.14435 -3.06442
v -6.47500 1.14435 -3.06442
v -6.47500 1.11339 3.15951
v 6.47500 1.11339 3.15951
v 6.47500 1.03732 3.13474
v -6.47500 1.03732 3.13474
v -6.47500 1.14435 3.06442
v 6.47500 1.14435 3.06442
v 6.47500 1.06828 3.03966
v -6.47500 1.06828 3.03966
v -6.47500 1.15399 -2.77641
v 6.47500 1.15399 -2.77641
v 6.47500 1.23006 -2.80118
v -6.47500 1.23006 -2.80118
v -6.47500 1.18494 -2.68132
v 6.47500 1.18494 -2.68132
v 6.47500 1.26101 -2.70609
v -6.47500 1.26101 -2.70609
v -6.47500 1.23006 2.80118
v 6.47500 1.23006 2.80118
v 6.47500 1.15399 2.77641
v -6.47500 1.15399 2.77641
v -6.47500 1.26101 2.70609
v 6.47500 1.26101 2.70609
v 6.47500 1.18494 2.68132
v -6.47500 1.18494 2.68132
v -6.47500 1.27065 -2.41808
v 6.47500 1.27065 -2.41808
v 6.47500 1.34672 -2.44284
v -6.47500 1.34672 -2.44284
v -6.47500 1.30161 -2.32299
v 6.47500 1.30161 -2.32299
v 6.47500 1.37768 -2.34776
v -6.47500 1.37768 -2.34776
v -6.47500 1.34672 2.44284
v 6.47500 1.34672 2.44284
v 6.47500 1.27065 2.41808
v -6.47500 1.27065 2.41808
v -6.47500 1.37768 2.34776
v 6.47500 1.37768 2.34776
v 6.47500 1.30161 2.32299
v -6.47500 1.30161 2.32299
v -6.47500 1.38732 -2.05974
v 6.47500 1.38732 -2.05974
v 6.47500 1.46339 -2.08451
v -6.47500 1.46339 -2.08451
v -6.47500 1.41828 -1.96466
v 6.47500 1.41828 -1.96466
v 6.47500 1.49435 -1.98942
v -6.47500 1.49435 -1.98942
v -6.47500 1.46339 2.08451
v 6.47500 1.46339 2.08451
v 6.47500 1.38732 2.05974
v -6.47500 1.38732 2.05974
v -6.47500 1.49435 1.98942
v 6.47500 1.49435 1.98942
v 6.47500 1.41828 1.96466
v -6.47500 1.41828 1.96466
v -6.47500 1.50399 -1.70141
v 6.47500 1.50399 -1.70141
v 6.47500 1.58006 -1.72618
v -6.47500 1.58006 -1.72618
v -6.47500 1.53494 -1.60632
v 6.47500 1.53494 -1.60632
v 6.47500 1.61101 -1.63109
v -6.47500 1.61101 -1.63109
v -6.47500 1.58006 1.72618
v 6.47500 1.58006 1.72618
v 6.47500 1.50399 1.70141
v -6.47500 1.50399 1.70141
v -6.47500 1.61101 1.63109
v 6.47500 1.61101 1.63109
v 6.47500 1.53494 1.60632
v -6.47500 1.53494 1.60632
v -6.47500 1.62065 -1.34308
v 6.47500 1.62065 -1.34308
v 6.47500 1.69672 -1.36784
v -6.47500 1.69672 -1.36784
v -6.47500 1.65161 -1.24799
v 6.47500 1.65161 -1.24799
v 6.47500 1.72768 -1.27276
v -6.47500 1.72768 -1.27276
v -6.47500 1.69672 1.36784
v 6.47500 1.69672 1.36784
v 6.47500 1.62065 1.34308
v -6.47500 1.62065 1.34308
v -6.47500 1.72768 1.27276
v 6.47500 1.72768 1.27276
v 6.47500 1.65161 1.24799
v -6.47500 1.65161 1.24799
v -6.47500 1.73732 -0.98474
v 6.47500 1.73732 -0.98474
v 6.47500 1.81339 -1.00951
v -6.47500 1.81339 -1.00951
v -6.47500 1.76828 -0.88966
v 6.47500 1.76828 -0.88966
v 6.47500 1.84435 -0.91442
v -6.47500 1.84435 -0.91442
v -6.47500 1.81339 1.00951
v 6.47500 1.81339 1.00951
v 6.47500 1.73732 0.98474
v -6.47500 1.73732 0.98474
v -6.47500 1.84435 0.91442
v 6.47500 1.84435 0.91442
v 6.47500 1.76828 0.88966
v -6.47500 1.76828 0.88966
v -6.47500 1.85399 -0.62641
v 6.47500 1.85399 -0.62641
v 6.47500 1.93006 -0.65118
v -6.47500 1.93006 -0.65118
v -6.47500 1.88494 -0.53132
v 6.47500 1.88494 -0.53132
v 6.47500 1.96101 -0.55609
v -6.47500 1.96101 -0.55609
v -6.47500 1.93006 0.65118
v 6.47500 1.93006 0.65118
v 6.47500 1.85399 0.62641
v -6.47500 1.85399 0.62641
v -6.47500 1.96101 0.55609
v 6.47500 1.96101 0.55609
v 6.47500 1.88494 0.53132
v -6.47500 1.88494 0.53132
v -6.47500 1.97065 -0.26808
v 6.47500 1.97065 -0.26808
v 6.47500 2.04672 -0.29284
v -6.47500 2.04672 -0.29284
v -6.47500 2.00161 -0.17299
v 6.47500 2.00161 -0.17299
v 6.47500 2.07768 -0.19776
v -6.47500 2.07768 -0.19776
v -6.47500 2.04672 0.29284
v 6.47500 2.04672 0.29284
v 6.47500 1.97065 0.26808
v -6.47500 1.97065 0.26808
v -6.47500 2.07768 0.19776
v 6.47500 2.07768 0.19776
v 6.47500 2.00161 0.17299
v -6.47500 2.00161 0.17299
v -6.22500 2.10000 0.12000
v 6.22500 2.10000 0.12000
v -6.22500 2.05408 0.11087
v 6.22500 2.05408 0.11087
v -6.22500 2.01515 0.08485
v 6.22500 2.01515 0.08485
v -6.22500 1.98913 0.04592
v 6.22500 1.98913 0.04592
v -6.22500 1.98000 0.00000
v 6.22500 1.98000 0.00000
v -6.22500 1.98913 -0.04592
v 6.22500 1.98913 -0.04592
v -6.22500 2.01515 -0.08485
v 6.22500 2.01515 -0.08485
v -6.22500 2.05408 -0.11087
v 6.22500 2.05408 -0.11087
v -6.22500 2.10000 -0.12000
v 6.22500 2.10000 -0.12000
v -6.22500 2.14592 -0.11087
v 6.22500 2.14592 -0.11087
v -6.22500 2.18485 -0.08485
v 6.22500 2.18485 -0.08485
v -6.22500 2.21087 -0.04592
v 6.22500 2.21087 -0.04592
v -6.22500 2.22000 -0.00000
v 6.22500 2.22000 -0.00000
v -6.22500 2.21087 0.04592
v 6.22500 2.21087 0.04592
v -6.22500 2.18485 0.08485
v 6.22500 2.18485 0.08485
v -6.22500 2.14592 0.11087
v 6.22500 2.14592 0.11087
v -6.45000 -0.13000 -6.53000
v 6.45000 -0.13000 -6.53000
v 6.45000 0.03000 -6.53000
v -6.45000 0.03000 -6.53000
v -6.45000 -0.13000 -6.37000
v 6.45000 -0.13000 -6.37000
v 6.45000 0.03000 -6.37000
v -6.45000 0.03000 -6.37000
v -6.45000 -0.13000 6.37000
v 6.45000 -0.13000 6.37000
v 6.45000 0.03000 6.37000
v -6.45000 0.03000 6.37000
v -6.45000 -0.13000 6.53000
v 6.45000 -0.13000 6.53000
v 6.45000 0.03000 6.53000
v -6.45000 0.03000 6.53000
g roof_front_slope
usemtl Mat_RoofTileDirty
f 1 2 3 4
f 5 8 7 6
f 1 5 6 2
f 2 6 7 3
f 3 7 8 4
f 4 8 5 1
g roof_back_slope
f 9 10 11 12
f 13 16 15 14
f 9 13 14 10
f 10 14 15 11
f 11 15 16 12
f 12 16 13 9
g roof_front_tile_row_0
f 17 18 19 20
f 21 24 23 22
f 17 21 22 18
f 18 22 23 19
f 19 23 24 20
f 20 24 21 17
g roof_back_tile_row_0
f 25 26 27 28
f 29 32 31 30
f 25 29 30 26
f 26 30 31 27
f 27 31 32 28
f 28 32 29 25
g roof_front_tile_row_1
f 33 34 35 36
f 37 40 39 38
f 33 37 38 34
f 34 38 39 35
f 35 39 40 36
f 36 40 37 33
g roof_back_tile_row_1
f 41 42 43 44
f 45 48 47 46
f 41 45 46 42
f 42 46 47 43
f 43 47 48 44
f 44 48 45 41
g roof_front_tile_row_2
f 49 50 51 52
f 53 56 55 54
f 49 53 54 50
f 50 54 55 51
f 51 55 56 52
f 52 56 53 49
g roof_back_tile_row_2
f 57 58 59 60
f 61 64 63 62
f 57 61 62 58
f 58 62 63 59
f 59 63 64 60
f 60 64 61 57
g roof_front_tile_row_3
f 65 66 67 68
f 69 72 71 70
f 65 69 70 66
f 66 70 71 67
f 67 71 72 68
f 68 72 69 65
g roof_back_tile_row_3
f 73 74 75 76
f 77 80 79 78
f 73 77 78 74
f 74 78 79 75
f 75 79 80 76
f 76 80 77 73
g roof_front_tile_row_4
f 81 82 83 84
f 85 88 87 86
f 81 85 86 82
f 82 86 87 83
f 83 87 88 84
f 84 88 85 81
g roof_back_tile_row_4
f 89 90 91 92
f 93 96 95 94
f 89 93 94 90
f 90 94 95 91
f 91 95 96 92
f 92 96 93 89
g roof_front_tile_row_5
f 97 98 99 100
f 101 104 103 102
f 97 101 102 98
f 98 102 103 99
f 99 103 104 100
f 100 104 101 97
g roof_back_tile_row_5
f 105 106 107 108
f 109 112 111 110
f 105 109 110 106
f 106 110 111 107
f 107 111 112 108
f 108 112 109 105
g roof_front_tile_row_6
f 113 114 115 116
f 117 120 119 118
f 113 117 118 114
f 114 118 119 115
f 115 119 120 116
f 116 120 117 113
g roof_back_tile_row_6
f 121 122 123 124
f 125 128 127 126
f 121 125 126 122
f 122 126 127 123
f 123 127 128 124
f 124 128 125 121
g roof_front_tile_row_7
f 129 130 131 132
f 133 136 135 134
f 129 133 134 130
f 130 134 135 131
f 131 135 136 132
f 132 136 133 129
g roof_back_tile_row_7
f 137 138 139 140
f 141 144 143 142
f 137 141 142 138
f 138 142 143 139
f 139 143 144 140
f 140 144 141 137
g roof_front_tile_row_8
f 145 146 147 148
f 149 152 151 150
f 145 149 150 146
f 146 150 151 147
f 147 151 152 148
f 148 152 149 145
g roof_back_tile_row_8
f 153 154 155 156
f 157 160 159 158
f 153 157 158 154
f 154 158 159 155
f 155 159 160 156
f 156 160 157 153
g roof_front_tile_row_9
f 161 162 163 164
f 165 168 167 166
f 161 165 166 162
f 162 166 167 163
f 163 167 168 164
f 164 168 165 161
g roof_back_tile_row_9
f 169 170 171 172
f 173 176 175 174
f 169 173 174 170
f 170 174 175 171
f 171 175 176 172
f 172 176 173 169
g roof_front_tile_row_10
f 177 178 179 180
f 181 184 183 182
f 177 181 182 178
f 178 182 183 179
f 179 183 184 180
f 180 184 181 177
g roof_back_tile_row_10
f 185 186 187 188
f 189 192 191 190
f 185 189 190 186
f 186 190 191 187
f 187 191 192 188
f 188 192 189 185
g roof_front_tile_row_11
f 193 194 195 196
f 197 200 199 198
f 193 197 198 194
f 194 198 199 195
f 195 199 200 196
f 196 200 197 193
g roof_back_tile_row_11
f 201 202 203 204
f 205 208 207 206
f 201 205 206 202
f 202 206 207 203
f 203 207 208 204
f 204 208 205 201
g roof_front_tile_row_12
f 209 210 211 212
f 213 216 215 214
f 209 213 214 210
f 210 214 215 211
f 211 215 216 212
f 212 216 213 209
g roof_back_tile_row_12
f 217 218 219 220
f 221 224 223 222
f 217 221 222 218
f 218 222 223 219
f 219 223 224 220
f 220 224 221 217
g roof_front_tile_row_13
f 225 226 227 228
f 229 232 231 230
f 225 229 230 226
f 226 230 231 227
f 227 231 232 228
f 228 232 229 225
g roof_back_tile_row_13
f 233 234 235 236
f 237 240 239 238
f 233 237 238 234
f 234 238 239 235
f 235 239 240 236
f 236 240 237 233
g roof_front_tile_row_14
f 241 242 243 244
f 245 248 247 246
f 241 245 246 242
f 242 246 247 243
f 243 247 248 244
f 244 248 245 241
g roof_back_tile_row_14
f 249 250 251 252
f 253 256 255 254
f 249 253 254 250
f 250 254 255 251
f 251 255 256 252
f 252 256 253 249
g roof_front_tile_row_15
f 257 258 259 260
f 261 264 263 262
f 257 261 262 258
f 258 262 263 259
f 259 263 264 260
f 260 264 261 257
g roof_back_tile_row_15
f 265 266 267 268
f 269 272 271 270
f 265 269 270 266
f 266 270 271 267
f 267 271 272 268
f 268 272 269 265
g roof_front_tile_row_16
f 273 274 275 276
f 277 280 279 278
f 273 277 278 274
f 274 278 279 275
f 275 279 280 276
f 276 280 277 273
g roof_back_tile_row_16
f 281 282 283 284
f 285 288 287 286
f 281 285 286 282
f 282 286 287 283
f 283 287 288 284
f 284 288 285 281
g roof_front_tile_row_17
f 289 290 291 292
f 293 296 295 294
f 289 293 294 290
f 290 294 295 291
f 291 295 296 292
f 292 296 293 289
g roof_back_tile_row_17
f 297 298 299 300
f 301 304 303 302
f 297 301 302 298
f 298 302 303 299
f 299 303 304 300
f 300 304 301 297
g roof_ridge_cap
f 305 307 308 306
f 307 309 310 308
f 309 311 312 310
f 311 313 314 312
f 313 315 316 314
f 315 317 318 316
f 317 319 320 318
f 319 321 322 320
f 321 323 324 322
f 323 325 326 324
f 325 327 328 326
f 327 329 330 328
f 329 331 332 330
f 331 333 334 332
f 333 335 336 334
f 335 305 306 336
g roof_ridge_cap_capA
f 335 333 331 329 327 325 323 321 319 317 315 313 311 309 307 305
g roof_ridge_cap_capB
f 306 308 310 312 314 316 318 320 322 324 326 328 330 332 334 336
g roof_front_eave
usemtl Mat_WoodDark
f 337 338 339 340
f 341 344 343 342
f 337 341 342 338
f 338 342 343 339
f 339 343 344 340
f 340 344 341 337
g roof_back_eave
f 345 346 347 348
f 349 352 351 350
f 345 349 350 346
f 346 350 351 347
f 347 351 352 348
f 348 352 349 345
