# GalakasMidCity_ROF_W05D05_TiledHipped_01
mtllib GalakasMidCity_ROF_W05D05_TiledHipped_01.mtl
v -5.45000 -0.07465 -5.42124
v 5.45000 -0.07465 -5.42124
v 5.45000 0.07465 -5.47876
v -5.45000 0.07465 -5.47876
v -5.45000 2.02535 0.02876
v 5.45000 2.02535 0.02876
v 5.45000 2.17465 -0.02876
v -5.45000 2.17465 -0.02876
v -5.45000 0.07465 5.47876
v 5.45000 0.07465 5.47876
v 5.45000 -0.07465 5.42124
v -5.45000 -0.07465 5.42124
v -5.45000 2.17465 0.02876
v 5.45000 2.17465 0.02876
v 5.45000 2.02535 -0.02876
v -5.45000 2.02535 -0.02876
v -5.47500 -0.00630 -5.35511
v 5.47500 -0.00630 -5.35511
v 5.47500 0.06835 -5.38387
v -5.47500 0.06835 -5.38387
v -5.47500 0.02965 -5.26179
v 5.47500 0.02965 -5.26179
v 5.47500 0.10430 -5.29056
v -5.47500 0.10430 -5.29056
v -5.47500 0.06835 5.38387
v 5.47500 0.06835 5.38387
v 5.47500 -0.00630 5.35511
v -5.47500 -0.00630 5.35511
v -5.47500 0.10430 5.29056
v 5.47500 0.10430 5.29056
v 5.47500 0.02965 5.26179
v -5.47500 0.02965 5.26179
v -5.47500 0.13370 -4.99177
v 5.47500 0.13370 -4.99177
v 5.47500 0.20835 -5.02054
v -5.47500 0.20835 -5.02054
v -5.47500 0.16965 -4.89846
v 5.47500 0.16965 -4.89846
v 5.47500 0.24430 -4.92723
v -5.47500 0.24430 -4.92723
v -5.47500 0.20835 5.02054
v 5.47500 0.20835 5.02054
v 5.47500 0.13370 4.99177
v -5.47500 0.13370 4.99177
v -5.47500 0.24430 4.92723
v 5.47500 0.24430 4.92723
v 5.47500 0.16965 4.89846
v -5.47500 0.16965 4.89846
v -5.47500 0.27370 -4.62844
v 5.47500 0.27370 -4.62844
v 5.47500 0.34835 -4.65721
v -5.47500 0.34835 -4.65721
v -5.47500 0.30965 -4.53513
v 5.47500 0.30965 -4.53513
v 5.47500 0.38430 -4.56389
v -5.47500 0.38430 -4.56389
v -5.47500 0.34835 4.65721
v 5.47500 0.34835 4.65721
v 5.47500 0.27370 4.62844
v -5.47500 0.27370 4.62844
v -5.47500 0.38430 4.56389
v 5.47500 0.38430 4.56389
v 5.47500 0.30965 4.53513
v -5.47500 0.30965 4.53513
v -5.47500 0.41370 -4.26511
v 5.47500 0.41370 -4.26511
v 5.47500 0.48835 -4.29387
v -5.47500 0.48835 -4.29387
v -5.47500 0.44965 -4.17179
v 5.47500 0.44965 -4.17179
v 5.47500 0.52430 -4.20056
v -5.47500 0.52430 -4.20056
v -5.47500 0.48835 4.29387
v 5.47500 0.48835 4.29387
v 5.47500 0.41370 4.26511
v -5.47500 0.41370 4.26511
v -5.47500 0.52430 4.20056
v 5.47500 0.52430 4.20056
v 5.47500 0.44965 4.17179
v -5.47500 0.44965 4.17179
v -5.47500 0.55370 -3.90177
v 5.47500 0.55370 -3.90177
v 5.47500 0.62835 -3.93054
v -5.47500 0.62835 -3.93054
v -5.47500 0.58965 -3.80846
v 5.47500 0.58965 -3.80846
v 5.47500 0.66430 -3.83723
v -5.47500 0.66430 -3.83723
v -5.47500 0.62835 3.93054
v 5.47500 0.62835 3.93054
v 5.47500 0.55370 3.90177
v -5.47500 0.55370 3.90177
v -5.47500 0.66430 3.83723
v 5.47500 0.66430 3.83723
v 5.47500 0.58965 3.80846
v -5.47500 0.58965 3.80846
v -5.47500 0.69370 -3.53844
v 5.47500 0.69370 -3.53844
v 5.47500 0.76835 -3.56721
v -5.47500 0.76835 -3.56721
v -5.47500 0.72965 -3.44513
v 5.47500 0.72965 -3.44513
v 5.47500 0.80430 -3.47389
v -5.47500 0.80430 -3.47389
v -5.47500 0.76835 3.56721
v 5.47500 0.76835 3.56721
v 5.47500 0.69370 3.53844
v -5.47500 0.69370 3.53844
v -5.47500 0.80430 3.47389
v 5.47500 0.80430 3.47389
v 5.47500 0.72965 3.44513
v -5.47500 0.72965 3.44513
v -5.47500 0.83370 -3.17511
v 5.47500 0.83370 -3.17511
v 5.47500 0.90835 -3.20387
v -5.47500 0.90835 -3.20387
v -5.47500 0.86965 -3.08179
v 5.47500 0.86965 -3.08179
v 5.47500 0.94430 -3.11056
v -5.47500 0.94430 -3.11056
v -5.47500 0.90835 3.20387
v 5.47500 0.90835 3.20387
v 5.47500 0.83370 3.17511
v -5.47500 0.83370 3.17511
v -5.47500 0.94430 3.11056
v 5.47500 0.94430 3.11056
v 5.47500 0.86965 3.08179
v -5.47500 0.86965 3.08179
v -5.47500 0.97370 -2.81177
v 5.47500 0.97370 -2.81177
v 5.47500 1.04835 -2.84054
v -5.47500 1.04835 -2.84054
v -5.47500 1.00965 -2.71846
v 5.47500 1.00965 -2.71846
v 5.47500 1.08430 -2.74723
v -5.47500 1.08430 -2.74723
v -5.47500 1.04835 2.84054
v 5.47500 1.04835 2.84054
v 5.47500 0.97370 2.81177
v -5.47500 0.97370 2.81177
v -5.47500 1.08430 2.74723
v 5.47500 1.08430 2.74723
v 5.47500 1.00965 2.71846
v -5.47500 1.00965 2.71846
v -5.47500 1.11370 -2.44844
v 5.47500 1.11370 -2.44844
v 5.47500 1.18835 -2.47721
v -5.47500 1.18835 -2.47721
v -5.47500 1.14965 -2.35513
v 5.47500 1.14965 -2.35513
v 5.47500 1.22430 -2.38389
v -5.47500 1.22430 -2.38389
v -5.47500 1.18835 2.47721
v 5.47500 1.18835 2.47721
v 5.47500 1.11370 2.44844
v -5.47500 1.11370 2.44844
v -5.47500 1.22430 2.38389
v 5.47500 1.22430 2.38389
v 5.47500 1.14965 2.35513
v -5.47500 1.14965 2.35513
v -5.47500 1.25370 -2.08511
v 5.47500 1.25370 -2.08511
v 5.47500 1.32835 -2.11387
v -5.47500 1.32835 -2.11387
v -5.47500 1.28965 -1.99179
v 5.47500 1.28965 -1.99179
v 5.47500 1.36430 -2.02056
v -5.47500 1.36430 -2.02056
v -5.47500 1.32835 2.11387
v 5.47500 1.32835 2.11387
v 5.47500 1.25370 2.08511
v -5.47500 1.25370 2.08511
v -5.47500 1.36430 2.02056
v 5.47500 1.36430 2.02056
v 5.47500 1.28965 1.99179
v -5.47500 1.28965 1.99179
v -5.47500 1.39370 -1.72177
v 5.47500 1.39370 -1.72177
v 5.47500 1.46835 -1.75054
v -5.47500 1.46835 -1.75054
v -5.47500 1.42965 -1.62846
v 5.47500 1.42965 -1.62846
v 5.47500 1.50430 -1.65723
v -5.47500 1.50430 -1.65723
v -5.47500 1.46835 1.75054
v 5.47500 1.46835 1.75054
v 5.47500 1.39370 1.72177
v -5.47500 1.39370 1.72177
v -5.47500 1.50430 1.65723
v 5.47500 1.50430 1.65723
v 5.47500 1.42965 1.62846
v -5.47500 1.42965 1.62846
v -5.47500 1.53370 -1.35844
v 5.47500 1.53370 -1.35844
v 5.47500 1.60835 -1.38721
v -5.47500 1.60835 -1.38721
v -5.47500 1.56965 -1.26513
v 5.47500 1.56965 -1.26513
v 5.47500 1.64430 -1.29389
v -5.47500 1.64430 -1.29389
v -5.47500 1.60835 1.38721
v 5.47500 1.60835 1.38721
v 5.47500 1.53370 1.35844
v -5.47500 1.53370 1.35844
v -5.47500 1.64430 1.29389
v 5.47500 1.64430 1.29389
v 5.47500 1.56965 1.26513
v -5.47500 1.56965 1.26513
v -5.47500 1.67370 -0.99511
v 5.47500 1.67370 -0.99511
v 5.47500 1.74835 -1.02387
v -5.47500 1.74835 -1.02387
v -5.47500 1.70965 -0.90179
v 5.47500 1.70965 -0.90179
v 5.47500 1.78430 -0.93056
v -5.47500 1.78430 -0.93056
v -5.47500 1.74835 1.02387
v 5.47500 1.74835 1.02387
v 5.47500 1.67370 0.99511
v -5.47500 1.67370 0.99511
v -5.47500 1.78430 0.93056
v 5.47500 1.78430 0.93056
v 5.47500 1.70965 0.90179
v -5.47500 1.70965 0.90179
v -5.47500 1.81370 -0.63177
v 5.47500 1.81370 -0.63177
v 5.47500 1.88835 -0.66054
v -5.47500 1.88835 -0.66054
v -5.47500 1.84965 -0.53846
v 5.47500 1.84965 -0.53846
v 5.47500 1.92430 -0.56723
v -5.47500 1.92430 -0.56723
v -5.47500 1.88835 0.66054
v 5.47500 1.88835 0.66054
v 5.47500 1.81370 0.63177
v -5.47500 1.81370 0.63177
v -5.47500 1.92430 0.56723
v 5.47500 1.92430 0.56723
v 5.47500 1.84965 0.53846
v -5.47500 1.84965 0.53846
v -5.47500 1.95370 -0.26844
v 5.47500 1.95370 -0.26844
v 5.47500 2.02835 -0.29721
v -5.47500 2.02835 -0.29721
v -5.47500 1.98965 -0.17513
v 5.47500 1.98965 -0.17513
v 5.47500 2.06430 -0.20389
v -5.47500 2.06430 -0.20389
v -5.47500 2.02835 0.29721
v 5.47500 2.02835 0.29721
v 5.47500 1.95370 0.26844
v -5.47500 1.95370 0.26844
v -5.47500 2.06430 0.20389
v 5.47500 2.06430 0.20389
v 5.47500 1.98965 0.17513
v -5.47500 1.98965 0.17513
v -5.22500 2.10000 0.12000
v 5.22500 2.10000 0.12000
v -5.22500 2.05408 0.11087
v 5.22500 2.05408 0.11087
v -5.22500 2.01515 0.08485
v 5.22500 2.01515 0.08485
v -5.22500 1.98913 0.04592
v 5.22500 1.98913 0.04592
v -5.22500 1.98000 0.00000
v 5.22500 1.98000 0.00000
v -5.22500 1.98913 -0.04592
v 5.22500 1.98913 -0.04592
v -5.22500 2.01515 -0.08485
v 5.22500 2.01515 -0.08485
v -5.22500 2.05408 -0.11087
v 5.22500 2.05408 -0.11087
v -5.22500 2.10000 -0.12000
v 5.22500 2.10000 -0.12000
v -5.22500 2.14592 -0.11087
v 5.22500 2.14592 -0.11087
v -5.22500 2.18485 -0.08485
v 5.22500 2.18485 -0.08485
v -5.22500 2.21087 -0.04592
v 5.22500 2.21087 -0.04592
v -5.22500 2.22000 -0.00000
v 5.22500 2.22000 -0.00000
v -5.22500 2.21087 0.04592
v 5.22500 2.21087 0.04592
v -5.22500 2.18485 0.08485
v 5.22500 2.18485 0.08485
v -5.22500 2.14592 0.11087
v 5.22500 2.14592 0.11087
v -5.45000 -0.13000 -5.53000
v 5.45000 -0.13000 -5.53000
v 5.45000 0.03000 -5.53000
v -5.45000 0.03000 -5.53000
v -5.45000 -0.13000 -5.37000
v 5.45000 -0.13000 -5.37000
v 5.45000 0.03000 -5.37000
v -5.45000 0.03000 -5.37000
v -5.45000 -0.13000 5.37000
v 5.45000 -0.13000 5.37000
v 5.45000 0.03000 5.37000
v -5.45000 0.03000 5.37000
v -5.45000 -0.13000 5.53000
v 5.45000 -0.13000 5.53000
v 5.45000 0.03000 5.53000
v -5.45000 0.03000 5.53000
g roof_front_slope
usemtl Mat_RoofTileDirty
f 1 2 3 4
f 5 8 7 6
f 1 5 6 2
f 2 6 7 3
f 3 7 8 4
f 4 8 5 1
g roof_back_slope
f 9 10 11 12
f 13 16 15 14
f 9 13 14 10
f 10 14 15 11
f 11 15 16 12
f 12 16 13 9
g roof_front_tile_row_0
f 17 18 19 20
f 21 24 23 22
f 17 21 22 18
f 18 22 23 19
f 19 23 24 20
f 20 24 21 17
g roof_back_tile_row_0
f 25 26 27 28
f 29 32 31 30
f 25 29 30 26
f 26 30 31 27
f 27 31 32 28
f 28 32 29 25
g roof_front_tile_row_1
f 33 34 35 36
f 37 40 39 38
f 33 37 38 34
f 34 38 39 35
f 35 39 40 36
f 36 40 37 33
g roof_back_tile_row_1
f 41 42 43 44
f 45 48 47 46
f 41 45 46 42
f 42 46 47 43
f 43 47 48 44
f 44 48 45 41
g roof_front_tile_row_2
f 49 50 51 52
f 53 56 55 54
f 49 53 54 50
f 50 54 55 51
f 51 55 56 52
f 52 56 53 49
g roof_back_tile_row_2
f 57 58 59 60
f 61 64 63 62
f 57 61 62 58
f 58 62 63 59
f 59 63 64 60
f 60 64 61 57
g roof_front_tile_row_3
f 65 66 67 68
f 69 72 71 70
f 65 69 70 66
f 66 70 71 67
f 67 71 72 68
f 68 72 69 65
g roof_back_tile_row_3
f 73 74 75 76
f 77 80 79 78
f 73 77 78 74
f 74 78 79 75
f 75 79 80 76
f 76 80 77 73
g roof_front_tile_row_4
f 81 82 83 84
f 85 88 87 86
f 81 85 86 82
f 82 86 87 83
f 83 87 88 84
f 84 88 85 81
g roof_back_tile_row_4
f 89 90 91 92
f 93 96 95 94
f 89 93 94 90
f 90 94 95 91
f 91 95 96 92
f 92 96 93 89
g roof_front_tile_row_5
f 97 98 99 100
f 101 104 103 102
f 97 101 102 98
f 98 102 103 99
f 99 103 104 100
f 100 104 101 97
g roof_back_tile_row_5
f 105 106 107 108
f 109 112 111 110
f 105 109 110 106
f 106 110 111 107
f 107 111 112 108
f 108 112 109 105
g roof_front_tile_row_6
f 113 114 115 116
f 117 120 119 118
f 113 117 118 114
f 114 118 119 115
f 115 119 120 116
f 116 120 117 113
g roof_back_tile_row_6
f 121 122 123 124
f 125 128 127 126
f 121 125 126 122
f 122 126 127 123
f 123 127 128 124
f 124 128 125 121
g roof_front_tile_row_7
f 129 130 131 132
f 133 136 135 134
f 129 133 134 130
f 130 134 135 131
f 131 135 136 132
f 132 136 133 129
g roof_back_tile_row_7
f 137 138 139 140
f 141 144 143 142
f 137 141 142 138
f 138 142 143 139
f 139 143 144 140
f 140 144 141 137
g roof_front_tile_row_8
f 145 146 147 148
f 149 152 151 150
f 145 149 150 146
f 146 150 151 147
f 147 151 152 148
f 148 152 149 145
g roof_back_tile_row_8
f 153 154 155 156
f 157 160 159 158
f 153 157 158 154
f 154 158 159 155
f 155 159 160 156
f 156 160 157 153
g roof_front_tile_row_9
f 161 162 163 164
f 165 168 167 166
f 161 165 166 162
f 162 166 167 163
f 163 167 168 164
f 164 168 165 161
g roof_back_tile_row_9
f 169 170 171 172
f 173 176 175 174
f 169 173 174 170
f 170 174 175 171
f 171 175 176 172
f 172 176 173 169
g roof_front_tile_row_10
f 177 178 179 180
f 181 184 183 182
f 177 181 182 178
f 178 182 183 179
f 179 183 184 180
f 180 184 181 177
g roof_back_tile_row_10
f 185 186 187 188
f 189 192 191 190
f 185 189 190 186
f 186 190 191 187
f 187 191 192 188
f 188 192 189 185
g roof_front_tile_row_11
f 193 194 195 196
f 197 200 199 198
f 193 197 198 194
f 194 198 199 195
f 195 199 200 196
f 196 200 197 193
g roof_back_tile_row_11
f 201 202 203 204
f 205 208 207 206
f 201 205 206 202
f 202 206 207 203
f 203 207 208 204
f 204 208 205 201
g roof_front_tile_row_12
f 209 210 211 212
f 213 216 215 214
f 209 213 214 210
f 210 214 215 211
f 211 215 216 212
f 212 216 213 209
g roof_back_tile_row_12
f 217 218 219 220
f 221 224 223 222
f 217 221 222 218
f 218 222 223 219
f 219 223 224 220
f 220 224 221 217
g roof_front_tile_row_13
f 225 226 227 228
f 229 232 231 230
f 225 229 230 226
f 226 230 231 227
f 227 231 232 228
f 228 232 229 225
g roof_back_tile_row_13
f 233 234 235 236
f 237 240 239 238
f 233 237 238 234
f 234 238 239 235
f 235 239 240 236
f 236 240 237 233
g roof_front_tile_row_14
f 241 242 243 244
f 245 248 247 246
f 241 245 246 242
f 242 246 247 243
f 243 247 248 244
f 244 248 245 241
g roof_back_tile_row_14
f 249 250 251 252
f 253 256 255 254
f 249 253 254 250
f 250 254 255 251
f 251 255 256 252
f 252 256 253 249
g roof_ridge_cap
f 257 259 260 258
f 259 261 262 260
f 261 263 264 262
f 263 265 266 264
f 265 267 268 266
f 267 269 270 268
f 269 271 272 270
f 271 273 274 272
f 273 275 276 274
f 275 277 278 276
f 277 279 280 278
f 279 281 282 280
f 281 283 284 282
f 283 285 286 284
f 285 287 288 286
f 287 257 258 288
g roof_ridge_cap_capA
f 287 285 283 281 279 277 275 273 271 269 267 265 263 261 259 257
g roof_ridge_cap_capB
f 258 260 262 264 266 268 270 272 274 276 278 280 282 284 286 288
g roof_front_eave
usemtl Mat_WoodDark
f 289 290 291 292
f 293 296 295 294
f 289 293 294 290
f 290 294 295 291
f 291 295 296 292
f 292 296 293 289
g roof_back_eave
f 297 298 299 300
f 301 304 303 302
f 297 301 302 298
f 298 302 303 299
f 299 303 304 300
f 300 304 301 297
