# GalakasMidCity_ROF_W04D04_FlatService_01
mtllib GalakasMidCity_ROF_W04D04_FlatService_01.mtl
v -4.22500 0.00000 -4.22500
v 4.22500 0.00000 -4.22500
v 4.22500 0.24000 -4.22500
v -4.22500 0.24000 -4.22500
v -4.22500 0.00000 4.22500
v 4.22500 0.00000 4.22500
v 4.22500 0.24000 4.22500
v -4.22500 0.24000 4.22500
v -4.07500 0.24000 -4.07500
v 4.07500 0.24000 -4.07500
v 4.07500 0.46000 -4.07500
v -4.07500 0.46000 -4.07500
v -4.07500 0.24000 4.07500
v 4.07500 0.24000 4.07500
v 4.07500 0.46000 4.07500
v -4.07500 0.46000 4.07500
v -3.40000 0.45000 -3.56000
v -3.40000 1.65000 -3.56000
v -3.46123 0.45000 -3.54782
v -3.46123 1.65000 -3.54782
v -3.51314 0.45000 -3.51314
v -3.51314 1.65000 -3.51314
v -3.54782 0.45000 -3.46123
v -3.54782 1.65000 -3.46123
v -3.56000 0.45000 -3.40000
v -3.56000 1.65000 -3.40000
v -3.54782 0.45000 -3.33877
v -3.54782 1.65000 -3.33877
v -3.51314 0.45000 -3.28686
v -3.51314 1.65000 -3.28686
v -3.46123 0.45000 -3.25218
v -3.46123 1.65000 -3.25218
v -3.40000 0.45000 -3.24000
v -3.40000 1.65000 -3.24000
v -3.33877 0.45000 -3.25218
v -3.33877 1.65000 -3.25218
v -3.28686 0.45000 -3.28686
v -3.28686 1.65000 -3.28686
v -3.25218 0.45000 -3.33877
v -3.25218 1.65000 -3.33877
v -3.24000 0.45000 -3.40000
v -3.24000 1.65000 -3.40000
v -3.25218 0.45000 -3.46123
v -3.25218 1.65000 -3.46123
v -3.28686 0.45000 -3.51314
v -3.28686 1.65000 -3.51314
v -3.33877 0.45000 -3.54782
v -3.33877 1.65000 -3.54782
v -3.65000 1.65000 -3.22000
v -3.15000 1.65000 -3.22000
v -3.65000 1.56000 -3.24412
v -3.15000 1.56000 -3.24412
v -3.65000 1.49412 -3.31000
v -3.15000 1.49412 -3.31000
v -3.65000 1.47000 -3.40000
v -3.15000 1.47000 -3.40000
v -3.65000 1.49412 -3.49000
v -3.15000 1.49412 -3.49000
v -3.65000 1.56000 -3.55588
v -3.15000 1.56000 -3.55588
v -3.65000 1.65000 -3.58000
v -3.15000 1.65000 -3.58000
v -3.65000 1.74000 -3.55588
v -3.15000 1.74000 -3.55588
v -3.65000 1.80588 -3.49000
v -3.15000 1.80588 -3.49000
v -3.65000 1.83000 -3.40000
v -3.15000 1.83000 -3.40000
v -3.65000 1.80588 -3.31000
v -3.15000 1.80588 -3.31000
v -3.65000 1.74000 -3.24412
v -3.15000 1.74000 -3.24412
v 3.40000 0.45000 3.24000
v 3.40000 1.65000 3.24000
v 3.33877 0.45000 3.25218
v 3.33877 1.65000 3.25218
v 3.28686 0.45000 3.28686
v 3.28686 1.65000 3.28686
v 3.25218 0.45000 3.33877
v 3.25218 1.65000 3.33877
v 3.24000 0.45000 3.40000
v 3.24000 1.65000 3.40000
v 3.25218 0.45000 3.46123
v 3.25218 1.65000 3.46123
v 3.28686 0.45000 3.51314
v 3.28686 1.65000 3.51314
v 3.33877 0.45000 3.54782
v 3.33877 1.65000 3.54782
v 3.40000 0.45000 3.56000
v 3.40000 1.65000 3.56000
v 3.46123 0.45000 3.54782
v 3.46123 1.65000 3.54782
v 3.51314 0.45000 3.51314
v 3.51314 1.65000 3.51314
v 3.54782 0.45000 3.46123
v 3.54782 1.65000 3.46123
v 3.56000 0.45000 3.40000
v 3.56000 1.65000 3.40000
v 3.54782 0.45000 3.33877
v 3.54782 1.65000 3.33877
v 3.51314 0.45000 3.28686
v 3.51314 1.65000 3.28686
v 3.46123 0.45000 3.25218
v 3.46123 1.65000 3.25218
v 3.15000 1.65000 3.58000
v 3.65000 1.65000 3.58000
v 3.15000 1.56000 3.55588
v 3.65000 1.56000 3.55588
v 3.15000 1.49412 3.49000
v 3.65000 1.49412 3.49000
v 3.15000 1.47000 3.40000
v 3.65000 1.47000 3.40000
v 3.15000 1.49412 3.31000
v 3.65000 1.49412 3.31000
v 3.15000 1.56000 3.24412
v 3.65000 1.56000 3.24412
v 3.15000 1.65000 3.22000
v 3.65000 1.65000 3.22000
v 3.15000 1.74000 3.24412
v 3.65000 1.74000 3.24412
v 3.15000 1.80588 3.31000
v 3.65000 1.80588 3.31000
v 3.15000 1.83000 3.40000
v 3.65000 1.83000 3.40000
v 3.15000 1.80588 3.49000
v 3.65000 1.80588 3.49000
v 3.15000 1.74000 3.55588
v 3.65000 1.74000 3.55588
g flat_roof_slab
usemtl Mat_RoofTileDirty
f 1 2 3 4
f 5 8 7 6
f 1 5 6 2
f 2 6 7 3
f 3 7 8 4
f 4 8 5 1
g flat_roof_parapet_ring
usemtl Mat_StoneFoundation
f 9 10 11 12
f 13 16 15 14
f 9 13 14 10
f 10 14 15 11
f 11 15 16 12
f 12 16 13 9
g flat_roof_vent_-3_4_-3_4_pipe
usemtl Mat_MetalRust
f 17 19 20 18
f 19 21 22 20
f 21 23 24 22
f 23 25 26 24
f 25 27 28 26
f 27 29 30 28
f 29 31 32 30
f 31 33 34 32
f 33 35 36 34
f 35 37 38 36
f 37 39 40 38
f 39 41 42 40
f 41 43 44 42
f 43 45 46 44
f 45 47 48 46
f 47 17 18 48
g flat_roof_vent_-3_4_-3_4_pipe_capA
f 47 45 43 41 39 37 35 33 31 29 27 25 23 21 19 17
g flat_roof_vent_-3_4_-3_4_pipe_capB
f 18 20 22 24 26 28 30 32 34 36 38 40 42 44 46 48
g flat_roof_vent_-3_4_-3_4_cap_cross
usemtl Mat_MetalDark
f 49 51 52 50
f 51 53 54 52
f 53 55 56 54
f 55 57 58 56
f 57 59 60 58
f 59 61 62 60
f 61 63 64 62
f 63 65 66 64
f 65 67 68 66
f 67 69 70 68
f 69 71 72 70
f 71 49 50 72
g flat_roof_vent_-3_4_-3_4_cap_cross_capA
f 71 69 67 65 63 61 59 57 55 53 51 49
g flat_roof_vent_-3_4_-3_4_cap_cross_capB
f 50 52 54 56 58 60 62 64 66 68 70 72
g flat_roof_vent_3_4_3_4_pipe
usemtl Mat_MetalRust
f 73 75 76 74
f 75 77 78 76
f 77 79 80 78
f 79 81 82 80
f 81 83 84 82
f 83 85 86 84
f 85 87 88 86
f 87 89 90 88
f 89 91 92 90
f 91 93 94 92
f 93 95 96 94
f 95 97 98 96
f 97 99 100 98
f 99 101 102 100
f 101 103 104 102
f 103 73 74 104
g flat_roof_vent_3_4_3_4_pipe_capA
f 103 101 99 97 95 93 91 89 87 85 83 81 79 77 75 73
g flat_roof_vent_3_4_3_4_pipe_capB
f 74 76 78 80 82 84 86 88 90 92 94 96 98 100 102 104
g flat_roof_vent_3_4_3_4_cap_cross
usemtl Mat_MetalDark
f 105 107 108 106
f 107 109 110 108
f 109 111 112 110
f 111 113 114 112
f 113 115 116 114
f 115 117 118 116
f 117 119 120 118
f 119 121 122 120
f 121 123 124 122
f 123 125 126 124
f 125 127 128 126
f 127 105 106 128
g flat_roof_vent_3_4_3_4_cap_cross_capA
f 127 125 123 121 119 117 115 113 111 109 107 105
g flat_roof_vent_3_4_3_4_cap_cross_capB
f 106 108 110 112 114 116 118 120 122 124 126 128
